<?xml version="1.0" encoding="utf-8" standalone="no"?>
<!DOCTYPE svg PUBLIC "-//W3C//DTD SVG 1.1//EN"
  "http://www.w3.org/Graphics/SVG/1.1/DTD/svg11.dtd">
<!-- Created with matplotlib (https://matplotlib.org/) -->
<svg height="345.6pt" version="1.1" viewBox="0 0 460.8 345.6" width="460.8pt" xmlns="http://www.w3.org/2000/svg" xmlns:xlink="http://www.w3.org/1999/xlink">
 <defs>
  <style type="text/css">
*{stroke-linecap:butt;stroke-linejoin:round;}
  </style>
 </defs>
 <g id="figure_1">
  <g id="patch_1">
   <path d="M 0 345.6 
L 460.8 345.6 
L 460.8 0 
L 0 0 
z
" style="fill:#ffffff;"/>
  </g>
  <g id="axes_1">
   <g id="patch_2">
    <path d="M 47.72 136.24 
L 447.48 136.24 
L 447.48 25.44 
L 47.72 25.44 
z
" style="fill:#ffffff;"/>
   </g>
   <g id="matplotlib.axis_1">
    <g id="xtick_1">
     <g id="line2d_1">
      <defs>
       <path d="M 0 0 
L 0 3.5 
" id="m4ea62ba6c4" style="stroke:#000000;stroke-width:0.8;"/>
      </defs>
      <g>
       <use style="stroke:#000000;stroke-width:0.8;" x="65.890909" xlink:href="#m4ea62ba6c4" y="136.24"/>
      </g>
     </g>
     <g id="text_1">
      <!-- 0 -->
      <defs>
       <path d="M 31.78125 66.40625 
Q 24.171875 66.40625 20.328125 58.90625 
Q 16.5 51.421875 16.5 36.375 
Q 16.5 21.390625 20.328125 13.890625 
Q 24.171875 6.390625 31.78125 6.390625 
Q 39.453125 6.390625 43.28125 13.890625 
Q 47.125 21.390625 47.125 36.375 
Q 47.125 51.421875 43.28125 58.90625 
Q 39.453125 66.40625 31.78125 66.40625 
z
M 31.78125 74.21875 
Q 44.046875 74.21875 50.515625 64.515625 
Q 56.984375 54.828125 56.984375 36.375 
Q 56.984375 17.96875 50.515625 8.265625 
Q 44.046875 -1.421875 31.78125 -1.421875 
Q 19.53125 -1.421875 13.0625 8.265625 
Q 6.59375 17.96875 6.59375 36.375 
Q 6.59375 54.828125 13.0625 64.515625 
Q 19.53125 74.21875 31.78125 74.21875 
z
" id="DejaVuSans-48"/>
      </defs>
      <g transform="translate(62.709659 150.838437)scale(0.1 -0.1)">
       <use xlink:href="#DejaVuSans-48"/>
      </g>
     </g>
    </g>
    <g id="xtick_2">
     <g id="line2d_2">
      <g>
       <use style="stroke:#000000;stroke-width:0.8;" x="138.720204" xlink:href="#m4ea62ba6c4" y="136.24"/>
      </g>
     </g>
     <g id="text_2">
      <!-- 100 -->
      <defs>
       <path d="M 12.40625 8.296875 
L 28.515625 8.296875 
L 28.515625 63.921875 
L 10.984375 60.40625 
L 10.984375 69.390625 
L 28.421875 72.90625 
L 38.28125 72.90625 
L 38.28125 8.296875 
L 54.390625 8.296875 
L 54.390625 0 
L 12.40625 0 
z
" id="DejaVuSans-49"/>
      </defs>
      <g transform="translate(129.176454 150.838437)scale(0.1 -0.1)">
       <use xlink:href="#DejaVuSans-49"/>
       <use x="63.623047" xlink:href="#DejaVuSans-48"/>
       <use x="127.246094" xlink:href="#DejaVuSans-48"/>
      </g>
     </g>
    </g>
    <g id="xtick_3">
     <g id="line2d_3">
      <g>
       <use style="stroke:#000000;stroke-width:0.8;" x="211.549499" xlink:href="#m4ea62ba6c4" y="136.24"/>
      </g>
     </g>
     <g id="text_3">
      <!-- 200 -->
      <defs>
       <path d="M 19.1875 8.296875 
L 53.609375 8.296875 
L 53.609375 0 
L 7.328125 0 
L 7.328125 8.296875 
Q 12.9375 14.109375 22.625 23.890625 
Q 32.328125 33.6875 34.8125 36.53125 
Q 39.546875 41.84375 41.421875 45.53125 
Q 43.3125 49.21875 43.3125 52.78125 
Q 43.3125 58.59375 39.234375 62.25 
Q 35.15625 65.921875 28.609375 65.921875 
Q 23.96875 65.921875 18.8125 64.3125 
Q 13.671875 62.703125 7.8125 59.421875 
L 7.8125 69.390625 
Q 13.765625 71.78125 18.9375 73 
Q 24.125 74.21875 28.421875 74.21875 
Q 39.75 74.21875 46.484375 68.546875 
Q 53.21875 62.890625 53.21875 53.421875 
Q 53.21875 48.921875 51.53125 44.890625 
Q 49.859375 40.875 45.40625 35.40625 
Q 44.1875 33.984375 37.640625 27.21875 
Q 31.109375 20.453125 19.1875 8.296875 
z
" id="DejaVuSans-50"/>
      </defs>
      <g transform="translate(202.005749 150.838437)scale(0.1 -0.1)">
       <use xlink:href="#DejaVuSans-50"/>
       <use x="63.623047" xlink:href="#DejaVuSans-48"/>
       <use x="127.246094" xlink:href="#DejaVuSans-48"/>
      </g>
     </g>
    </g>
    <g id="xtick_4">
     <g id="line2d_4">
      <g>
       <use style="stroke:#000000;stroke-width:0.8;" x="284.378794" xlink:href="#m4ea62ba6c4" y="136.24"/>
      </g>
     </g>
     <g id="text_4">
      <!-- 300 -->
      <defs>
       <path d="M 40.578125 39.3125 
Q 47.65625 37.796875 51.625 33 
Q 55.609375 28.21875 55.609375 21.1875 
Q 55.609375 10.40625 48.1875 4.484375 
Q 40.765625 -1.421875 27.09375 -1.421875 
Q 22.515625 -1.421875 17.65625 -0.515625 
Q 12.796875 0.390625 7.625 2.203125 
L 7.625 11.71875 
Q 11.71875 9.328125 16.59375 8.109375 
Q 21.484375 6.890625 26.8125 6.890625 
Q 36.078125 6.890625 40.9375 10.546875 
Q 45.796875 14.203125 45.796875 21.1875 
Q 45.796875 27.640625 41.28125 31.265625 
Q 36.765625 34.90625 28.71875 34.90625 
L 20.21875 34.90625 
L 20.21875 43.015625 
L 29.109375 43.015625 
Q 36.375 43.015625 40.234375 45.921875 
Q 44.09375 48.828125 44.09375 54.296875 
Q 44.09375 59.90625 40.109375 62.90625 
Q 36.140625 65.921875 28.71875 65.921875 
Q 24.65625 65.921875 20.015625 65.03125 
Q 15.375 64.15625 9.8125 62.3125 
L 9.8125 71.09375 
Q 15.4375 72.65625 20.34375 73.4375 
Q 25.25 74.21875 29.59375 74.21875 
Q 40.828125 74.21875 47.359375 69.109375 
Q 53.90625 64.015625 53.90625 55.328125 
Q 53.90625 49.265625 50.4375 45.09375 
Q 46.96875 40.921875 40.578125 39.3125 
z
" id="DejaVuSans-51"/>
      </defs>
      <g transform="translate(274.835044 150.838437)scale(0.1 -0.1)">
       <use xlink:href="#DejaVuSans-51"/>
       <use x="63.623047" xlink:href="#DejaVuSans-48"/>
       <use x="127.246094" xlink:href="#DejaVuSans-48"/>
      </g>
     </g>
    </g>
    <g id="xtick_5">
     <g id="line2d_5">
      <g>
       <use style="stroke:#000000;stroke-width:0.8;" x="357.208089" xlink:href="#m4ea62ba6c4" y="136.24"/>
      </g>
     </g>
     <g id="text_5">
      <!-- 400 -->
      <defs>
       <path d="M 37.796875 64.3125 
L 12.890625 25.390625 
L 37.796875 25.390625 
z
M 35.203125 72.90625 
L 47.609375 72.90625 
L 47.609375 25.390625 
L 58.015625 25.390625 
L 58.015625 17.1875 
L 47.609375 17.1875 
L 47.609375 0 
L 37.796875 0 
L 37.796875 17.1875 
L 4.890625 17.1875 
L 4.890625 26.703125 
z
" id="DejaVuSans-52"/>
      </defs>
      <g transform="translate(347.664339 150.838437)scale(0.1 -0.1)">
       <use xlink:href="#DejaVuSans-52"/>
       <use x="63.623047" xlink:href="#DejaVuSans-48"/>
       <use x="127.246094" xlink:href="#DejaVuSans-48"/>
      </g>
     </g>
    </g>
    <g id="xtick_6">
     <g id="line2d_6">
      <g>
       <use style="stroke:#000000;stroke-width:0.8;" x="430.037384" xlink:href="#m4ea62ba6c4" y="136.24"/>
      </g>
     </g>
     <g id="text_6">
      <!-- 500 -->
      <defs>
       <path d="M 10.796875 72.90625 
L 49.515625 72.90625 
L 49.515625 64.59375 
L 19.828125 64.59375 
L 19.828125 46.734375 
Q 21.96875 47.46875 24.109375 47.828125 
Q 26.265625 48.1875 28.421875 48.1875 
Q 40.625 48.1875 47.75 41.5 
Q 54.890625 34.8125 54.890625 23.390625 
Q 54.890625 11.625 47.5625 5.09375 
Q 40.234375 -1.421875 26.90625 -1.421875 
Q 22.3125 -1.421875 17.546875 -0.640625 
Q 12.796875 0.140625 7.71875 1.703125 
L 7.71875 11.625 
Q 12.109375 9.234375 16.796875 8.0625 
Q 21.484375 6.890625 26.703125 6.890625 
Q 35.15625 6.890625 40.078125 11.328125 
Q 45.015625 15.765625 45.015625 23.390625 
Q 45.015625 31 40.078125 35.4375 
Q 35.15625 39.890625 26.703125 39.890625 
Q 22.75 39.890625 18.8125 39.015625 
Q 14.890625 38.140625 10.796875 36.28125 
z
" id="DejaVuSans-53"/>
      </defs>
      <g transform="translate(420.493634 150.838437)scale(0.1 -0.1)">
       <use xlink:href="#DejaVuSans-53"/>
       <use x="63.623047" xlink:href="#DejaVuSans-48"/>
       <use x="127.246094" xlink:href="#DejaVuSans-48"/>
      </g>
     </g>
    </g>
    <g id="text_7">
     <!-- epoch -->
     <defs>
      <path d="M 56.203125 29.59375 
L 56.203125 25.203125 
L 14.890625 25.203125 
Q 15.484375 15.921875 20.484375 11.0625 
Q 25.484375 6.203125 34.421875 6.203125 
Q 39.59375 6.203125 44.453125 7.46875 
Q 49.3125 8.734375 54.109375 11.28125 
L 54.109375 2.78125 
Q 49.265625 0.734375 44.1875 -0.34375 
Q 39.109375 -1.421875 33.890625 -1.421875 
Q 20.796875 -1.421875 13.15625 6.1875 
Q 5.515625 13.8125 5.515625 26.8125 
Q 5.515625 40.234375 12.765625 48.109375 
Q 20.015625 56 32.328125 56 
Q 43.359375 56 49.78125 48.890625 
Q 56.203125 41.796875 56.203125 29.59375 
z
M 47.21875 32.234375 
Q 47.125 39.59375 43.09375 43.984375 
Q 39.0625 48.390625 32.421875 48.390625 
Q 24.90625 48.390625 20.390625 44.140625 
Q 15.875 39.890625 15.1875 32.171875 
z
" id="DejaVuSans-101"/>
      <path d="M 18.109375 8.203125 
L 18.109375 -20.796875 
L 9.078125 -20.796875 
L 9.078125 54.6875 
L 18.109375 54.6875 
L 18.109375 46.390625 
Q 20.953125 51.265625 25.265625 53.625 
Q 29.59375 56 35.59375 56 
Q 45.5625 56 51.78125 48.09375 
Q 58.015625 40.1875 58.015625 27.296875 
Q 58.015625 14.40625 51.78125 6.484375 
Q 45.5625 -1.421875 35.59375 -1.421875 
Q 29.59375 -1.421875 25.265625 0.953125 
Q 20.953125 3.328125 18.109375 8.203125 
z
M 48.6875 27.296875 
Q 48.6875 37.203125 44.609375 42.84375 
Q 40.53125 48.484375 33.40625 48.484375 
Q 26.265625 48.484375 22.1875 42.84375 
Q 18.109375 37.203125 18.109375 27.296875 
Q 18.109375 17.390625 22.1875 11.75 
Q 26.265625 6.109375 33.40625 6.109375 
Q 40.53125 6.109375 44.609375 11.75 
Q 48.6875 17.390625 48.6875 27.296875 
z
" id="DejaVuSans-112"/>
      <path d="M 30.609375 48.390625 
Q 23.390625 48.390625 19.1875 42.75 
Q 14.984375 37.109375 14.984375 27.296875 
Q 14.984375 17.484375 19.15625 11.84375 
Q 23.34375 6.203125 30.609375 6.203125 
Q 37.796875 6.203125 41.984375 11.859375 
Q 46.1875 17.53125 46.1875 27.296875 
Q 46.1875 37.015625 41.984375 42.703125 
Q 37.796875 48.390625 30.609375 48.390625 
z
M 30.609375 56 
Q 42.328125 56 49.015625 48.375 
Q 55.71875 40.765625 55.71875 27.296875 
Q 55.71875 13.875 49.015625 6.21875 
Q 42.328125 -1.421875 30.609375 -1.421875 
Q 18.84375 -1.421875 12.171875 6.21875 
Q 5.515625 13.875 5.515625 27.296875 
Q 5.515625 40.765625 12.171875 48.375 
Q 18.84375 56 30.609375 56 
z
" id="DejaVuSans-111"/>
      <path d="M 48.78125 52.59375 
L 48.78125 44.1875 
Q 44.96875 46.296875 41.140625 47.34375 
Q 37.3125 48.390625 33.40625 48.390625 
Q 24.65625 48.390625 19.8125 42.84375 
Q 14.984375 37.3125 14.984375 27.296875 
Q 14.984375 17.28125 19.8125 11.734375 
Q 24.65625 6.203125 33.40625 6.203125 
Q 37.3125 6.203125 41.140625 7.25 
Q 44.96875 8.296875 48.78125 10.40625 
L 48.78125 2.09375 
Q 45.015625 0.34375 40.984375 -0.53125 
Q 36.96875 -1.421875 32.421875 -1.421875 
Q 20.0625 -1.421875 12.78125 6.34375 
Q 5.515625 14.109375 5.515625 27.296875 
Q 5.515625 40.671875 12.859375 48.328125 
Q 20.21875 56 33.015625 56 
Q 37.15625 56 41.109375 55.140625 
Q 45.0625 54.296875 48.78125 52.59375 
z
" id="DejaVuSans-99"/>
      <path d="M 54.890625 33.015625 
L 54.890625 0 
L 45.90625 0 
L 45.90625 32.71875 
Q 45.90625 40.484375 42.875 44.328125 
Q 39.84375 48.1875 33.796875 48.1875 
Q 26.515625 48.1875 22.3125 43.546875 
Q 18.109375 38.921875 18.109375 30.90625 
L 18.109375 0 
L 9.078125 0 
L 9.078125 75.984375 
L 18.109375 75.984375 
L 18.109375 46.1875 
Q 21.34375 51.125 25.703125 53.5625 
Q 30.078125 56 35.796875 56 
Q 45.21875 56 50.046875 50.171875 
Q 54.890625 44.34375 54.890625 33.015625 
z
" id="DejaVuSans-104"/>
     </defs>
     <g transform="translate(232.371875 164.516562)scale(0.1 -0.1)">
      <use xlink:href="#DejaVuSans-101"/>
      <use x="61.523438" xlink:href="#DejaVuSans-112"/>
      <use x="125" xlink:href="#DejaVuSans-111"/>
      <use x="186.181641" xlink:href="#DejaVuSans-99"/>
      <use x="241.162109" xlink:href="#DejaVuSans-104"/>
     </g>
    </g>
   </g>
   <g id="matplotlib.axis_2">
    <g id="ytick_1">
     <g id="line2d_7">
      <defs>
       <path d="M 0 0 
L -3.5 0 
" id="me58b6a57a7" style="stroke:#000000;stroke-width:0.8;"/>
      </defs>
      <g>
       <use style="stroke:#000000;stroke-width:0.8;" x="47.72" xlink:href="#me58b6a57a7" y="123.374485"/>
      </g>
     </g>
     <g id="text_8">
      <!-- 0.6 -->
      <defs>
       <path d="M 10.6875 12.40625 
L 21 12.40625 
L 21 0 
L 10.6875 0 
z
" id="DejaVuSans-46"/>
       <path d="M 33.015625 40.375 
Q 26.375 40.375 22.484375 35.828125 
Q 18.609375 31.296875 18.609375 23.390625 
Q 18.609375 15.53125 22.484375 10.953125 
Q 26.375 6.390625 33.015625 6.390625 
Q 39.65625 6.390625 43.53125 10.953125 
Q 47.40625 15.53125 47.40625 23.390625 
Q 47.40625 31.296875 43.53125 35.828125 
Q 39.65625 40.375 33.015625 40.375 
z
M 52.59375 71.296875 
L 52.59375 62.3125 
Q 48.875 64.0625 45.09375 64.984375 
Q 41.3125 65.921875 37.59375 65.921875 
Q 27.828125 65.921875 22.671875 59.328125 
Q 17.53125 52.734375 16.796875 39.40625 
Q 19.671875 43.65625 24.015625 45.921875 
Q 28.375 48.1875 33.59375 48.1875 
Q 44.578125 48.1875 50.953125 41.515625 
Q 57.328125 34.859375 57.328125 23.390625 
Q 57.328125 12.15625 50.6875 5.359375 
Q 44.046875 -1.421875 33.015625 -1.421875 
Q 20.359375 -1.421875 13.671875 8.265625 
Q 6.984375 17.96875 6.984375 36.375 
Q 6.984375 53.65625 15.1875 63.9375 
Q 23.390625 74.21875 37.203125 74.21875 
Q 40.921875 74.21875 44.703125 73.484375 
Q 48.484375 72.75 52.59375 71.296875 
z
" id="DejaVuSans-54"/>
      </defs>
      <g transform="translate(24.816875 127.173704)scale(0.1 -0.1)">
       <use xlink:href="#DejaVuSans-48"/>
       <use x="63.623047" xlink:href="#DejaVuSans-46"/>
       <use x="95.410156" xlink:href="#DejaVuSans-54"/>
      </g>
     </g>
    </g>
    <g id="ytick_2">
     <g id="line2d_8">
      <g>
       <use style="stroke:#000000;stroke-width:0.8;" x="47.72" xlink:href="#me58b6a57a7" y="97.562322"/>
      </g>
     </g>
     <g id="text_9">
      <!-- 0.8 -->
      <defs>
       <path d="M 31.78125 34.625 
Q 24.75 34.625 20.71875 30.859375 
Q 16.703125 27.09375 16.703125 20.515625 
Q 16.703125 13.921875 20.71875 10.15625 
Q 24.75 6.390625 31.78125 6.390625 
Q 38.8125 6.390625 42.859375 10.171875 
Q 46.921875 13.96875 46.921875 20.515625 
Q 46.921875 27.09375 42.890625 30.859375 
Q 38.875 34.625 31.78125 34.625 
z
M 21.921875 38.8125 
Q 15.578125 40.375 12.03125 44.71875 
Q 8.5 49.078125 8.5 55.328125 
Q 8.5 64.0625 14.71875 69.140625 
Q 20.953125 74.21875 31.78125 74.21875 
Q 42.671875 74.21875 48.875 69.140625 
Q 55.078125 64.0625 55.078125 55.328125 
Q 55.078125 49.078125 51.53125 44.71875 
Q 48 40.375 41.703125 38.8125 
Q 48.828125 37.15625 52.796875 32.3125 
Q 56.78125 27.484375 56.78125 20.515625 
Q 56.78125 9.90625 50.3125 4.234375 
Q 43.84375 -1.421875 31.78125 -1.421875 
Q 19.734375 -1.421875 13.25 4.234375 
Q 6.78125 9.90625 6.78125 20.515625 
Q 6.78125 27.484375 10.78125 32.3125 
Q 14.796875 37.15625 21.921875 38.8125 
z
M 18.3125 54.390625 
Q 18.3125 48.734375 21.84375 45.5625 
Q 25.390625 42.390625 31.78125 42.390625 
Q 38.140625 42.390625 41.71875 45.5625 
Q 45.3125 48.734375 45.3125 54.390625 
Q 45.3125 60.0625 41.71875 63.234375 
Q 38.140625 66.40625 31.78125 66.40625 
Q 25.390625 66.40625 21.84375 63.234375 
Q 18.3125 60.0625 18.3125 54.390625 
z
" id="DejaVuSans-56"/>
      </defs>
      <g transform="translate(24.816875 101.361541)scale(0.1 -0.1)">
       <use xlink:href="#DejaVuSans-48"/>
       <use x="63.623047" xlink:href="#DejaVuSans-46"/>
       <use x="95.410156" xlink:href="#DejaVuSans-56"/>
      </g>
     </g>
    </g>
    <g id="ytick_3">
     <g id="line2d_9">
      <g>
       <use style="stroke:#000000;stroke-width:0.8;" x="47.72" xlink:href="#me58b6a57a7" y="71.750159"/>
      </g>
     </g>
     <g id="text_10">
      <!-- 1.0 -->
      <g transform="translate(24.816875 75.549378)scale(0.1 -0.1)">
       <use xlink:href="#DejaVuSans-49"/>
       <use x="63.623047" xlink:href="#DejaVuSans-46"/>
       <use x="95.410156" xlink:href="#DejaVuSans-48"/>
      </g>
     </g>
    </g>
    <g id="ytick_4">
     <g id="line2d_10">
      <g>
       <use style="stroke:#000000;stroke-width:0.8;" x="47.72" xlink:href="#me58b6a57a7" y="45.937997"/>
      </g>
     </g>
     <g id="text_11">
      <!-- 1.2 -->
      <g transform="translate(24.816875 49.737215)scale(0.1 -0.1)">
       <use xlink:href="#DejaVuSans-49"/>
       <use x="63.623047" xlink:href="#DejaVuSans-46"/>
       <use x="95.410156" xlink:href="#DejaVuSans-50"/>
      </g>
     </g>
    </g>
    <g id="text_12">
     <!-- loss -->
     <defs>
      <path d="M 9.421875 75.984375 
L 18.40625 75.984375 
L 18.40625 0 
L 9.421875 0 
z
" id="DejaVuSans-108"/>
      <path d="M 44.28125 53.078125 
L 44.28125 44.578125 
Q 40.484375 46.53125 36.375 47.5 
Q 32.28125 48.484375 27.875 48.484375 
Q 21.1875 48.484375 17.84375 46.4375 
Q 14.5 44.390625 14.5 40.28125 
Q 14.5 37.15625 16.890625 35.375 
Q 19.28125 33.59375 26.515625 31.984375 
L 29.59375 31.296875 
Q 39.15625 29.25 43.1875 25.515625 
Q 47.21875 21.78125 47.21875 15.09375 
Q 47.21875 7.46875 41.1875 3.015625 
Q 35.15625 -1.421875 24.609375 -1.421875 
Q 20.21875 -1.421875 15.453125 -0.5625 
Q 10.6875 0.296875 5.421875 2 
L 5.421875 11.28125 
Q 10.40625 8.6875 15.234375 7.390625 
Q 20.0625 6.109375 24.8125 6.109375 
Q 31.15625 6.109375 34.5625 8.28125 
Q 37.984375 10.453125 37.984375 14.40625 
Q 37.984375 18.0625 35.515625 20.015625 
Q 33.0625 21.96875 24.703125 23.78125 
L 21.578125 24.515625 
Q 13.234375 26.265625 9.515625 29.90625 
Q 5.8125 33.546875 5.8125 39.890625 
Q 5.8125 47.609375 11.28125 51.796875 
Q 16.75 56 26.8125 56 
Q 31.78125 56 36.171875 55.265625 
Q 40.578125 54.546875 44.28125 53.078125 
z
" id="DejaVuSans-115"/>
     </defs>
     <g transform="translate(18.737188 90.497812)rotate(-90)scale(0.1 -0.1)">
      <use xlink:href="#DejaVuSans-108"/>
      <use x="27.783203" xlink:href="#DejaVuSans-111"/>
      <use x="88.964844" xlink:href="#DejaVuSans-115"/>
      <use x="141.064453" xlink:href="#DejaVuSans-115"/>
     </g>
    </g>
   </g>
   <g id="line2d_11">
    <path clip-path="url(#p01da8ef99d)" d="M 65.890909 30.476364 
L 66.619202 48.69265 
L 67.347495 51.717592 
L 68.075788 52.573955 
L 68.804081 52.884143 
L 69.532374 53.522534 
L 70.98896 53.988293 
L 71.717253 54.29825 
L 72.445546 54.743634 
L 73.173839 54.979036 
L 74.630424 55.96365 
L 75.358717 56.37317 
L 76.08701 56.999989 
L 77.543596 57.853447 
L 80.456768 60.651869 
L 81.913354 62.459219 
L 82.641647 63.746947 
L 83.36994 64.738838 
L 84.098233 65.919151 
L 85.554819 67.768072 
L 86.283112 68.954514 
L 87.011405 69.704314 
L 87.739698 70.748102 
L 88.467991 71.35746 
L 90.652869 73.602116 
L 92.837748 75.293644 
L 93.566041 76.108653 
L 95.75092 77.54115 
L 97.207506 78.871206 
L 98.664092 79.804073 
L 99.392385 80.499492 
L 100.120678 80.753731 
L 103.762142 83.271617 
L 104.490435 83.569126 
L 108.860193 86.304772 
L 109.588486 86.948464 
L 110.316779 87.132909 
L 111.773365 88.042667 
L 112.501658 88.338636 
L 113.958244 89.145567 
L 114.686537 89.31256 
L 115.41483 90.130779 
L 116.871416 90.534098 
L 117.599709 91.288004 
L 118.328001 91.447445 
L 121.241173 93.001581 
L 121.969466 93.081218 
L 122.697759 93.705492 
L 123.426052 94.093857 
L 124.882638 94.532763 
L 125.610931 95.210854 
L 127.79581 95.947468 
L 128.524103 96.483756 
L 129.252396 96.65535 
L 135.078739 99.269406 
L 135.807032 99.501794 
L 136.535325 100.052054 
L 137.991911 100.846083 
L 138.720204 100.880036 
L 139.448497 101.300707 
L 141.633376 101.978319 
L 142.361669 102.554799 
L 143.089962 102.583193 
L 143.818255 102.952132 
L 144.546548 103.02829 
L 145.274841 103.508486 
L 146.731426 103.966379 
L 148.188012 104.524672 
L 148.916305 104.898684 
L 149.644598 105.134554 
L 150.372891 105.08813 
L 151.101184 105.294741 
L 152.55777 105.9841 
L 153.286063 106.034683 
L 154.014356 106.304581 
L 154.742649 106.74662 
L 156.927528 107.313596 
L 159.112407 108.174492 
L 159.8407 108.08101 
L 160.568993 108.215488 
L 162.025578 108.826856 
L 164.210457 109.575662 
L 164.93875 109.541148 
L 166.395336 109.919975 
L 170.036801 110.732469 
L 170.765094 111.174333 
L 172.949973 111.308224 
L 173.678266 111.875954 
L 174.406559 111.71594 
L 175.134852 111.704868 
L 175.863144 112.26027 
L 176.591437 112.11849 
L 177.31973 112.393817 
L 178.048023 112.384223 
L 178.776316 112.739061 
L 179.504609 112.911639 
L 180.232902 112.797867 
L 180.961195 113.108658 
L 181.689488 113.03679 
L 182.417781 113.499771 
L 183.874367 113.616692 
L 184.60266 113.865009 
L 185.330953 113.874661 
L 186.059246 114.108524 
L 186.787539 114.14565 
L 187.515832 114.411742 
L 188.244125 114.4297 
L 188.972418 114.575329 
L 189.700711 114.582531 
L 191.157296 115.066179 
L 191.885589 115.05737 
L 192.613882 115.217531 
L 193.342175 115.237331 
L 194.798761 115.52375 
L 195.527054 115.426781 
L 196.255347 115.669624 
L 198.440226 115.927383 
L 200.625105 116.252555 
L 201.353398 116.51212 
L 202.081691 116.493044 
L 202.809984 116.244141 
L 203.538277 116.75401 
L 205.723155 117.087691 
L 206.451448 117.024386 
L 207.179741 117.280536 
L 208.636327 117.11716 
L 209.36462 117.246082 
L 210.092913 117.666758 
L 210.821206 117.755852 
L 212.277792 117.711882 
L 213.006085 117.914885 
L 213.734378 117.896358 
L 214.462671 118.170909 
L 215.919257 118.120461 
L 217.375843 118.466403 
L 218.104136 118.390161 
L 218.832428 118.538448 
L 219.560721 118.485341 
L 221.017307 118.694885 
L 221.7456 118.702573 
L 223.202186 119.151483 
L 223.930479 118.898972 
L 224.658772 119.261331 
L 226.115358 119.218114 
L 227.571944 119.388431 
L 228.300237 119.528372 
L 229.756823 119.443166 
L 230.485116 119.602847 
L 231.941702 119.774882 
L 233.398287 120.014775 
L 234.12658 119.762302 
L 235.583166 120.236917 
L 236.311459 120.305803 
L 237.039752 120.125075 
L 237.768045 120.26762 
L 238.496338 120.202304 
L 239.224631 120.46849 
L 239.952924 120.419361 
L 240.681217 120.631549 
L 242.866096 120.638529 
L 243.594389 120.828055 
L 245.050975 120.798843 
L 245.779268 121.072328 
L 246.507561 121.067082 
L 247.235854 121.224058 
L 247.964146 120.934637 
L 248.692439 121.204806 
L 250.149025 121.300861 
L 250.877318 121.497948 
L 251.605611 121.569337 
L 252.333904 121.333244 
L 253.062197 121.37814 
L 253.79049 121.702047 
L 254.518783 121.751125 
L 255.247076 121.626553 
L 256.703662 121.849945 
L 257.431955 121.74394 
L 258.160248 121.993969 
L 258.888541 121.925224 
L 259.616834 122.00497 
L 260.345127 121.945086 
L 261.801713 122.180482 
L 262.530005 122.017658 
L 263.258298 122.080389 
L 263.986591 122.295992 
L 266.17147 122.323833 
L 266.899763 122.406701 
L 267.628056 122.194701 
L 268.356349 122.463285 
L 272.726107 122.827854 
L 273.4544 122.806682 
L 274.182693 122.664068 
L 274.910986 122.933143 
L 275.639279 122.933943 
L 276.367572 123.320267 
L 277.095864 123.186822 
L 277.824157 123.218481 
L 279.280743 122.804142 
L 280.737329 123.288934 
L 282.193915 123.362667 
L 282.922208 123.560321 
L 283.650501 123.292886 
L 284.378794 123.456487 
L 285.83538 123.403279 
L 287.291966 123.738774 
L 288.020259 123.611877 
L 288.748552 123.840201 
L 289.476845 123.575052 
L 290.205138 123.875298 
L 290.93343 123.718694 
L 291.661723 123.822725 
L 292.390016 123.755835 
L 293.846602 124.118101 
L 294.574895 124.148229 
L 295.303188 124.03158 
L 297.488067 124.035288 
L 298.21636 124.294756 
L 300.401239 124.111492 
L 303.314411 124.45338 
L 304.042704 124.519868 
L 304.770997 124.323676 
L 306.955875 124.597183 
L 307.684168 124.448488 
L 309.140754 124.886598 
L 309.869047 124.766391 
L 310.59734 124.948218 
L 311.325633 124.745583 
L 312.053926 124.667872 
L 313.510512 124.877912 
L 314.238805 124.836126 
L 317.151977 125.024055 
L 318.608563 125.033679 
L 319.336856 125.261112 
L 320.065148 125.045836 
L 322.250027 125.2688 
L 324.434906 125.463537 
L 325.163199 125.175682 
L 325.891492 125.47646 
L 326.619785 125.355208 
L 328.076371 125.552751 
L 328.804664 125.558081 
L 329.532957 125.423221 
L 330.989543 125.646114 
L 331.717836 125.583977 
L 333.174422 125.790304 
L 333.902715 125.659805 
L 335.3593 125.817211 
L 336.087593 125.701325 
L 336.815886 125.805776 
L 337.544179 125.773912 
L 338.272472 126.05285 
L 339.000765 125.909549 
L 340.457351 126.165075 
L 341.185644 125.753111 
L 342.64223 126.15793 
L 343.370523 126.175384 
L 344.098816 125.964459 
L 345.555402 126.066729 
L 346.283695 126.326189 
L 347.011988 126.359068 
L 347.740281 125.979796 
L 348.468574 126.3673 
L 349.196866 126.407972 
L 349.925159 126.313343 
L 350.653452 126.579595 
L 351.381745 126.272998 
L 352.110038 126.167981 
L 352.838331 126.208135 
L 353.566624 126.557043 
L 355.02321 126.526589 
L 360.121261 126.672869 
L 360.849554 126.945887 
L 361.577847 126.542678 
L 362.30614 126.859697 
L 363.034433 126.754292 
L 364.491018 126.81391 
L 365.947604 126.851027 
L 368.132483 126.933755 
L 368.860776 127.152887 
L 370.317362 126.980098 
L 371.045655 127.16202 
L 371.773948 127.078799 
L 373.230534 127.247565 
L 373.958827 127.046238 
L 374.68712 127.166522 
L 376.871999 127.156113 
L 377.600291 127.291968 
L 379.056877 127.251611 
L 379.78517 127.395889 
L 380.513463 127.409094 
L 381.970049 127.241598 
L 384.883221 127.438053 
L 386.339807 127.712905 
L 387.0681 127.594218 
L 387.796393 127.688533 
L 388.524686 127.241846 
L 389.252979 127.62659 
L 389.981272 127.670653 
L 390.709565 127.57322 
L 391.437858 127.758401 
L 392.16615 127.514816 
L 393.622736 127.893618 
L 394.351029 127.63996 
L 395.079322 127.681886 
L 395.807615 127.843364 
L 396.535908 127.705232 
L 397.264201 127.686795 
L 397.992494 127.9536 
L 398.720787 127.7037 
L 399.44908 127.887238 
L 400.177373 127.682737 
L 400.905666 127.867123 
L 404.547131 128.108671 
L 405.275424 127.995362 
L 406.003717 128.152199 
L 406.732009 128.053427 
L 408.916888 128.078798 
L 409.645181 127.977082 
L 411.101767 128.289372 
L 411.83006 128.122812 
L 412.558353 128.259534 
L 413.286646 128.147831 
L 414.014939 128.482507 
L 415.471525 128.200408 
L 416.928111 128.33814 
L 417.656404 128.210672 
L 418.384697 128.474448 
L 419.11299 128.325298 
L 419.841283 128.523911 
L 422.754454 128.498635 
L 423.482747 128.436172 
L 424.21104 128.622116 
L 424.939333 128.342008 
L 425.667626 128.676784 
L 426.395919 128.492361 
L 427.124212 128.425802 
L 427.852505 128.695973 
L 428.580798 128.489959 
L 429.309091 128.690293 
L 429.309091 128.690293 
" style="fill:none;stroke:#0000ff;stroke-linecap:square;stroke-width:1.5;"/>
   </g>
   <g id="line2d_12">
    <path clip-path="url(#p01da8ef99d)" d="M 65.890909 42.948447 
L 66.619202 51.259953 
L 67.347495 52.513911 
L 68.075788 53.175246 
L 70.260667 54.519838 
L 73.902132 56.683078 
L 76.08701 58.293946 
L 78.271889 60.205556 
L 79.728475 61.712323 
L 81.185061 63.491729 
L 87.011405 71.218741 
L 88.467991 72.741959 
L 92.109455 76.04146 
L 93.566041 77.185319 
L 95.75092 78.903916 
L 97.207506 79.939803 
L 108.860193 87.746392 
L 112.501658 89.978448 
L 120.51288 94.70833 
L 125.610931 97.457807 
L 136.535325 102.851051 
L 145.274841 106.530331 
L 153.286063 109.378531 
L 161.297285 111.713508 
L 167.851922 113.38361 
L 176.591437 115.2817 
L 196.98364 118.724888 
L 202.081691 119.387436 
L 207.179741 120.024376 
L 216.64755 121.144081 
L 219.560721 121.458361 
L 223.202186 121.826424 
L 250.149025 124.150874 
L 259.616834 124.775416 
L 263.258298 125.025043 
L 278.55245 125.963005 
L 280.737329 126.066852 
L 285.107087 126.305002 
L 291.661723 126.6234 
L 304.770997 127.245347 
L 315.695391 127.710237 
L 321.521734 127.974143 
L 330.989543 128.335471 
L 336.815886 128.561182 
L 350.653452 129.031036 
L 370.317362 129.6632 
L 379.056877 129.904675 
L 395.079322 130.359355 
L 410.373474 130.74319 
L 416.928111 130.904618 
L 429.309091 131.203636 
L 429.309091 131.203636 
" style="fill:none;stroke:#ffa500;stroke-linecap:square;stroke-width:1.5;"/>
   </g>
   <g id="patch_3">
    <path d="M 47.72 136.24 
L 47.72 25.44 
" style="fill:none;stroke:#000000;stroke-linecap:square;stroke-linejoin:miter;stroke-width:0.8;"/>
   </g>
   <g id="patch_4">
    <path d="M 447.48 136.24 
L 447.48 25.44 
" style="fill:none;stroke:#000000;stroke-linecap:square;stroke-linejoin:miter;stroke-width:0.8;"/>
   </g>
   <g id="patch_5">
    <path d="M 47.72 136.24 
L 447.48 136.24 
" style="fill:none;stroke:#000000;stroke-linecap:square;stroke-linejoin:miter;stroke-width:0.8;"/>
   </g>
   <g id="patch_6">
    <path d="M 47.72 25.44 
L 447.48 25.44 
" style="fill:none;stroke:#000000;stroke-linecap:square;stroke-linejoin:miter;stroke-width:0.8;"/>
   </g>
   <g id="text_13">
    <!-- model loss -->
    <defs>
     <path d="M 52 44.1875 
Q 55.375 50.25 60.0625 53.125 
Q 64.75 56 71.09375 56 
Q 79.640625 56 84.28125 50.015625 
Q 88.921875 44.046875 88.921875 33.015625 
L 88.921875 0 
L 79.890625 0 
L 79.890625 32.71875 
Q 79.890625 40.578125 77.09375 44.375 
Q 74.3125 48.1875 68.609375 48.1875 
Q 61.625 48.1875 57.5625 43.546875 
Q 53.515625 38.921875 53.515625 30.90625 
L 53.515625 0 
L 44.484375 0 
L 44.484375 32.71875 
Q 44.484375 40.625 41.703125 44.40625 
Q 38.921875 48.1875 33.109375 48.1875 
Q 26.21875 48.1875 22.15625 43.53125 
Q 18.109375 38.875 18.109375 30.90625 
L 18.109375 0 
L 9.078125 0 
L 9.078125 54.6875 
L 18.109375 54.6875 
L 18.109375 46.1875 
Q 21.1875 51.21875 25.484375 53.609375 
Q 29.78125 56 35.6875 56 
Q 41.65625 56 45.828125 52.96875 
Q 50 49.953125 52 44.1875 
z
" id="DejaVuSans-109"/>
     <path d="M 45.40625 46.390625 
L 45.40625 75.984375 
L 54.390625 75.984375 
L 54.390625 0 
L 45.40625 0 
L 45.40625 8.203125 
Q 42.578125 3.328125 38.25 0.953125 
Q 33.9375 -1.421875 27.875 -1.421875 
Q 17.96875 -1.421875 11.734375 6.484375 
Q 5.515625 14.40625 5.515625 27.296875 
Q 5.515625 40.1875 11.734375 48.09375 
Q 17.96875 56 27.875 56 
Q 33.9375 56 38.25 53.625 
Q 42.578125 51.265625 45.40625 46.390625 
z
M 14.796875 27.296875 
Q 14.796875 17.390625 18.875 11.75 
Q 22.953125 6.109375 30.078125 6.109375 
Q 37.203125 6.109375 41.296875 11.75 
Q 45.40625 17.390625 45.40625 27.296875 
Q 45.40625 37.203125 41.296875 42.84375 
Q 37.203125 48.484375 30.078125 48.484375 
Q 22.953125 48.484375 18.875 42.84375 
Q 14.796875 37.203125 14.796875 27.296875 
z
" id="DejaVuSans-100"/>
     <path id="DejaVuSans-32"/>
    </defs>
    <g transform="translate(215.420312 19.44)scale(0.12 -0.12)">
     <use xlink:href="#DejaVuSans-109"/>
     <use x="97.412109" xlink:href="#DejaVuSans-111"/>
     <use x="158.59375" xlink:href="#DejaVuSans-100"/>
     <use x="222.070312" xlink:href="#DejaVuSans-101"/>
     <use x="283.59375" xlink:href="#DejaVuSans-108"/>
     <use x="311.376953" xlink:href="#DejaVuSans-32"/>
     <use x="343.164062" xlink:href="#DejaVuSans-108"/>
     <use x="370.947266" xlink:href="#DejaVuSans-111"/>
     <use x="432.128906" xlink:href="#DejaVuSans-115"/>
     <use x="484.228516" xlink:href="#DejaVuSans-115"/>
    </g>
   </g>
   <g id="legend_1">
    <g id="patch_7">
     <path d="M 54.72 62.79625 
L 109.995 62.79625 
Q 111.995 62.79625 111.995 60.79625 
L 111.995 32.44 
Q 111.995 30.44 109.995 30.44 
L 54.72 30.44 
Q 52.72 30.44 52.72 32.44 
L 52.72 60.79625 
Q 52.72 62.79625 54.72 62.79625 
z
" style="fill:#ffffff;opacity:0.8;stroke:#cccccc;stroke-linejoin:miter;"/>
    </g>
    <g id="line2d_13">
     <path d="M 56.72 38.538437 
L 76.72 38.538437 
" style="fill:none;stroke:#0000ff;stroke-linecap:square;stroke-width:1.5;"/>
    </g>
    <g id="line2d_14"/>
    <g id="text_14">
     <!-- train -->
     <defs>
      <path d="M 18.3125 70.21875 
L 18.3125 54.6875 
L 36.8125 54.6875 
L 36.8125 47.703125 
L 18.3125 47.703125 
L 18.3125 18.015625 
Q 18.3125 11.328125 20.140625 9.421875 
Q 21.96875 7.515625 27.59375 7.515625 
L 36.8125 7.515625 
L 36.8125 0 
L 27.59375 0 
Q 17.1875 0 13.234375 3.875 
Q 9.28125 7.765625 9.28125 18.015625 
L 9.28125 47.703125 
L 2.6875 47.703125 
L 2.6875 54.6875 
L 9.28125 54.6875 
L 9.28125 70.21875 
z
" id="DejaVuSans-116"/>
      <path d="M 41.109375 46.296875 
Q 39.59375 47.171875 37.8125 47.578125 
Q 36.03125 48 33.890625 48 
Q 26.265625 48 22.1875 43.046875 
Q 18.109375 38.09375 18.109375 28.8125 
L 18.109375 0 
L 9.078125 0 
L 9.078125 54.6875 
L 18.109375 54.6875 
L 18.109375 46.1875 
Q 20.953125 51.171875 25.484375 53.578125 
Q 30.03125 56 36.53125 56 
Q 37.453125 56 38.578125 55.875 
Q 39.703125 55.765625 41.0625 55.515625 
z
" id="DejaVuSans-114"/>
      <path d="M 34.28125 27.484375 
Q 23.390625 27.484375 19.1875 25 
Q 14.984375 22.515625 14.984375 16.5 
Q 14.984375 11.71875 18.140625 8.90625 
Q 21.296875 6.109375 26.703125 6.109375 
Q 34.1875 6.109375 38.703125 11.40625 
Q 43.21875 16.703125 43.21875 25.484375 
L 43.21875 27.484375 
z
M 52.203125 31.203125 
L 52.203125 0 
L 43.21875 0 
L 43.21875 8.296875 
Q 40.140625 3.328125 35.546875 0.953125 
Q 30.953125 -1.421875 24.3125 -1.421875 
Q 15.921875 -1.421875 10.953125 3.296875 
Q 6 8.015625 6 15.921875 
Q 6 25.140625 12.171875 29.828125 
Q 18.359375 34.515625 30.609375 34.515625 
L 43.21875 34.515625 
L 43.21875 35.40625 
Q 43.21875 41.609375 39.140625 45 
Q 35.0625 48.390625 27.6875 48.390625 
Q 23 48.390625 18.546875 47.265625 
Q 14.109375 46.140625 10.015625 43.890625 
L 10.015625 52.203125 
Q 14.9375 54.109375 19.578125 55.046875 
Q 24.21875 56 28.609375 56 
Q 40.484375 56 46.34375 49.84375 
Q 52.203125 43.703125 52.203125 31.203125 
z
" id="DejaVuSans-97"/>
      <path d="M 9.421875 54.6875 
L 18.40625 54.6875 
L 18.40625 0 
L 9.421875 0 
z
M 9.421875 75.984375 
L 18.40625 75.984375 
L 18.40625 64.59375 
L 9.421875 64.59375 
z
" id="DejaVuSans-105"/>
      <path d="M 54.890625 33.015625 
L 54.890625 0 
L 45.90625 0 
L 45.90625 32.71875 
Q 45.90625 40.484375 42.875 44.328125 
Q 39.84375 48.1875 33.796875 48.1875 
Q 26.515625 48.1875 22.3125 43.546875 
Q 18.109375 38.921875 18.109375 30.90625 
L 18.109375 0 
L 9.078125 0 
L 9.078125 54.6875 
L 18.109375 54.6875 
L 18.109375 46.1875 
Q 21.34375 51.125 25.703125 53.5625 
Q 30.078125 56 35.796875 56 
Q 45.21875 56 50.046875 50.171875 
Q 54.890625 44.34375 54.890625 33.015625 
z
" id="DejaVuSans-110"/>
     </defs>
     <g transform="translate(84.72 42.038437)scale(0.1 -0.1)">
      <use xlink:href="#DejaVuSans-116"/>
      <use x="39.208984" xlink:href="#DejaVuSans-114"/>
      <use x="80.322266" xlink:href="#DejaVuSans-97"/>
      <use x="141.601562" xlink:href="#DejaVuSans-105"/>
      <use x="169.384766" xlink:href="#DejaVuSans-110"/>
     </g>
    </g>
    <g id="line2d_15">
     <path d="M 56.72 53.216563 
L 76.72 53.216563 
" style="fill:none;stroke:#ffa500;stroke-linecap:square;stroke-width:1.5;"/>
    </g>
    <g id="line2d_16"/>
    <g id="text_15">
     <!-- test -->
     <g transform="translate(84.72 56.716563)scale(0.1 -0.1)">
      <use xlink:href="#DejaVuSans-116"/>
      <use x="39.208984" xlink:href="#DejaVuSans-101"/>
      <use x="100.732422" xlink:href="#DejaVuSans-115"/>
      <use x="152.832031" xlink:href="#DejaVuSans-116"/>
     </g>
    </g>
   </g>
  </g>
  <g id="axes_2">
   <g id="patch_8">
    <path d="M 47.72 303.64 
L 447.48 303.64 
L 447.48 192.84 
L 47.72 192.84 
z
" style="fill:#ffffff;"/>
   </g>
   <g id="matplotlib.axis_3">
    <g id="xtick_7">
     <g id="line2d_17">
      <g>
       <use style="stroke:#000000;stroke-width:0.8;" x="65.890909" xlink:href="#m4ea62ba6c4" y="303.64"/>
      </g>
     </g>
     <g id="text_16">
      <!-- 0 -->
      <g transform="translate(62.709659 318.238437)scale(0.1 -0.1)">
       <use xlink:href="#DejaVuSans-48"/>
      </g>
     </g>
    </g>
    <g id="xtick_8">
     <g id="line2d_18">
      <g>
       <use style="stroke:#000000;stroke-width:0.8;" x="138.720204" xlink:href="#m4ea62ba6c4" y="303.64"/>
      </g>
     </g>
     <g id="text_17">
      <!-- 100 -->
      <g transform="translate(129.176454 318.238437)scale(0.1 -0.1)">
       <use xlink:href="#DejaVuSans-49"/>
       <use x="63.623047" xlink:href="#DejaVuSans-48"/>
       <use x="127.246094" xlink:href="#DejaVuSans-48"/>
      </g>
     </g>
    </g>
    <g id="xtick_9">
     <g id="line2d_19">
      <g>
       <use style="stroke:#000000;stroke-width:0.8;" x="211.549499" xlink:href="#m4ea62ba6c4" y="303.64"/>
      </g>
     </g>
     <g id="text_18">
      <!-- 200 -->
      <g transform="translate(202.005749 318.238437)scale(0.1 -0.1)">
       <use xlink:href="#DejaVuSans-50"/>
       <use x="63.623047" xlink:href="#DejaVuSans-48"/>
       <use x="127.246094" xlink:href="#DejaVuSans-48"/>
      </g>
     </g>
    </g>
    <g id="xtick_10">
     <g id="line2d_20">
      <g>
       <use style="stroke:#000000;stroke-width:0.8;" x="284.378794" xlink:href="#m4ea62ba6c4" y="303.64"/>
      </g>
     </g>
     <g id="text_19">
      <!-- 300 -->
      <g transform="translate(274.835044 318.238437)scale(0.1 -0.1)">
       <use xlink:href="#DejaVuSans-51"/>
       <use x="63.623047" xlink:href="#DejaVuSans-48"/>
       <use x="127.246094" xlink:href="#DejaVuSans-48"/>
      </g>
     </g>
    </g>
    <g id="xtick_11">
     <g id="line2d_21">
      <g>
       <use style="stroke:#000000;stroke-width:0.8;" x="357.208089" xlink:href="#m4ea62ba6c4" y="303.64"/>
      </g>
     </g>
     <g id="text_20">
      <!-- 400 -->
      <g transform="translate(347.664339 318.238437)scale(0.1 -0.1)">
       <use xlink:href="#DejaVuSans-52"/>
       <use x="63.623047" xlink:href="#DejaVuSans-48"/>
       <use x="127.246094" xlink:href="#DejaVuSans-48"/>
      </g>
     </g>
    </g>
    <g id="xtick_12">
     <g id="line2d_22">
      <g>
       <use style="stroke:#000000;stroke-width:0.8;" x="430.037384" xlink:href="#m4ea62ba6c4" y="303.64"/>
      </g>
     </g>
     <g id="text_21">
      <!-- 500 -->
      <g transform="translate(420.493634 318.238437)scale(0.1 -0.1)">
       <use xlink:href="#DejaVuSans-53"/>
       <use x="63.623047" xlink:href="#DejaVuSans-48"/>
       <use x="127.246094" xlink:href="#DejaVuSans-48"/>
      </g>
     </g>
    </g>
    <g id="text_22">
     <!-- epoch -->
     <g transform="translate(232.371875 331.916562)scale(0.1 -0.1)">
      <use xlink:href="#DejaVuSans-101"/>
      <use x="61.523438" xlink:href="#DejaVuSans-112"/>
      <use x="125" xlink:href="#DejaVuSans-111"/>
      <use x="186.181641" xlink:href="#DejaVuSans-99"/>
      <use x="241.162109" xlink:href="#DejaVuSans-104"/>
     </g>
    </g>
   </g>
   <g id="matplotlib.axis_4">
    <g id="ytick_5">
     <g id="line2d_23">
      <g>
       <use style="stroke:#000000;stroke-width:0.8;" x="47.72" xlink:href="#me58b6a57a7" y="272.007177"/>
      </g>
     </g>
     <g id="text_23">
      <!-- 0.6 -->
      <g transform="translate(24.816875 275.806396)scale(0.1 -0.1)">
       <use xlink:href="#DejaVuSans-48"/>
       <use x="63.623047" xlink:href="#DejaVuSans-46"/>
       <use x="95.410156" xlink:href="#DejaVuSans-54"/>
      </g>
     </g>
    </g>
    <g id="ytick_6">
     <g id="line2d_24">
      <g>
       <use style="stroke:#000000;stroke-width:0.8;" x="47.72" xlink:href="#me58b6a57a7" y="237.691768"/>
      </g>
     </g>
     <g id="text_24">
      <!-- 0.7 -->
      <defs>
       <path d="M 8.203125 72.90625 
L 55.078125 72.90625 
L 55.078125 68.703125 
L 28.609375 0 
L 18.3125 0 
L 43.21875 64.59375 
L 8.203125 64.59375 
z
" id="DejaVuSans-55"/>
      </defs>
      <g transform="translate(24.816875 241.490987)scale(0.1 -0.1)">
       <use xlink:href="#DejaVuSans-48"/>
       <use x="63.623047" xlink:href="#DejaVuSans-46"/>
       <use x="95.410156" xlink:href="#DejaVuSans-55"/>
      </g>
     </g>
    </g>
    <g id="ytick_7">
     <g id="line2d_25">
      <g>
       <use style="stroke:#000000;stroke-width:0.8;" x="47.72" xlink:href="#me58b6a57a7" y="203.37636"/>
      </g>
     </g>
     <g id="text_25">
      <!-- 0.8 -->
      <g transform="translate(24.816875 207.175578)scale(0.1 -0.1)">
       <use xlink:href="#DejaVuSans-48"/>
       <use x="63.623047" xlink:href="#DejaVuSans-46"/>
       <use x="95.410156" xlink:href="#DejaVuSans-56"/>
      </g>
     </g>
    </g>
    <g id="text_26">
     <!-- accuracy -->
     <defs>
      <path d="M 8.5 21.578125 
L 8.5 54.6875 
L 17.484375 54.6875 
L 17.484375 21.921875 
Q 17.484375 14.15625 20.5 10.265625 
Q 23.53125 6.390625 29.59375 6.390625 
Q 36.859375 6.390625 41.078125 11.03125 
Q 45.3125 15.671875 45.3125 23.6875 
L 45.3125 54.6875 
L 54.296875 54.6875 
L 54.296875 0 
L 45.3125 0 
L 45.3125 8.40625 
Q 42.046875 3.421875 37.71875 1 
Q 33.40625 -1.421875 27.6875 -1.421875 
Q 18.265625 -1.421875 13.375 4.4375 
Q 8.5 10.296875 8.5 21.578125 
z
M 31.109375 56 
z
" id="DejaVuSans-117"/>
      <path d="M 32.171875 -5.078125 
Q 28.375 -14.84375 24.75 -17.8125 
Q 21.140625 -20.796875 15.09375 -20.796875 
L 7.90625 -20.796875 
L 7.90625 -13.28125 
L 13.1875 -13.28125 
Q 16.890625 -13.28125 18.9375 -11.515625 
Q 21 -9.765625 23.484375 -3.21875 
L 25.09375 0.875 
L 2.984375 54.6875 
L 12.5 54.6875 
L 29.59375 11.921875 
L 46.6875 54.6875 
L 56.203125 54.6875 
z
" id="DejaVuSans-121"/>
     </defs>
     <g transform="translate(18.737188 270.799375)rotate(-90)scale(0.1 -0.1)">
      <use xlink:href="#DejaVuSans-97"/>
      <use x="61.279297" xlink:href="#DejaVuSans-99"/>
      <use x="116.259766" xlink:href="#DejaVuSans-99"/>
      <use x="171.240234" xlink:href="#DejaVuSans-117"/>
      <use x="234.619141" xlink:href="#DejaVuSans-114"/>
      <use x="275.732422" xlink:href="#DejaVuSans-97"/>
      <use x="337.011719" xlink:href="#DejaVuSans-99"/>
      <use x="391.992188" xlink:href="#DejaVuSans-121"/>
     </g>
    </g>
   </g>
   <g id="line2d_26">
    <path clip-path="url(#pfe48ba3ea8)" d="M 65.890909 298.603636 
L 66.619202 283.185925 
L 83.36994 283.181888 
L 84.098233 282.854882 
L 84.826526 281.353079 
L 87.011405 274.4577 
L 87.739698 273.056824 
L 89.924576 269.956326 
L 91.381162 268.624081 
L 92.109455 267.525988 
L 93.566041 266.250262 
L 94.294334 265.309616 
L 95.022627 264.728273 
L 95.75092 263.916814 
L 96.479213 263.561549 
L 97.207506 262.47153 
L 97.935799 261.98304 
L 98.664092 261.111025 
L 99.392385 260.743648 
L 100.120678 260.109822 
L 100.848971 259.694 
L 101.577264 258.733169 
L 104.490435 256.141346 
L 105.218728 256.028307 
L 106.675314 254.437687 
L 107.403607 254.187387 
L 109.588486 252.184982 
L 110.316779 251.914496 
L 111.045072 251.25241 
L 111.773365 250.33195 
L 112.501658 249.904016 
L 113.229951 249.641604 
L 113.958244 248.700959 
L 114.686537 248.507177 
L 116.143123 246.94078 
L 116.871416 246.916557 
L 117.599709 246.08895 
L 119.056294 245.44705 
L 120.51288 244.118842 
L 121.969466 243.468868 
L 122.697759 242.394998 
L 124.882638 241.280756 
L 126.339224 240.085772 
L 127.067517 240.013105 
L 127.79581 239.451947 
L 128.524103 239.080533 
L 129.252396 238.47093 
L 130.708982 237.449542 
L 131.437275 237.489913 
L 132.165567 237.199241 
L 132.89386 236.387783 
L 133.622153 235.794328 
L 134.350446 235.600547 
L 135.078739 235.067649 
L 135.807032 234.781014 
L 136.535325 234.300598 
L 137.991911 232.851277 
L 138.720204 232.984502 
L 139.448497 232.128635 
L 140.17679 231.963114 
L 140.905083 231.397919 
L 141.633376 231.991373 
L 142.361669 230.655091 
L 143.089962 231.062839 
L 143.818255 230.283677 
L 144.546548 230.303863 
L 146.003134 228.84243 
L 146.731426 228.806096 
L 147.459719 228.402385 
L 148.188012 228.261087 
L 149.644598 227.078214 
L 151.829477 226.864248 
L 152.55777 226.440352 
L 153.286063 226.266756 
L 154.742649 225.358407 
L 155.470942 224.96277 
L 156.199235 225.083884 
L 156.927528 224.086718 
L 157.655821 224.345093 
L 159.112407 223.650711 
L 159.8407 223.913123 
L 160.568993 223.638599 
L 161.297285 223.028996 
L 162.025578 222.802918 
L 163.482164 221.995497 
L 165.667043 222.108536 
L 166.395336 221.813827 
L 167.123629 221.389931 
L 167.851922 221.333411 
L 168.580215 221.022554 
L 169.308508 220.966035 
L 170.036801 220.606732 
L 170.765094 219.928498 
L 171.493387 219.867942 
L 172.22168 219.924461 
L 172.949973 220.102094 
L 173.678266 219.371378 
L 174.406559 219.540936 
L 175.134852 219.411749 
L 175.863144 218.93537 
L 176.591437 219.036298 
L 177.31973 218.721403 
L 178.048023 218.604327 
L 178.776316 218.317693 
L 180.961195 218.059318 
L 181.689488 218.313656 
L 182.417781 217.243822 
L 183.146074 217.780758 
L 183.874367 217.457789 
L 184.60266 217.425492 
L 185.330953 216.690739 
L 186.059246 216.480809 
L 186.787539 216.509069 
L 187.515832 216.36777 
L 188.244125 216.456587 
L 188.972418 216.278954 
L 189.700711 216.250694 
L 190.429003 215.810649 
L 191.157296 215.624942 
L 193.342175 215.507866 
L 194.070468 215.192972 
L 194.798761 215.148564 
L 195.527054 215.386753 
L 196.98364 214.853855 
L 197.711933 214.974968 
L 198.440226 214.801373 
L 199.168519 214.857892 
L 199.896812 214.252326 
L 200.625105 214.793299 
L 201.353398 214.151399 
L 202.081691 214.119102 
L 202.809984 214.765039 
L 203.538277 213.844578 
L 204.26657 214.187733 
L 204.994862 213.461053 
L 205.723155 213.586204 
L 206.451448 213.473165 
L 207.179741 213.735577 
L 207.908034 213.457016 
L 208.636327 213.666946 
L 209.36462 213.03312 
L 210.092913 212.702077 
L 210.821206 212.702077 
L 211.549499 213.073491 
L 212.277792 212.815116 
L 213.006085 212.435628 
L 213.734378 212.843376 
L 215.919257 212.201476 
L 216.64755 212.379109 
L 217.375843 211.745283 
L 218.104136 211.922916 
L 218.832428 211.890619 
L 219.560721 212.463888 
L 220.289014 211.935027 
L 221.7456 212.136882 
L 222.473893 211.77758 
L 223.202186 211.196236 
L 223.930479 211.543428 
L 224.658772 211.523242 
L 226.115358 210.994381 
L 226.843651 210.77234 
L 227.571944 210.764266 
L 228.300237 211.228533 
L 229.756823 211.058975 
L 230.485116 210.594707 
L 231.213409 210.820785 
L 231.941702 210.905565 
L 232.669995 210.094106 
L 233.398287 210.473594 
L 234.12658 210.223294 
L 234.854873 210.275776 
L 235.583166 210.013364 
L 237.039752 210.150626 
L 237.768045 209.868028 
L 238.496338 209.912436 
L 239.224631 209.702507 
L 239.952924 210.110255 
L 240.681217 209.387613 
L 241.40951 209.609653 
L 242.866096 209.609653 
L 243.594389 209.15346 
L 244.322682 209.30687 
L 247.964146 208.878937 
L 248.692439 209.270536 
L 249.420732 209.05657 
L 250.149025 209.177683 
L 250.877318 208.600377 
L 251.605611 208.438892 
L 252.333904 208.77801 
L 253.062197 208.753787 
L 253.79049 208.212814 
L 255.247076 208.604414 
L 255.975369 208.854715 
L 256.703662 208.245111 
L 258.160248 208.350076 
L 258.888541 208.233 
L 259.616834 208.53982 
L 260.345127 208.313742 
L 261.07342 208.402558 
L 261.801713 207.901957 
L 263.258298 208.103813 
L 263.986591 207.663768 
L 264.714884 208.188592 
L 265.443177 207.950403 
L 266.17147 207.865623 
L 266.899763 208.059404 
L 267.628056 208.039219 
L 268.356349 207.631471 
L 269.812935 207.356948 
L 270.541228 207.397319 
L 271.269521 207.054165 
L 271.997814 207.280243 
L 272.726107 207.38117 
L 273.4544 207.251983 
L 274.182693 207.599174 
L 274.910986 207.062239 
L 275.639279 207.066276 
L 276.367572 206.638343 
L 277.824157 206.840198 
L 278.55245 207.280243 
L 279.280743 206.912866 
L 280.009036 207.183352 
L 280.737329 207.078388 
L 282.193915 206.416302 
L 282.922208 206.666603 
L 283.650501 206.51723 
L 284.378794 206.593935 
L 285.107087 206.888643 
L 285.83538 206.856347 
L 286.563673 206.270966 
L 287.291966 206.396116 
L 288.020259 206.658528 
L 288.748552 206.052962 
L 289.476845 206.194261 
L 290.205138 205.734031 
L 290.93343 206.048925 
L 291.661723 206.226558 
L 293.118309 206.36382 
L 294.574895 205.491805 
L 295.303188 205.72192 
L 296.031481 205.592732 
L 296.759774 205.734031 
L 298.944653 205.560435 
L 299.672946 205.673474 
L 300.401239 206.012591 
L 301.129532 205.184984 
L 303.314411 205.152688 
L 304.770997 205.673474 
L 305.499289 205.265727 
L 306.227582 205.435285 
L 306.955875 205.201133 
L 307.684168 205.298023 
L 309.140754 204.748977 
L 309.869047 204.954869 
L 310.59734 204.765125 
L 311.325633 205.197096 
L 312.053926 205.221318 
L 312.782219 204.906424 
L 313.510512 205.180947 
L 314.238805 205.059834 
L 314.967098 204.821645 
L 315.695391 204.857979 
L 316.423684 204.559233 
L 317.151977 204.627864 
L 317.88027 205.003315 
L 318.608563 205.116354 
L 319.336856 204.252413 
L 320.065148 204.934684 
L 320.793441 204.857979 
L 321.521734 204.510788 
L 322.250027 204.312969 
L 322.97832 204.619789 
L 324.434906 204.325081 
L 325.163199 204.890276 
L 325.891492 204.288747 
L 326.619785 204.43812 
L 327.348078 204.248376 
L 328.076371 203.941556 
L 328.804664 204.321044 
L 329.532957 204.365452 
L 330.26125 204.086891 
L 330.989543 204.002112 
L 331.717836 204.07478 
L 332.446129 203.985964 
L 333.174422 203.638773 
L 333.902715 204.042483 
L 335.3593 203.876962 
L 336.087593 203.885036 
L 336.815886 203.667032 
L 337.544179 203.880999 
L 338.272472 203.590327 
L 339.729058 203.55803 
L 340.457351 203.453066 
L 341.185644 203.662995 
L 341.913937 203.566105 
L 342.64223 203.788146 
L 343.370523 203.469214 
L 344.098816 203.598402 
L 344.827109 203.444992 
L 346.283695 203.521696 
L 347.011988 202.831351 
L 347.740281 203.400583 
L 348.468574 203.037244 
L 349.925159 203.658958 
L 350.653452 203.239099 
L 353.566624 203.255247 
L 355.02321 203.166431 
L 355.751503 202.871722 
L 357.208089 203.061466 
L 357.936382 202.899982 
L 358.664675 203.186617 
L 359.392968 202.996873 
L 360.121261 202.60931 
L 360.849554 202.524531 
L 361.577847 202.742535 
L 363.034433 202.492234 
L 363.762725 202.76272 
L 364.491018 202.581051 
L 366.675897 202.976687 
L 367.40419 202.379195 
L 368.860776 202.100635 
L 369.589069 202.661793 
L 370.317362 202.141006 
L 371.773948 202.435715 
L 372.502241 202.193488 
L 373.230534 202.415529 
L 373.958827 202.258082 
L 374.68712 202.245971 
L 375.415413 202.746572 
L 376.143706 202.173303 
L 376.871999 202.213674 
L 377.600291 201.74537 
L 378.328584 202.439752 
L 379.056877 202.411492 
L 379.78517 202.048153 
L 380.513463 202.229822 
L 381.241756 201.773629 
L 381.970049 202.262119 
L 382.698342 202.237897 
L 383.426635 201.914928 
L 384.154928 202.383232 
L 384.883221 201.725184 
L 387.0681 201.805926 
L 387.796393 201.696924 
L 388.524686 201.906854 
L 389.252979 201.390104 
L 390.709565 201.955299 
L 391.437858 201.394141 
L 392.16615 202.128895 
L 392.894443 201.478921 
L 393.622736 201.377993 
L 394.351029 201.983559 
L 395.807615 201.668664 
L 396.535908 201.632331 
L 397.992494 201.927039 
L 398.720787 202.060264 
L 399.44908 201.600034 
L 400.177373 201.721147 
L 400.905666 201.176137 
L 401.633959 201.365882 
L 402.362252 200.792612 
L 403.090545 201.499106 
L 403.818838 201.184212 
L 404.547131 201.377993 
L 406.732009 201.25688 
L 407.460302 200.986393 
L 408.188595 200.909688 
L 409.645181 201.20036 
L 410.373474 200.800687 
L 411.101767 201.232657 
L 412.558353 201.349733 
L 414.014939 200.873354 
L 414.743232 200.841058 
L 415.471525 201.139804 
L 416.928111 200.764353 
L 417.656404 201.32551 
L 418.384697 200.812798 
L 419.11299 200.627091 
L 419.841283 200.287974 
L 420.569576 200.732056 
L 421.297868 200.849132 
L 422.026161 200.457532 
L 422.754454 200.691685 
L 424.21104 200.687648 
L 424.939333 201.071173 
L 425.667626 200.457532 
L 426.395919 201.038876 
L 427.852505 200.368716 
L 428.580798 200.946022 
L 429.309091 200.623054 
L 429.309091 200.623054 
" style="fill:none;stroke:#0000ff;stroke-linecap:square;stroke-width:1.5;"/>
   </g>
   <g id="line2d_27">
    <path clip-path="url(#pfe48ba3ea8)" d="M 65.890909 284.494172 
L 83.36994 284.446512 
L 84.098233 283.903185 
L 84.826526 281.777536 
L 86.283112 276.077365 
L 87.739698 273.389325 
L 89.196283 271.349465 
L 89.924576 270.758477 
L 90.652869 269.56697 
L 91.381162 269.138027 
L 92.109455 268.489847 
L 93.566041 266.735949 
L 94.294334 266.32607 
L 95.022627 264.915325 
L 95.75092 264.6103 
L 96.479213 263.790543 
L 97.207506 263.552241 
L 97.935799 262.513247 
L 98.664092 261.922259 
L 99.392385 261.064374 
L 100.120678 260.644963 
L 100.848971 259.901463 
L 101.577264 259.539245 
L 102.305557 258.72902 
L 103.03385 258.176161 
L 103.762142 257.823474 
L 104.490435 257.15623 
L 105.218728 256.250685 
L 106.675314 254.716024 
L 107.403607 254.458658 
L 108.1319 253.638901 
L 108.860193 252.599907 
L 111.045072 250.693495 
L 112.501658 248.844276 
L 113.958244 248.320013 
L 115.41483 247.090377 
L 116.143123 246.013255 
L 116.871416 245.660569 
L 117.599709 244.936132 
L 120.51288 243.105977 
L 121.241173 242.23856 
L 123.426052 241.170969 
L 124.154345 240.265424 
L 124.882638 239.683968 
L 125.610931 239.464731 
L 127.79581 237.672704 
L 128.524103 237.262826 
L 129.252396 236.662306 
L 129.980689 236.271492 
L 130.708982 235.470799 
L 132.165567 234.73683 
L 132.89386 234.164907 
L 133.622153 233.878945 
L 134.350446 232.925739 
L 135.807032 231.991598 
L 136.535325 231.705636 
L 137.263618 231.095584 
L 137.991911 230.695238 
L 138.720204 229.999398 
L 139.448497 229.465603 
L 140.17679 229.093852 
L 140.905083 228.38848 
L 141.633376 227.902345 
L 142.361669 227.578255 
L 143.089962 226.701306 
L 143.818255 226.520197 
L 144.546548 226.07219 
L 145.274841 225.824357 
L 146.003134 225.852953 
L 146.731426 225.109452 
L 147.459719 224.575657 
L 148.188012 224.537529 
L 148.916305 223.889349 
L 151.101184 223.412746 
L 151.829477 222.926611 
L 154.014356 222.116386 
L 154.742649 221.944809 
L 155.470942 222.011533 
L 156.199235 221.334757 
L 156.927528 221.239437 
L 158.384114 220.820026 
L 159.112407 220.810494 
L 159.8407 220.295763 
L 162.753871 219.523666 
L 163.482164 219.07566 
L 164.210457 218.970807 
L 164.93875 218.684845 
L 165.667043 218.618121 
L 166.395336 218.246371 
L 167.851922 218.10339 
L 168.580215 217.655383 
L 172.22168 216.85469 
L 172.949973 216.864222 
L 174.406559 216.511536 
L 175.134852 216.073062 
L 175.863144 215.83476 
L 176.591437 216.11119 
L 177.31973 215.625055 
L 178.776316 215.300965 
L 180.961195 215.005471 
L 181.689488 214.681381 
L 182.417781 214.690913 
L 183.874367 214.290567 
L 185.330953 214.004605 
L 186.059246 213.804432 
L 186.787539 213.880688 
L 187.515832 213.661451 
L 188.972418 213.442214 
L 191.885589 212.956079 
L 192.613882 212.527136 
L 193.342175 212.584328 
L 194.070468 212.346027 
L 194.798761 212.288835 
L 195.527054 212.365091 
L 196.255347 211.869424 
L 196.98364 212.346027 
L 197.711933 211.955213 
L 198.440226 212.060065 
L 199.168519 211.697847 
L 200.625105 211.47861 
L 201.353398 210.935283 
L 202.081691 210.954347 
L 202.809984 211.335629 
L 203.538277 210.935283 
L 204.26657 211.125924 
L 205.723155 210.859026 
L 207.179741 210.306167 
L 207.908034 210.496808 
L 208.636327 210.449148 
L 209.36462 210.105994 
L 210.092913 210.105994 
L 210.821206 210.268038 
L 211.549499 210.191782 
L 212.277792 209.734243 
L 213.006085 210.048801 
L 214.462671 209.657987 
L 215.190964 209.705647 
L 215.919257 209.619859 
L 216.64755 209.200448 
L 217.375843 209.248108 
L 218.104136 209.429217 
L 218.832428 209.276705 
L 219.560721 208.971679 
L 221.7456 208.5618 
L 223.202186 208.590396 
L 223.930479 208.275838 
L 224.658772 208.495076 
L 225.387065 208.132858 
L 226.115358 208.590396 
L 226.843651 208.161454 
L 227.571944 207.951749 
L 229.02853 208.047069 
L 229.756823 207.885024 
L 230.485116 207.846896 
L 231.213409 207.923152 
L 231.941702 207.456082 
L 232.669995 207.751575 
L 233.398287 207.456082 
L 234.12658 207.503742 
L 234.854873 207.21778 
L 235.583166 207.475146 
L 236.311459 207.360761 
L 237.768045 206.960415 
L 238.496338 206.931818 
L 239.224631 207.103395 
L 239.952924 206.674453 
L 241.40951 206.855562 
L 246.507561 206.188318 
L 247.235854 206.159722 
L 247.964146 206.007209 
L 249.420732 206.045337 
L 250.149025 205.883292 
L 251.605611 205.845164 
L 253.062197 205.730779 
L 254.518783 205.673587 
L 255.975369 205.587798 
L 257.431955 205.54967 
L 258.888541 205.311369 
L 260.345127 205.282772 
L 261.07342 205.196984 
L 261.801713 205.22558 
L 263.258298 205.015875 
L 263.986591 205.073067 
L 265.443177 205.015875 
L 266.17147 205.034939 
L 268.356349 204.729913 
L 274.910986 204.510676 
L 275.639279 204.25331 
L 276.367572 204.262842 
L 277.095864 204.053137 
L 277.824157 204.234246 
L 278.55245 204.062669 
L 280.009036 204.072201 
L 280.737329 203.900624 
L 282.922208 203.843432 
L 284.378794 203.719515 
L 285.107087 203.805303 
L 285.83538 203.519342 
L 287.291966 203.55747 
L 288.748552 203.500278 
L 290.205138 203.404957 
L 290.93343 203.490746 
L 291.661723 203.328701 
L 293.846602 203.319169 
L 295.303188 203.118995 
L 297.488067 203.014143 
L 300.401239 202.918822 
L 301.857825 202.880694 
L 307.684168 202.566136 
L 308.412461 202.470815 
L 309.869047 202.451751 
L 310.59734 202.337367 
L 311.325633 202.375495 
L 312.053926 202.232514 
L 312.782219 202.280174 
L 313.510512 202.080001 
L 316.423684 202.127661 
L 325.163199 201.717783 
L 325.891492 201.593866 
L 327.348078 201.689187 
L 328.076371 201.527142 
L 330.26125 201.489013 
L 332.446129 201.24118 
L 333.902715 201.298372 
L 336.087593 201.002879 
L 336.815886 201.117263 
L 337.544179 200.91709 
L 338.272472 201.050539 
L 342.64223 200.783641 
L 343.370523 200.907558 
L 344.827109 200.688321 
L 347.011988 200.516744 
L 349.196866 200.621596 
L 349.925159 200.383295 
L 352.110038 200.564404 
L 352.838331 200.183122 
L 355.751503 200.240314 
L 357.208089 200.040141 
L 358.664675 200.021077 
L 359.392968 200.078269 
L 360.121261 199.982948 
L 363.762725 199.982948 
L 365.947604 199.763711 
L 366.675897 199.887628 
L 368.132483 199.677922 
L 369.589069 199.763711 
L 370.317362 199.630262 
L 371.045655 199.649326 
L 371.773948 199.506345 
L 372.502241 199.639794 
L 374.68712 199.52541 
L 376.143706 199.325236 
L 377.600291 199.372897 
L 379.78517 199.220384 
L 380.513463 199.29664 
L 381.241756 199.153659 
L 384.154928 199.115531 
L 386.339807 199.125063 
L 387.0681 199.02021 
L 387.796393 199.086935 
L 388.524686 199.02021 
L 389.252979 199.115531 
L 390.709565 198.934422 
L 393.622736 198.963018 
L 395.807615 198.867698 
L 398.720787 198.781909 
L 399.44908 198.638928 
L 405.275424 198.534076 
L 406.732009 198.438755 
L 407.460302 198.515012 
L 408.916888 198.419691 
L 409.645181 198.495947 
L 411.83006 198.352967 
L 412.558353 198.391095 
L 413.286646 198.305306 
L 414.743232 198.295774 
L 417.656404 198.190922 
L 424.939333 197.990748 
L 429.309091 197.876364 
L 429.309091 197.876364 
" style="fill:none;stroke:#ffa500;stroke-linecap:square;stroke-width:1.5;"/>
   </g>
   <g id="patch_9">
    <path d="M 47.72 303.64 
L 47.72 192.84 
" style="fill:none;stroke:#000000;stroke-linecap:square;stroke-linejoin:miter;stroke-width:0.8;"/>
   </g>
   <g id="patch_10">
    <path d="M 447.48 303.64 
L 447.48 192.84 
" style="fill:none;stroke:#000000;stroke-linecap:square;stroke-linejoin:miter;stroke-width:0.8;"/>
   </g>
   <g id="patch_11">
    <path d="M 47.72 303.64 
L 447.48 303.64 
" style="fill:none;stroke:#000000;stroke-linecap:square;stroke-linejoin:miter;stroke-width:0.8;"/>
   </g>
   <g id="patch_12">
    <path d="M 47.72 192.84 
L 447.48 192.84 
" style="fill:none;stroke:#000000;stroke-linecap:square;stroke-linejoin:miter;stroke-width:0.8;"/>
   </g>
   <g id="text_27">
    <!-- model accuracy -->
    <g transform="translate(199.938437 186.84)scale(0.12 -0.12)">
     <use xlink:href="#DejaVuSans-109"/>
     <use x="97.412109" xlink:href="#DejaVuSans-111"/>
     <use x="158.59375" xlink:href="#DejaVuSans-100"/>
     <use x="222.070312" xlink:href="#DejaVuSans-101"/>
     <use x="283.59375" xlink:href="#DejaVuSans-108"/>
     <use x="311.376953" xlink:href="#DejaVuSans-32"/>
     <use x="343.164062" xlink:href="#DejaVuSans-97"/>
     <use x="404.443359" xlink:href="#DejaVuSans-99"/>
     <use x="459.423828" xlink:href="#DejaVuSans-99"/>
     <use x="514.404297" xlink:href="#DejaVuSans-117"/>
     <use x="577.783203" xlink:href="#DejaVuSans-114"/>
     <use x="618.896484" xlink:href="#DejaVuSans-97"/>
     <use x="680.175781" xlink:href="#DejaVuSans-99"/>
     <use x="735.15625" xlink:href="#DejaVuSans-121"/>
    </g>
   </g>
   <g id="legend_2">
    <g id="patch_13">
     <path d="M 54.72 230.19625 
L 109.995 230.19625 
Q 111.995 230.19625 111.995 228.19625 
L 111.995 199.84 
Q 111.995 197.84 109.995 197.84 
L 54.72 197.84 
Q 52.72 197.84 52.72 199.84 
L 52.72 228.19625 
Q 52.72 230.19625 54.72 230.19625 
z
" style="fill:#ffffff;opacity:0.8;stroke:#cccccc;stroke-linejoin:miter;"/>
    </g>
    <g id="line2d_28">
     <path d="M 56.72 205.938437 
L 76.72 205.938437 
" style="fill:none;stroke:#0000ff;stroke-linecap:square;stroke-width:1.5;"/>
    </g>
    <g id="line2d_29"/>
    <g id="text_28">
     <!-- train -->
     <g transform="translate(84.72 209.438437)scale(0.1 -0.1)">
      <use xlink:href="#DejaVuSans-116"/>
      <use x="39.208984" xlink:href="#DejaVuSans-114"/>
      <use x="80.322266" xlink:href="#DejaVuSans-97"/>
      <use x="141.601562" xlink:href="#DejaVuSans-105"/>
      <use x="169.384766" xlink:href="#DejaVuSans-110"/>
     </g>
    </g>
    <g id="line2d_30">
     <path d="M 56.72 220.616562 
L 76.72 220.616562 
" style="fill:none;stroke:#ffa500;stroke-linecap:square;stroke-width:1.5;"/>
    </g>
    <g id="line2d_31"/>
    <g id="text_29">
     <!-- test -->
     <g transform="translate(84.72 224.116562)scale(0.1 -0.1)">
      <use xlink:href="#DejaVuSans-116"/>
      <use x="39.208984" xlink:href="#DejaVuSans-101"/>
      <use x="100.732422" xlink:href="#DejaVuSans-115"/>
      <use x="152.832031" xlink:href="#DejaVuSans-116"/>
     </g>
    </g>
   </g>
  </g>
 </g>
 <defs>
  <clipPath id="p01da8ef99d">
   <rect height="110.8" width="399.76" x="47.72" y="25.44"/>
  </clipPath>
  <clipPath id="pfe48ba3ea8">
   <rect height="110.8" width="399.76" x="47.72" y="192.84"/>
  </clipPath>
 </defs>
</svg>
