<?xml version="1.0" encoding="utf-8" standalone="no"?>
<!DOCTYPE svg PUBLIC "-//W3C//DTD SVG 1.1//EN"
  "http://www.w3.org/Graphics/SVG/1.1/DTD/svg11.dtd">
<!-- Created with matplotlib (https://matplotlib.org/) -->
<svg height="345.6pt" version="1.1" viewBox="0 0 460.8 345.6" width="460.8pt" xmlns="http://www.w3.org/2000/svg" xmlns:xlink="http://www.w3.org/1999/xlink">
 <defs>
  <style type="text/css">
*{stroke-linecap:butt;stroke-linejoin:round;}
  </style>
 </defs>
 <g id="figure_1">
  <g id="patch_1">
   <path d="M 0 345.6 
L 460.8 345.6 
L 460.8 0 
L 0 0 
z
" style="fill:#ffffff;"/>
  </g>
  <g id="axes_1">
   <g id="patch_2">
    <path d="M 47.72 136.24 
L 447.48 136.24 
L 447.48 25.44 
L 47.72 25.44 
z
" style="fill:#ffffff;"/>
   </g>
   <g id="matplotlib.axis_1">
    <g id="xtick_1">
     <g id="line2d_1">
      <defs>
       <path d="M 0 0 
L 0 3.5 
" id="macf6a129f3" style="stroke:#000000;stroke-width:0.8;"/>
      </defs>
      <g>
       <use style="stroke:#000000;stroke-width:0.8;" x="65.890909" xlink:href="#macf6a129f3" y="136.24"/>
      </g>
     </g>
     <g id="text_1">
      <!-- 0 -->
      <defs>
       <path d="M 31.78125 66.40625 
Q 24.171875 66.40625 20.328125 58.90625 
Q 16.5 51.421875 16.5 36.375 
Q 16.5 21.390625 20.328125 13.890625 
Q 24.171875 6.390625 31.78125 6.390625 
Q 39.453125 6.390625 43.28125 13.890625 
Q 47.125 21.390625 47.125 36.375 
Q 47.125 51.421875 43.28125 58.90625 
Q 39.453125 66.40625 31.78125 66.40625 
z
M 31.78125 74.21875 
Q 44.046875 74.21875 50.515625 64.515625 
Q 56.984375 54.828125 56.984375 36.375 
Q 56.984375 17.96875 50.515625 8.265625 
Q 44.046875 -1.421875 31.78125 -1.421875 
Q 19.53125 -1.421875 13.0625 8.265625 
Q 6.59375 17.96875 6.59375 36.375 
Q 6.59375 54.828125 13.0625 64.515625 
Q 19.53125 74.21875 31.78125 74.21875 
z
" id="DejaVuSans-48"/>
      </defs>
      <g transform="translate(62.709659 150.838437)scale(0.1 -0.1)">
       <use xlink:href="#DejaVuSans-48"/>
      </g>
     </g>
    </g>
    <g id="xtick_2">
     <g id="line2d_2">
      <g>
       <use style="stroke:#000000;stroke-width:0.8;" x="138.647302" xlink:href="#macf6a129f3" y="136.24"/>
      </g>
     </g>
     <g id="text_2">
      <!-- 200 -->
      <defs>
       <path d="M 19.1875 8.296875 
L 53.609375 8.296875 
L 53.609375 0 
L 7.328125 0 
L 7.328125 8.296875 
Q 12.9375 14.109375 22.625 23.890625 
Q 32.328125 33.6875 34.8125 36.53125 
Q 39.546875 41.84375 41.421875 45.53125 
Q 43.3125 49.21875 43.3125 52.78125 
Q 43.3125 58.59375 39.234375 62.25 
Q 35.15625 65.921875 28.609375 65.921875 
Q 23.96875 65.921875 18.8125 64.3125 
Q 13.671875 62.703125 7.8125 59.421875 
L 7.8125 69.390625 
Q 13.765625 71.78125 18.9375 73 
Q 24.125 74.21875 28.421875 74.21875 
Q 39.75 74.21875 46.484375 68.546875 
Q 53.21875 62.890625 53.21875 53.421875 
Q 53.21875 48.921875 51.53125 44.890625 
Q 49.859375 40.875 45.40625 35.40625 
Q 44.1875 33.984375 37.640625 27.21875 
Q 31.109375 20.453125 19.1875 8.296875 
z
" id="DejaVuSans-50"/>
      </defs>
      <g transform="translate(129.103552 150.838437)scale(0.1 -0.1)">
       <use xlink:href="#DejaVuSans-50"/>
       <use x="63.623047" xlink:href="#DejaVuSans-48"/>
       <use x="127.246094" xlink:href="#DejaVuSans-48"/>
      </g>
     </g>
    </g>
    <g id="xtick_3">
     <g id="line2d_3">
      <g>
       <use style="stroke:#000000;stroke-width:0.8;" x="211.403695" xlink:href="#macf6a129f3" y="136.24"/>
      </g>
     </g>
     <g id="text_3">
      <!-- 400 -->
      <defs>
       <path d="M 37.796875 64.3125 
L 12.890625 25.390625 
L 37.796875 25.390625 
z
M 35.203125 72.90625 
L 47.609375 72.90625 
L 47.609375 25.390625 
L 58.015625 25.390625 
L 58.015625 17.1875 
L 47.609375 17.1875 
L 47.609375 0 
L 37.796875 0 
L 37.796875 17.1875 
L 4.890625 17.1875 
L 4.890625 26.703125 
z
" id="DejaVuSans-52"/>
      </defs>
      <g transform="translate(201.859945 150.838437)scale(0.1 -0.1)">
       <use xlink:href="#DejaVuSans-52"/>
       <use x="63.623047" xlink:href="#DejaVuSans-48"/>
       <use x="127.246094" xlink:href="#DejaVuSans-48"/>
      </g>
     </g>
    </g>
    <g id="xtick_4">
     <g id="line2d_4">
      <g>
       <use style="stroke:#000000;stroke-width:0.8;" x="284.160087" xlink:href="#macf6a129f3" y="136.24"/>
      </g>
     </g>
     <g id="text_4">
      <!-- 600 -->
      <defs>
       <path d="M 33.015625 40.375 
Q 26.375 40.375 22.484375 35.828125 
Q 18.609375 31.296875 18.609375 23.390625 
Q 18.609375 15.53125 22.484375 10.953125 
Q 26.375 6.390625 33.015625 6.390625 
Q 39.65625 6.390625 43.53125 10.953125 
Q 47.40625 15.53125 47.40625 23.390625 
Q 47.40625 31.296875 43.53125 35.828125 
Q 39.65625 40.375 33.015625 40.375 
z
M 52.59375 71.296875 
L 52.59375 62.3125 
Q 48.875 64.0625 45.09375 64.984375 
Q 41.3125 65.921875 37.59375 65.921875 
Q 27.828125 65.921875 22.671875 59.328125 
Q 17.53125 52.734375 16.796875 39.40625 
Q 19.671875 43.65625 24.015625 45.921875 
Q 28.375 48.1875 33.59375 48.1875 
Q 44.578125 48.1875 50.953125 41.515625 
Q 57.328125 34.859375 57.328125 23.390625 
Q 57.328125 12.15625 50.6875 5.359375 
Q 44.046875 -1.421875 33.015625 -1.421875 
Q 20.359375 -1.421875 13.671875 8.265625 
Q 6.984375 17.96875 6.984375 36.375 
Q 6.984375 53.65625 15.1875 63.9375 
Q 23.390625 74.21875 37.203125 74.21875 
Q 40.921875 74.21875 44.703125 73.484375 
Q 48.484375 72.75 52.59375 71.296875 
z
" id="DejaVuSans-54"/>
      </defs>
      <g transform="translate(274.616337 150.838437)scale(0.1 -0.1)">
       <use xlink:href="#DejaVuSans-54"/>
       <use x="63.623047" xlink:href="#DejaVuSans-48"/>
       <use x="127.246094" xlink:href="#DejaVuSans-48"/>
      </g>
     </g>
    </g>
    <g id="xtick_5">
     <g id="line2d_5">
      <g>
       <use style="stroke:#000000;stroke-width:0.8;" x="356.91648" xlink:href="#macf6a129f3" y="136.24"/>
      </g>
     </g>
     <g id="text_5">
      <!-- 800 -->
      <defs>
       <path d="M 31.78125 34.625 
Q 24.75 34.625 20.71875 30.859375 
Q 16.703125 27.09375 16.703125 20.515625 
Q 16.703125 13.921875 20.71875 10.15625 
Q 24.75 6.390625 31.78125 6.390625 
Q 38.8125 6.390625 42.859375 10.171875 
Q 46.921875 13.96875 46.921875 20.515625 
Q 46.921875 27.09375 42.890625 30.859375 
Q 38.875 34.625 31.78125 34.625 
z
M 21.921875 38.8125 
Q 15.578125 40.375 12.03125 44.71875 
Q 8.5 49.078125 8.5 55.328125 
Q 8.5 64.0625 14.71875 69.140625 
Q 20.953125 74.21875 31.78125 74.21875 
Q 42.671875 74.21875 48.875 69.140625 
Q 55.078125 64.0625 55.078125 55.328125 
Q 55.078125 49.078125 51.53125 44.71875 
Q 48 40.375 41.703125 38.8125 
Q 48.828125 37.15625 52.796875 32.3125 
Q 56.78125 27.484375 56.78125 20.515625 
Q 56.78125 9.90625 50.3125 4.234375 
Q 43.84375 -1.421875 31.78125 -1.421875 
Q 19.734375 -1.421875 13.25 4.234375 
Q 6.78125 9.90625 6.78125 20.515625 
Q 6.78125 27.484375 10.78125 32.3125 
Q 14.796875 37.15625 21.921875 38.8125 
z
M 18.3125 54.390625 
Q 18.3125 48.734375 21.84375 45.5625 
Q 25.390625 42.390625 31.78125 42.390625 
Q 38.140625 42.390625 41.71875 45.5625 
Q 45.3125 48.734375 45.3125 54.390625 
Q 45.3125 60.0625 41.71875 63.234375 
Q 38.140625 66.40625 31.78125 66.40625 
Q 25.390625 66.40625 21.84375 63.234375 
Q 18.3125 60.0625 18.3125 54.390625 
z
" id="DejaVuSans-56"/>
      </defs>
      <g transform="translate(347.37273 150.838437)scale(0.1 -0.1)">
       <use xlink:href="#DejaVuSans-56"/>
       <use x="63.623047" xlink:href="#DejaVuSans-48"/>
       <use x="127.246094" xlink:href="#DejaVuSans-48"/>
      </g>
     </g>
    </g>
    <g id="xtick_6">
     <g id="line2d_6">
      <g>
       <use style="stroke:#000000;stroke-width:0.8;" x="429.672873" xlink:href="#macf6a129f3" y="136.24"/>
      </g>
     </g>
     <g id="text_6">
      <!-- 1000 -->
      <defs>
       <path d="M 12.40625 8.296875 
L 28.515625 8.296875 
L 28.515625 63.921875 
L 10.984375 60.40625 
L 10.984375 69.390625 
L 28.421875 72.90625 
L 38.28125 72.90625 
L 38.28125 8.296875 
L 54.390625 8.296875 
L 54.390625 0 
L 12.40625 0 
z
" id="DejaVuSans-49"/>
      </defs>
      <g transform="translate(416.947873 150.838437)scale(0.1 -0.1)">
       <use xlink:href="#DejaVuSans-49"/>
       <use x="63.623047" xlink:href="#DejaVuSans-48"/>
       <use x="127.246094" xlink:href="#DejaVuSans-48"/>
       <use x="190.869141" xlink:href="#DejaVuSans-48"/>
      </g>
     </g>
    </g>
    <g id="text_7">
     <!-- epoch -->
     <defs>
      <path d="M 56.203125 29.59375 
L 56.203125 25.203125 
L 14.890625 25.203125 
Q 15.484375 15.921875 20.484375 11.0625 
Q 25.484375 6.203125 34.421875 6.203125 
Q 39.59375 6.203125 44.453125 7.46875 
Q 49.3125 8.734375 54.109375 11.28125 
L 54.109375 2.78125 
Q 49.265625 0.734375 44.1875 -0.34375 
Q 39.109375 -1.421875 33.890625 -1.421875 
Q 20.796875 -1.421875 13.15625 6.1875 
Q 5.515625 13.8125 5.515625 26.8125 
Q 5.515625 40.234375 12.765625 48.109375 
Q 20.015625 56 32.328125 56 
Q 43.359375 56 49.78125 48.890625 
Q 56.203125 41.796875 56.203125 29.59375 
z
M 47.21875 32.234375 
Q 47.125 39.59375 43.09375 43.984375 
Q 39.0625 48.390625 32.421875 48.390625 
Q 24.90625 48.390625 20.390625 44.140625 
Q 15.875 39.890625 15.1875 32.171875 
z
" id="DejaVuSans-101"/>
      <path d="M 18.109375 8.203125 
L 18.109375 -20.796875 
L 9.078125 -20.796875 
L 9.078125 54.6875 
L 18.109375 54.6875 
L 18.109375 46.390625 
Q 20.953125 51.265625 25.265625 53.625 
Q 29.59375 56 35.59375 56 
Q 45.5625 56 51.78125 48.09375 
Q 58.015625 40.1875 58.015625 27.296875 
Q 58.015625 14.40625 51.78125 6.484375 
Q 45.5625 -1.421875 35.59375 -1.421875 
Q 29.59375 -1.421875 25.265625 0.953125 
Q 20.953125 3.328125 18.109375 8.203125 
z
M 48.6875 27.296875 
Q 48.6875 37.203125 44.609375 42.84375 
Q 40.53125 48.484375 33.40625 48.484375 
Q 26.265625 48.484375 22.1875 42.84375 
Q 18.109375 37.203125 18.109375 27.296875 
Q 18.109375 17.390625 22.1875 11.75 
Q 26.265625 6.109375 33.40625 6.109375 
Q 40.53125 6.109375 44.609375 11.75 
Q 48.6875 17.390625 48.6875 27.296875 
z
" id="DejaVuSans-112"/>
      <path d="M 30.609375 48.390625 
Q 23.390625 48.390625 19.1875 42.75 
Q 14.984375 37.109375 14.984375 27.296875 
Q 14.984375 17.484375 19.15625 11.84375 
Q 23.34375 6.203125 30.609375 6.203125 
Q 37.796875 6.203125 41.984375 11.859375 
Q 46.1875 17.53125 46.1875 27.296875 
Q 46.1875 37.015625 41.984375 42.703125 
Q 37.796875 48.390625 30.609375 48.390625 
z
M 30.609375 56 
Q 42.328125 56 49.015625 48.375 
Q 55.71875 40.765625 55.71875 27.296875 
Q 55.71875 13.875 49.015625 6.21875 
Q 42.328125 -1.421875 30.609375 -1.421875 
Q 18.84375 -1.421875 12.171875 6.21875 
Q 5.515625 13.875 5.515625 27.296875 
Q 5.515625 40.765625 12.171875 48.375 
Q 18.84375 56 30.609375 56 
z
" id="DejaVuSans-111"/>
      <path d="M 48.78125 52.59375 
L 48.78125 44.1875 
Q 44.96875 46.296875 41.140625 47.34375 
Q 37.3125 48.390625 33.40625 48.390625 
Q 24.65625 48.390625 19.8125 42.84375 
Q 14.984375 37.3125 14.984375 27.296875 
Q 14.984375 17.28125 19.8125 11.734375 
Q 24.65625 6.203125 33.40625 6.203125 
Q 37.3125 6.203125 41.140625 7.25 
Q 44.96875 8.296875 48.78125 10.40625 
L 48.78125 2.09375 
Q 45.015625 0.34375 40.984375 -0.53125 
Q 36.96875 -1.421875 32.421875 -1.421875 
Q 20.0625 -1.421875 12.78125 6.34375 
Q 5.515625 14.109375 5.515625 27.296875 
Q 5.515625 40.671875 12.859375 48.328125 
Q 20.21875 56 33.015625 56 
Q 37.15625 56 41.109375 55.140625 
Q 45.0625 54.296875 48.78125 52.59375 
z
" id="DejaVuSans-99"/>
      <path d="M 54.890625 33.015625 
L 54.890625 0 
L 45.90625 0 
L 45.90625 32.71875 
Q 45.90625 40.484375 42.875 44.328125 
Q 39.84375 48.1875 33.796875 48.1875 
Q 26.515625 48.1875 22.3125 43.546875 
Q 18.109375 38.921875 18.109375 30.90625 
L 18.109375 0 
L 9.078125 0 
L 9.078125 75.984375 
L 18.109375 75.984375 
L 18.109375 46.1875 
Q 21.34375 51.125 25.703125 53.5625 
Q 30.078125 56 35.796875 56 
Q 45.21875 56 50.046875 50.171875 
Q 54.890625 44.34375 54.890625 33.015625 
z
" id="DejaVuSans-104"/>
     </defs>
     <g transform="translate(232.371875 164.516562)scale(0.1 -0.1)">
      <use xlink:href="#DejaVuSans-101"/>
      <use x="61.523438" xlink:href="#DejaVuSans-112"/>
      <use x="125" xlink:href="#DejaVuSans-111"/>
      <use x="186.181641" xlink:href="#DejaVuSans-99"/>
      <use x="241.162109" xlink:href="#DejaVuSans-104"/>
     </g>
    </g>
   </g>
   <g id="matplotlib.axis_2">
    <g id="ytick_1">
     <g id="line2d_7">
      <defs>
       <path d="M 0 0 
L -3.5 0 
" id="m01d6006fca" style="stroke:#000000;stroke-width:0.8;"/>
      </defs>
      <g>
       <use style="stroke:#000000;stroke-width:0.8;" x="47.72" xlink:href="#m01d6006fca" y="131.505717"/>
      </g>
     </g>
     <g id="text_8">
      <!-- 0.4 -->
      <defs>
       <path d="M 10.6875 12.40625 
L 21 12.40625 
L 21 0 
L 10.6875 0 
z
" id="DejaVuSans-46"/>
      </defs>
      <g transform="translate(24.816875 135.304935)scale(0.1 -0.1)">
       <use xlink:href="#DejaVuSans-48"/>
       <use x="63.623047" xlink:href="#DejaVuSans-46"/>
       <use x="95.410156" xlink:href="#DejaVuSans-52"/>
      </g>
     </g>
    </g>
    <g id="ytick_2">
     <g id="line2d_8">
      <g>
       <use style="stroke:#000000;stroke-width:0.8;" x="47.72" xlink:href="#m01d6006fca" y="102.429453"/>
      </g>
     </g>
     <g id="text_9">
      <!-- 0.6 -->
      <g transform="translate(24.816875 106.228671)scale(0.1 -0.1)">
       <use xlink:href="#DejaVuSans-48"/>
       <use x="63.623047" xlink:href="#DejaVuSans-46"/>
       <use x="95.410156" xlink:href="#DejaVuSans-54"/>
      </g>
     </g>
    </g>
    <g id="ytick_3">
     <g id="line2d_9">
      <g>
       <use style="stroke:#000000;stroke-width:0.8;" x="47.72" xlink:href="#m01d6006fca" y="73.353189"/>
      </g>
     </g>
     <g id="text_10">
      <!-- 0.8 -->
      <g transform="translate(24.816875 77.152407)scale(0.1 -0.1)">
       <use xlink:href="#DejaVuSans-48"/>
       <use x="63.623047" xlink:href="#DejaVuSans-46"/>
       <use x="95.410156" xlink:href="#DejaVuSans-56"/>
      </g>
     </g>
    </g>
    <g id="ytick_4">
     <g id="line2d_10">
      <g>
       <use style="stroke:#000000;stroke-width:0.8;" x="47.72" xlink:href="#m01d6006fca" y="44.276925"/>
      </g>
     </g>
     <g id="text_11">
      <!-- 1.0 -->
      <g transform="translate(24.816875 48.076143)scale(0.1 -0.1)">
       <use xlink:href="#DejaVuSans-49"/>
       <use x="63.623047" xlink:href="#DejaVuSans-46"/>
       <use x="95.410156" xlink:href="#DejaVuSans-48"/>
      </g>
     </g>
    </g>
    <g id="text_12">
     <!-- loss -->
     <defs>
      <path d="M 9.421875 75.984375 
L 18.40625 75.984375 
L 18.40625 0 
L 9.421875 0 
z
" id="DejaVuSans-108"/>
      <path d="M 44.28125 53.078125 
L 44.28125 44.578125 
Q 40.484375 46.53125 36.375 47.5 
Q 32.28125 48.484375 27.875 48.484375 
Q 21.1875 48.484375 17.84375 46.4375 
Q 14.5 44.390625 14.5 40.28125 
Q 14.5 37.15625 16.890625 35.375 
Q 19.28125 33.59375 26.515625 31.984375 
L 29.59375 31.296875 
Q 39.15625 29.25 43.1875 25.515625 
Q 47.21875 21.78125 47.21875 15.09375 
Q 47.21875 7.46875 41.1875 3.015625 
Q 35.15625 -1.421875 24.609375 -1.421875 
Q 20.21875 -1.421875 15.453125 -0.5625 
Q 10.6875 0.296875 5.421875 2 
L 5.421875 11.28125 
Q 10.40625 8.6875 15.234375 7.390625 
Q 20.0625 6.109375 24.8125 6.109375 
Q 31.15625 6.109375 34.5625 8.28125 
Q 37.984375 10.453125 37.984375 14.40625 
Q 37.984375 18.0625 35.515625 20.015625 
Q 33.0625 21.96875 24.703125 23.78125 
L 21.578125 24.515625 
Q 13.234375 26.265625 9.515625 29.90625 
Q 5.8125 33.546875 5.8125 39.890625 
Q 5.8125 47.609375 11.28125 51.796875 
Q 16.75 56 26.8125 56 
Q 31.78125 56 36.171875 55.265625 
Q 40.578125 54.546875 44.28125 53.078125 
z
" id="DejaVuSans-115"/>
     </defs>
     <g transform="translate(18.737188 90.497812)rotate(-90)scale(0.1 -0.1)">
      <use xlink:href="#DejaVuSans-108"/>
      <use x="27.783203" xlink:href="#DejaVuSans-111"/>
      <use x="88.964844" xlink:href="#DejaVuSans-115"/>
      <use x="141.064453" xlink:href="#DejaVuSans-115"/>
     </g>
    </g>
   </g>
   <g id="line2d_11">
    <path clip-path="url(#pe7d286d782)" d="M 65.890909 30.476364 
L 69.528729 39.977887 
L 69.892511 41.833337 
L 70.256293 42.035166 
L 70.983857 43.458971 
L 71.347639 43.771378 
L 72.075202 45.385785 
L 72.438984 46.693072 
L 72.802766 47.203724 
L 73.166548 48.299927 
L 73.53033 48.486348 
L 73.894112 48.846757 
L 74.257894 50.320008 
L 74.621676 50.665397 
L 75.34924 52.982675 
L 75.713022 53.262407 
L 76.440586 54.279754 
L 76.804368 54.508772 
L 77.16815 56.554283 
L 77.895714 57.419747 
L 78.259496 58.598283 
L 78.98706 59.273066 
L 79.350842 60.789219 
L 79.714624 61.027661 
L 80.078406 62.021281 
L 80.442188 62.084901 
L 80.80597 63.489801 
L 81.169752 64.351661 
L 81.533534 65.831007 
L 81.897315 65.945007 
L 82.261097 67.252408 
L 82.624879 67.602515 
L 82.988661 68.54265 
L 83.352443 68.987576 
L 83.716225 70.522596 
L 84.080007 70.692499 
L 84.807571 72.834395 
L 85.171353 73.781057 
L 85.535135 74.04457 
L 85.898917 75.299332 
L 86.626481 76.854185 
L 86.990263 77.170475 
L 87.717827 79.374881 
L 89.536737 83.184957 
L 90.991865 86.029662 
L 91.355647 87.188794 
L 91.719429 87.632513 
L 92.08321 88.56975 
L 92.446992 88.898167 
L 93.538338 90.674481 
L 93.90212 91.622599 
L 94.265902 91.779329 
L 94.629684 92.599519 
L 96.084812 94.568324 
L 97.176158 95.701692 
L 97.903722 96.773526 
L 98.267504 97.081553 
L 98.631286 97.635584 
L 99.722632 98.497685 
L 100.086414 98.751946 
L 101.17776 100.059304 
L 101.541542 100.645506 
L 101.905324 100.663453 
L 102.269105 101.10156 
L 103.724233 101.701128 
L 104.451797 102.538416 
L 105.543143 103.426258 
L 105.906925 103.409746 
L 106.270707 103.714218 
L 106.634489 104.21748 
L 106.998271 104.508654 
L 107.362053 104.383652 
L 107.725835 104.449369 
L 108.089617 104.785198 
L 108.453399 104.742348 
L 109.180963 105.477517 
L 110.636091 106.135809 
L 110.999873 106.118126 
L 112.455 107.352776 
L 112.818782 107.006528 
L 113.546346 107.655142 
L 113.910128 107.606064 
L 114.637692 107.998312 
L 115.365256 108.077414 
L 115.729038 108.593465 
L 116.09282 108.511613 
L 116.456602 108.812987 
L 116.820384 109.258742 
L 117.184166 109.212051 
L 117.547948 109.561822 
L 117.91173 109.255009 
L 118.275512 109.849973 
L 118.639294 109.942325 
L 119.003076 109.513499 
L 119.73064 109.984123 
L 120.458204 110.190124 
L 120.821986 110.619656 
L 121.185768 110.284342 
L 121.54955 110.662894 
L 121.913332 110.792206 
L 122.277113 110.779268 
L 122.640895 111.249149 
L 123.004677 111.058582 
L 123.368459 111.796099 
L 123.732241 111.522935 
L 124.459805 111.615437 
L 125.187369 111.902032 
L 125.551151 111.741994 
L 126.642497 112.393144 
L 127.006279 112.359486 
L 128.461407 112.920573 
L 128.825189 112.803924 
L 129.916535 113.34915 
L 130.280317 113.400672 
L 130.644099 113.573601 
L 131.007881 113.44413 
L 131.371663 113.593546 
L 131.735445 113.262008 
L 132.463008 114.054317 
L 132.82679 113.835708 
L 133.554354 114.283967 
L 133.918136 114.248243 
L 134.6457 114.663389 
L 135.373264 114.572665 
L 135.737046 114.737351 
L 137.555956 114.912161 
L 137.919738 114.958071 
L 138.28352 115.383765 
L 139.374866 115.459369 
L 139.738648 115.420824 
L 140.10243 115.880848 
L 140.466212 115.621437 
L 141.193776 115.627097 
L 141.557558 116.110883 
L 141.92134 116.074493 
L 142.285121 115.645603 
L 142.648903 116.226706 
L 143.012685 116.384554 
L 143.740249 115.999476 
L 144.104031 116.586101 
L 144.467813 116.605749 
L 144.831595 116.279033 
L 145.922941 116.860659 
L 146.650505 116.769846 
L 147.014287 116.57336 
L 147.741851 117.489643 
L 148.105633 117.044828 
L 148.469415 117.019165 
L 149.560761 117.451757 
L 149.924543 117.302662 
L 150.652107 117.380835 
L 151.015889 117.75629 
L 151.379671 117.186936 
L 151.743453 117.909 
L 152.107235 117.726425 
L 152.471016 118.348065 
L 152.834798 117.536212 
L 153.19858 118.182809 
L 153.562362 118.283574 
L 153.926144 117.911906 
L 154.289926 118.003805 
L 154.653708 118.648331 
L 155.01749 118.102176 
L 156.108836 118.497654 
L 156.472618 118.106745 
L 156.8364 118.338803 
L 157.200182 118.1831 
L 157.563964 118.632068 
L 157.927746 118.694247 
L 158.291528 119.000605 
L 158.65531 118.601369 
L 159.019092 118.882766 
L 159.382874 119.011938 
L 159.746656 118.749968 
L 160.110438 118.782081 
L 160.47422 118.957577 
L 160.838002 119.369028 
L 161.929348 118.739087 
L 162.293129 119.382719 
L 163.020693 119.020588 
L 163.384475 119.309468 
L 164.112039 119.430615 
L 164.475821 119.521093 
L 164.839603 119.340138 
L 165.203385 119.42851 
L 165.567167 119.805065 
L 165.930949 119.862244 
L 166.294731 119.574247 
L 166.658513 119.50048 
L 167.022295 119.756903 
L 167.749859 119.597883 
L 168.113641 119.608059 
L 168.477423 119.833656 
L 168.841205 119.724821 
L 169.204987 120.284345 
L 169.568769 120.263298 
L 169.932551 119.953329 
L 170.296333 120.151195 
L 170.660115 120.019956 
L 171.023897 120.176006 
L 171.387679 120.096627 
L 171.751461 120.344175 
L 172.115243 120.305494 
L 172.479024 120.679285 
L 172.842806 120.452556 
L 173.206588 120.699851 
L 173.57037 120.698053 
L 173.934152 120.572292 
L 174.297934 120.224347 
L 174.661716 120.683819 
L 175.025498 120.465995 
L 175.38928 120.487155 
L 175.753062 120.796912 
L 176.116844 120.591321 
L 177.571972 121.099213 
L 177.935754 120.673323 
L 178.299536 121.18163 
L 179.0271 121.015338 
L 179.390882 120.907399 
L 179.754664 121.124149 
L 180.84601 121.072735 
L 181.209792 121.202322 
L 181.573574 121.5335 
L 181.937356 121.025413 
L 182.301138 121.080053 
L 183.028701 121.604505 
L 183.392483 121.310917 
L 184.120047 121.710799 
L 184.847611 121.52385 
L 185.575175 121.278558 
L 185.938957 122.062572 
L 186.302739 121.560207 
L 187.030303 122.000888 
L 187.757867 121.285506 
L 188.121649 121.928534 
L 188.485431 121.728761 
L 189.212995 122.141153 
L 189.576777 121.601657 
L 189.940559 121.829034 
L 190.304341 121.805767 
L 191.395687 122.20647 
L 191.759469 122.006984 
L 192.123251 122.036159 
L 192.487032 121.928599 
L 193.214596 122.23212 
L 193.578378 122.0893 
L 193.94216 122.158147 
L 194.669724 122.562849 
L 195.397288 122.316894 
L 195.76107 122.604236 
L 196.124852 122.619918 
L 196.852416 122.141038 
L 197.216198 122.484285 
L 197.943762 122.640465 
L 199.762672 122.832708 
L 200.126454 122.775574 
L 200.490236 123.035815 
L 200.854018 122.940184 
L 201.2178 122.625331 
L 201.581582 122.56317 
L 201.945364 122.888408 
L 202.309146 123.031239 
L 202.672927 122.801183 
L 203.400491 122.979187 
L 203.764273 123.117548 
L 204.128055 122.883751 
L 204.491837 123.37868 
L 205.219401 123.011339 
L 205.583183 123.043633 
L 205.946965 123.562948 
L 206.310747 123.441848 
L 206.674529 123.483207 
L 207.038311 123.139962 
L 207.402093 123.089466 
L 207.765875 123.305661 
L 208.129657 122.808384 
L 208.493439 123.245209 
L 209.221003 123.372065 
L 209.584785 123.436307 
L 209.948567 123.307247 
L 210.312349 123.607523 
L 210.676131 123.651729 
L 211.039913 123.377713 
L 211.403695 123.786274 
L 211.767477 123.686059 
L 212.131259 123.865606 
L 212.49504 123.512395 
L 212.858822 123.723373 
L 213.222604 123.676018 
L 213.586386 123.486474 
L 213.950168 123.704991 
L 215.041514 123.780753 
L 215.405296 124.020399 
L 215.769078 123.66215 
L 216.13286 124.026936 
L 216.496642 123.864781 
L 216.860424 124.161016 
L 217.224206 123.716047 
L 217.587988 124.072529 
L 217.95177 123.821794 
L 219.043116 123.958853 
L 219.406898 124.384872 
L 219.77068 124.054028 
L 220.862026 124.175336 
L 221.225808 123.830133 
L 221.58959 124.316539 
L 221.953372 124.435889 
L 222.317154 124.31121 
L 222.680935 124.060516 
L 223.044717 124.412949 
L 223.408499 124.494418 
L 223.772281 124.366192 
L 224.136063 124.44719 
L 224.499845 124.006665 
L 224.863627 124.066085 
L 225.227409 124.386438 
L 225.591191 124.546831 
L 225.954973 124.399423 
L 226.318755 124.548901 
L 226.682537 124.4283 
L 228.137665 124.693445 
L 228.865229 124.556783 
L 229.592793 124.394526 
L 229.956575 124.692439 
L 230.320357 124.69214 
L 230.684139 124.830784 
L 231.047921 124.709285 
L 231.411703 124.866098 
L 232.139267 124.726563 
L 232.503049 125.025313 
L 232.86683 124.776437 
L 233.594394 124.637782 
L 234.321958 125.011202 
L 234.68574 124.679641 
L 235.049522 124.967372 
L 235.413304 124.552271 
L 235.777086 124.961907 
L 236.140868 124.953811 
L 236.50465 124.706653 
L 236.868432 125.185487 
L 237.232214 125.327718 
L 237.595996 125.255515 
L 237.959778 125.064082 
L 238.687342 125.128587 
L 239.051124 124.990831 
L 239.414906 125.291978 
L 239.778688 125.398026 
L 240.14247 125.112031 
L 240.506252 125.164184 
L 240.870034 125.539181 
L 241.233816 125.234165 
L 242.325162 125.48226 
L 242.688943 125.281893 
L 243.052725 124.930348 
L 243.416507 125.358729 
L 243.780289 125.445743 
L 244.144071 125.243247 
L 244.507853 125.353279 
L 244.871635 125.094746 
L 245.235417 125.546873 
L 245.962981 125.5724 
L 246.326763 125.579551 
L 246.690545 125.425183 
L 247.054327 125.492674 
L 247.418109 125.439753 
L 247.781891 125.273202 
L 248.145673 125.697553 
L 248.509455 125.848981 
L 248.873237 125.20916 
L 249.237019 125.693923 
L 249.600801 125.730689 
L 249.964583 125.616484 
L 250.328365 125.716583 
L 250.692147 125.966608 
L 251.055929 125.67561 
L 251.419711 125.903683 
L 251.783493 125.453129 
L 252.147275 125.625127 
L 252.511057 125.507405 
L 252.874838 125.681931 
L 253.23862 126.062197 
L 253.602402 125.711841 
L 253.966184 126.264357 
L 254.329966 125.993944 
L 254.693748 126.03419 
L 255.421312 125.955463 
L 256.148876 125.955454 
L 256.512658 125.801213 
L 256.87644 126.066175 
L 257.240222 125.913655 
L 257.967786 126.146404 
L 258.331568 125.792688 
L 258.69535 126.531457 
L 259.786696 125.710625 
L 260.150478 126.26993 
L 260.51426 125.791903 
L 260.878042 126.382136 
L 261.241824 126.119976 
L 261.605606 126.171469 
L 261.969388 126.36862 
L 262.696951 126.241268 
L 263.060733 126.342708 
L 264.152079 126.280792 
L 264.515861 126.310719 
L 265.243425 126.134873 
L 265.607207 126.562822 
L 265.970989 126.284469 
L 266.334771 126.200086 
L 266.698553 126.46404 
L 267.062335 126.555404 
L 267.789899 126.314828 
L 268.153681 126.230352 
L 268.517463 126.530427 
L 269.245027 126.746405 
L 269.608809 126.320652 
L 270.336373 126.275175 
L 270.700155 126.527344 
L 271.063937 126.210736 
L 271.427719 126.636011 
L 271.791501 126.424684 
L 272.155283 126.787435 
L 272.519065 126.156088 
L 272.882846 126.892021 
L 273.246628 126.518006 
L 273.61041 127.089765 
L 273.974192 127.025155 
L 274.337974 126.760338 
L 275.065538 126.788639 
L 275.42932 126.408244 
L 275.793102 126.550381 
L 276.156884 126.828815 
L 277.612012 126.618996 
L 277.975794 126.672901 
L 278.339576 126.976584 
L 278.703358 126.765695 
L 279.06714 126.866976 
L 279.430922 126.713408 
L 279.794704 126.919709 
L 280.158486 126.821352 
L 280.88605 127.112001 
L 281.613614 127.107196 
L 281.977396 126.785055 
L 282.341178 127.037895 
L 283.432523 126.74678 
L 283.796305 127.321257 
L 284.160087 127.050125 
L 284.887651 127.000828 
L 285.251433 126.800864 
L 285.615215 127.101776 
L 286.342779 127.233695 
L 286.706561 127.10434 
L 287.070343 127.307902 
L 287.434125 126.996663 
L 287.797907 127.031101 
L 288.161689 127.562146 
L 288.525471 127.332035 
L 288.889253 127.456222 
L 289.253035 127.186634 
L 289.616817 127.353857 
L 289.980599 127.708948 
L 290.344381 127.22403 
L 290.708163 127.249395 
L 291.071945 127.560935 
L 291.435727 127.245216 
L 291.799509 127.343054 
L 292.163291 127.105398 
L 292.527073 127.37144 
L 293.618418 127.56572 
L 293.9822 127.745497 
L 294.345982 127.657545 
L 294.709764 127.323553 
L 295.073546 127.823469 
L 295.437328 127.589999 
L 295.80111 127.210245 
L 296.164892 127.751741 
L 296.528674 127.604931 
L 296.892456 127.193979 
L 297.256238 127.74232 
L 297.62002 127.149966 
L 297.983802 127.669259 
L 298.347584 127.844674 
L 298.711366 127.482016 
L 299.802712 127.985344 
L 300.166494 127.867545 
L 300.530276 127.625187 
L 300.894058 127.875673 
L 301.621622 127.571704 
L 301.985404 127.868565 
L 302.349186 127.475828 
L 302.712968 127.70554 
L 303.076749 127.745988 
L 303.804313 127.408319 
L 304.168095 127.501776 
L 304.531877 127.859407 
L 305.259441 127.727259 
L 305.987005 127.817072 
L 306.350787 127.763718 
L 306.714569 128.035618 
L 307.078351 127.817572 
L 307.442133 127.8039 
L 307.805915 128.045278 
L 308.169697 128.127614 
L 308.897261 127.638114 
L 309.261043 127.622983 
L 310.352389 128.032827 
L 311.079953 128.095981 
L 311.443735 127.882305 
L 311.807517 128.202352 
L 312.171299 127.833877 
L 312.535081 128.065185 
L 312.898862 127.80386 
L 313.262644 127.863482 
L 313.626426 128.158209 
L 314.35399 128.193277 
L 314.717772 127.731693 
L 315.081554 128.14374 
L 315.445336 127.824568 
L 315.809118 128.236976 
L 316.900464 127.90103 
L 317.264246 128.488264 
L 317.628028 128.291977 
L 317.99181 127.928854 
L 318.355592 128.331038 
L 318.719374 127.927759 
L 319.083156 128.365445 
L 319.446938 128.526286 
L 320.174502 127.945508 
L 321.265848 128.566944 
L 321.62963 128.024838 
L 321.993412 128.273142 
L 322.357194 127.935095 
L 322.720976 128.263852 
L 323.084757 128.299753 
L 323.448539 128.71236 
L 323.812321 128.496974 
L 324.176103 128.680336 
L 324.539885 128.359048 
L 324.903667 128.332011 
L 325.267449 128.57713 
L 325.631231 128.115107 
L 325.995013 128.390759 
L 326.358795 128.340732 
L 327.086359 128.595082 
L 327.450141 128.473619 
L 328.177705 128.664708 
L 328.541487 128.552822 
L 328.905269 128.649056 
L 329.269051 128.557677 
L 329.996615 128.591534 
L 330.360397 128.520326 
L 331.451743 128.798259 
L 331.815525 128.549104 
L 332.179307 128.622996 
L 332.543089 128.405982 
L 332.906871 128.73536 
L 333.634434 128.803047 
L 333.998216 128.659394 
L 334.361998 128.746481 
L 335.089562 128.573537 
L 335.453344 128.88045 
L 336.180908 128.547899 
L 336.54469 128.833669 
L 338.727382 128.702192 
L 339.454946 129.033163 
L 339.818728 128.601982 
L 340.910074 128.813475 
L 341.273856 128.408836 
L 341.637638 128.911683 
L 342.00142 128.807238 
L 342.365202 129.003748 
L 342.728984 129.409693 
L 343.092765 128.8259 
L 343.820329 128.826816 
L 344.547893 129.206804 
L 344.911675 128.689978 
L 345.275457 128.737943 
L 345.639239 129.178066 
L 346.366803 128.876896 
L 346.730585 128.510407 
L 347.094367 129.060313 
L 347.821931 128.956632 
L 348.185713 128.643781 
L 348.549495 128.966329 
L 349.277059 129.093297 
L 349.640841 129.09734 
L 350.004623 129.215704 
L 350.368405 129.162633 
L 350.732187 128.954328 
L 351.459751 128.961441 
L 352.187315 129.397712 
L 352.551097 129.44198 
L 352.914879 129.306838 
L 353.27866 129.623994 
L 353.642442 129.108679 
L 354.006224 129.177628 
L 354.733788 129.088617 
L 355.461352 129.173049 
L 355.825134 129.495009 
L 356.188916 129.060465 
L 356.552698 129.710347 
L 356.91648 129.268128 
L 357.280262 129.562622 
L 358.007826 129.122113 
L 359.099172 129.448436 
L 359.462954 129.1438 
L 360.190518 129.51597 
L 360.5543 129.399592 
L 360.918082 129.436854 
L 361.645646 129.18151 
L 362.009428 129.142025 
L 362.37321 129.49944 
L 362.736992 129.623832 
L 363.464555 129.357525 
L 363.828337 129.502075 
L 364.192119 129.405501 
L 364.555901 129.568531 
L 364.919683 129.279244 
L 366.011029 129.750928 
L 366.374811 129.626095 
L 366.738593 129.283647 
L 367.102375 129.589771 
L 367.466157 129.711606 
L 368.193721 129.390274 
L 368.557503 129.641317 
L 368.921285 129.730153 
L 369.285067 129.35292 
L 369.648849 129.598889 
L 370.012631 129.47745 
L 370.376413 129.536016 
L 370.740195 129.273895 
L 371.103977 129.68217 
L 371.467759 129.472198 
L 371.831541 129.824816 
L 372.195323 129.581594 
L 372.559105 129.679399 
L 372.922887 129.379825 
L 373.286668 130.051737 
L 373.65045 129.885194 
L 374.014232 129.991637 
L 374.378014 129.538446 
L 374.741796 129.966682 
L 375.105578 129.931934 
L 376.196924 129.473332 
L 377.28827 129.725353 
L 377.652052 129.600381 
L 378.379616 129.741141 
L 378.743398 129.583082 
L 379.10718 129.926669 
L 379.470962 129.681418 
L 379.834744 130.025265 
L 380.198526 129.686915 
L 380.562308 129.773648 
L 381.289872 129.546266 
L 381.653654 129.953704 
L 382.017436 129.796096 
L 382.381218 129.874279 
L 382.745 129.749837 
L 383.472563 130.164516 
L 384.200127 129.693587 
L 384.563909 130.143886 
L 384.927691 130.111018 
L 385.291473 129.870227 
L 385.655255 129.821324 
L 386.019037 129.949656 
L 386.382819 129.943362 
L 386.746601 129.790302 
L 388.201729 130.043083 
L 388.565511 130.261158 
L 388.929293 129.927816 
L 389.293075 129.853074 
L 389.656857 130.206267 
L 390.020639 130.003806 
L 390.384421 130.194636 
L 390.748203 130.180101 
L 391.111985 129.925804 
L 391.475767 129.952606 
L 391.839549 130.125788 
L 392.203331 130.167473 
L 392.567113 129.919717 
L 392.930895 130.22709 
L 393.658458 130.05908 
L 394.02224 129.698173 
L 394.386022 130.169278 
L 394.749804 130.290057 
L 395.113586 129.760842 
L 396.204932 130.214601 
L 396.568714 129.885807 
L 396.932496 130.230032 
L 397.66006 129.942957 
L 398.023842 130.391328 
L 398.387624 130.436066 
L 398.751406 130.085856 
L 399.115188 130.233953 
L 399.47897 130.065428 
L 400.206534 130.472349 
L 400.570316 130.481291 
L 400.934098 130.26835 
L 401.661662 130.143085 
L 402.753008 130.456078 
L 403.480571 130.306694 
L 403.844353 130.371019 
L 404.935699 130.121102 
L 405.663263 130.711751 
L 406.390827 130.245713 
L 406.754609 130.14477 
L 407.118391 130.517944 
L 407.482173 130.640337 
L 408.209737 130.395513 
L 408.573519 130.654806 
L 408.937301 130.158082 
L 409.301083 130.618938 
L 411.119993 130.371542 
L 411.483775 130.561787 
L 412.575121 130.391526 
L 412.938903 130.6003 
L 413.302685 130.527683 
L 413.666466 130.779723 
L 414.030248 130.77758 
L 414.39403 130.440605 
L 414.757812 130.622595 
L 415.485376 130.641162 
L 415.849158 130.672593 
L 416.21294 130.53956 
L 416.576722 130.804426 
L 417.304286 130.301543 
L 417.668068 130.573673 
L 418.03185 130.47584 
L 418.759414 130.680082 
L 419.123196 130.562395 
L 419.486978 130.808089 
L 419.85076 130.682353 
L 420.214542 130.683952 
L 420.578324 130.934028 
L 420.942106 130.816667 
L 421.305888 130.990576 
L 421.66967 130.964077 
L 422.033452 131.07906 
L 422.397234 131.056259 
L 422.761016 130.62661 
L 423.124798 130.895579 
L 423.488579 130.50391 
L 423.852361 130.796446 
L 424.216143 130.511124 
L 424.943707 130.595511 
L 425.307489 130.784431 
L 425.671271 130.544501 
L 426.398835 131.019215 
L 426.762617 130.882733 
L 427.126399 131.016814 
L 427.490181 130.602265 
L 428.217745 130.8406 
L 428.581527 130.932466 
L 428.945309 131.203636 
L 429.309091 130.879689 
L 429.309091 130.879689 
" style="fill:none;stroke:#0000ff;stroke-linecap:square;stroke-width:1.5;"/>
   </g>
   <g id="line2d_12">
    <path clip-path="url(#pe7d286d782)" d="M 65.890909 31.07686 
L 67.709819 35.852556 
L 69.164947 39.943096 
L 69.892511 41.322404 
L 73.166548 46.380974 
L 73.53033 46.871155 
L 73.894112 47.655778 
L 74.985458 49.08583 
L 75.713022 49.992964 
L 77.16815 53.216822 
L 77.531932 53.707492 
L 77.895714 54.622984 
L 78.623278 55.838272 
L 78.98706 56.935809 
L 80.442188 59.697669 
L 81.169752 61.787145 
L 81.533534 62.270148 
L 83.352443 66.935761 
L 89.900519 82.601657 
L 90.628083 84.37814 
L 94.265902 91.862968 
L 95.357248 93.447042 
L 95.72103 94.148987 
L 96.448594 94.860175 
L 97.176158 96.233368 
L 97.53994 96.594282 
L 97.903722 97.206771 
L 98.631286 97.9142 
L 101.17776 100.701607 
L 101.541542 100.854426 
L 102.632887 101.975816 
L 103.360451 102.298045 
L 104.088015 103.088348 
L 104.451797 103.398193 
L 104.815579 103.535891 
L 106.998271 105.040043 
L 107.362053 105.245386 
L 108.089617 105.846391 
L 108.453399 106.003895 
L 108.817181 106.287488 
L 109.180963 106.382683 
L 109.544745 106.677704 
L 109.908527 106.82124 
L 110.999873 107.540625 
L 112.091218 108.05732 
L 112.455 108.124259 
L 112.818782 108.310113 
L 113.182564 108.684104 
L 113.910128 108.95287 
L 117.91173 110.767437 
L 118.275512 110.767781 
L 118.639294 111.072441 
L 119.366858 111.323877 
L 119.73064 111.351529 
L 123.004677 112.622093 
L 126.278715 113.763921 
L 126.642497 113.75985 
L 127.006279 113.978407 
L 127.370061 113.991722 
L 127.733843 114.183013 
L 128.461407 114.379182 
L 129.188971 114.601718 
L 129.552753 114.611598 
L 131.735445 115.26996 
L 132.099226 115.305813 
L 133.190572 115.690234 
L 133.554354 115.661164 
L 136.100828 116.370782 
L 136.46461 116.333644 
L 136.828392 116.530671 
L 137.555956 116.709163 
L 139.011084 116.942042 
L 140.10243 117.206634 
L 140.829994 117.299413 
L 143.740249 117.945745 
L 144.467813 117.998148 
L 145.195377 118.197439 
L 148.469415 118.765653 
L 161.201784 120.607208 
L 161.565566 120.568752 
L 162.293129 120.72437 
L 164.112039 120.950042 
L 164.475821 120.903198 
L 167.022295 121.321515 
L 168.113641 121.406518 
L 169.204987 121.528304 
L 172.842806 121.923444 
L 173.206588 121.885805 
L 173.934152 122.030315 
L 176.480626 122.254805 
L 177.935754 122.420268 
L 179.390882 122.483398 
L 180.118446 122.638939 
L 195.033506 123.783467 
L 195.76107 123.859799 
L 197.57998 123.865243 
L 198.307544 124.005609 
L 198.671326 123.959745 
L 199.39889 124.038046 
L 200.854018 124.149077 
L 201.2178 124.081479 
L 201.581582 124.212958 
L 203.036709 124.287497 
L 203.400491 124.365309 
L 204.128055 124.367093 
L 206.674529 124.482561 
L 207.402093 124.564713 
L 208.129657 124.632137 
L 209.948567 124.792601 
L 211.039913 124.739804 
L 212.49504 124.90465 
L 215.405296 125.050266 
L 217.224206 125.187129 
L 219.77068 125.249038 
L 221.953372 125.399078 
L 223.772281 125.403691 
L 226.318755 125.592475 
L 228.865229 125.729706 
L 229.592793 125.790586 
L 230.320357 125.772089 
L 231.047921 125.87246 
L 231.775485 125.865161 
L 239.414906 126.224886 
L 240.506252 126.189982 
L 240.870034 126.287849 
L 241.96138 126.259359 
L 242.688943 126.369318 
L 243.416507 126.347737 
L 248.145673 126.532184 
L 249.237019 126.559706 
L 250.328365 126.642445 
L 251.419711 126.636439 
L 252.147275 126.709246 
L 253.602402 126.787537 
L 256.148876 126.880974 
L 256.87644 126.786243 
L 257.604004 126.910615 
L 258.69535 126.985021 
L 259.786696 127.008307 
L 261.605606 127.045685 
L 263.060733 127.127412 
L 266.698553 127.257054 
L 267.426117 127.292515 
L 268.517463 127.26845 
L 272.519065 127.42757 
L 284.887651 127.804873 
L 285.978997 127.834244 
L 289.253035 127.911298 
L 290.708163 127.997627 
L 308.897261 128.478511 
L 309.624825 128.48738 
L 323.084757 128.838216 
L 327.813923 128.952199 
L 329.269051 128.990337 
L 330.360397 129.007788 
L 333.634434 129.126518 
L 335.089562 129.126741 
L 336.180908 129.182072 
L 336.908472 129.151899 
L 340.910074 129.27685 
L 342.365202 129.290607 
L 343.456547 129.322012 
L 347.094367 129.408606 
L 354.733788 129.536462 
L 357.280262 129.625335 
L 358.007826 129.579372 
L 360.5543 129.663007 
L 367.102375 129.807695 
L 369.285067 129.837459 
L 371.467759 129.90131 
L 377.28827 130.006513 
L 382.381218 130.083023 
L 383.472563 130.114478 
L 385.291473 130.143557 
L 421.305888 130.806846 
L 423.488579 130.84053 
L 429.309091 130.929666 
L 429.309091 130.929666 
" style="fill:none;stroke:#ffa500;stroke-linecap:square;stroke-width:1.5;"/>
   </g>
   <g id="patch_3">
    <path d="M 47.72 136.24 
L 47.72 25.44 
" style="fill:none;stroke:#000000;stroke-linecap:square;stroke-linejoin:miter;stroke-width:0.8;"/>
   </g>
   <g id="patch_4">
    <path d="M 447.48 136.24 
L 447.48 25.44 
" style="fill:none;stroke:#000000;stroke-linecap:square;stroke-linejoin:miter;stroke-width:0.8;"/>
   </g>
   <g id="patch_5">
    <path d="M 47.72 136.24 
L 447.48 136.24 
" style="fill:none;stroke:#000000;stroke-linecap:square;stroke-linejoin:miter;stroke-width:0.8;"/>
   </g>
   <g id="patch_6">
    <path d="M 47.72 25.44 
L 447.48 25.44 
" style="fill:none;stroke:#000000;stroke-linecap:square;stroke-linejoin:miter;stroke-width:0.8;"/>
   </g>
   <g id="text_13">
    <!-- model loss -->
    <defs>
     <path d="M 52 44.1875 
Q 55.375 50.25 60.0625 53.125 
Q 64.75 56 71.09375 56 
Q 79.640625 56 84.28125 50.015625 
Q 88.921875 44.046875 88.921875 33.015625 
L 88.921875 0 
L 79.890625 0 
L 79.890625 32.71875 
Q 79.890625 40.578125 77.09375 44.375 
Q 74.3125 48.1875 68.609375 48.1875 
Q 61.625 48.1875 57.5625 43.546875 
Q 53.515625 38.921875 53.515625 30.90625 
L 53.515625 0 
L 44.484375 0 
L 44.484375 32.71875 
Q 44.484375 40.625 41.703125 44.40625 
Q 38.921875 48.1875 33.109375 48.1875 
Q 26.21875 48.1875 22.15625 43.53125 
Q 18.109375 38.875 18.109375 30.90625 
L 18.109375 0 
L 9.078125 0 
L 9.078125 54.6875 
L 18.109375 54.6875 
L 18.109375 46.1875 
Q 21.1875 51.21875 25.484375 53.609375 
Q 29.78125 56 35.6875 56 
Q 41.65625 56 45.828125 52.96875 
Q 50 49.953125 52 44.1875 
z
" id="DejaVuSans-109"/>
     <path d="M 45.40625 46.390625 
L 45.40625 75.984375 
L 54.390625 75.984375 
L 54.390625 0 
L 45.40625 0 
L 45.40625 8.203125 
Q 42.578125 3.328125 38.25 0.953125 
Q 33.9375 -1.421875 27.875 -1.421875 
Q 17.96875 -1.421875 11.734375 6.484375 
Q 5.515625 14.40625 5.515625 27.296875 
Q 5.515625 40.1875 11.734375 48.09375 
Q 17.96875 56 27.875 56 
Q 33.9375 56 38.25 53.625 
Q 42.578125 51.265625 45.40625 46.390625 
z
M 14.796875 27.296875 
Q 14.796875 17.390625 18.875 11.75 
Q 22.953125 6.109375 30.078125 6.109375 
Q 37.203125 6.109375 41.296875 11.75 
Q 45.40625 17.390625 45.40625 27.296875 
Q 45.40625 37.203125 41.296875 42.84375 
Q 37.203125 48.484375 30.078125 48.484375 
Q 22.953125 48.484375 18.875 42.84375 
Q 14.796875 37.203125 14.796875 27.296875 
z
" id="DejaVuSans-100"/>
     <path id="DejaVuSans-32"/>
    </defs>
    <g transform="translate(215.420312 19.44)scale(0.12 -0.12)">
     <use xlink:href="#DejaVuSans-109"/>
     <use x="97.412109" xlink:href="#DejaVuSans-111"/>
     <use x="158.59375" xlink:href="#DejaVuSans-100"/>
     <use x="222.070312" xlink:href="#DejaVuSans-101"/>
     <use x="283.59375" xlink:href="#DejaVuSans-108"/>
     <use x="311.376953" xlink:href="#DejaVuSans-32"/>
     <use x="343.164062" xlink:href="#DejaVuSans-108"/>
     <use x="370.947266" xlink:href="#DejaVuSans-111"/>
     <use x="432.128906" xlink:href="#DejaVuSans-115"/>
     <use x="484.228516" xlink:href="#DejaVuSans-115"/>
    </g>
   </g>
   <g id="legend_1">
    <g id="patch_7">
     <path d="M 54.72 62.79625 
L 109.995 62.79625 
Q 111.995 62.79625 111.995 60.79625 
L 111.995 32.44 
Q 111.995 30.44 109.995 30.44 
L 54.72 30.44 
Q 52.72 30.44 52.72 32.44 
L 52.72 60.79625 
Q 52.72 62.79625 54.72 62.79625 
z
" style="fill:#ffffff;opacity:0.8;stroke:#cccccc;stroke-linejoin:miter;"/>
    </g>
    <g id="line2d_13">
     <path d="M 56.72 38.538437 
L 76.72 38.538437 
" style="fill:none;stroke:#0000ff;stroke-linecap:square;stroke-width:1.5;"/>
    </g>
    <g id="line2d_14"/>
    <g id="text_14">
     <!-- train -->
     <defs>
      <path d="M 18.3125 70.21875 
L 18.3125 54.6875 
L 36.8125 54.6875 
L 36.8125 47.703125 
L 18.3125 47.703125 
L 18.3125 18.015625 
Q 18.3125 11.328125 20.140625 9.421875 
Q 21.96875 7.515625 27.59375 7.515625 
L 36.8125 7.515625 
L 36.8125 0 
L 27.59375 0 
Q 17.1875 0 13.234375 3.875 
Q 9.28125 7.765625 9.28125 18.015625 
L 9.28125 47.703125 
L 2.6875 47.703125 
L 2.6875 54.6875 
L 9.28125 54.6875 
L 9.28125 70.21875 
z
" id="DejaVuSans-116"/>
      <path d="M 41.109375 46.296875 
Q 39.59375 47.171875 37.8125 47.578125 
Q 36.03125 48 33.890625 48 
Q 26.265625 48 22.1875 43.046875 
Q 18.109375 38.09375 18.109375 28.8125 
L 18.109375 0 
L 9.078125 0 
L 9.078125 54.6875 
L 18.109375 54.6875 
L 18.109375 46.1875 
Q 20.953125 51.171875 25.484375 53.578125 
Q 30.03125 56 36.53125 56 
Q 37.453125 56 38.578125 55.875 
Q 39.703125 55.765625 41.0625 55.515625 
z
" id="DejaVuSans-114"/>
      <path d="M 34.28125 27.484375 
Q 23.390625 27.484375 19.1875 25 
Q 14.984375 22.515625 14.984375 16.5 
Q 14.984375 11.71875 18.140625 8.90625 
Q 21.296875 6.109375 26.703125 6.109375 
Q 34.1875 6.109375 38.703125 11.40625 
Q 43.21875 16.703125 43.21875 25.484375 
L 43.21875 27.484375 
z
M 52.203125 31.203125 
L 52.203125 0 
L 43.21875 0 
L 43.21875 8.296875 
Q 40.140625 3.328125 35.546875 0.953125 
Q 30.953125 -1.421875 24.3125 -1.421875 
Q 15.921875 -1.421875 10.953125 3.296875 
Q 6 8.015625 6 15.921875 
Q 6 25.140625 12.171875 29.828125 
Q 18.359375 34.515625 30.609375 34.515625 
L 43.21875 34.515625 
L 43.21875 35.40625 
Q 43.21875 41.609375 39.140625 45 
Q 35.0625 48.390625 27.6875 48.390625 
Q 23 48.390625 18.546875 47.265625 
Q 14.109375 46.140625 10.015625 43.890625 
L 10.015625 52.203125 
Q 14.9375 54.109375 19.578125 55.046875 
Q 24.21875 56 28.609375 56 
Q 40.484375 56 46.34375 49.84375 
Q 52.203125 43.703125 52.203125 31.203125 
z
" id="DejaVuSans-97"/>
      <path d="M 9.421875 54.6875 
L 18.40625 54.6875 
L 18.40625 0 
L 9.421875 0 
z
M 9.421875 75.984375 
L 18.40625 75.984375 
L 18.40625 64.59375 
L 9.421875 64.59375 
z
" id="DejaVuSans-105"/>
      <path d="M 54.890625 33.015625 
L 54.890625 0 
L 45.90625 0 
L 45.90625 32.71875 
Q 45.90625 40.484375 42.875 44.328125 
Q 39.84375 48.1875 33.796875 48.1875 
Q 26.515625 48.1875 22.3125 43.546875 
Q 18.109375 38.921875 18.109375 30.90625 
L 18.109375 0 
L 9.078125 0 
L 9.078125 54.6875 
L 18.109375 54.6875 
L 18.109375 46.1875 
Q 21.34375 51.125 25.703125 53.5625 
Q 30.078125 56 35.796875 56 
Q 45.21875 56 50.046875 50.171875 
Q 54.890625 44.34375 54.890625 33.015625 
z
" id="DejaVuSans-110"/>
     </defs>
     <g transform="translate(84.72 42.038437)scale(0.1 -0.1)">
      <use xlink:href="#DejaVuSans-116"/>
      <use x="39.208984" xlink:href="#DejaVuSans-114"/>
      <use x="80.322266" xlink:href="#DejaVuSans-97"/>
      <use x="141.601562" xlink:href="#DejaVuSans-105"/>
      <use x="169.384766" xlink:href="#DejaVuSans-110"/>
     </g>
    </g>
    <g id="line2d_15">
     <path d="M 56.72 53.216563 
L 76.72 53.216563 
" style="fill:none;stroke:#ffa500;stroke-linecap:square;stroke-width:1.5;"/>
    </g>
    <g id="line2d_16"/>
    <g id="text_15">
     <!-- test -->
     <g transform="translate(84.72 56.716563)scale(0.1 -0.1)">
      <use xlink:href="#DejaVuSans-116"/>
      <use x="39.208984" xlink:href="#DejaVuSans-101"/>
      <use x="100.732422" xlink:href="#DejaVuSans-115"/>
      <use x="152.832031" xlink:href="#DejaVuSans-116"/>
     </g>
    </g>
   </g>
  </g>
  <g id="axes_2">
   <g id="patch_8">
    <path d="M 47.72 303.64 
L 447.48 303.64 
L 447.48 192.84 
L 47.72 192.84 
z
" style="fill:#ffffff;"/>
   </g>
   <g id="matplotlib.axis_3">
    <g id="xtick_7">
     <g id="line2d_17">
      <g>
       <use style="stroke:#000000;stroke-width:0.8;" x="65.890909" xlink:href="#macf6a129f3" y="303.64"/>
      </g>
     </g>
     <g id="text_16">
      <!-- 0 -->
      <g transform="translate(62.709659 318.238437)scale(0.1 -0.1)">
       <use xlink:href="#DejaVuSans-48"/>
      </g>
     </g>
    </g>
    <g id="xtick_8">
     <g id="line2d_18">
      <g>
       <use style="stroke:#000000;stroke-width:0.8;" x="138.647302" xlink:href="#macf6a129f3" y="303.64"/>
      </g>
     </g>
     <g id="text_17">
      <!-- 200 -->
      <g transform="translate(129.103552 318.238437)scale(0.1 -0.1)">
       <use xlink:href="#DejaVuSans-50"/>
       <use x="63.623047" xlink:href="#DejaVuSans-48"/>
       <use x="127.246094" xlink:href="#DejaVuSans-48"/>
      </g>
     </g>
    </g>
    <g id="xtick_9">
     <g id="line2d_19">
      <g>
       <use style="stroke:#000000;stroke-width:0.8;" x="211.403695" xlink:href="#macf6a129f3" y="303.64"/>
      </g>
     </g>
     <g id="text_18">
      <!-- 400 -->
      <g transform="translate(201.859945 318.238437)scale(0.1 -0.1)">
       <use xlink:href="#DejaVuSans-52"/>
       <use x="63.623047" xlink:href="#DejaVuSans-48"/>
       <use x="127.246094" xlink:href="#DejaVuSans-48"/>
      </g>
     </g>
    </g>
    <g id="xtick_10">
     <g id="line2d_20">
      <g>
       <use style="stroke:#000000;stroke-width:0.8;" x="284.160087" xlink:href="#macf6a129f3" y="303.64"/>
      </g>
     </g>
     <g id="text_19">
      <!-- 600 -->
      <g transform="translate(274.616337 318.238437)scale(0.1 -0.1)">
       <use xlink:href="#DejaVuSans-54"/>
       <use x="63.623047" xlink:href="#DejaVuSans-48"/>
       <use x="127.246094" xlink:href="#DejaVuSans-48"/>
      </g>
     </g>
    </g>
    <g id="xtick_11">
     <g id="line2d_21">
      <g>
       <use style="stroke:#000000;stroke-width:0.8;" x="356.91648" xlink:href="#macf6a129f3" y="303.64"/>
      </g>
     </g>
     <g id="text_20">
      <!-- 800 -->
      <g transform="translate(347.37273 318.238437)scale(0.1 -0.1)">
       <use xlink:href="#DejaVuSans-56"/>
       <use x="63.623047" xlink:href="#DejaVuSans-48"/>
       <use x="127.246094" xlink:href="#DejaVuSans-48"/>
      </g>
     </g>
    </g>
    <g id="xtick_12">
     <g id="line2d_22">
      <g>
       <use style="stroke:#000000;stroke-width:0.8;" x="429.672873" xlink:href="#macf6a129f3" y="303.64"/>
      </g>
     </g>
     <g id="text_21">
      <!-- 1000 -->
      <g transform="translate(416.947873 318.238437)scale(0.1 -0.1)">
       <use xlink:href="#DejaVuSans-49"/>
       <use x="63.623047" xlink:href="#DejaVuSans-48"/>
       <use x="127.246094" xlink:href="#DejaVuSans-48"/>
       <use x="190.869141" xlink:href="#DejaVuSans-48"/>
      </g>
     </g>
    </g>
    <g id="text_22">
     <!-- epoch -->
     <g transform="translate(232.371875 331.916562)scale(0.1 -0.1)">
      <use xlink:href="#DejaVuSans-101"/>
      <use x="61.523438" xlink:href="#DejaVuSans-112"/>
      <use x="125" xlink:href="#DejaVuSans-111"/>
      <use x="186.181641" xlink:href="#DejaVuSans-99"/>
      <use x="241.162109" xlink:href="#DejaVuSans-104"/>
     </g>
    </g>
   </g>
   <g id="matplotlib.axis_4">
    <g id="ytick_5">
     <g id="line2d_23">
      <g>
       <use style="stroke:#000000;stroke-width:0.8;" x="47.72" xlink:href="#m01d6006fca" y="297.44271"/>
      </g>
     </g>
     <g id="text_23">
      <!-- 0.4 -->
      <g transform="translate(24.816875 301.241929)scale(0.1 -0.1)">
       <use xlink:href="#DejaVuSans-48"/>
       <use x="63.623047" xlink:href="#DejaVuSans-46"/>
       <use x="95.410156" xlink:href="#DejaVuSans-52"/>
      </g>
     </g>
    </g>
    <g id="ytick_6">
     <g id="line2d_24">
      <g>
       <use style="stroke:#000000;stroke-width:0.8;" x="47.72" xlink:href="#m01d6006fca" y="254.969781"/>
      </g>
     </g>
     <g id="text_24">
      <!-- 0.6 -->
      <g transform="translate(24.816875 258.769)scale(0.1 -0.1)">
       <use xlink:href="#DejaVuSans-48"/>
       <use x="63.623047" xlink:href="#DejaVuSans-46"/>
       <use x="95.410156" xlink:href="#DejaVuSans-54"/>
      </g>
     </g>
    </g>
    <g id="ytick_7">
     <g id="line2d_25">
      <g>
       <use style="stroke:#000000;stroke-width:0.8;" x="47.72" xlink:href="#m01d6006fca" y="212.496852"/>
      </g>
     </g>
     <g id="text_25">
      <!-- 0.8 -->
      <g transform="translate(24.816875 216.29607)scale(0.1 -0.1)">
       <use xlink:href="#DejaVuSans-48"/>
       <use x="63.623047" xlink:href="#DejaVuSans-46"/>
       <use x="95.410156" xlink:href="#DejaVuSans-56"/>
      </g>
     </g>
    </g>
    <g id="text_26">
     <!-- accuracy -->
     <defs>
      <path d="M 8.5 21.578125 
L 8.5 54.6875 
L 17.484375 54.6875 
L 17.484375 21.921875 
Q 17.484375 14.15625 20.5 10.265625 
Q 23.53125 6.390625 29.59375 6.390625 
Q 36.859375 6.390625 41.078125 11.03125 
Q 45.3125 15.671875 45.3125 23.6875 
L 45.3125 54.6875 
L 54.296875 54.6875 
L 54.296875 0 
L 45.3125 0 
L 45.3125 8.40625 
Q 42.046875 3.421875 37.71875 1 
Q 33.40625 -1.421875 27.6875 -1.421875 
Q 18.265625 -1.421875 13.375 4.4375 
Q 8.5 10.296875 8.5 21.578125 
z
M 31.109375 56 
z
" id="DejaVuSans-117"/>
      <path d="M 32.171875 -5.078125 
Q 28.375 -14.84375 24.75 -17.8125 
Q 21.140625 -20.796875 15.09375 -20.796875 
L 7.90625 -20.796875 
L 7.90625 -13.28125 
L 13.1875 -13.28125 
Q 16.890625 -13.28125 18.9375 -11.515625 
Q 21 -9.765625 23.484375 -3.21875 
L 25.09375 0.875 
L 2.984375 54.6875 
L 12.5 54.6875 
L 29.59375 11.921875 
L 46.6875 54.6875 
L 56.203125 54.6875 
z
" id="DejaVuSans-121"/>
     </defs>
     <g transform="translate(18.737188 270.799375)rotate(-90)scale(0.1 -0.1)">
      <use xlink:href="#DejaVuSans-97"/>
      <use x="61.279297" xlink:href="#DejaVuSans-99"/>
      <use x="116.259766" xlink:href="#DejaVuSans-99"/>
      <use x="171.240234" xlink:href="#DejaVuSans-117"/>
      <use x="234.619141" xlink:href="#DejaVuSans-114"/>
      <use x="275.732422" xlink:href="#DejaVuSans-97"/>
      <use x="337.011719" xlink:href="#DejaVuSans-99"/>
      <use x="391.992188" xlink:href="#DejaVuSans-121"/>
     </g>
    </g>
   </g>
   <g id="line2d_26">
    <path clip-path="url(#p7df083f7c3)" d="M 65.890909 298.603636 
L 66.254691 284.622964 
L 66.618473 283.74519 
L 66.982255 282.237401 
L 67.346037 280.120833 
L 68.437383 277.862689 
L 68.801165 279.271375 
L 69.164947 279.802286 
L 69.528729 278.556414 
L 69.892511 276.531871 
L 70.256293 278.393601 
L 70.620075 278.889118 
L 70.983857 277.473354 
L 71.347639 277.282226 
L 71.711421 277.232674 
L 72.075202 276.425689 
L 72.438984 272.971224 
L 73.166548 270.415769 
L 73.53033 268.122231 
L 73.894112 267.159511 
L 74.257894 264.320904 
L 74.621676 264.554505 
L 74.985458 262.112311 
L 75.34924 261.071725 
L 75.713022 260.731941 
L 76.076804 260.130241 
L 76.440586 259.29494 
L 76.804368 259.05426 
L 77.16815 256.406781 
L 77.531932 255.81216 
L 77.895714 256.335993 
L 78.259496 254.148637 
L 78.623278 254.155716 
L 79.350842 252.386011 
L 79.714624 252.0887 
L 80.078406 250.722488 
L 80.442188 250.58799 
L 81.533534 247.593648 
L 81.897315 247.664437 
L 82.261097 246.956554 
L 82.624879 246.638008 
L 82.988661 245.278874 
L 83.352443 244.578071 
L 84.080007 243.657824 
L 84.443789 242.971178 
L 84.807571 241.88104 
L 85.171353 241.385522 
L 85.535135 240.599773 
L 85.898917 240.444039 
L 86.262699 239.155693 
L 86.626481 238.426575 
L 86.990263 238.504442 
L 87.354045 237.039126 
L 89.172955 234.235912 
L 89.536737 232.841384 
L 89.900519 232.607783 
L 90.628083 231.765404 
L 91.355647 229.811649 
L 92.08321 228.282623 
L 92.446992 227.921604 
L 93.174556 225.755484 
L 93.538338 226.229765 
L 93.90212 225.075917 
L 94.265902 224.679503 
L 94.629684 223.879597 
L 94.993466 223.688468 
L 96.812376 221.494034 
L 97.176158 221.175487 
L 98.267504 219.830511 
L 98.631286 219.802195 
L 98.995068 219.370387 
L 99.35885 219.681855 
L 99.722632 219.05184 
L 100.813978 218.400589 
L 101.541542 217.395396 
L 101.905324 217.218426 
L 102.269105 217.43079 
L 102.996669 217.06977 
L 103.360451 216.758302 
L 103.724233 216.616726 
L 104.451797 215.760188 
L 104.815579 216.029184 
L 105.179361 215.717716 
L 105.543143 215.193883 
L 105.906925 215.229277 
L 106.270707 214.96736 
L 106.634489 214.514316 
L 106.998271 214.599262 
L 107.362053 215.016912 
L 107.725835 214.946124 
L 108.089617 214.486001 
L 108.453399 215.016912 
L 109.544745 213.863064 
L 109.908527 213.509123 
L 110.636091 213.969247 
L 110.999873 213.58699 
L 111.363655 213.686094 
L 111.727437 213.084394 
L 112.091218 213.34631 
L 112.455 212.723374 
L 112.818782 213.098552 
L 113.182564 212.751689 
L 113.910128 212.780005 
L 114.637692 212.369433 
L 115.001474 212.680901 
L 115.365256 212.418985 
L 115.729038 211.973019 
L 116.09282 212.362354 
L 116.456602 211.859758 
L 117.547948 211.449186 
L 117.91173 211.767733 
L 118.275512 211.456265 
L 118.639294 211.300531 
L 119.003076 211.739418 
L 119.366858 211.081088 
L 119.73064 211.300531 
L 120.094422 211.010299 
L 120.458204 211.045693 
L 120.821986 210.493545 
L 121.185768 210.953669 
L 121.54955 210.989063 
L 121.913332 210.783777 
L 122.277113 210.94659 
L 123.004677 210.394442 
L 123.368459 209.856451 
L 123.732241 210.054658 
L 124.096023 210.068816 
L 124.459805 209.799821 
L 124.823587 209.92724 
L 125.187369 209.665323 
L 125.551151 209.778584 
L 125.914933 210.097131 
L 126.278715 209.856451 
L 126.642497 209.8069 
L 127.006279 210.189156 
L 127.370061 209.74319 
L 127.733843 210.019264 
L 128.097625 209.120254 
L 128.461407 209.516668 
L 128.825189 209.467116 
L 129.188971 209.148569 
L 129.552753 209.099018 
L 129.916535 209.332619 
L 131.007881 208.96452 
L 131.735445 209.290146 
L 132.463008 208.815865 
L 132.82679 208.851259 
L 133.190572 208.461924 
L 133.554354 208.504397 
L 134.281918 209.127333 
L 134.6457 208.334505 
L 135.737046 208.504397 
L 136.100828 208.553948 
L 136.46461 208.008879 
L 136.828392 208.398214 
L 137.192174 207.789436 
L 137.555956 208.447766 
L 137.919738 208.320347 
L 138.28352 207.888539 
L 139.011084 207.980564 
L 139.374866 207.874382 
L 139.738648 207.980564 
L 140.10243 207.534598 
L 140.466212 207.952249 
L 140.829994 208.023037 
L 141.193776 207.817751 
L 141.557558 207.4001 
L 142.285121 207.619544 
L 142.648903 207.456731 
L 143.012685 207.534598 
L 143.376467 207.76112 
L 143.740249 207.654938 
L 144.104031 206.92582 
L 144.467813 207.109869 
L 144.831595 207.534598 
L 145.195377 206.989529 
L 145.559159 207.336391 
L 145.922941 207.032002 
L 147.014287 207.293918 
L 147.378069 206.571878 
L 147.741851 206.508169 
L 148.105633 206.996608 
L 148.469415 207.22313 
L 148.833197 207.010765 
L 149.196979 206.98245 
L 149.560761 206.798401 
L 150.288325 206.706376 
L 150.652107 206.883347 
L 151.015889 206.352435 
L 151.743453 206.74177 
L 152.107235 206.777164 
L 152.471016 206.267489 
L 152.834798 206.649746 
L 153.19858 205.941863 
L 153.562362 206.104676 
L 153.926144 205.9631 
L 154.289926 206.253331 
L 154.653708 205.77905 
L 155.01749 206.331199 
L 155.381272 205.89939 
L 155.745054 205.984336 
L 156.472618 206.366593 
L 156.8364 206.055124 
L 157.200182 206.317041 
L 157.563964 206.196701 
L 157.927746 205.920627 
L 159.019092 205.977257 
L 159.382874 205.637474 
L 159.746656 206.012652 
L 160.110438 205.559607 
L 160.838002 205.65871 
L 161.201784 205.814445 
L 161.565566 205.616238 
L 161.929348 205.941863 
L 162.293129 205.510055 
L 163.020693 205.764893 
L 163.384475 205.580843 
L 163.748257 205.24106 
L 164.112039 205.665789 
L 164.839603 205.368479 
L 165.203385 205.403873 
L 165.567167 205.318927 
L 165.930949 205.06409 
L 166.294731 205.446346 
L 166.658513 205.630395 
L 167.022295 205.078247 
L 167.386077 205.318927 
L 167.749859 205.743656 
L 168.113641 205.460504 
L 168.477423 205.021617 
L 169.204987 204.915434 
L 169.568769 204.596887 
L 169.932551 204.70307 
L 170.296333 204.94375 
L 170.660115 205.014538 
L 171.023897 204.851725 
L 171.387679 205.078247 
L 172.842806 204.688912 
L 173.206588 204.441153 
L 173.57037 204.547336 
L 173.934152 204.972065 
L 174.297934 205.12072 
L 174.661716 204.667676 
L 175.38928 204.972065 
L 175.753062 204.540257 
L 176.116844 204.802173 
L 176.480626 204.7597 
L 176.844408 204.526099 
L 177.571972 204.51902 
L 178.299536 204.646439 
L 179.0271 204.39868 
L 179.390882 204.596887 
L 179.754664 204.193395 
L 180.118446 204.044739 
L 180.482228 204.611045 
L 180.84601 204.646439 
L 181.209792 204.22171 
L 181.573574 204.065976 
L 181.937356 204.334971 
L 182.664919 204.504863 
L 183.392483 204.094291 
L 184.483829 204.356207 
L 184.847611 204.129685 
L 185.211393 204.39868 
L 185.575175 204.207552 
L 185.938957 203.683719 
L 186.302739 204.214631 
L 186.666521 204.10137 
L 187.030303 203.825296 
L 187.394085 204.108449 
L 187.757867 204.250025 
L 188.121649 203.768665 
L 188.485431 203.605852 
L 189.212995 203.796981 
L 189.576777 204.065976 
L 190.668123 203.818217 
L 191.031905 204.009345 
L 191.759469 203.591695 
L 192.487032 204.030582 
L 192.850814 203.931478 
L 193.214596 203.400567 
L 193.94216 203.74035 
L 195.76107 203.266069 
L 196.124852 203.62001 
L 196.488634 203.386409 
L 196.852416 203.98103 
L 197.216198 203.428882 
L 197.57998 203.549222 
L 197.943762 203.124493 
L 198.307544 203.351015 
L 198.671326 203.117414 
L 199.035108 203.039547 
L 200.126454 203.251911 
L 200.490236 202.848419 
L 201.2178 203.407645 
L 201.581582 203.166965 
L 201.945364 203.329778 
L 202.309146 202.954601 
L 202.672927 202.933364 
L 203.036709 203.174044 
L 203.400491 203.188202 
L 203.764273 203.011231 
L 204.128055 203.492591 
L 204.491837 202.706842 
L 205.219401 203.244833 
L 205.946965 202.968758 
L 206.310747 202.827182 
L 206.674529 202.912128 
L 207.038311 202.721 
L 207.765875 202.968758 
L 208.129657 203.506749 
L 208.493439 202.84134 
L 209.584785 202.735157 
L 209.948567 202.933364 
L 210.312349 202.636054 
L 210.676131 202.508635 
L 211.039913 202.883813 
L 211.403695 202.862576 
L 212.131259 202.367059 
L 212.858822 202.862576 
L 213.222604 202.805946 
L 213.586386 202.628975 
L 213.950168 202.919207 
L 214.31395 202.558187 
L 214.677732 202.749315 
L 215.405296 202.430768 
L 215.769078 202.855497 
L 216.13286 202.430768 
L 216.496642 202.494478 
L 216.860424 202.253798 
L 217.224206 202.763473 
L 217.587988 202.529872 
L 218.315552 202.614817 
L 218.679334 202.607739 
L 219.77068 202.197167 
L 220.134462 202.317507 
L 220.498244 202.579423 
L 220.862026 202.197167 
L 221.225808 203.089099 
L 221.58959 202.175931 
L 222.680935 202.317507 
L 223.044717 202.020196 
L 223.408499 202.190088 
L 223.772281 202.204246 
L 224.136063 202.098064 
L 224.863627 202.706842 
L 225.591191 201.829068 
L 225.954973 202.253798 
L 226.318755 201.737044 
L 226.682537 201.800753 
L 227.046319 202.098063 
L 227.410101 202.020197 
L 227.773883 202.246719 
L 228.501447 201.935251 
L 229.229011 202.034354 
L 229.592793 202.232561 
L 229.956575 202.034354 
L 230.320357 202.409532 
L 230.684139 202.260876 
L 231.047921 201.991881 
L 231.411703 201.984802 
L 231.775485 202.112221 
L 232.139267 202.027275 
L 232.503049 201.814911 
L 233.230612 202.112221 
L 233.594394 201.850305 
L 233.958176 202.112221 
L 234.321958 201.984802 
L 234.68574 202.23964 
L 235.049522 201.751201 
L 235.413304 201.935251 
L 236.140868 201.970645 
L 236.50465 201.892778 
L 236.868432 201.347709 
L 237.232214 201.446812 
L 237.595996 201.737044 
L 237.959778 201.715807 
L 238.32356 201.87862 
L 238.687342 201.814911 
L 239.051124 202.006039 
L 239.414906 201.496364 
L 239.778688 201.453891 
L 240.14247 201.892778 
L 240.870034 201.567152 
L 241.597598 201.729965 
L 241.96138 201.630861 
L 242.325162 201.899857 
L 242.688943 201.666255 
L 243.780289 201.737044 
L 244.144071 201.574231 
L 244.507853 201.708728 
L 244.871635 201.588388 
L 245.235417 201.206132 
L 245.599199 201.312314 
L 245.962981 201.560073 
L 246.326763 201.524679 
L 246.690545 201.326472 
L 247.781891 201.673334 
L 248.509455 201.184896 
L 248.873237 201.715807 
L 249.600801 201.107029 
L 249.964583 201.383103 
L 250.328365 201.418497 
L 250.692147 201.262763 
L 251.055929 201.659177 
L 251.419711 201.333551 
L 251.783493 201.418497 
L 252.147275 201.007925 
L 252.511057 201.446812 
L 252.874838 201.368945 
L 253.23862 201.03624 
L 253.602402 201.5176 
L 253.966184 201.085792 
L 254.329966 201.305236 
L 254.693748 201.128265 
L 255.05753 201.333551 
L 255.421312 201.114107 
L 256.148876 201.213211 
L 256.512658 201.071634 
L 256.87644 201.27692 
L 257.240222 201.616704 
L 257.604004 200.767245 
L 257.967786 201.291078 
L 258.331568 200.901743 
L 258.69535 201.092871 
L 259.422914 201.057477 
L 259.786696 201.291078 
L 260.150478 200.852191 
L 260.51426 201.404339 
L 260.878042 200.887585 
L 262.33317 201.128265 
L 262.696951 201.000846 
L 263.424515 201.191974 
L 263.788297 201.149502 
L 264.515861 200.781403 
L 264.879643 200.79556 
L 265.243425 200.930058 
L 265.607207 200.661063 
L 266.334771 201.03624 
L 266.698553 200.73893 
L 267.062335 200.873428 
L 267.426117 200.845112 
L 267.789899 201.163659 
L 268.153681 201.149502 
L 268.517463 200.569038 
L 269.245027 200.830955 
L 269.608809 200.930058 
L 269.972591 200.597353 
L 270.336373 201.15658 
L 270.700155 200.781403 
L 271.063937 200.97961 
L 271.427719 200.462856 
L 271.791501 200.724772 
L 272.155283 200.491171 
L 272.519065 201.234447 
L 272.882846 200.653984 
L 273.246628 200.79556 
L 273.61041 200.717693 
L 273.974192 200.115994 
L 274.701756 200.760166 
L 275.065538 200.625669 
L 275.42932 200.753088 
L 276.156884 200.646905 
L 276.520666 200.717693 
L 276.884448 200.632748 
L 277.24823 200.73893 
L 277.612012 201.007925 
L 277.975794 200.661063 
L 278.339576 200.533644 
L 278.703358 200.653984 
L 279.06714 200.625669 
L 279.430922 201.015004 
L 279.794704 200.632748 
L 280.158486 200.866349 
L 280.522268 200.724772 
L 280.88605 200.349595 
L 281.249832 200.399146 
L 281.977396 200.85927 
L 282.341178 200.554881 
L 282.70496 200.561959 
L 283.068741 200.845112 
L 284.160087 200.115994 
L 284.523869 200.661063 
L 284.887651 200.547802 
L 285.251433 200.576117 
L 285.615215 200.477014 
L 285.978997 200.519486 
L 286.342779 200.165545 
L 286.706561 200.434541 
L 287.434125 200.37791 
L 287.797907 200.526565 
L 288.161689 200.108915 
L 288.525471 200.413304 
L 288.889253 200.13723 
L 289.253035 200.569038 
L 289.616817 200.554881 
L 289.980599 200.123072 
L 290.344381 200.01689 
L 290.708163 200.491171 
L 291.071945 200.25757 
L 291.435727 200.491171 
L 291.799509 200.144309 
L 292.163291 200.533644 
L 292.890854 200.236334 
L 293.254636 199.967338 
L 293.618418 200.172624 
L 293.9822 200.540723 
L 294.345982 200.038127 
L 294.709764 200.604432 
L 295.073546 199.981496 
L 295.437328 200.0806 
L 295.80111 200.399146 
L 296.164892 199.89655 
L 296.528674 200.045205 
L 296.892456 200.710615 
L 297.256238 200.292964 
L 297.62002 200.222176 
L 297.983802 199.96026 
L 298.711366 200.236334 
L 299.075148 199.910708 
L 299.43893 199.875314 
L 299.802712 200.066442 
L 300.166494 199.811604 
L 300.530276 200.484092 
L 300.894058 199.96026 
L 302.349186 200.151388 
L 303.804313 200.292964 
L 304.168095 200.002733 
L 304.895659 200.101836 
L 305.259441 200.179703 
L 305.623223 199.83992 
L 305.987005 199.974417 
L 306.714569 199.854077 
L 307.078351 199.981496 
L 307.805915 199.797447 
L 308.169697 199.868235 
L 308.897261 200.406225 
L 309.261043 199.903629 
L 309.624825 200.045206 
L 310.352389 199.974417 
L 311.079953 199.797447 
L 311.443735 200.144309 
L 311.807517 199.634634 
L 312.171299 199.769131 
L 312.535081 200.023969 
L 312.898862 199.754974 
L 313.262644 200.179703 
L 313.626426 200.144309 
L 313.990208 199.854077 
L 314.35399 199.401033 
L 314.717772 200.101836 
L 315.081554 199.691264 
L 315.445336 199.974417 
L 315.809118 199.698343 
L 316.1729 199.677107 
L 316.536682 200.384989 
L 316.900464 199.846998 
L 317.264246 199.59924 
L 317.628028 199.521373 
L 318.355592 199.754974 
L 318.719374 200.073521 
L 319.083156 199.804525 
L 319.446938 199.740816 
L 319.81072 199.875314 
L 320.174502 199.754974 
L 320.538284 199.910708 
L 320.902066 199.677107 
L 321.265848 199.585082 
L 321.62963 199.861156 
L 321.993412 199.422269 
L 322.357194 199.854077 
L 323.084757 199.507215 
L 323.448539 199.485979 
L 323.812321 199.740816 
L 324.176103 199.379796 
L 324.539885 199.903629 
L 324.903667 199.797447 
L 325.267449 199.507215 
L 325.631231 199.939023 
L 325.995013 199.71958 
L 326.358795 199.641713 
L 326.722577 199.733737 
L 327.086359 199.514294 
L 328.541487 199.71958 
L 329.269051 199.245299 
L 329.996615 199.585082 
L 330.360397 199.670028 
L 331.087961 199.393954 
L 331.451743 199.542609 
L 332.179307 199.245299 
L 332.543089 199.712501 
L 332.906871 199.379796 
L 333.998216 199.500136 
L 334.361998 199.563846 
L 334.72578 199.422269 
L 335.089562 199.521373 
L 335.453344 199.259456 
L 335.817126 199.280693 
L 336.180908 200.01689 
L 337.272254 199.259456 
L 337.636036 199.563846 
L 337.999818 199.280693 
L 338.727382 199.528452 
L 339.091164 199.23822 
L 339.454946 199.153274 
L 339.818728 199.53553 
L 340.18251 199.521373 
L 340.546292 198.969225 
L 341.273856 199.783289 
L 342.00142 199.089565 
L 342.365202 199.273614 
L 342.728984 199.209905 
L 343.092765 199.457663 
L 343.456547 199.450584 
L 343.820329 199.259456 
L 344.184111 199.309008 
L 344.547893 198.926752 
L 344.911675 199.507215 
L 345.275457 199.110801 
L 345.639239 198.940909 
L 346.366803 199.351481 
L 346.730585 199.670028 
L 347.094367 199.068328 
L 347.458149 199.507215 
L 348.549495 199.493057 
L 348.913277 199.273614 
L 349.277059 199.408112 
L 349.640841 199.422269 
L 350.004623 198.785175 
L 350.368405 199.379796 
L 350.732187 199.443506 
L 351.095969 199.061249 
L 351.459751 199.429348 
L 351.823533 199.018776 
L 352.187315 199.167432 
L 352.551097 198.955067 
L 352.914879 199.160353 
L 353.27866 198.771018 
L 353.642442 199.4789 
L 354.006224 199.209904 
L 354.370006 199.29485 
L 354.733788 199.507215 
L 355.09757 199.181589 
L 355.825134 199.011698 
L 356.188916 199.365639 
L 356.552698 198.664835 
L 356.91648 199.372717 
L 357.280262 198.870121 
L 357.644044 199.301929 
L 358.007826 198.99754 
L 358.371608 199.139116 
L 358.73539 199.401033 
L 359.099172 199.082486 
L 359.462954 199.309008 
L 360.190518 199.160353 
L 360.5543 198.940909 
L 360.918082 199.061249 
L 361.281864 198.955067 
L 361.645646 199.386875 
L 362.009428 199.032934 
L 362.736992 198.99754 
L 363.100774 198.785175 
L 363.464555 199.17451 
L 364.192119 199.011698 
L 364.555901 199.188668 
L 364.919683 199.209905 
L 365.647247 198.976303 
L 366.011029 198.742702 
L 366.738593 199.273614 
L 367.102375 198.969225 
L 367.466157 198.905515 
L 367.829939 199.252377 
L 368.193721 199.181589 
L 368.921285 198.813491 
L 370.012631 199.047092 
L 370.376413 198.912594 
L 370.740195 199.139116 
L 371.103977 198.806412 
L 371.467759 198.8772 
L 372.195323 198.806412 
L 372.559105 199.082486 
L 372.922887 198.962146 
L 373.286668 198.721466 
L 373.65045 198.657756 
L 374.014232 198.728545 
L 374.378014 199.075407 
L 374.741796 198.678993 
L 375.105578 198.622362 
L 375.46936 198.678993 
L 375.833142 198.990461 
L 376.560706 199.146195 
L 376.924488 198.544495 
L 377.28827 198.480786 
L 377.652052 198.664835 
L 378.015834 199.195747 
L 378.379616 198.594047 
L 378.743398 198.983382 
L 379.10718 198.678993 
L 379.470962 198.976304 
L 379.834744 198.686072 
L 380.198526 198.558653 
L 380.562308 198.919673 
L 380.92609 198.884279 
L 381.289872 199.089565 
L 381.653654 198.643599 
L 382.017436 199.040013 
L 382.381218 198.891358 
L 383.836345 198.686072 
L 384.200127 198.99754 
L 384.563909 198.622362 
L 384.927691 198.509101 
L 385.291473 198.884279 
L 386.019037 198.565732 
L 386.382819 198.870121 
L 386.746601 198.75686 
L 387.110383 198.820569 
L 387.474165 199.040013 
L 387.837947 198.933831 
L 388.201729 198.51618 
L 388.565511 198.388761 
L 388.929293 199.061249 
L 389.293075 198.926752 
L 389.656857 198.551574 
L 390.748203 198.629441 
L 391.475767 198.785175 
L 391.839549 198.601126 
L 392.203331 198.678993 
L 392.567113 198.565732 
L 392.930895 198.643599 
L 393.294676 198.466628 
L 393.658458 198.898436 
L 394.02224 199.025855 
L 394.386022 198.494944 
L 394.749804 198.778097 
L 395.477368 198.693151 
L 395.84115 198.778096 
L 396.204932 198.502023 
L 396.568714 198.771018 
L 396.932496 198.417077 
L 397.296278 198.445392 
L 397.66006 198.622362 
L 398.751406 198.785175 
L 399.115188 198.33921 
L 399.47897 198.735623 
L 399.842752 198.558653 
L 400.206534 198.21887 
L 400.934098 198.848885 
L 401.29788 198.424155 
L 401.661662 198.615284 
L 402.025444 198.240106 
L 402.389226 198.714387 
L 403.11679 198.296737 
L 403.480571 198.594047 
L 403.844353 198.388761 
L 404.208135 198.693151 
L 404.571917 198.424155 
L 404.935699 198.707308 
L 405.299481 198.381683 
L 405.663263 198.417077 
L 406.027045 198.57989 
L 406.390827 198.402919 
L 406.754609 198.834727 
L 407.118391 198.15516 
L 407.482173 198.586968 
L 407.845955 198.268421 
L 408.209737 198.473707 
L 408.573519 198.33921 
L 408.937301 198.417077 
L 409.301083 198.254264 
L 410.392429 198.466628 
L 410.756211 198.112687 
L 411.119993 198.233027 
L 411.483775 198.169318 
L 411.847557 198.728545 
L 412.211339 198.346288 
L 412.575121 198.289658 
L 412.938903 198.820569 
L 413.302685 198.21887 
L 414.030248 198.261343 
L 414.39403 198.445392 
L 415.485376 198.225948 
L 415.849158 198.431234 
L 416.21294 198.176397 
L 416.576722 198.211791 
L 416.940504 198.63652 
L 417.304286 198.820569 
L 417.668068 198.233027 
L 418.03185 198.190554 
L 418.395632 198.509101 
L 419.123196 198.409998 
L 419.486978 198.261343 
L 420.214542 198.303816 
L 420.578324 197.949874 
L 420.942106 198.45955 
L 421.66967 198.084372 
L 422.033452 198.268421 
L 422.397234 198.162239 
L 423.124798 198.473707 
L 423.488579 198.39584 
L 423.852361 198.063136 
L 424.943707 198.310894 
L 425.307489 198.119766 
L 425.671271 198.360446 
L 426.035053 198.15516 
L 426.398835 198.282579 
L 427.126399 198.126845 
L 427.853963 198.509101 
L 428.217745 198.048978 
L 428.581527 198.225948 
L 428.945309 197.956953 
L 429.309091 198.084372 
L 429.309091 198.084372 
" style="fill:none;stroke:#0000ff;stroke-linecap:square;stroke-width:1.5;"/>
   </g>
   <g id="line2d_27">
    <path clip-path="url(#p7df083f7c3)" d="M 65.890909 285.991355 
L 66.254691 281.384675 
L 66.982255 277.872491 
L 67.346037 277.480433 
L 67.709819 278.003177 
L 68.073601 278.231877 
L 68.801165 278.8363 
L 69.164947 279.163014 
L 69.528729 279.326372 
L 69.892511 279.734765 
L 70.256293 279.71843 
L 70.620075 279.489729 
L 71.347639 278.509585 
L 73.53033 272.57971 
L 73.894112 270.848122 
L 74.621676 269.018518 
L 75.34924 268.087381 
L 75.713022 267.303266 
L 76.076804 265.816713 
L 76.804368 264.21581 
L 77.16815 262.974294 
L 77.895714 261.389727 
L 78.259496 260.523933 
L 78.623278 259.968517 
L 79.350842 258.008228 
L 80.078406 256.50534 
L 81.169752 253.434221 
L 81.533534 252.797127 
L 82.988661 249.072578 
L 83.716225 247.439003 
L 84.443789 246.295501 
L 85.535135 243.812469 
L 86.262699 242.19523 
L 88.445391 238.127631 
L 88.809173 237.0168 
L 89.172955 236.559399 
L 89.900519 234.468424 
L 90.991865 232.508135 
L 91.355647 231.936384 
L 92.08321 230.106781 
L 92.810774 228.669236 
L 94.993466 224.650644 
L 95.357248 224.274922 
L 95.72103 223.164091 
L 96.084812 223.115084 
L 96.448594 222.853712 
L 96.812376 221.873567 
L 97.53994 220.779073 
L 97.903722 220.158315 
L 98.267504 220.141979 
L 98.631286 219.619235 
L 99.35885 218.998477 
L 99.722632 219.047484 
L 100.086414 218.622755 
L 100.813978 218.132682 
L 101.905324 217.152538 
L 102.269105 217.005516 
L 102.996669 216.580787 
L 104.815579 215.567971 
L 105.179361 215.355606 
L 105.543143 215.437285 
L 106.270707 214.816527 
L 106.634489 215.012556 
L 106.998271 214.800191 
L 107.362053 214.751184 
L 107.725835 214.473476 
L 108.089617 214.34279 
L 108.453399 214.34279 
L 108.817181 214.11409 
L 109.180963 214.097754 
L 109.908527 213.754704 
L 110.636091 213.558675 
L 112.455 212.921581 
L 112.818782 212.856238 
L 113.182564 212.46418 
L 113.546346 212.594866 
L 114.637692 211.908765 
L 115.001474 212.137465 
L 115.365256 211.81075 
L 115.729038 211.876093 
L 116.09282 211.647393 
L 116.820384 211.565714 
L 117.184166 211.418693 
L 118.275512 211.337014 
L 119.003076 211.124649 
L 119.73064 210.993963 
L 120.458204 210.716256 
L 120.821986 210.650913 
L 121.185768 210.47122 
L 121.913332 210.405877 
L 122.277113 210.291527 
L 122.640895 210.307862 
L 123.004677 210.128169 
L 124.823587 209.883133 
L 125.187369 209.70344 
L 126.278715 209.621761 
L 126.642497 209.425732 
L 127.370061 209.393061 
L 127.733843 209.311382 
L 128.097625 209.360389 
L 128.825189 209.033675 
L 129.916535 208.984667 
L 130.644099 208.657952 
L 131.735445 208.510931 
L 132.463008 208.200552 
L 133.190572 208.200552 
L 133.918136 208.102537 
L 135.737046 207.93918 
L 136.46461 207.710479 
L 137.192174 207.645136 
L 137.555956 207.465443 
L 137.919738 207.579794 
L 138.647302 207.351093 
L 139.738648 207.089721 
L 140.466212 207.106057 
L 141.557558 206.844685 
L 143.012685 206.697664 
L 144.104031 206.566978 
L 144.467813 206.599649 
L 144.831595 206.468963 
L 145.559159 206.534306 
L 145.922941 206.370949 
L 146.286723 206.452627 
L 146.650505 206.305606 
L 148.105633 206.272934 
L 148.833197 206.17492 
L 149.924543 206.093241 
L 150.652107 205.929884 
L 152.471016 205.848205 
L 158.65531 205.031418 
L 159.382874 205.064089 
L 160.838002 204.933404 
L 161.565566 204.998746 
L 162.293129 204.949739 
L 163.020693 204.884396 
L 169.204987 204.394324 
L 169.568769 204.426996 
L 170.296333 204.263638 
L 171.023897 204.263638 
L 172.115243 204.100281 
L 172.842806 204.034938 
L 173.934152 203.969595 
L 174.661716 203.969595 
L 175.025498 203.887916 
L 175.38928 203.936923 
L 176.116844 203.855245 
L 177.935754 203.855245 
L 185.211393 203.52853 
L 185.575175 203.397844 
L 185.938957 203.463187 
L 186.302739 203.365172 
L 186.666521 203.479523 
L 188.121649 203.316165 
L 188.485431 203.365172 
L 188.849213 203.201815 
L 189.212995 203.316165 
L 189.576777 203.136472 
L 190.304341 203.267158 
L 191.031905 203.103801 
L 191.759469 203.201815 
L 192.850814 203.054793 
L 193.94216 202.98945 
L 194.305942 203.103801 
L 194.669724 203.005786 
L 195.397288 203.038458 
L 197.216198 202.940443 
L 198.671326 202.907772 
L 200.126454 202.924107 
L 200.490236 202.940443 
L 201.2178 202.826093 
L 201.581582 202.8751 
L 202.309146 202.809757 
L 203.036709 202.695407 
L 203.764273 202.826093 
L 204.491837 202.695407 
L 205.219401 202.777086 
L 205.583183 202.826093 
L 205.946965 202.695407 
L 206.674529 202.6464 
L 207.765875 202.597393 
L 210.312349 202.434035 
L 212.131259 202.466707 
L 212.858822 202.417699 
L 213.950168 202.434035 
L 214.31395 202.287014 
L 214.677732 202.417699 
L 215.405296 202.319685 
L 215.769078 202.221671 
L 216.13286 202.352357 
L 216.496642 202.352357 
L 217.224206 202.238006 
L 219.043116 202.254342 
L 219.406898 202.10732 
L 220.498244 202.10732 
L 222.680935 202.009306 
L 223.408499 202.041977 
L 224.136063 201.960299 
L 224.499845 201.87862 
L 225.227409 201.894956 
L 225.591191 201.76427 
L 225.954973 201.829613 
L 227.046319 201.780606 
L 228.865229 201.682591 
L 229.592793 201.747934 
L 229.956575 201.617248 
L 231.047921 201.682591 
L 231.411703 201.535569 
L 238.687342 201.453891 
L 239.414906 201.421219 
L 240.14247 201.404884 
L 240.506252 201.339541 
L 241.96138 201.437555 
L 242.688943 201.257862 
L 244.507853 201.241526 
L 244.871635 201.176183 
L 245.235417 201.22519 
L 245.962981 201.159847 
L 248.873237 201.127176 
L 249.237019 201.192519 
L 249.600801 201.078169 
L 249.964583 201.127176 
L 250.328365 201.061833 
L 250.692147 201.159848 
L 253.602402 200.99649 
L 255.421312 200.980154 
L 255.785094 201.029162 
L 256.148876 200.88214 
L 256.512658 201.029162 
L 257.967786 200.898476 
L 258.331568 200.980154 
L 258.69535 200.800461 
L 259.059132 200.963819 
L 259.786696 200.898476 
L 267.062335 200.571761 
L 267.426117 200.669775 
L 268.517463 200.555425 
L 269.608809 200.604432 
L 270.336373 200.555425 
L 273.246628 200.506418 
L 274.701756 200.490082 
L 275.42932 200.457411 
L 276.156884 200.506418 
L 276.884448 200.457411 
L 278.703358 200.408403 
L 279.06714 200.34306 
L 279.794704 200.490082 
L 280.158486 200.490082 
L 280.88605 200.294053 
L 281.249832 200.490082 
L 282.341178 200.261382 
L 282.70496 200.359396 
L 283.068741 200.277717 
L 283.796305 200.310389 
L 284.523869 200.163367 
L 284.887651 200.179703 
L 285.251433 200.326725 
L 285.978997 200.196039 
L 286.342779 200.081689 
L 286.706561 200.163367 
L 288.889253 200.016346 
L 289.616817 200.032681 
L 289.980599 199.967338 
L 290.708163 200.016346 
L 291.435727 199.934667 
L 293.618418 200.00001 
L 293.9822 199.918331 
L 294.709764 200.016346 
L 296.528674 199.951003 
L 297.62002 199.918331 
L 297.983802 199.787645 
L 298.711366 199.88566 
L 299.43893 199.88566 
L 301.25784 199.869324 
L 304.168095 199.77131 
L 307.078351 199.722302 
L 307.442133 199.77131 
L 308.169697 199.673295 
L 308.533479 199.77131 
L 310.352389 199.705967 
L 311.079953 199.705967 
L 311.807517 199.640624 
L 313.262644 199.705967 
L 313.990208 199.640624 
L 315.081554 199.640624 
L 316.900464 199.624288 
L 323.448539 199.526273 
L 323.812321 199.46093 
L 324.539885 199.493602 
L 325.267449 199.428259 
L 325.995013 199.477266 
L 327.450141 199.362916 
L 328.177705 199.379252 
L 328.541487 199.428259 
L 329.269051 199.281237 
L 329.996615 199.34658 
L 334.361998 199.23223 
L 335.453344 199.264902 
L 337.272254 199.150551 
L 337.636036 199.264902 
L 338.3636 199.150551 
L 340.910074 199.134216 
L 347.458149 199.068873 
L 348.185713 199.036201 
L 351.459751 198.938187 
L 352.187315 198.856508 
L 352.914879 198.856508 
L 354.733788 198.823837 
L 355.461352 198.921851 
L 357.644044 198.791165 
L 359.099172 198.807501 
L 360.190518 198.758494 
L 360.918082 198.742158 
L 362.009428 198.758494 
L 365.283465 198.660479 
L 366.374811 198.644143 
L 367.829939 198.693151 
L 368.193721 198.595136 
L 369.285067 198.595136 
L 376.560706 198.497122 
L 377.28827 198.448115 
L 379.834744 198.46445 
L 381.653654 198.448115 
L 382.017436 198.497122 
L 383.108782 198.399107 
L 385.291473 198.431779 
L 386.382819 198.366436 
L 387.110383 198.366436 
L 398.751406 198.284757 
L 399.47897 198.268421 
L 400.934098 198.252086 
L 404.571917 198.186743 
L 413.302685 198.105064 
L 413.666466 198.039721 
L 414.757812 198.154071 
L 415.485376 198.105064 
L 416.940504 198.039721 
L 417.668068 198.00705 
L 418.759414 197.974378 
L 420.942106 197.941707 
L 421.305888 198.039721 
L 421.66967 197.925371 
L 424.216143 197.958042 
L 425.671271 197.892699 
L 426.762617 197.941707 
L 428.581527 197.876364 
L 429.309091 197.892699 
L 429.309091 197.892699 
" style="fill:none;stroke:#ffa500;stroke-linecap:square;stroke-width:1.5;"/>
   </g>
   <g id="patch_9">
    <path d="M 47.72 303.64 
L 47.72 192.84 
" style="fill:none;stroke:#000000;stroke-linecap:square;stroke-linejoin:miter;stroke-width:0.8;"/>
   </g>
   <g id="patch_10">
    <path d="M 447.48 303.64 
L 447.48 192.84 
" style="fill:none;stroke:#000000;stroke-linecap:square;stroke-linejoin:miter;stroke-width:0.8;"/>
   </g>
   <g id="patch_11">
    <path d="M 47.72 303.64 
L 447.48 303.64 
" style="fill:none;stroke:#000000;stroke-linecap:square;stroke-linejoin:miter;stroke-width:0.8;"/>
   </g>
   <g id="patch_12">
    <path d="M 47.72 192.84 
L 447.48 192.84 
" style="fill:none;stroke:#000000;stroke-linecap:square;stroke-linejoin:miter;stroke-width:0.8;"/>
   </g>
   <g id="text_27">
    <!-- model accuracy -->
    <g transform="translate(199.938437 186.84)scale(0.12 -0.12)">
     <use xlink:href="#DejaVuSans-109"/>
     <use x="97.412109" xlink:href="#DejaVuSans-111"/>
     <use x="158.59375" xlink:href="#DejaVuSans-100"/>
     <use x="222.070312" xlink:href="#DejaVuSans-101"/>
     <use x="283.59375" xlink:href="#DejaVuSans-108"/>
     <use x="311.376953" xlink:href="#DejaVuSans-32"/>
     <use x="343.164062" xlink:href="#DejaVuSans-97"/>
     <use x="404.443359" xlink:href="#DejaVuSans-99"/>
     <use x="459.423828" xlink:href="#DejaVuSans-99"/>
     <use x="514.404297" xlink:href="#DejaVuSans-117"/>
     <use x="577.783203" xlink:href="#DejaVuSans-114"/>
     <use x="618.896484" xlink:href="#DejaVuSans-97"/>
     <use x="680.175781" xlink:href="#DejaVuSans-99"/>
     <use x="735.15625" xlink:href="#DejaVuSans-121"/>
    </g>
   </g>
   <g id="legend_2">
    <g id="patch_13">
     <path d="M 54.72 230.19625 
L 109.995 230.19625 
Q 111.995 230.19625 111.995 228.19625 
L 111.995 199.84 
Q 111.995 197.84 109.995 197.84 
L 54.72 197.84 
Q 52.72 197.84 52.72 199.84 
L 52.72 228.19625 
Q 52.72 230.19625 54.72 230.19625 
z
" style="fill:#ffffff;opacity:0.8;stroke:#cccccc;stroke-linejoin:miter;"/>
    </g>
    <g id="line2d_28">
     <path d="M 56.72 205.938437 
L 76.72 205.938437 
" style="fill:none;stroke:#0000ff;stroke-linecap:square;stroke-width:1.5;"/>
    </g>
    <g id="line2d_29"/>
    <g id="text_28">
     <!-- train -->
     <g transform="translate(84.72 209.438437)scale(0.1 -0.1)">
      <use xlink:href="#DejaVuSans-116"/>
      <use x="39.208984" xlink:href="#DejaVuSans-114"/>
      <use x="80.322266" xlink:href="#DejaVuSans-97"/>
      <use x="141.601562" xlink:href="#DejaVuSans-105"/>
      <use x="169.384766" xlink:href="#DejaVuSans-110"/>
     </g>
    </g>
    <g id="line2d_30">
     <path d="M 56.72 220.616562 
L 76.72 220.616562 
" style="fill:none;stroke:#ffa500;stroke-linecap:square;stroke-width:1.5;"/>
    </g>
    <g id="line2d_31"/>
    <g id="text_29">
     <!-- test -->
     <g transform="translate(84.72 224.116562)scale(0.1 -0.1)">
      <use xlink:href="#DejaVuSans-116"/>
      <use x="39.208984" xlink:href="#DejaVuSans-101"/>
      <use x="100.732422" xlink:href="#DejaVuSans-115"/>
      <use x="152.832031" xlink:href="#DejaVuSans-116"/>
     </g>
    </g>
   </g>
  </g>
 </g>
 <defs>
  <clipPath id="pe7d286d782">
   <rect height="110.8" width="399.76" x="47.72" y="25.44"/>
  </clipPath>
  <clipPath id="p7df083f7c3">
   <rect height="110.8" width="399.76" x="47.72" y="192.84"/>
  </clipPath>
 </defs>
</svg>
