<?xml version="1.0" encoding="utf-8" standalone="no"?>
<!DOCTYPE svg PUBLIC "-//W3C//DTD SVG 1.1//EN"
  "http://www.w3.org/Graphics/SVG/1.1/DTD/svg11.dtd">
<!-- Created with matplotlib (https://matplotlib.org/) -->
<svg height="345.6pt" version="1.1" viewBox="0 0 460.8 345.6" width="460.8pt" xmlns="http://www.w3.org/2000/svg" xmlns:xlink="http://www.w3.org/1999/xlink">
 <defs>
  <style type="text/css">
*{stroke-linecap:butt;stroke-linejoin:round;}
  </style>
 </defs>
 <g id="figure_1">
  <g id="patch_1">
   <path d="M 0 345.6 
L 460.8 345.6 
L 460.8 0 
L 0 0 
z
" style="fill:#ffffff;"/>
  </g>
  <g id="axes_1">
   <g id="patch_2">
    <path d="M 47.81 136.24 
L 447.48 136.24 
L 447.48 25.44 
L 47.81 25.44 
z
" style="fill:#ffffff;"/>
   </g>
   <g id="matplotlib.axis_1">
    <g id="xtick_1">
     <g id="line2d_1">
      <defs>
       <path d="M 0 0 
L 0 3.5 
" id="m39abf31ed6" style="stroke:#000000;stroke-width:0.8;"/>
      </defs>
      <g>
       <use style="stroke:#000000;stroke-width:0.8;" x="65.976818" xlink:href="#m39abf31ed6" y="136.24"/>
      </g>
     </g>
     <g id="text_1">
      <!-- 0 -->
      <defs>
       <path d="M 31.78125 66.40625 
Q 24.171875 66.40625 20.328125 58.90625 
Q 16.5 51.421875 16.5 36.375 
Q 16.5 21.390625 20.328125 13.890625 
Q 24.171875 6.390625 31.78125 6.390625 
Q 39.453125 6.390625 43.28125 13.890625 
Q 47.125 21.390625 47.125 36.375 
Q 47.125 51.421875 43.28125 58.90625 
Q 39.453125 66.40625 31.78125 66.40625 
z
M 31.78125 74.21875 
Q 44.046875 74.21875 50.515625 64.515625 
Q 56.984375 54.828125 56.984375 36.375 
Q 56.984375 17.96875 50.515625 8.265625 
Q 44.046875 -1.421875 31.78125 -1.421875 
Q 19.53125 -1.421875 13.0625 8.265625 
Q 6.59375 17.96875 6.59375 36.375 
Q 6.59375 54.828125 13.0625 64.515625 
Q 19.53125 74.21875 31.78125 74.21875 
z
" id="DejaVuSans-48"/>
      </defs>
      <g transform="translate(62.795568 150.838437)scale(0.1 -0.1)">
       <use xlink:href="#DejaVuSans-48"/>
      </g>
     </g>
    </g>
    <g id="xtick_2">
     <g id="line2d_2">
      <g>
       <use style="stroke:#000000;stroke-width:0.8;" x="114.7468" xlink:href="#m39abf31ed6" y="136.24"/>
      </g>
     </g>
     <g id="text_2">
      <!-- 20 -->
      <defs>
       <path d="M 19.1875 8.296875 
L 53.609375 8.296875 
L 53.609375 0 
L 7.328125 0 
L 7.328125 8.296875 
Q 12.9375 14.109375 22.625 23.890625 
Q 32.328125 33.6875 34.8125 36.53125 
Q 39.546875 41.84375 41.421875 45.53125 
Q 43.3125 49.21875 43.3125 52.78125 
Q 43.3125 58.59375 39.234375 62.25 
Q 35.15625 65.921875 28.609375 65.921875 
Q 23.96875 65.921875 18.8125 64.3125 
Q 13.671875 62.703125 7.8125 59.421875 
L 7.8125 69.390625 
Q 13.765625 71.78125 18.9375 73 
Q 24.125 74.21875 28.421875 74.21875 
Q 39.75 74.21875 46.484375 68.546875 
Q 53.21875 62.890625 53.21875 53.421875 
Q 53.21875 48.921875 51.53125 44.890625 
Q 49.859375 40.875 45.40625 35.40625 
Q 44.1875 33.984375 37.640625 27.21875 
Q 31.109375 20.453125 19.1875 8.296875 
z
" id="DejaVuSans-50"/>
      </defs>
      <g transform="translate(108.3843 150.838437)scale(0.1 -0.1)">
       <use xlink:href="#DejaVuSans-50"/>
       <use x="63.623047" xlink:href="#DejaVuSans-48"/>
      </g>
     </g>
    </g>
    <g id="xtick_3">
     <g id="line2d_3">
      <g>
       <use style="stroke:#000000;stroke-width:0.8;" x="163.516782" xlink:href="#m39abf31ed6" y="136.24"/>
      </g>
     </g>
     <g id="text_3">
      <!-- 40 -->
      <defs>
       <path d="M 37.796875 64.3125 
L 12.890625 25.390625 
L 37.796875 25.390625 
z
M 35.203125 72.90625 
L 47.609375 72.90625 
L 47.609375 25.390625 
L 58.015625 25.390625 
L 58.015625 17.1875 
L 47.609375 17.1875 
L 47.609375 0 
L 37.796875 0 
L 37.796875 17.1875 
L 4.890625 17.1875 
L 4.890625 26.703125 
z
" id="DejaVuSans-52"/>
      </defs>
      <g transform="translate(157.154282 150.838437)scale(0.1 -0.1)">
       <use xlink:href="#DejaVuSans-52"/>
       <use x="63.623047" xlink:href="#DejaVuSans-48"/>
      </g>
     </g>
    </g>
    <g id="xtick_4">
     <g id="line2d_4">
      <g>
       <use style="stroke:#000000;stroke-width:0.8;" x="212.286763" xlink:href="#m39abf31ed6" y="136.24"/>
      </g>
     </g>
     <g id="text_4">
      <!-- 60 -->
      <defs>
       <path d="M 33.015625 40.375 
Q 26.375 40.375 22.484375 35.828125 
Q 18.609375 31.296875 18.609375 23.390625 
Q 18.609375 15.53125 22.484375 10.953125 
Q 26.375 6.390625 33.015625 6.390625 
Q 39.65625 6.390625 43.53125 10.953125 
Q 47.40625 15.53125 47.40625 23.390625 
Q 47.40625 31.296875 43.53125 35.828125 
Q 39.65625 40.375 33.015625 40.375 
z
M 52.59375 71.296875 
L 52.59375 62.3125 
Q 48.875 64.0625 45.09375 64.984375 
Q 41.3125 65.921875 37.59375 65.921875 
Q 27.828125 65.921875 22.671875 59.328125 
Q 17.53125 52.734375 16.796875 39.40625 
Q 19.671875 43.65625 24.015625 45.921875 
Q 28.375 48.1875 33.59375 48.1875 
Q 44.578125 48.1875 50.953125 41.515625 
Q 57.328125 34.859375 57.328125 23.390625 
Q 57.328125 12.15625 50.6875 5.359375 
Q 44.046875 -1.421875 33.015625 -1.421875 
Q 20.359375 -1.421875 13.671875 8.265625 
Q 6.984375 17.96875 6.984375 36.375 
Q 6.984375 53.65625 15.1875 63.9375 
Q 23.390625 74.21875 37.203125 74.21875 
Q 40.921875 74.21875 44.703125 73.484375 
Q 48.484375 72.75 52.59375 71.296875 
z
" id="DejaVuSans-54"/>
      </defs>
      <g transform="translate(205.924263 150.838437)scale(0.1 -0.1)">
       <use xlink:href="#DejaVuSans-54"/>
       <use x="63.623047" xlink:href="#DejaVuSans-48"/>
      </g>
     </g>
    </g>
    <g id="xtick_5">
     <g id="line2d_5">
      <g>
       <use style="stroke:#000000;stroke-width:0.8;" x="261.056745" xlink:href="#m39abf31ed6" y="136.24"/>
      </g>
     </g>
     <g id="text_5">
      <!-- 80 -->
      <defs>
       <path d="M 31.78125 34.625 
Q 24.75 34.625 20.71875 30.859375 
Q 16.703125 27.09375 16.703125 20.515625 
Q 16.703125 13.921875 20.71875 10.15625 
Q 24.75 6.390625 31.78125 6.390625 
Q 38.8125 6.390625 42.859375 10.171875 
Q 46.921875 13.96875 46.921875 20.515625 
Q 46.921875 27.09375 42.890625 30.859375 
Q 38.875 34.625 31.78125 34.625 
z
M 21.921875 38.8125 
Q 15.578125 40.375 12.03125 44.71875 
Q 8.5 49.078125 8.5 55.328125 
Q 8.5 64.0625 14.71875 69.140625 
Q 20.953125 74.21875 31.78125 74.21875 
Q 42.671875 74.21875 48.875 69.140625 
Q 55.078125 64.0625 55.078125 55.328125 
Q 55.078125 49.078125 51.53125 44.71875 
Q 48 40.375 41.703125 38.8125 
Q 48.828125 37.15625 52.796875 32.3125 
Q 56.78125 27.484375 56.78125 20.515625 
Q 56.78125 9.90625 50.3125 4.234375 
Q 43.84375 -1.421875 31.78125 -1.421875 
Q 19.734375 -1.421875 13.25 4.234375 
Q 6.78125 9.90625 6.78125 20.515625 
Q 6.78125 27.484375 10.78125 32.3125 
Q 14.796875 37.15625 21.921875 38.8125 
z
M 18.3125 54.390625 
Q 18.3125 48.734375 21.84375 45.5625 
Q 25.390625 42.390625 31.78125 42.390625 
Q 38.140625 42.390625 41.71875 45.5625 
Q 45.3125 48.734375 45.3125 54.390625 
Q 45.3125 60.0625 41.71875 63.234375 
Q 38.140625 66.40625 31.78125 66.40625 
Q 25.390625 66.40625 21.84375 63.234375 
Q 18.3125 60.0625 18.3125 54.390625 
z
" id="DejaVuSans-56"/>
      </defs>
      <g transform="translate(254.694245 150.838437)scale(0.1 -0.1)">
       <use xlink:href="#DejaVuSans-56"/>
       <use x="63.623047" xlink:href="#DejaVuSans-48"/>
      </g>
     </g>
    </g>
    <g id="xtick_6">
     <g id="line2d_6">
      <g>
       <use style="stroke:#000000;stroke-width:0.8;" x="309.826727" xlink:href="#m39abf31ed6" y="136.24"/>
      </g>
     </g>
     <g id="text_6">
      <!-- 100 -->
      <defs>
       <path d="M 12.40625 8.296875 
L 28.515625 8.296875 
L 28.515625 63.921875 
L 10.984375 60.40625 
L 10.984375 69.390625 
L 28.421875 72.90625 
L 38.28125 72.90625 
L 38.28125 8.296875 
L 54.390625 8.296875 
L 54.390625 0 
L 12.40625 0 
z
" id="DejaVuSans-49"/>
      </defs>
      <g transform="translate(300.282977 150.838437)scale(0.1 -0.1)">
       <use xlink:href="#DejaVuSans-49"/>
       <use x="63.623047" xlink:href="#DejaVuSans-48"/>
       <use x="127.246094" xlink:href="#DejaVuSans-48"/>
      </g>
     </g>
    </g>
    <g id="xtick_7">
     <g id="line2d_7">
      <g>
       <use style="stroke:#000000;stroke-width:0.8;" x="358.596708" xlink:href="#m39abf31ed6" y="136.24"/>
      </g>
     </g>
     <g id="text_7">
      <!-- 120 -->
      <g transform="translate(349.052958 150.838437)scale(0.1 -0.1)">
       <use xlink:href="#DejaVuSans-49"/>
       <use x="63.623047" xlink:href="#DejaVuSans-50"/>
       <use x="127.246094" xlink:href="#DejaVuSans-48"/>
      </g>
     </g>
    </g>
    <g id="xtick_8">
     <g id="line2d_8">
      <g>
       <use style="stroke:#000000;stroke-width:0.8;" x="407.36669" xlink:href="#m39abf31ed6" y="136.24"/>
      </g>
     </g>
     <g id="text_8">
      <!-- 140 -->
      <g transform="translate(397.82294 150.838437)scale(0.1 -0.1)">
       <use xlink:href="#DejaVuSans-49"/>
       <use x="63.623047" xlink:href="#DejaVuSans-52"/>
       <use x="127.246094" xlink:href="#DejaVuSans-48"/>
      </g>
     </g>
    </g>
    <g id="text_9">
     <!-- epoch -->
     <defs>
      <path d="M 56.203125 29.59375 
L 56.203125 25.203125 
L 14.890625 25.203125 
Q 15.484375 15.921875 20.484375 11.0625 
Q 25.484375 6.203125 34.421875 6.203125 
Q 39.59375 6.203125 44.453125 7.46875 
Q 49.3125 8.734375 54.109375 11.28125 
L 54.109375 2.78125 
Q 49.265625 0.734375 44.1875 -0.34375 
Q 39.109375 -1.421875 33.890625 -1.421875 
Q 20.796875 -1.421875 13.15625 6.1875 
Q 5.515625 13.8125 5.515625 26.8125 
Q 5.515625 40.234375 12.765625 48.109375 
Q 20.015625 56 32.328125 56 
Q 43.359375 56 49.78125 48.890625 
Q 56.203125 41.796875 56.203125 29.59375 
z
M 47.21875 32.234375 
Q 47.125 39.59375 43.09375 43.984375 
Q 39.0625 48.390625 32.421875 48.390625 
Q 24.90625 48.390625 20.390625 44.140625 
Q 15.875 39.890625 15.1875 32.171875 
z
" id="DejaVuSans-101"/>
      <path d="M 18.109375 8.203125 
L 18.109375 -20.796875 
L 9.078125 -20.796875 
L 9.078125 54.6875 
L 18.109375 54.6875 
L 18.109375 46.390625 
Q 20.953125 51.265625 25.265625 53.625 
Q 29.59375 56 35.59375 56 
Q 45.5625 56 51.78125 48.09375 
Q 58.015625 40.1875 58.015625 27.296875 
Q 58.015625 14.40625 51.78125 6.484375 
Q 45.5625 -1.421875 35.59375 -1.421875 
Q 29.59375 -1.421875 25.265625 0.953125 
Q 20.953125 3.328125 18.109375 8.203125 
z
M 48.6875 27.296875 
Q 48.6875 37.203125 44.609375 42.84375 
Q 40.53125 48.484375 33.40625 48.484375 
Q 26.265625 48.484375 22.1875 42.84375 
Q 18.109375 37.203125 18.109375 27.296875 
Q 18.109375 17.390625 22.1875 11.75 
Q 26.265625 6.109375 33.40625 6.109375 
Q 40.53125 6.109375 44.609375 11.75 
Q 48.6875 17.390625 48.6875 27.296875 
z
" id="DejaVuSans-112"/>
      <path d="M 30.609375 48.390625 
Q 23.390625 48.390625 19.1875 42.75 
Q 14.984375 37.109375 14.984375 27.296875 
Q 14.984375 17.484375 19.15625 11.84375 
Q 23.34375 6.203125 30.609375 6.203125 
Q 37.796875 6.203125 41.984375 11.859375 
Q 46.1875 17.53125 46.1875 27.296875 
Q 46.1875 37.015625 41.984375 42.703125 
Q 37.796875 48.390625 30.609375 48.390625 
z
M 30.609375 56 
Q 42.328125 56 49.015625 48.375 
Q 55.71875 40.765625 55.71875 27.296875 
Q 55.71875 13.875 49.015625 6.21875 
Q 42.328125 -1.421875 30.609375 -1.421875 
Q 18.84375 -1.421875 12.171875 6.21875 
Q 5.515625 13.875 5.515625 27.296875 
Q 5.515625 40.765625 12.171875 48.375 
Q 18.84375 56 30.609375 56 
z
" id="DejaVuSans-111"/>
      <path d="M 48.78125 52.59375 
L 48.78125 44.1875 
Q 44.96875 46.296875 41.140625 47.34375 
Q 37.3125 48.390625 33.40625 48.390625 
Q 24.65625 48.390625 19.8125 42.84375 
Q 14.984375 37.3125 14.984375 27.296875 
Q 14.984375 17.28125 19.8125 11.734375 
Q 24.65625 6.203125 33.40625 6.203125 
Q 37.3125 6.203125 41.140625 7.25 
Q 44.96875 8.296875 48.78125 10.40625 
L 48.78125 2.09375 
Q 45.015625 0.34375 40.984375 -0.53125 
Q 36.96875 -1.421875 32.421875 -1.421875 
Q 20.0625 -1.421875 12.78125 6.34375 
Q 5.515625 14.109375 5.515625 27.296875 
Q 5.515625 40.671875 12.859375 48.328125 
Q 20.21875 56 33.015625 56 
Q 37.15625 56 41.109375 55.140625 
Q 45.0625 54.296875 48.78125 52.59375 
z
" id="DejaVuSans-99"/>
      <path d="M 54.890625 33.015625 
L 54.890625 0 
L 45.90625 0 
L 45.90625 32.71875 
Q 45.90625 40.484375 42.875 44.328125 
Q 39.84375 48.1875 33.796875 48.1875 
Q 26.515625 48.1875 22.3125 43.546875 
Q 18.109375 38.921875 18.109375 30.90625 
L 18.109375 0 
L 9.078125 0 
L 9.078125 75.984375 
L 18.109375 75.984375 
L 18.109375 46.1875 
Q 21.34375 51.125 25.703125 53.5625 
Q 30.078125 56 35.796875 56 
Q 45.21875 56 50.046875 50.171875 
Q 54.890625 44.34375 54.890625 33.015625 
z
" id="DejaVuSans-104"/>
     </defs>
     <g transform="translate(232.416875 164.516562)scale(0.1 -0.1)">
      <use xlink:href="#DejaVuSans-101"/>
      <use x="61.523438" xlink:href="#DejaVuSans-112"/>
      <use x="125" xlink:href="#DejaVuSans-111"/>
      <use x="186.181641" xlink:href="#DejaVuSans-99"/>
      <use x="241.162109" xlink:href="#DejaVuSans-104"/>
     </g>
    </g>
   </g>
   <g id="matplotlib.axis_2">
    <g id="ytick_1">
     <g id="line2d_9">
      <defs>
       <path d="M 0 0 
L -3.5 0 
" id="m5fbac6179c" style="stroke:#000000;stroke-width:0.8;"/>
      </defs>
      <g>
       <use style="stroke:#000000;stroke-width:0.8;" x="47.81" xlink:href="#m5fbac6179c" y="136.123006"/>
      </g>
     </g>
     <g id="text_10">
      <!-- 0.50 -->
      <defs>
       <path d="M 10.6875 12.40625 
L 21 12.40625 
L 21 0 
L 10.6875 0 
z
" id="DejaVuSans-46"/>
       <path d="M 10.796875 72.90625 
L 49.515625 72.90625 
L 49.515625 64.59375 
L 19.828125 64.59375 
L 19.828125 46.734375 
Q 21.96875 47.46875 24.109375 47.828125 
Q 26.265625 48.1875 28.421875 48.1875 
Q 40.625 48.1875 47.75 41.5 
Q 54.890625 34.8125 54.890625 23.390625 
Q 54.890625 11.625 47.5625 5.09375 
Q 40.234375 -1.421875 26.90625 -1.421875 
Q 22.3125 -1.421875 17.546875 -0.640625 
Q 12.796875 0.140625 7.71875 1.703125 
L 7.71875 11.625 
Q 12.109375 9.234375 16.796875 8.0625 
Q 21.484375 6.890625 26.703125 6.890625 
Q 35.15625 6.890625 40.078125 11.328125 
Q 45.015625 15.765625 45.015625 23.390625 
Q 45.015625 31 40.078125 35.4375 
Q 35.15625 39.890625 26.703125 39.890625 
Q 22.75 39.890625 18.8125 39.015625 
Q 14.890625 38.140625 10.796875 36.28125 
z
" id="DejaVuSans-53"/>
      </defs>
      <g transform="translate(18.544375 139.922225)scale(0.1 -0.1)">
       <use xlink:href="#DejaVuSans-48"/>
       <use x="63.623047" xlink:href="#DejaVuSans-46"/>
       <use x="95.410156" xlink:href="#DejaVuSans-53"/>
       <use x="159.033203" xlink:href="#DejaVuSans-48"/>
      </g>
     </g>
    </g>
    <g id="ytick_2">
     <g id="line2d_10">
      <g>
       <use style="stroke:#000000;stroke-width:0.8;" x="47.81" xlink:href="#m5fbac6179c" y="111.990813"/>
      </g>
     </g>
     <g id="text_11">
      <!-- 0.75 -->
      <defs>
       <path d="M 8.203125 72.90625 
L 55.078125 72.90625 
L 55.078125 68.703125 
L 28.609375 0 
L 18.3125 0 
L 43.21875 64.59375 
L 8.203125 64.59375 
z
" id="DejaVuSans-55"/>
      </defs>
      <g transform="translate(18.544375 115.790032)scale(0.1 -0.1)">
       <use xlink:href="#DejaVuSans-48"/>
       <use x="63.623047" xlink:href="#DejaVuSans-46"/>
       <use x="95.410156" xlink:href="#DejaVuSans-55"/>
       <use x="159.033203" xlink:href="#DejaVuSans-53"/>
      </g>
     </g>
    </g>
    <g id="ytick_3">
     <g id="line2d_11">
      <g>
       <use style="stroke:#000000;stroke-width:0.8;" x="47.81" xlink:href="#m5fbac6179c" y="87.85862"/>
      </g>
     </g>
     <g id="text_12">
      <!-- 1.00 -->
      <g transform="translate(18.544375 91.657839)scale(0.1 -0.1)">
       <use xlink:href="#DejaVuSans-49"/>
       <use x="63.623047" xlink:href="#DejaVuSans-46"/>
       <use x="95.410156" xlink:href="#DejaVuSans-48"/>
       <use x="159.033203" xlink:href="#DejaVuSans-48"/>
      </g>
     </g>
    </g>
    <g id="ytick_4">
     <g id="line2d_12">
      <g>
       <use style="stroke:#000000;stroke-width:0.8;" x="47.81" xlink:href="#m5fbac6179c" y="63.726427"/>
      </g>
     </g>
     <g id="text_13">
      <!-- 1.25 -->
      <g transform="translate(18.544375 67.525646)scale(0.1 -0.1)">
       <use xlink:href="#DejaVuSans-49"/>
       <use x="63.623047" xlink:href="#DejaVuSans-46"/>
       <use x="95.410156" xlink:href="#DejaVuSans-50"/>
       <use x="159.033203" xlink:href="#DejaVuSans-53"/>
      </g>
     </g>
    </g>
    <g id="ytick_5">
     <g id="line2d_13">
      <g>
       <use style="stroke:#000000;stroke-width:0.8;" x="47.81" xlink:href="#m5fbac6179c" y="39.594234"/>
      </g>
     </g>
     <g id="text_14">
      <!-- 1.50 -->
      <g transform="translate(18.544375 43.393453)scale(0.1 -0.1)">
       <use xlink:href="#DejaVuSans-49"/>
       <use x="63.623047" xlink:href="#DejaVuSans-46"/>
       <use x="95.410156" xlink:href="#DejaVuSans-53"/>
       <use x="159.033203" xlink:href="#DejaVuSans-48"/>
      </g>
     </g>
    </g>
    <g id="text_15">
     <!-- loss -->
     <defs>
      <path d="M 9.421875 75.984375 
L 18.40625 75.984375 
L 18.40625 0 
L 9.421875 0 
z
" id="DejaVuSans-108"/>
      <path d="M 44.28125 53.078125 
L 44.28125 44.578125 
Q 40.484375 46.53125 36.375 47.5 
Q 32.28125 48.484375 27.875 48.484375 
Q 21.1875 48.484375 17.84375 46.4375 
Q 14.5 44.390625 14.5 40.28125 
Q 14.5 37.15625 16.890625 35.375 
Q 19.28125 33.59375 26.515625 31.984375 
L 29.59375 31.296875 
Q 39.15625 29.25 43.1875 25.515625 
Q 47.21875 21.78125 47.21875 15.09375 
Q 47.21875 7.46875 41.1875 3.015625 
Q 35.15625 -1.421875 24.609375 -1.421875 
Q 20.21875 -1.421875 15.453125 -0.5625 
Q 10.6875 0.296875 5.421875 2 
L 5.421875 11.28125 
Q 10.40625 8.6875 15.234375 7.390625 
Q 20.0625 6.109375 24.8125 6.109375 
Q 31.15625 6.109375 34.5625 8.28125 
Q 37.984375 10.453125 37.984375 14.40625 
Q 37.984375 18.0625 35.515625 20.015625 
Q 33.0625 21.96875 24.703125 23.78125 
L 21.578125 24.515625 
Q 13.234375 26.265625 9.515625 29.90625 
Q 5.8125 33.546875 5.8125 39.890625 
Q 5.8125 47.609375 11.28125 51.796875 
Q 16.75 56 26.8125 56 
Q 31.78125 56 36.171875 55.265625 
Q 40.578125 54.546875 44.28125 53.078125 
z
" id="DejaVuSans-115"/>
     </defs>
     <g transform="translate(12.464688 90.497812)rotate(-90)scale(0.1 -0.1)">
      <use xlink:href="#DejaVuSans-108"/>
      <use x="27.783203" xlink:href="#DejaVuSans-111"/>
      <use x="88.964844" xlink:href="#DejaVuSans-115"/>
      <use x="141.064453" xlink:href="#DejaVuSans-115"/>
     </g>
    </g>
   </g>
   <g id="line2d_14">
    <path clip-path="url(#pb8b685723d)" d="M 65.976818 30.476364 
L 68.415317 58.247571 
L 70.853816 66.4587 
L 73.292315 71.755987 
L 75.730815 75.562261 
L 80.607813 81.567863 
L 85.484811 86.124725 
L 90.361809 89.676229 
L 95.238807 92.844952 
L 97.677306 94.193252 
L 104.992804 97.507338 
L 107.431303 98.472364 
L 109.869802 99.614287 
L 114.7468 101.281309 
L 117.185299 101.946844 
L 119.623798 102.990553 
L 126.939295 104.859935 
L 129.377794 105.680908 
L 131.816293 106.002427 
L 134.254793 106.63374 
L 136.693292 107.466655 
L 139.131791 107.803748 
L 141.57029 108.654312 
L 144.008789 108.871703 
L 151.324286 110.683451 
L 153.762785 110.8149 
L 156.201284 111.542123 
L 158.639783 111.969436 
L 161.078282 112.19716 
L 163.516782 112.770328 
L 165.955281 113.069736 
L 168.39378 113.588549 
L 170.832279 113.673303 
L 178.147776 114.969791 
L 183.024774 115.836782 
L 187.901772 116.441374 
L 190.340272 116.817816 
L 192.778771 116.906603 
L 197.655769 117.726027 
L 209.848264 118.906264 
L 212.286763 119.359816 
L 214.725262 119.45032 
L 217.163761 119.712275 
L 219.602261 119.767858 
L 222.04076 120.303319 
L 224.479259 120.583712 
L 226.917758 120.685487 
L 229.356257 120.900746 
L 231.794756 120.921892 
L 236.671754 121.678232 
L 239.110253 121.659298 
L 241.548752 122.001387 
L 253.741248 122.981976 
L 256.179747 123.233776 
L 258.618246 123.281856 
L 261.056745 123.516217 
L 263.495244 123.310535 
L 265.933743 123.801303 
L 268.372242 123.81763 
L 270.810741 124.20177 
L 273.24924 124.339214 
L 275.687739 124.609182 
L 278.126239 124.45415 
L 283.003237 124.906191 
L 285.441736 124.880193 
L 290.318734 125.413673 
L 292.757233 125.392802 
L 295.195732 125.710003 
L 297.634231 125.850655 
L 300.07273 126.140366 
L 302.511229 125.93138 
L 307.388228 126.466784 
L 309.826727 126.565638 
L 312.265226 126.850904 
L 314.703725 126.958523 
L 317.142224 126.759808 
L 324.457721 127.36753 
L 331.773218 127.267359 
L 334.211718 127.69955 
L 339.088716 127.805768 
L 346.404213 128.247744 
L 348.842712 128.484313 
L 351.281211 128.383596 
L 353.71971 128.69777 
L 356.158209 128.470777 
L 358.596708 128.712934 
L 361.035207 128.644279 
L 363.473707 128.946849 
L 365.912206 128.876465 
L 368.350705 129.362633 
L 370.789204 128.995024 
L 373.227703 129.450179 
L 375.666202 129.285643 
L 378.104701 129.646981 
L 380.5432 129.671692 
L 382.981699 129.57497 
L 385.420198 129.77627 
L 387.858697 129.781414 
L 392.735696 130.037282 
L 395.174195 130.051205 
L 400.051193 130.323483 
L 402.489692 130.395299 
L 404.928191 130.325505 
L 407.36669 130.4451 
L 412.243688 130.494882 
L 414.682187 130.562532 
L 417.120686 131.012867 
L 421.997685 131.203636 
L 424.436184 131.024871 
L 426.874683 131.189344 
L 429.313182 131.154356 
L 429.313182 131.154356 
" style="fill:none;stroke:#0000ff;stroke-linecap:square;stroke-width:1.5;"/>
   </g>
   <g id="line2d_15">
    <path clip-path="url(#pb8b685723d)" d="M 65.976818 51.972504 
L 68.415317 63.326351 
L 70.853816 69.082882 
L 73.292315 73.506122 
L 75.730815 75.367354 
L 78.169314 78.381578 
L 80.607813 79.215855 
L 83.046312 82.446323 
L 87.92331 84.562773 
L 90.361809 86.847606 
L 92.800308 87.43537 
L 95.238807 89.333954 
L 97.677306 89.661194 
L 100.115805 90.845222 
L 102.554304 90.330346 
L 104.992804 92.701885 
L 107.431303 92.350167 
L 109.869802 93.619715 
L 112.308301 93.425639 
L 114.7468 94.994831 
L 117.185299 94.870094 
L 119.623798 94.631575 
L 122.062297 94.889228 
L 124.500796 96.836691 
L 126.939295 96.864149 
L 129.377794 97.926724 
L 131.816293 97.8453 
L 134.254793 98.10026 
L 136.693292 98.968539 
L 139.131791 99.141293 
L 141.57029 98.53449 
L 144.008789 99.367108 
L 146.447288 100.065154 
L 148.885787 100.286827 
L 151.324286 99.587355 
L 153.762785 101.087201 
L 156.201284 100.705826 
L 158.639783 100.952288 
L 163.516782 100.765417 
L 165.955281 100.360315 
L 168.39378 101.55591 
L 170.832279 101.45021 
L 173.270778 102.17959 
L 175.709277 100.081348 
L 178.147776 101.553422 
L 180.586275 102.613735 
L 183.024774 100.905741 
L 185.463273 102.45975 
L 187.901772 102.881943 
L 190.340272 101.389193 
L 192.778771 103.144437 
L 195.21727 102.411865 
L 200.094268 102.6424 
L 202.532767 103.545201 
L 204.971266 103.62362 
L 207.409765 103.263448 
L 209.848264 103.905976 
L 212.286763 103.858056 
L 214.725262 104.142836 
L 217.163761 103.267064 
L 219.602261 103.571298 
L 222.04076 103.347322 
L 224.479259 104.170859 
L 226.917758 103.944972 
L 229.356257 104.622482 
L 231.794756 104.605034 
L 234.233255 104.448239 
L 236.671754 104.556956 
L 239.110253 103.838456 
L 241.548752 102.9686 
L 243.987251 103.615958 
L 246.42575 104.530213 
L 248.86425 104.737421 
L 251.302749 105.500541 
L 253.741248 102.963178 
L 256.179747 103.870365 
L 258.618246 105.359465 
L 263.495244 103.881874 
L 268.372242 103.86558 
L 270.810741 103.392034 
L 273.24924 104.835223 
L 275.687739 104.116478 
L 278.126239 103.764104 
L 280.564738 104.735566 
L 283.003237 103.192647 
L 285.441736 104.479999 
L 287.880235 104.301768 
L 290.318734 102.548137 
L 292.757233 104.244702 
L 295.195732 103.359977 
L 297.634231 105.323262 
L 300.07273 105.011963 
L 302.511229 104.958417 
L 304.949728 105.508228 
L 307.388228 103.694197 
L 309.826727 104.39864 
L 312.265226 104.450786 
L 314.703725 103.194378 
L 317.142224 104.192101 
L 319.580723 104.575805 
L 322.019222 103.97965 
L 324.457721 104.753341 
L 326.89622 103.652108 
L 329.334719 104.552593 
L 331.773218 104.623083 
L 334.211718 103.531613 
L 336.650217 103.503358 
L 339.088716 104.440664 
L 341.527215 102.724406 
L 343.965714 104.945469 
L 346.404213 103.256921 
L 348.842712 103.919656 
L 351.281211 104.882259 
L 353.71971 104.055804 
L 356.158209 104.595675 
L 358.596708 103.495434 
L 365.912206 104.383631 
L 368.350705 103.555214 
L 370.789204 104.477322 
L 373.227703 103.73323 
L 375.666202 105.057885 
L 378.104701 104.275553 
L 380.5432 103.334195 
L 382.981699 104.250827 
L 385.420198 103.242338 
L 387.858697 104.413137 
L 390.297196 104.287426 
L 392.735696 104.669053 
L 395.174195 103.327715 
L 397.612694 104.256763 
L 400.051193 103.256158 
L 402.489692 103.511367 
L 404.928191 103.252326 
L 407.36669 104.755413 
L 409.805189 104.227196 
L 412.243688 103.919692 
L 417.120686 104.099007 
L 419.559185 103.445182 
L 421.997685 103.430199 
L 424.436184 103.855805 
L 426.874683 103.836912 
L 429.313182 102.756241 
L 429.313182 102.756241 
" style="fill:none;stroke:#ffa500;stroke-linecap:square;stroke-width:1.5;"/>
   </g>
   <g id="patch_3">
    <path d="M 47.81 136.24 
L 47.81 25.44 
" style="fill:none;stroke:#000000;stroke-linecap:square;stroke-linejoin:miter;stroke-width:0.8;"/>
   </g>
   <g id="patch_4">
    <path d="M 447.48 136.24 
L 447.48 25.44 
" style="fill:none;stroke:#000000;stroke-linecap:square;stroke-linejoin:miter;stroke-width:0.8;"/>
   </g>
   <g id="patch_5">
    <path d="M 47.81 136.24 
L 447.48 136.24 
" style="fill:none;stroke:#000000;stroke-linecap:square;stroke-linejoin:miter;stroke-width:0.8;"/>
   </g>
   <g id="patch_6">
    <path d="M 47.81 25.44 
L 447.48 25.44 
" style="fill:none;stroke:#000000;stroke-linecap:square;stroke-linejoin:miter;stroke-width:0.8;"/>
   </g>
   <g id="text_16">
    <!-- model loss -->
    <defs>
     <path d="M 52 44.1875 
Q 55.375 50.25 60.0625 53.125 
Q 64.75 56 71.09375 56 
Q 79.640625 56 84.28125 50.015625 
Q 88.921875 44.046875 88.921875 33.015625 
L 88.921875 0 
L 79.890625 0 
L 79.890625 32.71875 
Q 79.890625 40.578125 77.09375 44.375 
Q 74.3125 48.1875 68.609375 48.1875 
Q 61.625 48.1875 57.5625 43.546875 
Q 53.515625 38.921875 53.515625 30.90625 
L 53.515625 0 
L 44.484375 0 
L 44.484375 32.71875 
Q 44.484375 40.625 41.703125 44.40625 
Q 38.921875 48.1875 33.109375 48.1875 
Q 26.21875 48.1875 22.15625 43.53125 
Q 18.109375 38.875 18.109375 30.90625 
L 18.109375 0 
L 9.078125 0 
L 9.078125 54.6875 
L 18.109375 54.6875 
L 18.109375 46.1875 
Q 21.1875 51.21875 25.484375 53.609375 
Q 29.78125 56 35.6875 56 
Q 41.65625 56 45.828125 52.96875 
Q 50 49.953125 52 44.1875 
z
" id="DejaVuSans-109"/>
     <path d="M 45.40625 46.390625 
L 45.40625 75.984375 
L 54.390625 75.984375 
L 54.390625 0 
L 45.40625 0 
L 45.40625 8.203125 
Q 42.578125 3.328125 38.25 0.953125 
Q 33.9375 -1.421875 27.875 -1.421875 
Q 17.96875 -1.421875 11.734375 6.484375 
Q 5.515625 14.40625 5.515625 27.296875 
Q 5.515625 40.1875 11.734375 48.09375 
Q 17.96875 56 27.875 56 
Q 33.9375 56 38.25 53.625 
Q 42.578125 51.265625 45.40625 46.390625 
z
M 14.796875 27.296875 
Q 14.796875 17.390625 18.875 11.75 
Q 22.953125 6.109375 30.078125 6.109375 
Q 37.203125 6.109375 41.296875 11.75 
Q 45.40625 17.390625 45.40625 27.296875 
Q 45.40625 37.203125 41.296875 42.84375 
Q 37.203125 48.484375 30.078125 48.484375 
Q 22.953125 48.484375 18.875 42.84375 
Q 14.796875 37.203125 14.796875 27.296875 
z
" id="DejaVuSans-100"/>
     <path id="DejaVuSans-32"/>
    </defs>
    <g transform="translate(215.465313 19.44)scale(0.12 -0.12)">
     <use xlink:href="#DejaVuSans-109"/>
     <use x="97.412109" xlink:href="#DejaVuSans-111"/>
     <use x="158.59375" xlink:href="#DejaVuSans-100"/>
     <use x="222.070312" xlink:href="#DejaVuSans-101"/>
     <use x="283.59375" xlink:href="#DejaVuSans-108"/>
     <use x="311.376953" xlink:href="#DejaVuSans-32"/>
     <use x="343.164062" xlink:href="#DejaVuSans-108"/>
     <use x="370.947266" xlink:href="#DejaVuSans-111"/>
     <use x="432.128906" xlink:href="#DejaVuSans-115"/>
     <use x="484.228516" xlink:href="#DejaVuSans-115"/>
    </g>
   </g>
   <g id="legend_1">
    <g id="patch_7">
     <path d="M 54.81 62.79625 
L 110.085 62.79625 
Q 112.085 62.79625 112.085 60.79625 
L 112.085 32.44 
Q 112.085 30.44 110.085 30.44 
L 54.81 30.44 
Q 52.81 30.44 52.81 32.44 
L 52.81 60.79625 
Q 52.81 62.79625 54.81 62.79625 
z
" style="fill:#ffffff;opacity:0.8;stroke:#cccccc;stroke-linejoin:miter;"/>
    </g>
    <g id="line2d_16">
     <path d="M 56.81 38.538437 
L 76.81 38.538437 
" style="fill:none;stroke:#0000ff;stroke-linecap:square;stroke-width:1.5;"/>
    </g>
    <g id="line2d_17"/>
    <g id="text_17">
     <!-- train -->
     <defs>
      <path d="M 18.3125 70.21875 
L 18.3125 54.6875 
L 36.8125 54.6875 
L 36.8125 47.703125 
L 18.3125 47.703125 
L 18.3125 18.015625 
Q 18.3125 11.328125 20.140625 9.421875 
Q 21.96875 7.515625 27.59375 7.515625 
L 36.8125 7.515625 
L 36.8125 0 
L 27.59375 0 
Q 17.1875 0 13.234375 3.875 
Q 9.28125 7.765625 9.28125 18.015625 
L 9.28125 47.703125 
L 2.6875 47.703125 
L 2.6875 54.6875 
L 9.28125 54.6875 
L 9.28125 70.21875 
z
" id="DejaVuSans-116"/>
      <path d="M 41.109375 46.296875 
Q 39.59375 47.171875 37.8125 47.578125 
Q 36.03125 48 33.890625 48 
Q 26.265625 48 22.1875 43.046875 
Q 18.109375 38.09375 18.109375 28.8125 
L 18.109375 0 
L 9.078125 0 
L 9.078125 54.6875 
L 18.109375 54.6875 
L 18.109375 46.1875 
Q 20.953125 51.171875 25.484375 53.578125 
Q 30.03125 56 36.53125 56 
Q 37.453125 56 38.578125 55.875 
Q 39.703125 55.765625 41.0625 55.515625 
z
" id="DejaVuSans-114"/>
      <path d="M 34.28125 27.484375 
Q 23.390625 27.484375 19.1875 25 
Q 14.984375 22.515625 14.984375 16.5 
Q 14.984375 11.71875 18.140625 8.90625 
Q 21.296875 6.109375 26.703125 6.109375 
Q 34.1875 6.109375 38.703125 11.40625 
Q 43.21875 16.703125 43.21875 25.484375 
L 43.21875 27.484375 
z
M 52.203125 31.203125 
L 52.203125 0 
L 43.21875 0 
L 43.21875 8.296875 
Q 40.140625 3.328125 35.546875 0.953125 
Q 30.953125 -1.421875 24.3125 -1.421875 
Q 15.921875 -1.421875 10.953125 3.296875 
Q 6 8.015625 6 15.921875 
Q 6 25.140625 12.171875 29.828125 
Q 18.359375 34.515625 30.609375 34.515625 
L 43.21875 34.515625 
L 43.21875 35.40625 
Q 43.21875 41.609375 39.140625 45 
Q 35.0625 48.390625 27.6875 48.390625 
Q 23 48.390625 18.546875 47.265625 
Q 14.109375 46.140625 10.015625 43.890625 
L 10.015625 52.203125 
Q 14.9375 54.109375 19.578125 55.046875 
Q 24.21875 56 28.609375 56 
Q 40.484375 56 46.34375 49.84375 
Q 52.203125 43.703125 52.203125 31.203125 
z
" id="DejaVuSans-97"/>
      <path d="M 9.421875 54.6875 
L 18.40625 54.6875 
L 18.40625 0 
L 9.421875 0 
z
M 9.421875 75.984375 
L 18.40625 75.984375 
L 18.40625 64.59375 
L 9.421875 64.59375 
z
" id="DejaVuSans-105"/>
      <path d="M 54.890625 33.015625 
L 54.890625 0 
L 45.90625 0 
L 45.90625 32.71875 
Q 45.90625 40.484375 42.875 44.328125 
Q 39.84375 48.1875 33.796875 48.1875 
Q 26.515625 48.1875 22.3125 43.546875 
Q 18.109375 38.921875 18.109375 30.90625 
L 18.109375 0 
L 9.078125 0 
L 9.078125 54.6875 
L 18.109375 54.6875 
L 18.109375 46.1875 
Q 21.34375 51.125 25.703125 53.5625 
Q 30.078125 56 35.796875 56 
Q 45.21875 56 50.046875 50.171875 
Q 54.890625 44.34375 54.890625 33.015625 
z
" id="DejaVuSans-110"/>
     </defs>
     <g transform="translate(84.81 42.038437)scale(0.1 -0.1)">
      <use xlink:href="#DejaVuSans-116"/>
      <use x="39.208984" xlink:href="#DejaVuSans-114"/>
      <use x="80.322266" xlink:href="#DejaVuSans-97"/>
      <use x="141.601562" xlink:href="#DejaVuSans-105"/>
      <use x="169.384766" xlink:href="#DejaVuSans-110"/>
     </g>
    </g>
    <g id="line2d_18">
     <path d="M 56.81 53.216563 
L 76.81 53.216563 
" style="fill:none;stroke:#ffa500;stroke-linecap:square;stroke-width:1.5;"/>
    </g>
    <g id="line2d_19"/>
    <g id="text_18">
     <!-- test -->
     <g transform="translate(84.81 56.716563)scale(0.1 -0.1)">
      <use xlink:href="#DejaVuSans-116"/>
      <use x="39.208984" xlink:href="#DejaVuSans-101"/>
      <use x="100.732422" xlink:href="#DejaVuSans-115"/>
      <use x="152.832031" xlink:href="#DejaVuSans-116"/>
     </g>
    </g>
   </g>
  </g>
  <g id="axes_2">
   <g id="patch_8">
    <path d="M 47.81 303.64 
L 447.48 303.64 
L 447.48 192.84 
L 47.81 192.84 
z
" style="fill:#ffffff;"/>
   </g>
   <g id="matplotlib.axis_3">
    <g id="xtick_9">
     <g id="line2d_20">
      <g>
       <use style="stroke:#000000;stroke-width:0.8;" x="65.976818" xlink:href="#m39abf31ed6" y="303.64"/>
      </g>
     </g>
     <g id="text_19">
      <!-- 0 -->
      <g transform="translate(62.795568 318.238437)scale(0.1 -0.1)">
       <use xlink:href="#DejaVuSans-48"/>
      </g>
     </g>
    </g>
    <g id="xtick_10">
     <g id="line2d_21">
      <g>
       <use style="stroke:#000000;stroke-width:0.8;" x="114.7468" xlink:href="#m39abf31ed6" y="303.64"/>
      </g>
     </g>
     <g id="text_20">
      <!-- 20 -->
      <g transform="translate(108.3843 318.238437)scale(0.1 -0.1)">
       <use xlink:href="#DejaVuSans-50"/>
       <use x="63.623047" xlink:href="#DejaVuSans-48"/>
      </g>
     </g>
    </g>
    <g id="xtick_11">
     <g id="line2d_22">
      <g>
       <use style="stroke:#000000;stroke-width:0.8;" x="163.516782" xlink:href="#m39abf31ed6" y="303.64"/>
      </g>
     </g>
     <g id="text_21">
      <!-- 40 -->
      <g transform="translate(157.154282 318.238437)scale(0.1 -0.1)">
       <use xlink:href="#DejaVuSans-52"/>
       <use x="63.623047" xlink:href="#DejaVuSans-48"/>
      </g>
     </g>
    </g>
    <g id="xtick_12">
     <g id="line2d_23">
      <g>
       <use style="stroke:#000000;stroke-width:0.8;" x="212.286763" xlink:href="#m39abf31ed6" y="303.64"/>
      </g>
     </g>
     <g id="text_22">
      <!-- 60 -->
      <g transform="translate(205.924263 318.238437)scale(0.1 -0.1)">
       <use xlink:href="#DejaVuSans-54"/>
       <use x="63.623047" xlink:href="#DejaVuSans-48"/>
      </g>
     </g>
    </g>
    <g id="xtick_13">
     <g id="line2d_24">
      <g>
       <use style="stroke:#000000;stroke-width:0.8;" x="261.056745" xlink:href="#m39abf31ed6" y="303.64"/>
      </g>
     </g>
     <g id="text_23">
      <!-- 80 -->
      <g transform="translate(254.694245 318.238437)scale(0.1 -0.1)">
       <use xlink:href="#DejaVuSans-56"/>
       <use x="63.623047" xlink:href="#DejaVuSans-48"/>
      </g>
     </g>
    </g>
    <g id="xtick_14">
     <g id="line2d_25">
      <g>
       <use style="stroke:#000000;stroke-width:0.8;" x="309.826727" xlink:href="#m39abf31ed6" y="303.64"/>
      </g>
     </g>
     <g id="text_24">
      <!-- 100 -->
      <g transform="translate(300.282977 318.238437)scale(0.1 -0.1)">
       <use xlink:href="#DejaVuSans-49"/>
       <use x="63.623047" xlink:href="#DejaVuSans-48"/>
       <use x="127.246094" xlink:href="#DejaVuSans-48"/>
      </g>
     </g>
    </g>
    <g id="xtick_15">
     <g id="line2d_26">
      <g>
       <use style="stroke:#000000;stroke-width:0.8;" x="358.596708" xlink:href="#m39abf31ed6" y="303.64"/>
      </g>
     </g>
     <g id="text_25">
      <!-- 120 -->
      <g transform="translate(349.052958 318.238437)scale(0.1 -0.1)">
       <use xlink:href="#DejaVuSans-49"/>
       <use x="63.623047" xlink:href="#DejaVuSans-50"/>
       <use x="127.246094" xlink:href="#DejaVuSans-48"/>
      </g>
     </g>
    </g>
    <g id="xtick_16">
     <g id="line2d_27">
      <g>
       <use style="stroke:#000000;stroke-width:0.8;" x="407.36669" xlink:href="#m39abf31ed6" y="303.64"/>
      </g>
     </g>
     <g id="text_26">
      <!-- 140 -->
      <g transform="translate(397.82294 318.238437)scale(0.1 -0.1)">
       <use xlink:href="#DejaVuSans-49"/>
       <use x="63.623047" xlink:href="#DejaVuSans-52"/>
       <use x="127.246094" xlink:href="#DejaVuSans-48"/>
      </g>
     </g>
    </g>
    <g id="text_27">
     <!-- epoch -->
     <g transform="translate(232.416875 331.916562)scale(0.1 -0.1)">
      <use xlink:href="#DejaVuSans-101"/>
      <use x="61.523438" xlink:href="#DejaVuSans-112"/>
      <use x="125" xlink:href="#DejaVuSans-111"/>
      <use x="186.181641" xlink:href="#DejaVuSans-99"/>
      <use x="241.162109" xlink:href="#DejaVuSans-104"/>
     </g>
    </g>
   </g>
   <g id="matplotlib.axis_4">
    <g id="ytick_6">
     <g id="line2d_28">
      <g>
       <use style="stroke:#000000;stroke-width:0.8;" x="47.81" xlink:href="#m5fbac6179c" y="296.004522"/>
      </g>
     </g>
     <g id="text_28">
      <!-- 0.4 -->
      <g transform="translate(24.906875 299.80374)scale(0.1 -0.1)">
       <use xlink:href="#DejaVuSans-48"/>
       <use x="63.623047" xlink:href="#DejaVuSans-46"/>
       <use x="95.410156" xlink:href="#DejaVuSans-52"/>
      </g>
     </g>
    </g>
    <g id="ytick_7">
     <g id="line2d_29">
      <g>
       <use style="stroke:#000000;stroke-width:0.8;" x="47.81" xlink:href="#m5fbac6179c" y="273.189039"/>
      </g>
     </g>
     <g id="text_29">
      <!-- 0.5 -->
      <g transform="translate(24.906875 276.988257)scale(0.1 -0.1)">
       <use xlink:href="#DejaVuSans-48"/>
       <use x="63.623047" xlink:href="#DejaVuSans-46"/>
       <use x="95.410156" xlink:href="#DejaVuSans-53"/>
      </g>
     </g>
    </g>
    <g id="ytick_8">
     <g id="line2d_30">
      <g>
       <use style="stroke:#000000;stroke-width:0.8;" x="47.81" xlink:href="#m5fbac6179c" y="250.373556"/>
      </g>
     </g>
     <g id="text_30">
      <!-- 0.6 -->
      <g transform="translate(24.906875 254.172774)scale(0.1 -0.1)">
       <use xlink:href="#DejaVuSans-48"/>
       <use x="63.623047" xlink:href="#DejaVuSans-46"/>
       <use x="95.410156" xlink:href="#DejaVuSans-54"/>
      </g>
     </g>
    </g>
    <g id="ytick_9">
     <g id="line2d_31">
      <g>
       <use style="stroke:#000000;stroke-width:0.8;" x="47.81" xlink:href="#m5fbac6179c" y="227.558073"/>
      </g>
     </g>
     <g id="text_31">
      <!-- 0.7 -->
      <g transform="translate(24.906875 231.357291)scale(0.1 -0.1)">
       <use xlink:href="#DejaVuSans-48"/>
       <use x="63.623047" xlink:href="#DejaVuSans-46"/>
       <use x="95.410156" xlink:href="#DejaVuSans-55"/>
      </g>
     </g>
    </g>
    <g id="ytick_10">
     <g id="line2d_32">
      <g>
       <use style="stroke:#000000;stroke-width:0.8;" x="47.81" xlink:href="#m5fbac6179c" y="204.74259"/>
      </g>
     </g>
     <g id="text_32">
      <!-- 0.8 -->
      <g transform="translate(24.906875 208.541808)scale(0.1 -0.1)">
       <use xlink:href="#DejaVuSans-48"/>
       <use x="63.623047" xlink:href="#DejaVuSans-46"/>
       <use x="95.410156" xlink:href="#DejaVuSans-56"/>
      </g>
     </g>
    </g>
    <g id="text_33">
     <!-- accuracy -->
     <defs>
      <path d="M 8.5 21.578125 
L 8.5 54.6875 
L 17.484375 54.6875 
L 17.484375 21.921875 
Q 17.484375 14.15625 20.5 10.265625 
Q 23.53125 6.390625 29.59375 6.390625 
Q 36.859375 6.390625 41.078125 11.03125 
Q 45.3125 15.671875 45.3125 23.6875 
L 45.3125 54.6875 
L 54.296875 54.6875 
L 54.296875 0 
L 45.3125 0 
L 45.3125 8.40625 
Q 42.046875 3.421875 37.71875 1 
Q 33.40625 -1.421875 27.6875 -1.421875 
Q 18.265625 -1.421875 13.375 4.4375 
Q 8.5 10.296875 8.5 21.578125 
z
M 31.109375 56 
z
" id="DejaVuSans-117"/>
      <path d="M 32.171875 -5.078125 
Q 28.375 -14.84375 24.75 -17.8125 
Q 21.140625 -20.796875 15.09375 -20.796875 
L 7.90625 -20.796875 
L 7.90625 -13.28125 
L 13.1875 -13.28125 
Q 16.890625 -13.28125 18.9375 -11.515625 
Q 21 -9.765625 23.484375 -3.21875 
L 25.09375 0.875 
L 2.984375 54.6875 
L 12.5 54.6875 
L 29.59375 11.921875 
L 46.6875 54.6875 
L 56.203125 54.6875 
z
" id="DejaVuSans-121"/>
     </defs>
     <g transform="translate(18.827187 270.799375)rotate(-90)scale(0.1 -0.1)">
      <use xlink:href="#DejaVuSans-97"/>
      <use x="61.279297" xlink:href="#DejaVuSans-99"/>
      <use x="116.259766" xlink:href="#DejaVuSans-99"/>
      <use x="171.240234" xlink:href="#DejaVuSans-117"/>
      <use x="234.619141" xlink:href="#DejaVuSans-114"/>
      <use x="275.732422" xlink:href="#DejaVuSans-97"/>
      <use x="337.011719" xlink:href="#DejaVuSans-99"/>
      <use x="391.992188" xlink:href="#DejaVuSans-121"/>
     </g>
    </g>
   </g>
   <g id="line2d_33">
    <path clip-path="url(#pbf1744d646)" d="M 65.976818 298.603636 
L 68.415317 272.134593 
L 70.853816 264.608567 
L 73.292315 258.059907 
L 75.730815 253.863708 
L 78.169314 250.09607 
L 80.607813 246.692246 
L 83.046312 244.330536 
L 85.484811 241.512515 
L 87.92331 239.456039 
L 92.800308 236.039883 
L 95.238807 234.738783 
L 97.677306 233.221862 
L 100.115805 232.155084 
L 102.554304 230.949563 
L 104.992804 229.552886 
L 107.431303 229.09966 
L 109.869802 228.042131 
L 114.7468 226.334053 
L 117.185299 225.902409 
L 122.062297 224.299159 
L 126.939295 222.92098 
L 129.377794 222.224183 
L 131.816293 221.672295 
L 134.254793 221.548968 
L 136.693292 220.426693 
L 139.131791 219.862472 
L 144.008789 219.07318 
L 146.447288 218.3548 
L 148.885787 217.981737 
L 151.324286 217.358936 
L 153.762785 217.099949 
L 158.639783 216.014672 
L 161.078282 215.838931 
L 163.516782 215.172966 
L 165.955281 214.648826 
L 168.39378 214.315843 
L 170.832279 214.605662 
L 173.270778 213.757789 
L 183.024774 212.179204 
L 185.463273 212.06821 
L 190.340272 211.24192 
L 192.778771 211.439243 
L 197.655769 210.264554 
L 200.094268 210.381714 
L 204.971266 209.962403 
L 207.409765 209.601672 
L 209.848264 209.429014 
L 212.286763 208.880209 
L 214.725262 208.951122 
L 217.163761 208.633555 
L 219.602261 208.827795 
L 222.04076 207.961423 
L 224.479259 207.720936 
L 231.794756 207.656189 
L 236.671754 206.663407 
L 239.110253 206.897729 
L 241.548752 206.555496 
L 243.987251 205.957361 
L 246.42575 206.336591 
L 248.86425 205.985109 
L 251.302749 205.960444 
L 253.741248 205.464053 
L 256.179747 205.510301 
L 258.618246 205.423972 
L 261.056745 204.93683 
L 263.495244 205.174235 
L 265.933743 204.690177 
L 268.372242 204.970745 
L 270.810741 204.369526 
L 273.24924 204.23695 
L 275.687739 203.903967 
L 278.126239 204.203035 
L 280.564738 204.021128 
L 283.003237 203.98413 
L 290.318734 203.404493 
L 292.757233 203.472323 
L 295.195732 202.883437 
L 297.634231 202.932768 
L 300.07273 202.44871 
L 302.511229 202.966683 
L 304.949728 202.89577 
L 307.388228 202.325383 
L 309.826727 202.417878 
L 312.265226 201.853657 
L 314.703725 202.192806 
L 319.580723 202.131143 
L 322.019222 201.727247 
L 326.89622 201.804326 
L 329.334719 201.634752 
L 331.773218 201.600837 
L 336.650217 201.227773 
L 339.088716 201.335684 
L 341.527215 201.0212 
L 343.965714 200.910206 
L 346.404213 201.008868 
L 348.842712 200.453896 
L 351.281211 200.743715 
L 353.71971 200.45698 
L 356.158209 200.324403 
L 358.596708 200.053084 
L 361.035207 200.638887 
L 363.473707 200.173328 
L 365.912206 200.370651 
L 368.350705 199.658438 
L 370.789204 200.275072 
L 373.227703 199.723184 
L 375.666202 199.945173 
L 378.104701 199.285374 
L 380.5432 199.763266 
L 382.981699 199.754016 
L 385.420198 199.458032 
L 387.858697 199.414867 
L 390.297196 199.202128 
L 395.174195 198.998639 
L 397.612694 199.140465 
L 400.051193 199.103467 
L 402.489692 198.644074 
L 404.928191 198.955474 
L 407.36669 198.751985 
L 409.805189 198.770484 
L 412.243688 198.505331 
L 417.120686 198.366588 
L 419.559185 197.956526 
L 421.997685 197.944194 
L 426.874683 198.298758 
L 429.313182 197.876364 
L 429.313182 197.876364 
" style="fill:none;stroke:#0000ff;stroke-linecap:square;stroke-width:1.5;"/>
   </g>
   <g id="line2d_34">
    <path clip-path="url(#pbf1744d646)" d="M 65.976818 278.38508 
L 68.415317 270.267184 
L 70.853816 264.070205 
L 73.292315 258.263297 
L 75.730815 257.144602 
L 78.169314 253.766438 
L 80.607813 251.94856 
L 83.046312 249.549254 
L 85.484811 247.760815 
L 87.92331 245.530785 
L 90.361809 243.779145 
L 92.800308 243.087321 
L 95.238807 241.468157 
L 97.677306 239.687078 
L 100.115805 240.01091 
L 102.554304 239.193969 
L 104.992804 236.360433 
L 107.431303 237.000739 
L 109.869802 236.088119 
L 112.308301 236.367793 
L 114.7468 234.336479 
L 117.185299 233.541617 
L 119.623798 233.615216 
L 122.062297 233.836011 
L 124.500796 232.018132 
L 129.377794 230.921517 
L 131.816293 230.023617 
L 134.254793 229.618826 
L 136.693292 229.398031 
L 139.131791 230.987755 
L 141.57029 229.368592 
L 146.447288 228.198378 
L 148.885787 228.051182 
L 151.324286 228.073261 
L 153.762785 226.991366 
L 156.201284 227.322558 
L 158.639783 227.057604 
L 161.078282 226.108186 
L 163.516782 226.895688 
L 165.955281 226.343701 
L 168.39378 225.563558 
L 170.832279 226.535056 
L 173.270778 225.261805 
L 175.709277 226.343701 
L 178.147776 225.894751 
L 180.586275 224.901173 
L 183.024774 225.776993 
L 185.463273 224.327106 
L 187.901772 223.657362 
L 190.340272 224.842295 
L 192.778771 223.981194 
L 197.655769 223.900236 
L 200.094268 224.238788 
L 202.532767 222.501868 
L 204.971266 222.906659 
L 207.409765 222.921378 
L 209.848264 222.722663 
L 212.286763 223.061215 
L 214.725262 222.251633 
L 217.163761 223.046495 
L 219.602261 222.060278 
L 222.04076 221.883642 
L 224.479259 221.228617 
L 226.917758 222.170675 
L 229.356257 222.560746 
L 231.794756 220.492633 
L 234.233255 221.221257 
L 236.671754 220.831186 
L 239.110253 221.633408 
L 241.548752 221.95724 
L 243.987251 221.589249 
L 246.42575 220.411675 
L 251.302749 220.426395 
L 253.741248 220.779667 
L 256.179747 220.257119 
L 258.618246 220.382236 
L 261.056745 220.028964 
L 263.495244 220.580951 
L 265.933743 219.800809 
L 268.372242 219.852328 
L 270.810741 220.338077 
L 273.24924 220.514713 
L 278.126239 219.587374 
L 280.564738 220.080483 
L 283.003237 220.006884 
L 285.441736 219.32242 
L 287.880235 219.33714 
L 290.318734 219.992165 
L 292.757233 218.969148 
L 295.195732 219.565294 
L 297.634231 218.836671 
L 300.07273 218.89555 
L 302.511229 219.219382 
L 304.949728 218.689474 
L 307.388228 219.638893 
L 309.826727 218.763073 
L 312.265226 218.660035 
L 314.703725 219.31506 
L 317.142224 218.718914 
L 319.580723 219.050106 
L 322.019222 218.542278 
L 324.457721 219.373939 
L 326.89622 218.586437 
L 329.334719 218.43924 
L 331.773218 218.41716 
L 334.211718 219.432817 
L 336.650217 219.101625 
L 339.088716 218.196365 
L 341.527215 219.602094 
L 343.965714 218.549637 
L 346.404213 218.483399 
L 348.842712 219.116345 
L 351.281211 217.725336 
L 353.71971 218.748353 
L 365.912206 218.637955 
L 368.350705 218.269964 
L 370.789204 218.181646 
L 373.227703 218.373001 
L 375.666202 218.777792 
L 378.104701 217.614939 
L 380.5432 218.019729 
L 385.420198 218.586437 
L 387.858697 218.01973 
L 390.297196 218.851391 
L 392.735696 218.505478 
L 395.174195 217.688537 
L 397.612694 218.674755 
L 400.051193 218.284684 
L 402.489692 218.763073 
L 404.928191 218.137487 
L 407.36669 217.968211 
L 409.805189 218.711554 
L 412.243688 217.717976 
L 414.682187 218.166926 
L 417.120686 218.115407 
L 419.559185 218.660035 
L 424.436184 217.894612 
L 426.874683 218.564357 
L 429.313182 217.872533 
L 429.313182 217.872533 
" style="fill:none;stroke:#ffa500;stroke-linecap:square;stroke-width:1.5;"/>
   </g>
   <g id="patch_9">
    <path d="M 47.81 303.64 
L 47.81 192.84 
" style="fill:none;stroke:#000000;stroke-linecap:square;stroke-linejoin:miter;stroke-width:0.8;"/>
   </g>
   <g id="patch_10">
    <path d="M 447.48 303.64 
L 447.48 192.84 
" style="fill:none;stroke:#000000;stroke-linecap:square;stroke-linejoin:miter;stroke-width:0.8;"/>
   </g>
   <g id="patch_11">
    <path d="M 47.81 303.64 
L 447.48 303.64 
" style="fill:none;stroke:#000000;stroke-linecap:square;stroke-linejoin:miter;stroke-width:0.8;"/>
   </g>
   <g id="patch_12">
    <path d="M 47.81 192.84 
L 447.48 192.84 
" style="fill:none;stroke:#000000;stroke-linecap:square;stroke-linejoin:miter;stroke-width:0.8;"/>
   </g>
   <g id="text_34">
    <!-- model accuracy -->
    <g transform="translate(199.983438 186.84)scale(0.12 -0.12)">
     <use xlink:href="#DejaVuSans-109"/>
     <use x="97.412109" xlink:href="#DejaVuSans-111"/>
     <use x="158.59375" xlink:href="#DejaVuSans-100"/>
     <use x="222.070312" xlink:href="#DejaVuSans-101"/>
     <use x="283.59375" xlink:href="#DejaVuSans-108"/>
     <use x="311.376953" xlink:href="#DejaVuSans-32"/>
     <use x="343.164062" xlink:href="#DejaVuSans-97"/>
     <use x="404.443359" xlink:href="#DejaVuSans-99"/>
     <use x="459.423828" xlink:href="#DejaVuSans-99"/>
     <use x="514.404297" xlink:href="#DejaVuSans-117"/>
     <use x="577.783203" xlink:href="#DejaVuSans-114"/>
     <use x="618.896484" xlink:href="#DejaVuSans-97"/>
     <use x="680.175781" xlink:href="#DejaVuSans-99"/>
     <use x="735.15625" xlink:href="#DejaVuSans-121"/>
    </g>
   </g>
   <g id="legend_2">
    <g id="patch_13">
     <path d="M 54.81 230.19625 
L 110.085 230.19625 
Q 112.085 230.19625 112.085 228.19625 
L 112.085 199.84 
Q 112.085 197.84 110.085 197.84 
L 54.81 197.84 
Q 52.81 197.84 52.81 199.84 
L 52.81 228.19625 
Q 52.81 230.19625 54.81 230.19625 
z
" style="fill:#ffffff;opacity:0.8;stroke:#cccccc;stroke-linejoin:miter;"/>
    </g>
    <g id="line2d_35">
     <path d="M 56.81 205.938437 
L 76.81 205.938437 
" style="fill:none;stroke:#0000ff;stroke-linecap:square;stroke-width:1.5;"/>
    </g>
    <g id="line2d_36"/>
    <g id="text_35">
     <!-- train -->
     <g transform="translate(84.81 209.438437)scale(0.1 -0.1)">
      <use xlink:href="#DejaVuSans-116"/>
      <use x="39.208984" xlink:href="#DejaVuSans-114"/>
      <use x="80.322266" xlink:href="#DejaVuSans-97"/>
      <use x="141.601562" xlink:href="#DejaVuSans-105"/>
      <use x="169.384766" xlink:href="#DejaVuSans-110"/>
     </g>
    </g>
    <g id="line2d_37">
     <path d="M 56.81 220.616562 
L 76.81 220.616562 
" style="fill:none;stroke:#ffa500;stroke-linecap:square;stroke-width:1.5;"/>
    </g>
    <g id="line2d_38"/>
    <g id="text_36">
     <!-- test -->
     <g transform="translate(84.81 224.116562)scale(0.1 -0.1)">
      <use xlink:href="#DejaVuSans-116"/>
      <use x="39.208984" xlink:href="#DejaVuSans-101"/>
      <use x="100.732422" xlink:href="#DejaVuSans-115"/>
      <use x="152.832031" xlink:href="#DejaVuSans-116"/>
     </g>
    </g>
   </g>
  </g>
 </g>
 <defs>
  <clipPath id="pb8b685723d">
   <rect height="110.8" width="399.67" x="47.81" y="25.44"/>
  </clipPath>
  <clipPath id="pbf1744d646">
   <rect height="110.8" width="399.67" x="47.81" y="192.84"/>
  </clipPath>
 </defs>
</svg>
