<?xml version="1.0" encoding="utf-8" standalone="no"?>
<!DOCTYPE svg PUBLIC "-//W3C//DTD SVG 1.1//EN"
  "http://www.w3.org/Graphics/SVG/1.1/DTD/svg11.dtd">
<!-- Created with matplotlib (https://matplotlib.org/) -->
<svg height="345.6pt" version="1.1" viewBox="0 0 460.8 345.6" width="460.8pt" xmlns="http://www.w3.org/2000/svg" xmlns:xlink="http://www.w3.org/1999/xlink">
 <defs>
  <style type="text/css">
*{stroke-linecap:butt;stroke-linejoin:round;}
  </style>
 </defs>
 <g id="figure_1">
  <g id="patch_1">
   <path d="M 0 345.6 
L 460.8 345.6 
L 460.8 0 
L 0 0 
z
" style="fill:#ffffff;"/>
  </g>
  <g id="axes_1">
   <g id="patch_2">
    <path d="M 60.5 136.24 
L 447.48 136.24 
L 447.48 25.44 
L 60.5 25.44 
z
" style="fill:#ffffff;"/>
   </g>
   <g id="matplotlib.axis_1">
    <g id="xtick_1">
     <g id="line2d_1">
      <defs>
       <path d="M 0 0 
L 0 3.5 
" id="mf7618f2a8e" style="stroke:#000000;stroke-width:0.8;"/>
      </defs>
      <g>
       <use style="stroke:#000000;stroke-width:0.8;" x="78.09" xlink:href="#mf7618f2a8e" y="136.24"/>
      </g>
     </g>
     <g id="text_1">
      <!-- 0 -->
      <defs>
       <path d="M 31.78125 66.40625 
Q 24.171875 66.40625 20.328125 58.90625 
Q 16.5 51.421875 16.5 36.375 
Q 16.5 21.390625 20.328125 13.890625 
Q 24.171875 6.390625 31.78125 6.390625 
Q 39.453125 6.390625 43.28125 13.890625 
Q 47.125 21.390625 47.125 36.375 
Q 47.125 51.421875 43.28125 58.90625 
Q 39.453125 66.40625 31.78125 66.40625 
z
M 31.78125 74.21875 
Q 44.046875 74.21875 50.515625 64.515625 
Q 56.984375 54.828125 56.984375 36.375 
Q 56.984375 17.96875 50.515625 8.265625 
Q 44.046875 -1.421875 31.78125 -1.421875 
Q 19.53125 -1.421875 13.0625 8.265625 
Q 6.59375 17.96875 6.59375 36.375 
Q 6.59375 54.828125 13.0625 64.515625 
Q 19.53125 74.21875 31.78125 74.21875 
z
" id="DejaVuSans-48"/>
      </defs>
      <g transform="translate(74.90875 150.838437)scale(0.1 -0.1)">
       <use xlink:href="#DejaVuSans-48"/>
      </g>
     </g>
    </g>
    <g id="xtick_2">
     <g id="line2d_2">
      <g>
       <use style="stroke:#000000;stroke-width:0.8;" x="148.591002" xlink:href="#mf7618f2a8e" y="136.24"/>
      </g>
     </g>
     <g id="text_2">
      <!-- 100 -->
      <defs>
       <path d="M 12.40625 8.296875 
L 28.515625 8.296875 
L 28.515625 63.921875 
L 10.984375 60.40625 
L 10.984375 69.390625 
L 28.421875 72.90625 
L 38.28125 72.90625 
L 38.28125 8.296875 
L 54.390625 8.296875 
L 54.390625 0 
L 12.40625 0 
z
" id="DejaVuSans-49"/>
      </defs>
      <g transform="translate(139.047252 150.838437)scale(0.1 -0.1)">
       <use xlink:href="#DejaVuSans-49"/>
       <use x="63.623047" xlink:href="#DejaVuSans-48"/>
       <use x="127.246094" xlink:href="#DejaVuSans-48"/>
      </g>
     </g>
    </g>
    <g id="xtick_3">
     <g id="line2d_3">
      <g>
       <use style="stroke:#000000;stroke-width:0.8;" x="219.092004" xlink:href="#mf7618f2a8e" y="136.24"/>
      </g>
     </g>
     <g id="text_3">
      <!-- 200 -->
      <defs>
       <path d="M 19.1875 8.296875 
L 53.609375 8.296875 
L 53.609375 0 
L 7.328125 0 
L 7.328125 8.296875 
Q 12.9375 14.109375 22.625 23.890625 
Q 32.328125 33.6875 34.8125 36.53125 
Q 39.546875 41.84375 41.421875 45.53125 
Q 43.3125 49.21875 43.3125 52.78125 
Q 43.3125 58.59375 39.234375 62.25 
Q 35.15625 65.921875 28.609375 65.921875 
Q 23.96875 65.921875 18.8125 64.3125 
Q 13.671875 62.703125 7.8125 59.421875 
L 7.8125 69.390625 
Q 13.765625 71.78125 18.9375 73 
Q 24.125 74.21875 28.421875 74.21875 
Q 39.75 74.21875 46.484375 68.546875 
Q 53.21875 62.890625 53.21875 53.421875 
Q 53.21875 48.921875 51.53125 44.890625 
Q 49.859375 40.875 45.40625 35.40625 
Q 44.1875 33.984375 37.640625 27.21875 
Q 31.109375 20.453125 19.1875 8.296875 
z
" id="DejaVuSans-50"/>
      </defs>
      <g transform="translate(209.548254 150.838437)scale(0.1 -0.1)">
       <use xlink:href="#DejaVuSans-50"/>
       <use x="63.623047" xlink:href="#DejaVuSans-48"/>
       <use x="127.246094" xlink:href="#DejaVuSans-48"/>
      </g>
     </g>
    </g>
    <g id="xtick_4">
     <g id="line2d_4">
      <g>
       <use style="stroke:#000000;stroke-width:0.8;" x="289.593006" xlink:href="#mf7618f2a8e" y="136.24"/>
      </g>
     </g>
     <g id="text_4">
      <!-- 300 -->
      <defs>
       <path d="M 40.578125 39.3125 
Q 47.65625 37.796875 51.625 33 
Q 55.609375 28.21875 55.609375 21.1875 
Q 55.609375 10.40625 48.1875 4.484375 
Q 40.765625 -1.421875 27.09375 -1.421875 
Q 22.515625 -1.421875 17.65625 -0.515625 
Q 12.796875 0.390625 7.625 2.203125 
L 7.625 11.71875 
Q 11.71875 9.328125 16.59375 8.109375 
Q 21.484375 6.890625 26.8125 6.890625 
Q 36.078125 6.890625 40.9375 10.546875 
Q 45.796875 14.203125 45.796875 21.1875 
Q 45.796875 27.640625 41.28125 31.265625 
Q 36.765625 34.90625 28.71875 34.90625 
L 20.21875 34.90625 
L 20.21875 43.015625 
L 29.109375 43.015625 
Q 36.375 43.015625 40.234375 45.921875 
Q 44.09375 48.828125 44.09375 54.296875 
Q 44.09375 59.90625 40.109375 62.90625 
Q 36.140625 65.921875 28.71875 65.921875 
Q 24.65625 65.921875 20.015625 65.03125 
Q 15.375 64.15625 9.8125 62.3125 
L 9.8125 71.09375 
Q 15.4375 72.65625 20.34375 73.4375 
Q 25.25 74.21875 29.59375 74.21875 
Q 40.828125 74.21875 47.359375 69.109375 
Q 53.90625 64.015625 53.90625 55.328125 
Q 53.90625 49.265625 50.4375 45.09375 
Q 46.96875 40.921875 40.578125 39.3125 
z
" id="DejaVuSans-51"/>
      </defs>
      <g transform="translate(280.049256 150.838437)scale(0.1 -0.1)">
       <use xlink:href="#DejaVuSans-51"/>
       <use x="63.623047" xlink:href="#DejaVuSans-48"/>
       <use x="127.246094" xlink:href="#DejaVuSans-48"/>
      </g>
     </g>
    </g>
    <g id="xtick_5">
     <g id="line2d_5">
      <g>
       <use style="stroke:#000000;stroke-width:0.8;" x="360.094008" xlink:href="#mf7618f2a8e" y="136.24"/>
      </g>
     </g>
     <g id="text_5">
      <!-- 400 -->
      <defs>
       <path d="M 37.796875 64.3125 
L 12.890625 25.390625 
L 37.796875 25.390625 
z
M 35.203125 72.90625 
L 47.609375 72.90625 
L 47.609375 25.390625 
L 58.015625 25.390625 
L 58.015625 17.1875 
L 47.609375 17.1875 
L 47.609375 0 
L 37.796875 0 
L 37.796875 17.1875 
L 4.890625 17.1875 
L 4.890625 26.703125 
z
" id="DejaVuSans-52"/>
      </defs>
      <g transform="translate(350.550258 150.838437)scale(0.1 -0.1)">
       <use xlink:href="#DejaVuSans-52"/>
       <use x="63.623047" xlink:href="#DejaVuSans-48"/>
       <use x="127.246094" xlink:href="#DejaVuSans-48"/>
      </g>
     </g>
    </g>
    <g id="xtick_6">
     <g id="line2d_6">
      <g>
       <use style="stroke:#000000;stroke-width:0.8;" x="430.59501" xlink:href="#mf7618f2a8e" y="136.24"/>
      </g>
     </g>
     <g id="text_6">
      <!-- 500 -->
      <defs>
       <path d="M 10.796875 72.90625 
L 49.515625 72.90625 
L 49.515625 64.59375 
L 19.828125 64.59375 
L 19.828125 46.734375 
Q 21.96875 47.46875 24.109375 47.828125 
Q 26.265625 48.1875 28.421875 48.1875 
Q 40.625 48.1875 47.75 41.5 
Q 54.890625 34.8125 54.890625 23.390625 
Q 54.890625 11.625 47.5625 5.09375 
Q 40.234375 -1.421875 26.90625 -1.421875 
Q 22.3125 -1.421875 17.546875 -0.640625 
Q 12.796875 0.140625 7.71875 1.703125 
L 7.71875 11.625 
Q 12.109375 9.234375 16.796875 8.0625 
Q 21.484375 6.890625 26.703125 6.890625 
Q 35.15625 6.890625 40.078125 11.328125 
Q 45.015625 15.765625 45.015625 23.390625 
Q 45.015625 31 40.078125 35.4375 
Q 35.15625 39.890625 26.703125 39.890625 
Q 22.75 39.890625 18.8125 39.015625 
Q 14.890625 38.140625 10.796875 36.28125 
z
" id="DejaVuSans-53"/>
      </defs>
      <g transform="translate(421.05126 150.838437)scale(0.1 -0.1)">
       <use xlink:href="#DejaVuSans-53"/>
       <use x="63.623047" xlink:href="#DejaVuSans-48"/>
       <use x="127.246094" xlink:href="#DejaVuSans-48"/>
      </g>
     </g>
    </g>
    <g id="text_7">
     <!-- epoch -->
     <defs>
      <path d="M 56.203125 29.59375 
L 56.203125 25.203125 
L 14.890625 25.203125 
Q 15.484375 15.921875 20.484375 11.0625 
Q 25.484375 6.203125 34.421875 6.203125 
Q 39.59375 6.203125 44.453125 7.46875 
Q 49.3125 8.734375 54.109375 11.28125 
L 54.109375 2.78125 
Q 49.265625 0.734375 44.1875 -0.34375 
Q 39.109375 -1.421875 33.890625 -1.421875 
Q 20.796875 -1.421875 13.15625 6.1875 
Q 5.515625 13.8125 5.515625 26.8125 
Q 5.515625 40.234375 12.765625 48.109375 
Q 20.015625 56 32.328125 56 
Q 43.359375 56 49.78125 48.890625 
Q 56.203125 41.796875 56.203125 29.59375 
z
M 47.21875 32.234375 
Q 47.125 39.59375 43.09375 43.984375 
Q 39.0625 48.390625 32.421875 48.390625 
Q 24.90625 48.390625 20.390625 44.140625 
Q 15.875 39.890625 15.1875 32.171875 
z
" id="DejaVuSans-101"/>
      <path d="M 18.109375 8.203125 
L 18.109375 -20.796875 
L 9.078125 -20.796875 
L 9.078125 54.6875 
L 18.109375 54.6875 
L 18.109375 46.390625 
Q 20.953125 51.265625 25.265625 53.625 
Q 29.59375 56 35.59375 56 
Q 45.5625 56 51.78125 48.09375 
Q 58.015625 40.1875 58.015625 27.296875 
Q 58.015625 14.40625 51.78125 6.484375 
Q 45.5625 -1.421875 35.59375 -1.421875 
Q 29.59375 -1.421875 25.265625 0.953125 
Q 20.953125 3.328125 18.109375 8.203125 
z
M 48.6875 27.296875 
Q 48.6875 37.203125 44.609375 42.84375 
Q 40.53125 48.484375 33.40625 48.484375 
Q 26.265625 48.484375 22.1875 42.84375 
Q 18.109375 37.203125 18.109375 27.296875 
Q 18.109375 17.390625 22.1875 11.75 
Q 26.265625 6.109375 33.40625 6.109375 
Q 40.53125 6.109375 44.609375 11.75 
Q 48.6875 17.390625 48.6875 27.296875 
z
" id="DejaVuSans-112"/>
      <path d="M 30.609375 48.390625 
Q 23.390625 48.390625 19.1875 42.75 
Q 14.984375 37.109375 14.984375 27.296875 
Q 14.984375 17.484375 19.15625 11.84375 
Q 23.34375 6.203125 30.609375 6.203125 
Q 37.796875 6.203125 41.984375 11.859375 
Q 46.1875 17.53125 46.1875 27.296875 
Q 46.1875 37.015625 41.984375 42.703125 
Q 37.796875 48.390625 30.609375 48.390625 
z
M 30.609375 56 
Q 42.328125 56 49.015625 48.375 
Q 55.71875 40.765625 55.71875 27.296875 
Q 55.71875 13.875 49.015625 6.21875 
Q 42.328125 -1.421875 30.609375 -1.421875 
Q 18.84375 -1.421875 12.171875 6.21875 
Q 5.515625 13.875 5.515625 27.296875 
Q 5.515625 40.765625 12.171875 48.375 
Q 18.84375 56 30.609375 56 
z
" id="DejaVuSans-111"/>
      <path d="M 48.78125 52.59375 
L 48.78125 44.1875 
Q 44.96875 46.296875 41.140625 47.34375 
Q 37.3125 48.390625 33.40625 48.390625 
Q 24.65625 48.390625 19.8125 42.84375 
Q 14.984375 37.3125 14.984375 27.296875 
Q 14.984375 17.28125 19.8125 11.734375 
Q 24.65625 6.203125 33.40625 6.203125 
Q 37.3125 6.203125 41.140625 7.25 
Q 44.96875 8.296875 48.78125 10.40625 
L 48.78125 2.09375 
Q 45.015625 0.34375 40.984375 -0.53125 
Q 36.96875 -1.421875 32.421875 -1.421875 
Q 20.0625 -1.421875 12.78125 6.34375 
Q 5.515625 14.109375 5.515625 27.296875 
Q 5.515625 40.671875 12.859375 48.328125 
Q 20.21875 56 33.015625 56 
Q 37.15625 56 41.109375 55.140625 
Q 45.0625 54.296875 48.78125 52.59375 
z
" id="DejaVuSans-99"/>
      <path d="M 54.890625 33.015625 
L 54.890625 0 
L 45.90625 0 
L 45.90625 32.71875 
Q 45.90625 40.484375 42.875 44.328125 
Q 39.84375 48.1875 33.796875 48.1875 
Q 26.515625 48.1875 22.3125 43.546875 
Q 18.109375 38.921875 18.109375 30.90625 
L 18.109375 0 
L 9.078125 0 
L 9.078125 75.984375 
L 18.109375 75.984375 
L 18.109375 46.1875 
Q 21.34375 51.125 25.703125 53.5625 
Q 30.078125 56 35.796875 56 
Q 45.21875 56 50.046875 50.171875 
Q 54.890625 44.34375 54.890625 33.015625 
z
" id="DejaVuSans-104"/>
     </defs>
     <g transform="translate(238.761875 164.516562)scale(0.1 -0.1)">
      <use xlink:href="#DejaVuSans-101"/>
      <use x="61.523438" xlink:href="#DejaVuSans-112"/>
      <use x="125" xlink:href="#DejaVuSans-111"/>
      <use x="186.181641" xlink:href="#DejaVuSans-99"/>
      <use x="241.162109" xlink:href="#DejaVuSans-104"/>
     </g>
    </g>
   </g>
   <g id="matplotlib.axis_2">
    <g id="ytick_1">
     <g id="line2d_7">
      <defs>
       <path d="M 0 0 
L -3.5 0 
" id="ma904909cba" style="stroke:#000000;stroke-width:0.8;"/>
      </defs>
      <g>
       <use style="stroke:#000000;stroke-width:0.8;" x="60.5" xlink:href="#ma904909cba" y="125.816968"/>
      </g>
     </g>
     <g id="text_8">
      <!-- 1.0825 -->
      <defs>
       <path d="M 10.6875 12.40625 
L 21 12.40625 
L 21 0 
L 10.6875 0 
z
" id="DejaVuSans-46"/>
       <path d="M 31.78125 34.625 
Q 24.75 34.625 20.71875 30.859375 
Q 16.703125 27.09375 16.703125 20.515625 
Q 16.703125 13.921875 20.71875 10.15625 
Q 24.75 6.390625 31.78125 6.390625 
Q 38.8125 6.390625 42.859375 10.171875 
Q 46.921875 13.96875 46.921875 20.515625 
Q 46.921875 27.09375 42.890625 30.859375 
Q 38.875 34.625 31.78125 34.625 
z
M 21.921875 38.8125 
Q 15.578125 40.375 12.03125 44.71875 
Q 8.5 49.078125 8.5 55.328125 
Q 8.5 64.0625 14.71875 69.140625 
Q 20.953125 74.21875 31.78125 74.21875 
Q 42.671875 74.21875 48.875 69.140625 
Q 55.078125 64.0625 55.078125 55.328125 
Q 55.078125 49.078125 51.53125 44.71875 
Q 48 40.375 41.703125 38.8125 
Q 48.828125 37.15625 52.796875 32.3125 
Q 56.78125 27.484375 56.78125 20.515625 
Q 56.78125 9.90625 50.3125 4.234375 
Q 43.84375 -1.421875 31.78125 -1.421875 
Q 19.734375 -1.421875 13.25 4.234375 
Q 6.78125 9.90625 6.78125 20.515625 
Q 6.78125 27.484375 10.78125 32.3125 
Q 14.796875 37.15625 21.921875 38.8125 
z
M 18.3125 54.390625 
Q 18.3125 48.734375 21.84375 45.5625 
Q 25.390625 42.390625 31.78125 42.390625 
Q 38.140625 42.390625 41.71875 45.5625 
Q 45.3125 48.734375 45.3125 54.390625 
Q 45.3125 60.0625 41.71875 63.234375 
Q 38.140625 66.40625 31.78125 66.40625 
Q 25.390625 66.40625 21.84375 63.234375 
Q 18.3125 60.0625 18.3125 54.390625 
z
" id="DejaVuSans-56"/>
      </defs>
      <g transform="translate(18.509375 129.616187)scale(0.1 -0.1)">
       <use xlink:href="#DejaVuSans-49"/>
       <use x="63.623047" xlink:href="#DejaVuSans-46"/>
       <use x="95.410156" xlink:href="#DejaVuSans-48"/>
       <use x="159.033203" xlink:href="#DejaVuSans-56"/>
       <use x="222.65625" xlink:href="#DejaVuSans-50"/>
       <use x="286.279297" xlink:href="#DejaVuSans-53"/>
      </g>
     </g>
    </g>
    <g id="ytick_2">
     <g id="line2d_8">
      <g>
       <use style="stroke:#000000;stroke-width:0.8;" x="60.5" xlink:href="#ma904909cba" y="98.740096"/>
      </g>
     </g>
     <g id="text_9">
      <!-- 1.0850 -->
      <g transform="translate(18.509375 102.539315)scale(0.1 -0.1)">
       <use xlink:href="#DejaVuSans-49"/>
       <use x="63.623047" xlink:href="#DejaVuSans-46"/>
       <use x="95.410156" xlink:href="#DejaVuSans-48"/>
       <use x="159.033203" xlink:href="#DejaVuSans-56"/>
       <use x="222.65625" xlink:href="#DejaVuSans-53"/>
       <use x="286.279297" xlink:href="#DejaVuSans-48"/>
      </g>
     </g>
    </g>
    <g id="ytick_3">
     <g id="line2d_9">
      <g>
       <use style="stroke:#000000;stroke-width:0.8;" x="60.5" xlink:href="#ma904909cba" y="71.663224"/>
      </g>
     </g>
     <g id="text_10">
      <!-- 1.0875 -->
      <defs>
       <path d="M 8.203125 72.90625 
L 55.078125 72.90625 
L 55.078125 68.703125 
L 28.609375 0 
L 18.3125 0 
L 43.21875 64.59375 
L 8.203125 64.59375 
z
" id="DejaVuSans-55"/>
      </defs>
      <g transform="translate(18.509375 75.462443)scale(0.1 -0.1)">
       <use xlink:href="#DejaVuSans-49"/>
       <use x="63.623047" xlink:href="#DejaVuSans-46"/>
       <use x="95.410156" xlink:href="#DejaVuSans-48"/>
       <use x="159.033203" xlink:href="#DejaVuSans-56"/>
       <use x="222.65625" xlink:href="#DejaVuSans-55"/>
       <use x="286.279297" xlink:href="#DejaVuSans-53"/>
      </g>
     </g>
    </g>
    <g id="ytick_4">
     <g id="line2d_10">
      <g>
       <use style="stroke:#000000;stroke-width:0.8;" x="60.5" xlink:href="#ma904909cba" y="44.586352"/>
      </g>
     </g>
     <g id="text_11">
      <!-- 1.0900 -->
      <defs>
       <path d="M 10.984375 1.515625 
L 10.984375 10.5 
Q 14.703125 8.734375 18.5 7.8125 
Q 22.3125 6.890625 25.984375 6.890625 
Q 35.75 6.890625 40.890625 13.453125 
Q 46.046875 20.015625 46.78125 33.40625 
Q 43.953125 29.203125 39.59375 26.953125 
Q 35.25 24.703125 29.984375 24.703125 
Q 19.046875 24.703125 12.671875 31.3125 
Q 6.296875 37.9375 6.296875 49.421875 
Q 6.296875 60.640625 12.9375 67.421875 
Q 19.578125 74.21875 30.609375 74.21875 
Q 43.265625 74.21875 49.921875 64.515625 
Q 56.59375 54.828125 56.59375 36.375 
Q 56.59375 19.140625 48.40625 8.859375 
Q 40.234375 -1.421875 26.421875 -1.421875 
Q 22.703125 -1.421875 18.890625 -0.6875 
Q 15.09375 0.046875 10.984375 1.515625 
z
M 30.609375 32.421875 
Q 37.25 32.421875 41.125 36.953125 
Q 45.015625 41.5 45.015625 49.421875 
Q 45.015625 57.28125 41.125 61.84375 
Q 37.25 66.40625 30.609375 66.40625 
Q 23.96875 66.40625 20.09375 61.84375 
Q 16.21875 57.28125 16.21875 49.421875 
Q 16.21875 41.5 20.09375 36.953125 
Q 23.96875 32.421875 30.609375 32.421875 
z
" id="DejaVuSans-57"/>
      </defs>
      <g transform="translate(18.509375 48.385571)scale(0.1 -0.1)">
       <use xlink:href="#DejaVuSans-49"/>
       <use x="63.623047" xlink:href="#DejaVuSans-46"/>
       <use x="95.410156" xlink:href="#DejaVuSans-48"/>
       <use x="159.033203" xlink:href="#DejaVuSans-57"/>
       <use x="222.65625" xlink:href="#DejaVuSans-48"/>
       <use x="286.279297" xlink:href="#DejaVuSans-48"/>
      </g>
     </g>
    </g>
    <g id="text_12">
     <!-- loss -->
     <defs>
      <path d="M 9.421875 75.984375 
L 18.40625 75.984375 
L 18.40625 0 
L 9.421875 0 
z
" id="DejaVuSans-108"/>
      <path d="M 44.28125 53.078125 
L 44.28125 44.578125 
Q 40.484375 46.53125 36.375 47.5 
Q 32.28125 48.484375 27.875 48.484375 
Q 21.1875 48.484375 17.84375 46.4375 
Q 14.5 44.390625 14.5 40.28125 
Q 14.5 37.15625 16.890625 35.375 
Q 19.28125 33.59375 26.515625 31.984375 
L 29.59375 31.296875 
Q 39.15625 29.25 43.1875 25.515625 
Q 47.21875 21.78125 47.21875 15.09375 
Q 47.21875 7.46875 41.1875 3.015625 
Q 35.15625 -1.421875 24.609375 -1.421875 
Q 20.21875 -1.421875 15.453125 -0.5625 
Q 10.6875 0.296875 5.421875 2 
L 5.421875 11.28125 
Q 10.40625 8.6875 15.234375 7.390625 
Q 20.0625 6.109375 24.8125 6.109375 
Q 31.15625 6.109375 34.5625 8.28125 
Q 37.984375 10.453125 37.984375 14.40625 
Q 37.984375 18.0625 35.515625 20.015625 
Q 33.0625 21.96875 24.703125 23.78125 
L 21.578125 24.515625 
Q 13.234375 26.265625 9.515625 29.90625 
Q 5.8125 33.546875 5.8125 39.890625 
Q 5.8125 47.609375 11.28125 51.796875 
Q 16.75 56 26.8125 56 
Q 31.78125 56 36.171875 55.265625 
Q 40.578125 54.546875 44.28125 53.078125 
z
" id="DejaVuSans-115"/>
     </defs>
     <g transform="translate(12.429688 90.497812)rotate(-90)scale(0.1 -0.1)">
      <use xlink:href="#DejaVuSans-108"/>
      <use x="27.783203" xlink:href="#DejaVuSans-111"/>
      <use x="88.964844" xlink:href="#DejaVuSans-115"/>
      <use x="141.064453" xlink:href="#DejaVuSans-115"/>
     </g>
    </g>
   </g>
   <g id="line2d_11">
    <path clip-path="url(#pe7b27d6ada)" d="M 78.09 53.966303 
L 78.79501 73.364338 
L 79.50002 78.323607 
L 80.20503 75.912963 
L 80.91004 83.235192 
L 81.61505 86.256075 
L 82.32006 93.323559 
L 83.02507 88.868844 
L 83.73008 91.775328 
L 84.43509 91.095105 
L 85.1401 98.077029 
L 85.84511 98.613687 
L 86.55012 96.127794 
L 87.25513 94.342775 
L 87.96014 94.440308 
L 88.66515 91.089048 
L 89.37016 95.36351 
L 90.07517 98.036435 
L 90.78018 99.82689 
L 91.48519 98.105348 
L 92.1902 100.614429 
L 92.89521 101.627408 
L 93.60022 101.186183 
L 94.30523 99.564834 
L 95.01024 96.459518 
L 95.715251 103.689833 
L 96.420261 104.522245 
L 97.125271 99.615808 
L 97.830281 101.791451 
L 98.535291 102.550861 
L 99.240301 106.807739 
L 99.945311 105.947214 
L 100.650321 104.096622 
L 101.355331 104.446888 
L 102.060341 101.561358 
L 102.765351 104.779539 
L 103.470361 101.751002 
L 104.175371 103.327085 
L 104.880381 106.353415 
L 105.585391 104.533476 
L 106.290401 108.676234 
L 106.995411 99.563928 
L 107.700421 107.097492 
L 108.405431 105.242116 
L 109.110441 101.605916 
L 109.815451 105.650553 
L 111.225471 104.235204 
L 111.930481 110.055524 
L 112.635491 106.371874 
L 113.340501 102.023532 
L 114.045511 101.969129 
L 114.750521 106.344628 
L 115.455531 105.463543 
L 116.160541 113.909484 
L 116.865551 106.816035 
L 117.570561 109.890775 
L 118.275571 109.168414 
L 118.980581 104.111272 
L 119.685591 109.594314 
L 120.390601 112.422453 
L 121.095611 108.538652 
L 121.800621 112.091916 
L 122.505631 106.778925 
L 123.210641 108.816715 
L 123.915651 109.24758 
L 124.620661 105.092307 
L 125.325671 104.394409 
L 126.030681 106.187733 
L 126.735691 108.698644 
L 127.440701 113.910246 
L 128.145711 116.021515 
L 128.850721 109.318417 
L 129.555731 112.45359 
L 130.260741 111.412898 
L 130.965752 110.85798 
L 131.670762 113.869225 
L 132.375772 113.161868 
L 133.080782 115.364494 
L 133.785792 113.28969 
L 134.490802 118.461603 
L 135.195812 113.070864 
L 135.900822 115.824767 
L 137.310842 108.979673 
L 138.015852 116.463204 
L 138.720862 112.127235 
L 139.425872 112.122797 
L 140.130882 109.936235 
L 141.540902 113.082882 
L 142.245912 113.897896 
L 142.950922 117.63025 
L 144.360942 113.016583 
L 145.065952 109.687787 
L 145.770962 113.233449 
L 146.475972 110.573299 
L 147.180982 122.535249 
L 148.591002 105.975193 
L 149.296012 109.598996 
L 150.001022 114.538243 
L 150.706032 113.917456 
L 151.411042 108.726501 
L 152.116052 113.764615 
L 152.821062 117.145504 
L 153.526072 111.424255 
L 154.936092 109.976751 
L 155.641102 110.785675 
L 156.346112 121.605701 
L 157.051122 112.270826 
L 157.756132 114.740786 
L 158.461142 113.697274 
L 159.166152 112.349153 
L 159.871162 115.160403 
L 160.576172 110.23416 
L 161.281182 113.543931 
L 161.986192 113.930523 
L 162.691202 117.017371 
L 163.396212 117.597147 
L 164.101222 118.827847 
L 164.806232 118.654775 
L 165.511242 119.443364 
L 166.216253 109.163612 
L 166.921263 115.17345 
L 167.626273 116.560435 
L 168.331283 114.553072 
L 169.036293 114.563035 
L 169.741303 115.127745 
L 170.446313 117.985357 
L 171.856333 108.869871 
L 172.561343 114.227402 
L 173.971363 112.364942 
L 174.676373 114.32385 
L 175.381383 120.217475 
L 176.086393 114.301062 
L 176.791403 112.261883 
L 177.496413 115.864433 
L 178.201423 117.657173 
L 178.906433 114.426889 
L 179.611443 118.97505 
L 180.316453 115.431624 
L 181.021463 111.317802 
L 181.726473 117.167881 
L 182.431483 120.14126 
L 183.136493 117.979629 
L 183.841503 117.828522 
L 184.546513 107.587018 
L 185.251523 114.011821 
L 185.956533 114.536672 
L 186.661543 116.071508 
L 187.366553 115.76929 
L 188.071563 112.646602 
L 188.776573 117.985026 
L 189.481583 117.303387 
L 190.186593 120.910403 
L 190.891603 118.786269 
L 191.596613 118.326896 
L 192.301623 120.633114 
L 193.006633 117.720461 
L 193.711643 112.254187 
L 194.416653 121.449772 
L 195.121663 113.18959 
L 195.826673 116.862346 
L 196.531683 115.507752 
L 197.236693 118.868621 
L 197.941703 114.912415 
L 198.646713 121.26582 
L 199.351723 120.984937 
L 200.056733 113.422567 
L 200.761743 117.844758 
L 201.466754 125.036922 
L 202.171764 120.501392 
L 202.876774 120.511311 
L 203.581784 117.062459 
L 204.286794 118.024668 
L 204.991804 117.49246 
L 205.696814 117.372193 
L 206.401824 118.213731 
L 207.106834 115.883228 
L 207.811844 117.397138 
L 208.516854 118.349734 
L 209.221864 114.893532 
L 209.926874 114.983248 
L 210.631884 113.146592 
L 211.336894 114.518513 
L 212.746914 121.910925 
L 213.451924 118.591925 
L 214.156934 121.727417 
L 214.861944 113.577034 
L 215.566954 119.851142 
L 216.271964 117.805997 
L 216.976974 122.923401 
L 217.681984 115.909661 
L 218.386994 113.947239 
L 219.092004 118.613343 
L 219.797014 119.205585 
L 220.502024 118.104968 
L 221.207034 117.472168 
L 221.912044 109.665036 
L 222.617054 118.834116 
L 223.322064 120.236393 
L 224.027074 112.913548 
L 224.732084 119.861812 
L 225.437094 120.669262 
L 226.142104 122.957513 
L 226.847114 116.315874 
L 227.552124 120.410401 
L 228.257134 116.308583 
L 228.962144 118.78044 
L 229.667154 115.04704 
L 230.372164 119.808394 
L 231.077174 121.144716 
L 231.782184 119.898567 
L 232.487194 120.646746 
L 233.192204 121.050508 
L 233.897214 117.466403 
L 234.602224 124.174709 
L 235.307234 120.363874 
L 236.717255 115.423981 
L 237.422265 120.771833 
L 238.127275 124.592285 
L 238.832285 114.008763 
L 239.537295 115.737157 
L 240.242305 117.089437 
L 240.947315 119.094662 
L 241.652325 121.560717 
L 242.357335 115.671172 
L 243.062345 120.132028 
L 243.767355 123.241912 
L 244.472365 120.747528 
L 245.177375 121.658208 
L 245.882385 115.687167 
L 246.587395 118.156435 
L 247.292405 123.837498 
L 247.997415 113.76805 
L 248.702425 115.858164 
L 249.407435 122.030922 
L 250.112445 121.435426 
L 250.817455 116.121485 
L 252.227475 121.864913 
L 252.932485 121.478146 
L 253.637495 116.728696 
L 254.342505 116.54416 
L 255.047515 121.342576 
L 255.752525 121.818137 
L 256.457535 121.091292 
L 257.162545 118.888394 
L 257.867555 124.628956 
L 258.572565 120.086963 
L 259.277575 116.875477 
L 259.982585 121.614104 
L 260.687595 123.926707 
L 261.392605 119.790746 
L 262.097615 121.394111 
L 262.802625 118.264815 
L 263.507635 119.701651 
L 264.212645 124.112672 
L 264.917655 115.593394 
L 265.622665 129.697891 
L 266.327675 114.85098 
L 267.032685 120.446383 
L 267.737695 116.656864 
L 268.442705 121.08416 
L 269.147715 118.45934 
L 269.852725 118.702486 
L 270.557735 113.201047 
L 271.262745 115.188632 
L 271.967756 126.392604 
L 272.672766 121.871401 
L 273.377776 121.34641 
L 274.082786 124.060267 
L 274.787796 119.018805 
L 275.492806 117.62311 
L 276.197816 125.42099 
L 276.902826 113.970742 
L 277.607836 112.338743 
L 279.017856 121.138142 
L 279.722866 121.801243 
L 280.427876 118.978992 
L 281.132886 124.949556 
L 281.837896 121.383757 
L 282.542906 121.122363 
L 283.247916 115.320449 
L 283.952926 116.773239 
L 284.657936 118.527659 
L 285.362946 123.339736 
L 286.067956 113.763716 
L 286.772966 119.140999 
L 287.477976 121.398362 
L 288.182986 121.341682 
L 288.887996 119.194636 
L 291.003026 125.12004 
L 291.708036 117.070504 
L 292.413046 116.245001 
L 293.118056 120.891616 
L 293.823066 114.545232 
L 294.528076 122.115295 
L 295.233086 118.897124 
L 295.938096 119.024683 
L 296.643106 120.98978 
L 297.348116 120.131975 
L 298.053126 121.951447 
L 298.758136 117.207778 
L 299.463146 126.161727 
L 300.168156 119.129452 
L 300.873166 118.892223 
L 301.578176 130.028533 
L 302.283186 122.450446 
L 302.988196 129.744369 
L 303.693206 119.183339 
L 304.398216 121.540467 
L 305.103226 120.581501 
L 305.808236 119.815553 
L 306.513246 118.873845 
L 307.218257 118.496533 
L 307.923267 121.897283 
L 308.628277 117.849436 
L 309.333287 115.654677 
L 310.038297 112.472048 
L 310.743307 114.498706 
L 311.448317 123.99072 
L 312.153327 119.376096 
L 312.858337 122.383 
L 313.563347 122.242349 
L 314.268357 124.390355 
L 314.973367 121.26766 
L 315.678377 124.924903 
L 316.383387 126.294697 
L 317.088397 121.549498 
L 317.793407 119.471261 
L 318.498417 124.405222 
L 319.203427 116.63137 
L 319.908437 121.013955 
L 320.613447 116.147447 
L 322.023467 123.589107 
L 322.728477 122.631281 
L 323.433487 117.506158 
L 324.843507 126.608325 
L 325.548517 120.83695 
L 326.253527 119.737321 
L 326.958537 126.215401 
L 327.663547 116.856277 
L 328.368557 124.036093 
L 329.073567 124.471947 
L 329.778577 121.997402 
L 330.483587 122.483716 
L 331.188597 120.586985 
L 331.893607 120.809941 
L 332.598617 122.203851 
L 334.008637 117.609149 
L 334.713647 112.686476 
L 335.418657 126.90282 
L 336.123667 120.395976 
L 336.828677 119.817658 
L 337.533687 126.211163 
L 338.238697 114.96492 
L 338.943707 123.706949 
L 339.648717 124.213263 
L 340.353727 124.564021 
L 341.058737 130.562251 
L 341.763747 118.323242 
L 342.468758 121.142982 
L 343.173768 121.976007 
L 343.878778 121.321783 
L 344.583788 114.223936 
L 345.288798 126.860474 
L 345.993808 120.695105 
L 346.698818 119.535265 
L 347.403828 121.193068 
L 348.108838 125.45973 
L 348.813848 123.253668 
L 349.518858 117.429226 
L 350.223868 123.988251 
L 350.928878 117.145785 
L 351.633888 122.424535 
L 352.338898 118.815286 
L 353.043908 124.549607 
L 353.748918 124.5718 
L 354.453928 125.462411 
L 355.158938 114.996499 
L 355.863948 120.811892 
L 356.568958 124.459982 
L 357.273968 126.915486 
L 357.978978 121.493673 
L 358.683988 120.780066 
L 359.388998 120.52026 
L 360.799018 124.075251 
L 361.504028 118.679325 
L 362.209038 122.625969 
L 362.914048 122.492606 
L 363.619058 120.754503 
L 364.324068 124.68566 
L 365.029078 121.191307 
L 365.734088 116.887008 
L 366.439098 123.275861 
L 367.144108 120.773575 
L 367.849118 125.446849 
L 368.554128 125.412694 
L 369.259138 120.29197 
L 369.964148 123.614982 
L 370.669158 125.448451 
L 371.374168 115.727473 
L 372.784188 122.446338 
L 373.489198 122.91941 
L 374.194208 121.675642 
L 374.899218 123.05098 
L 375.604228 121.302828 
L 376.309238 118.003497 
L 377.014248 125.12545 
L 377.719259 127.878301 
L 378.424269 121.169267 
L 379.129279 119.666214 
L 379.834289 125.015695 
L 380.539299 124.967679 
L 381.244309 122.740136 
L 381.949319 123.702853 
L 382.654329 116.007664 
L 383.359339 122.959051 
L 384.769359 122.557501 
L 385.474369 127.419374 
L 386.179379 122.955534 
L 386.884389 121.255542 
L 387.589399 121.878799 
L 388.294409 127.340454 
L 388.999419 119.527422 
L 389.704429 125.754909 
L 390.409439 119.895293 
L 391.114449 124.546028 
L 391.819459 120.706905 
L 392.524469 118.785514 
L 393.229479 124.082109 
L 393.934489 124.007307 
L 394.639499 131.203636 
L 395.344509 124.74862 
L 396.049519 122.926013 
L 396.754529 120.05908 
L 397.459539 117.843783 
L 398.164549 118.32177 
L 398.869559 120.429394 
L 399.574569 126.594255 
L 400.279579 123.757869 
L 400.984589 126.950931 
L 401.689599 127.863544 
L 402.394609 122.987809 
L 403.099619 123.498153 
L 403.804629 123.538439 
L 404.509639 123.176776 
L 405.214649 118.137583 
L 405.919659 126.164974 
L 406.624669 122.820271 
L 407.329679 120.505668 
L 408.034689 122.289746 
L 409.444709 118.126606 
L 410.149719 120.194808 
L 410.854729 126.74292 
L 411.559739 126.818859 
L 412.264749 120.241551 
L 412.96976 122.05517 
L 413.67477 115.721255 
L 414.37978 125.32027 
L 415.08479 122.920655 
L 415.7898 121.312623 
L 416.49481 115.470855 
L 417.19982 119.295956 
L 417.90483 118.723776 
L 418.60984 120.616071 
L 419.31485 125.140164 
L 420.01986 121.982401 
L 420.72487 119.634398 
L 421.42988 118.334079 
L 422.13489 120.975918 
L 422.8399 120.102339 
L 423.54491 119.983173 
L 424.24992 123.621706 
L 424.95493 120.489599 
L 425.65994 122.846702 
L 426.36495 126.223398 
L 427.06996 121.057912 
L 427.77497 126.080243 
L 428.47998 114.110645 
L 429.18499 121.520463 
L 429.89 126.29108 
L 429.89 126.29108 
" style="fill:none;stroke:#0000ff;stroke-linecap:square;stroke-width:1.5;"/>
   </g>
   <g id="line2d_12">
    <path clip-path="url(#pe7b27d6ada)" d="M 78.09 30.476364 
L 78.79501 34.633794 
L 79.50002 37.613976 
L 80.20503 39.158279 
L 81.61505 41.462641 
L 82.32006 41.185729 
L 83.02507 42.84852 
L 84.43509 43.655812 
L 86.55012 44.570723 
L 87.25513 45.489769 
L 87.96014 45.821851 
L 88.66515 46.809585 
L 89.37016 46.2993 
L 90.07517 47.107182 
L 90.78018 47.058263 
L 91.48519 47.437157 
L 92.1902 48.06588 
L 92.89521 47.049489 
L 93.60022 48.221764 
L 94.30523 48.466211 
L 95.01024 47.80767 
L 95.715251 48.681787 
L 96.420261 49.291089 
L 97.125271 49.010165 
L 102.060341 50.134326 
L 102.765351 50.08944 
L 103.470361 49.503435 
L 104.175371 49.966296 
L 104.880381 50.671971 
L 105.585391 50.718099 
L 106.290401 50.421162 
L 106.995411 50.504124 
L 107.700421 50.909727 
L 109.110441 50.883775 
L 109.815451 51.493348 
L 110.520461 51.803216 
L 111.225471 51.35007 
L 111.930481 51.639543 
L 112.635491 51.731332 
L 113.340501 51.360434 
L 114.045511 51.545179 
L 114.750521 51.577018 
L 115.455531 52.050451 
L 116.160541 51.959655 
L 116.865551 52.169721 
L 118.980581 52.040882 
L 119.685591 51.891069 
L 120.390601 52.512327 
L 121.095611 51.964748 
L 121.800621 52.049287 
L 122.505631 52.908504 
L 123.210641 52.062235 
L 123.915651 52.991451 
L 124.620661 53.110309 
L 125.325671 53.007089 
L 126.030681 53.293031 
L 126.735691 52.642706 
L 127.440701 53.289954 
L 128.145711 53.486722 
L 128.850721 53.240961 
L 129.555731 53.687594 
L 130.260741 53.697436 
L 130.965752 53.562526 
L 131.670762 53.624972 
L 132.375772 53.35493 
L 133.080782 53.611653 
L 133.785792 53.541073 
L 134.490802 53.597188 
L 135.195812 53.443678 
L 135.900822 53.117852 
L 136.605832 53.113343 
L 137.310842 53.931592 
L 138.015852 54.108839 
L 138.720862 53.723149 
L 139.425872 54.175195 
L 140.130882 53.963992 
L 142.245912 54.493783 
L 142.950922 54.143778 
L 143.655932 54.300519 
L 145.065952 54.397164 
L 145.770962 54.543725 
L 146.475972 54.541574 
L 147.180982 54.427665 
L 147.885992 53.362419 
L 148.591002 54.629219 
L 149.296012 54.232409 
L 150.001022 54.848157 
L 150.706032 54.140578 
L 151.411042 54.892579 
L 152.116052 54.686195 
L 152.821062 53.72229 
L 153.526072 54.723042 
L 154.936092 55.1191 
L 155.641102 54.762081 
L 156.346112 55.080676 
L 157.051122 53.974715 
L 157.756132 55.286641 
L 158.461142 54.286142 
L 159.166152 55.189638 
L 159.871162 55.021039 
L 160.576172 55.257871 
L 161.281182 54.855152 
L 161.986192 55.142852 
L 164.101222 55.420436 
L 164.806232 54.708646 
L 165.511242 55.456799 
L 166.216253 55.05503 
L 166.921263 55.528337 
L 168.331283 55.632829 
L 169.036293 54.458868 
L 169.741303 55.957656 
L 170.446313 55.477271 
L 171.151323 55.66506 
L 171.856333 55.290693 
L 172.561343 56.016191 
L 173.971363 55.592476 
L 174.676373 55.706468 
L 175.381383 55.384853 
L 176.086393 55.584816 
L 176.791403 56.503989 
L 177.496413 55.571625 
L 178.201423 55.307736 
L 178.906433 55.942242 
L 179.611443 55.872248 
L 181.021463 56.224875 
L 181.726473 55.857532 
L 182.431483 56.167459 
L 183.841503 55.960256 
L 184.546513 56.444701 
L 185.251523 56.160649 
L 185.956533 56.374479 
L 186.661543 56.309965 
L 187.366553 55.858391 
L 188.071563 56.044328 
L 188.776573 55.33374 
L 189.481583 56.33763 
L 190.186593 56.187618 
L 190.891603 55.480476 
L 191.596613 56.037952 
L 192.301623 56.091079 
L 193.006633 56.403951 
L 193.711643 56.896491 
L 194.416653 55.818778 
L 195.121663 56.324063 
L 195.826673 56.105081 
L 196.531683 56.540562 
L 197.236693 56.456272 
L 197.941703 56.761462 
L 199.351723 56.399062 
L 200.056733 56.30303 
L 200.761743 56.489759 
L 201.466754 55.706135 
L 202.171764 56.400508 
L 202.876774 56.711244 
L 203.581784 56.691435 
L 204.286794 56.852029 
L 204.991804 56.799595 
L 205.696814 56.100192 
L 207.106834 56.968764 
L 207.811844 56.47796 
L 208.516854 57.079838 
L 210.631884 56.755071 
L 211.336894 56.741995 
L 212.041904 57.08717 
L 212.746914 56.543294 
L 213.451924 57.117224 
L 214.156934 56.424647 
L 215.566954 57.287725 
L 217.681984 56.819709 
L 218.386994 57.077211 
L 219.092004 57.068916 
L 219.797014 57.338193 
L 220.502024 56.786482 
L 221.207034 57.796989 
L 221.912044 56.849561 
L 222.617054 57.391099 
L 223.322064 57.403439 
L 224.027074 56.750154 
L 224.732084 57.513811 
L 225.437094 57.288638 
L 226.142104 57.42992 
L 226.847114 56.928022 
L 227.552124 57.301018 
L 228.257134 57.173366 
L 228.962144 57.452298 
L 229.667154 57.158955 
L 230.372164 57.567084 
L 231.077174 57.501592 
L 231.782184 57.196998 
L 233.897214 57.456182 
L 235.307234 57.323442 
L 236.012244 57.544403 
L 236.717255 57.488544 
L 237.422265 57.185008 
L 238.127275 57.025159 
L 238.832285 57.436738 
L 239.537295 57.699378 
L 241.652325 57.366525 
L 242.357335 57.652336 
L 243.062345 57.732311 
L 243.767355 57.606851 
L 245.177375 57.915743 
L 245.882385 57.675226 
L 246.587395 57.616885 
L 247.292405 57.821195 
L 247.997415 57.561113 
L 248.702425 57.906956 
L 249.407435 57.52442 
L 251.522465 57.773002 
L 252.227475 57.699023 
L 252.932485 57.926946 
L 253.637495 57.870514 
L 254.342505 58.010437 
L 255.047515 57.837166 
L 255.752525 58.053062 
L 257.162545 57.917295 
L 257.867555 58.063599 
L 258.572565 57.17204 
L 259.277575 57.951957 
L 260.687595 57.68165 
L 261.392605 57.779102 
L 262.097615 57.607027 
L 262.802625 57.926241 
L 263.507635 57.719231 
L 264.212645 57.960314 
L 264.917655 57.720448 
L 265.622665 58.091877 
L 266.327675 57.731648 
L 267.032685 57.546781 
L 267.737695 58.286204 
L 268.442705 57.925109 
L 269.147715 57.904957 
L 269.852725 58.23158 
L 270.557735 58.282728 
L 271.262745 57.670583 
L 271.967756 58.2144 
L 272.672766 58.001424 
L 274.082786 58.146616 
L 274.787796 57.980314 
L 275.492806 58.23954 
L 278.312846 57.879308 
L 279.017856 58.511834 
L 279.722866 57.42773 
L 280.427876 57.753267 
L 281.132886 57.890228 
L 281.837896 57.340892 
L 282.542906 58.309385 
L 283.247916 57.997059 
L 283.952926 58.763377 
L 284.657936 58.091229 
L 285.362946 58.183076 
L 286.067956 57.908235 
L 286.772966 58.645083 
L 287.477976 58.480593 
L 288.182986 57.914154 
L 288.887996 57.860428 
L 289.593006 58.150393 
L 290.298016 57.798561 
L 291.003026 57.640358 
L 291.708036 58.482066 
L 292.413046 58.309109 
L 293.118056 58.466331 
L 294.528076 58.315483 
L 295.233086 58.928552 
L 296.643106 58.29015 
L 297.348116 58.543742 
L 298.053126 57.903976 
L 298.758136 58.327312 
L 299.463146 58.497033 
L 300.873166 58.479267 
L 302.283186 58.617088 
L 302.988196 58.511841 
L 305.103226 58.680129 
L 305.808236 58.520653 
L 307.923267 58.752316 
L 308.628277 58.263461 
L 309.333287 58.154805 
L 310.743307 59.101275 
L 311.448317 58.538977 
L 312.153327 58.16673 
L 313.563347 58.826657 
L 314.268357 58.137752 
L 314.973367 58.474997 
L 315.678377 58.399784 
L 316.383387 58.50287 
L 317.088397 58.756477 
L 317.793407 58.789741 
L 318.498417 58.60326 
L 319.203427 58.616668 
L 319.908437 58.827663 
L 320.613447 58.534555 
L 322.023467 58.747988 
L 322.728477 58.214646 
L 323.433487 58.927948 
L 324.138497 58.990374 
L 324.843507 58.443746 
L 325.548517 58.862444 
L 326.253527 59.010568 
L 326.958537 58.162152 
L 327.663547 58.801383 
L 328.368557 58.140886 
L 329.073567 58.989103 
L 331.188597 58.885168 
L 331.893607 57.489416 
L 332.598617 58.583767 
L 333.303627 59.208334 
L 334.008637 58.720179 
L 334.713647 58.849051 
L 335.418657 57.866653 
L 336.123667 58.856154 
L 336.828677 59.181089 
L 337.533687 58.796594 
L 338.238697 59.171946 
L 338.943707 58.788492 
L 339.648717 58.973416 
L 340.353727 58.406892 
L 341.058737 58.891693 
L 343.173768 58.820636 
L 343.878778 59.101679 
L 344.583788 58.326189 
L 345.288798 58.475536 
L 345.993808 59.32605 
L 346.698818 58.976728 
L 348.108838 59.284816 
L 348.813848 58.945145 
L 349.518858 58.95825 
L 350.223868 59.106188 
L 351.633888 58.962337 
L 352.338898 58.67743 
L 353.043908 59.381014 
L 353.748918 58.403111 
L 354.453928 58.842066 
L 355.158938 59.455048 
L 355.863948 58.046561 
L 356.568958 59.247701 
L 357.273968 59.450542 
L 357.978978 59.046456 
L 358.683988 59.198181 
L 359.388998 59.005399 
L 360.094008 59.22928 
L 360.799018 58.515359 
L 361.504028 59.28861 
L 362.914048 58.95317 
L 363.619058 59.19543 
L 365.029078 59.378579 
L 365.734088 59.201238 
L 366.439098 59.464642 
L 367.144108 58.786086 
L 368.554128 59.274437 
L 369.259138 59.208448 
L 369.964148 59.267182 
L 370.669158 59.04369 
L 371.374168 59.300192 
L 372.784188 59.449576 
L 373.489198 59.225605 
L 374.194208 59.372774 
L 374.899218 59.255254 
L 375.604228 58.767496 
L 376.309238 59.398579 
L 377.719259 59.164689 
L 378.424269 58.914563 
L 379.129279 59.378407 
L 379.834289 59.171601 
L 380.539299 59.235867 
L 381.244309 58.784323 
L 382.654329 59.539905 
L 383.359339 59.488714 
L 384.064349 59.322166 
L 384.769359 58.853567 
L 385.474369 59.764799 
L 386.179379 59.645209 
L 386.884389 59.09361 
L 387.589399 59.228346 
L 388.294409 58.942121 
L 388.999419 59.140433 
L 389.704429 58.92768 
L 390.409439 59.44563 
L 391.114449 59.05504 
L 391.819459 59.131564 
L 392.524469 59.478388 
L 393.934489 59.400163 
L 394.639499 59.516401 
L 395.344509 59.25902 
L 396.049519 59.223748 
L 396.754529 59.484995 
L 397.459539 59.491051 
L 398.164549 59.335023 
L 398.869559 59.624918 
L 399.574569 59.355175 
L 400.279579 59.209953 
L 400.984589 59.495428 
L 402.394609 59.234134 
L 403.099619 58.980381 
L 403.804629 59.541221 
L 404.509639 59.087559 
L 405.214649 58.883998 
L 405.919659 58.96369 
L 406.624669 59.722165 
L 407.329679 59.580883 
L 408.034689 58.94522 
L 410.149719 59.453928 
L 410.854729 59.324533 
L 411.559739 57.772935 
L 412.264749 58.871104 
L 412.96976 58.270237 
L 413.67477 59.333672 
L 414.37978 58.740542 
L 415.08479 58.526232 
L 415.7898 59.715443 
L 416.49481 59.404875 
L 417.19982 58.78835 
L 417.90483 59.518497 
L 420.01986 59.421037 
L 420.72487 59.671612 
L 421.42988 59.498986 
L 422.13489 59.665189 
L 422.8399 59.67877 
L 423.54491 59.42016 
L 424.24992 59.456347 
L 424.95493 59.243204 
L 425.65994 59.596784 
L 426.36495 60.171553 
L 427.06996 59.047668 
L 427.77497 59.055124 
L 428.47998 59.787357 
L 429.18499 59.726353 
L 429.89 59.801494 
L 429.89 59.801494 
" style="fill:none;stroke:#ffa500;stroke-linecap:square;stroke-width:1.5;"/>
   </g>
   <g id="patch_3">
    <path d="M 60.5 136.24 
L 60.5 25.44 
" style="fill:none;stroke:#000000;stroke-linecap:square;stroke-linejoin:miter;stroke-width:0.8;"/>
   </g>
   <g id="patch_4">
    <path d="M 447.48 136.24 
L 447.48 25.44 
" style="fill:none;stroke:#000000;stroke-linecap:square;stroke-linejoin:miter;stroke-width:0.8;"/>
   </g>
   <g id="patch_5">
    <path d="M 60.5 136.24 
L 447.48 136.24 
" style="fill:none;stroke:#000000;stroke-linecap:square;stroke-linejoin:miter;stroke-width:0.8;"/>
   </g>
   <g id="patch_6">
    <path d="M 60.5 25.44 
L 447.48 25.44 
" style="fill:none;stroke:#000000;stroke-linecap:square;stroke-linejoin:miter;stroke-width:0.8;"/>
   </g>
   <g id="text_13">
    <!-- model loss -->
    <defs>
     <path d="M 52 44.1875 
Q 55.375 50.25 60.0625 53.125 
Q 64.75 56 71.09375 56 
Q 79.640625 56 84.28125 50.015625 
Q 88.921875 44.046875 88.921875 33.015625 
L 88.921875 0 
L 79.890625 0 
L 79.890625 32.71875 
Q 79.890625 40.578125 77.09375 44.375 
Q 74.3125 48.1875 68.609375 48.1875 
Q 61.625 48.1875 57.5625 43.546875 
Q 53.515625 38.921875 53.515625 30.90625 
L 53.515625 0 
L 44.484375 0 
L 44.484375 32.71875 
Q 44.484375 40.625 41.703125 44.40625 
Q 38.921875 48.1875 33.109375 48.1875 
Q 26.21875 48.1875 22.15625 43.53125 
Q 18.109375 38.875 18.109375 30.90625 
L 18.109375 0 
L 9.078125 0 
L 9.078125 54.6875 
L 18.109375 54.6875 
L 18.109375 46.1875 
Q 21.1875 51.21875 25.484375 53.609375 
Q 29.78125 56 35.6875 56 
Q 41.65625 56 45.828125 52.96875 
Q 50 49.953125 52 44.1875 
z
" id="DejaVuSans-109"/>
     <path d="M 45.40625 46.390625 
L 45.40625 75.984375 
L 54.390625 75.984375 
L 54.390625 0 
L 45.40625 0 
L 45.40625 8.203125 
Q 42.578125 3.328125 38.25 0.953125 
Q 33.9375 -1.421875 27.875 -1.421875 
Q 17.96875 -1.421875 11.734375 6.484375 
Q 5.515625 14.40625 5.515625 27.296875 
Q 5.515625 40.1875 11.734375 48.09375 
Q 17.96875 56 27.875 56 
Q 33.9375 56 38.25 53.625 
Q 42.578125 51.265625 45.40625 46.390625 
z
M 14.796875 27.296875 
Q 14.796875 17.390625 18.875 11.75 
Q 22.953125 6.109375 30.078125 6.109375 
Q 37.203125 6.109375 41.296875 11.75 
Q 45.40625 17.390625 45.40625 27.296875 
Q 45.40625 37.203125 41.296875 42.84375 
Q 37.203125 48.484375 30.078125 48.484375 
Q 22.953125 48.484375 18.875 42.84375 
Q 14.796875 37.203125 14.796875 27.296875 
z
" id="DejaVuSans-100"/>
     <path id="DejaVuSans-32"/>
    </defs>
    <g transform="translate(221.810313 19.44)scale(0.12 -0.12)">
     <use xlink:href="#DejaVuSans-109"/>
     <use x="97.412109" xlink:href="#DejaVuSans-111"/>
     <use x="158.59375" xlink:href="#DejaVuSans-100"/>
     <use x="222.070312" xlink:href="#DejaVuSans-101"/>
     <use x="283.59375" xlink:href="#DejaVuSans-108"/>
     <use x="311.376953" xlink:href="#DejaVuSans-32"/>
     <use x="343.164062" xlink:href="#DejaVuSans-108"/>
     <use x="370.947266" xlink:href="#DejaVuSans-111"/>
     <use x="432.128906" xlink:href="#DejaVuSans-115"/>
     <use x="484.228516" xlink:href="#DejaVuSans-115"/>
    </g>
   </g>
   <g id="legend_1">
    <g id="patch_7">
     <path d="M 67.5 62.79625 
L 122.775 62.79625 
Q 124.775 62.79625 124.775 60.79625 
L 124.775 32.44 
Q 124.775 30.44 122.775 30.44 
L 67.5 30.44 
Q 65.5 30.44 65.5 32.44 
L 65.5 60.79625 
Q 65.5 62.79625 67.5 62.79625 
z
" style="fill:#ffffff;opacity:0.8;stroke:#cccccc;stroke-linejoin:miter;"/>
    </g>
    <g id="line2d_13">
     <path d="M 69.5 38.538437 
L 89.5 38.538437 
" style="fill:none;stroke:#0000ff;stroke-linecap:square;stroke-width:1.5;"/>
    </g>
    <g id="line2d_14"/>
    <g id="text_14">
     <!-- train -->
     <defs>
      <path d="M 18.3125 70.21875 
L 18.3125 54.6875 
L 36.8125 54.6875 
L 36.8125 47.703125 
L 18.3125 47.703125 
L 18.3125 18.015625 
Q 18.3125 11.328125 20.140625 9.421875 
Q 21.96875 7.515625 27.59375 7.515625 
L 36.8125 7.515625 
L 36.8125 0 
L 27.59375 0 
Q 17.1875 0 13.234375 3.875 
Q 9.28125 7.765625 9.28125 18.015625 
L 9.28125 47.703125 
L 2.6875 47.703125 
L 2.6875 54.6875 
L 9.28125 54.6875 
L 9.28125 70.21875 
z
" id="DejaVuSans-116"/>
      <path d="M 41.109375 46.296875 
Q 39.59375 47.171875 37.8125 47.578125 
Q 36.03125 48 33.890625 48 
Q 26.265625 48 22.1875 43.046875 
Q 18.109375 38.09375 18.109375 28.8125 
L 18.109375 0 
L 9.078125 0 
L 9.078125 54.6875 
L 18.109375 54.6875 
L 18.109375 46.1875 
Q 20.953125 51.171875 25.484375 53.578125 
Q 30.03125 56 36.53125 56 
Q 37.453125 56 38.578125 55.875 
Q 39.703125 55.765625 41.0625 55.515625 
z
" id="DejaVuSans-114"/>
      <path d="M 34.28125 27.484375 
Q 23.390625 27.484375 19.1875 25 
Q 14.984375 22.515625 14.984375 16.5 
Q 14.984375 11.71875 18.140625 8.90625 
Q 21.296875 6.109375 26.703125 6.109375 
Q 34.1875 6.109375 38.703125 11.40625 
Q 43.21875 16.703125 43.21875 25.484375 
L 43.21875 27.484375 
z
M 52.203125 31.203125 
L 52.203125 0 
L 43.21875 0 
L 43.21875 8.296875 
Q 40.140625 3.328125 35.546875 0.953125 
Q 30.953125 -1.421875 24.3125 -1.421875 
Q 15.921875 -1.421875 10.953125 3.296875 
Q 6 8.015625 6 15.921875 
Q 6 25.140625 12.171875 29.828125 
Q 18.359375 34.515625 30.609375 34.515625 
L 43.21875 34.515625 
L 43.21875 35.40625 
Q 43.21875 41.609375 39.140625 45 
Q 35.0625 48.390625 27.6875 48.390625 
Q 23 48.390625 18.546875 47.265625 
Q 14.109375 46.140625 10.015625 43.890625 
L 10.015625 52.203125 
Q 14.9375 54.109375 19.578125 55.046875 
Q 24.21875 56 28.609375 56 
Q 40.484375 56 46.34375 49.84375 
Q 52.203125 43.703125 52.203125 31.203125 
z
" id="DejaVuSans-97"/>
      <path d="M 9.421875 54.6875 
L 18.40625 54.6875 
L 18.40625 0 
L 9.421875 0 
z
M 9.421875 75.984375 
L 18.40625 75.984375 
L 18.40625 64.59375 
L 9.421875 64.59375 
z
" id="DejaVuSans-105"/>
      <path d="M 54.890625 33.015625 
L 54.890625 0 
L 45.90625 0 
L 45.90625 32.71875 
Q 45.90625 40.484375 42.875 44.328125 
Q 39.84375 48.1875 33.796875 48.1875 
Q 26.515625 48.1875 22.3125 43.546875 
Q 18.109375 38.921875 18.109375 30.90625 
L 18.109375 0 
L 9.078125 0 
L 9.078125 54.6875 
L 18.109375 54.6875 
L 18.109375 46.1875 
Q 21.34375 51.125 25.703125 53.5625 
Q 30.078125 56 35.796875 56 
Q 45.21875 56 50.046875 50.171875 
Q 54.890625 44.34375 54.890625 33.015625 
z
" id="DejaVuSans-110"/>
     </defs>
     <g transform="translate(97.5 42.038437)scale(0.1 -0.1)">
      <use xlink:href="#DejaVuSans-116"/>
      <use x="39.208984" xlink:href="#DejaVuSans-114"/>
      <use x="80.322266" xlink:href="#DejaVuSans-97"/>
      <use x="141.601562" xlink:href="#DejaVuSans-105"/>
      <use x="169.384766" xlink:href="#DejaVuSans-110"/>
     </g>
    </g>
    <g id="line2d_15">
     <path d="M 69.5 53.216563 
L 89.5 53.216563 
" style="fill:none;stroke:#ffa500;stroke-linecap:square;stroke-width:1.5;"/>
    </g>
    <g id="line2d_16"/>
    <g id="text_15">
     <!-- test -->
     <g transform="translate(97.5 56.716563)scale(0.1 -0.1)">
      <use xlink:href="#DejaVuSans-116"/>
      <use x="39.208984" xlink:href="#DejaVuSans-101"/>
      <use x="100.732422" xlink:href="#DejaVuSans-115"/>
      <use x="152.832031" xlink:href="#DejaVuSans-116"/>
     </g>
    </g>
   </g>
  </g>
  <g id="axes_2">
   <g id="patch_8">
    <path d="M 60.5 303.64 
L 447.48 303.64 
L 447.48 192.84 
L 60.5 192.84 
z
" style="fill:#ffffff;"/>
   </g>
   <g id="matplotlib.axis_3">
    <g id="xtick_7">
     <g id="line2d_17">
      <g>
       <use style="stroke:#000000;stroke-width:0.8;" x="78.09" xlink:href="#mf7618f2a8e" y="303.64"/>
      </g>
     </g>
     <g id="text_16">
      <!-- 0 -->
      <g transform="translate(74.90875 318.238437)scale(0.1 -0.1)">
       <use xlink:href="#DejaVuSans-48"/>
      </g>
     </g>
    </g>
    <g id="xtick_8">
     <g id="line2d_18">
      <g>
       <use style="stroke:#000000;stroke-width:0.8;" x="148.591002" xlink:href="#mf7618f2a8e" y="303.64"/>
      </g>
     </g>
     <g id="text_17">
      <!-- 100 -->
      <g transform="translate(139.047252 318.238437)scale(0.1 -0.1)">
       <use xlink:href="#DejaVuSans-49"/>
       <use x="63.623047" xlink:href="#DejaVuSans-48"/>
       <use x="127.246094" xlink:href="#DejaVuSans-48"/>
      </g>
     </g>
    </g>
    <g id="xtick_9">
     <g id="line2d_19">
      <g>
       <use style="stroke:#000000;stroke-width:0.8;" x="219.092004" xlink:href="#mf7618f2a8e" y="303.64"/>
      </g>
     </g>
     <g id="text_18">
      <!-- 200 -->
      <g transform="translate(209.548254 318.238437)scale(0.1 -0.1)">
       <use xlink:href="#DejaVuSans-50"/>
       <use x="63.623047" xlink:href="#DejaVuSans-48"/>
       <use x="127.246094" xlink:href="#DejaVuSans-48"/>
      </g>
     </g>
    </g>
    <g id="xtick_10">
     <g id="line2d_20">
      <g>
       <use style="stroke:#000000;stroke-width:0.8;" x="289.593006" xlink:href="#mf7618f2a8e" y="303.64"/>
      </g>
     </g>
     <g id="text_19">
      <!-- 300 -->
      <g transform="translate(280.049256 318.238437)scale(0.1 -0.1)">
       <use xlink:href="#DejaVuSans-51"/>
       <use x="63.623047" xlink:href="#DejaVuSans-48"/>
       <use x="127.246094" xlink:href="#DejaVuSans-48"/>
      </g>
     </g>
    </g>
    <g id="xtick_11">
     <g id="line2d_21">
      <g>
       <use style="stroke:#000000;stroke-width:0.8;" x="360.094008" xlink:href="#mf7618f2a8e" y="303.64"/>
      </g>
     </g>
     <g id="text_20">
      <!-- 400 -->
      <g transform="translate(350.550258 318.238437)scale(0.1 -0.1)">
       <use xlink:href="#DejaVuSans-52"/>
       <use x="63.623047" xlink:href="#DejaVuSans-48"/>
       <use x="127.246094" xlink:href="#DejaVuSans-48"/>
      </g>
     </g>
    </g>
    <g id="xtick_12">
     <g id="line2d_22">
      <g>
       <use style="stroke:#000000;stroke-width:0.8;" x="430.59501" xlink:href="#mf7618f2a8e" y="303.64"/>
      </g>
     </g>
     <g id="text_21">
      <!-- 500 -->
      <g transform="translate(421.05126 318.238437)scale(0.1 -0.1)">
       <use xlink:href="#DejaVuSans-53"/>
       <use x="63.623047" xlink:href="#DejaVuSans-48"/>
       <use x="127.246094" xlink:href="#DejaVuSans-48"/>
      </g>
     </g>
    </g>
    <g id="text_22">
     <!-- epoch -->
     <g transform="translate(238.761875 331.916562)scale(0.1 -0.1)">
      <use xlink:href="#DejaVuSans-101"/>
      <use x="61.523438" xlink:href="#DejaVuSans-112"/>
      <use x="125" xlink:href="#DejaVuSans-111"/>
      <use x="186.181641" xlink:href="#DejaVuSans-99"/>
      <use x="241.162109" xlink:href="#DejaVuSans-104"/>
     </g>
    </g>
   </g>
   <g id="matplotlib.axis_4">
    <g id="ytick_5">
     <g id="line2d_23">
      <g>
       <use style="stroke:#000000;stroke-width:0.8;" x="60.5" xlink:href="#ma904909cba" y="277.88127"/>
      </g>
     </g>
     <g id="text_23">
      <!-- 0.39 -->
      <g transform="translate(31.234375 281.680488)scale(0.1 -0.1)">
       <use xlink:href="#DejaVuSans-48"/>
       <use x="63.623047" xlink:href="#DejaVuSans-46"/>
       <use x="95.410156" xlink:href="#DejaVuSans-51"/>
       <use x="159.033203" xlink:href="#DejaVuSans-57"/>
      </g>
     </g>
    </g>
    <g id="ytick_6">
     <g id="line2d_24">
      <g>
       <use style="stroke:#000000;stroke-width:0.8;" x="60.5" xlink:href="#ma904909cba" y="248.599663"/>
      </g>
     </g>
     <g id="text_24">
      <!-- 0.40 -->
      <g transform="translate(31.234375 252.398881)scale(0.1 -0.1)">
       <use xlink:href="#DejaVuSans-48"/>
       <use x="63.623047" xlink:href="#DejaVuSans-46"/>
       <use x="95.410156" xlink:href="#DejaVuSans-52"/>
       <use x="159.033203" xlink:href="#DejaVuSans-48"/>
      </g>
     </g>
    </g>
    <g id="ytick_7">
     <g id="line2d_25">
      <g>
       <use style="stroke:#000000;stroke-width:0.8;" x="60.5" xlink:href="#ma904909cba" y="219.318056"/>
      </g>
     </g>
     <g id="text_25">
      <!-- 0.41 -->
      <g transform="translate(31.234375 223.117274)scale(0.1 -0.1)">
       <use xlink:href="#DejaVuSans-48"/>
       <use x="63.623047" xlink:href="#DejaVuSans-46"/>
       <use x="95.410156" xlink:href="#DejaVuSans-52"/>
       <use x="159.033203" xlink:href="#DejaVuSans-49"/>
      </g>
     </g>
    </g>
    <g id="text_26">
     <!-- accuracy -->
     <defs>
      <path d="M 8.5 21.578125 
L 8.5 54.6875 
L 17.484375 54.6875 
L 17.484375 21.921875 
Q 17.484375 14.15625 20.5 10.265625 
Q 23.53125 6.390625 29.59375 6.390625 
Q 36.859375 6.390625 41.078125 11.03125 
Q 45.3125 15.671875 45.3125 23.6875 
L 45.3125 54.6875 
L 54.296875 54.6875 
L 54.296875 0 
L 45.3125 0 
L 45.3125 8.40625 
Q 42.046875 3.421875 37.71875 1 
Q 33.40625 -1.421875 27.6875 -1.421875 
Q 18.265625 -1.421875 13.375 4.4375 
Q 8.5 10.296875 8.5 21.578125 
z
M 31.109375 56 
z
" id="DejaVuSans-117"/>
      <path d="M 32.171875 -5.078125 
Q 28.375 -14.84375 24.75 -17.8125 
Q 21.140625 -20.796875 15.09375 -20.796875 
L 7.90625 -20.796875 
L 7.90625 -13.28125 
L 13.1875 -13.28125 
Q 16.890625 -13.28125 18.9375 -11.515625 
Q 21 -9.765625 23.484375 -3.21875 
L 25.09375 0.875 
L 2.984375 54.6875 
L 12.5 54.6875 
L 29.59375 11.921875 
L 46.6875 54.6875 
L 56.203125 54.6875 
z
" id="DejaVuSans-121"/>
     </defs>
     <g transform="translate(25.154688 270.799375)rotate(-90)scale(0.1 -0.1)">
      <use xlink:href="#DejaVuSans-97"/>
      <use x="61.279297" xlink:href="#DejaVuSans-99"/>
      <use x="116.259766" xlink:href="#DejaVuSans-99"/>
      <use x="171.240234" xlink:href="#DejaVuSans-117"/>
      <use x="234.619141" xlink:href="#DejaVuSans-114"/>
      <use x="275.732422" xlink:href="#DejaVuSans-97"/>
      <use x="337.011719" xlink:href="#DejaVuSans-99"/>
      <use x="391.992188" xlink:href="#DejaVuSans-121"/>
     </g>
    </g>
   </g>
   <g id="line2d_26">
    <path clip-path="url(#pfe11b722bb)" d="M 78.09 203.165944 
L 78.79501 210.439117 
L 79.50002 209.305634 
L 80.20503 210.911401 
L 80.91004 208.738894 
L 81.61505 205.90519 
L 82.32006 204.960623 
L 83.02507 207.98324 
L 83.73008 205.243994 
L 84.43509 208.927809 
L 85.1401 205.432907 
L 85.84511 204.20497 
L 86.55012 209.21118 
L 87.25513 210.250204 
L 87.96014 209.494548 
L 88.66515 212.044883 
L 89.37016 207.133129 
L 90.07517 208.172153 
L 90.78018 212.706081 
L 91.48519 210.62803 
L 92.1902 208.077699 
L 92.89521 199.482128 
L 93.60022 208.361065 
L 94.30523 209.116723 
L 95.01024 211.855968 
L 96.420261 203.165944 
L 97.125271 208.738896 
L 97.830281 206.944216 
L 98.535291 201.560178 
L 99.240301 205.33845 
L 99.945311 204.393882 
L 100.650321 207.699869 
L 101.355331 208.455525 
L 102.060341 211.100316 
L 102.765351 207.605413 
L 104.175371 207.98324 
L 104.880381 209.494551 
L 105.585391 207.69987 
L 106.290401 206.660845 
L 106.995411 209.211179 
L 107.700421 208.833351 
L 108.405431 209.400093 
L 109.110441 208.833352 
L 109.815451 206.566388 
L 110.520461 207.699871 
L 111.225471 207.13313 
L 111.930481 206.755303 
L 112.635491 209.683463 
L 113.340501 216.295439 
L 114.045511 208.92781 
L 114.750521 207.983243 
L 115.455531 210.439117 
L 116.160541 199.482129 
L 116.865551 206.188561 
L 117.570561 205.33845 
L 118.275571 205.905191 
L 118.980581 210.911401 
L 119.685591 204.677252 
L 120.390601 205.527364 
L 121.095611 211.289227 
L 121.800621 207.699871 
L 122.505631 208.549981 
L 123.210641 207.510956 
L 123.915651 207.510957 
L 124.620661 208.455525 
L 125.325671 207.322044 
L 126.030681 213.178365 
L 126.735691 203.354856 
L 127.440701 203.260401 
L 128.145711 204.582796 
L 128.850721 207.888783 
L 129.555731 198.632017 
L 130.260741 204.393881 
L 130.965752 202.882574 
L 131.670762 202.69366 
L 132.375772 207.4165 
L 133.080782 207.98324 
L 133.785792 205.810735 
L 134.490802 208.077697 
L 135.195812 206.283018 
L 135.900822 206.566387 
L 136.605832 203.921598 
L 137.310842 209.022266 
L 138.015852 208.077697 
L 138.720862 205.149536 
L 139.425872 210.061288 
L 140.130882 202.977032 
L 140.835892 208.54998 
L 141.540902 203.638228 
L 142.245912 208.172156 
L 142.950922 201.654635 
L 143.655932 206.849758 
L 144.360942 210.911402 
L 145.065952 212.044883 
L 145.770962 207.038672 
L 146.475972 206.094105 
L 147.180982 201.560179 
L 147.885992 204.677253 
L 148.591002 210.155745 
L 150.001022 205.33845 
L 150.706032 205.149536 
L 151.411042 209.872378 
L 152.116052 207.416501 
L 152.821062 202.788117 
L 153.526072 202.599204 
L 154.936092 211.194771 
L 155.641102 210.722488 
L 156.346112 205.999648 
L 157.051122 209.966833 
L 157.756132 204.110511 
L 158.461142 208.266612 
L 159.166152 201.465721 
L 160.576172 214.973044 
L 161.281182 206.094104 
L 161.986192 206.755302 
L 162.691202 206.755303 
L 163.396212 203.165943 
L 164.101222 202.599204 
L 164.806232 209.21118 
L 165.511242 207.322043 
L 166.216253 212.139339 
L 166.921263 208.833352 
L 167.626273 207.983241 
L 168.331283 211.478144 
L 169.036293 207.322044 
L 169.741303 207.69987 
L 170.446313 205.243995 
L 171.151323 207.605413 
L 171.856333 206.755302 
L 172.561343 208.738895 
L 173.266353 205.716278 
L 173.971363 211.950427 
L 174.676373 208.361067 
L 175.381383 202.882574 
L 176.086393 209.211178 
L 176.791403 206.283019 
L 177.496413 205.999648 
L 178.201423 203.071486 
L 178.906433 204.110511 
L 179.611443 206.849759 
L 180.316453 205.33845 
L 181.021463 207.038671 
L 181.726473 204.299424 
L 182.431483 199.671042 
L 183.136493 212.422709 
L 183.841503 199.765498 
L 184.546513 210.816944 
L 185.251523 209.022266 
L 185.956533 208.172153 
L 186.661543 209.494549 
L 187.366553 208.455524 
L 188.071563 213.556191 
L 188.776573 204.677252 
L 189.481583 201.654636 
L 190.186593 204.299425 
L 190.891603 207.888784 
L 192.301623 204.677253 
L 193.006633 208.266611 
L 193.711643 206.188562 
L 194.416653 203.165943 
L 195.121663 208.26661 
L 195.826673 210.533574 
L 196.531683 205.527363 
L 197.236693 205.05508 
L 197.941703 205.05508 
L 198.646713 206.566389 
L 199.351723 202.41029 
L 200.056733 207.605413 
L 200.761743 207.794327 
L 201.466754 203.449314 
L 202.171764 200.993438 
L 202.876774 205.810734 
L 203.581784 208.455524 
L 204.286794 204.016055 
L 204.991804 201.938005 
L 205.696814 206.377475 
L 206.401824 206.944215 
L 207.106834 211.005858 
L 207.811844 206.283019 
L 208.516854 207.227587 
L 209.221864 212.611624 
L 209.926874 207.038672 
L 210.631884 209.211179 
L 212.041904 205.527362 
L 212.746914 206.188562 
L 213.451924 210.533574 
L 214.156934 201.371265 
L 214.861944 210.816944 
L 215.566954 205.999648 
L 216.271964 203.543771 
L 216.976974 199.293214 
L 217.681984 209.494549 
L 218.386994 202.599203 
L 219.092004 206.283018 
L 219.797014 207.322044 
L 220.502024 205.716279 
L 221.207034 206.471933 
L 221.912044 212.894993 
L 222.617054 214.217388 
L 223.322064 204.11051 
L 224.027074 208.833353 
L 224.732084 204.299426 
L 225.437094 202.882573 
L 226.847114 207.416498 
L 227.552124 205.905191 
L 228.257134 207.510955 
L 228.962144 199.765499 
L 229.667154 213.745106 
L 230.372164 210.061289 
L 231.077174 204.48834 
L 231.782184 205.33845 
L 232.487194 207.605414 
L 233.192204 202.977031 
L 233.897214 208.738895 
L 234.602224 204.110511 
L 235.307234 206.944217 
L 236.012244 208.833351 
L 236.717255 209.211178 
L 237.422265 203.260401 
L 238.127275 203.732684 
L 238.832285 208.549982 
L 239.537295 209.022264 
L 240.242305 205.716277 
L 240.947315 204.110511 
L 241.652325 204.866165 
L 242.357335 207.794327 
L 243.062345 207.888783 
L 243.767355 209.494549 
L 244.472365 199.671042 
L 245.177375 207.699869 
L 245.882385 209.022266 
L 246.587395 208.455525 
L 247.292405 201.654634 
L 247.997415 208.54998 
L 248.702425 206.094104 
L 249.407435 207.038671 
L 250.112445 207.4165 
L 250.817455 212.139339 
L 251.522465 205.999647 
L 252.227475 204.299426 
L 252.932485 205.432906 
L 253.637495 209.305637 
L 254.342505 205.338449 
L 255.047515 204.488339 
L 255.752525 208.26661 
L 256.457535 205.05508 
L 257.162545 207.322044 
L 257.867555 202.315833 
L 258.572565 207.13313 
L 259.277575 213.556191 
L 259.982585 199.954414 
L 260.687595 204.016054 
L 261.392605 204.393883 
L 262.097615 203.54377 
L 262.802625 208.644439 
L 263.507635 207.888784 
L 264.212645 205.149535 
L 264.917655 208.077698 
L 265.622665 202.315834 
L 266.327675 209.400093 
L 267.032685 209.400093 
L 267.737695 211.383686 
L 268.442705 206.377476 
L 269.147715 210.061289 
L 269.852725 203.827142 
L 270.557735 209.400091 
L 271.262745 211.761513 
L 271.967756 199.387672 
L 272.672766 208.26661 
L 273.377776 204.77171 
L 274.082786 206.188561 
L 274.787796 208.644438 
L 275.492806 206.283018 
L 276.197816 201.087895 
L 276.902826 209.589005 
L 277.607836 210.628031 
L 278.312846 209.400093 
L 279.017856 203.827141 
L 279.722866 210.344661 
L 281.132886 201.276808 
L 281.837896 212.139339 
L 282.542906 206.471932 
L 283.247916 207.13313 
L 283.952926 209.49455 
L 284.657936 209.022266 
L 285.362946 207.888785 
L 286.067956 211.100314 
L 286.772966 210.533574 
L 287.477976 204.299425 
L 288.182986 211.572599 
L 288.887996 201.465721 
L 289.593006 206.283018 
L 290.298016 203.732686 
L 291.003026 206.566389 
L 291.708036 211.478143 
L 292.413046 206.377474 
L 293.118056 203.827141 
L 293.823066 208.927809 
L 294.528076 200.237783 
L 295.233086 204.77171 
L 295.938096 207.4165 
L 296.643106 208.266611 
L 297.348116 205.810734 
L 298.053126 205.243992 
L 298.758136 205.999648 
L 299.463146 199.954412 
L 300.168156 205.905191 
L 300.873166 207.605415 
L 301.578176 202.788117 
L 302.283186 208.077697 
L 302.988196 201.843548 
L 303.693206 207.133129 
L 304.398216 204.016055 
L 305.103226 206.849757 
L 305.808236 203.543771 
L 306.513246 205.62182 
L 307.218257 208.172154 
L 307.923267 207.794326 
L 308.628277 210.155748 
L 309.333287 209.494549 
L 310.038297 207.4165 
L 310.743307 210.62803 
L 311.448317 202.97703 
L 312.153327 210.533574 
L 312.858337 201.276808 
L 313.563347 205.90519 
L 314.268357 205.527363 
L 314.973367 205.33845 
L 315.678377 201.654635 
L 316.383387 203.354857 
L 317.088397 206.283018 
L 317.793407 204.582796 
L 318.498417 206.188561 
L 319.203427 214.689672 
L 319.908437 206.566388 
L 320.613447 209.400092 
L 321.318457 206.471932 
L 322.023467 200.993438 
L 322.728477 203.165943 
L 323.433487 206.849759 
L 324.138497 208.833352 
L 324.843507 201.276808 
L 325.548517 204.960624 
L 326.253527 207.416499 
L 326.958537 200.898981 
L 327.663547 215.91761 
L 328.368557 207.4165 
L 329.073567 206.755303 
L 329.778577 205.243993 
L 330.483587 209.211179 
L 331.188597 206.094104 
L 331.893607 208.455526 
L 332.598617 209.589006 
L 333.303627 207.605413 
L 334.008637 211.194772 
L 334.713647 207.699872 
L 335.418657 197.876364 
L 336.123667 209.494549 
L 336.828677 203.638228 
L 337.533687 199.009844 
L 338.238697 208.738895 
L 338.943707 204.960622 
L 339.648717 203.827141 
L 340.353727 200.237783 
L 341.058737 198.443105 
L 341.763747 206.944215 
L 342.468758 205.999649 
L 343.173768 202.410289 
L 343.878778 202.788116 
L 344.583788 207.794326 
L 345.288798 204.110511 
L 345.993808 206.283018 
L 346.698818 209.77792 
L 347.403828 210.533575 
L 348.108838 207.416501 
L 348.813848 206.283019 
L 349.518858 205.62182 
L 350.223868 203.827141 
L 350.928878 206.283017 
L 351.633888 211.855969 
L 352.338898 213.650649 
L 353.043908 203.449314 
L 353.748918 206.47193 
L 354.453928 202.788116 
L 355.158938 209.211179 
L 355.863948 206.660846 
L 356.568958 202.97703 
L 357.273968 205.055078 
L 357.978978 210.155746 
L 358.683988 207.322043 
L 359.388998 210.061291 
L 360.094008 207.416501 
L 360.799018 203.82714 
L 361.504028 208.077699 
L 362.209038 204.299426 
L 362.914048 209.589007 
L 363.619058 206.471931 
L 365.029078 209.305635 
L 365.734088 207.699869 
L 366.439098 208.549981 
L 367.144108 204.488339 
L 367.849118 207.794327 
L 368.554128 202.032464 
L 369.259138 207.227586 
L 369.964148 206.471931 
L 370.669158 204.960623 
L 371.374168 211.194772 
L 372.079178 208.83335 
L 372.784188 203.165944 
L 373.489198 206.84976 
L 374.194208 205.432906 
L 374.899218 209.400093 
L 375.604228 208.455526 
L 376.309238 211.950426 
L 377.014248 209.77792 
L 377.719259 200.048871 
L 378.424269 210.34466 
L 379.129279 205.432907 
L 379.834289 210.911401 
L 380.539299 206.660845 
L 381.244309 204.960622 
L 381.949319 205.905191 
L 382.654329 210.344662 
L 383.359339 207.416501 
L 384.064349 207.038674 
L 384.769359 207.038673 
L 385.474369 203.354857 
L 386.179379 206.944218 
L 386.884389 205.810734 
L 388.294409 205.243995 
L 388.999419 206.755302 
L 389.704429 203.638228 
L 390.409439 208.644438 
L 391.114449 203.732685 
L 391.819459 207.983238 
L 392.524469 202.315833 
L 393.229479 199.387672 
L 393.934489 207.699869 
L 394.639499 200.710067 
L 395.344509 204.771709 
L 396.049519 206.566389 
L 396.754529 208.833351 
L 397.459539 208.738895 
L 398.164549 211.761514 
L 398.869559 205.716278 
L 399.574569 201.843549 
L 400.279579 206.47193 
L 400.984589 202.126918 
L 401.689599 199.859956 
L 402.394609 201.182351 
L 403.099619 207.69987 
L 403.804629 204.582796 
L 404.509639 207.699869 
L 405.214649 207.038671 
L 405.919659 204.488339 
L 406.624669 207.794328 
L 407.329679 208.077697 
L 408.034689 202.032464 
L 408.739699 209.022265 
L 409.444709 212.800538 
L 410.149719 205.905192 
L 410.854729 205.432907 
L 411.559739 199.954413 
L 412.264749 213.36728 
L 412.96976 201.843548 
L 413.67477 213.367278 
L 414.37978 206.84976 
L 415.08479 201.749092 
L 415.7898 203.449315 
L 416.49481 210.344662 
L 417.19982 212.422711 
L 417.90483 209.400092 
L 418.60984 208.077697 
L 419.31485 207.510957 
L 420.01986 209.966833 
L 420.72487 206.094104 
L 421.42988 210.911402 
L 422.13489 210.628029 
L 422.8399 208.549981 
L 423.54491 207.605413 
L 424.24992 207.416498 
L 424.95493 210.155747 
L 425.65994 203.354858 
L 426.36495 206.849759 
L 427.06996 206.755302 
L 427.77497 205.999647 
L 428.47998 210.344659 
L 429.18499 203.165945 
L 429.89 199.104301 
L 429.89 199.104301 
" style="fill:none;stroke:#0000ff;stroke-linecap:square;stroke-width:1.5;"/>
   </g>
   <g id="line2d_27">
    <path clip-path="url(#pfe11b722bb)" d="M 78.09 298.15315 
L 78.79501 297.252178 
L 79.50002 297.026935 
L 80.20503 297.702664 
L 80.91004 297.252177 
L 81.61505 296.576448 
L 82.32006 298.603636 
L 83.02507 297.026935 
L 83.73008 297.026935 
L 84.43509 297.252178 
L 85.1401 296.801692 
L 85.84511 298.153151 
L 87.25513 296.801692 
L 90.07517 296.801692 
L 90.78018 297.026934 
L 92.1902 297.026934 
L 92.89521 297.252178 
L 93.60022 296.576448 
L 95.01024 296.576448 
L 95.715251 297.252177 
L 96.420261 296.125961 
L 97.125271 297.026934 
L 97.830281 296.801691 
L 98.535291 297.026934 
L 101.355331 297.026934 
L 102.060341 296.801691 
L 105.585391 296.801691 
L 106.290401 296.576448 
L 107.700421 296.576448 
L 108.405431 296.801692 
L 109.110441 296.576448 
L 114.750521 296.576448 
L 116.160541 296.125962 
L 117.570561 296.125962 
L 118.275571 295.900719 
L 118.980581 295.900719 
L 119.685591 296.125963 
L 120.390601 295.900719 
L 121.095611 297.252178 
L 121.800621 296.125963 
L 122.505631 295.900719 
L 123.210641 296.351206 
L 123.915651 295.900719 
L 124.620661 295.900719 
L 125.325671 295.675476 
L 127.440701 295.675476 
L 128.145711 295.450233 
L 128.850721 295.675476 
L 129.555731 295.450233 
L 130.260741 295.450233 
L 130.965752 295.22499 
L 135.900822 295.22499 
L 136.605832 294.999747 
L 142.245912 294.999747 
L 142.950922 294.774503 
L 147.180982 294.774503 
L 147.885992 297.702664 
L 148.591002 294.774503 
L 149.296012 294.999747 
L 150.001022 294.774503 
L 150.706032 295.22499 
L 151.411042 294.774503 
L 152.116052 294.774503 
L 152.821062 294.999747 
L 153.526072 294.774503 
L 156.346112 294.774503 
L 157.051122 295.675476 
L 157.756132 294.774503 
L 164.101222 294.774503 
L 164.806232 295.675476 
L 165.511242 294.999747 
L 166.216253 294.774503 
L 168.331283 294.774503 
L 169.036293 295.900719 
L 169.741303 294.774503 
L 171.151323 294.774503 
L 171.856333 295.22499 
L 172.561343 294.324017 
L 173.266353 294.774503 
L 181.021463 294.774503 
L 181.726473 295.450233 
L 182.431483 294.774503 
L 188.071563 294.774503 
L 188.776573 295.22499 
L 189.481583 294.774503 
L 190.186593 294.774503 
L 190.891603 296.576448 
L 191.596613 294.774503 
L 193.006633 294.774503 
L 194.416653 295.22499 
L 195.121663 294.774503 
L 199.351723 294.774503 
L 200.056733 295.675476 
L 200.761743 294.774503 
L 201.466754 294.999747 
L 202.171764 294.774503 
L 202.876774 294.999747 
L 203.581784 294.774503 
L 212.041904 294.774503 
L 212.746914 294.999747 
L 213.451924 294.774503 
L 214.861944 294.774503 
L 215.566954 294.54926 
L 216.271964 294.774503 
L 220.502024 294.774503 
L 221.207034 294.999746 
L 231.077174 294.999746 
L 231.782184 295.22499 
L 232.487194 294.999746 
L 249.407435 294.999746 
L 250.112445 294.774503 
L 250.817455 294.999746 
L 257.162545 294.999746 
L 257.867555 294.774503 
L 258.572565 296.351205 
L 259.277575 294.774503 
L 259.982585 294.999746 
L 260.687595 294.774503 
L 262.097615 294.774503 
L 262.802625 294.999746 
L 263.507635 294.999746 
L 264.212645 294.774503 
L 264.917655 294.999746 
L 265.622665 294.999746 
L 266.327675 295.224989 
L 267.737695 294.774503 
L 268.442705 294.999746 
L 270.557735 294.999746 
L 271.262745 294.774503 
L 271.967756 294.999746 
L 274.787796 294.999746 
L 275.492806 294.54926 
L 276.197816 294.774502 
L 279.017856 294.774502 
L 279.722866 294.549259 
L 281.132886 294.549259 
L 281.837896 295.900719 
L 282.542906 294.549259 
L 283.247916 294.549259 
L 283.952926 294.324016 
L 284.657936 294.549259 
L 296.643106 294.549259 
L 297.348116 294.098774 
L 298.053126 294.549259 
L 307.218257 294.549259 
L 307.923267 293.423044 
L 308.628277 294.549259 
L 313.563347 294.549259 
L 314.268357 295.224989 
L 314.973367 294.549259 
L 331.188597 294.549259 
L 331.893607 296.576448 
L 332.598617 294.549259 
L 334.713647 294.549259 
L 335.418657 294.774503 
L 336.123667 294.549259 
L 345.288798 294.549259 
L 345.993808 294.324016 
L 346.698818 294.549259 
L 355.158938 294.549259 
L 355.863948 295.224989 
L 356.568958 294.549259 
L 357.978978 294.549259 
L 358.683988 294.774503 
L 359.388998 294.549259 
L 360.094008 294.549259 
L 360.799018 295.224989 
L 361.504028 294.549259 
L 380.539299 294.549259 
L 381.244309 294.774503 
L 381.949319 294.549259 
L 390.409439 294.549259 
L 391.114449 295.224989 
L 391.819459 294.549259 
L 395.344509 294.549259 
L 396.049519 294.774503 
L 396.754529 294.549259 
L 407.329679 294.549259 
L 408.034689 294.774503 
L 408.739699 294.549259 
L 409.444709 294.549259 
L 410.149719 293.648287 
L 410.854729 294.549259 
L 411.559739 296.125961 
L 412.264749 294.549259 
L 412.96976 296.351205 
L 413.67477 294.549259 
L 414.37978 295.224989 
L 415.08479 294.774503 
L 415.7898 294.549259 
L 416.49481 294.549259 
L 417.19982 295.224989 
L 417.90483 294.549259 
L 427.77497 294.549259 
L 428.47998 293.87353 
L 429.18499 294.549259 
L 429.89 294.549259 
L 429.89 294.549259 
" style="fill:none;stroke:#ffa500;stroke-linecap:square;stroke-width:1.5;"/>
   </g>
   <g id="patch_9">
    <path d="M 60.5 303.64 
L 60.5 192.84 
" style="fill:none;stroke:#000000;stroke-linecap:square;stroke-linejoin:miter;stroke-width:0.8;"/>
   </g>
   <g id="patch_10">
    <path d="M 447.48 303.64 
L 447.48 192.84 
" style="fill:none;stroke:#000000;stroke-linecap:square;stroke-linejoin:miter;stroke-width:0.8;"/>
   </g>
   <g id="patch_11">
    <path d="M 60.5 303.64 
L 447.48 303.64 
" style="fill:none;stroke:#000000;stroke-linecap:square;stroke-linejoin:miter;stroke-width:0.8;"/>
   </g>
   <g id="patch_12">
    <path d="M 60.5 192.84 
L 447.48 192.84 
" style="fill:none;stroke:#000000;stroke-linecap:square;stroke-linejoin:miter;stroke-width:0.8;"/>
   </g>
   <g id="text_27">
    <!-- model accuracy -->
    <g transform="translate(206.328438 186.84)scale(0.12 -0.12)">
     <use xlink:href="#DejaVuSans-109"/>
     <use x="97.412109" xlink:href="#DejaVuSans-111"/>
     <use x="158.59375" xlink:href="#DejaVuSans-100"/>
     <use x="222.070312" xlink:href="#DejaVuSans-101"/>
     <use x="283.59375" xlink:href="#DejaVuSans-108"/>
     <use x="311.376953" xlink:href="#DejaVuSans-32"/>
     <use x="343.164062" xlink:href="#DejaVuSans-97"/>
     <use x="404.443359" xlink:href="#DejaVuSans-99"/>
     <use x="459.423828" xlink:href="#DejaVuSans-99"/>
     <use x="514.404297" xlink:href="#DejaVuSans-117"/>
     <use x="577.783203" xlink:href="#DejaVuSans-114"/>
     <use x="618.896484" xlink:href="#DejaVuSans-97"/>
     <use x="680.175781" xlink:href="#DejaVuSans-99"/>
     <use x="735.15625" xlink:href="#DejaVuSans-121"/>
    </g>
   </g>
   <g id="legend_2">
    <g id="patch_13">
     <path d="M 67.5 230.19625 
L 122.775 230.19625 
Q 124.775 230.19625 124.775 228.19625 
L 124.775 199.84 
Q 124.775 197.84 122.775 197.84 
L 67.5 197.84 
Q 65.5 197.84 65.5 199.84 
L 65.5 228.19625 
Q 65.5 230.19625 67.5 230.19625 
z
" style="fill:#ffffff;opacity:0.8;stroke:#cccccc;stroke-linejoin:miter;"/>
    </g>
    <g id="line2d_28">
     <path d="M 69.5 205.938437 
L 89.5 205.938437 
" style="fill:none;stroke:#0000ff;stroke-linecap:square;stroke-width:1.5;"/>
    </g>
    <g id="line2d_29"/>
    <g id="text_28">
     <!-- train -->
     <g transform="translate(97.5 209.438437)scale(0.1 -0.1)">
      <use xlink:href="#DejaVuSans-116"/>
      <use x="39.208984" xlink:href="#DejaVuSans-114"/>
      <use x="80.322266" xlink:href="#DejaVuSans-97"/>
      <use x="141.601562" xlink:href="#DejaVuSans-105"/>
      <use x="169.384766" xlink:href="#DejaVuSans-110"/>
     </g>
    </g>
    <g id="line2d_30">
     <path d="M 69.5 220.616562 
L 89.5 220.616562 
" style="fill:none;stroke:#ffa500;stroke-linecap:square;stroke-width:1.5;"/>
    </g>
    <g id="line2d_31"/>
    <g id="text_29">
     <!-- test -->
     <g transform="translate(97.5 224.116562)scale(0.1 -0.1)">
      <use xlink:href="#DejaVuSans-116"/>
      <use x="39.208984" xlink:href="#DejaVuSans-101"/>
      <use x="100.732422" xlink:href="#DejaVuSans-115"/>
      <use x="152.832031" xlink:href="#DejaVuSans-116"/>
     </g>
    </g>
   </g>
  </g>
 </g>
 <defs>
  <clipPath id="pe7b27d6ada">
   <rect height="110.8" width="386.98" x="60.5" y="25.44"/>
  </clipPath>
  <clipPath id="pfe11b722bb">
   <rect height="110.8" width="386.98" x="60.5" y="192.84"/>
  </clipPath>
 </defs>
</svg>
