<?xml version="1.0" encoding="utf-8" standalone="no"?>
<!DOCTYPE svg PUBLIC "-//W3C//DTD SVG 1.1//EN"
  "http://www.w3.org/Graphics/SVG/1.1/DTD/svg11.dtd">
<!-- Created with matplotlib (https://matplotlib.org/) -->
<svg height="345.6pt" version="1.1" viewBox="0 0 460.8 345.6" width="460.8pt" xmlns="http://www.w3.org/2000/svg" xmlns:xlink="http://www.w3.org/1999/xlink">
 <defs>
  <style type="text/css">
*{stroke-linecap:butt;stroke-linejoin:round;}
  </style>
 </defs>
 <g id="figure_1">
  <g id="patch_1">
   <path d="M 0 345.6 
L 460.8 345.6 
L 460.8 0 
L 0 0 
z
" style="fill:#ffffff;"/>
  </g>
  <g id="axes_1">
   <g id="patch_2">
    <path d="M 54.11 136.24 
L 447.48 136.24 
L 447.48 25.44 
L 54.11 25.44 
z
" style="fill:#ffffff;"/>
   </g>
   <g id="matplotlib.axis_1">
    <g id="xtick_1">
     <g id="line2d_1">
      <defs>
       <path d="M 0 0 
L 0 3.5 
" id="mb5662c0dc2" style="stroke:#000000;stroke-width:0.8;"/>
      </defs>
      <g>
       <use style="stroke:#000000;stroke-width:0.8;" x="71.990455" xlink:href="#mb5662c0dc2" y="136.24"/>
      </g>
     </g>
     <g id="text_1">
      <!-- 0 -->
      <defs>
       <path d="M 31.78125 66.40625 
Q 24.171875 66.40625 20.328125 58.90625 
Q 16.5 51.421875 16.5 36.375 
Q 16.5 21.390625 20.328125 13.890625 
Q 24.171875 6.390625 31.78125 6.390625 
Q 39.453125 6.390625 43.28125 13.890625 
Q 47.125 21.390625 47.125 36.375 
Q 47.125 51.421875 43.28125 58.90625 
Q 39.453125 66.40625 31.78125 66.40625 
z
M 31.78125 74.21875 
Q 44.046875 74.21875 50.515625 64.515625 
Q 56.984375 54.828125 56.984375 36.375 
Q 56.984375 17.96875 50.515625 8.265625 
Q 44.046875 -1.421875 31.78125 -1.421875 
Q 19.53125 -1.421875 13.0625 8.265625 
Q 6.59375 17.96875 6.59375 36.375 
Q 6.59375 54.828125 13.0625 64.515625 
Q 19.53125 74.21875 31.78125 74.21875 
z
" id="DejaVuSans-48"/>
      </defs>
      <g transform="translate(68.809205 150.838437)scale(0.1 -0.1)">
       <use xlink:href="#DejaVuSans-48"/>
      </g>
     </g>
    </g>
    <g id="xtick_2">
     <g id="line2d_2">
      <g>
       <use style="stroke:#000000;stroke-width:0.8;" x="143.655603" xlink:href="#mb5662c0dc2" y="136.24"/>
      </g>
     </g>
     <g id="text_2">
      <!-- 100 -->
      <defs>
       <path d="M 12.40625 8.296875 
L 28.515625 8.296875 
L 28.515625 63.921875 
L 10.984375 60.40625 
L 10.984375 69.390625 
L 28.421875 72.90625 
L 38.28125 72.90625 
L 38.28125 8.296875 
L 54.390625 8.296875 
L 54.390625 0 
L 12.40625 0 
z
" id="DejaVuSans-49"/>
      </defs>
      <g transform="translate(134.111853 150.838437)scale(0.1 -0.1)">
       <use xlink:href="#DejaVuSans-49"/>
       <use x="63.623047" xlink:href="#DejaVuSans-48"/>
       <use x="127.246094" xlink:href="#DejaVuSans-48"/>
      </g>
     </g>
    </g>
    <g id="xtick_3">
     <g id="line2d_3">
      <g>
       <use style="stroke:#000000;stroke-width:0.8;" x="215.320752" xlink:href="#mb5662c0dc2" y="136.24"/>
      </g>
     </g>
     <g id="text_3">
      <!-- 200 -->
      <defs>
       <path d="M 19.1875 8.296875 
L 53.609375 8.296875 
L 53.609375 0 
L 7.328125 0 
L 7.328125 8.296875 
Q 12.9375 14.109375 22.625 23.890625 
Q 32.328125 33.6875 34.8125 36.53125 
Q 39.546875 41.84375 41.421875 45.53125 
Q 43.3125 49.21875 43.3125 52.78125 
Q 43.3125 58.59375 39.234375 62.25 
Q 35.15625 65.921875 28.609375 65.921875 
Q 23.96875 65.921875 18.8125 64.3125 
Q 13.671875 62.703125 7.8125 59.421875 
L 7.8125 69.390625 
Q 13.765625 71.78125 18.9375 73 
Q 24.125 74.21875 28.421875 74.21875 
Q 39.75 74.21875 46.484375 68.546875 
Q 53.21875 62.890625 53.21875 53.421875 
Q 53.21875 48.921875 51.53125 44.890625 
Q 49.859375 40.875 45.40625 35.40625 
Q 44.1875 33.984375 37.640625 27.21875 
Q 31.109375 20.453125 19.1875 8.296875 
z
" id="DejaVuSans-50"/>
      </defs>
      <g transform="translate(205.777002 150.838437)scale(0.1 -0.1)">
       <use xlink:href="#DejaVuSans-50"/>
       <use x="63.623047" xlink:href="#DejaVuSans-48"/>
       <use x="127.246094" xlink:href="#DejaVuSans-48"/>
      </g>
     </g>
    </g>
    <g id="xtick_4">
     <g id="line2d_4">
      <g>
       <use style="stroke:#000000;stroke-width:0.8;" x="286.9859" xlink:href="#mb5662c0dc2" y="136.24"/>
      </g>
     </g>
     <g id="text_4">
      <!-- 300 -->
      <defs>
       <path d="M 40.578125 39.3125 
Q 47.65625 37.796875 51.625 33 
Q 55.609375 28.21875 55.609375 21.1875 
Q 55.609375 10.40625 48.1875 4.484375 
Q 40.765625 -1.421875 27.09375 -1.421875 
Q 22.515625 -1.421875 17.65625 -0.515625 
Q 12.796875 0.390625 7.625 2.203125 
L 7.625 11.71875 
Q 11.71875 9.328125 16.59375 8.109375 
Q 21.484375 6.890625 26.8125 6.890625 
Q 36.078125 6.890625 40.9375 10.546875 
Q 45.796875 14.203125 45.796875 21.1875 
Q 45.796875 27.640625 41.28125 31.265625 
Q 36.765625 34.90625 28.71875 34.90625 
L 20.21875 34.90625 
L 20.21875 43.015625 
L 29.109375 43.015625 
Q 36.375 43.015625 40.234375 45.921875 
Q 44.09375 48.828125 44.09375 54.296875 
Q 44.09375 59.90625 40.109375 62.90625 
Q 36.140625 65.921875 28.71875 65.921875 
Q 24.65625 65.921875 20.015625 65.03125 
Q 15.375 64.15625 9.8125 62.3125 
L 9.8125 71.09375 
Q 15.4375 72.65625 20.34375 73.4375 
Q 25.25 74.21875 29.59375 74.21875 
Q 40.828125 74.21875 47.359375 69.109375 
Q 53.90625 64.015625 53.90625 55.328125 
Q 53.90625 49.265625 50.4375 45.09375 
Q 46.96875 40.921875 40.578125 39.3125 
z
" id="DejaVuSans-51"/>
      </defs>
      <g transform="translate(277.44215 150.838437)scale(0.1 -0.1)">
       <use xlink:href="#DejaVuSans-51"/>
       <use x="63.623047" xlink:href="#DejaVuSans-48"/>
       <use x="127.246094" xlink:href="#DejaVuSans-48"/>
      </g>
     </g>
    </g>
    <g id="xtick_5">
     <g id="line2d_5">
      <g>
       <use style="stroke:#000000;stroke-width:0.8;" x="358.651048" xlink:href="#mb5662c0dc2" y="136.24"/>
      </g>
     </g>
     <g id="text_5">
      <!-- 400 -->
      <defs>
       <path d="M 37.796875 64.3125 
L 12.890625 25.390625 
L 37.796875 25.390625 
z
M 35.203125 72.90625 
L 47.609375 72.90625 
L 47.609375 25.390625 
L 58.015625 25.390625 
L 58.015625 17.1875 
L 47.609375 17.1875 
L 47.609375 0 
L 37.796875 0 
L 37.796875 17.1875 
L 4.890625 17.1875 
L 4.890625 26.703125 
z
" id="DejaVuSans-52"/>
      </defs>
      <g transform="translate(349.107298 150.838437)scale(0.1 -0.1)">
       <use xlink:href="#DejaVuSans-52"/>
       <use x="63.623047" xlink:href="#DejaVuSans-48"/>
       <use x="127.246094" xlink:href="#DejaVuSans-48"/>
      </g>
     </g>
    </g>
    <g id="xtick_6">
     <g id="line2d_6">
      <g>
       <use style="stroke:#000000;stroke-width:0.8;" x="430.316197" xlink:href="#mb5662c0dc2" y="136.24"/>
      </g>
     </g>
     <g id="text_6">
      <!-- 500 -->
      <defs>
       <path d="M 10.796875 72.90625 
L 49.515625 72.90625 
L 49.515625 64.59375 
L 19.828125 64.59375 
L 19.828125 46.734375 
Q 21.96875 47.46875 24.109375 47.828125 
Q 26.265625 48.1875 28.421875 48.1875 
Q 40.625 48.1875 47.75 41.5 
Q 54.890625 34.8125 54.890625 23.390625 
Q 54.890625 11.625 47.5625 5.09375 
Q 40.234375 -1.421875 26.90625 -1.421875 
Q 22.3125 -1.421875 17.546875 -0.640625 
Q 12.796875 0.140625 7.71875 1.703125 
L 7.71875 11.625 
Q 12.109375 9.234375 16.796875 8.0625 
Q 21.484375 6.890625 26.703125 6.890625 
Q 35.15625 6.890625 40.078125 11.328125 
Q 45.015625 15.765625 45.015625 23.390625 
Q 45.015625 31 40.078125 35.4375 
Q 35.15625 39.890625 26.703125 39.890625 
Q 22.75 39.890625 18.8125 39.015625 
Q 14.890625 38.140625 10.796875 36.28125 
z
" id="DejaVuSans-53"/>
      </defs>
      <g transform="translate(420.772447 150.838437)scale(0.1 -0.1)">
       <use xlink:href="#DejaVuSans-53"/>
       <use x="63.623047" xlink:href="#DejaVuSans-48"/>
       <use x="127.246094" xlink:href="#DejaVuSans-48"/>
      </g>
     </g>
    </g>
    <g id="text_7">
     <!-- epoch -->
     <defs>
      <path d="M 56.203125 29.59375 
L 56.203125 25.203125 
L 14.890625 25.203125 
Q 15.484375 15.921875 20.484375 11.0625 
Q 25.484375 6.203125 34.421875 6.203125 
Q 39.59375 6.203125 44.453125 7.46875 
Q 49.3125 8.734375 54.109375 11.28125 
L 54.109375 2.78125 
Q 49.265625 0.734375 44.1875 -0.34375 
Q 39.109375 -1.421875 33.890625 -1.421875 
Q 20.796875 -1.421875 13.15625 6.1875 
Q 5.515625 13.8125 5.515625 26.8125 
Q 5.515625 40.234375 12.765625 48.109375 
Q 20.015625 56 32.328125 56 
Q 43.359375 56 49.78125 48.890625 
Q 56.203125 41.796875 56.203125 29.59375 
z
M 47.21875 32.234375 
Q 47.125 39.59375 43.09375 43.984375 
Q 39.0625 48.390625 32.421875 48.390625 
Q 24.90625 48.390625 20.390625 44.140625 
Q 15.875 39.890625 15.1875 32.171875 
z
" id="DejaVuSans-101"/>
      <path d="M 18.109375 8.203125 
L 18.109375 -20.796875 
L 9.078125 -20.796875 
L 9.078125 54.6875 
L 18.109375 54.6875 
L 18.109375 46.390625 
Q 20.953125 51.265625 25.265625 53.625 
Q 29.59375 56 35.59375 56 
Q 45.5625 56 51.78125 48.09375 
Q 58.015625 40.1875 58.015625 27.296875 
Q 58.015625 14.40625 51.78125 6.484375 
Q 45.5625 -1.421875 35.59375 -1.421875 
Q 29.59375 -1.421875 25.265625 0.953125 
Q 20.953125 3.328125 18.109375 8.203125 
z
M 48.6875 27.296875 
Q 48.6875 37.203125 44.609375 42.84375 
Q 40.53125 48.484375 33.40625 48.484375 
Q 26.265625 48.484375 22.1875 42.84375 
Q 18.109375 37.203125 18.109375 27.296875 
Q 18.109375 17.390625 22.1875 11.75 
Q 26.265625 6.109375 33.40625 6.109375 
Q 40.53125 6.109375 44.609375 11.75 
Q 48.6875 17.390625 48.6875 27.296875 
z
" id="DejaVuSans-112"/>
      <path d="M 30.609375 48.390625 
Q 23.390625 48.390625 19.1875 42.75 
Q 14.984375 37.109375 14.984375 27.296875 
Q 14.984375 17.484375 19.15625 11.84375 
Q 23.34375 6.203125 30.609375 6.203125 
Q 37.796875 6.203125 41.984375 11.859375 
Q 46.1875 17.53125 46.1875 27.296875 
Q 46.1875 37.015625 41.984375 42.703125 
Q 37.796875 48.390625 30.609375 48.390625 
z
M 30.609375 56 
Q 42.328125 56 49.015625 48.375 
Q 55.71875 40.765625 55.71875 27.296875 
Q 55.71875 13.875 49.015625 6.21875 
Q 42.328125 -1.421875 30.609375 -1.421875 
Q 18.84375 -1.421875 12.171875 6.21875 
Q 5.515625 13.875 5.515625 27.296875 
Q 5.515625 40.765625 12.171875 48.375 
Q 18.84375 56 30.609375 56 
z
" id="DejaVuSans-111"/>
      <path d="M 48.78125 52.59375 
L 48.78125 44.1875 
Q 44.96875 46.296875 41.140625 47.34375 
Q 37.3125 48.390625 33.40625 48.390625 
Q 24.65625 48.390625 19.8125 42.84375 
Q 14.984375 37.3125 14.984375 27.296875 
Q 14.984375 17.28125 19.8125 11.734375 
Q 24.65625 6.203125 33.40625 6.203125 
Q 37.3125 6.203125 41.140625 7.25 
Q 44.96875 8.296875 48.78125 10.40625 
L 48.78125 2.09375 
Q 45.015625 0.34375 40.984375 -0.53125 
Q 36.96875 -1.421875 32.421875 -1.421875 
Q 20.0625 -1.421875 12.78125 6.34375 
Q 5.515625 14.109375 5.515625 27.296875 
Q 5.515625 40.671875 12.859375 48.328125 
Q 20.21875 56 33.015625 56 
Q 37.15625 56 41.109375 55.140625 
Q 45.0625 54.296875 48.78125 52.59375 
z
" id="DejaVuSans-99"/>
      <path d="M 54.890625 33.015625 
L 54.890625 0 
L 45.90625 0 
L 45.90625 32.71875 
Q 45.90625 40.484375 42.875 44.328125 
Q 39.84375 48.1875 33.796875 48.1875 
Q 26.515625 48.1875 22.3125 43.546875 
Q 18.109375 38.921875 18.109375 30.90625 
L 18.109375 0 
L 9.078125 0 
L 9.078125 75.984375 
L 18.109375 75.984375 
L 18.109375 46.1875 
Q 21.34375 51.125 25.703125 53.5625 
Q 30.078125 56 35.796875 56 
Q 45.21875 56 50.046875 50.171875 
Q 54.890625 44.34375 54.890625 33.015625 
z
" id="DejaVuSans-104"/>
     </defs>
     <g transform="translate(235.566875 164.516562)scale(0.1 -0.1)">
      <use xlink:href="#DejaVuSans-101"/>
      <use x="61.523438" xlink:href="#DejaVuSans-112"/>
      <use x="125" xlink:href="#DejaVuSans-111"/>
      <use x="186.181641" xlink:href="#DejaVuSans-99"/>
      <use x="241.162109" xlink:href="#DejaVuSans-104"/>
     </g>
    </g>
   </g>
   <g id="matplotlib.axis_2">
    <g id="ytick_1">
     <g id="line2d_7">
      <defs>
       <path d="M 0 0 
L -3.5 0 
" id="m76233f7de4" style="stroke:#000000;stroke-width:0.8;"/>
      </defs>
      <g>
       <use style="stroke:#000000;stroke-width:0.8;" x="54.11" xlink:href="#m76233f7de4" y="131.864125"/>
      </g>
     </g>
     <g id="text_8">
      <!-- 0.4 -->
      <defs>
       <path d="M 10.6875 12.40625 
L 21 12.40625 
L 21 0 
L 10.6875 0 
z
" id="DejaVuSans-46"/>
      </defs>
      <g transform="translate(31.206875 135.663344)scale(0.1 -0.1)">
       <use xlink:href="#DejaVuSans-48"/>
       <use x="63.623047" xlink:href="#DejaVuSans-46"/>
       <use x="95.410156" xlink:href="#DejaVuSans-52"/>
      </g>
     </g>
    </g>
    <g id="ytick_2">
     <g id="line2d_8">
      <g>
       <use style="stroke:#000000;stroke-width:0.8;" x="54.11" xlink:href="#m76233f7de4" y="104.955359"/>
      </g>
     </g>
     <g id="text_9">
      <!-- 0.6 -->
      <defs>
       <path d="M 33.015625 40.375 
Q 26.375 40.375 22.484375 35.828125 
Q 18.609375 31.296875 18.609375 23.390625 
Q 18.609375 15.53125 22.484375 10.953125 
Q 26.375 6.390625 33.015625 6.390625 
Q 39.65625 6.390625 43.53125 10.953125 
Q 47.40625 15.53125 47.40625 23.390625 
Q 47.40625 31.296875 43.53125 35.828125 
Q 39.65625 40.375 33.015625 40.375 
z
M 52.59375 71.296875 
L 52.59375 62.3125 
Q 48.875 64.0625 45.09375 64.984375 
Q 41.3125 65.921875 37.59375 65.921875 
Q 27.828125 65.921875 22.671875 59.328125 
Q 17.53125 52.734375 16.796875 39.40625 
Q 19.671875 43.65625 24.015625 45.921875 
Q 28.375 48.1875 33.59375 48.1875 
Q 44.578125 48.1875 50.953125 41.515625 
Q 57.328125 34.859375 57.328125 23.390625 
Q 57.328125 12.15625 50.6875 5.359375 
Q 44.046875 -1.421875 33.015625 -1.421875 
Q 20.359375 -1.421875 13.671875 8.265625 
Q 6.984375 17.96875 6.984375 36.375 
Q 6.984375 53.65625 15.1875 63.9375 
Q 23.390625 74.21875 37.203125 74.21875 
Q 40.921875 74.21875 44.703125 73.484375 
Q 48.484375 72.75 52.59375 71.296875 
z
" id="DejaVuSans-54"/>
      </defs>
      <g transform="translate(31.206875 108.754577)scale(0.1 -0.1)">
       <use xlink:href="#DejaVuSans-48"/>
       <use x="63.623047" xlink:href="#DejaVuSans-46"/>
       <use x="95.410156" xlink:href="#DejaVuSans-54"/>
      </g>
     </g>
    </g>
    <g id="ytick_3">
     <g id="line2d_9">
      <g>
       <use style="stroke:#000000;stroke-width:0.8;" x="54.11" xlink:href="#m76233f7de4" y="78.046593"/>
      </g>
     </g>
     <g id="text_10">
      <!-- 0.8 -->
      <defs>
       <path d="M 31.78125 34.625 
Q 24.75 34.625 20.71875 30.859375 
Q 16.703125 27.09375 16.703125 20.515625 
Q 16.703125 13.921875 20.71875 10.15625 
Q 24.75 6.390625 31.78125 6.390625 
Q 38.8125 6.390625 42.859375 10.171875 
Q 46.921875 13.96875 46.921875 20.515625 
Q 46.921875 27.09375 42.890625 30.859375 
Q 38.875 34.625 31.78125 34.625 
z
M 21.921875 38.8125 
Q 15.578125 40.375 12.03125 44.71875 
Q 8.5 49.078125 8.5 55.328125 
Q 8.5 64.0625 14.71875 69.140625 
Q 20.953125 74.21875 31.78125 74.21875 
Q 42.671875 74.21875 48.875 69.140625 
Q 55.078125 64.0625 55.078125 55.328125 
Q 55.078125 49.078125 51.53125 44.71875 
Q 48 40.375 41.703125 38.8125 
Q 48.828125 37.15625 52.796875 32.3125 
Q 56.78125 27.484375 56.78125 20.515625 
Q 56.78125 9.90625 50.3125 4.234375 
Q 43.84375 -1.421875 31.78125 -1.421875 
Q 19.734375 -1.421875 13.25 4.234375 
Q 6.78125 9.90625 6.78125 20.515625 
Q 6.78125 27.484375 10.78125 32.3125 
Q 14.796875 37.15625 21.921875 38.8125 
z
M 18.3125 54.390625 
Q 18.3125 48.734375 21.84375 45.5625 
Q 25.390625 42.390625 31.78125 42.390625 
Q 38.140625 42.390625 41.71875 45.5625 
Q 45.3125 48.734375 45.3125 54.390625 
Q 45.3125 60.0625 41.71875 63.234375 
Q 38.140625 66.40625 31.78125 66.40625 
Q 25.390625 66.40625 21.84375 63.234375 
Q 18.3125 60.0625 18.3125 54.390625 
z
" id="DejaVuSans-56"/>
      </defs>
      <g transform="translate(31.206875 81.845811)scale(0.1 -0.1)">
       <use xlink:href="#DejaVuSans-48"/>
       <use x="63.623047" xlink:href="#DejaVuSans-46"/>
       <use x="95.410156" xlink:href="#DejaVuSans-56"/>
      </g>
     </g>
    </g>
    <g id="ytick_4">
     <g id="line2d_10">
      <g>
       <use style="stroke:#000000;stroke-width:0.8;" x="54.11" xlink:href="#m76233f7de4" y="51.137826"/>
      </g>
     </g>
     <g id="text_11">
      <!-- 1.0 -->
      <g transform="translate(31.206875 54.937045)scale(0.1 -0.1)">
       <use xlink:href="#DejaVuSans-49"/>
       <use x="63.623047" xlink:href="#DejaVuSans-46"/>
       <use x="95.410156" xlink:href="#DejaVuSans-48"/>
      </g>
     </g>
    </g>
    <g id="text_12">
     <!-- loss -->
     <defs>
      <path d="M 9.421875 75.984375 
L 18.40625 75.984375 
L 18.40625 0 
L 9.421875 0 
z
" id="DejaVuSans-108"/>
      <path d="M 44.28125 53.078125 
L 44.28125 44.578125 
Q 40.484375 46.53125 36.375 47.5 
Q 32.28125 48.484375 27.875 48.484375 
Q 21.1875 48.484375 17.84375 46.4375 
Q 14.5 44.390625 14.5 40.28125 
Q 14.5 37.15625 16.890625 35.375 
Q 19.28125 33.59375 26.515625 31.984375 
L 29.59375 31.296875 
Q 39.15625 29.25 43.1875 25.515625 
Q 47.21875 21.78125 47.21875 15.09375 
Q 47.21875 7.46875 41.1875 3.015625 
Q 35.15625 -1.421875 24.609375 -1.421875 
Q 20.21875 -1.421875 15.453125 -0.5625 
Q 10.6875 0.296875 5.421875 2 
L 5.421875 11.28125 
Q 10.40625 8.6875 15.234375 7.390625 
Q 20.0625 6.109375 24.8125 6.109375 
Q 31.15625 6.109375 34.5625 8.28125 
Q 37.984375 10.453125 37.984375 14.40625 
Q 37.984375 18.0625 35.515625 20.015625 
Q 33.0625 21.96875 24.703125 23.78125 
L 21.578125 24.515625 
Q 13.234375 26.265625 9.515625 29.90625 
Q 5.8125 33.546875 5.8125 39.890625 
Q 5.8125 47.609375 11.28125 51.796875 
Q 16.75 56 26.8125 56 
Q 31.78125 56 36.171875 55.265625 
Q 40.578125 54.546875 44.28125 53.078125 
z
" id="DejaVuSans-115"/>
     </defs>
     <g transform="translate(25.127188 90.497812)rotate(-90)scale(0.1 -0.1)">
      <use xlink:href="#DejaVuSans-108"/>
      <use x="27.783203" xlink:href="#DejaVuSans-111"/>
      <use x="88.964844" xlink:href="#DejaVuSans-115"/>
      <use x="141.064453" xlink:href="#DejaVuSans-115"/>
     </g>
    </g>
   </g>
   <g id="line2d_11">
    <path clip-path="url(#pca4b34481e)" d="M 71.990455 30.476364 
L 72.707106 57.809162 
L 73.423758 67.56336 
L 74.140409 74.432601 
L 74.85706 79.777924 
L 75.573712 83.79799 
L 76.290363 86.913588 
L 77.723666 91.561537 
L 79.156969 95.424818 
L 80.590272 98.515311 
L 81.306924 99.927091 
L 84.17353 104.168058 
L 84.890181 104.781048 
L 85.606833 105.806538 
L 87.040136 107.110475 
L 91.340045 110.431792 
L 92.773348 111.421818 
L 93.489999 111.69885 
L 94.923302 112.521369 
L 95.639954 112.700465 
L 97.789908 113.98093 
L 98.506559 114.010621 
L 101.373165 115.286208 
L 102.089817 115.394043 
L 103.52312 116.009055 
L 104.956423 116.201846 
L 105.673074 116.438893 
L 106.389726 116.831459 
L 107.106377 116.822479 
L 109.256332 117.700497 
L 109.972983 117.74561 
L 110.689635 117.676026 
L 111.406286 118.027 
L 112.839589 118.415291 
L 113.556241 118.326184 
L 114.272892 118.743456 
L 114.989544 118.705078 
L 115.706195 119.034184 
L 117.85615 119.261368 
L 118.572801 119.627485 
L 119.289453 119.60976 
L 120.722756 119.950134 
L 121.439407 120.20042 
L 123.589361 120.142324 
L 124.306013 120.417006 
L 125.022664 120.408622 
L 125.739316 120.732405 
L 127.172619 121.036985 
L 127.88927 120.959209 
L 129.322573 121.281581 
L 130.039225 121.213441 
L 131.472528 121.524651 
L 137.922391 122.308283 
L 140.072346 122.458343 
L 140.788997 122.774587 
L 141.505649 122.619855 
L 142.2223 122.951162 
L 146.522209 123.19187 
L 147.955512 123.347563 
L 148.672163 123.57271 
L 149.388815 123.434688 
L 150.105466 123.611121 
L 150.822118 123.584865 
L 151.538769 123.806118 
L 152.972072 123.900774 
L 153.688724 123.831507 
L 154.405375 123.965186 
L 155.838678 123.962541 
L 157.988633 124.344548 
L 159.421936 124.378981 
L 160.138587 124.52515 
L 161.57189 124.491153 
L 164.438496 124.819619 
L 165.155148 124.739527 
L 165.871799 124.914676 
L 166.588451 124.895196 
L 167.305102 124.674369 
L 168.021754 124.984591 
L 173.754965 125.373841 
L 174.471617 125.223578 
L 175.188268 125.44679 
L 175.90492 125.51919 
L 176.621571 125.336225 
L 178.054874 125.654455 
L 179.488177 125.812573 
L 180.204829 125.631567 
L 180.92148 125.811095 
L 182.354783 125.845798 
L 183.071435 125.806082 
L 183.788086 126.018773 
L 186.654692 125.89205 
L 187.371344 126.135385 
L 188.087995 126.233681 
L 188.804647 126.123838 
L 189.521298 126.127331 
L 190.954601 126.34158 
L 191.671253 126.374929 
L 192.387904 126.197694 
L 193.821207 126.477437 
L 197.404464 126.632186 
L 199.554419 126.57064 
L 200.27107 126.77975 
L 200.987722 126.621417 
L 202.421025 126.783812 
L 203.137676 126.811484 
L 203.854328 126.676057 
L 204.570979 126.913631 
L 205.287631 126.809174 
L 206.004282 126.974106 
L 207.437585 127.015015 
L 208.870888 127.054358 
L 209.58754 127.135144 
L 210.304191 127.053354 
L 216.754054 127.52129 
L 217.470706 127.312823 
L 218.904009 127.56899 
L 219.62066 127.536352 
L 220.337312 127.69291 
L 221.053963 127.49669 
L 221.770615 127.471705 
L 222.487266 127.747546 
L 224.637221 127.562916 
L 225.353872 127.598065 
L 226.070524 127.775957 
L 226.787175 127.660884 
L 227.503827 127.837487 
L 228.220478 127.739961 
L 228.93713 127.978633 
L 230.370433 127.60256 
L 231.087084 127.960636 
L 231.803736 127.752183 
L 233.237039 127.83041 
L 236.820296 128.056825 
L 237.536948 128.17729 
L 238.253599 128.009206 
L 238.970251 128.0565 
L 239.686902 128.305153 
L 240.403553 128.006901 
L 241.120205 128.165499 
L 241.836856 128.198753 
L 242.553508 128.104671 
L 243.986811 128.374604 
L 246.136765 128.166979 
L 247.570068 128.430952 
L 249.003371 128.182093 
L 250.436674 128.591041 
L 251.153326 128.282352 
L 251.869977 128.304506 
L 253.30328 128.554305 
L 254.019932 128.420632 
L 255.453235 128.456051 
L 256.169886 128.462052 
L 256.886538 128.637175 
L 257.603189 128.483409 
L 259.036492 128.67333 
L 260.469795 128.685361 
L 261.903098 128.826598 
L 264.769704 128.693786 
L 266.919658 128.953196 
L 267.63631 128.6669 
L 268.352961 128.85769 
L 269.069613 128.90261 
L 269.786264 128.747826 
L 270.502916 128.846973 
L 271.219567 128.710078 
L 271.936219 128.958367 
L 273.369522 129.116927 
L 274.086173 128.911708 
L 276.236128 128.956466 
L 276.952779 128.916367 
L 277.669431 129.170522 
L 278.386082 129.047363 
L 281.96934 129.181978 
L 282.685991 129.207882 
L 283.402643 129.020309 
L 284.119294 129.004529 
L 284.835946 129.228584 
L 288.419203 129.24671 
L 289.135854 129.404919 
L 290.569157 129.3739 
L 293.435763 129.309415 
L 294.152415 129.458522 
L 294.869066 129.369959 
L 297.735672 129.495926 
L 298.452324 129.33537 
L 299.885627 129.505708 
L 300.602278 129.459265 
L 301.31893 129.583905 
L 302.035581 129.377296 
L 302.752233 129.562007 
L 303.468884 129.399709 
L 304.902187 129.810183 
L 305.618839 129.445834 
L 306.33549 129.423344 
L 307.768793 129.778217 
L 308.485445 129.599377 
L 309.202096 129.590561 
L 309.918747 129.821132 
L 311.35205 129.680917 
L 314.218656 129.750553 
L 314.935308 129.626069 
L 316.368611 129.68643 
L 317.085262 129.939058 
L 317.801914 129.612567 
L 319.235217 129.698645 
L 319.951868 129.728185 
L 320.66852 129.921928 
L 322.818474 129.762486 
L 325.68508 130.010573 
L 326.401732 129.914848 
L 327.118383 130.061646 
L 328.551686 129.93008 
L 329.984989 129.847084 
L 330.701641 130.021816 
L 331.418292 129.97978 
L 332.851595 130.229023 
L 333.568246 129.946501 
L 335.718201 130.096104 
L 336.434852 130.014348 
L 337.151504 130.269255 
L 337.868155 130.018738 
L 338.584807 130.172455 
L 340.01811 130.070363 
L 340.734761 130.211212 
L 341.451413 130.036862 
L 342.168064 130.13691 
L 342.884716 130.047977 
L 343.601367 130.270161 
L 344.318019 130.161514 
L 349.334579 130.248045 
L 350.767882 130.204195 
L 355.067791 130.260519 
L 355.784443 130.179213 
L 356.501094 130.314055 
L 357.217745 130.237738 
L 357.934397 130.478046 
L 360.084351 130.357364 
L 363.667609 130.315352 
L 364.38426 130.647854 
L 365.100912 130.429794 
L 366.534215 130.547258 
L 367.250866 130.432974 
L 367.967518 130.503887 
L 368.684169 130.418592 
L 370.834124 130.623063 
L 371.550775 130.419478 
L 372.267427 130.458536 
L 372.984078 130.653912 
L 374.417381 130.540459 
L 375.850684 130.463851 
L 376.567336 130.673151 
L 378.000639 130.57989 
L 378.71729 130.672763 
L 379.433942 130.569561 
L 380.150593 130.67407 
L 380.867244 130.533278 
L 381.583896 130.525521 
L 382.300547 130.648361 
L 383.017199 130.488353 
L 383.73385 130.6837 
L 384.450502 130.742072 
L 385.883805 130.593395 
L 386.600456 130.655719 
L 387.317108 130.847838 
L 388.750411 130.68887 
L 391.617017 130.736229 
L 392.333668 130.832476 
L 393.766971 130.65358 
L 394.483623 130.939527 
L 395.200274 130.713223 
L 396.633577 130.88916 
L 397.350229 130.733276 
L 398.06688 130.814042 
L 398.783532 131.012588 
L 399.500183 130.787389 
L 400.216835 130.78698 
L 400.933486 130.921928 
L 402.366789 130.846428 
L 403.083441 130.839127 
L 404.516743 131.06141 
L 405.950046 130.871694 
L 406.666698 130.833149 
L 407.383349 131.017655 
L 408.100001 130.941044 
L 409.533304 131.05285 
L 410.249955 130.883379 
L 410.966607 131.062777 
L 412.39991 130.910032 
L 413.116561 131.03399 
L 413.833213 130.825797 
L 415.266516 130.972284 
L 415.983167 130.989569 
L 416.699819 131.155924 
L 418.849773 130.925752 
L 420.999728 131.124175 
L 421.716379 130.978688 
L 422.433031 131.106387 
L 423.149682 130.926385 
L 424.582985 130.96273 
L 425.299637 130.977739 
L 426.016288 131.160614 
L 426.73294 131.004002 
L 428.166242 131.203636 
L 428.882894 131.020691 
L 429.599545 131.075216 
L 429.599545 131.075216 
" style="fill:none;stroke:#0000ff;stroke-linecap:square;stroke-width:1.5;"/>
   </g>
   <g id="line2d_12">
    <path clip-path="url(#pca4b34481e)" d="M 71.990455 53.360984 
L 73.423758 74.08663 
L 74.140409 80.456226 
L 74.85706 85.612727 
L 75.573712 88.85983 
L 77.007015 93.199582 
L 78.440318 96.477401 
L 79.156969 98.392233 
L 80.590272 101.309959 
L 81.306924 101.633828 
L 82.023575 103.463093 
L 82.740227 103.976025 
L 83.456878 105.198206 
L 84.17353 105.157946 
L 87.756787 109.13787 
L 88.473439 108.809256 
L 89.19009 109.675055 
L 89.906742 110.087313 
L 90.623393 110.695439 
L 91.340045 110.546324 
L 92.773348 111.799906 
L 93.489999 111.755012 
L 94.206651 111.01117 
L 94.923302 112.495219 
L 95.639954 112.916509 
L 96.356605 112.847169 
L 97.789908 113.296457 
L 98.506559 113.450335 
L 99.223211 113.272803 
L 100.656514 114.049975 
L 101.373165 114.074461 
L 102.089817 113.637393 
L 102.806468 114.818341 
L 104.239771 114.801972 
L 105.673074 115.828562 
L 106.389726 114.952543 
L 107.106377 114.850754 
L 107.823029 115.668542 
L 108.53968 116.058785 
L 109.256332 115.995546 
L 110.689635 116.292851 
L 111.406286 116.717668 
L 112.122938 116.575029 
L 112.839589 116.718238 
L 113.556241 117.12161 
L 114.272892 116.867172 
L 114.989544 117.256024 
L 115.706195 117.231985 
L 116.422847 116.98921 
L 117.139498 117.945139 
L 117.85615 117.471851 
L 118.572801 117.918843 
L 120.006104 117.696668 
L 121.439407 118.311322 
L 122.156058 118.465009 
L 123.589361 117.670713 
L 124.306013 118.384424 
L 125.022664 118.219059 
L 125.739316 118.558291 
L 126.455967 118.464076 
L 127.172619 118.8305 
L 127.88927 118.676888 
L 128.605922 118.981162 
L 129.322573 118.504451 
L 130.039225 118.935415 
L 130.755876 119.117096 
L 131.472528 119.132646 
L 132.189179 119.377949 
L 132.905831 118.761912 
L 133.622482 119.445053 
L 134.339134 119.412447 
L 135.772437 119.567948 
L 136.489088 119.460855 
L 137.20574 119.478153 
L 137.922391 119.938305 
L 138.639043 119.763536 
L 139.355694 119.758385 
L 140.072346 120.170205 
L 140.788997 120.32244 
L 141.505649 120.156974 
L 142.2223 120.119894 
L 142.938952 120.205394 
L 143.655603 119.89008 
L 144.372255 120.431922 
L 145.088906 119.579791 
L 145.805557 120.614663 
L 146.522209 120.388387 
L 149.388815 120.645984 
L 150.822118 120.691393 
L 151.538769 120.557331 
L 152.255421 120.960111 
L 152.972072 120.688515 
L 153.688724 120.998646 
L 154.405375 120.800987 
L 155.838678 121.224741 
L 156.55533 121.141556 
L 157.988633 121.309598 
L 158.705284 120.811723 
L 159.421936 121.373093 
L 160.138587 120.990307 
L 160.855239 121.310852 
L 161.57189 121.20447 
L 162.288542 121.486761 
L 163.005193 121.334187 
L 163.721845 121.422865 
L 165.871799 121.255481 
L 166.588451 121.557007 
L 167.305102 121.446677 
L 168.021754 121.488796 
L 168.738405 121.272336 
L 169.455056 121.584377 
L 170.171708 121.598235 
L 170.888359 121.484102 
L 171.605011 121.757355 
L 172.321662 121.774603 
L 173.038314 121.379168 
L 173.754965 121.965534 
L 175.188268 121.793133 
L 175.90492 121.925415 
L 176.621571 121.848583 
L 177.338223 122.078128 
L 178.054874 121.88046 
L 178.771526 122.073247 
L 179.488177 121.996731 
L 180.92148 122.094218 
L 182.354783 121.890467 
L 183.788086 122.260959 
L 184.504738 121.951741 
L 185.221389 122.141972 
L 185.938041 121.980013 
L 186.654692 122.255092 
L 187.371344 122.179924 
L 189.521298 122.277761 
L 190.23795 122.000347 
L 191.671253 122.421743 
L 192.387904 122.29964 
L 193.104555 122.524657 
L 193.821207 122.304985 
L 194.537858 122.416135 
L 195.25451 122.122279 
L 195.971161 122.352464 
L 198.121116 122.652062 
L 198.837767 122.260433 
L 200.27107 122.522658 
L 201.704373 122.449908 
L 202.421025 122.616437 
L 203.137676 122.530996 
L 203.854328 122.716022 
L 204.570979 122.543886 
L 205.287631 122.736316 
L 206.720934 122.70949 
L 207.437585 122.765201 
L 208.870888 122.729343 
L 209.58754 122.768341 
L 210.304191 122.626183 
L 211.737494 122.776944 
L 212.454146 122.79402 
L 213.170797 122.595042 
L 214.6041 122.90849 
L 215.320752 122.724858 
L 216.037403 122.97024 
L 217.470706 122.89905 
L 218.187357 122.623018 
L 218.904009 122.889101 
L 219.62066 122.911685 
L 220.337312 122.798289 
L 221.053963 122.804629 
L 223.203918 123.157334 
L 223.920569 122.974677 
L 225.353872 123.002786 
L 226.070524 122.838419 
L 227.503827 122.958984 
L 228.220478 122.971255 
L 228.93713 123.180096 
L 229.653781 122.949751 
L 230.370433 123.184614 
L 231.087084 122.888012 
L 233.237039 123.082915 
L 233.95369 123.122533 
L 234.670342 122.929675 
L 236.103645 123.220386 
L 236.820296 123.061013 
L 238.253599 123.10564 
L 238.970251 123.195074 
L 240.403553 123.163925 
L 243.270159 123.245535 
L 243.986811 123.118835 
L 244.703462 123.354038 
L 245.420114 123.233413 
L 246.136765 123.250601 
L 246.853417 123.104785 
L 247.570068 123.366425 
L 248.28672 123.337503 
L 249.003371 123.073728 
L 249.720023 123.374641 
L 250.436674 123.235074 
L 253.30328 123.320015 
L 254.019932 123.231418 
L 254.736583 123.412304 
L 256.169886 123.13542 
L 257.603189 123.425559 
L 259.036492 123.363155 
L 261.186447 123.267845 
L 261.903098 123.430624 
L 264.053052 123.521365 
L 264.769704 123.179589 
L 266.203007 123.578572 
L 267.63631 123.474763 
L 268.352961 123.575799 
L 269.786264 123.506652 
L 271.219567 123.625325 
L 271.936219 123.701368 
L 272.65287 123.414324 
L 273.369522 123.604574 
L 274.086173 123.515861 
L 274.802825 123.689819 
L 275.519476 123.372525 
L 276.236128 123.514116 
L 276.952779 123.470145 
L 277.669431 123.582468 
L 279.819385 123.645262 
L 280.536037 123.684018 
L 281.252688 123.488851 
L 281.96934 123.643493 
L 282.685991 123.45792 
L 283.402643 123.636624 
L 284.835946 123.478353 
L 285.552597 123.771042 
L 287.702551 123.59721 
L 289.852506 123.683072 
L 291.285809 123.574929 
L 292.00246 123.821527 
L 293.435763 123.687358 
L 294.152415 123.774874 
L 295.585718 123.692627 
L 297.019021 123.659025 
L 297.735672 123.544955 
L 299.168975 123.772172 
L 299.885627 123.565213 
L 300.602278 123.518035 
L 303.468884 123.756761 
L 305.618839 123.713053 
L 306.33549 123.842514 
L 308.485445 123.708126 
L 309.918747 123.881415 
L 311.35205 123.782387 
L 312.068702 123.852527 
L 312.785353 123.788287 
L 313.502005 123.862632 
L 314.218656 123.726572 
L 315.651959 123.834107 
L 317.085262 123.739582 
L 318.518565 123.954149 
L 319.951868 123.898911 
L 322.101823 123.877944 
L 322.818474 123.617871 
L 324.251777 123.858734 
L 327.118383 123.795776 
L 328.551686 123.754351 
L 329.268338 123.833876 
L 329.984989 123.7617 
L 331.418292 123.964395 
L 333.568246 123.8398 
L 335.001549 123.973229 
L 340.734761 123.852433 
L 341.451413 123.982514 
L 342.168064 123.911908 
L 342.884716 124.025427 
L 344.318019 123.88221 
L 345.03467 124.065702 
L 345.751322 123.934428 
L 346.467973 124.13811 
L 347.184625 123.889736 
L 347.901276 124.167876 
L 348.617928 124.112135 
L 349.334579 123.936406 
L 350.767882 124.038592 
L 354.35114 124.013157 
L 356.501094 124.006113 
L 357.217745 123.86833 
L 357.934397 124.032416 
L 360.801003 124.087043 
L 361.517654 123.999951 
L 362.950957 124.048109 
L 365.100912 124.121844 
L 365.817563 123.973181 
L 367.967518 124.156536 
L 369.400821 124.090842 
L 370.117472 124.233192 
L 370.834124 124.088716 
L 371.550775 124.21452 
L 372.984078 124.124437 
L 379.433942 124.212746 
L 380.150593 123.900682 
L 380.867244 124.23915 
L 384.450502 124.240458 
L 385.883805 124.247193 
L 388.750411 124.217733 
L 389.467062 124.268741 
L 390.900365 124.109672 
L 392.333668 124.172255 
L 393.766971 124.200478 
L 395.916926 124.259559 
L 397.350229 124.16451 
L 398.06688 124.110232 
L 398.783532 124.252302 
L 403.800092 124.216898 
L 404.516743 124.325166 
L 405.950046 124.190658 
L 406.666698 124.259776 
L 407.383349 124.127716 
L 409.533304 124.240011 
L 411.683258 124.269327 
L 418.133122 124.29936 
L 418.849773 124.372811 
L 419.566425 124.219004 
L 420.999728 124.337098 
L 423.149682 124.278365 
L 423.866334 124.361544 
L 425.299637 124.281323 
L 428.882894 124.276831 
L 429.599545 124.328217 
L 429.599545 124.328217 
" style="fill:none;stroke:#ffa500;stroke-linecap:square;stroke-width:1.5;"/>
   </g>
   <g id="patch_3">
    <path d="M 54.11 136.24 
L 54.11 25.44 
" style="fill:none;stroke:#000000;stroke-linecap:square;stroke-linejoin:miter;stroke-width:0.8;"/>
   </g>
   <g id="patch_4">
    <path d="M 447.48 136.24 
L 447.48 25.44 
" style="fill:none;stroke:#000000;stroke-linecap:square;stroke-linejoin:miter;stroke-width:0.8;"/>
   </g>
   <g id="patch_5">
    <path d="M 54.11 136.24 
L 447.48 136.24 
" style="fill:none;stroke:#000000;stroke-linecap:square;stroke-linejoin:miter;stroke-width:0.8;"/>
   </g>
   <g id="patch_6">
    <path d="M 54.11 25.44 
L 447.48 25.44 
" style="fill:none;stroke:#000000;stroke-linecap:square;stroke-linejoin:miter;stroke-width:0.8;"/>
   </g>
   <g id="text_13">
    <!-- model loss -->
    <defs>
     <path d="M 52 44.1875 
Q 55.375 50.25 60.0625 53.125 
Q 64.75 56 71.09375 56 
Q 79.640625 56 84.28125 50.015625 
Q 88.921875 44.046875 88.921875 33.015625 
L 88.921875 0 
L 79.890625 0 
L 79.890625 32.71875 
Q 79.890625 40.578125 77.09375 44.375 
Q 74.3125 48.1875 68.609375 48.1875 
Q 61.625 48.1875 57.5625 43.546875 
Q 53.515625 38.921875 53.515625 30.90625 
L 53.515625 0 
L 44.484375 0 
L 44.484375 32.71875 
Q 44.484375 40.625 41.703125 44.40625 
Q 38.921875 48.1875 33.109375 48.1875 
Q 26.21875 48.1875 22.15625 43.53125 
Q 18.109375 38.875 18.109375 30.90625 
L 18.109375 0 
L 9.078125 0 
L 9.078125 54.6875 
L 18.109375 54.6875 
L 18.109375 46.1875 
Q 21.1875 51.21875 25.484375 53.609375 
Q 29.78125 56 35.6875 56 
Q 41.65625 56 45.828125 52.96875 
Q 50 49.953125 52 44.1875 
z
" id="DejaVuSans-109"/>
     <path d="M 45.40625 46.390625 
L 45.40625 75.984375 
L 54.390625 75.984375 
L 54.390625 0 
L 45.40625 0 
L 45.40625 8.203125 
Q 42.578125 3.328125 38.25 0.953125 
Q 33.9375 -1.421875 27.875 -1.421875 
Q 17.96875 -1.421875 11.734375 6.484375 
Q 5.515625 14.40625 5.515625 27.296875 
Q 5.515625 40.1875 11.734375 48.09375 
Q 17.96875 56 27.875 56 
Q 33.9375 56 38.25 53.625 
Q 42.578125 51.265625 45.40625 46.390625 
z
M 14.796875 27.296875 
Q 14.796875 17.390625 18.875 11.75 
Q 22.953125 6.109375 30.078125 6.109375 
Q 37.203125 6.109375 41.296875 11.75 
Q 45.40625 17.390625 45.40625 27.296875 
Q 45.40625 37.203125 41.296875 42.84375 
Q 37.203125 48.484375 30.078125 48.484375 
Q 22.953125 48.484375 18.875 42.84375 
Q 14.796875 37.203125 14.796875 27.296875 
z
" id="DejaVuSans-100"/>
     <path id="DejaVuSans-32"/>
    </defs>
    <g transform="translate(218.615313 19.44)scale(0.12 -0.12)">
     <use xlink:href="#DejaVuSans-109"/>
     <use x="97.412109" xlink:href="#DejaVuSans-111"/>
     <use x="158.59375" xlink:href="#DejaVuSans-100"/>
     <use x="222.070312" xlink:href="#DejaVuSans-101"/>
     <use x="283.59375" xlink:href="#DejaVuSans-108"/>
     <use x="311.376953" xlink:href="#DejaVuSans-32"/>
     <use x="343.164062" xlink:href="#DejaVuSans-108"/>
     <use x="370.947266" xlink:href="#DejaVuSans-111"/>
     <use x="432.128906" xlink:href="#DejaVuSans-115"/>
     <use x="484.228516" xlink:href="#DejaVuSans-115"/>
    </g>
   </g>
   <g id="legend_1">
    <g id="patch_7">
     <path d="M 61.11 62.79625 
L 116.385 62.79625 
Q 118.385 62.79625 118.385 60.79625 
L 118.385 32.44 
Q 118.385 30.44 116.385 30.44 
L 61.11 30.44 
Q 59.11 30.44 59.11 32.44 
L 59.11 60.79625 
Q 59.11 62.79625 61.11 62.79625 
z
" style="fill:#ffffff;opacity:0.8;stroke:#cccccc;stroke-linejoin:miter;"/>
    </g>
    <g id="line2d_13">
     <path d="M 63.11 38.538437 
L 83.11 38.538437 
" style="fill:none;stroke:#0000ff;stroke-linecap:square;stroke-width:1.5;"/>
    </g>
    <g id="line2d_14"/>
    <g id="text_14">
     <!-- train -->
     <defs>
      <path d="M 18.3125 70.21875 
L 18.3125 54.6875 
L 36.8125 54.6875 
L 36.8125 47.703125 
L 18.3125 47.703125 
L 18.3125 18.015625 
Q 18.3125 11.328125 20.140625 9.421875 
Q 21.96875 7.515625 27.59375 7.515625 
L 36.8125 7.515625 
L 36.8125 0 
L 27.59375 0 
Q 17.1875 0 13.234375 3.875 
Q 9.28125 7.765625 9.28125 18.015625 
L 9.28125 47.703125 
L 2.6875 47.703125 
L 2.6875 54.6875 
L 9.28125 54.6875 
L 9.28125 70.21875 
z
" id="DejaVuSans-116"/>
      <path d="M 41.109375 46.296875 
Q 39.59375 47.171875 37.8125 47.578125 
Q 36.03125 48 33.890625 48 
Q 26.265625 48 22.1875 43.046875 
Q 18.109375 38.09375 18.109375 28.8125 
L 18.109375 0 
L 9.078125 0 
L 9.078125 54.6875 
L 18.109375 54.6875 
L 18.109375 46.1875 
Q 20.953125 51.171875 25.484375 53.578125 
Q 30.03125 56 36.53125 56 
Q 37.453125 56 38.578125 55.875 
Q 39.703125 55.765625 41.0625 55.515625 
z
" id="DejaVuSans-114"/>
      <path d="M 34.28125 27.484375 
Q 23.390625 27.484375 19.1875 25 
Q 14.984375 22.515625 14.984375 16.5 
Q 14.984375 11.71875 18.140625 8.90625 
Q 21.296875 6.109375 26.703125 6.109375 
Q 34.1875 6.109375 38.703125 11.40625 
Q 43.21875 16.703125 43.21875 25.484375 
L 43.21875 27.484375 
z
M 52.203125 31.203125 
L 52.203125 0 
L 43.21875 0 
L 43.21875 8.296875 
Q 40.140625 3.328125 35.546875 0.953125 
Q 30.953125 -1.421875 24.3125 -1.421875 
Q 15.921875 -1.421875 10.953125 3.296875 
Q 6 8.015625 6 15.921875 
Q 6 25.140625 12.171875 29.828125 
Q 18.359375 34.515625 30.609375 34.515625 
L 43.21875 34.515625 
L 43.21875 35.40625 
Q 43.21875 41.609375 39.140625 45 
Q 35.0625 48.390625 27.6875 48.390625 
Q 23 48.390625 18.546875 47.265625 
Q 14.109375 46.140625 10.015625 43.890625 
L 10.015625 52.203125 
Q 14.9375 54.109375 19.578125 55.046875 
Q 24.21875 56 28.609375 56 
Q 40.484375 56 46.34375 49.84375 
Q 52.203125 43.703125 52.203125 31.203125 
z
" id="DejaVuSans-97"/>
      <path d="M 9.421875 54.6875 
L 18.40625 54.6875 
L 18.40625 0 
L 9.421875 0 
z
M 9.421875 75.984375 
L 18.40625 75.984375 
L 18.40625 64.59375 
L 9.421875 64.59375 
z
" id="DejaVuSans-105"/>
      <path d="M 54.890625 33.015625 
L 54.890625 0 
L 45.90625 0 
L 45.90625 32.71875 
Q 45.90625 40.484375 42.875 44.328125 
Q 39.84375 48.1875 33.796875 48.1875 
Q 26.515625 48.1875 22.3125 43.546875 
Q 18.109375 38.921875 18.109375 30.90625 
L 18.109375 0 
L 9.078125 0 
L 9.078125 54.6875 
L 18.109375 54.6875 
L 18.109375 46.1875 
Q 21.34375 51.125 25.703125 53.5625 
Q 30.078125 56 35.796875 56 
Q 45.21875 56 50.046875 50.171875 
Q 54.890625 44.34375 54.890625 33.015625 
z
" id="DejaVuSans-110"/>
     </defs>
     <g transform="translate(91.11 42.038437)scale(0.1 -0.1)">
      <use xlink:href="#DejaVuSans-116"/>
      <use x="39.208984" xlink:href="#DejaVuSans-114"/>
      <use x="80.322266" xlink:href="#DejaVuSans-97"/>
      <use x="141.601562" xlink:href="#DejaVuSans-105"/>
      <use x="169.384766" xlink:href="#DejaVuSans-110"/>
     </g>
    </g>
    <g id="line2d_15">
     <path d="M 63.11 53.216563 
L 83.11 53.216563 
" style="fill:none;stroke:#ffa500;stroke-linecap:square;stroke-width:1.5;"/>
    </g>
    <g id="line2d_16"/>
    <g id="text_15">
     <!-- test -->
     <g transform="translate(91.11 56.716563)scale(0.1 -0.1)">
      <use xlink:href="#DejaVuSans-116"/>
      <use x="39.208984" xlink:href="#DejaVuSans-101"/>
      <use x="100.732422" xlink:href="#DejaVuSans-115"/>
      <use x="152.832031" xlink:href="#DejaVuSans-116"/>
     </g>
    </g>
   </g>
  </g>
  <g id="axes_2">
   <g id="patch_8">
    <path d="M 54.11 303.64 
L 447.48 303.64 
L 447.48 192.84 
L 54.11 192.84 
z
" style="fill:#ffffff;"/>
   </g>
   <g id="matplotlib.axis_3">
    <g id="xtick_7">
     <g id="line2d_17">
      <g>
       <use style="stroke:#000000;stroke-width:0.8;" x="71.990455" xlink:href="#mb5662c0dc2" y="303.64"/>
      </g>
     </g>
     <g id="text_16">
      <!-- 0 -->
      <g transform="translate(68.809205 318.238437)scale(0.1 -0.1)">
       <use xlink:href="#DejaVuSans-48"/>
      </g>
     </g>
    </g>
    <g id="xtick_8">
     <g id="line2d_18">
      <g>
       <use style="stroke:#000000;stroke-width:0.8;" x="143.655603" xlink:href="#mb5662c0dc2" y="303.64"/>
      </g>
     </g>
     <g id="text_17">
      <!-- 100 -->
      <g transform="translate(134.111853 318.238437)scale(0.1 -0.1)">
       <use xlink:href="#DejaVuSans-49"/>
       <use x="63.623047" xlink:href="#DejaVuSans-48"/>
       <use x="127.246094" xlink:href="#DejaVuSans-48"/>
      </g>
     </g>
    </g>
    <g id="xtick_9">
     <g id="line2d_19">
      <g>
       <use style="stroke:#000000;stroke-width:0.8;" x="215.320752" xlink:href="#mb5662c0dc2" y="303.64"/>
      </g>
     </g>
     <g id="text_18">
      <!-- 200 -->
      <g transform="translate(205.777002 318.238437)scale(0.1 -0.1)">
       <use xlink:href="#DejaVuSans-50"/>
       <use x="63.623047" xlink:href="#DejaVuSans-48"/>
       <use x="127.246094" xlink:href="#DejaVuSans-48"/>
      </g>
     </g>
    </g>
    <g id="xtick_10">
     <g id="line2d_20">
      <g>
       <use style="stroke:#000000;stroke-width:0.8;" x="286.9859" xlink:href="#mb5662c0dc2" y="303.64"/>
      </g>
     </g>
     <g id="text_19">
      <!-- 300 -->
      <g transform="translate(277.44215 318.238437)scale(0.1 -0.1)">
       <use xlink:href="#DejaVuSans-51"/>
       <use x="63.623047" xlink:href="#DejaVuSans-48"/>
       <use x="127.246094" xlink:href="#DejaVuSans-48"/>
      </g>
     </g>
    </g>
    <g id="xtick_11">
     <g id="line2d_21">
      <g>
       <use style="stroke:#000000;stroke-width:0.8;" x="358.651048" xlink:href="#mb5662c0dc2" y="303.64"/>
      </g>
     </g>
     <g id="text_20">
      <!-- 400 -->
      <g transform="translate(349.107298 318.238437)scale(0.1 -0.1)">
       <use xlink:href="#DejaVuSans-52"/>
       <use x="63.623047" xlink:href="#DejaVuSans-48"/>
       <use x="127.246094" xlink:href="#DejaVuSans-48"/>
      </g>
     </g>
    </g>
    <g id="xtick_12">
     <g id="line2d_22">
      <g>
       <use style="stroke:#000000;stroke-width:0.8;" x="430.316197" xlink:href="#mb5662c0dc2" y="303.64"/>
      </g>
     </g>
     <g id="text_21">
      <!-- 500 -->
      <g transform="translate(420.772447 318.238437)scale(0.1 -0.1)">
       <use xlink:href="#DejaVuSans-53"/>
       <use x="63.623047" xlink:href="#DejaVuSans-48"/>
       <use x="127.246094" xlink:href="#DejaVuSans-48"/>
      </g>
     </g>
    </g>
    <g id="text_22">
     <!-- epoch -->
     <g transform="translate(235.566875 331.916562)scale(0.1 -0.1)">
      <use xlink:href="#DejaVuSans-101"/>
      <use x="61.523438" xlink:href="#DejaVuSans-112"/>
      <use x="125" xlink:href="#DejaVuSans-111"/>
      <use x="186.181641" xlink:href="#DejaVuSans-99"/>
      <use x="241.162109" xlink:href="#DejaVuSans-104"/>
     </g>
    </g>
   </g>
   <g id="matplotlib.axis_4">
    <g id="ytick_5">
     <g id="line2d_23">
      <g>
       <use style="stroke:#000000;stroke-width:0.8;" x="54.11" xlink:href="#m76233f7de4" y="269.233667"/>
      </g>
     </g>
     <g id="text_23">
      <!-- 0.7 -->
      <defs>
       <path d="M 8.203125 72.90625 
L 55.078125 72.90625 
L 55.078125 68.703125 
L 28.609375 0 
L 18.3125 0 
L 43.21875 64.59375 
L 8.203125 64.59375 
z
" id="DejaVuSans-55"/>
      </defs>
      <g transform="translate(31.206875 273.032885)scale(0.1 -0.1)">
       <use xlink:href="#DejaVuSans-48"/>
       <use x="63.623047" xlink:href="#DejaVuSans-46"/>
       <use x="95.410156" xlink:href="#DejaVuSans-55"/>
      </g>
     </g>
    </g>
    <g id="ytick_6">
     <g id="line2d_24">
      <g>
       <use style="stroke:#000000;stroke-width:0.8;" x="54.11" xlink:href="#m76233f7de4" y="228.067332"/>
      </g>
     </g>
     <g id="text_24">
      <!-- 0.8 -->
      <g transform="translate(31.206875 231.866551)scale(0.1 -0.1)">
       <use xlink:href="#DejaVuSans-48"/>
       <use x="63.623047" xlink:href="#DejaVuSans-46"/>
       <use x="95.410156" xlink:href="#DejaVuSans-56"/>
      </g>
     </g>
    </g>
    <g id="text_25">
     <!-- accuracy -->
     <defs>
      <path d="M 8.5 21.578125 
L 8.5 54.6875 
L 17.484375 54.6875 
L 17.484375 21.921875 
Q 17.484375 14.15625 20.5 10.265625 
Q 23.53125 6.390625 29.59375 6.390625 
Q 36.859375 6.390625 41.078125 11.03125 
Q 45.3125 15.671875 45.3125 23.6875 
L 45.3125 54.6875 
L 54.296875 54.6875 
L 54.296875 0 
L 45.3125 0 
L 45.3125 8.40625 
Q 42.046875 3.421875 37.71875 1 
Q 33.40625 -1.421875 27.6875 -1.421875 
Q 18.265625 -1.421875 13.375 4.4375 
Q 8.5 10.296875 8.5 21.578125 
z
M 31.109375 56 
z
" id="DejaVuSans-117"/>
      <path d="M 32.171875 -5.078125 
Q 28.375 -14.84375 24.75 -17.8125 
Q 21.140625 -20.796875 15.09375 -20.796875 
L 7.90625 -20.796875 
L 7.90625 -13.28125 
L 13.1875 -13.28125 
Q 16.890625 -13.28125 18.9375 -11.515625 
Q 21 -9.765625 23.484375 -3.21875 
L 25.09375 0.875 
L 2.984375 54.6875 
L 12.5 54.6875 
L 29.59375 11.921875 
L 46.6875 54.6875 
L 56.203125 54.6875 
z
" id="DejaVuSans-121"/>
     </defs>
     <g transform="translate(25.127188 270.799375)rotate(-90)scale(0.1 -0.1)">
      <use xlink:href="#DejaVuSans-97"/>
      <use x="61.279297" xlink:href="#DejaVuSans-99"/>
      <use x="116.259766" xlink:href="#DejaVuSans-99"/>
      <use x="171.240234" xlink:href="#DejaVuSans-117"/>
      <use x="234.619141" xlink:href="#DejaVuSans-114"/>
      <use x="275.732422" xlink:href="#DejaVuSans-97"/>
      <use x="337.011719" xlink:href="#DejaVuSans-99"/>
      <use x="391.992188" xlink:href="#DejaVuSans-121"/>
     </g>
    </g>
   </g>
   <g id="line2d_25">
    <path clip-path="url(#p2d189ac6d5)" d="M 71.990455 298.603636 
L 72.707106 280.329971 
L 73.423758 271.322219 
L 74.140409 264.910039 
L 74.85706 259.718895 
L 76.290363 252.113589 
L 77.723666 246.638699 
L 78.440318 243.254687 
L 79.873621 239.382261 
L 80.590272 237.940276 
L 81.306924 235.772648 
L 82.023575 234.795819 
L 82.740227 233.581762 
L 83.456878 231.767652 
L 84.17353 230.741982 
L 84.890181 230.000058 
L 85.606833 228.59296 
L 86.323484 228.074311 
L 87.040136 226.946307 
L 87.756787 226.264853 
L 88.473439 225.360124 
L 89.19009 225.12522 
L 89.906742 224.260029 
L 90.623393 224.008845 
L 91.340045 223.078532 
L 92.056696 222.618027 
L 92.773348 221.957505 
L 93.489999 221.957505 
L 94.206651 221.152785 
L 96.356605 220.059668 
L 97.073257 219.394494 
L 98.506559 218.633964 
L 99.223211 218.827003 
L 99.939862 217.975767 
L 100.656514 217.633878 
L 102.089817 217.294313 
L 102.806468 216.7338 
L 103.52312 216.787293 
L 104.239771 216.231431 
L 105.673074 215.552303 
L 108.53968 214.989464 
L 109.256332 214.621991 
L 109.972983 214.426625 
L 110.689635 214.526633 
L 111.406286 213.924256 
L 112.122938 213.540502 
L 112.839589 213.335833 
L 113.556241 213.682375 
L 114.272892 213.07302 
L 114.989544 213.324204 
L 115.706195 212.893935 
L 117.139498 212.847419 
L 117.85615 212.289232 
L 118.572801 211.958971 
L 119.289453 211.979903 
L 120.006104 211.770582 
L 120.722756 211.735696 
L 121.439407 211.324032 
L 122.156058 211.586846 
L 122.87271 211.117038 
L 123.589361 211.386828 
L 124.306013 211.107735 
L 125.022664 211.15425 
L 127.172619 210.435584 
L 129.322573 210.214635 
L 130.039225 210.209983 
L 130.755876 209.847161 
L 131.472528 209.812274 
L 132.189179 209.630863 
L 132.905831 209.588999 
L 134.339134 209.028486 
L 135.055785 209.244784 
L 136.489088 208.716831 
L 137.20574 208.874984 
L 137.922391 208.900568 
L 140.072346 208.609845 
L 140.788997 207.951649 
L 141.505649 208.38657 
L 142.938952 207.742329 
L 143.655603 207.963278 
L 145.088906 207.949323 
L 145.805557 207.767912 
L 146.522209 207.812102 
L 148.672163 207.15158 
L 149.388815 207.367878 
L 152.972072 206.770152 
L 153.688724 207.025988 
L 154.405375 206.925979 
L 155.122027 207.193444 
L 155.838678 206.709682 
L 156.55533 206.742243 
L 157.988633 206.1701 
L 158.705284 206.514316 
L 159.421936 206.270109 
L 160.138587 206.421285 
L 160.855239 206.111956 
L 161.57189 206.025902 
L 162.288542 206.135214 
L 163.005193 205.760763 
L 163.721845 205.781695 
L 164.438496 205.604936 
L 165.155148 205.784021 
L 165.871799 205.502601 
L 166.588451 205.451434 
L 167.305102 206.132888 
L 168.021754 205.521207 
L 168.738405 205.407244 
L 169.455056 205.17234 
L 170.171708 205.311887 
L 171.605011 205.021164 
L 173.038314 205.025816 
L 173.754965 204.881618 
L 174.471617 205.183969 
L 175.188268 204.90255 
L 175.90492 204.921156 
L 176.621571 205.281652 
L 177.338223 204.728116 
L 178.054874 204.479257 
L 178.771526 204.630433 
L 179.488177 204.423439 
L 180.204829 204.911853 
L 180.92148 204.42809 
L 181.638132 204.232724 
L 182.354783 204.525773 
L 183.071435 204.425764 
L 183.788086 203.972237 
L 184.504738 204.337385 
L 185.221389 204.121087 
L 185.938041 204.148996 
L 187.371344 203.900138 
L 188.087995 203.953631 
L 188.804647 204.27924 
L 189.521298 203.92107 
L 190.23795 204.02573 
L 190.954601 203.707098 
L 192.387904 203.92107 
L 193.821207 203.525687 
L 195.25451 203.786174 
L 195.971161 203.448936 
L 197.404464 203.479171 
L 198.837767 203.407072 
L 199.554419 203.507081 
L 200.27107 203.225661 
L 200.987722 203.283806 
L 201.704373 203.486149 
L 202.421025 203.421027 
L 203.137676 203.190774 
L 203.854328 203.448936 
L 204.570979 202.767482 
L 205.287631 203.195426 
L 206.004282 202.930287 
L 206.720934 203.118675 
L 207.437585 202.869816 
L 208.154237 203.065182 
L 208.870888 202.932613 
L 209.58754 202.569791 
L 210.304191 202.602352 
L 211.020843 202.976802 
L 211.737494 202.723292 
L 212.454146 203.041924 
L 213.170797 202.590723 
L 214.6041 202.655845 
L 215.320752 202.779111 
L 216.037403 202.732595 
L 216.754054 202.53723 
L 217.470706 202.623284 
L 218.187357 202.325584 
L 218.904009 202.520949 
L 220.337312 202.372099 
L 221.053963 202.539556 
L 221.770615 202.216272 
L 222.487266 202.43257 
L 223.920569 202.093005 
L 224.637221 202.486063 
L 225.353872 202.206969 
L 226.070524 202.369773 
L 227.503827 202.04649 
L 228.93713 201.992997 
L 229.653781 201.679016 
L 230.370433 202.262788 
L 231.087084 201.927875 
L 231.803736 202.072073 
L 232.520387 201.972065 
L 233.237039 202.079051 
L 236.820296 201.827866 
L 237.536948 201.848798 
L 238.253599 201.620872 
L 238.970251 201.85345 
L 239.686902 201.227815 
L 240.403553 201.865079 
L 241.120205 201.609243 
L 241.836856 201.530166 
L 243.270159 201.730184 
L 243.986811 201.199905 
L 245.420114 201.744138 
L 248.28672 201.053381 
L 249.003371 201.611569 
L 249.720023 201.30224 
L 251.153326 201.288285 
L 251.869977 201.537144 
L 252.586629 201.230141 
L 253.30328 201.085942 
L 254.736583 201.34643 
L 255.453235 200.997562 
L 256.169886 201.411552 
L 256.886538 200.91616 
L 257.603189 201.088268 
L 259.036492 201.102223 
L 259.753144 200.89988 
L 261.903098 200.874296 
L 263.336401 200.895228 
L 264.053052 201.00454 
L 264.769704 200.965001 
L 265.486355 200.746378 
L 266.203007 201.011517 
L 266.919658 200.758007 
L 267.63631 200.969653 
L 269.069613 200.839409 
L 269.786264 200.888251 
L 270.502916 200.820803 
L 271.219567 201.027798 
L 271.936219 200.70684 
L 272.65287 200.774287 
L 273.369522 200.620786 
L 274.086173 200.585899 
L 274.802825 200.718469 
L 275.519476 200.404488 
L 276.236128 200.888251 
L 276.952779 200.876622 
L 277.669431 200.651021 
L 279.102734 200.588225 
L 280.536037 200.413791 
L 281.96934 200.383556 
L 282.685991 200.278896 
L 283.402643 200.674279 
L 284.119294 200.476587 
L 284.835946 200.144001 
L 286.9859 200.478913 
L 288.419203 200.248661 
L 289.135854 199.943983 
L 289.852506 200.269593 
L 290.569157 199.732337 
L 291.285809 200.176562 
L 292.00246 200.353321 
L 292.719112 200.08353 
L 293.435763 200.474262 
L 294.152415 200.262615 
L 294.869066 200.283547 
L 295.585718 200.15563 
L 297.019021 200.183539 
L 297.735672 199.967241 
L 298.452324 200.295176 
L 299.168975 200.223077 
L 299.885627 199.950961 
L 302.752233 199.96259 
L 303.468884 200.18819 
L 304.185536 199.778853 
L 304.902187 199.529994 
L 305.618839 200.043992 
L 306.33549 200.146326 
L 307.052142 199.850952 
L 307.768793 199.699776 
L 308.485445 200.011431 
L 309.202096 199.790482 
L 309.918747 199.416031 
L 312.068702 199.795133 
L 312.785353 199.585813 
L 313.502005 199.632329 
L 314.218656 200.043992 
L 314.935308 199.585813 
L 315.651959 199.743966 
L 316.368611 199.429986 
L 317.801914 199.578836 
L 318.518565 199.897468 
L 319.235217 199.811414 
L 320.66852 199.399751 
L 321.385171 199.671867 
L 322.101823 199.604419 
L 322.818474 199.709079 
L 323.535126 199.627677 
L 324.251777 199.357886 
L 324.968429 199.392773 
L 325.68508 199.290439 
L 326.401732 199.648609 
L 327.118383 199.202059 
L 327.835035 199.374167 
L 328.551686 199.676519 
L 329.268338 199.423008 
L 330.701641 199.478827 
L 332.134944 198.964829 
L 333.568246 199.341606 
L 335.001549 199.192756 
L 336.434852 199.302068 
L 337.151504 198.990413 
L 337.868155 199.267181 
L 338.584807 199.255552 
L 339.301458 199.518365 
L 340.01811 199.316022 
L 340.734761 199.436963 
L 341.451413 199.125308 
L 342.168064 199.323 
L 342.884716 199.348583 
L 343.601367 199.134611 
L 346.467973 199.099725 
L 347.184625 198.671781 
L 347.901276 199.057861 
L 348.617928 198.922965 
L 349.334579 199.088096 
L 350.051231 199.083444 
L 350.767882 198.927617 
L 352.201185 199.218339 
L 352.917837 199.243923 
L 354.35114 198.895056 
L 355.067791 199.346258 
L 356.501094 198.857843 
L 357.217745 198.98111 
L 357.934397 198.809002 
L 358.651048 198.860169 
L 359.3677 199.213688 
L 360.084351 198.69969 
L 360.801003 199.027625 
L 362.234306 198.78807 
L 362.950957 198.992739 
L 363.667609 199.032277 
L 364.38426 198.513628 
L 365.100912 198.813654 
L 365.817563 198.960178 
L 367.250866 198.643872 
L 367.967518 198.857843 
L 368.684169 198.799699 
L 369.400821 198.857843 
L 370.117472 198.6555 
L 370.834124 198.909011 
L 371.550775 198.802025 
L 372.267427 198.862495 
L 372.984078 198.443854 
L 373.70073 198.562469 
L 374.417381 198.995065 
L 375.134033 198.615962 
L 375.850684 198.750857 
L 376.567336 198.588053 
L 377.283987 198.883427 
L 378.71729 198.44618 
L 379.433942 198.722948 
L 380.150593 198.592704 
L 380.867244 199.06949 
L 383.017199 198.708993 
L 384.450502 198.576424 
L 385.167153 198.811328 
L 385.883805 198.7276 
L 386.600456 198.911336 
L 387.317108 198.278724 
L 388.033759 198.408968 
L 389.467062 198.213602 
L 390.183714 198.569447 
L 390.900365 198.702016 
L 391.617017 198.557818 
L 392.333668 198.260118 
L 393.05032 198.408968 
L 393.766971 198.269421 
L 394.483623 198.474089 
L 395.200274 198.513628 
L 395.916926 198.348497 
L 396.633577 198.315936 
L 397.350229 198.634568 
L 398.06688 198.255466 
L 398.783532 198.022888 
L 399.500183 198.50665 
L 402.366789 198.248489 
L 403.083441 198.311285 
L 404.516743 197.915902 
L 405.233395 198.320588 
L 405.950046 198.369429 
L 407.383349 198.269421 
L 408.100001 198.448506 
L 408.816652 198.336868 
L 409.533304 198.048471 
L 410.249955 198.413619 
L 411.683258 198.118245 
L 412.39991 198.543863 
L 413.116561 198.053123 
L 413.833213 198.397339 
L 415.266516 198.201973 
L 415.983167 198.246163 
L 418.133122 197.985675 
L 418.849773 198.08801 
L 419.566425 198.422922 
L 420.283076 198.322914 
L 420.999728 197.936834 
L 421.716379 198.422922 
L 422.433031 198.025214 
L 423.149682 198.441529 
L 424.582985 198.08801 
L 425.299637 198.381058 
L 426.016288 198.034517 
L 426.73294 198.171738 
L 427.449591 198.092661 
L 428.166242 197.876364 
L 428.882894 198.194996 
L 429.599545 198.153132 
L 429.599545 198.153132 
" style="fill:none;stroke:#0000ff;stroke-linecap:square;stroke-width:1.5;"/>
   </g>
   <g id="line2d_26">
    <path clip-path="url(#p2d189ac6d5)" d="M 71.990455 286.419239 
L 72.707106 278.043262 
L 73.423758 267.493703 
L 74.85706 254.880339 
L 75.573712 251.993207 
L 76.290363 249.847068 
L 77.007015 246.916026 
L 77.723666 244.775376 
L 79.156969 239.226154 
L 79.873621 237.381903 
L 80.590272 235.032677 
L 81.306924 235.54314 
L 82.023575 232.732851 
L 82.740227 232.716385 
L 83.456878 230.734912 
L 84.17353 230.795289 
L 84.890181 228.780884 
L 85.606833 228.51193 
L 86.323484 227.298895 
L 87.040136 225.866307 
L 87.756787 225.3778 
L 88.473439 226.645723 
L 89.19009 224.57094 
L 89.906742 224.724628 
L 90.623393 223.056019 
L 91.340045 223.506104 
L 92.056696 222.583978 
L 92.773348 222.326002 
L 93.489999 221.919828 
L 94.206651 222.759621 
L 94.923302 220.701305 
L 95.639954 221.052591 
L 97.073257 220.070087 
L 97.789908 220.113998 
L 98.506559 219.768201 
L 99.223211 219.779179 
L 99.939862 219.312627 
L 100.656514 219.625491 
L 101.373165 219.213828 
L 102.089817 219.927378 
L 102.806468 217.912972 
L 103.52312 218.011771 
L 104.239771 218.330124 
L 105.673074 216.919491 
L 106.389726 218.121548 
L 107.106377 218.763742 
L 107.823029 217.2104 
L 108.53968 216.946935 
L 109.972983 216.129097 
L 110.689635 216.26083 
L 111.406286 215.915032 
L 112.122938 216.458428 
L 112.839589 215.668034 
L 114.272892 215.519836 
L 114.989544 214.855685 
L 115.706195 214.992907 
L 116.422847 215.646079 
L 117.139498 214.438533 
L 117.85615 214.806286 
L 118.572801 214.240935 
L 119.289453 214.4056 
L 120.006104 213.823783 
L 120.722756 214.054314 
L 121.439407 213.593251 
L 122.156058 213.36272 
L 122.87271 214.26289 
L 123.589361 214.938018 
L 124.306013 213.88416 
L 125.022664 213.461519 
L 125.739316 213.472497 
L 126.455967 213.785361 
L 127.172619 212.956545 
L 127.88927 213.011434 
L 128.605922 212.929101 
L 129.322573 213.527385 
L 130.039225 212.956545 
L 130.755876 212.55586 
L 131.472528 212.682103 
L 132.189179 212.204574 
L 132.905831 213.192566 
L 133.622482 212.369239 
L 134.339134 212.572326 
L 135.772437 211.957576 
L 137.20574 211.847799 
L 137.922391 211.480046 
L 138.639043 211.831332 
L 139.355694 211.776444 
L 140.788997 210.84334 
L 141.505649 211.112294 
L 142.2223 211.150715 
L 142.938952 211.03545 
L 143.655603 211.672156 
L 144.372255 210.70063 
L 145.088906 211.672156 
L 145.805557 210.492054 
L 146.522209 210.70063 
L 147.23886 210.563409 
L 148.672163 210.684164 
L 149.388815 210.058435 
L 150.822118 210.003547 
L 151.538769 210.497543 
L 152.255421 210.069413 
L 152.972072 210.393255 
L 154.405375 210.256034 
L 155.122027 209.65775 
L 155.838678 209.493084 
L 156.55533 209.60835 
L 157.271981 209.553462 
L 157.988633 209.344886 
L 158.705284 210.409722 
L 159.421936 209.586395 
L 160.138587 209.624817 
L 161.57189 209.22962 
L 163.005193 209.355863 
L 163.721845 209.504062 
L 164.438496 209.235109 
L 165.155148 209.355863 
L 165.871799 209.668728 
L 166.588451 208.988111 
L 167.305102 208.889312 
L 168.738405 209.064955 
L 169.455056 208.845401 
L 172.321662 208.774046 
L 173.038314 208.971644 
L 173.754965 208.181251 
L 174.471617 208.70818 
L 176.621571 208.598403 
L 177.338223 208.400804 
L 178.054874 208.521559 
L 178.771526 208.329449 
L 179.488177 208.669758 
L 180.92148 208.098918 
L 182.354783 208.51607 
L 183.071435 208.351405 
L 183.788086 208.033052 
L 185.221389 208.614869 
L 185.938041 207.978163 
L 188.087995 207.797032 
L 188.804647 208.027563 
L 189.521298 207.85192 
L 190.23795 207.983652 
L 191.671253 207.692744 
L 192.387904 207.85192 
L 193.104555 207.736654 
L 195.25451 208.033052 
L 195.971161 207.643344 
L 196.687813 207.75861 
L 197.404464 207.643344 
L 198.121116 207.401835 
L 198.837767 207.917786 
L 199.554419 207.467701 
L 200.27107 207.687255 
L 200.987722 207.440257 
L 203.137676 207.517101 
L 203.854328 207.165814 
L 204.570979 207.484167 
L 205.287631 207.396346 
L 206.004282 207.478679 
L 206.720934 207.270103 
L 207.437585 207.18777 
L 208.870888 207.292058 
L 209.58754 207.204236 
L 210.304191 207.341458 
L 211.737494 206.907839 
L 212.454146 206.99566 
L 213.170797 207.346946 
L 213.887449 207.04506 
L 215.320752 207.143859 
L 216.037403 206.918817 
L 216.754054 206.820017 
L 217.470706 206.962727 
L 218.187357 207.308524 
L 218.904009 206.99566 
L 219.62066 207.105437 
L 220.337312 207.028593 
L 221.053963 207.176792 
L 221.770615 206.814528 
L 223.920569 206.990172 
L 224.637221 206.874906 
L 225.353872 206.90235 
L 226.070524 207.13837 
L 226.787175 206.830995 
L 228.220478 206.979194 
L 228.93713 206.721218 
L 229.653781 206.984683 
L 230.370433 206.748662 
L 231.803736 207.04506 
L 232.520387 206.770618 
L 233.95369 206.841973 
L 234.670342 207.012127 
L 236.820296 206.776107 
L 237.536948 206.885883 
L 238.253599 206.660841 
L 238.970251 206.732196 
L 239.686902 206.457754 
L 241.120205 206.551064 
L 243.986811 206.605952 
L 244.703462 206.419332 
L 245.420114 206.556553 
L 246.853417 206.61693 
L 247.570068 206.271133 
L 248.28672 206.446776 
L 249.003371 206.814529 
L 249.720023 206.320532 
L 250.436674 206.693774 
L 251.153326 206.326021 
L 251.869977 206.210756 
L 252.586629 206.622419 
L 253.30328 206.721218 
L 254.019932 206.342488 
L 254.736583 206.47422 
L 255.453235 206.446776 
L 256.169886 206.556553 
L 256.886538 206.529109 
L 257.603189 206.287599 
L 261.903098 206.33151 
L 262.619749 206.534597 
L 263.336401 206.155867 
L 264.053052 206.139401 
L 265.486355 206.457754 
L 266.203007 205.85947 
L 266.919658 206.155867 
L 267.63631 205.996691 
L 269.786264 205.991202 
L 270.502916 205.815559 
L 271.219567 206.090001 
L 271.936219 205.804581 
L 272.65287 206.172334 
L 273.369522 205.969246 
L 274.086173 206.013157 
L 274.802825 205.941802 
L 275.519476 206.347977 
L 276.236128 206.062557 
L 277.669431 206.100979 
L 278.386082 205.799092 
L 279.102734 206.106468 
L 279.819385 206.002179 
L 280.536037 205.738715 
L 281.252688 206.128423 
L 281.96934 205.897891 
L 282.685991 206.1888 
L 283.402643 206.018646 
L 284.835946 206.298577 
L 285.552597 205.897891 
L 286.9859 205.90338 
L 288.419203 205.925336 
L 289.135854 206.09549 
L 289.852506 205.815559 
L 290.569157 206.013157 
L 291.285809 205.892403 
L 292.00246 205.612472 
L 293.435763 205.941802 
L 294.152415 205.623449 
L 294.869066 205.848492 
L 296.302369 205.897891 
L 297.019021 205.755182 
L 297.735672 206.111956 
L 298.452324 205.766159 
L 299.168975 205.71676 
L 299.885627 205.925336 
L 301.31893 206.04609 
L 302.752233 205.486228 
L 305.618839 205.793603 
L 306.33549 205.47525 
L 307.052142 205.645405 
L 308.485445 205.552094 
L 309.202096 205.656382 
L 309.918747 205.453295 
L 310.635399 205.650893 
L 312.785353 205.541117 
L 313.502005 205.513672 
L 314.218656 205.623449 
L 316.368611 205.519161 
L 317.801914 205.502695 
L 318.518565 205.23923 
L 319.235217 205.469762 
L 319.951868 205.409384 
L 320.66852 205.530139 
L 321.385171 205.469762 
L 322.818474 205.749693 
L 324.968429 205.283141 
L 325.68508 205.634427 
L 326.401732 205.250208 
L 327.118383 205.645405 
L 327.835035 205.469762 
L 328.551686 205.579538 
L 329.268338 205.299607 
L 329.984989 205.480739 
L 333.568246 205.38194 
L 334.284898 205.277652 
L 335.718201 205.332541 
L 336.434852 205.579538 
L 339.301458 205.200808 
L 340.01811 205.178853 
L 340.734761 205.359985 
L 341.451413 205.266674 
L 342.168064 205.480739 
L 342.884716 205.123964 
L 343.601367 205.343518 
L 344.318019 205.414873 
L 345.03467 205.112987 
L 345.751322 205.327052 
L 346.467973 205.091031 
L 347.184625 205.480739 
L 347.901276 205.189831 
L 348.617928 205.058098 
L 350.051231 205.299607 
L 351.484534 205.102009 
L 352.201185 205.299607 
L 352.917837 205.102009 
L 356.501094 205.036143 
L 357.217745 205.387429 
L 357.934397 204.970277 
L 358.651048 205.09652 
L 361.517654 205.085542 
L 362.234306 205.283141 
L 362.950957 204.964788 
L 363.667609 204.948321 
L 364.38426 205.189831 
L 372.984078 205.008699 
L 373.70073 205.123964 
L 376.567336 205.063587 
L 378.000639 204.904411 
L 379.433942 204.849522 
L 380.150593 205.228252 
L 380.867244 204.657413 
L 381.583896 204.937344 
L 382.300547 205.080054 
L 383.017199 204.871478 
L 383.73385 204.948321 
L 386.600456 204.844033 
L 387.317108 204.887944 
L 388.033759 204.816589 
L 388.750411 204.904411 
L 389.467062 204.750723 
L 390.183714 204.71779 
L 390.900365 204.959299 
L 393.05032 204.887944 
L 393.766971 204.76719 
L 398.06688 204.893433 
L 398.783532 204.745234 
L 400.216835 204.739745 
L 400.933486 204.904411 
L 401.650138 204.789145 
L 402.366789 204.800123 
L 403.083441 204.926366 
L 404.516743 204.778167 
L 405.950046 204.882455 
L 406.666698 204.723279 
L 407.383349 205.036143 
L 408.100001 204.8111 
L 408.816652 204.76719 
L 409.533304 204.887944 
L 410.966607 204.800123 
L 411.683258 204.640946 
L 412.39991 204.920877 
L 413.833213 204.728768 
L 414.549864 204.920877 
L 415.266516 204.723279 
L 416.699819 204.975766 
L 417.41647 204.745234 
L 419.566425 204.865989 
L 420.283076 204.690346 
L 423.149682 204.816589 
L 423.866334 204.690346 
L 424.582985 204.865989 
L 425.299637 204.695835 
L 426.016288 204.772678 
L 426.73294 204.640946 
L 427.449591 204.8605 
L 428.166242 204.805611 
L 428.882894 204.882455 
L 429.599545 204.629968 
L 429.599545 204.629968 
" style="fill:none;stroke:#ffa500;stroke-linecap:square;stroke-width:1.5;"/>
   </g>
   <g id="patch_9">
    <path d="M 54.11 303.64 
L 54.11 192.84 
" style="fill:none;stroke:#000000;stroke-linecap:square;stroke-linejoin:miter;stroke-width:0.8;"/>
   </g>
   <g id="patch_10">
    <path d="M 447.48 303.64 
L 447.48 192.84 
" style="fill:none;stroke:#000000;stroke-linecap:square;stroke-linejoin:miter;stroke-width:0.8;"/>
   </g>
   <g id="patch_11">
    <path d="M 54.11 303.64 
L 447.48 303.64 
" style="fill:none;stroke:#000000;stroke-linecap:square;stroke-linejoin:miter;stroke-width:0.8;"/>
   </g>
   <g id="patch_12">
    <path d="M 54.11 192.84 
L 447.48 192.84 
" style="fill:none;stroke:#000000;stroke-linecap:square;stroke-linejoin:miter;stroke-width:0.8;"/>
   </g>
   <g id="text_26">
    <!-- model accuracy -->
    <g transform="translate(203.133438 186.84)scale(0.12 -0.12)">
     <use xlink:href="#DejaVuSans-109"/>
     <use x="97.412109" xlink:href="#DejaVuSans-111"/>
     <use x="158.59375" xlink:href="#DejaVuSans-100"/>
     <use x="222.070312" xlink:href="#DejaVuSans-101"/>
     <use x="283.59375" xlink:href="#DejaVuSans-108"/>
     <use x="311.376953" xlink:href="#DejaVuSans-32"/>
     <use x="343.164062" xlink:href="#DejaVuSans-97"/>
     <use x="404.443359" xlink:href="#DejaVuSans-99"/>
     <use x="459.423828" xlink:href="#DejaVuSans-99"/>
     <use x="514.404297" xlink:href="#DejaVuSans-117"/>
     <use x="577.783203" xlink:href="#DejaVuSans-114"/>
     <use x="618.896484" xlink:href="#DejaVuSans-97"/>
     <use x="680.175781" xlink:href="#DejaVuSans-99"/>
     <use x="735.15625" xlink:href="#DejaVuSans-121"/>
    </g>
   </g>
   <g id="legend_2">
    <g id="patch_13">
     <path d="M 61.11 230.19625 
L 116.385 230.19625 
Q 118.385 230.19625 118.385 228.19625 
L 118.385 199.84 
Q 118.385 197.84 116.385 197.84 
L 61.11 197.84 
Q 59.11 197.84 59.11 199.84 
L 59.11 228.19625 
Q 59.11 230.19625 61.11 230.19625 
z
" style="fill:#ffffff;opacity:0.8;stroke:#cccccc;stroke-linejoin:miter;"/>
    </g>
    <g id="line2d_27">
     <path d="M 63.11 205.938437 
L 83.11 205.938437 
" style="fill:none;stroke:#0000ff;stroke-linecap:square;stroke-width:1.5;"/>
    </g>
    <g id="line2d_28"/>
    <g id="text_27">
     <!-- train -->
     <g transform="translate(91.11 209.438437)scale(0.1 -0.1)">
      <use xlink:href="#DejaVuSans-116"/>
      <use x="39.208984" xlink:href="#DejaVuSans-114"/>
      <use x="80.322266" xlink:href="#DejaVuSans-97"/>
      <use x="141.601562" xlink:href="#DejaVuSans-105"/>
      <use x="169.384766" xlink:href="#DejaVuSans-110"/>
     </g>
    </g>
    <g id="line2d_29">
     <path d="M 63.11 220.616562 
L 83.11 220.616562 
" style="fill:none;stroke:#ffa500;stroke-linecap:square;stroke-width:1.5;"/>
    </g>
    <g id="line2d_30"/>
    <g id="text_28">
     <!-- test -->
     <g transform="translate(91.11 224.116562)scale(0.1 -0.1)">
      <use xlink:href="#DejaVuSans-116"/>
      <use x="39.208984" xlink:href="#DejaVuSans-101"/>
      <use x="100.732422" xlink:href="#DejaVuSans-115"/>
      <use x="152.832031" xlink:href="#DejaVuSans-116"/>
     </g>
    </g>
   </g>
  </g>
 </g>
 <defs>
  <clipPath id="pca4b34481e">
   <rect height="110.8" width="393.37" x="54.11" y="25.44"/>
  </clipPath>
  <clipPath id="p2d189ac6d5">
   <rect height="110.8" width="393.37" x="54.11" y="192.84"/>
  </clipPath>
 </defs>
</svg>
