<?xml version="1.0" encoding="utf-8" standalone="no"?>
<!DOCTYPE svg PUBLIC "-//W3C//DTD SVG 1.1//EN"
  "http://www.w3.org/Graphics/SVG/1.1/DTD/svg11.dtd">
<!-- Created with matplotlib (https://matplotlib.org/) -->
<svg height="345.6pt" version="1.1" viewBox="0 0 460.8 345.6" width="460.8pt" xmlns="http://www.w3.org/2000/svg" xmlns:xlink="http://www.w3.org/1999/xlink">
 <defs>
  <style type="text/css">
*{stroke-linecap:butt;stroke-linejoin:round;}
  </style>
 </defs>
 <g id="figure_1">
  <g id="patch_1">
   <path d="M 0 345.6 
L 460.8 345.6 
L 460.8 0 
L 0 0 
z
" style="fill:#ffffff;"/>
  </g>
  <g id="axes_1">
   <g id="patch_2">
    <path d="M 47.72 136.24 
L 447.48 136.24 
L 447.48 25.44 
L 47.72 25.44 
z
" style="fill:#ffffff;"/>
   </g>
   <g id="matplotlib.axis_1">
    <g id="xtick_1">
     <g id="line2d_1">
      <defs>
       <path d="M 0 0 
L 0 3.5 
" id="m8461ee6092" style="stroke:#000000;stroke-width:0.8;"/>
      </defs>
      <g>
       <use style="stroke:#000000;stroke-width:0.8;" x="65.890909" xlink:href="#m8461ee6092" y="136.24"/>
      </g>
     </g>
     <g id="text_1">
      <!-- 0 -->
      <defs>
       <path d="M 31.78125 66.40625 
Q 24.171875 66.40625 20.328125 58.90625 
Q 16.5 51.421875 16.5 36.375 
Q 16.5 21.390625 20.328125 13.890625 
Q 24.171875 6.390625 31.78125 6.390625 
Q 39.453125 6.390625 43.28125 13.890625 
Q 47.125 21.390625 47.125 36.375 
Q 47.125 51.421875 43.28125 58.90625 
Q 39.453125 66.40625 31.78125 66.40625 
z
M 31.78125 74.21875 
Q 44.046875 74.21875 50.515625 64.515625 
Q 56.984375 54.828125 56.984375 36.375 
Q 56.984375 17.96875 50.515625 8.265625 
Q 44.046875 -1.421875 31.78125 -1.421875 
Q 19.53125 -1.421875 13.0625 8.265625 
Q 6.59375 17.96875 6.59375 36.375 
Q 6.59375 54.828125 13.0625 64.515625 
Q 19.53125 74.21875 31.78125 74.21875 
z
" id="DejaVuSans-48"/>
      </defs>
      <g transform="translate(62.709659 150.838437)scale(0.1 -0.1)">
       <use xlink:href="#DejaVuSans-48"/>
      </g>
     </g>
    </g>
    <g id="xtick_2">
     <g id="line2d_2">
      <g>
       <use style="stroke:#000000;stroke-width:0.8;" x="126.66318" xlink:href="#m8461ee6092" y="136.24"/>
      </g>
     </g>
     <g id="text_2">
      <!-- 50 -->
      <defs>
       <path d="M 10.796875 72.90625 
L 49.515625 72.90625 
L 49.515625 64.59375 
L 19.828125 64.59375 
L 19.828125 46.734375 
Q 21.96875 47.46875 24.109375 47.828125 
Q 26.265625 48.1875 28.421875 48.1875 
Q 40.625 48.1875 47.75 41.5 
Q 54.890625 34.8125 54.890625 23.390625 
Q 54.890625 11.625 47.5625 5.09375 
Q 40.234375 -1.421875 26.90625 -1.421875 
Q 22.3125 -1.421875 17.546875 -0.640625 
Q 12.796875 0.140625 7.71875 1.703125 
L 7.71875 11.625 
Q 12.109375 9.234375 16.796875 8.0625 
Q 21.484375 6.890625 26.703125 6.890625 
Q 35.15625 6.890625 40.078125 11.328125 
Q 45.015625 15.765625 45.015625 23.390625 
Q 45.015625 31 40.078125 35.4375 
Q 35.15625 39.890625 26.703125 39.890625 
Q 22.75 39.890625 18.8125 39.015625 
Q 14.890625 38.140625 10.796875 36.28125 
z
" id="DejaVuSans-53"/>
      </defs>
      <g transform="translate(120.30068 150.838437)scale(0.1 -0.1)">
       <use xlink:href="#DejaVuSans-53"/>
       <use x="63.623047" xlink:href="#DejaVuSans-48"/>
      </g>
     </g>
    </g>
    <g id="xtick_3">
     <g id="line2d_3">
      <g>
       <use style="stroke:#000000;stroke-width:0.8;" x="187.435452" xlink:href="#m8461ee6092" y="136.24"/>
      </g>
     </g>
     <g id="text_3">
      <!-- 100 -->
      <defs>
       <path d="M 12.40625 8.296875 
L 28.515625 8.296875 
L 28.515625 63.921875 
L 10.984375 60.40625 
L 10.984375 69.390625 
L 28.421875 72.90625 
L 38.28125 72.90625 
L 38.28125 8.296875 
L 54.390625 8.296875 
L 54.390625 0 
L 12.40625 0 
z
" id="DejaVuSans-49"/>
      </defs>
      <g transform="translate(177.891702 150.838437)scale(0.1 -0.1)">
       <use xlink:href="#DejaVuSans-49"/>
       <use x="63.623047" xlink:href="#DejaVuSans-48"/>
       <use x="127.246094" xlink:href="#DejaVuSans-48"/>
      </g>
     </g>
    </g>
    <g id="xtick_4">
     <g id="line2d_4">
      <g>
       <use style="stroke:#000000;stroke-width:0.8;" x="248.207723" xlink:href="#m8461ee6092" y="136.24"/>
      </g>
     </g>
     <g id="text_4">
      <!-- 150 -->
      <g transform="translate(238.663973 150.838437)scale(0.1 -0.1)">
       <use xlink:href="#DejaVuSans-49"/>
       <use x="63.623047" xlink:href="#DejaVuSans-53"/>
       <use x="127.246094" xlink:href="#DejaVuSans-48"/>
      </g>
     </g>
    </g>
    <g id="xtick_5">
     <g id="line2d_5">
      <g>
       <use style="stroke:#000000;stroke-width:0.8;" x="308.979994" xlink:href="#m8461ee6092" y="136.24"/>
      </g>
     </g>
     <g id="text_5">
      <!-- 200 -->
      <defs>
       <path d="M 19.1875 8.296875 
L 53.609375 8.296875 
L 53.609375 0 
L 7.328125 0 
L 7.328125 8.296875 
Q 12.9375 14.109375 22.625 23.890625 
Q 32.328125 33.6875 34.8125 36.53125 
Q 39.546875 41.84375 41.421875 45.53125 
Q 43.3125 49.21875 43.3125 52.78125 
Q 43.3125 58.59375 39.234375 62.25 
Q 35.15625 65.921875 28.609375 65.921875 
Q 23.96875 65.921875 18.8125 64.3125 
Q 13.671875 62.703125 7.8125 59.421875 
L 7.8125 69.390625 
Q 13.765625 71.78125 18.9375 73 
Q 24.125 74.21875 28.421875 74.21875 
Q 39.75 74.21875 46.484375 68.546875 
Q 53.21875 62.890625 53.21875 53.421875 
Q 53.21875 48.921875 51.53125 44.890625 
Q 49.859375 40.875 45.40625 35.40625 
Q 44.1875 33.984375 37.640625 27.21875 
Q 31.109375 20.453125 19.1875 8.296875 
z
" id="DejaVuSans-50"/>
      </defs>
      <g transform="translate(299.436244 150.838437)scale(0.1 -0.1)">
       <use xlink:href="#DejaVuSans-50"/>
       <use x="63.623047" xlink:href="#DejaVuSans-48"/>
       <use x="127.246094" xlink:href="#DejaVuSans-48"/>
      </g>
     </g>
    </g>
    <g id="xtick_6">
     <g id="line2d_6">
      <g>
       <use style="stroke:#000000;stroke-width:0.8;" x="369.752265" xlink:href="#m8461ee6092" y="136.24"/>
      </g>
     </g>
     <g id="text_6">
      <!-- 250 -->
      <g transform="translate(360.208515 150.838437)scale(0.1 -0.1)">
       <use xlink:href="#DejaVuSans-50"/>
       <use x="63.623047" xlink:href="#DejaVuSans-53"/>
       <use x="127.246094" xlink:href="#DejaVuSans-48"/>
      </g>
     </g>
    </g>
    <g id="xtick_7">
     <g id="line2d_7">
      <g>
       <use style="stroke:#000000;stroke-width:0.8;" x="430.524536" xlink:href="#m8461ee6092" y="136.24"/>
      </g>
     </g>
     <g id="text_7">
      <!-- 300 -->
      <defs>
       <path d="M 40.578125 39.3125 
Q 47.65625 37.796875 51.625 33 
Q 55.609375 28.21875 55.609375 21.1875 
Q 55.609375 10.40625 48.1875 4.484375 
Q 40.765625 -1.421875 27.09375 -1.421875 
Q 22.515625 -1.421875 17.65625 -0.515625 
Q 12.796875 0.390625 7.625 2.203125 
L 7.625 11.71875 
Q 11.71875 9.328125 16.59375 8.109375 
Q 21.484375 6.890625 26.8125 6.890625 
Q 36.078125 6.890625 40.9375 10.546875 
Q 45.796875 14.203125 45.796875 21.1875 
Q 45.796875 27.640625 41.28125 31.265625 
Q 36.765625 34.90625 28.71875 34.90625 
L 20.21875 34.90625 
L 20.21875 43.015625 
L 29.109375 43.015625 
Q 36.375 43.015625 40.234375 45.921875 
Q 44.09375 48.828125 44.09375 54.296875 
Q 44.09375 59.90625 40.109375 62.90625 
Q 36.140625 65.921875 28.71875 65.921875 
Q 24.65625 65.921875 20.015625 65.03125 
Q 15.375 64.15625 9.8125 62.3125 
L 9.8125 71.09375 
Q 15.4375 72.65625 20.34375 73.4375 
Q 25.25 74.21875 29.59375 74.21875 
Q 40.828125 74.21875 47.359375 69.109375 
Q 53.90625 64.015625 53.90625 55.328125 
Q 53.90625 49.265625 50.4375 45.09375 
Q 46.96875 40.921875 40.578125 39.3125 
z
" id="DejaVuSans-51"/>
      </defs>
      <g transform="translate(420.980786 150.838437)scale(0.1 -0.1)">
       <use xlink:href="#DejaVuSans-51"/>
       <use x="63.623047" xlink:href="#DejaVuSans-48"/>
       <use x="127.246094" xlink:href="#DejaVuSans-48"/>
      </g>
     </g>
    </g>
    <g id="text_8">
     <!-- epoch -->
     <defs>
      <path d="M 56.203125 29.59375 
L 56.203125 25.203125 
L 14.890625 25.203125 
Q 15.484375 15.921875 20.484375 11.0625 
Q 25.484375 6.203125 34.421875 6.203125 
Q 39.59375 6.203125 44.453125 7.46875 
Q 49.3125 8.734375 54.109375 11.28125 
L 54.109375 2.78125 
Q 49.265625 0.734375 44.1875 -0.34375 
Q 39.109375 -1.421875 33.890625 -1.421875 
Q 20.796875 -1.421875 13.15625 6.1875 
Q 5.515625 13.8125 5.515625 26.8125 
Q 5.515625 40.234375 12.765625 48.109375 
Q 20.015625 56 32.328125 56 
Q 43.359375 56 49.78125 48.890625 
Q 56.203125 41.796875 56.203125 29.59375 
z
M 47.21875 32.234375 
Q 47.125 39.59375 43.09375 43.984375 
Q 39.0625 48.390625 32.421875 48.390625 
Q 24.90625 48.390625 20.390625 44.140625 
Q 15.875 39.890625 15.1875 32.171875 
z
" id="DejaVuSans-101"/>
      <path d="M 18.109375 8.203125 
L 18.109375 -20.796875 
L 9.078125 -20.796875 
L 9.078125 54.6875 
L 18.109375 54.6875 
L 18.109375 46.390625 
Q 20.953125 51.265625 25.265625 53.625 
Q 29.59375 56 35.59375 56 
Q 45.5625 56 51.78125 48.09375 
Q 58.015625 40.1875 58.015625 27.296875 
Q 58.015625 14.40625 51.78125 6.484375 
Q 45.5625 -1.421875 35.59375 -1.421875 
Q 29.59375 -1.421875 25.265625 0.953125 
Q 20.953125 3.328125 18.109375 8.203125 
z
M 48.6875 27.296875 
Q 48.6875 37.203125 44.609375 42.84375 
Q 40.53125 48.484375 33.40625 48.484375 
Q 26.265625 48.484375 22.1875 42.84375 
Q 18.109375 37.203125 18.109375 27.296875 
Q 18.109375 17.390625 22.1875 11.75 
Q 26.265625 6.109375 33.40625 6.109375 
Q 40.53125 6.109375 44.609375 11.75 
Q 48.6875 17.390625 48.6875 27.296875 
z
" id="DejaVuSans-112"/>
      <path d="M 30.609375 48.390625 
Q 23.390625 48.390625 19.1875 42.75 
Q 14.984375 37.109375 14.984375 27.296875 
Q 14.984375 17.484375 19.15625 11.84375 
Q 23.34375 6.203125 30.609375 6.203125 
Q 37.796875 6.203125 41.984375 11.859375 
Q 46.1875 17.53125 46.1875 27.296875 
Q 46.1875 37.015625 41.984375 42.703125 
Q 37.796875 48.390625 30.609375 48.390625 
z
M 30.609375 56 
Q 42.328125 56 49.015625 48.375 
Q 55.71875 40.765625 55.71875 27.296875 
Q 55.71875 13.875 49.015625 6.21875 
Q 42.328125 -1.421875 30.609375 -1.421875 
Q 18.84375 -1.421875 12.171875 6.21875 
Q 5.515625 13.875 5.515625 27.296875 
Q 5.515625 40.765625 12.171875 48.375 
Q 18.84375 56 30.609375 56 
z
" id="DejaVuSans-111"/>
      <path d="M 48.78125 52.59375 
L 48.78125 44.1875 
Q 44.96875 46.296875 41.140625 47.34375 
Q 37.3125 48.390625 33.40625 48.390625 
Q 24.65625 48.390625 19.8125 42.84375 
Q 14.984375 37.3125 14.984375 27.296875 
Q 14.984375 17.28125 19.8125 11.734375 
Q 24.65625 6.203125 33.40625 6.203125 
Q 37.3125 6.203125 41.140625 7.25 
Q 44.96875 8.296875 48.78125 10.40625 
L 48.78125 2.09375 
Q 45.015625 0.34375 40.984375 -0.53125 
Q 36.96875 -1.421875 32.421875 -1.421875 
Q 20.0625 -1.421875 12.78125 6.34375 
Q 5.515625 14.109375 5.515625 27.296875 
Q 5.515625 40.671875 12.859375 48.328125 
Q 20.21875 56 33.015625 56 
Q 37.15625 56 41.109375 55.140625 
Q 45.0625 54.296875 48.78125 52.59375 
z
" id="DejaVuSans-99"/>
      <path d="M 54.890625 33.015625 
L 54.890625 0 
L 45.90625 0 
L 45.90625 32.71875 
Q 45.90625 40.484375 42.875 44.328125 
Q 39.84375 48.1875 33.796875 48.1875 
Q 26.515625 48.1875 22.3125 43.546875 
Q 18.109375 38.921875 18.109375 30.90625 
L 18.109375 0 
L 9.078125 0 
L 9.078125 75.984375 
L 18.109375 75.984375 
L 18.109375 46.1875 
Q 21.34375 51.125 25.703125 53.5625 
Q 30.078125 56 35.796875 56 
Q 45.21875 56 50.046875 50.171875 
Q 54.890625 44.34375 54.890625 33.015625 
z
" id="DejaVuSans-104"/>
     </defs>
     <g transform="translate(232.371875 164.516562)scale(0.1 -0.1)">
      <use xlink:href="#DejaVuSans-101"/>
      <use x="61.523438" xlink:href="#DejaVuSans-112"/>
      <use x="125" xlink:href="#DejaVuSans-111"/>
      <use x="186.181641" xlink:href="#DejaVuSans-99"/>
      <use x="241.162109" xlink:href="#DejaVuSans-104"/>
     </g>
    </g>
   </g>
   <g id="matplotlib.axis_2">
    <g id="ytick_1">
     <g id="line2d_8">
      <defs>
       <path d="M 0 0 
L -3.5 0 
" id="mead0617efd" style="stroke:#000000;stroke-width:0.8;"/>
      </defs>
      <g>
       <use style="stroke:#000000;stroke-width:0.8;" x="47.72" xlink:href="#mead0617efd" y="124.512697"/>
      </g>
     </g>
     <g id="text_9">
      <!-- 0.2 -->
      <defs>
       <path d="M 10.6875 12.40625 
L 21 12.40625 
L 21 0 
L 10.6875 0 
z
" id="DejaVuSans-46"/>
      </defs>
      <g transform="translate(24.816875 128.311916)scale(0.1 -0.1)">
       <use xlink:href="#DejaVuSans-48"/>
       <use x="63.623047" xlink:href="#DejaVuSans-46"/>
       <use x="95.410156" xlink:href="#DejaVuSans-50"/>
      </g>
     </g>
    </g>
    <g id="ytick_2">
     <g id="line2d_9">
      <g>
       <use style="stroke:#000000;stroke-width:0.8;" x="47.72" xlink:href="#mead0617efd" y="101.493405"/>
      </g>
     </g>
     <g id="text_10">
      <!-- 0.4 -->
      <defs>
       <path d="M 37.796875 64.3125 
L 12.890625 25.390625 
L 37.796875 25.390625 
z
M 35.203125 72.90625 
L 47.609375 72.90625 
L 47.609375 25.390625 
L 58.015625 25.390625 
L 58.015625 17.1875 
L 47.609375 17.1875 
L 47.609375 0 
L 37.796875 0 
L 37.796875 17.1875 
L 4.890625 17.1875 
L 4.890625 26.703125 
z
" id="DejaVuSans-52"/>
      </defs>
      <g transform="translate(24.816875 105.292624)scale(0.1 -0.1)">
       <use xlink:href="#DejaVuSans-48"/>
       <use x="63.623047" xlink:href="#DejaVuSans-46"/>
       <use x="95.410156" xlink:href="#DejaVuSans-52"/>
      </g>
     </g>
    </g>
    <g id="ytick_3">
     <g id="line2d_10">
      <g>
       <use style="stroke:#000000;stroke-width:0.8;" x="47.72" xlink:href="#mead0617efd" y="78.474114"/>
      </g>
     </g>
     <g id="text_11">
      <!-- 0.6 -->
      <defs>
       <path d="M 33.015625 40.375 
Q 26.375 40.375 22.484375 35.828125 
Q 18.609375 31.296875 18.609375 23.390625 
Q 18.609375 15.53125 22.484375 10.953125 
Q 26.375 6.390625 33.015625 6.390625 
Q 39.65625 6.390625 43.53125 10.953125 
Q 47.40625 15.53125 47.40625 23.390625 
Q 47.40625 31.296875 43.53125 35.828125 
Q 39.65625 40.375 33.015625 40.375 
z
M 52.59375 71.296875 
L 52.59375 62.3125 
Q 48.875 64.0625 45.09375 64.984375 
Q 41.3125 65.921875 37.59375 65.921875 
Q 27.828125 65.921875 22.671875 59.328125 
Q 17.53125 52.734375 16.796875 39.40625 
Q 19.671875 43.65625 24.015625 45.921875 
Q 28.375 48.1875 33.59375 48.1875 
Q 44.578125 48.1875 50.953125 41.515625 
Q 57.328125 34.859375 57.328125 23.390625 
Q 57.328125 12.15625 50.6875 5.359375 
Q 44.046875 -1.421875 33.015625 -1.421875 
Q 20.359375 -1.421875 13.671875 8.265625 
Q 6.984375 17.96875 6.984375 36.375 
Q 6.984375 53.65625 15.1875 63.9375 
Q 23.390625 74.21875 37.203125 74.21875 
Q 40.921875 74.21875 44.703125 73.484375 
Q 48.484375 72.75 52.59375 71.296875 
z
" id="DejaVuSans-54"/>
      </defs>
      <g transform="translate(24.816875 82.273332)scale(0.1 -0.1)">
       <use xlink:href="#DejaVuSans-48"/>
       <use x="63.623047" xlink:href="#DejaVuSans-46"/>
       <use x="95.410156" xlink:href="#DejaVuSans-54"/>
      </g>
     </g>
    </g>
    <g id="ytick_4">
     <g id="line2d_11">
      <g>
       <use style="stroke:#000000;stroke-width:0.8;" x="47.72" xlink:href="#mead0617efd" y="55.454822"/>
      </g>
     </g>
     <g id="text_12">
      <!-- 0.8 -->
      <defs>
       <path d="M 31.78125 34.625 
Q 24.75 34.625 20.71875 30.859375 
Q 16.703125 27.09375 16.703125 20.515625 
Q 16.703125 13.921875 20.71875 10.15625 
Q 24.75 6.390625 31.78125 6.390625 
Q 38.8125 6.390625 42.859375 10.171875 
Q 46.921875 13.96875 46.921875 20.515625 
Q 46.921875 27.09375 42.890625 30.859375 
Q 38.875 34.625 31.78125 34.625 
z
M 21.921875 38.8125 
Q 15.578125 40.375 12.03125 44.71875 
Q 8.5 49.078125 8.5 55.328125 
Q 8.5 64.0625 14.71875 69.140625 
Q 20.953125 74.21875 31.78125 74.21875 
Q 42.671875 74.21875 48.875 69.140625 
Q 55.078125 64.0625 55.078125 55.328125 
Q 55.078125 49.078125 51.53125 44.71875 
Q 48 40.375 41.703125 38.8125 
Q 48.828125 37.15625 52.796875 32.3125 
Q 56.78125 27.484375 56.78125 20.515625 
Q 56.78125 9.90625 50.3125 4.234375 
Q 43.84375 -1.421875 31.78125 -1.421875 
Q 19.734375 -1.421875 13.25 4.234375 
Q 6.78125 9.90625 6.78125 20.515625 
Q 6.78125 27.484375 10.78125 32.3125 
Q 14.796875 37.15625 21.921875 38.8125 
z
M 18.3125 54.390625 
Q 18.3125 48.734375 21.84375 45.5625 
Q 25.390625 42.390625 31.78125 42.390625 
Q 38.140625 42.390625 41.71875 45.5625 
Q 45.3125 48.734375 45.3125 54.390625 
Q 45.3125 60.0625 41.71875 63.234375 
Q 38.140625 66.40625 31.78125 66.40625 
Q 25.390625 66.40625 21.84375 63.234375 
Q 18.3125 60.0625 18.3125 54.390625 
z
" id="DejaVuSans-56"/>
      </defs>
      <g transform="translate(24.816875 59.254041)scale(0.1 -0.1)">
       <use xlink:href="#DejaVuSans-48"/>
       <use x="63.623047" xlink:href="#DejaVuSans-46"/>
       <use x="95.410156" xlink:href="#DejaVuSans-56"/>
      </g>
     </g>
    </g>
    <g id="ytick_5">
     <g id="line2d_12">
      <g>
       <use style="stroke:#000000;stroke-width:0.8;" x="47.72" xlink:href="#mead0617efd" y="32.43553"/>
      </g>
     </g>
     <g id="text_13">
      <!-- 1.0 -->
      <g transform="translate(24.816875 36.234749)scale(0.1 -0.1)">
       <use xlink:href="#DejaVuSans-49"/>
       <use x="63.623047" xlink:href="#DejaVuSans-46"/>
       <use x="95.410156" xlink:href="#DejaVuSans-48"/>
      </g>
     </g>
    </g>
    <g id="text_14">
     <!-- loss -->
     <defs>
      <path d="M 9.421875 75.984375 
L 18.40625 75.984375 
L 18.40625 0 
L 9.421875 0 
z
" id="DejaVuSans-108"/>
      <path d="M 44.28125 53.078125 
L 44.28125 44.578125 
Q 40.484375 46.53125 36.375 47.5 
Q 32.28125 48.484375 27.875 48.484375 
Q 21.1875 48.484375 17.84375 46.4375 
Q 14.5 44.390625 14.5 40.28125 
Q 14.5 37.15625 16.890625 35.375 
Q 19.28125 33.59375 26.515625 31.984375 
L 29.59375 31.296875 
Q 39.15625 29.25 43.1875 25.515625 
Q 47.21875 21.78125 47.21875 15.09375 
Q 47.21875 7.46875 41.1875 3.015625 
Q 35.15625 -1.421875 24.609375 -1.421875 
Q 20.21875 -1.421875 15.453125 -0.5625 
Q 10.6875 0.296875 5.421875 2 
L 5.421875 11.28125 
Q 10.40625 8.6875 15.234375 7.390625 
Q 20.0625 6.109375 24.8125 6.109375 
Q 31.15625 6.109375 34.5625 8.28125 
Q 37.984375 10.453125 37.984375 14.40625 
Q 37.984375 18.0625 35.515625 20.015625 
Q 33.0625 21.96875 24.703125 23.78125 
L 21.578125 24.515625 
Q 13.234375 26.265625 9.515625 29.90625 
Q 5.8125 33.546875 5.8125 39.890625 
Q 5.8125 47.609375 11.28125 51.796875 
Q 16.75 56 26.8125 56 
Q 31.78125 56 36.171875 55.265625 
Q 40.578125 54.546875 44.28125 53.078125 
z
" id="DejaVuSans-115"/>
     </defs>
     <g transform="translate(18.737188 90.497812)rotate(-90)scale(0.1 -0.1)">
      <use xlink:href="#DejaVuSans-108"/>
      <use x="27.783203" xlink:href="#DejaVuSans-111"/>
      <use x="88.964844" xlink:href="#DejaVuSans-115"/>
      <use x="141.064453" xlink:href="#DejaVuSans-115"/>
     </g>
    </g>
   </g>
   <g id="line2d_13">
    <path clip-path="url(#pf9d6af2613)" d="M 65.890909 30.476364 
L 68.3218 72.135852 
L 69.537245 83.278131 
L 70.752691 88.527003 
L 71.968136 91.789152 
L 73.183582 93.816455 
L 74.399027 95.407207 
L 75.614472 96.753453 
L 76.829918 98.382711 
L 79.260809 100.342319 
L 80.476254 101.987487 
L 81.6917 102.69019 
L 82.907145 103.953125 
L 84.12259 104.326864 
L 85.338036 105.057349 
L 86.553481 105.947701 
L 87.768927 106.511229 
L 88.984372 107.211188 
L 90.199818 107.683041 
L 91.415263 108.559886 
L 92.630708 109.248331 
L 93.846154 109.294295 
L 96.277045 110.465136 
L 97.49249 110.654765 
L 99.923381 111.777663 
L 101.138826 111.908408 
L 102.354272 112.423316 
L 103.569717 112.465395 
L 104.785163 112.931461 
L 109.646944 114.138533 
L 112.077835 114.588456 
L 113.293281 115.046859 
L 114.508726 115.169807 
L 116.939617 115.708684 
L 118.155062 115.841261 
L 119.370508 116.252527 
L 121.801399 116.410518 
L 123.016844 117.059683 
L 124.232289 116.688606 
L 125.447735 116.86087 
L 126.66318 117.370719 
L 129.094071 117.409569 
L 131.524962 118.091948 
L 132.740407 117.957762 
L 133.955853 118.302291 
L 137.602189 118.914329 
L 138.817635 118.87623 
L 140.03308 119.013001 
L 141.248525 119.272522 
L 142.463971 119.085158 
L 143.679416 119.518119 
L 144.894862 119.683129 
L 146.110307 119.714098 
L 152.187534 120.376709 
L 154.618425 120.450066 
L 155.83387 120.766316 
L 157.049316 120.669457 
L 159.480207 120.897347 
L 161.911098 121.212431 
L 163.126543 121.039213 
L 164.341988 121.433328 
L 165.557434 121.39023 
L 166.772879 121.523204 
L 167.988325 121.349451 
L 169.20377 121.717389 
L 170.419216 121.822192 
L 172.850106 121.744246 
L 175.280997 122.195247 
L 176.496443 122.179913 
L 177.711888 122.51911 
L 180.142779 122.564787 
L 183.789115 122.398606 
L 185.004561 122.865463 
L 186.220006 122.95428 
L 187.435452 122.906232 
L 188.650897 123.166522 
L 189.866342 122.932571 
L 191.081788 122.910643 
L 193.512679 123.241723 
L 194.728124 123.153331 
L 195.943569 123.337476 
L 197.159015 123.638823 
L 198.37446 123.47611 
L 199.589906 123.64215 
L 200.805351 123.41065 
L 203.236242 123.870077 
L 204.451687 123.630819 
L 206.882578 124.089382 
L 210.528915 124.142922 
L 211.74436 124.196462 
L 212.959805 124.374328 
L 215.390696 124.398837 
L 219.037033 124.724381 
L 220.252478 124.511947 
L 221.467923 124.809684 
L 223.898814 124.587378 
L 225.11426 125.091896 
L 226.329705 124.920446 
L 227.545151 125.142351 
L 229.976041 124.94117 
L 231.191487 125.235105 
L 232.406932 125.291431 
L 233.622378 125.209258 
L 234.837823 125.455734 
L 236.053268 125.152731 
L 237.268714 125.355444 
L 238.484159 125.347725 
L 242.130496 125.731536 
L 243.345941 125.677907 
L 244.561386 125.773725 
L 245.776832 125.745555 
L 246.992277 125.89728 
L 248.207723 125.457313 
L 249.423168 125.91955 
L 251.854059 126.116805 
L 254.28495 126.050281 
L 255.500395 126.295378 
L 256.715841 126.405115 
L 257.931286 126.28918 
L 259.146732 126.342806 
L 260.362177 126.083397 
L 262.793068 126.554853 
L 264.008513 126.390782 
L 267.654849 126.7824 
L 268.870295 126.570575 
L 271.301186 126.749326 
L 272.516631 126.678629 
L 274.947522 126.917044 
L 276.162967 126.689445 
L 277.378413 126.954256 
L 279.809304 127.081219 
L 281.024749 126.780098 
L 282.240195 127.056865 
L 283.45564 126.858629 
L 285.886531 127.211392 
L 287.101976 127.23008 
L 288.317422 127.526711 
L 289.532867 127.238174 
L 290.748313 127.44382 
L 291.963758 127.269903 
L 293.179203 127.463477 
L 294.394649 127.327759 
L 296.82554 127.497869 
L 298.040985 127.827132 
L 299.256431 127.635204 
L 300.471876 127.912298 
L 301.687321 127.685368 
L 302.902767 127.946184 
L 305.333658 127.684624 
L 306.549103 127.903297 
L 307.764548 127.819907 
L 308.979994 127.973072 
L 310.195439 127.779526 
L 311.410885 128.011385 
L 312.62633 128.009125 
L 313.841776 128.250724 
L 315.057221 128.07932 
L 318.703557 128.278473 
L 319.919003 128.484594 
L 321.134448 128.551586 
L 322.349894 128.36257 
L 323.565339 128.288058 
L 324.780784 128.416439 
L 325.99623 128.710502 
L 328.427121 128.385076 
L 329.642566 128.531141 
L 330.858012 128.520878 
L 332.073457 128.698486 
L 334.504348 128.619533 
L 335.719793 128.417265 
L 336.935239 128.657033 
L 338.150684 128.568906 
L 339.36613 128.951046 
L 340.581575 128.611006 
L 345.443357 129.025814 
L 346.658802 128.869337 
L 347.874247 129.048424 
L 349.089693 129.409067 
L 350.305138 129.082006 
L 352.736029 129.40793 
L 353.951475 129.151572 
L 355.16692 129.095906 
L 356.382365 129.439452 
L 357.597811 129.391501 
L 358.813256 129.129294 
L 360.028702 129.665331 
L 361.244147 129.343661 
L 362.459593 129.552892 
L 367.321374 129.557519 
L 368.53682 129.227027 
L 369.752265 129.765183 
L 373.398601 129.555374 
L 374.614047 129.670677 
L 375.829492 129.338883 
L 377.044938 129.75377 
L 378.260383 129.598184 
L 381.906719 129.904127 
L 383.122165 130.017521 
L 384.33761 129.754485 
L 385.553056 129.776393 
L 386.768501 130.193016 
L 387.983946 129.846768 
L 389.199392 130.143337 
L 390.414837 130.079719 
L 391.630283 130.350542 
L 394.061174 129.963495 
L 395.276619 130.028953 
L 397.70751 130.476992 
L 398.922955 130.25299 
L 402.569292 130.55813 
L 405.000182 130.142153 
L 406.215628 130.615525 
L 408.646519 130.396111 
L 409.861964 130.817798 
L 411.07741 130.647504 
L 417.154637 130.803456 
L 418.370082 130.627326 
L 420.800973 131.203636 
L 422.016418 130.806285 
L 423.231864 130.764652 
L 424.447309 130.906902 
L 425.662755 130.590791 
L 428.093645 131.010868 
L 429.309091 130.657309 
L 429.309091 130.657309 
" style="fill:none;stroke:#0000ff;stroke-linecap:square;stroke-width:1.5;"/>
   </g>
   <g id="line2d_14">
    <path clip-path="url(#pf9d6af2613)" d="M 65.890909 43.643626 
L 67.106355 66.548961 
L 68.3218 83.664802 
L 70.752691 94.371734 
L 71.968136 96.164366 
L 73.183582 98.224694 
L 74.399027 99.559617 
L 75.614472 99.223682 
L 76.829918 101.649168 
L 78.045363 102.475871 
L 79.260809 101.700027 
L 80.476254 103.828963 
L 81.6917 104.611983 
L 82.907145 102.352915 
L 84.12259 104.337132 
L 85.338036 105.935829 
L 86.553481 105.563706 
L 87.768927 106.454786 
L 88.984372 107.734686 
L 90.199818 107.897352 
L 91.415263 108.477317 
L 92.630708 108.81369 
L 93.846154 108.830987 
L 95.061599 109.438765 
L 96.277045 109.859977 
L 97.49249 109.125714 
L 98.707936 110.577261 
L 99.923381 110.30059 
L 101.138826 109.833877 
L 102.354272 110.314578 
L 103.569717 110.520706 
L 104.785163 110.506662 
L 106.000608 111.181963 
L 107.216054 111.600491 
L 108.431499 111.415436 
L 109.646944 111.633638 
L 110.86239 112.273614 
L 112.077835 111.579643 
L 113.293281 111.572852 
L 114.508726 111.078947 
L 116.939617 112.185972 
L 118.155062 112.328339 
L 119.370508 111.82009 
L 120.585953 111.823243 
L 121.801399 112.155365 
L 123.016844 111.74078 
L 124.232289 112.29689 
L 125.447735 111.432548 
L 126.66318 112.239045 
L 127.878626 111.561542 
L 129.094071 111.56045 
L 130.309517 112.103144 
L 131.524962 111.678544 
L 132.740407 111.804868 
L 133.955853 111.388393 
L 135.171298 110.593558 
L 136.386744 111.89272 
L 137.602189 111.075829 
L 138.817635 111.828778 
L 140.03308 112.16411 
L 141.248525 111.776897 
L 142.463971 110.833324 
L 143.679416 111.77435 
L 144.894862 111.972221 
L 146.110307 110.585445 
L 147.325753 111.788648 
L 148.541198 111.534111 
L 149.756643 110.707632 
L 150.972089 111.423318 
L 152.187534 111.100749 
L 153.40298 110.999158 
L 154.618425 111.092105 
L 155.83387 110.792942 
L 157.049316 111.336668 
L 158.264761 111.372527 
L 159.480207 110.842973 
L 160.695652 110.692915 
L 161.911098 110.392813 
L 163.126543 110.685771 
L 164.341988 110.709754 
L 165.557434 110.23482 
L 166.772879 110.822702 
L 167.988325 110.377964 
L 169.20377 110.249251 
L 170.419216 109.811132 
L 172.850106 110.630723 
L 174.065552 110.831575 
L 175.280997 108.826688 
L 176.496443 109.750929 
L 177.711888 108.83878 
L 178.927334 109.80079 
L 180.142779 107.807899 
L 181.358224 109.698471 
L 182.57367 110.419936 
L 183.789115 109.276082 
L 185.004561 108.980583 
L 186.220006 108.910527 
L 187.435452 109.125065 
L 188.650897 109.54218 
L 189.866342 109.157492 
L 191.081788 109.248638 
L 192.297233 108.278635 
L 193.512679 108.46578 
L 194.728124 109.021975 
L 195.943569 108.776695 
L 197.159015 107.390405 
L 198.37446 108.077256 
L 199.589906 107.786073 
L 200.805351 108.692071 
L 202.020797 107.994586 
L 203.236242 108.992497 
L 204.451687 108.263432 
L 205.667133 107.771262 
L 208.098024 107.782394 
L 209.313469 106.444759 
L 210.528915 107.320239 
L 211.74436 107.557619 
L 212.959805 107.268632 
L 214.175251 107.745077 
L 215.390696 106.854447 
L 216.606142 106.324454 
L 217.821587 106.728907 
L 219.037033 106.203107 
L 220.252478 106.939107 
L 221.467923 107.388481 
L 222.683369 106.265281 
L 223.898814 106.02935 
L 225.11426 104.496829 
L 226.329705 106.296843 
L 227.545151 106.514191 
L 228.760596 105.890701 
L 229.976041 106.785141 
L 231.191487 104.913949 
L 232.406932 105.986713 
L 233.622378 105.272653 
L 234.837823 105.298753 
L 236.053268 105.638807 
L 237.268714 105.771677 
L 238.484159 105.664964 
L 239.699605 105.774336 
L 240.91505 104.560653 
L 242.130496 104.196733 
L 244.561386 104.254414 
L 245.776832 104.046408 
L 246.992277 104.840979 
L 248.207723 104.554186 
L 249.423168 104.662552 
L 251.854059 104.411169 
L 253.069504 105.23949 
L 254.28495 103.891294 
L 255.500395 103.993147 
L 256.715841 103.73734 
L 257.931286 103.155372 
L 259.146732 103.447484 
L 260.362177 103.618018 
L 261.577622 103.263414 
L 262.793068 104.736469 
L 265.223959 102.393312 
L 266.439404 102.542931 
L 267.654849 102.311262 
L 270.08574 102.305045 
L 271.301186 102.640914 
L 272.516631 102.187033 
L 273.732077 101.987695 
L 274.947522 101.939792 
L 276.162967 102.19532 
L 277.378413 103.001967 
L 279.809304 100.402685 
L 281.024749 100.811848 
L 282.240195 101.801012 
L 283.45564 101.153248 
L 285.886531 101.208927 
L 287.101976 101.84101 
L 288.317422 101.156532 
L 289.532867 101.28758 
L 290.748313 99.787494 
L 291.963758 100.647076 
L 293.179203 100.017614 
L 294.394649 99.610979 
L 295.610094 100.181765 
L 296.82554 100.955023 
L 298.040985 99.921797 
L 299.256431 100.149959 
L 300.471876 100.083923 
L 301.687321 100.324994 
L 302.902767 98.706828 
L 304.118212 99.510666 
L 305.333658 99.031034 
L 306.549103 99.716201 
L 307.764548 99.373519 
L 308.979994 98.614539 
L 310.195439 99.105101 
L 311.410885 98.940092 
L 312.62633 98.451387 
L 313.841776 98.250423 
L 315.057221 98.793707 
L 316.272666 98.506332 
L 317.488112 97.41463 
L 318.703557 98.088632 
L 319.919003 97.285197 
L 321.134448 97.110012 
L 322.349894 96.693227 
L 323.565339 97.270948 
L 324.780784 97.147971 
L 325.99623 97.187832 
L 327.211675 98.062761 
L 328.427121 97.606533 
L 329.642566 96.689388 
L 330.858012 96.872165 
L 332.073457 95.852674 
L 333.288902 97.106229 
L 334.504348 96.195275 
L 335.719793 96.610409 
L 336.935239 96.319878 
L 338.150684 96.393062 
L 339.36613 96.738041 
L 340.581575 96.487574 
L 341.79702 95.926811 
L 343.012466 95.807629 
L 344.227911 96.322006 
L 345.443357 95.966748 
L 346.658802 95.364518 
L 347.874247 95.447995 
L 349.089693 94.164015 
L 350.305138 94.749254 
L 352.736029 94.150663 
L 355.16692 94.262383 
L 356.382365 93.996524 
L 357.597811 94.823599 
L 358.813256 93.107912 
L 360.028702 93.383393 
L 361.244147 93.276435 
L 362.459593 93.84752 
L 363.675038 92.857418 
L 364.890483 94.059898 
L 366.105929 92.665219 
L 367.321374 93.77947 
L 368.53682 92.879728 
L 369.752265 92.713366 
L 372.183156 93.500532 
L 373.398601 92.288996 
L 374.614047 92.335864 
L 375.829492 94.004894 
L 377.044938 93.160689 
L 378.260383 92.614955 
L 379.475829 93.102215 
L 380.691274 93.069714 
L 381.906719 92.508636 
L 383.122165 92.465609 
L 384.33761 92.15489 
L 385.553056 92.779194 
L 386.768501 91.913858 
L 387.983946 92.185705 
L 389.199392 91.755065 
L 390.414837 93.049538 
L 391.630283 91.242806 
L 392.845728 91.996362 
L 394.061174 91.350371 
L 395.276619 91.430126 
L 396.492064 91.062232 
L 397.70751 91.790086 
L 398.922955 91.93033 
L 400.138401 90.839066 
L 402.569292 89.620794 
L 403.784737 90.359341 
L 405.000182 90.548509 
L 406.215628 90.289896 
L 407.431073 90.342847 
L 408.646519 89.497963 
L 409.861964 89.664907 
L 411.07741 90.41018 
L 412.292855 90.697363 
L 413.5083 89.194411 
L 414.723746 90.099866 
L 415.939191 90.27158 
L 417.154637 90.168096 
L 419.585528 89.119219 
L 420.800973 87.733587 
L 422.016418 89.323041 
L 423.231864 89.42537 
L 424.447309 88.943437 
L 425.662755 88.831521 
L 426.8782 88.586249 
L 428.093645 88.086507 
L 429.309091 89.913808 
L 429.309091 89.913808 
" style="fill:none;stroke:#ffa500;stroke-linecap:square;stroke-width:1.5;"/>
   </g>
   <g id="patch_3">
    <path d="M 47.72 136.24 
L 47.72 25.44 
" style="fill:none;stroke:#000000;stroke-linecap:square;stroke-linejoin:miter;stroke-width:0.8;"/>
   </g>
   <g id="patch_4">
    <path d="M 447.48 136.24 
L 447.48 25.44 
" style="fill:none;stroke:#000000;stroke-linecap:square;stroke-linejoin:miter;stroke-width:0.8;"/>
   </g>
   <g id="patch_5">
    <path d="M 47.72 136.24 
L 447.48 136.24 
" style="fill:none;stroke:#000000;stroke-linecap:square;stroke-linejoin:miter;stroke-width:0.8;"/>
   </g>
   <g id="patch_6">
    <path d="M 47.72 25.44 
L 447.48 25.44 
" style="fill:none;stroke:#000000;stroke-linecap:square;stroke-linejoin:miter;stroke-width:0.8;"/>
   </g>
   <g id="text_15">
    <!-- model loss -->
    <defs>
     <path d="M 52 44.1875 
Q 55.375 50.25 60.0625 53.125 
Q 64.75 56 71.09375 56 
Q 79.640625 56 84.28125 50.015625 
Q 88.921875 44.046875 88.921875 33.015625 
L 88.921875 0 
L 79.890625 0 
L 79.890625 32.71875 
Q 79.890625 40.578125 77.09375 44.375 
Q 74.3125 48.1875 68.609375 48.1875 
Q 61.625 48.1875 57.5625 43.546875 
Q 53.515625 38.921875 53.515625 30.90625 
L 53.515625 0 
L 44.484375 0 
L 44.484375 32.71875 
Q 44.484375 40.625 41.703125 44.40625 
Q 38.921875 48.1875 33.109375 48.1875 
Q 26.21875 48.1875 22.15625 43.53125 
Q 18.109375 38.875 18.109375 30.90625 
L 18.109375 0 
L 9.078125 0 
L 9.078125 54.6875 
L 18.109375 54.6875 
L 18.109375 46.1875 
Q 21.1875 51.21875 25.484375 53.609375 
Q 29.78125 56 35.6875 56 
Q 41.65625 56 45.828125 52.96875 
Q 50 49.953125 52 44.1875 
z
" id="DejaVuSans-109"/>
     <path d="M 45.40625 46.390625 
L 45.40625 75.984375 
L 54.390625 75.984375 
L 54.390625 0 
L 45.40625 0 
L 45.40625 8.203125 
Q 42.578125 3.328125 38.25 0.953125 
Q 33.9375 -1.421875 27.875 -1.421875 
Q 17.96875 -1.421875 11.734375 6.484375 
Q 5.515625 14.40625 5.515625 27.296875 
Q 5.515625 40.1875 11.734375 48.09375 
Q 17.96875 56 27.875 56 
Q 33.9375 56 38.25 53.625 
Q 42.578125 51.265625 45.40625 46.390625 
z
M 14.796875 27.296875 
Q 14.796875 17.390625 18.875 11.75 
Q 22.953125 6.109375 30.078125 6.109375 
Q 37.203125 6.109375 41.296875 11.75 
Q 45.40625 17.390625 45.40625 27.296875 
Q 45.40625 37.203125 41.296875 42.84375 
Q 37.203125 48.484375 30.078125 48.484375 
Q 22.953125 48.484375 18.875 42.84375 
Q 14.796875 37.203125 14.796875 27.296875 
z
" id="DejaVuSans-100"/>
     <path id="DejaVuSans-32"/>
    </defs>
    <g transform="translate(215.420312 19.44)scale(0.12 -0.12)">
     <use xlink:href="#DejaVuSans-109"/>
     <use x="97.412109" xlink:href="#DejaVuSans-111"/>
     <use x="158.59375" xlink:href="#DejaVuSans-100"/>
     <use x="222.070312" xlink:href="#DejaVuSans-101"/>
     <use x="283.59375" xlink:href="#DejaVuSans-108"/>
     <use x="311.376953" xlink:href="#DejaVuSans-32"/>
     <use x="343.164062" xlink:href="#DejaVuSans-108"/>
     <use x="370.947266" xlink:href="#DejaVuSans-111"/>
     <use x="432.128906" xlink:href="#DejaVuSans-115"/>
     <use x="484.228516" xlink:href="#DejaVuSans-115"/>
    </g>
   </g>
   <g id="legend_1">
    <g id="patch_7">
     <path d="M 54.72 62.79625 
L 109.995 62.79625 
Q 111.995 62.79625 111.995 60.79625 
L 111.995 32.44 
Q 111.995 30.44 109.995 30.44 
L 54.72 30.44 
Q 52.72 30.44 52.72 32.44 
L 52.72 60.79625 
Q 52.72 62.79625 54.72 62.79625 
z
" style="fill:#ffffff;opacity:0.8;stroke:#cccccc;stroke-linejoin:miter;"/>
    </g>
    <g id="line2d_15">
     <path d="M 56.72 38.538437 
L 76.72 38.538437 
" style="fill:none;stroke:#0000ff;stroke-linecap:square;stroke-width:1.5;"/>
    </g>
    <g id="line2d_16"/>
    <g id="text_16">
     <!-- train -->
     <defs>
      <path d="M 18.3125 70.21875 
L 18.3125 54.6875 
L 36.8125 54.6875 
L 36.8125 47.703125 
L 18.3125 47.703125 
L 18.3125 18.015625 
Q 18.3125 11.328125 20.140625 9.421875 
Q 21.96875 7.515625 27.59375 7.515625 
L 36.8125 7.515625 
L 36.8125 0 
L 27.59375 0 
Q 17.1875 0 13.234375 3.875 
Q 9.28125 7.765625 9.28125 18.015625 
L 9.28125 47.703125 
L 2.6875 47.703125 
L 2.6875 54.6875 
L 9.28125 54.6875 
L 9.28125 70.21875 
z
" id="DejaVuSans-116"/>
      <path d="M 41.109375 46.296875 
Q 39.59375 47.171875 37.8125 47.578125 
Q 36.03125 48 33.890625 48 
Q 26.265625 48 22.1875 43.046875 
Q 18.109375 38.09375 18.109375 28.8125 
L 18.109375 0 
L 9.078125 0 
L 9.078125 54.6875 
L 18.109375 54.6875 
L 18.109375 46.1875 
Q 20.953125 51.171875 25.484375 53.578125 
Q 30.03125 56 36.53125 56 
Q 37.453125 56 38.578125 55.875 
Q 39.703125 55.765625 41.0625 55.515625 
z
" id="DejaVuSans-114"/>
      <path d="M 34.28125 27.484375 
Q 23.390625 27.484375 19.1875 25 
Q 14.984375 22.515625 14.984375 16.5 
Q 14.984375 11.71875 18.140625 8.90625 
Q 21.296875 6.109375 26.703125 6.109375 
Q 34.1875 6.109375 38.703125 11.40625 
Q 43.21875 16.703125 43.21875 25.484375 
L 43.21875 27.484375 
z
M 52.203125 31.203125 
L 52.203125 0 
L 43.21875 0 
L 43.21875 8.296875 
Q 40.140625 3.328125 35.546875 0.953125 
Q 30.953125 -1.421875 24.3125 -1.421875 
Q 15.921875 -1.421875 10.953125 3.296875 
Q 6 8.015625 6 15.921875 
Q 6 25.140625 12.171875 29.828125 
Q 18.359375 34.515625 30.609375 34.515625 
L 43.21875 34.515625 
L 43.21875 35.40625 
Q 43.21875 41.609375 39.140625 45 
Q 35.0625 48.390625 27.6875 48.390625 
Q 23 48.390625 18.546875 47.265625 
Q 14.109375 46.140625 10.015625 43.890625 
L 10.015625 52.203125 
Q 14.9375 54.109375 19.578125 55.046875 
Q 24.21875 56 28.609375 56 
Q 40.484375 56 46.34375 49.84375 
Q 52.203125 43.703125 52.203125 31.203125 
z
" id="DejaVuSans-97"/>
      <path d="M 9.421875 54.6875 
L 18.40625 54.6875 
L 18.40625 0 
L 9.421875 0 
z
M 9.421875 75.984375 
L 18.40625 75.984375 
L 18.40625 64.59375 
L 9.421875 64.59375 
z
" id="DejaVuSans-105"/>
      <path d="M 54.890625 33.015625 
L 54.890625 0 
L 45.90625 0 
L 45.90625 32.71875 
Q 45.90625 40.484375 42.875 44.328125 
Q 39.84375 48.1875 33.796875 48.1875 
Q 26.515625 48.1875 22.3125 43.546875 
Q 18.109375 38.921875 18.109375 30.90625 
L 18.109375 0 
L 9.078125 0 
L 9.078125 54.6875 
L 18.109375 54.6875 
L 18.109375 46.1875 
Q 21.34375 51.125 25.703125 53.5625 
Q 30.078125 56 35.796875 56 
Q 45.21875 56 50.046875 50.171875 
Q 54.890625 44.34375 54.890625 33.015625 
z
" id="DejaVuSans-110"/>
     </defs>
     <g transform="translate(84.72 42.038437)scale(0.1 -0.1)">
      <use xlink:href="#DejaVuSans-116"/>
      <use x="39.208984" xlink:href="#DejaVuSans-114"/>
      <use x="80.322266" xlink:href="#DejaVuSans-97"/>
      <use x="141.601562" xlink:href="#DejaVuSans-105"/>
      <use x="169.384766" xlink:href="#DejaVuSans-110"/>
     </g>
    </g>
    <g id="line2d_17">
     <path d="M 56.72 53.216563 
L 76.72 53.216563 
" style="fill:none;stroke:#ffa500;stroke-linecap:square;stroke-width:1.5;"/>
    </g>
    <g id="line2d_18"/>
    <g id="text_17">
     <!-- test -->
     <g transform="translate(84.72 56.716563)scale(0.1 -0.1)">
      <use xlink:href="#DejaVuSans-116"/>
      <use x="39.208984" xlink:href="#DejaVuSans-101"/>
      <use x="100.732422" xlink:href="#DejaVuSans-115"/>
      <use x="152.832031" xlink:href="#DejaVuSans-116"/>
     </g>
    </g>
   </g>
  </g>
  <g id="axes_2">
   <g id="patch_8">
    <path d="M 47.72 303.64 
L 447.48 303.64 
L 447.48 192.84 
L 47.72 192.84 
z
" style="fill:#ffffff;"/>
   </g>
   <g id="matplotlib.axis_3">
    <g id="xtick_8">
     <g id="line2d_19">
      <g>
       <use style="stroke:#000000;stroke-width:0.8;" x="65.890909" xlink:href="#m8461ee6092" y="303.64"/>
      </g>
     </g>
     <g id="text_18">
      <!-- 0 -->
      <g transform="translate(62.709659 318.238437)scale(0.1 -0.1)">
       <use xlink:href="#DejaVuSans-48"/>
      </g>
     </g>
    </g>
    <g id="xtick_9">
     <g id="line2d_20">
      <g>
       <use style="stroke:#000000;stroke-width:0.8;" x="126.66318" xlink:href="#m8461ee6092" y="303.64"/>
      </g>
     </g>
     <g id="text_19">
      <!-- 50 -->
      <g transform="translate(120.30068 318.238437)scale(0.1 -0.1)">
       <use xlink:href="#DejaVuSans-53"/>
       <use x="63.623047" xlink:href="#DejaVuSans-48"/>
      </g>
     </g>
    </g>
    <g id="xtick_10">
     <g id="line2d_21">
      <g>
       <use style="stroke:#000000;stroke-width:0.8;" x="187.435452" xlink:href="#m8461ee6092" y="303.64"/>
      </g>
     </g>
     <g id="text_20">
      <!-- 100 -->
      <g transform="translate(177.891702 318.238437)scale(0.1 -0.1)">
       <use xlink:href="#DejaVuSans-49"/>
       <use x="63.623047" xlink:href="#DejaVuSans-48"/>
       <use x="127.246094" xlink:href="#DejaVuSans-48"/>
      </g>
     </g>
    </g>
    <g id="xtick_11">
     <g id="line2d_22">
      <g>
       <use style="stroke:#000000;stroke-width:0.8;" x="248.207723" xlink:href="#m8461ee6092" y="303.64"/>
      </g>
     </g>
     <g id="text_21">
      <!-- 150 -->
      <g transform="translate(238.663973 318.238437)scale(0.1 -0.1)">
       <use xlink:href="#DejaVuSans-49"/>
       <use x="63.623047" xlink:href="#DejaVuSans-53"/>
       <use x="127.246094" xlink:href="#DejaVuSans-48"/>
      </g>
     </g>
    </g>
    <g id="xtick_12">
     <g id="line2d_23">
      <g>
       <use style="stroke:#000000;stroke-width:0.8;" x="308.979994" xlink:href="#m8461ee6092" y="303.64"/>
      </g>
     </g>
     <g id="text_22">
      <!-- 200 -->
      <g transform="translate(299.436244 318.238437)scale(0.1 -0.1)">
       <use xlink:href="#DejaVuSans-50"/>
       <use x="63.623047" xlink:href="#DejaVuSans-48"/>
       <use x="127.246094" xlink:href="#DejaVuSans-48"/>
      </g>
     </g>
    </g>
    <g id="xtick_13">
     <g id="line2d_24">
      <g>
       <use style="stroke:#000000;stroke-width:0.8;" x="369.752265" xlink:href="#m8461ee6092" y="303.64"/>
      </g>
     </g>
     <g id="text_23">
      <!-- 250 -->
      <g transform="translate(360.208515 318.238437)scale(0.1 -0.1)">
       <use xlink:href="#DejaVuSans-50"/>
       <use x="63.623047" xlink:href="#DejaVuSans-53"/>
       <use x="127.246094" xlink:href="#DejaVuSans-48"/>
      </g>
     </g>
    </g>
    <g id="xtick_14">
     <g id="line2d_25">
      <g>
       <use style="stroke:#000000;stroke-width:0.8;" x="430.524536" xlink:href="#m8461ee6092" y="303.64"/>
      </g>
     </g>
     <g id="text_24">
      <!-- 300 -->
      <g transform="translate(420.980786 318.238437)scale(0.1 -0.1)">
       <use xlink:href="#DejaVuSans-51"/>
       <use x="63.623047" xlink:href="#DejaVuSans-48"/>
       <use x="127.246094" xlink:href="#DejaVuSans-48"/>
      </g>
     </g>
    </g>
    <g id="text_25">
     <!-- epoch -->
     <g transform="translate(232.371875 331.916562)scale(0.1 -0.1)">
      <use xlink:href="#DejaVuSans-101"/>
      <use x="61.523438" xlink:href="#DejaVuSans-112"/>
      <use x="125" xlink:href="#DejaVuSans-111"/>
      <use x="186.181641" xlink:href="#DejaVuSans-99"/>
      <use x="241.162109" xlink:href="#DejaVuSans-104"/>
     </g>
    </g>
   </g>
   <g id="matplotlib.axis_4">
    <g id="ytick_6">
     <g id="line2d_26">
      <g>
       <use style="stroke:#000000;stroke-width:0.8;" x="47.72" xlink:href="#mead0617efd" y="276.462655"/>
      </g>
     </g>
     <g id="text_26">
      <!-- 0.6 -->
      <g transform="translate(24.816875 280.261874)scale(0.1 -0.1)">
       <use xlink:href="#DejaVuSans-48"/>
       <use x="63.623047" xlink:href="#DejaVuSans-46"/>
       <use x="95.410156" xlink:href="#DejaVuSans-54"/>
      </g>
     </g>
    </g>
    <g id="ytick_7">
     <g id="line2d_27">
      <g>
       <use style="stroke:#000000;stroke-width:0.8;" x="47.72" xlink:href="#mead0617efd" y="232.46455"/>
      </g>
     </g>
     <g id="text_27">
      <!-- 0.8 -->
      <g transform="translate(24.816875 236.263769)scale(0.1 -0.1)">
       <use xlink:href="#DejaVuSans-48"/>
       <use x="63.623047" xlink:href="#DejaVuSans-46"/>
       <use x="95.410156" xlink:href="#DejaVuSans-56"/>
      </g>
     </g>
    </g>
    <g id="text_28">
     <!-- accuracy -->
     <defs>
      <path d="M 8.5 21.578125 
L 8.5 54.6875 
L 17.484375 54.6875 
L 17.484375 21.921875 
Q 17.484375 14.15625 20.5 10.265625 
Q 23.53125 6.390625 29.59375 6.390625 
Q 36.859375 6.390625 41.078125 11.03125 
Q 45.3125 15.671875 45.3125 23.6875 
L 45.3125 54.6875 
L 54.296875 54.6875 
L 54.296875 0 
L 45.3125 0 
L 45.3125 8.40625 
Q 42.046875 3.421875 37.71875 1 
Q 33.40625 -1.421875 27.6875 -1.421875 
Q 18.265625 -1.421875 13.375 4.4375 
Q 8.5 10.296875 8.5 21.578125 
z
M 31.109375 56 
z
" id="DejaVuSans-117"/>
      <path d="M 32.171875 -5.078125 
Q 28.375 -14.84375 24.75 -17.8125 
Q 21.140625 -20.796875 15.09375 -20.796875 
L 7.90625 -20.796875 
L 7.90625 -13.28125 
L 13.1875 -13.28125 
Q 16.890625 -13.28125 18.9375 -11.515625 
Q 21 -9.765625 23.484375 -3.21875 
L 25.09375 0.875 
L 2.984375 54.6875 
L 12.5 54.6875 
L 29.59375 11.921875 
L 46.6875 54.6875 
L 56.203125 54.6875 
z
" id="DejaVuSans-121"/>
     </defs>
     <g transform="translate(18.737188 270.799375)rotate(-90)scale(0.1 -0.1)">
      <use xlink:href="#DejaVuSans-97"/>
      <use x="61.279297" xlink:href="#DejaVuSans-99"/>
      <use x="116.259766" xlink:href="#DejaVuSans-99"/>
      <use x="171.240234" xlink:href="#DejaVuSans-117"/>
      <use x="234.619141" xlink:href="#DejaVuSans-114"/>
      <use x="275.732422" xlink:href="#DejaVuSans-97"/>
      <use x="337.011719" xlink:href="#DejaVuSans-99"/>
      <use x="391.992188" xlink:href="#DejaVuSans-121"/>
     </g>
    </g>
   </g>
   <g id="line2d_28">
    <path clip-path="url(#p500fdc11d4)" d="M 65.890909 298.603636 
L 67.106355 267.095316 
L 68.3218 243.066674 
L 69.537245 232.897436 
L 70.752691 227.887329 
L 71.968136 225.488723 
L 74.399027 222.110804 
L 75.614472 221.394061 
L 76.829918 220.279915 
L 79.260809 218.725788 
L 80.476254 217.412942 
L 81.6917 216.894899 
L 82.907145 215.681403 
L 84.12259 215.262712 
L 85.338036 215.049818 
L 86.553481 213.921479 
L 87.768927 213.559559 
L 90.199818 212.530571 
L 91.415263 212.111879 
L 92.630708 211.373846 
L 93.846154 211.671899 
L 96.277045 210.621621 
L 97.49249 210.465499 
L 98.707936 209.791334 
L 99.923381 209.606826 
L 101.138826 209.777141 
L 102.354272 209.273292 
L 103.569717 209.166845 
L 104.785163 208.73396 
L 106.000608 208.762346 
L 108.431499 207.953349 
L 109.646944 208.017217 
L 110.86239 207.825612 
L 112.077835 207.818516 
L 113.293281 207.385631 
L 115.724171 207.179834 
L 116.939617 207.009519 
L 118.155062 206.675985 
L 119.370508 206.633406 
L 120.585953 206.385029 
L 121.801399 206.434704 
L 123.016844 206.023109 
L 124.232289 206.321161 
L 125.447735 206.079881 
L 126.66318 205.675382 
L 127.878626 205.746347 
L 129.094071 205.675382 
L 130.309517 205.490874 
L 131.524962 205.441199 
L 132.740407 205.533453 
L 133.955853 205.256691 
L 135.171298 204.823806 
L 136.386744 205.065086 
L 137.602189 204.774131 
L 140.03308 204.880578 
L 141.248525 204.412211 
L 142.463971 204.802517 
L 143.679416 204.178027 
L 144.894862 204.419307 
L 146.110307 204.362536 
L 147.325753 204.547044 
L 148.541198 204.227703 
L 149.756643 204.192221 
L 150.972089 203.823204 
L 155.83387 203.794818 
L 158.264761 203.503863 
L 159.480207 203.702564 
L 161.911098 203.312258 
L 163.126543 203.695468 
L 164.341988 203.227101 
L 165.557434 203.26968 
L 166.772879 203.042593 
L 167.988325 203.383223 
L 169.20377 203.014207 
L 171.634661 203.120654 
L 172.850106 203.163233 
L 176.496443 202.623901 
L 177.711888 202.744541 
L 180.142779 202.602612 
L 181.358224 202.66648 
L 182.57367 202.581322 
L 183.789115 202.630998 
L 186.220006 202.347139 
L 187.435452 202.432296 
L 188.650897 202.191016 
L 189.866342 202.411007 
L 192.297233 202.155534 
L 195.943569 202.198113 
L 197.159015 201.935543 
L 198.37446 202.06328 
L 199.589906 201.921351 
L 202.020797 201.885868 
L 203.236242 202.169727 
L 204.451687 202.06328 
L 205.667133 201.694264 
L 208.098024 201.864579 
L 210.528915 201.594913 
L 211.74436 201.800711 
L 212.959805 201.474273 
L 216.606142 201.552334 
L 221.467923 201.367826 
L 223.898814 201.637492 
L 225.11426 201.325247 
L 226.329705 201.382019 
L 227.545151 201.041389 
L 229.976041 201.289765 
L 231.191487 201.055582 
L 236.053268 201.041389 
L 237.268714 200.906556 
L 240.91505 201.027196 
L 243.345941 200.906556 
L 246.992277 200.764626 
L 248.207723 200.956231 
L 253.069504 200.608504 
L 254.28495 200.835591 
L 255.500395 200.544636 
L 257.931286 200.466574 
L 259.146732 200.565925 
L 260.362177 200.423996 
L 261.577622 200.558829 
L 262.793068 200.381417 
L 265.223959 200.487864 
L 266.439404 200.367224 
L 267.654849 200.438189 
L 268.870295 200.310452 
L 270.08574 200.423996 
L 271.301186 200.196909 
L 272.516631 200.367224 
L 274.947522 200.083365 
L 276.162967 200.27497 
L 278.593858 200.047883 
L 279.809304 200.083365 
L 281.024749 200.402706 
L 282.240195 200.062076 
L 283.45564 200.282066 
L 285.886531 199.934339 
L 287.101976 200.204005 
L 288.317422 199.749831 
L 289.532867 200.019497 
L 293.179203 199.962725 
L 296.82554 199.863375 
L 300.471876 199.721445 
L 301.687321 199.962725 
L 302.902767 199.955629 
L 304.118212 199.778217 
L 305.333658 199.842085 
L 306.549103 199.614998 
L 307.764548 199.849182 
L 310.195439 199.57242 
L 311.410885 199.565323 
L 312.62633 199.678867 
L 313.841776 199.359526 
L 315.057221 199.771121 
L 316.272666 199.437586 
L 317.488112 199.721445 
L 321.134448 199.395008 
L 323.565339 199.515648 
L 324.780784 199.380815 
L 327.211675 199.33114 
L 329.642566 199.260175 
L 330.858012 199.515648 
L 332.073457 199.33114 
L 334.504348 199.324043 
L 335.719793 199.508551 
L 336.935239 199.146631 
L 338.150684 199.30985 
L 339.36613 199.253078 
L 340.581575 199.395008 
L 341.79702 199.281464 
L 343.012466 199.054377 
L 346.658802 199.075667 
L 347.874247 199.160824 
L 349.089693 198.983413 
L 350.305138 198.96922 
L 351.520584 198.777615 
L 353.951475 199.08986 
L 355.16692 199.146632 
L 357.597811 198.820194 
L 358.813256 199.004702 
L 360.028702 198.813097 
L 362.459593 198.855676 
L 363.675038 199.018895 
L 364.890483 198.664072 
L 366.105929 198.96922 
L 367.321374 198.919545 
L 368.53682 199.061474 
L 369.752265 198.649879 
L 370.967711 198.593107 
L 372.183156 198.933737 
L 373.398601 198.940834 
L 374.614047 198.798905 
L 375.829492 198.919544 
L 378.260383 198.742133 
L 379.475829 198.834387 
L 380.691274 198.70665 
L 383.122165 198.664072 
L 384.33761 198.933738 
L 385.553056 198.578914 
L 386.768501 198.387309 
L 387.983946 198.656975 
L 389.199392 198.635686 
L 391.630283 198.380213 
L 392.845728 198.48666 
L 394.061174 198.70665 
L 396.492064 198.493756 
L 397.70751 198.295055 
L 400.138401 198.515046 
L 403.784737 198.252476 
L 405.000182 198.571817 
L 406.215628 198.216994 
L 407.431073 198.515046 
L 408.646519 198.458274 
L 409.861964 198.053775 
L 411.07741 198.436985 
L 414.723746 198.224091 
L 424.447309 198.0041 
L 425.662755 198.252476 
L 426.8782 198.280862 
L 428.093645 197.876364 
L 429.309091 198.195705 
L 429.309091 198.195705 
" style="fill:none;stroke:#0000ff;stroke-linecap:square;stroke-width:1.5;"/>
   </g>
   <g id="line2d_29">
    <path clip-path="url(#p500fdc11d4)" d="M 65.890909 278.104122 
L 67.106355 249.691501 
L 68.3218 232.075337 
L 69.537245 228.623178 
L 70.752691 223.884921 
L 73.183582 220.517374 
L 74.399027 219.603567 
L 75.614472 219.925091 
L 76.829918 218.165167 
L 78.045363 217.792875 
L 79.260809 218.723605 
L 80.476254 216.354476 
L 81.6917 215.643737 
L 82.907145 217.166749 
L 84.12259 216.032951 
L 85.338036 214.459173 
L 86.553481 214.763775 
L 87.768927 214.120726 
L 88.984372 213.274609 
L 91.415263 212.174656 
L 92.630708 212.310035 
L 95.061599 211.633141 
L 96.277045 211.463917 
L 97.49249 211.802364 
L 98.707936 210.770101 
L 101.138826 211.108548 
L 102.354272 210.600878 
L 103.569717 210.600878 
L 104.785163 210.820868 
L 106.000608 210.279353 
L 107.216054 209.974751 
L 108.431499 210.04244 
L 109.646944 209.923984 
L 110.86239 209.46708 
L 112.077835 209.940906 
L 113.293281 209.856295 
L 114.508726 210.093208 
L 116.939617 209.348624 
L 118.155062 209.382469 
L 119.370508 209.703993 
L 123.016844 209.670149 
L 124.232289 209.297857 
L 125.447735 209.585537 
L 126.66318 209.484002 
L 129.094071 209.771682 
L 130.309517 209.24709 
L 131.524962 209.450158 
L 132.740407 209.348624 
L 133.955853 209.619382 
L 135.171298 210.262431 
L 136.386744 209.111711 
L 137.602189 209.703993 
L 138.817635 209.788605 
L 140.03308 209.230167 
L 142.463971 210.008595 
L 143.679416 209.010177 
L 144.894862 209.094788 
L 146.110307 210.008595 
L 147.325753 208.95941 
L 148.541198 209.399391 
L 149.756643 209.433236 
L 150.972089 209.297857 
L 152.187534 209.805527 
L 153.40298 209.484003 
L 154.618425 209.399391 
L 155.83387 209.619381 
L 157.049316 209.314779 
L 159.480207 209.280935 
L 160.695652 209.670149 
L 163.126543 209.890139 
L 164.341988 209.365546 
L 165.557434 209.619382 
L 166.772879 209.162478 
L 167.988325 209.771683 
L 170.419216 209.907061 
L 172.850106 209.399391 
L 174.065552 209.670148 
L 175.280997 210.076285 
L 176.496443 209.890139 
L 177.711888 210.33012 
L 178.927334 209.907061 
L 180.142779 210.550111 
L 181.358224 209.991673 
L 182.57367 209.856294 
L 185.004561 209.957828 
L 186.220006 210.583955 
L 187.435452 209.940906 
L 188.650897 209.670148 
L 189.866342 210.211664 
L 191.081788 210.296275 
L 192.297233 210.753179 
L 193.512679 210.431654 
L 194.728124 209.839372 
L 195.943569 210.177819 
L 197.159015 210.668567 
L 198.37446 210.33012 
L 199.589906 210.347042 
L 200.805351 210.177819 
L 202.020797 210.6178 
L 203.236242 209.907061 
L 204.451687 210.228586 
L 205.667133 210.363965 
L 206.882578 210.262431 
L 208.098024 210.296275 
L 209.313469 211.19316 
L 210.528915 210.600878 
L 211.74436 210.245508 
L 212.959805 210.770101 
L 214.175251 210.211664 
L 215.390696 210.83779 
L 216.606142 210.550111 
L 219.037033 210.837791 
L 220.252478 210.702412 
L 221.467923 210.04244 
L 222.683369 211.007014 
L 223.898814 210.990091 
L 225.11426 211.277772 
L 226.329705 210.634722 
L 227.545151 210.262431 
L 228.760596 210.651645 
L 229.976041 210.482421 
L 231.191487 211.040859 
L 232.406932 210.567033 
L 233.622378 210.871635 
L 236.053268 210.431654 
L 237.268714 210.533188 
L 238.484159 210.939324 
L 239.699605 210.956247 
L 240.91505 211.19316 
L 242.130496 211.294694 
L 243.345941 210.803946 
L 244.561386 211.260849 
L 245.776832 211.210082 
L 246.992277 210.871635 
L 249.423168 211.159315 
L 251.854059 211.007014 
L 253.069504 210.736256 
L 254.28495 211.260849 
L 255.500395 210.973169 
L 256.715841 211.210082 
L 260.362177 211.159315 
L 261.577622 211.650063 
L 262.793068 210.685489 
L 264.008513 211.294694 
L 265.223959 211.76852 
L 267.654849 211.683907 
L 270.08574 211.210082 
L 271.301186 211.396228 
L 272.516631 211.19316 
L 273.732077 211.903898 
L 274.947522 211.362383 
L 276.162967 211.023936 
L 277.378413 211.497762 
L 278.593858 211.311616 
L 279.809304 211.836209 
L 281.024749 212.123889 
L 282.240195 211.514684 
L 285.886531 211.954665 
L 287.101976 211.616219 
L 288.317422 212.022355 
L 289.532867 211.633141 
L 290.748313 212.225423 
L 291.963758 211.819287 
L 293.179203 212.546948 
L 294.394649 212.479258 
L 295.610094 212.174656 
L 298.040985 212.242345 
L 299.256431 212.090044 
L 300.471876 212.360802 
L 301.687321 211.582374 
L 302.902767 212.868472 
L 304.118212 212.377724 
L 305.333658 212.106967 
L 306.549103 212.530025 
L 307.764548 211.954665 
L 308.979994 212.800783 
L 310.195439 212.445413 
L 311.410885 212.343879 
L 312.62633 212.377724 
L 313.841776 212.834627 
L 316.272666 212.293112 
L 317.488112 212.868472 
L 318.703557 212.310035 
L 319.919003 213.156152 
L 321.134448 213.037696 
L 322.349894 212.665404 
L 323.565339 212.750015 
L 324.780784 213.122307 
L 325.99623 213.325375 
L 327.211675 212.750016 
L 328.427121 212.78386 
L 329.642566 213.07154 
L 332.073457 213.105385 
L 333.288902 212.631559 
L 334.504348 212.986929 
L 335.719793 212.750015 
L 336.935239 213.020773 
L 339.36613 212.733093 
L 340.581575 212.733093 
L 341.79702 213.393065 
L 343.012466 213.088462 
L 344.227911 212.648481 
L 345.443357 213.613055 
L 346.658802 213.308453 
L 347.874247 213.206919 
L 349.089693 213.629978 
L 350.305138 213.325375 
L 351.520584 213.528444 
L 352.736029 213.206919 
L 353.951475 213.697667 
L 355.16692 213.968425 
L 356.382365 213.206919 
L 357.597811 213.122307 
L 358.813256 213.426909 
L 361.244147 213.833046 
L 362.459593 213.494599 
L 363.675038 213.562288 
L 364.890483 213.460754 
L 366.105929 214.459173 
L 367.321374 213.494599 
L 368.53682 213.799201 
L 369.752265 213.714589 
L 370.967711 214.188415 
L 372.183156 213.376142 
L 373.398601 214.273027 
L 374.614047 214.036114 
L 375.829492 214.120726 
L 377.044938 214.086881 
L 378.260383 214.797619 
L 379.475829 214.002269 
L 380.691274 213.985347 
L 381.906719 213.629978 
L 383.122165 213.680745 
L 384.33761 214.713008 
L 385.553056 213.833046 
L 386.768501 214.256105 
L 387.983946 213.613055 
L 389.199392 214.493017 
L 390.414837 214.188415 
L 391.630283 214.22226 
L 392.845728 214.002269 
L 394.061174 214.408406 
L 395.276619 214.256105 
L 396.492064 214.357639 
L 397.70751 214.205338 
L 398.922955 213.579211 
L 402.569292 215.01761 
L 403.784737 214.44225 
L 406.215628 214.696085 
L 407.431073 214.628396 
L 408.646519 214.171493 
L 409.861964 214.780697 
L 411.07741 214.645318 
L 412.292855 214.205338 
L 413.5083 214.543784 
L 414.723746 214.526862 
L 415.939191 215.000688 
L 417.154637 214.713008 
L 418.370082 213.86689 
L 419.585528 214.679163 
L 420.800973 215.068377 
L 422.016418 214.50994 
L 424.447309 214.476095 
L 425.662755 215.136067 
L 426.8782 214.543784 
L 428.093645 215.152989 
L 429.309091 214.340716 
L 429.309091 214.340716 
" style="fill:none;stroke:#ffa500;stroke-linecap:square;stroke-width:1.5;"/>
   </g>
   <g id="patch_9">
    <path d="M 47.72 303.64 
L 47.72 192.84 
" style="fill:none;stroke:#000000;stroke-linecap:square;stroke-linejoin:miter;stroke-width:0.8;"/>
   </g>
   <g id="patch_10">
    <path d="M 447.48 303.64 
L 447.48 192.84 
" style="fill:none;stroke:#000000;stroke-linecap:square;stroke-linejoin:miter;stroke-width:0.8;"/>
   </g>
   <g id="patch_11">
    <path d="M 47.72 303.64 
L 447.48 303.64 
" style="fill:none;stroke:#000000;stroke-linecap:square;stroke-linejoin:miter;stroke-width:0.8;"/>
   </g>
   <g id="patch_12">
    <path d="M 47.72 192.84 
L 447.48 192.84 
" style="fill:none;stroke:#000000;stroke-linecap:square;stroke-linejoin:miter;stroke-width:0.8;"/>
   </g>
   <g id="text_29">
    <!-- model accuracy -->
    <g transform="translate(199.938437 186.84)scale(0.12 -0.12)">
     <use xlink:href="#DejaVuSans-109"/>
     <use x="97.412109" xlink:href="#DejaVuSans-111"/>
     <use x="158.59375" xlink:href="#DejaVuSans-100"/>
     <use x="222.070312" xlink:href="#DejaVuSans-101"/>
     <use x="283.59375" xlink:href="#DejaVuSans-108"/>
     <use x="311.376953" xlink:href="#DejaVuSans-32"/>
     <use x="343.164062" xlink:href="#DejaVuSans-97"/>
     <use x="404.443359" xlink:href="#DejaVuSans-99"/>
     <use x="459.423828" xlink:href="#DejaVuSans-99"/>
     <use x="514.404297" xlink:href="#DejaVuSans-117"/>
     <use x="577.783203" xlink:href="#DejaVuSans-114"/>
     <use x="618.896484" xlink:href="#DejaVuSans-97"/>
     <use x="680.175781" xlink:href="#DejaVuSans-99"/>
     <use x="735.15625" xlink:href="#DejaVuSans-121"/>
    </g>
   </g>
   <g id="legend_2">
    <g id="patch_13">
     <path d="M 54.72 230.19625 
L 109.995 230.19625 
Q 111.995 230.19625 111.995 228.19625 
L 111.995 199.84 
Q 111.995 197.84 109.995 197.84 
L 54.72 197.84 
Q 52.72 197.84 52.72 199.84 
L 52.72 228.19625 
Q 52.72 230.19625 54.72 230.19625 
z
" style="fill:#ffffff;opacity:0.8;stroke:#cccccc;stroke-linejoin:miter;"/>
    </g>
    <g id="line2d_30">
     <path d="M 56.72 205.938437 
L 76.72 205.938437 
" style="fill:none;stroke:#0000ff;stroke-linecap:square;stroke-width:1.5;"/>
    </g>
    <g id="line2d_31"/>
    <g id="text_30">
     <!-- train -->
     <g transform="translate(84.72 209.438437)scale(0.1 -0.1)">
      <use xlink:href="#DejaVuSans-116"/>
      <use x="39.208984" xlink:href="#DejaVuSans-114"/>
      <use x="80.322266" xlink:href="#DejaVuSans-97"/>
      <use x="141.601562" xlink:href="#DejaVuSans-105"/>
      <use x="169.384766" xlink:href="#DejaVuSans-110"/>
     </g>
    </g>
    <g id="line2d_32">
     <path d="M 56.72 220.616562 
L 76.72 220.616562 
" style="fill:none;stroke:#ffa500;stroke-linecap:square;stroke-width:1.5;"/>
    </g>
    <g id="line2d_33"/>
    <g id="text_31">
     <!-- test -->
     <g transform="translate(84.72 224.116562)scale(0.1 -0.1)">
      <use xlink:href="#DejaVuSans-116"/>
      <use x="39.208984" xlink:href="#DejaVuSans-101"/>
      <use x="100.732422" xlink:href="#DejaVuSans-115"/>
      <use x="152.832031" xlink:href="#DejaVuSans-116"/>
     </g>
    </g>
   </g>
  </g>
 </g>
 <defs>
  <clipPath id="pf9d6af2613">
   <rect height="110.8" width="399.76" x="47.72" y="25.44"/>
  </clipPath>
  <clipPath id="p500fdc11d4">
   <rect height="110.8" width="399.76" x="47.72" y="192.84"/>
  </clipPath>
 </defs>
</svg>
