<?xml version="1.0" encoding="utf-8" standalone="no"?>
<!DOCTYPE svg PUBLIC "-//W3C//DTD SVG 1.1//EN"
  "http://www.w3.org/Graphics/SVG/1.1/DTD/svg11.dtd">
<!-- Created with matplotlib (https://matplotlib.org/) -->
<svg height="345.6pt" version="1.1" viewBox="0 0 460.8 345.6" width="460.8pt" xmlns="http://www.w3.org/2000/svg" xmlns:xlink="http://www.w3.org/1999/xlink">
 <defs>
  <style type="text/css">
*{stroke-linecap:butt;stroke-linejoin:round;}
  </style>
 </defs>
 <g id="figure_1">
  <g id="patch_1">
   <path d="M 0 345.6 
L 460.8 345.6 
L 460.8 0 
L 0 0 
z
" style="fill:#ffffff;"/>
  </g>
  <g id="axes_1">
   <g id="patch_2">
    <path d="M 47.72 136.24 
L 447.48 136.24 
L 447.48 25.44 
L 47.72 25.44 
z
" style="fill:#ffffff;"/>
   </g>
   <g id="matplotlib.axis_1">
    <g id="xtick_1">
     <g id="line2d_1">
      <defs>
       <path d="M 0 0 
L 0 3.5 
" id="ma0be6c7247" style="stroke:#000000;stroke-width:0.8;"/>
      </defs>
      <g>
       <use style="stroke:#000000;stroke-width:0.8;" x="65.890909" xlink:href="#ma0be6c7247" y="136.24"/>
      </g>
     </g>
     <g id="text_1">
      <!-- 0 -->
      <defs>
       <path d="M 31.78125 66.40625 
Q 24.171875 66.40625 20.328125 58.90625 
Q 16.5 51.421875 16.5 36.375 
Q 16.5 21.390625 20.328125 13.890625 
Q 24.171875 6.390625 31.78125 6.390625 
Q 39.453125 6.390625 43.28125 13.890625 
Q 47.125 21.390625 47.125 36.375 
Q 47.125 51.421875 43.28125 58.90625 
Q 39.453125 66.40625 31.78125 66.40625 
z
M 31.78125 74.21875 
Q 44.046875 74.21875 50.515625 64.515625 
Q 56.984375 54.828125 56.984375 36.375 
Q 56.984375 17.96875 50.515625 8.265625 
Q 44.046875 -1.421875 31.78125 -1.421875 
Q 19.53125 -1.421875 13.0625 8.265625 
Q 6.59375 17.96875 6.59375 36.375 
Q 6.59375 54.828125 13.0625 64.515625 
Q 19.53125 74.21875 31.78125 74.21875 
z
" id="DejaVuSans-48"/>
      </defs>
      <g transform="translate(62.709659 150.838437)scale(0.1 -0.1)">
       <use xlink:href="#DejaVuSans-48"/>
      </g>
     </g>
    </g>
    <g id="xtick_2">
     <g id="line2d_2">
      <g>
       <use style="stroke:#000000;stroke-width:0.8;" x="138.720204" xlink:href="#ma0be6c7247" y="136.24"/>
      </g>
     </g>
     <g id="text_2">
      <!-- 100 -->
      <defs>
       <path d="M 12.40625 8.296875 
L 28.515625 8.296875 
L 28.515625 63.921875 
L 10.984375 60.40625 
L 10.984375 69.390625 
L 28.421875 72.90625 
L 38.28125 72.90625 
L 38.28125 8.296875 
L 54.390625 8.296875 
L 54.390625 0 
L 12.40625 0 
z
" id="DejaVuSans-49"/>
      </defs>
      <g transform="translate(129.176454 150.838437)scale(0.1 -0.1)">
       <use xlink:href="#DejaVuSans-49"/>
       <use x="63.623047" xlink:href="#DejaVuSans-48"/>
       <use x="127.246094" xlink:href="#DejaVuSans-48"/>
      </g>
     </g>
    </g>
    <g id="xtick_3">
     <g id="line2d_3">
      <g>
       <use style="stroke:#000000;stroke-width:0.8;" x="211.549499" xlink:href="#ma0be6c7247" y="136.24"/>
      </g>
     </g>
     <g id="text_3">
      <!-- 200 -->
      <defs>
       <path d="M 19.1875 8.296875 
L 53.609375 8.296875 
L 53.609375 0 
L 7.328125 0 
L 7.328125 8.296875 
Q 12.9375 14.109375 22.625 23.890625 
Q 32.328125 33.6875 34.8125 36.53125 
Q 39.546875 41.84375 41.421875 45.53125 
Q 43.3125 49.21875 43.3125 52.78125 
Q 43.3125 58.59375 39.234375 62.25 
Q 35.15625 65.921875 28.609375 65.921875 
Q 23.96875 65.921875 18.8125 64.3125 
Q 13.671875 62.703125 7.8125 59.421875 
L 7.8125 69.390625 
Q 13.765625 71.78125 18.9375 73 
Q 24.125 74.21875 28.421875 74.21875 
Q 39.75 74.21875 46.484375 68.546875 
Q 53.21875 62.890625 53.21875 53.421875 
Q 53.21875 48.921875 51.53125 44.890625 
Q 49.859375 40.875 45.40625 35.40625 
Q 44.1875 33.984375 37.640625 27.21875 
Q 31.109375 20.453125 19.1875 8.296875 
z
" id="DejaVuSans-50"/>
      </defs>
      <g transform="translate(202.005749 150.838437)scale(0.1 -0.1)">
       <use xlink:href="#DejaVuSans-50"/>
       <use x="63.623047" xlink:href="#DejaVuSans-48"/>
       <use x="127.246094" xlink:href="#DejaVuSans-48"/>
      </g>
     </g>
    </g>
    <g id="xtick_4">
     <g id="line2d_4">
      <g>
       <use style="stroke:#000000;stroke-width:0.8;" x="284.378794" xlink:href="#ma0be6c7247" y="136.24"/>
      </g>
     </g>
     <g id="text_4">
      <!-- 300 -->
      <defs>
       <path d="M 40.578125 39.3125 
Q 47.65625 37.796875 51.625 33 
Q 55.609375 28.21875 55.609375 21.1875 
Q 55.609375 10.40625 48.1875 4.484375 
Q 40.765625 -1.421875 27.09375 -1.421875 
Q 22.515625 -1.421875 17.65625 -0.515625 
Q 12.796875 0.390625 7.625 2.203125 
L 7.625 11.71875 
Q 11.71875 9.328125 16.59375 8.109375 
Q 21.484375 6.890625 26.8125 6.890625 
Q 36.078125 6.890625 40.9375 10.546875 
Q 45.796875 14.203125 45.796875 21.1875 
Q 45.796875 27.640625 41.28125 31.265625 
Q 36.765625 34.90625 28.71875 34.90625 
L 20.21875 34.90625 
L 20.21875 43.015625 
L 29.109375 43.015625 
Q 36.375 43.015625 40.234375 45.921875 
Q 44.09375 48.828125 44.09375 54.296875 
Q 44.09375 59.90625 40.109375 62.90625 
Q 36.140625 65.921875 28.71875 65.921875 
Q 24.65625 65.921875 20.015625 65.03125 
Q 15.375 64.15625 9.8125 62.3125 
L 9.8125 71.09375 
Q 15.4375 72.65625 20.34375 73.4375 
Q 25.25 74.21875 29.59375 74.21875 
Q 40.828125 74.21875 47.359375 69.109375 
Q 53.90625 64.015625 53.90625 55.328125 
Q 53.90625 49.265625 50.4375 45.09375 
Q 46.96875 40.921875 40.578125 39.3125 
z
" id="DejaVuSans-51"/>
      </defs>
      <g transform="translate(274.835044 150.838437)scale(0.1 -0.1)">
       <use xlink:href="#DejaVuSans-51"/>
       <use x="63.623047" xlink:href="#DejaVuSans-48"/>
       <use x="127.246094" xlink:href="#DejaVuSans-48"/>
      </g>
     </g>
    </g>
    <g id="xtick_5">
     <g id="line2d_5">
      <g>
       <use style="stroke:#000000;stroke-width:0.8;" x="357.208089" xlink:href="#ma0be6c7247" y="136.24"/>
      </g>
     </g>
     <g id="text_5">
      <!-- 400 -->
      <defs>
       <path d="M 37.796875 64.3125 
L 12.890625 25.390625 
L 37.796875 25.390625 
z
M 35.203125 72.90625 
L 47.609375 72.90625 
L 47.609375 25.390625 
L 58.015625 25.390625 
L 58.015625 17.1875 
L 47.609375 17.1875 
L 47.609375 0 
L 37.796875 0 
L 37.796875 17.1875 
L 4.890625 17.1875 
L 4.890625 26.703125 
z
" id="DejaVuSans-52"/>
      </defs>
      <g transform="translate(347.664339 150.838437)scale(0.1 -0.1)">
       <use xlink:href="#DejaVuSans-52"/>
       <use x="63.623047" xlink:href="#DejaVuSans-48"/>
       <use x="127.246094" xlink:href="#DejaVuSans-48"/>
      </g>
     </g>
    </g>
    <g id="xtick_6">
     <g id="line2d_6">
      <g>
       <use style="stroke:#000000;stroke-width:0.8;" x="430.037384" xlink:href="#ma0be6c7247" y="136.24"/>
      </g>
     </g>
     <g id="text_6">
      <!-- 500 -->
      <defs>
       <path d="M 10.796875 72.90625 
L 49.515625 72.90625 
L 49.515625 64.59375 
L 19.828125 64.59375 
L 19.828125 46.734375 
Q 21.96875 47.46875 24.109375 47.828125 
Q 26.265625 48.1875 28.421875 48.1875 
Q 40.625 48.1875 47.75 41.5 
Q 54.890625 34.8125 54.890625 23.390625 
Q 54.890625 11.625 47.5625 5.09375 
Q 40.234375 -1.421875 26.90625 -1.421875 
Q 22.3125 -1.421875 17.546875 -0.640625 
Q 12.796875 0.140625 7.71875 1.703125 
L 7.71875 11.625 
Q 12.109375 9.234375 16.796875 8.0625 
Q 21.484375 6.890625 26.703125 6.890625 
Q 35.15625 6.890625 40.078125 11.328125 
Q 45.015625 15.765625 45.015625 23.390625 
Q 45.015625 31 40.078125 35.4375 
Q 35.15625 39.890625 26.703125 39.890625 
Q 22.75 39.890625 18.8125 39.015625 
Q 14.890625 38.140625 10.796875 36.28125 
z
" id="DejaVuSans-53"/>
      </defs>
      <g transform="translate(420.493634 150.838437)scale(0.1 -0.1)">
       <use xlink:href="#DejaVuSans-53"/>
       <use x="63.623047" xlink:href="#DejaVuSans-48"/>
       <use x="127.246094" xlink:href="#DejaVuSans-48"/>
      </g>
     </g>
    </g>
    <g id="text_7">
     <!-- epoch -->
     <defs>
      <path d="M 56.203125 29.59375 
L 56.203125 25.203125 
L 14.890625 25.203125 
Q 15.484375 15.921875 20.484375 11.0625 
Q 25.484375 6.203125 34.421875 6.203125 
Q 39.59375 6.203125 44.453125 7.46875 
Q 49.3125 8.734375 54.109375 11.28125 
L 54.109375 2.78125 
Q 49.265625 0.734375 44.1875 -0.34375 
Q 39.109375 -1.421875 33.890625 -1.421875 
Q 20.796875 -1.421875 13.15625 6.1875 
Q 5.515625 13.8125 5.515625 26.8125 
Q 5.515625 40.234375 12.765625 48.109375 
Q 20.015625 56 32.328125 56 
Q 43.359375 56 49.78125 48.890625 
Q 56.203125 41.796875 56.203125 29.59375 
z
M 47.21875 32.234375 
Q 47.125 39.59375 43.09375 43.984375 
Q 39.0625 48.390625 32.421875 48.390625 
Q 24.90625 48.390625 20.390625 44.140625 
Q 15.875 39.890625 15.1875 32.171875 
z
" id="DejaVuSans-101"/>
      <path d="M 18.109375 8.203125 
L 18.109375 -20.796875 
L 9.078125 -20.796875 
L 9.078125 54.6875 
L 18.109375 54.6875 
L 18.109375 46.390625 
Q 20.953125 51.265625 25.265625 53.625 
Q 29.59375 56 35.59375 56 
Q 45.5625 56 51.78125 48.09375 
Q 58.015625 40.1875 58.015625 27.296875 
Q 58.015625 14.40625 51.78125 6.484375 
Q 45.5625 -1.421875 35.59375 -1.421875 
Q 29.59375 -1.421875 25.265625 0.953125 
Q 20.953125 3.328125 18.109375 8.203125 
z
M 48.6875 27.296875 
Q 48.6875 37.203125 44.609375 42.84375 
Q 40.53125 48.484375 33.40625 48.484375 
Q 26.265625 48.484375 22.1875 42.84375 
Q 18.109375 37.203125 18.109375 27.296875 
Q 18.109375 17.390625 22.1875 11.75 
Q 26.265625 6.109375 33.40625 6.109375 
Q 40.53125 6.109375 44.609375 11.75 
Q 48.6875 17.390625 48.6875 27.296875 
z
" id="DejaVuSans-112"/>
      <path d="M 30.609375 48.390625 
Q 23.390625 48.390625 19.1875 42.75 
Q 14.984375 37.109375 14.984375 27.296875 
Q 14.984375 17.484375 19.15625 11.84375 
Q 23.34375 6.203125 30.609375 6.203125 
Q 37.796875 6.203125 41.984375 11.859375 
Q 46.1875 17.53125 46.1875 27.296875 
Q 46.1875 37.015625 41.984375 42.703125 
Q 37.796875 48.390625 30.609375 48.390625 
z
M 30.609375 56 
Q 42.328125 56 49.015625 48.375 
Q 55.71875 40.765625 55.71875 27.296875 
Q 55.71875 13.875 49.015625 6.21875 
Q 42.328125 -1.421875 30.609375 -1.421875 
Q 18.84375 -1.421875 12.171875 6.21875 
Q 5.515625 13.875 5.515625 27.296875 
Q 5.515625 40.765625 12.171875 48.375 
Q 18.84375 56 30.609375 56 
z
" id="DejaVuSans-111"/>
      <path d="M 48.78125 52.59375 
L 48.78125 44.1875 
Q 44.96875 46.296875 41.140625 47.34375 
Q 37.3125 48.390625 33.40625 48.390625 
Q 24.65625 48.390625 19.8125 42.84375 
Q 14.984375 37.3125 14.984375 27.296875 
Q 14.984375 17.28125 19.8125 11.734375 
Q 24.65625 6.203125 33.40625 6.203125 
Q 37.3125 6.203125 41.140625 7.25 
Q 44.96875 8.296875 48.78125 10.40625 
L 48.78125 2.09375 
Q 45.015625 0.34375 40.984375 -0.53125 
Q 36.96875 -1.421875 32.421875 -1.421875 
Q 20.0625 -1.421875 12.78125 6.34375 
Q 5.515625 14.109375 5.515625 27.296875 
Q 5.515625 40.671875 12.859375 48.328125 
Q 20.21875 56 33.015625 56 
Q 37.15625 56 41.109375 55.140625 
Q 45.0625 54.296875 48.78125 52.59375 
z
" id="DejaVuSans-99"/>
      <path d="M 54.890625 33.015625 
L 54.890625 0 
L 45.90625 0 
L 45.90625 32.71875 
Q 45.90625 40.484375 42.875 44.328125 
Q 39.84375 48.1875 33.796875 48.1875 
Q 26.515625 48.1875 22.3125 43.546875 
Q 18.109375 38.921875 18.109375 30.90625 
L 18.109375 0 
L 9.078125 0 
L 9.078125 75.984375 
L 18.109375 75.984375 
L 18.109375 46.1875 
Q 21.34375 51.125 25.703125 53.5625 
Q 30.078125 56 35.796875 56 
Q 45.21875 56 50.046875 50.171875 
Q 54.890625 44.34375 54.890625 33.015625 
z
" id="DejaVuSans-104"/>
     </defs>
     <g transform="translate(232.371875 164.516562)scale(0.1 -0.1)">
      <use xlink:href="#DejaVuSans-101"/>
      <use x="61.523438" xlink:href="#DejaVuSans-112"/>
      <use x="125" xlink:href="#DejaVuSans-111"/>
      <use x="186.181641" xlink:href="#DejaVuSans-99"/>
      <use x="241.162109" xlink:href="#DejaVuSans-104"/>
     </g>
    </g>
   </g>
   <g id="matplotlib.axis_2">
    <g id="ytick_1">
     <g id="line2d_7">
      <defs>
       <path d="M 0 0 
L -3.5 0 
" id="m49132032cd" style="stroke:#000000;stroke-width:0.8;"/>
      </defs>
      <g>
       <use style="stroke:#000000;stroke-width:0.8;" x="47.72" xlink:href="#m49132032cd" y="129.492201"/>
      </g>
     </g>
     <g id="text_8">
      <!-- 0.4 -->
      <defs>
       <path d="M 10.6875 12.40625 
L 21 12.40625 
L 21 0 
L 10.6875 0 
z
" id="DejaVuSans-46"/>
      </defs>
      <g transform="translate(24.816875 133.291419)scale(0.1 -0.1)">
       <use xlink:href="#DejaVuSans-48"/>
       <use x="63.623047" xlink:href="#DejaVuSans-46"/>
       <use x="95.410156" xlink:href="#DejaVuSans-52"/>
      </g>
     </g>
    </g>
    <g id="ytick_2">
     <g id="line2d_8">
      <g>
       <use style="stroke:#000000;stroke-width:0.8;" x="47.72" xlink:href="#m49132032cd" y="96.433452"/>
      </g>
     </g>
     <g id="text_9">
      <!-- 0.6 -->
      <defs>
       <path d="M 33.015625 40.375 
Q 26.375 40.375 22.484375 35.828125 
Q 18.609375 31.296875 18.609375 23.390625 
Q 18.609375 15.53125 22.484375 10.953125 
Q 26.375 6.390625 33.015625 6.390625 
Q 39.65625 6.390625 43.53125 10.953125 
Q 47.40625 15.53125 47.40625 23.390625 
Q 47.40625 31.296875 43.53125 35.828125 
Q 39.65625 40.375 33.015625 40.375 
z
M 52.59375 71.296875 
L 52.59375 62.3125 
Q 48.875 64.0625 45.09375 64.984375 
Q 41.3125 65.921875 37.59375 65.921875 
Q 27.828125 65.921875 22.671875 59.328125 
Q 17.53125 52.734375 16.796875 39.40625 
Q 19.671875 43.65625 24.015625 45.921875 
Q 28.375 48.1875 33.59375 48.1875 
Q 44.578125 48.1875 50.953125 41.515625 
Q 57.328125 34.859375 57.328125 23.390625 
Q 57.328125 12.15625 50.6875 5.359375 
Q 44.046875 -1.421875 33.015625 -1.421875 
Q 20.359375 -1.421875 13.671875 8.265625 
Q 6.984375 17.96875 6.984375 36.375 
Q 6.984375 53.65625 15.1875 63.9375 
Q 23.390625 74.21875 37.203125 74.21875 
Q 40.921875 74.21875 44.703125 73.484375 
Q 48.484375 72.75 52.59375 71.296875 
z
" id="DejaVuSans-54"/>
      </defs>
      <g transform="translate(24.816875 100.232671)scale(0.1 -0.1)">
       <use xlink:href="#DejaVuSans-48"/>
       <use x="63.623047" xlink:href="#DejaVuSans-46"/>
       <use x="95.410156" xlink:href="#DejaVuSans-54"/>
      </g>
     </g>
    </g>
    <g id="ytick_3">
     <g id="line2d_9">
      <g>
       <use style="stroke:#000000;stroke-width:0.8;" x="47.72" xlink:href="#m49132032cd" y="63.374703"/>
      </g>
     </g>
     <g id="text_10">
      <!-- 0.8 -->
      <defs>
       <path d="M 31.78125 34.625 
Q 24.75 34.625 20.71875 30.859375 
Q 16.703125 27.09375 16.703125 20.515625 
Q 16.703125 13.921875 20.71875 10.15625 
Q 24.75 6.390625 31.78125 6.390625 
Q 38.8125 6.390625 42.859375 10.171875 
Q 46.921875 13.96875 46.921875 20.515625 
Q 46.921875 27.09375 42.890625 30.859375 
Q 38.875 34.625 31.78125 34.625 
z
M 21.921875 38.8125 
Q 15.578125 40.375 12.03125 44.71875 
Q 8.5 49.078125 8.5 55.328125 
Q 8.5 64.0625 14.71875 69.140625 
Q 20.953125 74.21875 31.78125 74.21875 
Q 42.671875 74.21875 48.875 69.140625 
Q 55.078125 64.0625 55.078125 55.328125 
Q 55.078125 49.078125 51.53125 44.71875 
Q 48 40.375 41.703125 38.8125 
Q 48.828125 37.15625 52.796875 32.3125 
Q 56.78125 27.484375 56.78125 20.515625 
Q 56.78125 9.90625 50.3125 4.234375 
Q 43.84375 -1.421875 31.78125 -1.421875 
Q 19.734375 -1.421875 13.25 4.234375 
Q 6.78125 9.90625 6.78125 20.515625 
Q 6.78125 27.484375 10.78125 32.3125 
Q 14.796875 37.15625 21.921875 38.8125 
z
M 18.3125 54.390625 
Q 18.3125 48.734375 21.84375 45.5625 
Q 25.390625 42.390625 31.78125 42.390625 
Q 38.140625 42.390625 41.71875 45.5625 
Q 45.3125 48.734375 45.3125 54.390625 
Q 45.3125 60.0625 41.71875 63.234375 
Q 38.140625 66.40625 31.78125 66.40625 
Q 25.390625 66.40625 21.84375 63.234375 
Q 18.3125 60.0625 18.3125 54.390625 
z
" id="DejaVuSans-56"/>
      </defs>
      <g transform="translate(24.816875 67.173922)scale(0.1 -0.1)">
       <use xlink:href="#DejaVuSans-48"/>
       <use x="63.623047" xlink:href="#DejaVuSans-46"/>
       <use x="95.410156" xlink:href="#DejaVuSans-56"/>
      </g>
     </g>
    </g>
    <g id="ytick_4">
     <g id="line2d_10">
      <g>
       <use style="stroke:#000000;stroke-width:0.8;" x="47.72" xlink:href="#m49132032cd" y="30.315954"/>
      </g>
     </g>
     <g id="text_11">
      <!-- 1.0 -->
      <g transform="translate(24.816875 34.115173)scale(0.1 -0.1)">
       <use xlink:href="#DejaVuSans-49"/>
       <use x="63.623047" xlink:href="#DejaVuSans-46"/>
       <use x="95.410156" xlink:href="#DejaVuSans-48"/>
      </g>
     </g>
    </g>
    <g id="text_12">
     <!-- loss -->
     <defs>
      <path d="M 9.421875 75.984375 
L 18.40625 75.984375 
L 18.40625 0 
L 9.421875 0 
z
" id="DejaVuSans-108"/>
      <path d="M 44.28125 53.078125 
L 44.28125 44.578125 
Q 40.484375 46.53125 36.375 47.5 
Q 32.28125 48.484375 27.875 48.484375 
Q 21.1875 48.484375 17.84375 46.4375 
Q 14.5 44.390625 14.5 40.28125 
Q 14.5 37.15625 16.890625 35.375 
Q 19.28125 33.59375 26.515625 31.984375 
L 29.59375 31.296875 
Q 39.15625 29.25 43.1875 25.515625 
Q 47.21875 21.78125 47.21875 15.09375 
Q 47.21875 7.46875 41.1875 3.015625 
Q 35.15625 -1.421875 24.609375 -1.421875 
Q 20.21875 -1.421875 15.453125 -0.5625 
Q 10.6875 0.296875 5.421875 2 
L 5.421875 11.28125 
Q 10.40625 8.6875 15.234375 7.390625 
Q 20.0625 6.109375 24.8125 6.109375 
Q 31.15625 6.109375 34.5625 8.28125 
Q 37.984375 10.453125 37.984375 14.40625 
Q 37.984375 18.0625 35.515625 20.015625 
Q 33.0625 21.96875 24.703125 23.78125 
L 21.578125 24.515625 
Q 13.234375 26.265625 9.515625 29.90625 
Q 5.8125 33.546875 5.8125 39.890625 
Q 5.8125 47.609375 11.28125 51.796875 
Q 16.75 56 26.8125 56 
Q 31.78125 56 36.171875 55.265625 
Q 40.578125 54.546875 44.28125 53.078125 
z
" id="DejaVuSans-115"/>
     </defs>
     <g transform="translate(18.737188 90.497812)rotate(-90)scale(0.1 -0.1)">
      <use xlink:href="#DejaVuSans-108"/>
      <use x="27.783203" xlink:href="#DejaVuSans-111"/>
      <use x="88.964844" xlink:href="#DejaVuSans-115"/>
      <use x="141.064453" xlink:href="#DejaVuSans-115"/>
     </g>
    </g>
   </g>
   <g id="line2d_11">
    <path clip-path="url(#pb303fc4653)" d="M 65.890909 30.476364 
L 66.619202 51.511108 
L 68.075788 80.331042 
L 68.804081 90.954096 
L 69.532374 97.013974 
L 70.260667 101.293021 
L 72.445546 107.217166 
L 73.173839 108.857418 
L 73.902132 109.790673 
L 74.630424 111.037477 
L 75.358717 111.572396 
L 76.08701 112.648974 
L 76.815303 113.057747 
L 77.543596 114.05443 
L 78.271889 114.210418 
L 79.000182 114.670865 
L 79.728475 115.382419 
L 81.185061 116.301999 
L 81.913354 116.86691 
L 84.098233 117.36901 
L 84.826526 117.657004 
L 86.283112 118.686189 
L 87.011405 118.312486 
L 87.739698 118.94563 
L 89.924576 119.557029 
L 90.652869 119.570638 
L 91.381162 119.958989 
L 92.109455 119.707802 
L 92.837748 119.958055 
L 93.566041 120.502983 
L 95.022627 120.580949 
L 95.75092 120.957323 
L 96.479213 120.866892 
L 97.207506 121.143154 
L 97.935799 121.037168 
L 100.848971 121.840001 
L 101.577264 121.857335 
L 102.305557 121.524738 
L 103.03385 121.834117 
L 103.762142 121.880032 
L 104.490435 122.325358 
L 105.218728 122.045149 
L 105.947021 122.21899 
L 106.675314 122.524877 
L 108.1319 122.584243 
L 108.860193 122.853222 
L 109.588486 122.982171 
L 110.316779 122.641751 
L 111.045072 123.227255 
L 111.773365 122.9337 
L 112.501658 123.043015 
L 113.229951 122.928939 
L 113.958244 123.184689 
L 114.686537 123.062148 
L 115.41483 123.303949 
L 116.143123 123.285057 
L 116.871416 123.544984 
L 117.599709 123.394707 
L 118.328001 123.702109 
L 119.784587 123.860736 
L 120.51288 123.573197 
L 121.241173 124.209417 
L 121.969466 123.906242 
L 123.426052 124.231014 
L 125.610931 124.236579 
L 126.339224 124.645175 
L 127.067517 124.422291 
L 129.980689 124.727112 
L 131.437275 124.53287 
L 132.165567 124.819084 
L 132.89386 124.572301 
L 133.622153 124.652437 
L 134.350446 124.994174 
L 135.078739 124.838437 
L 135.807032 125.237566 
L 136.535325 125.471972 
L 137.263618 125.051386 
L 138.720204 125.305021 
L 139.448497 125.183175 
L 140.17679 125.296419 
L 140.905083 125.534761 
L 141.633376 125.13549 
L 143.089962 125.831295 
L 143.818255 125.071292 
L 145.274841 126.066637 
L 146.003134 125.426019 
L 146.731426 125.767124 
L 148.188012 125.515077 
L 149.644598 125.657754 
L 151.829477 125.463046 
L 152.55777 125.795036 
L 153.286063 125.915641 
L 156.927528 125.791359 
L 157.655821 126.259174 
L 158.384114 126.100268 
L 159.112407 126.528546 
L 159.8407 126.183267 
L 160.568993 126.358796 
L 161.297285 125.930043 
L 162.025578 126.378996 
L 162.753871 126.192061 
L 163.482164 126.408112 
L 164.210457 126.336673 
L 164.93875 126.555838 
L 165.667043 126.26422 
L 166.395336 126.375255 
L 167.123629 126.612011 
L 168.580215 126.322611 
L 169.308508 126.492391 
L 170.036801 126.362815 
L 170.765094 126.561917 
L 171.493387 126.946439 
L 172.22168 126.737986 
L 172.949973 126.410657 
L 174.406559 126.768656 
L 175.134852 126.879952 
L 175.863144 126.838018 
L 176.591437 126.98922 
L 177.31973 126.983211 
L 178.776316 126.781279 
L 179.504609 126.983581 
L 180.961195 126.716367 
L 181.689488 126.962652 
L 182.417781 126.645319 
L 183.146074 126.783873 
L 183.874367 127.065711 
L 186.059246 127.450819 
L 187.515832 127.194705 
L 188.244125 127.71038 
L 188.972418 127.238385 
L 189.700711 127.448081 
L 190.429003 127.148033 
L 192.613882 127.181814 
L 193.342175 127.499856 
L 194.798761 127.360691 
L 195.527054 127.519863 
L 196.255347 127.232469 
L 196.98364 127.642257 
L 197.711933 127.858509 
L 198.440226 127.419485 
L 199.168519 127.454403 
L 199.896812 127.826193 
L 200.625105 127.37592 
L 201.353398 127.881322 
L 202.081691 127.621969 
L 202.809984 127.666191 
L 203.538277 127.821814 
L 204.26657 127.672339 
L 204.994862 127.893111 
L 205.723155 127.59324 
L 206.451448 127.520846 
L 207.179741 127.710203 
L 207.908034 127.557229 
L 208.636327 127.76912 
L 209.36462 127.597745 
L 210.092913 128.0667 
L 210.821206 128.148607 
L 211.549499 127.739217 
L 212.277792 127.868127 
L 213.734378 127.766141 
L 214.462671 128.117785 
L 215.190964 128.176574 
L 215.919257 127.854549 
L 216.64755 128.024873 
L 217.375843 127.489576 
L 218.832428 128.01346 
L 220.289014 127.898024 
L 221.017307 128.272857 
L 221.7456 128.038169 
L 223.202186 128.320247 
L 223.930479 128.099137 
L 224.658772 128.115478 
L 225.387065 128.444613 
L 226.115358 128.633097 
L 226.843651 127.947203 
L 227.571944 128.48113 
L 228.300237 128.120866 
L 229.02853 128.240734 
L 229.756823 127.958115 
L 230.485116 128.460188 
L 231.213409 128.090215 
L 232.669995 128.393584 
L 233.398287 128.509635 
L 234.12658 128.3146 
L 235.583166 128.334332 
L 236.311459 128.063841 
L 237.039752 128.364544 
L 237.768045 128.490781 
L 238.496338 128.757345 
L 239.224631 128.356968 
L 239.952924 128.424522 
L 240.681217 128.305858 
L 241.40951 128.058034 
L 242.137803 128.279168 
L 242.866096 128.155193 
L 243.594389 128.612629 
L 244.322682 128.430599 
L 245.050975 128.459485 
L 245.779268 128.159107 
L 246.507561 128.816793 
L 247.235854 128.47827 
L 247.964146 128.311781 
L 248.692439 128.301525 
L 250.149025 129.000197 
L 250.877318 128.589423 
L 252.333904 129.065117 
L 253.062197 128.745506 
L 254.518783 128.820407 
L 255.247076 129.060416 
L 255.975369 128.608396 
L 256.703662 128.364312 
L 257.431955 128.994469 
L 258.160248 128.886719 
L 258.888541 128.928673 
L 259.616834 128.510503 
L 260.345127 129.114166 
L 261.07342 128.825267 
L 261.801713 128.865619 
L 262.530005 128.664399 
L 263.258298 128.741456 
L 264.714884 129.204503 
L 265.443177 128.793573 
L 266.17147 129.108208 
L 266.899763 128.706752 
L 267.628056 129.270615 
L 268.356349 129.235119 
L 269.084642 128.816259 
L 269.812935 129.027847 
L 271.997814 128.989232 
L 272.726107 128.90376 
L 273.4544 129.173158 
L 274.910986 128.942133 
L 277.095864 129.497523 
L 277.824157 129.136927 
L 278.55245 129.026653 
L 279.280743 129.393011 
L 280.009036 129.279975 
L 281.465622 129.243897 
L 282.193915 128.979631 
L 282.922208 129.46104 
L 283.650501 129.595339 
L 284.378794 129.307713 
L 285.107087 129.446819 
L 285.83538 129.408386 
L 286.563673 128.88095 
L 287.291966 129.473752 
L 289.476845 129.401809 
L 290.205138 129.031412 
L 290.93343 129.376785 
L 292.390016 129.481043 
L 293.118309 129.428289 
L 293.846602 129.243439 
L 296.031481 129.472026 
L 296.759774 129.332171 
L 297.488067 129.369008 
L 298.21636 129.889466 
L 298.944653 129.409696 
L 299.672946 129.699116 
L 301.857825 129.564522 
L 302.586118 129.720596 
L 304.042704 129.437563 
L 304.770997 129.633625 
L 305.499289 129.590166 
L 306.227582 129.697348 
L 307.684168 129.706358 
L 308.412461 129.318535 
L 309.140754 129.609505 
L 310.59734 129.459417 
L 311.325633 129.728472 
L 312.053926 129.645014 
L 312.782219 129.876997 
L 313.510512 129.701914 
L 314.238805 129.290859 
L 315.695391 129.782923 
L 316.423684 129.368253 
L 317.151977 129.808196 
L 318.608563 129.516705 
L 319.336856 129.60409 
L 320.065148 129.895723 
L 320.793441 129.867048 
L 321.521734 129.540185 
L 322.250027 129.347321 
L 322.97832 129.990596 
L 324.434906 129.803648 
L 325.163199 130.155588 
L 325.891492 129.68115 
L 326.619785 129.649377 
L 327.348078 129.914555 
L 328.076371 129.877793 
L 328.804664 129.411602 
L 329.532957 129.819393 
L 330.26125 129.799783 
L 330.989543 129.978695 
L 332.446129 129.798496 
L 333.174422 130.154607 
L 334.631007 129.53928 
L 336.087593 130.092494 
L 337.544179 129.958691 
L 338.272472 129.843114 
L 339.729058 130.30128 
L 340.457351 129.804356 
L 341.913937 130.104284 
L 343.370523 129.865602 
L 344.098816 129.929712 
L 344.827109 129.691934 
L 345.555402 130.327935 
L 346.283695 129.897973 
L 347.011988 130.108877 
L 347.740281 129.863051 
L 348.468574 130.070914 
L 349.925159 130.199274 
L 350.653452 130.326852 
L 351.381745 130.138808 
L 352.110038 130.07669 
L 352.838331 130.267727 
L 354.294917 130.019261 
L 355.02321 130.682235 
L 355.751503 130.166601 
L 356.479796 130.248725 
L 357.208089 129.942077 
L 357.936382 130.276568 
L 358.664675 130.20361 
L 359.392968 130.479381 
L 360.849554 130.084646 
L 361.577847 130.098846 
L 362.30614 130.461649 
L 363.034433 130.4121 
L 363.762725 129.893826 
L 364.491018 130.342466 
L 365.219311 130.114953 
L 366.675897 130.423509 
L 367.40419 129.967093 
L 368.132483 130.277031 
L 368.860776 130.185153 
L 369.589069 130.238465 
L 370.317362 130.615492 
L 371.045655 130.31945 
L 371.773948 130.485307 
L 372.502241 130.46929 
L 373.230534 130.258797 
L 373.958827 130.332672 
L 374.68712 130.22836 
L 376.143706 130.489849 
L 377.600291 130.163956 
L 378.328584 130.075176 
L 379.78517 130.547467 
L 381.970049 130.32759 
L 382.698342 130.466725 
L 385.611514 130.47439 
L 386.339807 130.736005 
L 387.0681 130.491894 
L 388.524686 130.315631 
L 389.252979 130.537126 
L 389.981272 130.052289 
L 390.709565 130.546341 
L 391.437858 130.505518 
L 392.16615 130.863563 
L 393.622736 130.413162 
L 394.351029 130.793844 
L 395.079322 130.444246 
L 395.807615 130.484878 
L 396.535908 130.649686 
L 397.264201 130.394 
L 397.992494 130.677089 
L 398.720787 130.458065 
L 399.44908 130.468488 
L 400.905666 130.680862 
L 401.633959 130.721557 
L 403.090545 130.437108 
L 403.818838 130.667287 
L 404.547131 130.661436 
L 405.275424 130.433588 
L 406.003717 130.447852 
L 406.732009 130.792754 
L 408.188595 130.628952 
L 408.916888 130.93632 
L 409.645181 130.486002 
L 410.373474 130.596704 
L 411.101767 131.055584 
L 411.83006 130.79147 
L 412.558353 131.094244 
L 413.286646 130.592092 
L 414.014939 130.612084 
L 414.743232 130.831186 
L 415.471525 130.811717 
L 416.199818 130.535208 
L 416.928111 131.012311 
L 417.656404 130.643201 
L 418.384697 130.612352 
L 419.11299 130.827542 
L 420.569576 130.959489 
L 422.026161 130.651416 
L 422.754454 130.769661 
L 423.482747 130.690935 
L 424.21104 130.942235 
L 424.939333 131.022544 
L 425.667626 130.687227 
L 426.395919 130.682231 
L 427.124212 131.203636 
L 427.852505 130.51085 
L 428.580798 131.063713 
L 429.309091 131.116293 
L 429.309091 131.116293 
" style="fill:none;stroke:#0000ff;stroke-linecap:square;stroke-width:1.5;"/>
   </g>
   <g id="line2d_12">
    <path clip-path="url(#pb303fc4653)" d="M 65.890909 43.134238 
L 66.619202 61.738512 
L 68.075788 89.496779 
L 68.804081 99.453486 
L 69.532374 104.148736 
L 70.98896 109.311869 
L 71.717253 110.871978 
L 73.173839 113.313292 
L 74.630424 115.339309 
L 75.358717 115.873958 
L 76.08701 116.732749 
L 77.543596 116.49246 
L 78.271889 117.603875 
L 79.000182 118.22333 
L 79.728475 119.010954 
L 80.456768 119.091667 
L 81.185061 118.899026 
L 82.641647 120.182372 
L 83.36994 120.504173 
L 84.098233 120.698296 
L 84.826526 121.018668 
L 85.554819 120.777712 
L 86.283112 120.979961 
L 87.011405 121.520924 
L 87.739698 121.845036 
L 89.196283 122.21783 
L 89.924576 122.159453 
L 90.652869 122.551772 
L 92.109455 122.506828 
L 92.837748 122.88115 
L 95.022627 123.199612 
L 96.479213 123.403084 
L 97.207506 123.286499 
L 99.392385 123.920691 
L 100.120678 123.781923 
L 100.848971 124.07853 
L 101.577264 123.970504 
L 102.305557 124.266954 
L 103.03385 124.356364 
L 103.762142 124.30682 
L 107.403607 124.699666 
L 108.1319 124.68155 
L 108.860193 124.885431 
L 111.773365 125.122733 
L 112.501658 125.265107 
L 113.229951 125.121836 
L 113.958244 125.180369 
L 114.686537 125.357633 
L 115.41483 125.262046 
L 116.143123 125.505388 
L 119.056294 125.535784 
L 119.784587 125.759364 
L 120.51288 125.594041 
L 121.241173 125.885273 
L 124.154345 126.01274 
L 130.708982 126.32833 
L 131.437275 126.468561 
L 132.165567 126.383797 
L 132.89386 126.532903 
L 134.350446 126.578204 
L 135.078739 126.420319 
L 135.807032 126.669297 
L 137.263618 126.650478 
L 140.17679 126.801607 
L 140.905083 126.761756 
L 142.361669 126.932224 
L 143.818255 126.944779 
L 144.546548 127.040569 
L 146.003134 126.997743 
L 146.731426 127.115806 
L 148.188012 127.099984 
L 148.916305 127.216579 
L 151.101184 127.262196 
L 153.286063 127.254482 
L 154.014356 127.163291 
L 156.199235 127.507211 
L 158.384114 127.534371 
L 162.753871 127.70402 
L 163.482164 127.607178 
L 172.22168 127.955134 
L 174.406559 127.996971 
L 178.048023 128.089761 
L 180.961195 128.137789 
L 181.689488 128.233366 
L 182.417781 128.169043 
L 183.146074 128.25788 
L 183.874367 128.217272 
L 185.330953 128.32015 
L 188.244125 128.324554 
L 196.98364 128.507089 
L 197.711933 128.474653 
L 199.168519 128.547764 
L 201.353398 128.634534 
L 208.636327 128.706896 
L 211.549499 128.794355 
L 218.832428 128.94244 
L 219.560721 129.014091 
L 221.017307 128.986339 
L 226.115358 129.085565 
L 229.02853 129.125075 
L 233.398287 129.201336 
L 236.311459 129.253646 
L 238.496338 129.32181 
L 267.628056 129.637505 
L 269.812935 129.689984 
L 287.291966 129.89783 
L 389.981272 130.798625 
L 394.351029 130.828597 
L 400.177373 130.888432 
L 414.014939 130.957072 
L 424.939333 131.040911 
L 429.309091 131.060104 
L 429.309091 131.060104 
" style="fill:none;stroke:#ffa500;stroke-linecap:square;stroke-width:1.5;"/>
   </g>
   <g id="patch_3">
    <path d="M 47.72 136.24 
L 47.72 25.44 
" style="fill:none;stroke:#000000;stroke-linecap:square;stroke-linejoin:miter;stroke-width:0.8;"/>
   </g>
   <g id="patch_4">
    <path d="M 447.48 136.24 
L 447.48 25.44 
" style="fill:none;stroke:#000000;stroke-linecap:square;stroke-linejoin:miter;stroke-width:0.8;"/>
   </g>
   <g id="patch_5">
    <path d="M 47.72 136.24 
L 447.48 136.24 
" style="fill:none;stroke:#000000;stroke-linecap:square;stroke-linejoin:miter;stroke-width:0.8;"/>
   </g>
   <g id="patch_6">
    <path d="M 47.72 25.44 
L 447.48 25.44 
" style="fill:none;stroke:#000000;stroke-linecap:square;stroke-linejoin:miter;stroke-width:0.8;"/>
   </g>
   <g id="text_13">
    <!-- model loss -->
    <defs>
     <path d="M 52 44.1875 
Q 55.375 50.25 60.0625 53.125 
Q 64.75 56 71.09375 56 
Q 79.640625 56 84.28125 50.015625 
Q 88.921875 44.046875 88.921875 33.015625 
L 88.921875 0 
L 79.890625 0 
L 79.890625 32.71875 
Q 79.890625 40.578125 77.09375 44.375 
Q 74.3125 48.1875 68.609375 48.1875 
Q 61.625 48.1875 57.5625 43.546875 
Q 53.515625 38.921875 53.515625 30.90625 
L 53.515625 0 
L 44.484375 0 
L 44.484375 32.71875 
Q 44.484375 40.625 41.703125 44.40625 
Q 38.921875 48.1875 33.109375 48.1875 
Q 26.21875 48.1875 22.15625 43.53125 
Q 18.109375 38.875 18.109375 30.90625 
L 18.109375 0 
L 9.078125 0 
L 9.078125 54.6875 
L 18.109375 54.6875 
L 18.109375 46.1875 
Q 21.1875 51.21875 25.484375 53.609375 
Q 29.78125 56 35.6875 56 
Q 41.65625 56 45.828125 52.96875 
Q 50 49.953125 52 44.1875 
z
" id="DejaVuSans-109"/>
     <path d="M 45.40625 46.390625 
L 45.40625 75.984375 
L 54.390625 75.984375 
L 54.390625 0 
L 45.40625 0 
L 45.40625 8.203125 
Q 42.578125 3.328125 38.25 0.953125 
Q 33.9375 -1.421875 27.875 -1.421875 
Q 17.96875 -1.421875 11.734375 6.484375 
Q 5.515625 14.40625 5.515625 27.296875 
Q 5.515625 40.1875 11.734375 48.09375 
Q 17.96875 56 27.875 56 
Q 33.9375 56 38.25 53.625 
Q 42.578125 51.265625 45.40625 46.390625 
z
M 14.796875 27.296875 
Q 14.796875 17.390625 18.875 11.75 
Q 22.953125 6.109375 30.078125 6.109375 
Q 37.203125 6.109375 41.296875 11.75 
Q 45.40625 17.390625 45.40625 27.296875 
Q 45.40625 37.203125 41.296875 42.84375 
Q 37.203125 48.484375 30.078125 48.484375 
Q 22.953125 48.484375 18.875 42.84375 
Q 14.796875 37.203125 14.796875 27.296875 
z
" id="DejaVuSans-100"/>
     <path id="DejaVuSans-32"/>
    </defs>
    <g transform="translate(215.420312 19.44)scale(0.12 -0.12)">
     <use xlink:href="#DejaVuSans-109"/>
     <use x="97.412109" xlink:href="#DejaVuSans-111"/>
     <use x="158.59375" xlink:href="#DejaVuSans-100"/>
     <use x="222.070312" xlink:href="#DejaVuSans-101"/>
     <use x="283.59375" xlink:href="#DejaVuSans-108"/>
     <use x="311.376953" xlink:href="#DejaVuSans-32"/>
     <use x="343.164062" xlink:href="#DejaVuSans-108"/>
     <use x="370.947266" xlink:href="#DejaVuSans-111"/>
     <use x="432.128906" xlink:href="#DejaVuSans-115"/>
     <use x="484.228516" xlink:href="#DejaVuSans-115"/>
    </g>
   </g>
   <g id="legend_1">
    <g id="patch_7">
     <path d="M 54.72 62.79625 
L 109.995 62.79625 
Q 111.995 62.79625 111.995 60.79625 
L 111.995 32.44 
Q 111.995 30.44 109.995 30.44 
L 54.72 30.44 
Q 52.72 30.44 52.72 32.44 
L 52.72 60.79625 
Q 52.72 62.79625 54.72 62.79625 
z
" style="fill:#ffffff;opacity:0.8;stroke:#cccccc;stroke-linejoin:miter;"/>
    </g>
    <g id="line2d_13">
     <path d="M 56.72 38.538437 
L 76.72 38.538437 
" style="fill:none;stroke:#0000ff;stroke-linecap:square;stroke-width:1.5;"/>
    </g>
    <g id="line2d_14"/>
    <g id="text_14">
     <!-- train -->
     <defs>
      <path d="M 18.3125 70.21875 
L 18.3125 54.6875 
L 36.8125 54.6875 
L 36.8125 47.703125 
L 18.3125 47.703125 
L 18.3125 18.015625 
Q 18.3125 11.328125 20.140625 9.421875 
Q 21.96875 7.515625 27.59375 7.515625 
L 36.8125 7.515625 
L 36.8125 0 
L 27.59375 0 
Q 17.1875 0 13.234375 3.875 
Q 9.28125 7.765625 9.28125 18.015625 
L 9.28125 47.703125 
L 2.6875 47.703125 
L 2.6875 54.6875 
L 9.28125 54.6875 
L 9.28125 70.21875 
z
" id="DejaVuSans-116"/>
      <path d="M 41.109375 46.296875 
Q 39.59375 47.171875 37.8125 47.578125 
Q 36.03125 48 33.890625 48 
Q 26.265625 48 22.1875 43.046875 
Q 18.109375 38.09375 18.109375 28.8125 
L 18.109375 0 
L 9.078125 0 
L 9.078125 54.6875 
L 18.109375 54.6875 
L 18.109375 46.1875 
Q 20.953125 51.171875 25.484375 53.578125 
Q 30.03125 56 36.53125 56 
Q 37.453125 56 38.578125 55.875 
Q 39.703125 55.765625 41.0625 55.515625 
z
" id="DejaVuSans-114"/>
      <path d="M 34.28125 27.484375 
Q 23.390625 27.484375 19.1875 25 
Q 14.984375 22.515625 14.984375 16.5 
Q 14.984375 11.71875 18.140625 8.90625 
Q 21.296875 6.109375 26.703125 6.109375 
Q 34.1875 6.109375 38.703125 11.40625 
Q 43.21875 16.703125 43.21875 25.484375 
L 43.21875 27.484375 
z
M 52.203125 31.203125 
L 52.203125 0 
L 43.21875 0 
L 43.21875 8.296875 
Q 40.140625 3.328125 35.546875 0.953125 
Q 30.953125 -1.421875 24.3125 -1.421875 
Q 15.921875 -1.421875 10.953125 3.296875 
Q 6 8.015625 6 15.921875 
Q 6 25.140625 12.171875 29.828125 
Q 18.359375 34.515625 30.609375 34.515625 
L 43.21875 34.515625 
L 43.21875 35.40625 
Q 43.21875 41.609375 39.140625 45 
Q 35.0625 48.390625 27.6875 48.390625 
Q 23 48.390625 18.546875 47.265625 
Q 14.109375 46.140625 10.015625 43.890625 
L 10.015625 52.203125 
Q 14.9375 54.109375 19.578125 55.046875 
Q 24.21875 56 28.609375 56 
Q 40.484375 56 46.34375 49.84375 
Q 52.203125 43.703125 52.203125 31.203125 
z
" id="DejaVuSans-97"/>
      <path d="M 9.421875 54.6875 
L 18.40625 54.6875 
L 18.40625 0 
L 9.421875 0 
z
M 9.421875 75.984375 
L 18.40625 75.984375 
L 18.40625 64.59375 
L 9.421875 64.59375 
z
" id="DejaVuSans-105"/>
      <path d="M 54.890625 33.015625 
L 54.890625 0 
L 45.90625 0 
L 45.90625 32.71875 
Q 45.90625 40.484375 42.875 44.328125 
Q 39.84375 48.1875 33.796875 48.1875 
Q 26.515625 48.1875 22.3125 43.546875 
Q 18.109375 38.921875 18.109375 30.90625 
L 18.109375 0 
L 9.078125 0 
L 9.078125 54.6875 
L 18.109375 54.6875 
L 18.109375 46.1875 
Q 21.34375 51.125 25.703125 53.5625 
Q 30.078125 56 35.796875 56 
Q 45.21875 56 50.046875 50.171875 
Q 54.890625 44.34375 54.890625 33.015625 
z
" id="DejaVuSans-110"/>
     </defs>
     <g transform="translate(84.72 42.038437)scale(0.1 -0.1)">
      <use xlink:href="#DejaVuSans-116"/>
      <use x="39.208984" xlink:href="#DejaVuSans-114"/>
      <use x="80.322266" xlink:href="#DejaVuSans-97"/>
      <use x="141.601562" xlink:href="#DejaVuSans-105"/>
      <use x="169.384766" xlink:href="#DejaVuSans-110"/>
     </g>
    </g>
    <g id="line2d_15">
     <path d="M 56.72 53.216563 
L 76.72 53.216563 
" style="fill:none;stroke:#ffa500;stroke-linecap:square;stroke-width:1.5;"/>
    </g>
    <g id="line2d_16"/>
    <g id="text_15">
     <!-- test -->
     <g transform="translate(84.72 56.716563)scale(0.1 -0.1)">
      <use xlink:href="#DejaVuSans-116"/>
      <use x="39.208984" xlink:href="#DejaVuSans-101"/>
      <use x="100.732422" xlink:href="#DejaVuSans-115"/>
      <use x="152.832031" xlink:href="#DejaVuSans-116"/>
     </g>
    </g>
   </g>
  </g>
  <g id="axes_2">
   <g id="patch_8">
    <path d="M 47.72 303.64 
L 447.48 303.64 
L 447.48 192.84 
L 47.72 192.84 
z
" style="fill:#ffffff;"/>
   </g>
   <g id="matplotlib.axis_3">
    <g id="xtick_7">
     <g id="line2d_17">
      <g>
       <use style="stroke:#000000;stroke-width:0.8;" x="65.890909" xlink:href="#ma0be6c7247" y="303.64"/>
      </g>
     </g>
     <g id="text_16">
      <!-- 0 -->
      <g transform="translate(62.709659 318.238437)scale(0.1 -0.1)">
       <use xlink:href="#DejaVuSans-48"/>
      </g>
     </g>
    </g>
    <g id="xtick_8">
     <g id="line2d_18">
      <g>
       <use style="stroke:#000000;stroke-width:0.8;" x="138.720204" xlink:href="#ma0be6c7247" y="303.64"/>
      </g>
     </g>
     <g id="text_17">
      <!-- 100 -->
      <g transform="translate(129.176454 318.238437)scale(0.1 -0.1)">
       <use xlink:href="#DejaVuSans-49"/>
       <use x="63.623047" xlink:href="#DejaVuSans-48"/>
       <use x="127.246094" xlink:href="#DejaVuSans-48"/>
      </g>
     </g>
    </g>
    <g id="xtick_9">
     <g id="line2d_19">
      <g>
       <use style="stroke:#000000;stroke-width:0.8;" x="211.549499" xlink:href="#ma0be6c7247" y="303.64"/>
      </g>
     </g>
     <g id="text_18">
      <!-- 200 -->
      <g transform="translate(202.005749 318.238437)scale(0.1 -0.1)">
       <use xlink:href="#DejaVuSans-50"/>
       <use x="63.623047" xlink:href="#DejaVuSans-48"/>
       <use x="127.246094" xlink:href="#DejaVuSans-48"/>
      </g>
     </g>
    </g>
    <g id="xtick_10">
     <g id="line2d_20">
      <g>
       <use style="stroke:#000000;stroke-width:0.8;" x="284.378794" xlink:href="#ma0be6c7247" y="303.64"/>
      </g>
     </g>
     <g id="text_19">
      <!-- 300 -->
      <g transform="translate(274.835044 318.238437)scale(0.1 -0.1)">
       <use xlink:href="#DejaVuSans-51"/>
       <use x="63.623047" xlink:href="#DejaVuSans-48"/>
       <use x="127.246094" xlink:href="#DejaVuSans-48"/>
      </g>
     </g>
    </g>
    <g id="xtick_11">
     <g id="line2d_21">
      <g>
       <use style="stroke:#000000;stroke-width:0.8;" x="357.208089" xlink:href="#ma0be6c7247" y="303.64"/>
      </g>
     </g>
     <g id="text_20">
      <!-- 400 -->
      <g transform="translate(347.664339 318.238437)scale(0.1 -0.1)">
       <use xlink:href="#DejaVuSans-52"/>
       <use x="63.623047" xlink:href="#DejaVuSans-48"/>
       <use x="127.246094" xlink:href="#DejaVuSans-48"/>
      </g>
     </g>
    </g>
    <g id="xtick_12">
     <g id="line2d_22">
      <g>
       <use style="stroke:#000000;stroke-width:0.8;" x="430.037384" xlink:href="#ma0be6c7247" y="303.64"/>
      </g>
     </g>
     <g id="text_21">
      <!-- 500 -->
      <g transform="translate(420.493634 318.238437)scale(0.1 -0.1)">
       <use xlink:href="#DejaVuSans-53"/>
       <use x="63.623047" xlink:href="#DejaVuSans-48"/>
       <use x="127.246094" xlink:href="#DejaVuSans-48"/>
      </g>
     </g>
    </g>
    <g id="text_22">
     <!-- epoch -->
     <g transform="translate(232.371875 331.916562)scale(0.1 -0.1)">
      <use xlink:href="#DejaVuSans-101"/>
      <use x="61.523438" xlink:href="#DejaVuSans-112"/>
      <use x="125" xlink:href="#DejaVuSans-111"/>
      <use x="186.181641" xlink:href="#DejaVuSans-99"/>
      <use x="241.162109" xlink:href="#DejaVuSans-104"/>
     </g>
    </g>
   </g>
   <g id="matplotlib.axis_4">
    <g id="ytick_5">
     <g id="line2d_23">
      <g>
       <use style="stroke:#000000;stroke-width:0.8;" x="47.72" xlink:href="#m49132032cd" y="301.703789"/>
      </g>
     </g>
     <g id="text_23">
      <!-- 0.5 -->
      <g transform="translate(24.816875 305.503008)scale(0.1 -0.1)">
       <use xlink:href="#DejaVuSans-48"/>
       <use x="63.623047" xlink:href="#DejaVuSans-46"/>
       <use x="95.410156" xlink:href="#DejaVuSans-53"/>
      </g>
     </g>
    </g>
    <g id="ytick_6">
     <g id="line2d_24">
      <g>
       <use style="stroke:#000000;stroke-width:0.8;" x="47.72" xlink:href="#m49132032cd" y="274.023857"/>
      </g>
     </g>
     <g id="text_24">
      <!-- 0.6 -->
      <g transform="translate(24.816875 277.823075)scale(0.1 -0.1)">
       <use xlink:href="#DejaVuSans-48"/>
       <use x="63.623047" xlink:href="#DejaVuSans-46"/>
       <use x="95.410156" xlink:href="#DejaVuSans-54"/>
      </g>
     </g>
    </g>
    <g id="ytick_7">
     <g id="line2d_25">
      <g>
       <use style="stroke:#000000;stroke-width:0.8;" x="47.72" xlink:href="#m49132032cd" y="246.343924"/>
      </g>
     </g>
     <g id="text_25">
      <!-- 0.7 -->
      <defs>
       <path d="M 8.203125 72.90625 
L 55.078125 72.90625 
L 55.078125 68.703125 
L 28.609375 0 
L 18.3125 0 
L 43.21875 64.59375 
L 8.203125 64.59375 
z
" id="DejaVuSans-55"/>
      </defs>
      <g transform="translate(24.816875 250.143143)scale(0.1 -0.1)">
       <use xlink:href="#DejaVuSans-48"/>
       <use x="63.623047" xlink:href="#DejaVuSans-46"/>
       <use x="95.410156" xlink:href="#DejaVuSans-55"/>
      </g>
     </g>
    </g>
    <g id="ytick_8">
     <g id="line2d_26">
      <g>
       <use style="stroke:#000000;stroke-width:0.8;" x="47.72" xlink:href="#m49132032cd" y="218.663992"/>
      </g>
     </g>
     <g id="text_26">
      <!-- 0.8 -->
      <g transform="translate(24.816875 222.463211)scale(0.1 -0.1)">
       <use xlink:href="#DejaVuSans-48"/>
       <use x="63.623047" xlink:href="#DejaVuSans-46"/>
       <use x="95.410156" xlink:href="#DejaVuSans-56"/>
      </g>
     </g>
    </g>
    <g id="text_27">
     <!-- accuracy -->
     <defs>
      <path d="M 8.5 21.578125 
L 8.5 54.6875 
L 17.484375 54.6875 
L 17.484375 21.921875 
Q 17.484375 14.15625 20.5 10.265625 
Q 23.53125 6.390625 29.59375 6.390625 
Q 36.859375 6.390625 41.078125 11.03125 
Q 45.3125 15.671875 45.3125 23.6875 
L 45.3125 54.6875 
L 54.296875 54.6875 
L 54.296875 0 
L 45.3125 0 
L 45.3125 8.40625 
Q 42.046875 3.421875 37.71875 1 
Q 33.40625 -1.421875 27.6875 -1.421875 
Q 18.265625 -1.421875 13.375 4.4375 
Q 8.5 10.296875 8.5 21.578125 
z
M 31.109375 56 
z
" id="DejaVuSans-117"/>
      <path d="M 32.171875 -5.078125 
Q 28.375 -14.84375 24.75 -17.8125 
Q 21.140625 -20.796875 15.09375 -20.796875 
L 7.90625 -20.796875 
L 7.90625 -13.28125 
L 13.1875 -13.28125 
Q 16.890625 -13.28125 18.9375 -11.515625 
Q 21 -9.765625 23.484375 -3.21875 
L 25.09375 0.875 
L 2.984375 54.6875 
L 12.5 54.6875 
L 29.59375 11.921875 
L 46.6875 54.6875 
L 56.203125 54.6875 
z
" id="DejaVuSans-121"/>
     </defs>
     <g transform="translate(18.737188 270.799375)rotate(-90)scale(0.1 -0.1)">
      <use xlink:href="#DejaVuSans-97"/>
      <use x="61.279297" xlink:href="#DejaVuSans-99"/>
      <use x="116.259766" xlink:href="#DejaVuSans-99"/>
      <use x="171.240234" xlink:href="#DejaVuSans-117"/>
      <use x="234.619141" xlink:href="#DejaVuSans-114"/>
      <use x="275.732422" xlink:href="#DejaVuSans-97"/>
      <use x="337.011719" xlink:href="#DejaVuSans-99"/>
      <use x="391.992188" xlink:href="#DejaVuSans-121"/>
     </g>
    </g>
   </g>
   <g id="line2d_27">
    <path clip-path="url(#pb9e0ae8cb8)" d="M 65.890909 298.603636 
L 66.619202 269.059922 
L 68.075788 237.633972 
L 68.804081 228.407329 
L 69.532374 222.908249 
L 70.260667 220.241749 
L 70.98896 218.950019 
L 72.445546 215.656107 
L 73.173839 214.078351 
L 74.630424 212.602088 
L 76.08701 211.568704 
L 76.815303 211.402624 
L 77.543596 209.880228 
L 78.271889 209.843321 
L 79.000182 210.009401 
L 79.728475 209.538842 
L 80.456768 209.215909 
L 81.913354 207.850366 
L 82.641647 207.53666 
L 83.36994 208.071806 
L 84.826526 207.767326 
L 85.554819 206.613996 
L 86.283112 206.595542 
L 87.011405 207.167594 
L 87.739698 207.029195 
L 88.467991 206.429463 
L 89.924576 206.374103 
L 90.652869 206.10653 
L 91.381162 205.414532 
L 92.109455 206.02349 
L 93.566041 205.645198 
L 94.294334 205.137733 
L 95.022627 205.617518 
L 95.75092 205.506799 
L 96.479213 205.073146 
L 97.207506 204.92552 
L 97.935799 205.156186 
L 98.664092 205.100826 
L 99.392385 204.750214 
L 100.120678 204.888613 
L 100.848971 204.611814 
L 101.577264 204.528775 
L 102.305557 204.657947 
L 103.762142 204.381148 
L 104.490435 204.076669 
L 105.218728 204.630267 
L 106.675314 204.399601 
L 107.403607 204.048989 
L 108.1319 203.855229 
L 108.860193 203.855229 
L 109.588486 204.122802 
L 110.316779 204.150482 
L 111.045072 203.46771 
L 111.773365 203.873682 
L 112.501658 203.809096 
L 113.229951 204.048989 
L 113.958244 203.652243 
L 114.686537 203.846003 
L 115.41483 203.421577 
L 116.143123 203.772189 
L 117.599709 203.320084 
L 118.328001 203.35699 
L 119.056294 202.877205 
L 119.784587 203.034058 
L 120.51288 203.375443 
L 121.241173 203.043284 
L 121.969466 203.080191 
L 122.697759 202.775712 
L 123.426052 203.283177 
L 124.154345 202.738805 
L 124.882638 202.877205 
L 125.610931 202.867978 
L 126.339224 202.443553 
L 127.067517 202.748032 
L 129.252396 203.052511 
L 129.980689 202.194433 
L 130.708982 202.831072 
L 131.437275 203.098644 
L 132.165567 202.305153 
L 132.89386 202.545046 
L 133.622153 202.268246 
L 134.350446 202.674219 
L 135.807032 202.757259 
L 136.535325 202.249793 
L 137.263618 202.526593 
L 137.991911 202.056034 
L 138.720204 201.908407 
L 139.448497 202.249793 
L 140.17679 202.111393 
L 140.905083 201.843821 
L 141.633376 202.480459 
L 142.361669 202.06526 
L 143.089962 202.222113 
L 143.818255 201.936087 
L 144.546548 202.09294 
L 145.274841 201.926861 
L 146.731426 201.880727 
L 147.459719 201.705421 
L 148.188012 202.12062 
L 148.916305 202.102166 
L 149.644598 201.686968 
L 150.372891 201.899181 
L 151.101184 201.733101 
L 153.286063 202.139073 
L 154.014356 201.465529 
L 154.742649 201.345582 
L 155.470942 201.788461 
L 156.199235 201.936088 
L 156.927528 201.576248 
L 157.655821 201.474755 
L 158.384114 201.659288 
L 159.112407 201.271769 
L 159.8407 201.696195 
L 160.568993 201.262542 
L 162.025578 201.308676 
L 162.753871 201.483982 
L 163.482164 201.244089 
L 164.210457 201.364035 
L 164.93875 201.650061 
L 165.667043 201.327129 
L 166.395336 201.373262 
L 167.123629 200.902703 
L 167.851922 201.428622 
L 168.580215 201.308675 
L 169.308508 200.727397 
L 170.036801 201.843821 
L 171.493387 200.91193 
L 172.22168 201.087236 
L 172.949973 201.567022 
L 173.678266 200.930383 
L 174.406559 200.736624 
L 175.134852 201.068783 
L 175.863144 200.902704 
L 177.31973 201.225636 
L 178.048023 200.847343 
L 179.504609 201.244089 
L 180.232902 200.93961 
L 180.961195 200.921156 
L 181.689488 201.133369 
L 182.417781 201.161049 
L 183.146074 201.041103 
L 183.874367 200.625904 
L 184.60266 200.60745 
L 185.330953 201.059556 
L 186.059246 200.755077 
L 186.787539 200.229158 
L 187.515832 200.570544 
L 188.244125 200.192251 
L 188.972418 200.810437 
L 190.429003 200.469051 
L 191.157296 200.505957 
L 191.885589 200.699717 
L 192.613882 200.598224 
L 193.342175 200.69049 
L 194.070468 200.902703 
L 194.798761 200.875023 
L 195.527054 200.552091 
L 196.255347 200.755077 
L 196.98364 200.782757 
L 197.711933 200.386011 
L 198.440226 200.570544 
L 199.168519 200.312198 
L 199.896812 200.293745 
L 200.625105 201.059556 
L 201.353398 200.210705 
L 202.081691 200.542864 
L 202.809984 200.542864 
L 203.538277 200.838117 
L 204.26657 200.201478 
L 206.451448 200.755077 
L 207.179741 200.284518 
L 207.908034 200.284518 
L 208.636327 200.782757 
L 209.36462 200.838117 
L 210.092913 200.395238 
L 210.821206 200.173798 
L 211.549499 200.478277 
L 212.277792 200.339878 
L 213.006085 200.561317 
L 213.734378 200.505958 
L 214.462671 200.164572 
L 215.190964 200.016945 
L 216.64755 200.081532 
L 217.375843 200.967289 
L 218.104136 200.339878 
L 218.832428 200.505957 
L 219.560721 200.210705 
L 223.930479 200.127665 
L 224.658772 200.358331 
L 225.387065 199.795506 
L 226.115358 199.786279 
L 226.843651 200.644357 
L 227.571944 200.136892 
L 228.300237 200.072306 
L 229.02853 200.404464 
L 229.756823 199.924679 
L 230.485116 199.758599 
L 231.213409 200.708944 
L 231.941702 200.053852 
L 232.669995 199.933906 
L 233.398287 199.933905 
L 234.12658 200.44137 
L 234.854873 200.053852 
L 236.311459 200.109212 
L 237.039752 199.730919 
L 237.768045 200.256838 
L 238.496338 199.998492 
L 239.224631 199.878546 
L 239.952924 200.099985 
L 240.681217 199.933906 
L 241.40951 200.376785 
L 242.137803 200.081532 
L 242.866096 200.081532 
L 243.594389 200.201478 
L 244.322682 199.666333 
L 245.050975 200.192252 
L 245.779268 200.072305 
L 246.507561 199.574066 
L 247.235854 199.915452 
L 247.964146 200.072305 
L 251.605611 199.601746 
L 252.333904 199.860093 
L 253.062197 199.684786 
L 253.79049 199.860093 
L 254.518783 199.527933 
L 255.247076 199.518706 
L 256.703662 199.860092 
L 257.431955 199.37108 
L 258.160248 199.998492 
L 258.888541 200.183025 
L 260.345127 199.444893 
L 261.07342 200.164572 
L 261.801713 199.804733 
L 263.258298 199.869319 
L 263.986591 199.666333 
L 264.714884 199.666332 
L 265.443177 199.989265 
L 266.17147 199.334173 
L 266.899763 199.666333 
L 267.628056 199.491027 
L 269.084642 199.841639 
L 269.812935 199.850866 
L 270.541228 199.53716 
L 271.997814 199.26036 
L 272.726107 199.555613 
L 273.4544 199.70324 
L 274.182693 199.37108 
L 274.910986 199.666333 
L 275.639279 200.136892 
L 276.367572 199.472573 
L 277.095864 199.011241 
L 277.824157 199.620199 
L 278.55245 199.647879 
L 279.280743 199.518707 
L 280.009036 198.909748 
L 280.737329 199.131187 
L 281.465622 199.740146 
L 282.193915 199.67556 
L 282.922208 199.168094 
L 283.650501 199.472573 
L 284.378794 199.251134 
L 285.107087 199.6202 
L 285.83538 199.50948 
L 286.563673 199.56484 
L 287.291966 198.965108 
L 288.020259 199.500253 
L 288.748552 199.31572 
L 290.205138 199.666333 
L 290.93343 199.075828 
L 291.661723 199.53716 
L 292.390016 199.6202 
L 293.118309 198.983561 
L 293.846602 199.094281 
L 294.574895 199.601746 
L 296.031481 199.657106 
L 296.759774 199.4818 
L 297.488067 198.918975 
L 298.21636 198.715989 
L 298.944653 199.334174 
L 299.672946 198.928201 
L 300.401239 199.158868 
L 301.129532 199.177321 
L 301.857825 199.59252 
L 302.586118 199.315721 
L 303.314411 199.472573 
L 304.042704 199.50948 
L 304.770997 199.177321 
L 305.499289 199.56484 
L 306.227582 199.500253 
L 306.955875 199.085054 
L 307.684168 199.31572 
L 308.412461 199.352627 
L 309.140754 199.186547 
L 309.869047 199.177321 
L 310.59734 199.407987 
L 311.325633 198.955881 
L 312.782219 199.306494 
L 313.510512 198.937428 
L 314.238805 199.832412 
L 315.695391 199.241907 
L 317.151977 198.854388 
L 317.88027 199.223454 
L 318.608563 199.39876 
L 320.065148 199.075828 
L 320.793441 199.103508 
L 322.250027 199.629426 
L 322.97832 198.780575 
L 323.706613 198.808255 
L 324.434906 199.67556 
L 325.163199 198.854388 
L 325.891492 199.31572 
L 327.348078 198.891295 
L 328.076371 199.527934 
L 328.804664 199.361853 
L 329.532957 198.706762 
L 330.989543 199.195774 
L 331.717836 199.177321 
L 332.446129 198.845162 
L 333.902715 198.725215 
L 334.631007 199.186547 
L 335.3593 199.177321 
L 336.087593 198.752895 
L 339.729058 198.799028 
L 340.457351 199.158867 
L 341.913937 198.909748 
L 342.64223 199.131188 
L 343.370523 199.223454 
L 344.098816 198.992788 
L 345.555402 198.909748 
L 346.283695 199.103508 
L 347.011988 198.789802 
L 348.468574 198.928201 
L 349.925159 199.112734 
L 350.653452 198.494549 
L 351.381745 198.955881 
L 352.110038 199.075828 
L 352.838331 198.762122 
L 353.566624 199.3434 
L 354.294917 198.725215 
L 355.02321 198.549909 
L 355.751503 198.983561 
L 356.479796 199.066601 
L 357.936382 198.734442 
L 358.664675 198.559136 
L 359.392968 198.835935 
L 360.121261 198.679082 
L 360.849554 198.955881 
L 361.577847 198.835935 
L 362.30614 198.882068 
L 363.034433 198.669856 
L 363.762725 199.324947 
L 364.491018 198.568362 
L 365.219311 198.845161 
L 365.947604 198.651402 
L 366.675897 198.882068 
L 368.132483 198.494549 
L 368.860776 198.965108 
L 369.589069 198.715989 
L 370.317362 198.688309 
L 372.502241 198.854388 
L 373.230534 198.918975 
L 373.958827 198.549909 
L 376.871999 198.955882 
L 377.600291 198.882068 
L 378.328584 199.085054 
L 379.056877 198.799028 
L 379.78517 198.356149 
L 380.513463 198.383829 
L 381.241756 198.614495 
L 381.970049 199.085054 
L 383.426635 198.116257 
L 384.883221 198.540683 
L 386.339807 198.365376 
L 387.0681 198.808255 
L 389.252979 198.623722 
L 389.981272 198.974334 
L 390.709565 198.577589 
L 391.437858 198.752895 
L 392.16615 198.365376 
L 392.894443 198.356149 
L 393.622736 198.872842 
L 394.351029 198.485322 
L 395.079322 198.983561 
L 395.807615 198.660629 
L 396.535908 198.476095 
L 397.264201 198.448416 
L 397.992494 198.845162 
L 398.720787 198.420736 
L 399.44908 198.789801 
L 400.177373 198.540682 
L 400.905666 198.715989 
L 401.633959 198.226976 
L 403.090545 198.743669 
L 403.818838 198.208523 
L 404.547131 198.10703 
L 405.275424 198.642175 
L 406.003717 198.734442 
L 406.732009 198.097803 
L 407.460302 198.365376 
L 408.916888 198.549909 
L 409.645181 198.503776 
L 410.373474 198.743668 
L 411.101767 198.07935 
L 411.83006 198.420736 
L 412.558353 198.282336 
L 413.286646 198.706762 
L 414.743232 198.346923 
L 416.199818 198.872841 
L 416.928111 198.208523 
L 418.384697 198.300789 
L 419.11299 198.005537 
L 419.841283 198.540682 
L 420.569576 197.876364 
L 421.297868 198.522229 
L 422.026161 198.319243 
L 422.754454 198.651402 
L 423.482747 198.208523 
L 424.21104 198.19007 
L 424.939333 198.439189 
L 425.667626 198.19007 
L 426.395919 198.337696 
L 427.124212 198.16239 
L 427.852505 198.974335 
L 428.580798 198.13471 
L 429.309091 198.393056 
L 429.309091 198.393056 
" style="fill:none;stroke:#0000ff;stroke-linecap:square;stroke-width:1.5;"/>
   </g>
   <g id="line2d_28">
    <path clip-path="url(#pb9e0ae8cb8)" d="M 65.890909 270.872602 
L 68.075788 229.075906 
L 68.804081 222.092046 
L 69.532374 218.898208 
L 70.260667 217.854887 
L 70.98896 215.470155 
L 71.717253 214.597172 
L 73.902132 212.659577 
L 74.630424 211.765302 
L 75.358717 211.509795 
L 77.543596 210.23226 
L 78.271889 209.955461 
L 79.728475 209.061185 
L 80.456768 208.784386 
L 81.185061 208.805678 
L 82.641647 207.78365 
L 83.36994 207.719774 
L 84.098233 207.357805 
L 84.826526 207.442974 
L 85.554819 207.187467 
L 86.283112 207.081006 
L 87.011405 206.676453 
L 87.739698 206.591284 
L 88.467991 206.250608 
L 89.196283 206.122854 
L 89.924576 206.229316 
L 90.652869 205.782179 
L 91.381162 205.88864 
L 92.109455 205.675717 
L 92.837748 205.697009 
L 93.566041 205.377626 
L 95.022627 205.441503 
L 95.75092 205.207288 
L 96.479213 205.207288 
L 98.664092 204.738858 
L 99.392385 204.909196 
L 100.848971 204.76015 
L 102.305557 204.802735 
L 103.03385 204.696274 
L 103.762142 204.398182 
L 105.218728 204.334305 
L 106.675314 204.206552 
L 107.403607 204.313013 
L 109.588486 203.823291 
L 112.501658 203.567784 
L 113.229951 203.90846 
L 114.686537 203.376154 
L 116.871416 203.354862 
L 118.328001 203.354862 
L 119.056294 203.397446 
L 119.784587 203.163232 
L 120.51288 203.163232 
L 121.241173 203.014186 
L 122.697759 203.05677 
L 124.154345 202.950309 
L 125.610931 202.907724 
L 126.339224 202.971601 
L 127.067517 202.630925 
L 127.79581 202.716094 
L 129.252396 202.39671 
L 130.708982 202.630925 
L 133.622153 202.39671 
L 134.350446 202.141203 
L 135.078739 202.545756 
L 135.807032 202.098619 
L 137.991911 202.183788 
L 138.720204 201.843112 
L 140.905083 202.162495 
L 141.633376 201.864404 
L 142.361669 201.800527 
L 143.089962 202.098619 
L 144.546548 201.800527 
L 146.003134 201.949573 
L 146.731426 201.73665 
L 147.459719 201.864404 
L 148.916305 201.630189 
L 151.101184 201.587605 
L 151.829477 201.54502 
L 152.55777 201.694066 
L 153.286063 201.587604 
L 154.014356 201.651481 
L 154.742649 201.481143 
L 155.470942 201.481143 
L 156.927528 201.268221 
L 160.568993 201.119175 
L 163.482164 201.183052 
L 164.93875 201.034006 
L 167.123629 201.055298 
L 168.580215 200.991422 
L 170.036801 200.927545 
L 172.22168 200.906252 
L 178.776316 200.735915 
L 179.504609 200.948837 
L 180.232902 200.714622 
L 183.146074 200.69333 
L 184.60266 200.629453 
L 186.059246 200.586869 
L 187.515832 200.608161 
L 188.972418 200.459115 
L 189.700711 200.586869 
L 190.429003 200.437823 
L 191.157296 200.544284 
L 191.885589 200.437823 
L 193.342175 200.480407 
L 195.527054 200.501699 
L 196.255347 200.373946 
L 199.896812 200.373946 
L 204.26657 200.267485 
L 204.994862 200.437823 
L 207.179741 200.331361 
L 214.462671 200.203608 
L 215.919257 200.182316 
L 218.104136 200.054562 
L 218.832428 200.161024 
L 219.560721 199.990685 
L 220.289014 200.161023 
L 223.202186 200.097147 
L 233.398287 199.990685 
L 234.854873 200.011978 
L 237.039752 199.948101 
L 237.768045 200.161023 
L 238.496338 199.799055 
L 245.050975 199.820347 
L 245.779268 199.926809 
L 246.507561 199.820347 
L 248.692439 199.884224 
L 249.420732 199.756471 
L 251.605611 199.84164 
L 254.518783 199.671301 
L 255.247076 199.777763 
L 255.975369 199.650009 
L 262.530005 199.56484 
L 263.986591 199.586132 
L 266.17147 199.628717 
L 266.899763 199.458379 
L 268.356349 199.522256 
L 270.541228 199.543548 
L 276.367572 199.479671 
L 277.824157 199.437087 
L 279.280743 199.37321 
L 280.009036 199.479671 
L 282.193915 199.415794 
L 283.650501 199.479671 
L 285.107087 199.458379 
L 290.93343 199.351917 
L 292.390016 199.415794 
L 294.574895 199.330625 
L 299.672946 199.458379 
L 301.129532 199.266748 
L 303.314411 199.288041 
L 306.227582 199.309333 
L 315.695391 199.202872 
L 317.88027 199.181579 
L 319.336856 199.266748 
L 320.793441 199.202872 
L 321.521734 199.330625 
L 323.706613 199.138995 
L 324.434906 199.202872 
L 326.619785 199.117703 
L 327.348078 199.202872 
L 328.076371 199.032534 
L 329.532957 199.09641 
L 330.989543 199.075118 
L 332.446129 199.053826 
L 336.087593 199.117703 
L 337.544179 198.989949 
L 339.729058 199.075118 
L 340.457351 198.968657 
L 342.64223 199.053826 
L 348.468574 198.90478 
L 349.196866 199.011241 
L 350.653452 198.947365 
L 371.773948 198.968657 
L 372.502241 198.819611 
L 373.958827 198.862196 
L 375.415413 198.862196 
L 377.600291 198.926072 
L 379.056877 198.862195 
L 382.698342 198.862196 
L 400.905666 198.798319 
L 402.362252 198.777027 
L 407.460302 198.691858 
L 408.188595 198.819611 
L 408.916888 198.691857 
L 410.373474 198.670565 
L 429.309091 198.670565 
L 429.309091 198.670565 
" style="fill:none;stroke:#ffa500;stroke-linecap:square;stroke-width:1.5;"/>
   </g>
   <g id="patch_9">
    <path d="M 47.72 303.64 
L 47.72 192.84 
" style="fill:none;stroke:#000000;stroke-linecap:square;stroke-linejoin:miter;stroke-width:0.8;"/>
   </g>
   <g id="patch_10">
    <path d="M 447.48 303.64 
L 447.48 192.84 
" style="fill:none;stroke:#000000;stroke-linecap:square;stroke-linejoin:miter;stroke-width:0.8;"/>
   </g>
   <g id="patch_11">
    <path d="M 47.72 303.64 
L 447.48 303.64 
" style="fill:none;stroke:#000000;stroke-linecap:square;stroke-linejoin:miter;stroke-width:0.8;"/>
   </g>
   <g id="patch_12">
    <path d="M 47.72 192.84 
L 447.48 192.84 
" style="fill:none;stroke:#000000;stroke-linecap:square;stroke-linejoin:miter;stroke-width:0.8;"/>
   </g>
   <g id="text_28">
    <!-- model accuracy -->
    <g transform="translate(199.938437 186.84)scale(0.12 -0.12)">
     <use xlink:href="#DejaVuSans-109"/>
     <use x="97.412109" xlink:href="#DejaVuSans-111"/>
     <use x="158.59375" xlink:href="#DejaVuSans-100"/>
     <use x="222.070312" xlink:href="#DejaVuSans-101"/>
     <use x="283.59375" xlink:href="#DejaVuSans-108"/>
     <use x="311.376953" xlink:href="#DejaVuSans-32"/>
     <use x="343.164062" xlink:href="#DejaVuSans-97"/>
     <use x="404.443359" xlink:href="#DejaVuSans-99"/>
     <use x="459.423828" xlink:href="#DejaVuSans-99"/>
     <use x="514.404297" xlink:href="#DejaVuSans-117"/>
     <use x="577.783203" xlink:href="#DejaVuSans-114"/>
     <use x="618.896484" xlink:href="#DejaVuSans-97"/>
     <use x="680.175781" xlink:href="#DejaVuSans-99"/>
     <use x="735.15625" xlink:href="#DejaVuSans-121"/>
    </g>
   </g>
   <g id="legend_2">
    <g id="patch_13">
     <path d="M 54.72 230.19625 
L 109.995 230.19625 
Q 111.995 230.19625 111.995 228.19625 
L 111.995 199.84 
Q 111.995 197.84 109.995 197.84 
L 54.72 197.84 
Q 52.72 197.84 52.72 199.84 
L 52.72 228.19625 
Q 52.72 230.19625 54.72 230.19625 
z
" style="fill:#ffffff;opacity:0.8;stroke:#cccccc;stroke-linejoin:miter;"/>
    </g>
    <g id="line2d_29">
     <path d="M 56.72 205.938437 
L 76.72 205.938437 
" style="fill:none;stroke:#0000ff;stroke-linecap:square;stroke-width:1.5;"/>
    </g>
    <g id="line2d_30"/>
    <g id="text_29">
     <!-- train -->
     <g transform="translate(84.72 209.438437)scale(0.1 -0.1)">
      <use xlink:href="#DejaVuSans-116"/>
      <use x="39.208984" xlink:href="#DejaVuSans-114"/>
      <use x="80.322266" xlink:href="#DejaVuSans-97"/>
      <use x="141.601562" xlink:href="#DejaVuSans-105"/>
      <use x="169.384766" xlink:href="#DejaVuSans-110"/>
     </g>
    </g>
    <g id="line2d_31">
     <path d="M 56.72 220.616562 
L 76.72 220.616562 
" style="fill:none;stroke:#ffa500;stroke-linecap:square;stroke-width:1.5;"/>
    </g>
    <g id="line2d_32"/>
    <g id="text_30">
     <!-- test -->
     <g transform="translate(84.72 224.116562)scale(0.1 -0.1)">
      <use xlink:href="#DejaVuSans-116"/>
      <use x="39.208984" xlink:href="#DejaVuSans-101"/>
      <use x="100.732422" xlink:href="#DejaVuSans-115"/>
      <use x="152.832031" xlink:href="#DejaVuSans-116"/>
     </g>
    </g>
   </g>
  </g>
 </g>
 <defs>
  <clipPath id="pb303fc4653">
   <rect height="110.8" width="399.76" x="47.72" y="25.44"/>
  </clipPath>
  <clipPath id="pb9e0ae8cb8">
   <rect height="110.8" width="399.76" x="47.72" y="192.84"/>
  </clipPath>
 </defs>
</svg>
