<?xml version="1.0" encoding="utf-8" standalone="no"?>
<!DOCTYPE svg PUBLIC "-//W3C//DTD SVG 1.1//EN"
  "http://www.w3.org/Graphics/SVG/1.1/DTD/svg11.dtd">
<!-- Created with matplotlib (https://matplotlib.org/) -->
<svg height="345.6pt" version="1.1" viewBox="0 0 460.8 345.6" width="460.8pt" xmlns="http://www.w3.org/2000/svg" xmlns:xlink="http://www.w3.org/1999/xlink">
 <defs>
  <style type="text/css">
*{stroke-linecap:butt;stroke-linejoin:round;}
  </style>
 </defs>
 <g id="figure_1">
  <g id="patch_1">
   <path d="M 0 345.6 
L 460.8 345.6 
L 460.8 0 
L 0 0 
z
" style="fill:#ffffff;"/>
  </g>
  <g id="axes_1">
   <g id="patch_2">
    <path d="M 47.72 136.24 
L 447.48 136.24 
L 447.48 25.44 
L 47.72 25.44 
z
" style="fill:#ffffff;"/>
   </g>
   <g id="matplotlib.axis_1">
    <g id="xtick_1">
     <g id="line2d_1">
      <defs>
       <path d="M 0 0 
L 0 3.5 
" id="m4b65e3c819" style="stroke:#000000;stroke-width:0.8;"/>
      </defs>
      <g>
       <use style="stroke:#000000;stroke-width:0.8;" x="65.890909" xlink:href="#m4b65e3c819" y="136.24"/>
      </g>
     </g>
     <g id="text_1">
      <!-- 0 -->
      <defs>
       <path d="M 31.78125 66.40625 
Q 24.171875 66.40625 20.328125 58.90625 
Q 16.5 51.421875 16.5 36.375 
Q 16.5 21.390625 20.328125 13.890625 
Q 24.171875 6.390625 31.78125 6.390625 
Q 39.453125 6.390625 43.28125 13.890625 
Q 47.125 21.390625 47.125 36.375 
Q 47.125 51.421875 43.28125 58.90625 
Q 39.453125 66.40625 31.78125 66.40625 
z
M 31.78125 74.21875 
Q 44.046875 74.21875 50.515625 64.515625 
Q 56.984375 54.828125 56.984375 36.375 
Q 56.984375 17.96875 50.515625 8.265625 
Q 44.046875 -1.421875 31.78125 -1.421875 
Q 19.53125 -1.421875 13.0625 8.265625 
Q 6.59375 17.96875 6.59375 36.375 
Q 6.59375 54.828125 13.0625 64.515625 
Q 19.53125 74.21875 31.78125 74.21875 
z
" id="DejaVuSans-48"/>
      </defs>
      <g transform="translate(62.709659 150.838437)scale(0.1 -0.1)">
       <use xlink:href="#DejaVuSans-48"/>
      </g>
     </g>
    </g>
    <g id="xtick_2">
     <g id="line2d_2">
      <g>
       <use style="stroke:#000000;stroke-width:0.8;" x="126.66318" xlink:href="#m4b65e3c819" y="136.24"/>
      </g>
     </g>
     <g id="text_2">
      <!-- 50 -->
      <defs>
       <path d="M 10.796875 72.90625 
L 49.515625 72.90625 
L 49.515625 64.59375 
L 19.828125 64.59375 
L 19.828125 46.734375 
Q 21.96875 47.46875 24.109375 47.828125 
Q 26.265625 48.1875 28.421875 48.1875 
Q 40.625 48.1875 47.75 41.5 
Q 54.890625 34.8125 54.890625 23.390625 
Q 54.890625 11.625 47.5625 5.09375 
Q 40.234375 -1.421875 26.90625 -1.421875 
Q 22.3125 -1.421875 17.546875 -0.640625 
Q 12.796875 0.140625 7.71875 1.703125 
L 7.71875 11.625 
Q 12.109375 9.234375 16.796875 8.0625 
Q 21.484375 6.890625 26.703125 6.890625 
Q 35.15625 6.890625 40.078125 11.328125 
Q 45.015625 15.765625 45.015625 23.390625 
Q 45.015625 31 40.078125 35.4375 
Q 35.15625 39.890625 26.703125 39.890625 
Q 22.75 39.890625 18.8125 39.015625 
Q 14.890625 38.140625 10.796875 36.28125 
z
" id="DejaVuSans-53"/>
      </defs>
      <g transform="translate(120.30068 150.838437)scale(0.1 -0.1)">
       <use xlink:href="#DejaVuSans-53"/>
       <use x="63.623047" xlink:href="#DejaVuSans-48"/>
      </g>
     </g>
    </g>
    <g id="xtick_3">
     <g id="line2d_3">
      <g>
       <use style="stroke:#000000;stroke-width:0.8;" x="187.435452" xlink:href="#m4b65e3c819" y="136.24"/>
      </g>
     </g>
     <g id="text_3">
      <!-- 100 -->
      <defs>
       <path d="M 12.40625 8.296875 
L 28.515625 8.296875 
L 28.515625 63.921875 
L 10.984375 60.40625 
L 10.984375 69.390625 
L 28.421875 72.90625 
L 38.28125 72.90625 
L 38.28125 8.296875 
L 54.390625 8.296875 
L 54.390625 0 
L 12.40625 0 
z
" id="DejaVuSans-49"/>
      </defs>
      <g transform="translate(177.891702 150.838437)scale(0.1 -0.1)">
       <use xlink:href="#DejaVuSans-49"/>
       <use x="63.623047" xlink:href="#DejaVuSans-48"/>
       <use x="127.246094" xlink:href="#DejaVuSans-48"/>
      </g>
     </g>
    </g>
    <g id="xtick_4">
     <g id="line2d_4">
      <g>
       <use style="stroke:#000000;stroke-width:0.8;" x="248.207723" xlink:href="#m4b65e3c819" y="136.24"/>
      </g>
     </g>
     <g id="text_4">
      <!-- 150 -->
      <g transform="translate(238.663973 150.838437)scale(0.1 -0.1)">
       <use xlink:href="#DejaVuSans-49"/>
       <use x="63.623047" xlink:href="#DejaVuSans-53"/>
       <use x="127.246094" xlink:href="#DejaVuSans-48"/>
      </g>
     </g>
    </g>
    <g id="xtick_5">
     <g id="line2d_5">
      <g>
       <use style="stroke:#000000;stroke-width:0.8;" x="308.979994" xlink:href="#m4b65e3c819" y="136.24"/>
      </g>
     </g>
     <g id="text_5">
      <!-- 200 -->
      <defs>
       <path d="M 19.1875 8.296875 
L 53.609375 8.296875 
L 53.609375 0 
L 7.328125 0 
L 7.328125 8.296875 
Q 12.9375 14.109375 22.625 23.890625 
Q 32.328125 33.6875 34.8125 36.53125 
Q 39.546875 41.84375 41.421875 45.53125 
Q 43.3125 49.21875 43.3125 52.78125 
Q 43.3125 58.59375 39.234375 62.25 
Q 35.15625 65.921875 28.609375 65.921875 
Q 23.96875 65.921875 18.8125 64.3125 
Q 13.671875 62.703125 7.8125 59.421875 
L 7.8125 69.390625 
Q 13.765625 71.78125 18.9375 73 
Q 24.125 74.21875 28.421875 74.21875 
Q 39.75 74.21875 46.484375 68.546875 
Q 53.21875 62.890625 53.21875 53.421875 
Q 53.21875 48.921875 51.53125 44.890625 
Q 49.859375 40.875 45.40625 35.40625 
Q 44.1875 33.984375 37.640625 27.21875 
Q 31.109375 20.453125 19.1875 8.296875 
z
" id="DejaVuSans-50"/>
      </defs>
      <g transform="translate(299.436244 150.838437)scale(0.1 -0.1)">
       <use xlink:href="#DejaVuSans-50"/>
       <use x="63.623047" xlink:href="#DejaVuSans-48"/>
       <use x="127.246094" xlink:href="#DejaVuSans-48"/>
      </g>
     </g>
    </g>
    <g id="xtick_6">
     <g id="line2d_6">
      <g>
       <use style="stroke:#000000;stroke-width:0.8;" x="369.752265" xlink:href="#m4b65e3c819" y="136.24"/>
      </g>
     </g>
     <g id="text_6">
      <!-- 250 -->
      <g transform="translate(360.208515 150.838437)scale(0.1 -0.1)">
       <use xlink:href="#DejaVuSans-50"/>
       <use x="63.623047" xlink:href="#DejaVuSans-53"/>
       <use x="127.246094" xlink:href="#DejaVuSans-48"/>
      </g>
     </g>
    </g>
    <g id="xtick_7">
     <g id="line2d_7">
      <g>
       <use style="stroke:#000000;stroke-width:0.8;" x="430.524536" xlink:href="#m4b65e3c819" y="136.24"/>
      </g>
     </g>
     <g id="text_7">
      <!-- 300 -->
      <defs>
       <path d="M 40.578125 39.3125 
Q 47.65625 37.796875 51.625 33 
Q 55.609375 28.21875 55.609375 21.1875 
Q 55.609375 10.40625 48.1875 4.484375 
Q 40.765625 -1.421875 27.09375 -1.421875 
Q 22.515625 -1.421875 17.65625 -0.515625 
Q 12.796875 0.390625 7.625 2.203125 
L 7.625 11.71875 
Q 11.71875 9.328125 16.59375 8.109375 
Q 21.484375 6.890625 26.8125 6.890625 
Q 36.078125 6.890625 40.9375 10.546875 
Q 45.796875 14.203125 45.796875 21.1875 
Q 45.796875 27.640625 41.28125 31.265625 
Q 36.765625 34.90625 28.71875 34.90625 
L 20.21875 34.90625 
L 20.21875 43.015625 
L 29.109375 43.015625 
Q 36.375 43.015625 40.234375 45.921875 
Q 44.09375 48.828125 44.09375 54.296875 
Q 44.09375 59.90625 40.109375 62.90625 
Q 36.140625 65.921875 28.71875 65.921875 
Q 24.65625 65.921875 20.015625 65.03125 
Q 15.375 64.15625 9.8125 62.3125 
L 9.8125 71.09375 
Q 15.4375 72.65625 20.34375 73.4375 
Q 25.25 74.21875 29.59375 74.21875 
Q 40.828125 74.21875 47.359375 69.109375 
Q 53.90625 64.015625 53.90625 55.328125 
Q 53.90625 49.265625 50.4375 45.09375 
Q 46.96875 40.921875 40.578125 39.3125 
z
" id="DejaVuSans-51"/>
      </defs>
      <g transform="translate(420.980786 150.838437)scale(0.1 -0.1)">
       <use xlink:href="#DejaVuSans-51"/>
       <use x="63.623047" xlink:href="#DejaVuSans-48"/>
       <use x="127.246094" xlink:href="#DejaVuSans-48"/>
      </g>
     </g>
    </g>
    <g id="text_8">
     <!-- epoch -->
     <defs>
      <path d="M 56.203125 29.59375 
L 56.203125 25.203125 
L 14.890625 25.203125 
Q 15.484375 15.921875 20.484375 11.0625 
Q 25.484375 6.203125 34.421875 6.203125 
Q 39.59375 6.203125 44.453125 7.46875 
Q 49.3125 8.734375 54.109375 11.28125 
L 54.109375 2.78125 
Q 49.265625 0.734375 44.1875 -0.34375 
Q 39.109375 -1.421875 33.890625 -1.421875 
Q 20.796875 -1.421875 13.15625 6.1875 
Q 5.515625 13.8125 5.515625 26.8125 
Q 5.515625 40.234375 12.765625 48.109375 
Q 20.015625 56 32.328125 56 
Q 43.359375 56 49.78125 48.890625 
Q 56.203125 41.796875 56.203125 29.59375 
z
M 47.21875 32.234375 
Q 47.125 39.59375 43.09375 43.984375 
Q 39.0625 48.390625 32.421875 48.390625 
Q 24.90625 48.390625 20.390625 44.140625 
Q 15.875 39.890625 15.1875 32.171875 
z
" id="DejaVuSans-101"/>
      <path d="M 18.109375 8.203125 
L 18.109375 -20.796875 
L 9.078125 -20.796875 
L 9.078125 54.6875 
L 18.109375 54.6875 
L 18.109375 46.390625 
Q 20.953125 51.265625 25.265625 53.625 
Q 29.59375 56 35.59375 56 
Q 45.5625 56 51.78125 48.09375 
Q 58.015625 40.1875 58.015625 27.296875 
Q 58.015625 14.40625 51.78125 6.484375 
Q 45.5625 -1.421875 35.59375 -1.421875 
Q 29.59375 -1.421875 25.265625 0.953125 
Q 20.953125 3.328125 18.109375 8.203125 
z
M 48.6875 27.296875 
Q 48.6875 37.203125 44.609375 42.84375 
Q 40.53125 48.484375 33.40625 48.484375 
Q 26.265625 48.484375 22.1875 42.84375 
Q 18.109375 37.203125 18.109375 27.296875 
Q 18.109375 17.390625 22.1875 11.75 
Q 26.265625 6.109375 33.40625 6.109375 
Q 40.53125 6.109375 44.609375 11.75 
Q 48.6875 17.390625 48.6875 27.296875 
z
" id="DejaVuSans-112"/>
      <path d="M 30.609375 48.390625 
Q 23.390625 48.390625 19.1875 42.75 
Q 14.984375 37.109375 14.984375 27.296875 
Q 14.984375 17.484375 19.15625 11.84375 
Q 23.34375 6.203125 30.609375 6.203125 
Q 37.796875 6.203125 41.984375 11.859375 
Q 46.1875 17.53125 46.1875 27.296875 
Q 46.1875 37.015625 41.984375 42.703125 
Q 37.796875 48.390625 30.609375 48.390625 
z
M 30.609375 56 
Q 42.328125 56 49.015625 48.375 
Q 55.71875 40.765625 55.71875 27.296875 
Q 55.71875 13.875 49.015625 6.21875 
Q 42.328125 -1.421875 30.609375 -1.421875 
Q 18.84375 -1.421875 12.171875 6.21875 
Q 5.515625 13.875 5.515625 27.296875 
Q 5.515625 40.765625 12.171875 48.375 
Q 18.84375 56 30.609375 56 
z
" id="DejaVuSans-111"/>
      <path d="M 48.78125 52.59375 
L 48.78125 44.1875 
Q 44.96875 46.296875 41.140625 47.34375 
Q 37.3125 48.390625 33.40625 48.390625 
Q 24.65625 48.390625 19.8125 42.84375 
Q 14.984375 37.3125 14.984375 27.296875 
Q 14.984375 17.28125 19.8125 11.734375 
Q 24.65625 6.203125 33.40625 6.203125 
Q 37.3125 6.203125 41.140625 7.25 
Q 44.96875 8.296875 48.78125 10.40625 
L 48.78125 2.09375 
Q 45.015625 0.34375 40.984375 -0.53125 
Q 36.96875 -1.421875 32.421875 -1.421875 
Q 20.0625 -1.421875 12.78125 6.34375 
Q 5.515625 14.109375 5.515625 27.296875 
Q 5.515625 40.671875 12.859375 48.328125 
Q 20.21875 56 33.015625 56 
Q 37.15625 56 41.109375 55.140625 
Q 45.0625 54.296875 48.78125 52.59375 
z
" id="DejaVuSans-99"/>
      <path d="M 54.890625 33.015625 
L 54.890625 0 
L 45.90625 0 
L 45.90625 32.71875 
Q 45.90625 40.484375 42.875 44.328125 
Q 39.84375 48.1875 33.796875 48.1875 
Q 26.515625 48.1875 22.3125 43.546875 
Q 18.109375 38.921875 18.109375 30.90625 
L 18.109375 0 
L 9.078125 0 
L 9.078125 75.984375 
L 18.109375 75.984375 
L 18.109375 46.1875 
Q 21.34375 51.125 25.703125 53.5625 
Q 30.078125 56 35.796875 56 
Q 45.21875 56 50.046875 50.171875 
Q 54.890625 44.34375 54.890625 33.015625 
z
" id="DejaVuSans-104"/>
     </defs>
     <g transform="translate(232.371875 164.516562)scale(0.1 -0.1)">
      <use xlink:href="#DejaVuSans-101"/>
      <use x="61.523438" xlink:href="#DejaVuSans-112"/>
      <use x="125" xlink:href="#DejaVuSans-111"/>
      <use x="186.181641" xlink:href="#DejaVuSans-99"/>
      <use x="241.162109" xlink:href="#DejaVuSans-104"/>
     </g>
    </g>
   </g>
   <g id="matplotlib.axis_2">
    <g id="ytick_1">
     <g id="line2d_8">
      <defs>
       <path d="M 0 0 
L -3.5 0 
" id="m2b89a0074f" style="stroke:#000000;stroke-width:0.8;"/>
      </defs>
      <g>
       <use style="stroke:#000000;stroke-width:0.8;" x="47.72" xlink:href="#m2b89a0074f" y="130.86029"/>
      </g>
     </g>
     <g id="text_9">
      <!-- 0.4 -->
      <defs>
       <path d="M 10.6875 12.40625 
L 21 12.40625 
L 21 0 
L 10.6875 0 
z
" id="DejaVuSans-46"/>
       <path d="M 37.796875 64.3125 
L 12.890625 25.390625 
L 37.796875 25.390625 
z
M 35.203125 72.90625 
L 47.609375 72.90625 
L 47.609375 25.390625 
L 58.015625 25.390625 
L 58.015625 17.1875 
L 47.609375 17.1875 
L 47.609375 0 
L 37.796875 0 
L 37.796875 17.1875 
L 4.890625 17.1875 
L 4.890625 26.703125 
z
" id="DejaVuSans-52"/>
      </defs>
      <g transform="translate(24.816875 134.659509)scale(0.1 -0.1)">
       <use xlink:href="#DejaVuSans-48"/>
       <use x="63.623047" xlink:href="#DejaVuSans-46"/>
       <use x="95.410156" xlink:href="#DejaVuSans-52"/>
      </g>
     </g>
    </g>
    <g id="ytick_2">
     <g id="line2d_9">
      <g>
       <use style="stroke:#000000;stroke-width:0.8;" x="47.72" xlink:href="#m2b89a0074f" y="98.975166"/>
      </g>
     </g>
     <g id="text_10">
      <!-- 0.6 -->
      <defs>
       <path d="M 33.015625 40.375 
Q 26.375 40.375 22.484375 35.828125 
Q 18.609375 31.296875 18.609375 23.390625 
Q 18.609375 15.53125 22.484375 10.953125 
Q 26.375 6.390625 33.015625 6.390625 
Q 39.65625 6.390625 43.53125 10.953125 
Q 47.40625 15.53125 47.40625 23.390625 
Q 47.40625 31.296875 43.53125 35.828125 
Q 39.65625 40.375 33.015625 40.375 
z
M 52.59375 71.296875 
L 52.59375 62.3125 
Q 48.875 64.0625 45.09375 64.984375 
Q 41.3125 65.921875 37.59375 65.921875 
Q 27.828125 65.921875 22.671875 59.328125 
Q 17.53125 52.734375 16.796875 39.40625 
Q 19.671875 43.65625 24.015625 45.921875 
Q 28.375 48.1875 33.59375 48.1875 
Q 44.578125 48.1875 50.953125 41.515625 
Q 57.328125 34.859375 57.328125 23.390625 
Q 57.328125 12.15625 50.6875 5.359375 
Q 44.046875 -1.421875 33.015625 -1.421875 
Q 20.359375 -1.421875 13.671875 8.265625 
Q 6.984375 17.96875 6.984375 36.375 
Q 6.984375 53.65625 15.1875 63.9375 
Q 23.390625 74.21875 37.203125 74.21875 
Q 40.921875 74.21875 44.703125 73.484375 
Q 48.484375 72.75 52.59375 71.296875 
z
" id="DejaVuSans-54"/>
      </defs>
      <g transform="translate(24.816875 102.774385)scale(0.1 -0.1)">
       <use xlink:href="#DejaVuSans-48"/>
       <use x="63.623047" xlink:href="#DejaVuSans-46"/>
       <use x="95.410156" xlink:href="#DejaVuSans-54"/>
      </g>
     </g>
    </g>
    <g id="ytick_3">
     <g id="line2d_10">
      <g>
       <use style="stroke:#000000;stroke-width:0.8;" x="47.72" xlink:href="#m2b89a0074f" y="67.090043"/>
      </g>
     </g>
     <g id="text_11">
      <!-- 0.8 -->
      <defs>
       <path d="M 31.78125 34.625 
Q 24.75 34.625 20.71875 30.859375 
Q 16.703125 27.09375 16.703125 20.515625 
Q 16.703125 13.921875 20.71875 10.15625 
Q 24.75 6.390625 31.78125 6.390625 
Q 38.8125 6.390625 42.859375 10.171875 
Q 46.921875 13.96875 46.921875 20.515625 
Q 46.921875 27.09375 42.890625 30.859375 
Q 38.875 34.625 31.78125 34.625 
z
M 21.921875 38.8125 
Q 15.578125 40.375 12.03125 44.71875 
Q 8.5 49.078125 8.5 55.328125 
Q 8.5 64.0625 14.71875 69.140625 
Q 20.953125 74.21875 31.78125 74.21875 
Q 42.671875 74.21875 48.875 69.140625 
Q 55.078125 64.0625 55.078125 55.328125 
Q 55.078125 49.078125 51.53125 44.71875 
Q 48 40.375 41.703125 38.8125 
Q 48.828125 37.15625 52.796875 32.3125 
Q 56.78125 27.484375 56.78125 20.515625 
Q 56.78125 9.90625 50.3125 4.234375 
Q 43.84375 -1.421875 31.78125 -1.421875 
Q 19.734375 -1.421875 13.25 4.234375 
Q 6.78125 9.90625 6.78125 20.515625 
Q 6.78125 27.484375 10.78125 32.3125 
Q 14.796875 37.15625 21.921875 38.8125 
z
M 18.3125 54.390625 
Q 18.3125 48.734375 21.84375 45.5625 
Q 25.390625 42.390625 31.78125 42.390625 
Q 38.140625 42.390625 41.71875 45.5625 
Q 45.3125 48.734375 45.3125 54.390625 
Q 45.3125 60.0625 41.71875 63.234375 
Q 38.140625 66.40625 31.78125 66.40625 
Q 25.390625 66.40625 21.84375 63.234375 
Q 18.3125 60.0625 18.3125 54.390625 
z
" id="DejaVuSans-56"/>
      </defs>
      <g transform="translate(24.816875 70.889261)scale(0.1 -0.1)">
       <use xlink:href="#DejaVuSans-48"/>
       <use x="63.623047" xlink:href="#DejaVuSans-46"/>
       <use x="95.410156" xlink:href="#DejaVuSans-56"/>
      </g>
     </g>
    </g>
    <g id="ytick_4">
     <g id="line2d_11">
      <g>
       <use style="stroke:#000000;stroke-width:0.8;" x="47.72" xlink:href="#m2b89a0074f" y="35.204919"/>
      </g>
     </g>
     <g id="text_12">
      <!-- 1.0 -->
      <g transform="translate(24.816875 39.004138)scale(0.1 -0.1)">
       <use xlink:href="#DejaVuSans-49"/>
       <use x="63.623047" xlink:href="#DejaVuSans-46"/>
       <use x="95.410156" xlink:href="#DejaVuSans-48"/>
      </g>
     </g>
    </g>
    <g id="text_13">
     <!-- loss -->
     <defs>
      <path d="M 9.421875 75.984375 
L 18.40625 75.984375 
L 18.40625 0 
L 9.421875 0 
z
" id="DejaVuSans-108"/>
      <path d="M 44.28125 53.078125 
L 44.28125 44.578125 
Q 40.484375 46.53125 36.375 47.5 
Q 32.28125 48.484375 27.875 48.484375 
Q 21.1875 48.484375 17.84375 46.4375 
Q 14.5 44.390625 14.5 40.28125 
Q 14.5 37.15625 16.890625 35.375 
Q 19.28125 33.59375 26.515625 31.984375 
L 29.59375 31.296875 
Q 39.15625 29.25 43.1875 25.515625 
Q 47.21875 21.78125 47.21875 15.09375 
Q 47.21875 7.46875 41.1875 3.015625 
Q 35.15625 -1.421875 24.609375 -1.421875 
Q 20.21875 -1.421875 15.453125 -0.5625 
Q 10.6875 0.296875 5.421875 2 
L 5.421875 11.28125 
Q 10.40625 8.6875 15.234375 7.390625 
Q 20.0625 6.109375 24.8125 6.109375 
Q 31.15625 6.109375 34.5625 8.28125 
Q 37.984375 10.453125 37.984375 14.40625 
Q 37.984375 18.0625 35.515625 20.015625 
Q 33.0625 21.96875 24.703125 23.78125 
L 21.578125 24.515625 
Q 13.234375 26.265625 9.515625 29.90625 
Q 5.8125 33.546875 5.8125 39.890625 
Q 5.8125 47.609375 11.28125 51.796875 
Q 16.75 56 26.8125 56 
Q 31.78125 56 36.171875 55.265625 
Q 40.578125 54.546875 44.28125 53.078125 
z
" id="DejaVuSans-115"/>
     </defs>
     <g transform="translate(18.737188 90.497812)rotate(-90)scale(0.1 -0.1)">
      <use xlink:href="#DejaVuSans-108"/>
      <use x="27.783203" xlink:href="#DejaVuSans-111"/>
      <use x="88.964844" xlink:href="#DejaVuSans-115"/>
      <use x="141.064453" xlink:href="#DejaVuSans-115"/>
     </g>
    </g>
   </g>
   <g id="line2d_12">
    <path clip-path="url(#p0e389ba852)" d="M 65.890909 30.476364 
L 67.106355 46.342149 
L 68.3218 57.781267 
L 69.537245 66.862685 
L 70.752691 72.801859 
L 71.968136 74.372119 
L 73.183582 76.774035 
L 74.399027 82.294658 
L 75.614472 83.168562 
L 76.829918 83.533261 
L 78.045363 82.109232 
L 79.260809 84.437682 
L 80.476254 85.647052 
L 81.6917 88.256662 
L 82.907145 91.663055 
L 84.12259 92.32933 
L 85.338036 91.936572 
L 86.553481 93.624752 
L 87.768927 91.841017 
L 88.984372 93.610224 
L 90.199818 95.882032 
L 91.415263 95.567118 
L 92.630708 95.648976 
L 93.846154 96.574444 
L 95.061599 97.181711 
L 96.277045 98.802597 
L 97.49249 98.791795 
L 98.707936 97.408336 
L 99.923381 99.535754 
L 101.138826 101.246749 
L 102.354272 100.347451 
L 103.569717 101.45671 
L 104.785163 101.153967 
L 106.000608 102.732275 
L 107.216054 103.781686 
L 108.431499 105.510868 
L 109.646944 104.608334 
L 110.86239 105.619814 
L 112.077835 103.5732 
L 113.293281 105.6129 
L 115.724171 108.773822 
L 116.939617 106.368762 
L 118.155062 106.150429 
L 119.370508 108.453625 
L 120.585953 108.987863 
L 121.801399 108.503109 
L 123.016844 109.897277 
L 124.232289 110.556273 
L 126.66318 111.230637 
L 127.878626 112.104138 
L 129.094071 111.55777 
L 130.309517 111.599541 
L 131.524962 112.483209 
L 132.740407 113.029241 
L 133.955853 112.285281 
L 135.171298 112.044125 
L 136.386744 114.067552 
L 137.602189 113.036701 
L 138.817635 113.656454 
L 140.03308 112.956268 
L 141.248525 113.680813 
L 142.463971 113.851298 
L 143.679416 115.144726 
L 144.894862 114.423679 
L 146.110307 114.627248 
L 148.541198 114.551824 
L 149.756643 114.902205 
L 150.972089 114.702678 
L 152.187534 115.391768 
L 154.618425 115.402769 
L 155.83387 115.01357 
L 157.049316 115.819327 
L 159.480207 115.331865 
L 160.695652 114.770984 
L 161.911098 115.819434 
L 163.126543 114.732271 
L 164.341988 116.686656 
L 165.557434 116.262914 
L 166.772879 116.219377 
L 167.988325 115.368637 
L 169.20377 115.230666 
L 170.419216 116.708533 
L 171.634661 115.856119 
L 172.850106 115.885087 
L 174.065552 117.037304 
L 175.280997 116.939148 
L 176.496443 117.9136 
L 177.711888 115.897866 
L 178.927334 116.7276 
L 180.142779 116.983524 
L 181.358224 118.046131 
L 182.57367 117.772915 
L 183.789115 118.378742 
L 185.004561 118.506608 
L 187.435452 118.056487 
L 188.650897 117.134628 
L 189.866342 117.690703 
L 191.081788 118.747271 
L 192.297233 118.06804 
L 193.512679 117.050526 
L 194.728124 119.196544 
L 197.159015 117.872175 
L 199.589906 117.70714 
L 200.805351 118.338262 
L 202.020797 117.842785 
L 203.236242 118.181459 
L 204.451687 117.366841 
L 205.667133 118.660397 
L 206.882578 118.156138 
L 208.098024 119.346494 
L 209.313469 119.848512 
L 210.528915 119.260024 
L 211.74436 120.059459 
L 212.959805 120.473596 
L 214.175251 120.607105 
L 215.390696 120.131795 
L 216.606142 120.350388 
L 219.037033 121.395563 
L 220.252478 120.030493 
L 221.467923 119.171755 
L 222.683369 120.541055 
L 223.898814 119.692375 
L 225.11426 121.270742 
L 226.329705 120.030341 
L 227.545151 120.642013 
L 228.760596 119.574588 
L 229.976041 121.012126 
L 231.191487 121.27721 
L 233.622378 120.314227 
L 234.837823 120.471205 
L 236.053268 121.334226 
L 237.268714 121.301644 
L 238.484159 122.187929 
L 239.699605 120.885402 
L 240.91505 120.233393 
L 242.130496 121.899905 
L 243.345941 121.951174 
L 245.776832 121.304312 
L 246.992277 121.235122 
L 248.207723 122.24709 
L 249.423168 120.453525 
L 250.638614 121.911223 
L 253.069504 122.363038 
L 254.28495 121.219043 
L 255.500395 122.057722 
L 256.715841 122.495106 
L 257.931286 122.728949 
L 259.146732 123.494047 
L 260.362177 123.077683 
L 261.577622 122.051484 
L 262.793068 123.088933 
L 264.008513 123.513057 
L 265.223959 123.098766 
L 266.439404 124.005313 
L 267.654849 123.778618 
L 268.870295 123.699813 
L 270.08574 123.894654 
L 271.301186 123.17234 
L 272.516631 123.675344 
L 273.732077 123.817101 
L 274.947522 123.741036 
L 276.162967 123.281669 
L 277.378413 124.060732 
L 278.593858 123.953806 
L 279.809304 123.966819 
L 281.024749 125.436846 
L 282.240195 124.65861 
L 283.45564 124.971327 
L 284.671085 124.683616 
L 285.886531 125.570625 
L 287.101976 124.745186 
L 288.317422 124.415167 
L 291.963758 124.579823 
L 293.179203 125.037507 
L 294.394649 125.146663 
L 295.610094 125.956279 
L 296.82554 125.15603 
L 299.256431 124.563486 
L 301.687321 125.854805 
L 302.902767 125.552783 
L 304.118212 126.344712 
L 305.333658 126.880828 
L 306.549103 125.510716 
L 307.764548 126.738196 
L 308.979994 126.945017 
L 310.195439 125.383 
L 311.410885 126.093596 
L 312.62633 124.948168 
L 313.841776 126.851416 
L 315.057221 125.991129 
L 316.272666 124.570833 
L 317.488112 125.924281 
L 318.703557 127.900965 
L 319.919003 125.526074 
L 321.134448 127.337477 
L 322.349894 126.674464 
L 323.565339 126.258556 
L 324.780784 126.959293 
L 325.99623 126.76473 
L 327.211675 125.773666 
L 328.427121 124.560479 
L 329.642566 127.784765 
L 330.858012 127.106141 
L 332.073457 125.376579 
L 333.288902 126.834637 
L 334.504348 127.042038 
L 335.719793 127.856801 
L 336.935239 127.660184 
L 338.150684 126.967847 
L 339.36613 127.874696 
L 340.581575 127.34174 
L 341.79702 127.096496 
L 343.012466 126.405514 
L 344.227911 126.703733 
L 345.443357 127.799863 
L 346.658802 126.145183 
L 347.874247 126.829311 
L 349.089693 127.225107 
L 350.305138 126.788679 
L 351.520584 127.514654 
L 352.736029 128.059333 
L 357.597811 125.670873 
L 358.813256 127.881309 
L 360.028702 126.13191 
L 361.244147 125.657061 
L 362.459593 127.626396 
L 363.675038 127.862553 
L 367.321374 127.745293 
L 368.53682 128.887073 
L 369.752265 128.57715 
L 370.967711 127.936048 
L 372.183156 128.442458 
L 373.398601 128.373021 
L 374.614047 129.014757 
L 375.829492 128.210667 
L 377.044938 128.271019 
L 378.260383 129.840165 
L 379.475829 130.440413 
L 380.691274 128.311383 
L 381.906719 128.83786 
L 383.122165 127.641817 
L 384.33761 127.742274 
L 385.553056 128.55632 
L 386.768501 129.607437 
L 387.983946 129.420116 
L 389.199392 129.539345 
L 390.414837 129.246672 
L 391.630283 128.321081 
L 392.845728 128.188184 
L 394.061174 127.194616 
L 395.276619 128.839033 
L 396.492064 129.290345 
L 397.70751 129.169741 
L 398.922955 129.944766 
L 400.138401 130.544595 
L 401.353846 130.327478 
L 402.569292 130.253269 
L 403.784737 129.641385 
L 405.000182 128.486734 
L 406.215628 128.381458 
L 407.431073 128.699639 
L 408.646519 130.220342 
L 409.861964 128.046662 
L 411.07741 126.424145 
L 412.292855 129.745718 
L 413.5083 129.533121 
L 414.723746 129.041872 
L 415.939191 129.612733 
L 417.154637 129.301333 
L 418.370082 129.564982 
L 419.585528 128.891849 
L 422.016418 128.735549 
L 423.231864 130.154017 
L 425.662755 129.711529 
L 426.8782 131.203636 
L 428.093645 130.33827 
L 429.309091 130.377766 
L 429.309091 130.377766 
" style="fill:none;stroke:#0000ff;stroke-linecap:square;stroke-width:1.5;"/>
   </g>
   <g id="line2d_13">
    <path clip-path="url(#p0e389ba852)" d="M 65.890909 36.256596 
L 67.106355 48.955747 
L 68.3218 59.026963 
L 69.537245 66.613909 
L 70.752691 71.485541 
L 71.968136 68.609419 
L 73.183582 75.950608 
L 74.399027 76.572537 
L 75.614472 78.726781 
L 76.829918 78.868596 
L 78.045363 71.477498 
L 79.260809 79.370967 
L 80.476254 85.562929 
L 81.6917 85.447289 
L 82.907145 80.602235 
L 84.12259 89.490957 
L 85.338036 90.596507 
L 86.553481 85.778284 
L 87.768927 89.840804 
L 88.984372 90.26929 
L 91.415263 88.774156 
L 92.630708 90.974948 
L 93.846154 94.496823 
L 95.061599 94.022542 
L 96.277045 98.176525 
L 97.49249 97.148965 
L 98.707936 94.219831 
L 99.923381 97.574438 
L 101.138826 94.433584 
L 102.354272 99.366614 
L 103.569717 100.095432 
L 104.785163 101.906444 
L 106.000608 104.277239 
L 107.216054 104.04345 
L 108.431499 101.138837 
L 109.646944 101.715342 
L 110.86239 105.964198 
L 112.077835 104.834729 
L 113.293281 104.293191 
L 114.508726 104.226113 
L 115.724171 105.701235 
L 116.939617 105.271797 
L 118.155062 107.024003 
L 119.370508 104.866083 
L 120.585953 109.315947 
L 121.801399 107.34785 
L 123.016844 109.299189 
L 124.232289 110.479256 
L 125.447735 109.046485 
L 126.66318 109.335189 
L 127.878626 110.714369 
L 129.094071 106.056778 
L 130.309517 105.682959 
L 131.524962 112.460085 
L 132.740407 105.154563 
L 133.955853 111.222574 
L 135.171298 111.119454 
L 136.386744 112.304904 
L 137.602189 111.07103 
L 138.817635 110.144627 
L 140.03308 112.568741 
L 141.248525 107.445161 
L 142.463971 112.895605 
L 143.679416 112.932068 
L 144.894862 102.920835 
L 146.110307 109.370978 
L 147.325753 112.086787 
L 148.541198 110.831437 
L 149.756643 111.121958 
L 150.972089 109.938202 
L 152.187534 111.546693 
L 153.40298 113.713028 
L 154.618425 111.436432 
L 155.83387 113.195216 
L 157.049316 112.428968 
L 158.264761 112.026839 
L 159.480207 106.671741 
L 160.695652 108.85438 
L 161.911098 112.319182 
L 163.126543 107.43133 
L 164.341988 112.344036 
L 165.557434 111.163127 
L 166.772879 111.230667 
L 167.988325 112.022783 
L 169.20377 112.142534 
L 170.419216 111.070622 
L 171.634661 110.69731 
L 172.850106 112.680928 
L 174.065552 110.420193 
L 175.280997 112.848975 
L 176.496443 113.123761 
L 177.711888 110.639842 
L 178.927334 112.209184 
L 180.142779 112.400127 
L 181.358224 111.987083 
L 182.57367 110.654628 
L 183.789115 112.969551 
L 185.004561 112.382042 
L 186.220006 108.389765 
L 187.435452 109.136491 
L 188.650897 109.155872 
L 189.866342 111.834184 
L 191.081788 113.760775 
L 192.297233 111.952845 
L 193.512679 111.490877 
L 194.728124 109.423748 
L 195.943569 113.830871 
L 197.159015 114.466085 
L 198.37446 102.837186 
L 199.589906 111.210667 
L 200.805351 106.812669 
L 202.020797 112.560488 
L 203.236242 111.033602 
L 204.451687 113.773975 
L 205.667133 111.65677 
L 206.882578 114.535038 
L 208.098024 113.469288 
L 209.313469 113.413218 
L 210.528915 108.922058 
L 211.74436 112.057236 
L 212.959805 113.494316 
L 214.175251 111.618641 
L 215.390696 110.582671 
L 216.606142 112.024877 
L 217.821587 112.54549 
L 219.037033 110.696054 
L 220.252478 110.44005 
L 221.467923 111.920855 
L 222.683369 105.47925 
L 223.898814 111.01175 
L 225.11426 113.961491 
L 226.329705 114.495564 
L 227.545151 113.963953 
L 228.760596 113.21489 
L 229.976041 111.650097 
L 231.191487 113.979203 
L 232.406932 114.448895 
L 233.622378 112.234399 
L 234.837823 112.41258 
L 236.053268 114.780611 
L 237.268714 113.041464 
L 238.484159 107.330485 
L 239.699605 111.671509 
L 240.91505 112.174641 
L 242.130496 107.03274 
L 243.345941 107.665238 
L 244.561386 113.942883 
L 245.776832 111.188211 
L 246.992277 110.357018 
L 248.207723 113.417712 
L 249.423168 112.207254 
L 250.638614 110.347065 
L 251.854059 113.148344 
L 253.069504 112.635755 
L 254.28495 110.541452 
L 255.500395 113.497838 
L 256.715841 114.246194 
L 257.931286 110.137627 
L 259.146732 113.816784 
L 260.362177 115.133334 
L 261.577622 114.395406 
L 262.793068 114.960945 
L 264.008513 111.27562 
L 265.223959 112.485024 
L 266.439404 110.899336 
L 267.654849 115.095643 
L 268.870295 113.805613 
L 270.08574 115.425 
L 271.301186 113.908314 
L 272.516631 114.453975 
L 273.732077 115.183863 
L 274.947522 114.777918 
L 276.162967 116.976449 
L 277.378413 114.559721 
L 278.593858 114.839152 
L 279.809304 107.427555 
L 281.024749 114.715767 
L 282.240195 114.459838 
L 283.45564 113.245387 
L 284.671085 115.511218 
L 285.886531 111.818692 
L 287.101976 113.234208 
L 288.317422 112.367885 
L 289.532867 114.901242 
L 290.748313 111.889528 
L 291.963758 115.568854 
L 293.179203 113.690159 
L 294.394649 115.36164 
L 295.610094 110.852554 
L 296.82554 114.024516 
L 298.040985 114.000977 
L 299.256431 114.490927 
L 300.471876 116.924614 
L 301.687321 113.902364 
L 302.902767 114.389736 
L 304.118212 111.175313 
L 306.549103 114.50671 
L 307.764548 112.407602 
L 308.979994 111.287449 
L 310.195439 112.420418 
L 311.410885 114.586054 
L 312.62633 113.350924 
L 313.841776 113.271952 
L 315.057221 107.872719 
L 316.272666 113.520433 
L 317.488112 115.630063 
L 318.703557 114.882978 
L 319.919003 116.110885 
L 321.134448 116.792347 
L 322.349894 114.932866 
L 323.565339 116.89502 
L 325.99623 116.7257 
L 327.211675 113.521802 
L 328.427121 115.168634 
L 329.642566 109.045757 
L 330.858012 114.650254 
L 332.073457 113.68918 
L 333.288902 113.60865 
L 334.504348 115.385422 
L 335.719793 107.11343 
L 336.935239 113.840858 
L 338.150684 112.551396 
L 339.36613 115.558285 
L 340.581575 110.924675 
L 341.79702 117.205643 
L 343.012466 115.817089 
L 344.227911 112.858302 
L 345.443357 113.699903 
L 346.658802 111.935461 
L 347.874247 107.54103 
L 350.305138 114.952553 
L 351.520584 115.08633 
L 352.736029 116.443652 
L 353.951475 112.352072 
L 355.16692 114.785714 
L 356.382365 114.457937 
L 357.597811 113.149838 
L 358.813256 105.715531 
L 360.028702 112.635511 
L 361.244147 116.949668 
L 362.459593 115.312876 
L 363.675038 115.797595 
L 364.890483 114.878831 
L 366.105929 115.140339 
L 367.321374 115.658805 
L 368.53682 116.944636 
L 369.752265 114.976598 
L 370.967711 115.973229 
L 372.183156 115.689731 
L 373.398601 116.493891 
L 374.614047 115.74807 
L 375.829492 117.312825 
L 377.044938 115.456619 
L 378.260383 115.192612 
L 379.475829 111.077574 
L 380.691274 113.409394 
L 381.906719 116.977116 
L 383.122165 113.654908 
L 384.33761 114.416626 
L 385.553056 116.981358 
L 386.768501 116.629079 
L 387.983946 113.831129 
L 389.199392 112.870995 
L 390.414837 116.328588 
L 391.630283 115.256159 
L 392.845728 116.317401 
L 394.061174 118.175084 
L 395.276619 115.471309 
L 396.492064 116.602031 
L 397.70751 118.280197 
L 398.922955 116.385722 
L 400.138401 116.142233 
L 401.353846 118.546103 
L 402.569292 118.600641 
L 403.784737 117.690312 
L 405.000182 116.113142 
L 406.215628 117.201805 
L 407.431073 114.629589 
L 408.646519 117.512109 
L 409.861964 88.09286 
L 411.07741 115.422287 
L 413.5083 119.153221 
L 414.723746 115.125746 
L 415.939191 116.154614 
L 417.154637 116.493561 
L 418.370082 117.799425 
L 419.585528 116.7191 
L 420.800973 110.562151 
L 423.231864 117.681337 
L 424.447309 113.227309 
L 425.662755 115.177441 
L 426.8782 115.261834 
L 428.093645 117.333125 
L 429.309091 112.851857 
L 429.309091 112.851857 
" style="fill:none;stroke:#ffa500;stroke-linecap:square;stroke-width:1.5;"/>
   </g>
   <g id="patch_3">
    <path d="M 47.72 136.24 
L 47.72 25.44 
" style="fill:none;stroke:#000000;stroke-linecap:square;stroke-linejoin:miter;stroke-width:0.8;"/>
   </g>
   <g id="patch_4">
    <path d="M 447.48 136.24 
L 447.48 25.44 
" style="fill:none;stroke:#000000;stroke-linecap:square;stroke-linejoin:miter;stroke-width:0.8;"/>
   </g>
   <g id="patch_5">
    <path d="M 47.72 136.24 
L 447.48 136.24 
" style="fill:none;stroke:#000000;stroke-linecap:square;stroke-linejoin:miter;stroke-width:0.8;"/>
   </g>
   <g id="patch_6">
    <path d="M 47.72 25.44 
L 447.48 25.44 
" style="fill:none;stroke:#000000;stroke-linecap:square;stroke-linejoin:miter;stroke-width:0.8;"/>
   </g>
   <g id="text_14">
    <!-- model loss -->
    <defs>
     <path d="M 52 44.1875 
Q 55.375 50.25 60.0625 53.125 
Q 64.75 56 71.09375 56 
Q 79.640625 56 84.28125 50.015625 
Q 88.921875 44.046875 88.921875 33.015625 
L 88.921875 0 
L 79.890625 0 
L 79.890625 32.71875 
Q 79.890625 40.578125 77.09375 44.375 
Q 74.3125 48.1875 68.609375 48.1875 
Q 61.625 48.1875 57.5625 43.546875 
Q 53.515625 38.921875 53.515625 30.90625 
L 53.515625 0 
L 44.484375 0 
L 44.484375 32.71875 
Q 44.484375 40.625 41.703125 44.40625 
Q 38.921875 48.1875 33.109375 48.1875 
Q 26.21875 48.1875 22.15625 43.53125 
Q 18.109375 38.875 18.109375 30.90625 
L 18.109375 0 
L 9.078125 0 
L 9.078125 54.6875 
L 18.109375 54.6875 
L 18.109375 46.1875 
Q 21.1875 51.21875 25.484375 53.609375 
Q 29.78125 56 35.6875 56 
Q 41.65625 56 45.828125 52.96875 
Q 50 49.953125 52 44.1875 
z
" id="DejaVuSans-109"/>
     <path d="M 45.40625 46.390625 
L 45.40625 75.984375 
L 54.390625 75.984375 
L 54.390625 0 
L 45.40625 0 
L 45.40625 8.203125 
Q 42.578125 3.328125 38.25 0.953125 
Q 33.9375 -1.421875 27.875 -1.421875 
Q 17.96875 -1.421875 11.734375 6.484375 
Q 5.515625 14.40625 5.515625 27.296875 
Q 5.515625 40.1875 11.734375 48.09375 
Q 17.96875 56 27.875 56 
Q 33.9375 56 38.25 53.625 
Q 42.578125 51.265625 45.40625 46.390625 
z
M 14.796875 27.296875 
Q 14.796875 17.390625 18.875 11.75 
Q 22.953125 6.109375 30.078125 6.109375 
Q 37.203125 6.109375 41.296875 11.75 
Q 45.40625 17.390625 45.40625 27.296875 
Q 45.40625 37.203125 41.296875 42.84375 
Q 37.203125 48.484375 30.078125 48.484375 
Q 22.953125 48.484375 18.875 42.84375 
Q 14.796875 37.203125 14.796875 27.296875 
z
" id="DejaVuSans-100"/>
     <path id="DejaVuSans-32"/>
    </defs>
    <g transform="translate(215.420312 19.44)scale(0.12 -0.12)">
     <use xlink:href="#DejaVuSans-109"/>
     <use x="97.412109" xlink:href="#DejaVuSans-111"/>
     <use x="158.59375" xlink:href="#DejaVuSans-100"/>
     <use x="222.070312" xlink:href="#DejaVuSans-101"/>
     <use x="283.59375" xlink:href="#DejaVuSans-108"/>
     <use x="311.376953" xlink:href="#DejaVuSans-32"/>
     <use x="343.164062" xlink:href="#DejaVuSans-108"/>
     <use x="370.947266" xlink:href="#DejaVuSans-111"/>
     <use x="432.128906" xlink:href="#DejaVuSans-115"/>
     <use x="484.228516" xlink:href="#DejaVuSans-115"/>
    </g>
   </g>
   <g id="legend_1">
    <g id="patch_7">
     <path d="M 54.72 62.79625 
L 109.995 62.79625 
Q 111.995 62.79625 111.995 60.79625 
L 111.995 32.44 
Q 111.995 30.44 109.995 30.44 
L 54.72 30.44 
Q 52.72 30.44 52.72 32.44 
L 52.72 60.79625 
Q 52.72 62.79625 54.72 62.79625 
z
" style="fill:#ffffff;opacity:0.8;stroke:#cccccc;stroke-linejoin:miter;"/>
    </g>
    <g id="line2d_14">
     <path d="M 56.72 38.538437 
L 76.72 38.538437 
" style="fill:none;stroke:#0000ff;stroke-linecap:square;stroke-width:1.5;"/>
    </g>
    <g id="line2d_15"/>
    <g id="text_15">
     <!-- train -->
     <defs>
      <path d="M 18.3125 70.21875 
L 18.3125 54.6875 
L 36.8125 54.6875 
L 36.8125 47.703125 
L 18.3125 47.703125 
L 18.3125 18.015625 
Q 18.3125 11.328125 20.140625 9.421875 
Q 21.96875 7.515625 27.59375 7.515625 
L 36.8125 7.515625 
L 36.8125 0 
L 27.59375 0 
Q 17.1875 0 13.234375 3.875 
Q 9.28125 7.765625 9.28125 18.015625 
L 9.28125 47.703125 
L 2.6875 47.703125 
L 2.6875 54.6875 
L 9.28125 54.6875 
L 9.28125 70.21875 
z
" id="DejaVuSans-116"/>
      <path d="M 41.109375 46.296875 
Q 39.59375 47.171875 37.8125 47.578125 
Q 36.03125 48 33.890625 48 
Q 26.265625 48 22.1875 43.046875 
Q 18.109375 38.09375 18.109375 28.8125 
L 18.109375 0 
L 9.078125 0 
L 9.078125 54.6875 
L 18.109375 54.6875 
L 18.109375 46.1875 
Q 20.953125 51.171875 25.484375 53.578125 
Q 30.03125 56 36.53125 56 
Q 37.453125 56 38.578125 55.875 
Q 39.703125 55.765625 41.0625 55.515625 
z
" id="DejaVuSans-114"/>
      <path d="M 34.28125 27.484375 
Q 23.390625 27.484375 19.1875 25 
Q 14.984375 22.515625 14.984375 16.5 
Q 14.984375 11.71875 18.140625 8.90625 
Q 21.296875 6.109375 26.703125 6.109375 
Q 34.1875 6.109375 38.703125 11.40625 
Q 43.21875 16.703125 43.21875 25.484375 
L 43.21875 27.484375 
z
M 52.203125 31.203125 
L 52.203125 0 
L 43.21875 0 
L 43.21875 8.296875 
Q 40.140625 3.328125 35.546875 0.953125 
Q 30.953125 -1.421875 24.3125 -1.421875 
Q 15.921875 -1.421875 10.953125 3.296875 
Q 6 8.015625 6 15.921875 
Q 6 25.140625 12.171875 29.828125 
Q 18.359375 34.515625 30.609375 34.515625 
L 43.21875 34.515625 
L 43.21875 35.40625 
Q 43.21875 41.609375 39.140625 45 
Q 35.0625 48.390625 27.6875 48.390625 
Q 23 48.390625 18.546875 47.265625 
Q 14.109375 46.140625 10.015625 43.890625 
L 10.015625 52.203125 
Q 14.9375 54.109375 19.578125 55.046875 
Q 24.21875 56 28.609375 56 
Q 40.484375 56 46.34375 49.84375 
Q 52.203125 43.703125 52.203125 31.203125 
z
" id="DejaVuSans-97"/>
      <path d="M 9.421875 54.6875 
L 18.40625 54.6875 
L 18.40625 0 
L 9.421875 0 
z
M 9.421875 75.984375 
L 18.40625 75.984375 
L 18.40625 64.59375 
L 9.421875 64.59375 
z
" id="DejaVuSans-105"/>
      <path d="M 54.890625 33.015625 
L 54.890625 0 
L 45.90625 0 
L 45.90625 32.71875 
Q 45.90625 40.484375 42.875 44.328125 
Q 39.84375 48.1875 33.796875 48.1875 
Q 26.515625 48.1875 22.3125 43.546875 
Q 18.109375 38.921875 18.109375 30.90625 
L 18.109375 0 
L 9.078125 0 
L 9.078125 54.6875 
L 18.109375 54.6875 
L 18.109375 46.1875 
Q 21.34375 51.125 25.703125 53.5625 
Q 30.078125 56 35.796875 56 
Q 45.21875 56 50.046875 50.171875 
Q 54.890625 44.34375 54.890625 33.015625 
z
" id="DejaVuSans-110"/>
     </defs>
     <g transform="translate(84.72 42.038437)scale(0.1 -0.1)">
      <use xlink:href="#DejaVuSans-116"/>
      <use x="39.208984" xlink:href="#DejaVuSans-114"/>
      <use x="80.322266" xlink:href="#DejaVuSans-97"/>
      <use x="141.601562" xlink:href="#DejaVuSans-105"/>
      <use x="169.384766" xlink:href="#DejaVuSans-110"/>
     </g>
    </g>
    <g id="line2d_16">
     <path d="M 56.72 53.216563 
L 76.72 53.216563 
" style="fill:none;stroke:#ffa500;stroke-linecap:square;stroke-width:1.5;"/>
    </g>
    <g id="line2d_17"/>
    <g id="text_16">
     <!-- test -->
     <g transform="translate(84.72 56.716563)scale(0.1 -0.1)">
      <use xlink:href="#DejaVuSans-116"/>
      <use x="39.208984" xlink:href="#DejaVuSans-101"/>
      <use x="100.732422" xlink:href="#DejaVuSans-115"/>
      <use x="152.832031" xlink:href="#DejaVuSans-116"/>
     </g>
    </g>
   </g>
  </g>
  <g id="axes_2">
   <g id="patch_8">
    <path d="M 47.72 303.64 
L 447.48 303.64 
L 447.48 192.84 
L 47.72 192.84 
z
" style="fill:#ffffff;"/>
   </g>
   <g id="matplotlib.axis_3">
    <g id="xtick_8">
     <g id="line2d_18">
      <g>
       <use style="stroke:#000000;stroke-width:0.8;" x="65.890909" xlink:href="#m4b65e3c819" y="303.64"/>
      </g>
     </g>
     <g id="text_17">
      <!-- 0 -->
      <g transform="translate(62.709659 318.238437)scale(0.1 -0.1)">
       <use xlink:href="#DejaVuSans-48"/>
      </g>
     </g>
    </g>
    <g id="xtick_9">
     <g id="line2d_19">
      <g>
       <use style="stroke:#000000;stroke-width:0.8;" x="126.66318" xlink:href="#m4b65e3c819" y="303.64"/>
      </g>
     </g>
     <g id="text_18">
      <!-- 50 -->
      <g transform="translate(120.30068 318.238437)scale(0.1 -0.1)">
       <use xlink:href="#DejaVuSans-53"/>
       <use x="63.623047" xlink:href="#DejaVuSans-48"/>
      </g>
     </g>
    </g>
    <g id="xtick_10">
     <g id="line2d_20">
      <g>
       <use style="stroke:#000000;stroke-width:0.8;" x="187.435452" xlink:href="#m4b65e3c819" y="303.64"/>
      </g>
     </g>
     <g id="text_19">
      <!-- 100 -->
      <g transform="translate(177.891702 318.238437)scale(0.1 -0.1)">
       <use xlink:href="#DejaVuSans-49"/>
       <use x="63.623047" xlink:href="#DejaVuSans-48"/>
       <use x="127.246094" xlink:href="#DejaVuSans-48"/>
      </g>
     </g>
    </g>
    <g id="xtick_11">
     <g id="line2d_21">
      <g>
       <use style="stroke:#000000;stroke-width:0.8;" x="248.207723" xlink:href="#m4b65e3c819" y="303.64"/>
      </g>
     </g>
     <g id="text_20">
      <!-- 150 -->
      <g transform="translate(238.663973 318.238437)scale(0.1 -0.1)">
       <use xlink:href="#DejaVuSans-49"/>
       <use x="63.623047" xlink:href="#DejaVuSans-53"/>
       <use x="127.246094" xlink:href="#DejaVuSans-48"/>
      </g>
     </g>
    </g>
    <g id="xtick_12">
     <g id="line2d_22">
      <g>
       <use style="stroke:#000000;stroke-width:0.8;" x="308.979994" xlink:href="#m4b65e3c819" y="303.64"/>
      </g>
     </g>
     <g id="text_21">
      <!-- 200 -->
      <g transform="translate(299.436244 318.238437)scale(0.1 -0.1)">
       <use xlink:href="#DejaVuSans-50"/>
       <use x="63.623047" xlink:href="#DejaVuSans-48"/>
       <use x="127.246094" xlink:href="#DejaVuSans-48"/>
      </g>
     </g>
    </g>
    <g id="xtick_13">
     <g id="line2d_23">
      <g>
       <use style="stroke:#000000;stroke-width:0.8;" x="369.752265" xlink:href="#m4b65e3c819" y="303.64"/>
      </g>
     </g>
     <g id="text_22">
      <!-- 250 -->
      <g transform="translate(360.208515 318.238437)scale(0.1 -0.1)">
       <use xlink:href="#DejaVuSans-50"/>
       <use x="63.623047" xlink:href="#DejaVuSans-53"/>
       <use x="127.246094" xlink:href="#DejaVuSans-48"/>
      </g>
     </g>
    </g>
    <g id="xtick_14">
     <g id="line2d_24">
      <g>
       <use style="stroke:#000000;stroke-width:0.8;" x="430.524536" xlink:href="#m4b65e3c819" y="303.64"/>
      </g>
     </g>
     <g id="text_23">
      <!-- 300 -->
      <g transform="translate(420.980786 318.238437)scale(0.1 -0.1)">
       <use xlink:href="#DejaVuSans-51"/>
       <use x="63.623047" xlink:href="#DejaVuSans-48"/>
       <use x="127.246094" xlink:href="#DejaVuSans-48"/>
      </g>
     </g>
    </g>
    <g id="text_24">
     <!-- epoch -->
     <g transform="translate(232.371875 331.916562)scale(0.1 -0.1)">
      <use xlink:href="#DejaVuSans-101"/>
      <use x="61.523438" xlink:href="#DejaVuSans-112"/>
      <use x="125" xlink:href="#DejaVuSans-111"/>
      <use x="186.181641" xlink:href="#DejaVuSans-99"/>
      <use x="241.162109" xlink:href="#DejaVuSans-104"/>
     </g>
    </g>
   </g>
   <g id="matplotlib.axis_4">
    <g id="ytick_5">
     <g id="line2d_25">
      <g>
       <use style="stroke:#000000;stroke-width:0.8;" x="47.72" xlink:href="#m2b89a0074f" y="293.064212"/>
      </g>
     </g>
     <g id="text_25">
      <!-- 0.5 -->
      <g transform="translate(24.816875 296.86343)scale(0.1 -0.1)">
       <use xlink:href="#DejaVuSans-48"/>
       <use x="63.623047" xlink:href="#DejaVuSans-46"/>
       <use x="95.410156" xlink:href="#DejaVuSans-53"/>
      </g>
     </g>
    </g>
    <g id="ytick_6">
     <g id="line2d_26">
      <g>
       <use style="stroke:#000000;stroke-width:0.8;" x="47.72" xlink:href="#m2b89a0074f" y="266.517447"/>
      </g>
     </g>
     <g id="text_26">
      <!-- 0.6 -->
      <g transform="translate(24.816875 270.316666)scale(0.1 -0.1)">
       <use xlink:href="#DejaVuSans-48"/>
       <use x="63.623047" xlink:href="#DejaVuSans-46"/>
       <use x="95.410156" xlink:href="#DejaVuSans-54"/>
      </g>
     </g>
    </g>
    <g id="ytick_7">
     <g id="line2d_27">
      <g>
       <use style="stroke:#000000;stroke-width:0.8;" x="47.72" xlink:href="#m2b89a0074f" y="239.970683"/>
      </g>
     </g>
     <g id="text_27">
      <!-- 0.7 -->
      <defs>
       <path d="M 8.203125 72.90625 
L 55.078125 72.90625 
L 55.078125 68.703125 
L 28.609375 0 
L 18.3125 0 
L 43.21875 64.59375 
L 8.203125 64.59375 
z
" id="DejaVuSans-55"/>
      </defs>
      <g transform="translate(24.816875 243.769901)scale(0.1 -0.1)">
       <use xlink:href="#DejaVuSans-48"/>
       <use x="63.623047" xlink:href="#DejaVuSans-46"/>
       <use x="95.410156" xlink:href="#DejaVuSans-55"/>
      </g>
     </g>
    </g>
    <g id="ytick_8">
     <g id="line2d_28">
      <g>
       <use style="stroke:#000000;stroke-width:0.8;" x="47.72" xlink:href="#m2b89a0074f" y="213.423918"/>
      </g>
     </g>
     <g id="text_28">
      <!-- 0.8 -->
      <g transform="translate(24.816875 217.223137)scale(0.1 -0.1)">
       <use xlink:href="#DejaVuSans-48"/>
       <use x="63.623047" xlink:href="#DejaVuSans-46"/>
       <use x="95.410156" xlink:href="#DejaVuSans-56"/>
      </g>
     </g>
    </g>
    <g id="text_29">
     <!-- accuracy -->
     <defs>
      <path d="M 8.5 21.578125 
L 8.5 54.6875 
L 17.484375 54.6875 
L 17.484375 21.921875 
Q 17.484375 14.15625 20.5 10.265625 
Q 23.53125 6.390625 29.59375 6.390625 
Q 36.859375 6.390625 41.078125 11.03125 
Q 45.3125 15.671875 45.3125 23.6875 
L 45.3125 54.6875 
L 54.296875 54.6875 
L 54.296875 0 
L 45.3125 0 
L 45.3125 8.40625 
Q 42.046875 3.421875 37.71875 1 
Q 33.40625 -1.421875 27.6875 -1.421875 
Q 18.265625 -1.421875 13.375 4.4375 
Q 8.5 10.296875 8.5 21.578125 
z
M 31.109375 56 
z
" id="DejaVuSans-117"/>
      <path d="M 32.171875 -5.078125 
Q 28.375 -14.84375 24.75 -17.8125 
Q 21.140625 -20.796875 15.09375 -20.796875 
L 7.90625 -20.796875 
L 7.90625 -13.28125 
L 13.1875 -13.28125 
Q 16.890625 -13.28125 18.9375 -11.515625 
Q 21 -9.765625 23.484375 -3.21875 
L 25.09375 0.875 
L 2.984375 54.6875 
L 12.5 54.6875 
L 29.59375 11.921875 
L 46.6875 54.6875 
L 56.203125 54.6875 
z
" id="DejaVuSans-121"/>
     </defs>
     <g transform="translate(18.737188 270.799375)rotate(-90)scale(0.1 -0.1)">
      <use xlink:href="#DejaVuSans-97"/>
      <use x="61.279297" xlink:href="#DejaVuSans-99"/>
      <use x="116.259766" xlink:href="#DejaVuSans-99"/>
      <use x="171.240234" xlink:href="#DejaVuSans-117"/>
      <use x="234.619141" xlink:href="#DejaVuSans-114"/>
      <use x="275.732422" xlink:href="#DejaVuSans-97"/>
      <use x="337.011719" xlink:href="#DejaVuSans-99"/>
      <use x="391.992188" xlink:href="#DejaVuSans-121"/>
     </g>
    </g>
   </g>
   <g id="line2d_29">
    <path clip-path="url(#p6bc98a118b)" d="M 65.890909 298.603636 
L 67.106355 273.747016 
L 69.537245 253.978525 
L 70.752691 248.854999 
L 71.968136 247.970107 
L 73.183582 245.598596 
L 74.399027 240.625503 
L 75.614472 240.475071 
L 76.829918 240.457373 
L 78.045363 241.298021 
L 79.260809 239.023848 
L 80.476254 237.900035 
L 82.907145 232.484495 
L 84.12259 230.732409 
L 85.338036 231.573056 
L 86.553481 230.086437 
L 87.768927 231.351833 
L 88.984372 229.785574 
L 90.199818 227.617589 
L 91.415263 228.245862 
L 93.846154 226.900826 
L 95.061599 226.635358 
L 96.277045 224.423128 
L 97.49249 223.918739 
L 98.707936 225.600034 
L 99.923381 223.874495 
L 101.138826 222.76838 
L 102.354272 222.423271 
L 103.569717 221.078236 
L 104.785163 222.069315 
L 107.216054 219.396941 
L 108.431499 217.441329 
L 109.646944 218.458954 
L 110.86239 217.892624 
L 112.077835 219.149171 
L 113.293281 217.264351 
L 114.508726 216.476796 
L 115.724171 215.060969 
L 116.939617 216.972336 
L 118.155062 217.175862 
L 119.370508 215.848523 
L 120.585953 215.786581 
L 121.801399 215.352984 
L 123.016844 215.131761 
L 124.232289 213.521257 
L 125.447735 214.034494 
L 126.66318 213.777876 
L 127.878626 212.362048 
L 129.094071 213.202696 
L 130.309517 213.406221 
L 131.524962 212.255861 
L 132.740407 212.176221 
L 133.955853 212.609818 
L 135.171298 213.264638 
L 136.386744 211.866509 
L 137.602189 212.335501 
L 138.817635 211.724926 
L 140.03308 212.043487 
L 141.248525 211.370969 
L 142.463971 211.486005 
L 143.679416 210.353343 
L 144.894862 211.070106 
L 146.110307 210.7073 
L 147.325753 210.689602 
L 148.541198 211.167444 
L 149.756643 210.21176 
L 150.972089 210.388739 
L 152.187534 209.96399 
L 153.40298 210.079027 
L 154.618425 210.079027 
L 155.83387 210.592264 
L 157.049316 209.539242 
L 158.264761 210.247156 
L 159.480207 210.114422 
L 160.695652 210.875429 
L 161.911098 209.318019 
L 163.126543 210.388739 
L 164.341988 209.344566 
L 165.557434 209.955141 
L 166.772879 209.424206 
L 167.988325 210.264854 
L 169.20377 210.512624 
L 170.419216 209.55694 
L 171.634661 209.539242 
L 172.850106 209.999386 
L 174.065552 209.105645 
L 175.280997 209.264926 
L 176.496443 207.760609 
L 177.711888 209.955141 
L 178.927334 209.415357 
L 180.142779 208.74284 
L 181.358224 208.203055 
L 182.57367 208.40658 
L 183.789115 208.167659 
L 185.004561 207.787156 
L 186.220006 208.185357 
L 187.435452 208.132264 
L 188.650897 209.273774 
L 189.866342 208.344638 
L 191.081788 207.778307 
L 192.297233 208.371185 
L 193.512679 209.141041 
L 194.728124 207.433199 
L 195.943569 207.397804 
L 197.159015 208.2473 
L 198.37446 207.521688 
L 199.589906 207.760609 
L 202.020797 208.415429 
L 203.236242 207.796005 
L 204.451687 207.769458 
L 205.667133 207.150033 
L 206.882578 208.114566 
L 208.098024 206.681041 
L 209.313469 206.734134 
L 210.528915 207.123487 
L 211.74436 206.681041 
L 212.959805 206.893415 
L 214.175251 206.229746 
L 215.390696 206.344782 
L 216.606142 206.291688 
L 217.821587 205.893487 
L 219.037033 205.884638 
L 221.467923 207.557084 
L 222.683369 206.362479 
L 223.898814 206.990753 
L 225.11426 205.804997 
L 226.329705 206.875717 
L 227.545151 206.167803 
L 228.760596 207.512839 
L 229.976041 206.017371 
L 231.191487 205.397947 
L 232.406932 205.389098 
L 233.622378 206.371328 
L 237.268714 205.21212 
L 238.484159 204.601544 
L 239.699605 205.920034 
L 240.91505 206.238595 
L 242.130496 205.008594 
L 243.345941 204.442264 
L 244.561386 205.04399 
L 245.776832 205.920033 
L 246.992277 205.008595 
L 248.207723 205.088235 
L 249.423168 206.043918 
L 250.638614 205.840393 
L 251.854059 204.946652 
L 253.069504 204.583846 
L 254.28495 205.141328 
L 255.500395 204.831616 
L 256.715841 204.256437 
L 257.931286 205.159026 
L 259.146732 203.743199 
L 260.362177 204.079458 
L 261.577622 205.026293 
L 262.793068 203.929026 
L 264.008513 203.637012 
L 265.223959 204.06176 
L 266.439404 203.389242 
L 268.870295 203.48658 
L 271.301186 203.283055 
L 272.516631 203.946724 
L 273.732077 203.247659 
L 274.947522 203.920177 
L 276.162967 203.212264 
L 279.809304 203.353846 
L 281.024749 202.442407 
L 282.240195 203.097227 
L 283.45564 202.752119 
L 284.671085 202.654781 
L 285.886531 202.123846 
L 287.101976 202.937947 
L 288.317422 203.327299 
L 290.748313 202.999889 
L 291.963758 202.513199 
L 293.179203 202.460105 
L 294.394649 202.291976 
L 295.610094 201.840681 
L 296.82554 202.345069 
L 299.256431 202.929098 
L 300.471876 202.566292 
L 301.687321 201.964565 
L 302.902767 202.044206 
L 304.118212 201.097371 
L 305.333658 201.115069 
L 306.549103 202.725573 
L 307.764548 201.27435 
L 308.979994 201.584062 
L 310.195439 202.557443 
L 311.410885 201.867227 
L 312.62633 202.265429 
L 313.841776 201.150465 
L 316.272666 202.610537 
L 317.488112 201.893774 
L 318.703557 200.389458 
L 319.919003 201.743343 
L 321.134448 200.708019 
L 322.349894 201.522119 
L 323.565339 201.884925 
L 324.780784 201.212407 
L 327.211675 201.584062 
L 328.427121 202.265429 
L 329.642566 200.407155 
L 330.858012 200.769961 
L 332.073457 202.327371 
L 333.288902 201.309746 
L 334.504348 201.079673 
L 336.935239 200.814206 
L 338.150684 201.646004 
L 339.36613 199.531112 
L 340.581575 200.486796 
L 341.79702 201.079673 
L 343.012466 201.504422 
L 344.227911 201.513271 
L 345.443357 200.327515 
L 346.658802 201.84068 
L 347.874247 201.079673 
L 349.089693 200.94694 
L 350.305138 201.336292 
L 351.520584 200.814206 
L 352.736029 199.725788 
L 353.951475 200.548738 
L 356.382365 201.805285 
L 357.597811 202.371616 
L 358.813256 200.221328 
L 360.028702 201.920321 
L 361.244147 201.911472 
L 362.459593 200.893846 
L 363.675038 200.849601 
L 366.105929 200.292119 
L 367.321374 200.654925 
L 368.53682 199.690393 
L 369.752265 199.478018 
L 370.967711 200.194781 
L 372.183156 200.000105 
L 373.398601 199.486868 
L 374.614047 199.177155 
L 375.829492 199.663846 
L 377.044938 199.522263 
L 378.260383 199.495716 
L 379.475829 198.548881 
L 380.691274 199.805429 
L 381.906719 199.646148 
L 383.122165 200.177084 
L 384.33761 200.486796 
L 385.553056 199.699241 
L 386.768501 198.778954 
L 387.983946 199.150609 
L 389.199392 198.938234 
L 390.414837 199.05327 
L 391.630283 199.584206 
L 392.845728 199.920465 
L 394.061174 200.646076 
L 395.276619 199.194853 
L 396.492064 199.354134 
L 397.70751 199.203702 
L 400.138401 198.513486 
L 402.569292 198.761256 
L 403.784737 199.097515 
L 405.000182 199.30104 
L 406.215628 200.274422 
L 407.431073 199.38953 
L 408.646519 198.97363 
L 409.861964 199.62845 
L 411.07741 201.672551 
L 412.292855 199.380681 
L 414.723746 198.849745 
L 415.939191 199.256796 
L 417.154637 199.265645 
L 418.370082 198.787803 
L 419.585528 199.416076 
L 420.800973 199.823126 
L 422.016418 199.256796 
L 423.231864 198.283414 
L 425.662755 199.132911 
L 426.8782 197.920609 
L 428.093645 198.504637 
L 429.309091 197.876364 
L 429.309091 197.876364 
" style="fill:none;stroke:#0000ff;stroke-linecap:square;stroke-width:1.5;"/>
   </g>
   <g id="line2d_30">
    <path clip-path="url(#p6bc98a118b)" d="M 65.890909 290.532058 
L 67.106355 273.603391 
L 68.3218 262.229123 
L 69.537245 254.877711 
L 70.752691 249.507097 
L 71.968136 252.73355 
L 73.183582 244.851203 
L 74.399027 243.401341 
L 75.614472 242.707041 
L 76.829918 242.768303 
L 78.045363 251.222427 
L 79.260809 242.074003 
L 80.476254 236.642127 
L 81.6917 235.927406 
L 82.907145 240.460777 
L 84.12259 231.53698 
L 85.338036 231.557401 
L 86.553481 236.519603 
L 87.768927 230.577212 
L 88.984372 230.883521 
L 90.199818 231.639083 
L 91.415263 235.212685 
L 92.630708 229.331556 
L 93.846154 226.758562 
L 95.061599 227.636648 
L 96.277045 223.858839 
L 97.49249 224.430615 
L 98.707936 226.431833 
L 99.923381 225.329122 
L 101.138826 226.881086 
L 102.354272 222.87865 
L 103.569717 222.919491 
L 104.785163 219.100842 
L 106.000608 218.32486 
L 107.216054 218.794533 
L 108.431499 220.979536 
L 109.646944 220.714068 
L 110.86239 216.670792 
L 112.077835 217.528456 
L 113.293281 218.835374 
L 114.508726 217.773504 
L 115.724171 216.93626 
L 116.939617 216.95668 
L 118.155062 215.261772 
L 119.370508 217.875607 
L 120.585953 214.056957 
L 121.801399 215.343454 
L 123.016844 214.15906 
L 124.232289 213.546442 
L 125.447735 213.852751 
L 126.66318 214.50621 
L 127.878626 212.607095 
L 129.094071 216.93626 
L 130.309517 217.058783 
L 131.524962 211.810693 
L 132.740407 216.793316 
L 133.955853 212.504993 
L 135.171298 212.729619 
L 136.386744 211.504383 
L 137.602189 212.464151 
L 138.817635 213.138031 
L 140.03308 210.810083 
L 141.248525 216.037754 
L 142.463971 210.973449 
L 143.679416 211.38186 
L 144.894862 219.509254 
L 146.110307 213.015507 
L 147.325753 210.871345 
L 148.541198 211.912795 
L 149.756643 212.423309 
L 150.972089 213.791489 
L 152.187534 212.443731 
L 153.40298 210.136204 
L 154.618425 212.362048 
L 155.83387 211.177654 
L 157.049316 211.198075 
L 158.264761 210.626299 
L 159.480207 215.792707 
L 160.695652 214.628733 
L 161.911098 210.707981 
L 163.126543 214.710415 
L 164.341988 210.789663 
L 165.557434 212.07616 
L 166.772879 212.362048 
L 167.988325 212.05574 
L 169.20377 212.259945 
L 170.419216 211.72901 
L 171.634661 212.300787 
L 172.850106 211.218495 
L 174.065552 211.831114 
L 175.280997 210.667139 
L 176.496443 211.341019 
L 177.711888 211.443122 
L 178.927334 211.279757 
L 180.142779 211.259337 
L 181.358224 210.585457 
L 182.57367 213.076769 
L 183.789115 210.238307 
L 185.004561 210.217887 
L 186.220006 213.505601 
L 187.435452 212.995086 
L 188.650897 213.954854 
L 189.866342 211.565646 
L 191.081788 209.605269 
L 192.297233 211.259336 
L 193.512679 211.831113 
L 194.728124 213.321816 
L 195.943569 210.401672 
L 197.159015 209.911578 
L 198.37446 218.32486 
L 199.589906 212.117002 
L 200.805351 215.180089 
L 202.020797 210.789663 
L 203.236242 211.504384 
L 204.451687 209.217278 
L 205.667133 211.443121 
L 206.882578 209.278539 
L 208.098024 209.564428 
L 209.313469 209.503166 
L 210.528915 212.484572 
L 212.959805 209.115175 
L 214.175251 210.136204 
L 215.390696 211.504384 
L 216.606142 211.01429 
L 217.821587 210.68756 
L 220.252478 211.851533 
L 221.467923 210.115783 
L 222.683369 215.792707 
L 223.898814 210.299569 
L 226.329705 209.217278 
L 227.545151 208.665922 
L 228.760596 209.707372 
L 229.976041 210.136204 
L 231.191487 208.727184 
L 232.406932 209.564428 
L 233.622378 209.809474 
L 234.837823 209.707372 
L 236.053268 207.930781 
L 237.268714 209.074334 
L 238.484159 213.158451 
L 239.699605 211.03471 
L 240.91505 210.013681 
L 242.130496 214.322424 
L 243.345941 213.321815 
L 244.561386 209.605268 
L 245.776832 210.524196 
L 246.992277 211.708589 
L 248.207723 209.156016 
L 249.423168 211.708589 
L 250.638614 211.157233 
L 251.854059 209.156016 
L 253.069504 209.053913 
L 254.28495 211.545224 
L 255.500395 209.278539 
L 256.715841 207.88994 
L 257.931286 210.891766 
L 259.146732 208.910969 
L 260.362177 208.237089 
L 261.577622 208.645501 
L 262.793068 208.134986 
L 264.008513 210.238307 
L 265.223959 209.380643 
L 266.439404 211.402281 
L 267.654849 208.95181 
L 268.870295 209.401063 
L 270.08574 207.849098 
L 271.301186 208.155407 
L 272.516631 208.155407 
L 273.732077 207.869519 
L 274.947522 209.115175 
L 276.162967 206.950593 
L 277.378413 208.645501 
L 278.593858 208.339192 
L 279.809304 213.097189 
L 281.024749 208.359613 
L 282.240195 206.991434 
L 283.45564 209.748213 
L 284.671085 206.930172 
L 285.886531 210.789663 
L 287.101976 208.870128 
L 288.317422 208.890548 
L 289.532867 207.808257 
L 290.748313 209.850315 
L 291.963758 207.501948 
L 293.179203 208.441295 
L 294.394649 208.60466 
L 295.610094 210.667139 
L 296.82554 208.216669 
L 298.040985 208.277931 
L 299.256431 208.175828 
L 300.471876 206.337975 
L 301.687321 208.237089 
L 302.902767 209.564428 
L 304.118212 209.135595 
L 305.333658 209.64611 
L 306.549103 207.849098 
L 307.764548 209.074334 
L 310.195439 210.299569 
L 311.410885 208.012463 
L 312.62633 208.563819 
L 313.841776 207.644892 
L 315.057221 211.667748 
L 316.272666 208.747604 
L 317.488112 207.379425 
L 318.703557 207.175219 
L 319.919003 207.318163 
L 321.134448 206.50134 
L 322.349894 208.829286 
L 323.565339 206.603443 
L 324.780784 205.82746 
L 325.99623 205.316945 
L 327.211675 207.256901 
L 328.427121 206.705545 
L 329.642566 211.504383 
L 330.858012 207.685733 
L 333.288902 208.420874 
L 334.504348 206.480919 
L 335.719793 211.769852 
L 336.935239 206.378816 
L 338.150684 208.747604 
L 339.36613 207.706154 
L 340.581575 209.727793 
L 341.79702 205.214843 
L 343.012466 206.971013 
L 344.227911 208.053304 
L 345.443357 207.277322 
L 346.658802 210.279148 
L 347.874247 211.300178 
L 349.089693 210.422092 
L 350.305138 207.91036 
L 351.520584 206.378816 
L 352.736029 205.949983 
L 353.951475 208.665922 
L 355.16692 206.317554 
L 356.382365 207.787837 
L 357.597811 208.237089 
L 358.813256 213.934434 
L 360.028702 208.625081 
L 361.244147 206.603442 
L 362.459593 207.134377 
L 363.675038 206.725966 
L 364.890483 208.094145 
L 366.105929 207.236481 
L 367.321374 205.786619 
L 368.53682 204.847272 
L 369.752265 205.296525 
L 370.967711 205.214843 
L 372.183156 206.215451 
L 373.398601 206.746387 
L 374.614047 206.807648 
L 375.829492 206.011245 
L 377.044938 205.48031 
L 378.260383 206.154189 
L 379.475829 210.667139 
L 380.691274 208.706763 
L 381.906719 205.990825 
L 383.122165 207.787836 
L 384.33761 206.052086 
L 385.553056 204.663486 
L 386.768501 207.011854 
L 387.983946 206.971013 
L 389.199392 207.706154 
L 390.414837 205.255683 
L 391.630283 206.092928 
L 392.845728 205.214842 
L 394.061174 204.928954 
L 395.276619 206.52176 
L 396.492064 205.174002 
L 397.70751 204.520542 
L 398.922955 205.868301 
L 400.138401 205.439469 
L 401.353846 203.805821 
L 402.569292 204.867693 
L 403.784737 204.295916 
L 405.000182 207.134378 
L 406.215628 205.623254 
L 407.431073 206.011245 
L 408.646519 204.724748 
L 409.861964 221.939304 
L 411.07741 208.502557 
L 412.292855 206.072507 
L 413.5083 204.622645 
L 414.723746 206.950592 
L 415.939191 206.276713 
L 417.154637 205.439469 
L 418.370082 204.745169 
L 419.585528 205.398628 
L 420.800973 209.217278 
L 422.016418 207.808257 
L 423.231864 205.13316 
L 424.447309 208.339193 
L 425.662755 205.949983 
L 426.8782 206.337975 
L 428.093645 205.480311 
L 429.309091 208.482136 
L 429.309091 208.482136 
" style="fill:none;stroke:#ffa500;stroke-linecap:square;stroke-width:1.5;"/>
   </g>
   <g id="patch_9">
    <path d="M 47.72 303.64 
L 47.72 192.84 
" style="fill:none;stroke:#000000;stroke-linecap:square;stroke-linejoin:miter;stroke-width:0.8;"/>
   </g>
   <g id="patch_10">
    <path d="M 447.48 303.64 
L 447.48 192.84 
" style="fill:none;stroke:#000000;stroke-linecap:square;stroke-linejoin:miter;stroke-width:0.8;"/>
   </g>
   <g id="patch_11">
    <path d="M 47.72 303.64 
L 447.48 303.64 
" style="fill:none;stroke:#000000;stroke-linecap:square;stroke-linejoin:miter;stroke-width:0.8;"/>
   </g>
   <g id="patch_12">
    <path d="M 47.72 192.84 
L 447.48 192.84 
" style="fill:none;stroke:#000000;stroke-linecap:square;stroke-linejoin:miter;stroke-width:0.8;"/>
   </g>
   <g id="text_30">
    <!-- model accuracy -->
    <g transform="translate(199.938437 186.84)scale(0.12 -0.12)">
     <use xlink:href="#DejaVuSans-109"/>
     <use x="97.412109" xlink:href="#DejaVuSans-111"/>
     <use x="158.59375" xlink:href="#DejaVuSans-100"/>
     <use x="222.070312" xlink:href="#DejaVuSans-101"/>
     <use x="283.59375" xlink:href="#DejaVuSans-108"/>
     <use x="311.376953" xlink:href="#DejaVuSans-32"/>
     <use x="343.164062" xlink:href="#DejaVuSans-97"/>
     <use x="404.443359" xlink:href="#DejaVuSans-99"/>
     <use x="459.423828" xlink:href="#DejaVuSans-99"/>
     <use x="514.404297" xlink:href="#DejaVuSans-117"/>
     <use x="577.783203" xlink:href="#DejaVuSans-114"/>
     <use x="618.896484" xlink:href="#DejaVuSans-97"/>
     <use x="680.175781" xlink:href="#DejaVuSans-99"/>
     <use x="735.15625" xlink:href="#DejaVuSans-121"/>
    </g>
   </g>
   <g id="legend_2">
    <g id="patch_13">
     <path d="M 54.72 230.19625 
L 109.995 230.19625 
Q 111.995 230.19625 111.995 228.19625 
L 111.995 199.84 
Q 111.995 197.84 109.995 197.84 
L 54.72 197.84 
Q 52.72 197.84 52.72 199.84 
L 52.72 228.19625 
Q 52.72 230.19625 54.72 230.19625 
z
" style="fill:#ffffff;opacity:0.8;stroke:#cccccc;stroke-linejoin:miter;"/>
    </g>
    <g id="line2d_31">
     <path d="M 56.72 205.938437 
L 76.72 205.938437 
" style="fill:none;stroke:#0000ff;stroke-linecap:square;stroke-width:1.5;"/>
    </g>
    <g id="line2d_32"/>
    <g id="text_31">
     <!-- train -->
     <g transform="translate(84.72 209.438437)scale(0.1 -0.1)">
      <use xlink:href="#DejaVuSans-116"/>
      <use x="39.208984" xlink:href="#DejaVuSans-114"/>
      <use x="80.322266" xlink:href="#DejaVuSans-97"/>
      <use x="141.601562" xlink:href="#DejaVuSans-105"/>
      <use x="169.384766" xlink:href="#DejaVuSans-110"/>
     </g>
    </g>
    <g id="line2d_33">
     <path d="M 56.72 220.616562 
L 76.72 220.616562 
" style="fill:none;stroke:#ffa500;stroke-linecap:square;stroke-width:1.5;"/>
    </g>
    <g id="line2d_34"/>
    <g id="text_32">
     <!-- test -->
     <g transform="translate(84.72 224.116562)scale(0.1 -0.1)">
      <use xlink:href="#DejaVuSans-116"/>
      <use x="39.208984" xlink:href="#DejaVuSans-101"/>
      <use x="100.732422" xlink:href="#DejaVuSans-115"/>
      <use x="152.832031" xlink:href="#DejaVuSans-116"/>
     </g>
    </g>
   </g>
  </g>
 </g>
 <defs>
  <clipPath id="p0e389ba852">
   <rect height="110.8" width="399.76" x="47.72" y="25.44"/>
  </clipPath>
  <clipPath id="p6bc98a118b">
   <rect height="110.8" width="399.76" x="47.72" y="192.84"/>
  </clipPath>
 </defs>
</svg>
