<?xml version="1.0" encoding="utf-8" standalone="no"?>
<!DOCTYPE svg PUBLIC "-//W3C//DTD SVG 1.1//EN"
  "http://www.w3.org/Graphics/SVG/1.1/DTD/svg11.dtd">
<!-- Created with matplotlib (https://matplotlib.org/) -->
<svg height="345.6pt" version="1.1" viewBox="0 0 460.8 345.6" width="460.8pt" xmlns="http://www.w3.org/2000/svg" xmlns:xlink="http://www.w3.org/1999/xlink">
 <defs>
  <style type="text/css">
*{stroke-linecap:butt;stroke-linejoin:round;}
  </style>
 </defs>
 <g id="figure_1">
  <g id="patch_1">
   <path d="M 0 345.6 
L 460.8 345.6 
L 460.8 0 
L 0 0 
z
" style="fill:#ffffff;"/>
  </g>
  <g id="axes_1">
   <g id="patch_2">
    <path d="M 47.81 136.24 
L 447.48 136.24 
L 447.48 25.44 
L 47.81 25.44 
z
" style="fill:#ffffff;"/>
   </g>
   <g id="matplotlib.axis_1">
    <g id="xtick_1">
     <g id="line2d_1">
      <defs>
       <path d="M 0 0 
L 0 3.5 
" id="m5d45cf6273" style="stroke:#000000;stroke-width:0.8;"/>
      </defs>
      <g>
       <use style="stroke:#000000;stroke-width:0.8;" x="65.976818" xlink:href="#m5d45cf6273" y="136.24"/>
      </g>
     </g>
     <g id="text_1">
      <!-- 0 -->
      <defs>
       <path d="M 31.78125 66.40625 
Q 24.171875 66.40625 20.328125 58.90625 
Q 16.5 51.421875 16.5 36.375 
Q 16.5 21.390625 20.328125 13.890625 
Q 24.171875 6.390625 31.78125 6.390625 
Q 39.453125 6.390625 43.28125 13.890625 
Q 47.125 21.390625 47.125 36.375 
Q 47.125 51.421875 43.28125 58.90625 
Q 39.453125 66.40625 31.78125 66.40625 
z
M 31.78125 74.21875 
Q 44.046875 74.21875 50.515625 64.515625 
Q 56.984375 54.828125 56.984375 36.375 
Q 56.984375 17.96875 50.515625 8.265625 
Q 44.046875 -1.421875 31.78125 -1.421875 
Q 19.53125 -1.421875 13.0625 8.265625 
Q 6.59375 17.96875 6.59375 36.375 
Q 6.59375 54.828125 13.0625 64.515625 
Q 19.53125 74.21875 31.78125 74.21875 
z
" id="DejaVuSans-48"/>
      </defs>
      <g transform="translate(62.795568 150.838437)scale(0.1 -0.1)">
       <use xlink:href="#DejaVuSans-48"/>
      </g>
     </g>
    </g>
    <g id="xtick_2">
     <g id="line2d_2">
      <g>
       <use style="stroke:#000000;stroke-width:0.8;" x="126.735407" xlink:href="#m5d45cf6273" y="136.24"/>
      </g>
     </g>
     <g id="text_2">
      <!-- 50 -->
      <defs>
       <path d="M 10.796875 72.90625 
L 49.515625 72.90625 
L 49.515625 64.59375 
L 19.828125 64.59375 
L 19.828125 46.734375 
Q 21.96875 47.46875 24.109375 47.828125 
Q 26.265625 48.1875 28.421875 48.1875 
Q 40.625 48.1875 47.75 41.5 
Q 54.890625 34.8125 54.890625 23.390625 
Q 54.890625 11.625 47.5625 5.09375 
Q 40.234375 -1.421875 26.90625 -1.421875 
Q 22.3125 -1.421875 17.546875 -0.640625 
Q 12.796875 0.140625 7.71875 1.703125 
L 7.71875 11.625 
Q 12.109375 9.234375 16.796875 8.0625 
Q 21.484375 6.890625 26.703125 6.890625 
Q 35.15625 6.890625 40.078125 11.328125 
Q 45.015625 15.765625 45.015625 23.390625 
Q 45.015625 31 40.078125 35.4375 
Q 35.15625 39.890625 26.703125 39.890625 
Q 22.75 39.890625 18.8125 39.015625 
Q 14.890625 38.140625 10.796875 36.28125 
z
" id="DejaVuSans-53"/>
      </defs>
      <g transform="translate(120.372907 150.838437)scale(0.1 -0.1)">
       <use xlink:href="#DejaVuSans-53"/>
       <use x="63.623047" xlink:href="#DejaVuSans-48"/>
      </g>
     </g>
    </g>
    <g id="xtick_3">
     <g id="line2d_3">
      <g>
       <use style="stroke:#000000;stroke-width:0.8;" x="187.493997" xlink:href="#m5d45cf6273" y="136.24"/>
      </g>
     </g>
     <g id="text_3">
      <!-- 100 -->
      <defs>
       <path d="M 12.40625 8.296875 
L 28.515625 8.296875 
L 28.515625 63.921875 
L 10.984375 60.40625 
L 10.984375 69.390625 
L 28.421875 72.90625 
L 38.28125 72.90625 
L 38.28125 8.296875 
L 54.390625 8.296875 
L 54.390625 0 
L 12.40625 0 
z
" id="DejaVuSans-49"/>
      </defs>
      <g transform="translate(177.950247 150.838437)scale(0.1 -0.1)">
       <use xlink:href="#DejaVuSans-49"/>
       <use x="63.623047" xlink:href="#DejaVuSans-48"/>
       <use x="127.246094" xlink:href="#DejaVuSans-48"/>
      </g>
     </g>
    </g>
    <g id="xtick_4">
     <g id="line2d_4">
      <g>
       <use style="stroke:#000000;stroke-width:0.8;" x="248.252586" xlink:href="#m5d45cf6273" y="136.24"/>
      </g>
     </g>
     <g id="text_4">
      <!-- 150 -->
      <g transform="translate(238.708836 150.838437)scale(0.1 -0.1)">
       <use xlink:href="#DejaVuSans-49"/>
       <use x="63.623047" xlink:href="#DejaVuSans-53"/>
       <use x="127.246094" xlink:href="#DejaVuSans-48"/>
      </g>
     </g>
    </g>
    <g id="xtick_5">
     <g id="line2d_5">
      <g>
       <use style="stroke:#000000;stroke-width:0.8;" x="309.011175" xlink:href="#m5d45cf6273" y="136.24"/>
      </g>
     </g>
     <g id="text_5">
      <!-- 200 -->
      <defs>
       <path d="M 19.1875 8.296875 
L 53.609375 8.296875 
L 53.609375 0 
L 7.328125 0 
L 7.328125 8.296875 
Q 12.9375 14.109375 22.625 23.890625 
Q 32.328125 33.6875 34.8125 36.53125 
Q 39.546875 41.84375 41.421875 45.53125 
Q 43.3125 49.21875 43.3125 52.78125 
Q 43.3125 58.59375 39.234375 62.25 
Q 35.15625 65.921875 28.609375 65.921875 
Q 23.96875 65.921875 18.8125 64.3125 
Q 13.671875 62.703125 7.8125 59.421875 
L 7.8125 69.390625 
Q 13.765625 71.78125 18.9375 73 
Q 24.125 74.21875 28.421875 74.21875 
Q 39.75 74.21875 46.484375 68.546875 
Q 53.21875 62.890625 53.21875 53.421875 
Q 53.21875 48.921875 51.53125 44.890625 
Q 49.859375 40.875 45.40625 35.40625 
Q 44.1875 33.984375 37.640625 27.21875 
Q 31.109375 20.453125 19.1875 8.296875 
z
" id="DejaVuSans-50"/>
      </defs>
      <g transform="translate(299.467425 150.838437)scale(0.1 -0.1)">
       <use xlink:href="#DejaVuSans-50"/>
       <use x="63.623047" xlink:href="#DejaVuSans-48"/>
       <use x="127.246094" xlink:href="#DejaVuSans-48"/>
      </g>
     </g>
    </g>
    <g id="xtick_6">
     <g id="line2d_6">
      <g>
       <use style="stroke:#000000;stroke-width:0.8;" x="369.769764" xlink:href="#m5d45cf6273" y="136.24"/>
      </g>
     </g>
     <g id="text_6">
      <!-- 250 -->
      <g transform="translate(360.226014 150.838437)scale(0.1 -0.1)">
       <use xlink:href="#DejaVuSans-50"/>
       <use x="63.623047" xlink:href="#DejaVuSans-53"/>
       <use x="127.246094" xlink:href="#DejaVuSans-48"/>
      </g>
     </g>
    </g>
    <g id="xtick_7">
     <g id="line2d_7">
      <g>
       <use style="stroke:#000000;stroke-width:0.8;" x="430.528354" xlink:href="#m5d45cf6273" y="136.24"/>
      </g>
     </g>
     <g id="text_7">
      <!-- 300 -->
      <defs>
       <path d="M 40.578125 39.3125 
Q 47.65625 37.796875 51.625 33 
Q 55.609375 28.21875 55.609375 21.1875 
Q 55.609375 10.40625 48.1875 4.484375 
Q 40.765625 -1.421875 27.09375 -1.421875 
Q 22.515625 -1.421875 17.65625 -0.515625 
Q 12.796875 0.390625 7.625 2.203125 
L 7.625 11.71875 
Q 11.71875 9.328125 16.59375 8.109375 
Q 21.484375 6.890625 26.8125 6.890625 
Q 36.078125 6.890625 40.9375 10.546875 
Q 45.796875 14.203125 45.796875 21.1875 
Q 45.796875 27.640625 41.28125 31.265625 
Q 36.765625 34.90625 28.71875 34.90625 
L 20.21875 34.90625 
L 20.21875 43.015625 
L 29.109375 43.015625 
Q 36.375 43.015625 40.234375 45.921875 
Q 44.09375 48.828125 44.09375 54.296875 
Q 44.09375 59.90625 40.109375 62.90625 
Q 36.140625 65.921875 28.71875 65.921875 
Q 24.65625 65.921875 20.015625 65.03125 
Q 15.375 64.15625 9.8125 62.3125 
L 9.8125 71.09375 
Q 15.4375 72.65625 20.34375 73.4375 
Q 25.25 74.21875 29.59375 74.21875 
Q 40.828125 74.21875 47.359375 69.109375 
Q 53.90625 64.015625 53.90625 55.328125 
Q 53.90625 49.265625 50.4375 45.09375 
Q 46.96875 40.921875 40.578125 39.3125 
z
" id="DejaVuSans-51"/>
      </defs>
      <g transform="translate(420.984604 150.838437)scale(0.1 -0.1)">
       <use xlink:href="#DejaVuSans-51"/>
       <use x="63.623047" xlink:href="#DejaVuSans-48"/>
       <use x="127.246094" xlink:href="#DejaVuSans-48"/>
      </g>
     </g>
    </g>
    <g id="text_8">
     <!-- epoch -->
     <defs>
      <path d="M 56.203125 29.59375 
L 56.203125 25.203125 
L 14.890625 25.203125 
Q 15.484375 15.921875 20.484375 11.0625 
Q 25.484375 6.203125 34.421875 6.203125 
Q 39.59375 6.203125 44.453125 7.46875 
Q 49.3125 8.734375 54.109375 11.28125 
L 54.109375 2.78125 
Q 49.265625 0.734375 44.1875 -0.34375 
Q 39.109375 -1.421875 33.890625 -1.421875 
Q 20.796875 -1.421875 13.15625 6.1875 
Q 5.515625 13.8125 5.515625 26.8125 
Q 5.515625 40.234375 12.765625 48.109375 
Q 20.015625 56 32.328125 56 
Q 43.359375 56 49.78125 48.890625 
Q 56.203125 41.796875 56.203125 29.59375 
z
M 47.21875 32.234375 
Q 47.125 39.59375 43.09375 43.984375 
Q 39.0625 48.390625 32.421875 48.390625 
Q 24.90625 48.390625 20.390625 44.140625 
Q 15.875 39.890625 15.1875 32.171875 
z
" id="DejaVuSans-101"/>
      <path d="M 18.109375 8.203125 
L 18.109375 -20.796875 
L 9.078125 -20.796875 
L 9.078125 54.6875 
L 18.109375 54.6875 
L 18.109375 46.390625 
Q 20.953125 51.265625 25.265625 53.625 
Q 29.59375 56 35.59375 56 
Q 45.5625 56 51.78125 48.09375 
Q 58.015625 40.1875 58.015625 27.296875 
Q 58.015625 14.40625 51.78125 6.484375 
Q 45.5625 -1.421875 35.59375 -1.421875 
Q 29.59375 -1.421875 25.265625 0.953125 
Q 20.953125 3.328125 18.109375 8.203125 
z
M 48.6875 27.296875 
Q 48.6875 37.203125 44.609375 42.84375 
Q 40.53125 48.484375 33.40625 48.484375 
Q 26.265625 48.484375 22.1875 42.84375 
Q 18.109375 37.203125 18.109375 27.296875 
Q 18.109375 17.390625 22.1875 11.75 
Q 26.265625 6.109375 33.40625 6.109375 
Q 40.53125 6.109375 44.609375 11.75 
Q 48.6875 17.390625 48.6875 27.296875 
z
" id="DejaVuSans-112"/>
      <path d="M 30.609375 48.390625 
Q 23.390625 48.390625 19.1875 42.75 
Q 14.984375 37.109375 14.984375 27.296875 
Q 14.984375 17.484375 19.15625 11.84375 
Q 23.34375 6.203125 30.609375 6.203125 
Q 37.796875 6.203125 41.984375 11.859375 
Q 46.1875 17.53125 46.1875 27.296875 
Q 46.1875 37.015625 41.984375 42.703125 
Q 37.796875 48.390625 30.609375 48.390625 
z
M 30.609375 56 
Q 42.328125 56 49.015625 48.375 
Q 55.71875 40.765625 55.71875 27.296875 
Q 55.71875 13.875 49.015625 6.21875 
Q 42.328125 -1.421875 30.609375 -1.421875 
Q 18.84375 -1.421875 12.171875 6.21875 
Q 5.515625 13.875 5.515625 27.296875 
Q 5.515625 40.765625 12.171875 48.375 
Q 18.84375 56 30.609375 56 
z
" id="DejaVuSans-111"/>
      <path d="M 48.78125 52.59375 
L 48.78125 44.1875 
Q 44.96875 46.296875 41.140625 47.34375 
Q 37.3125 48.390625 33.40625 48.390625 
Q 24.65625 48.390625 19.8125 42.84375 
Q 14.984375 37.3125 14.984375 27.296875 
Q 14.984375 17.28125 19.8125 11.734375 
Q 24.65625 6.203125 33.40625 6.203125 
Q 37.3125 6.203125 41.140625 7.25 
Q 44.96875 8.296875 48.78125 10.40625 
L 48.78125 2.09375 
Q 45.015625 0.34375 40.984375 -0.53125 
Q 36.96875 -1.421875 32.421875 -1.421875 
Q 20.0625 -1.421875 12.78125 6.34375 
Q 5.515625 14.109375 5.515625 27.296875 
Q 5.515625 40.671875 12.859375 48.328125 
Q 20.21875 56 33.015625 56 
Q 37.15625 56 41.109375 55.140625 
Q 45.0625 54.296875 48.78125 52.59375 
z
" id="DejaVuSans-99"/>
      <path d="M 54.890625 33.015625 
L 54.890625 0 
L 45.90625 0 
L 45.90625 32.71875 
Q 45.90625 40.484375 42.875 44.328125 
Q 39.84375 48.1875 33.796875 48.1875 
Q 26.515625 48.1875 22.3125 43.546875 
Q 18.109375 38.921875 18.109375 30.90625 
L 18.109375 0 
L 9.078125 0 
L 9.078125 75.984375 
L 18.109375 75.984375 
L 18.109375 46.1875 
Q 21.34375 51.125 25.703125 53.5625 
Q 30.078125 56 35.796875 56 
Q 45.21875 56 50.046875 50.171875 
Q 54.890625 44.34375 54.890625 33.015625 
z
" id="DejaVuSans-104"/>
     </defs>
     <g transform="translate(232.416875 164.516562)scale(0.1 -0.1)">
      <use xlink:href="#DejaVuSans-101"/>
      <use x="61.523438" xlink:href="#DejaVuSans-112"/>
      <use x="125" xlink:href="#DejaVuSans-111"/>
      <use x="186.181641" xlink:href="#DejaVuSans-99"/>
      <use x="241.162109" xlink:href="#DejaVuSans-104"/>
     </g>
    </g>
   </g>
   <g id="matplotlib.axis_2">
    <g id="ytick_1">
     <g id="line2d_8">
      <defs>
       <path d="M 0 0 
L -3.5 0 
" id="m0bb54422ca" style="stroke:#000000;stroke-width:0.8;"/>
      </defs>
      <g>
       <use style="stroke:#000000;stroke-width:0.8;" x="47.81" xlink:href="#m0bb54422ca" y="135.493385"/>
      </g>
     </g>
     <g id="text_9">
      <!-- 0.8 -->
      <defs>
       <path d="M 10.6875 12.40625 
L 21 12.40625 
L 21 0 
L 10.6875 0 
z
" id="DejaVuSans-46"/>
       <path d="M 31.78125 34.625 
Q 24.75 34.625 20.71875 30.859375 
Q 16.703125 27.09375 16.703125 20.515625 
Q 16.703125 13.921875 20.71875 10.15625 
Q 24.75 6.390625 31.78125 6.390625 
Q 38.8125 6.390625 42.859375 10.171875 
Q 46.921875 13.96875 46.921875 20.515625 
Q 46.921875 27.09375 42.890625 30.859375 
Q 38.875 34.625 31.78125 34.625 
z
M 21.921875 38.8125 
Q 15.578125 40.375 12.03125 44.71875 
Q 8.5 49.078125 8.5 55.328125 
Q 8.5 64.0625 14.71875 69.140625 
Q 20.953125 74.21875 31.78125 74.21875 
Q 42.671875 74.21875 48.875 69.140625 
Q 55.078125 64.0625 55.078125 55.328125 
Q 55.078125 49.078125 51.53125 44.71875 
Q 48 40.375 41.703125 38.8125 
Q 48.828125 37.15625 52.796875 32.3125 
Q 56.78125 27.484375 56.78125 20.515625 
Q 56.78125 9.90625 50.3125 4.234375 
Q 43.84375 -1.421875 31.78125 -1.421875 
Q 19.734375 -1.421875 13.25 4.234375 
Q 6.78125 9.90625 6.78125 20.515625 
Q 6.78125 27.484375 10.78125 32.3125 
Q 14.796875 37.15625 21.921875 38.8125 
z
M 18.3125 54.390625 
Q 18.3125 48.734375 21.84375 45.5625 
Q 25.390625 42.390625 31.78125 42.390625 
Q 38.140625 42.390625 41.71875 45.5625 
Q 45.3125 48.734375 45.3125 54.390625 
Q 45.3125 60.0625 41.71875 63.234375 
Q 38.140625 66.40625 31.78125 66.40625 
Q 25.390625 66.40625 21.84375 63.234375 
Q 18.3125 60.0625 18.3125 54.390625 
z
" id="DejaVuSans-56"/>
      </defs>
      <g transform="translate(24.906875 139.292604)scale(0.1 -0.1)">
       <use xlink:href="#DejaVuSans-48"/>
       <use x="63.623047" xlink:href="#DejaVuSans-46"/>
       <use x="95.410156" xlink:href="#DejaVuSans-56"/>
      </g>
     </g>
    </g>
    <g id="ytick_2">
     <g id="line2d_9">
      <g>
       <use style="stroke:#000000;stroke-width:0.8;" x="47.81" xlink:href="#m0bb54422ca" y="110.172207"/>
      </g>
     </g>
     <g id="text_10">
      <!-- 1.0 -->
      <g transform="translate(24.906875 113.971425)scale(0.1 -0.1)">
       <use xlink:href="#DejaVuSans-49"/>
       <use x="63.623047" xlink:href="#DejaVuSans-46"/>
       <use x="95.410156" xlink:href="#DejaVuSans-48"/>
      </g>
     </g>
    </g>
    <g id="ytick_3">
     <g id="line2d_10">
      <g>
       <use style="stroke:#000000;stroke-width:0.8;" x="47.81" xlink:href="#m0bb54422ca" y="84.851028"/>
      </g>
     </g>
     <g id="text_11">
      <!-- 1.2 -->
      <g transform="translate(24.906875 88.650247)scale(0.1 -0.1)">
       <use xlink:href="#DejaVuSans-49"/>
       <use x="63.623047" xlink:href="#DejaVuSans-46"/>
       <use x="95.410156" xlink:href="#DejaVuSans-50"/>
      </g>
     </g>
    </g>
    <g id="ytick_4">
     <g id="line2d_11">
      <g>
       <use style="stroke:#000000;stroke-width:0.8;" x="47.81" xlink:href="#m0bb54422ca" y="59.52985"/>
      </g>
     </g>
     <g id="text_12">
      <!-- 1.4 -->
      <defs>
       <path d="M 37.796875 64.3125 
L 12.890625 25.390625 
L 37.796875 25.390625 
z
M 35.203125 72.90625 
L 47.609375 72.90625 
L 47.609375 25.390625 
L 58.015625 25.390625 
L 58.015625 17.1875 
L 47.609375 17.1875 
L 47.609375 0 
L 37.796875 0 
L 37.796875 17.1875 
L 4.890625 17.1875 
L 4.890625 26.703125 
z
" id="DejaVuSans-52"/>
      </defs>
      <g transform="translate(24.906875 63.329069)scale(0.1 -0.1)">
       <use xlink:href="#DejaVuSans-49"/>
       <use x="63.623047" xlink:href="#DejaVuSans-46"/>
       <use x="95.410156" xlink:href="#DejaVuSans-52"/>
      </g>
     </g>
    </g>
    <g id="ytick_5">
     <g id="line2d_12">
      <g>
       <use style="stroke:#000000;stroke-width:0.8;" x="47.81" xlink:href="#m0bb54422ca" y="34.208671"/>
      </g>
     </g>
     <g id="text_13">
      <!-- 1.6 -->
      <defs>
       <path d="M 33.015625 40.375 
Q 26.375 40.375 22.484375 35.828125 
Q 18.609375 31.296875 18.609375 23.390625 
Q 18.609375 15.53125 22.484375 10.953125 
Q 26.375 6.390625 33.015625 6.390625 
Q 39.65625 6.390625 43.53125 10.953125 
Q 47.40625 15.53125 47.40625 23.390625 
Q 47.40625 31.296875 43.53125 35.828125 
Q 39.65625 40.375 33.015625 40.375 
z
M 52.59375 71.296875 
L 52.59375 62.3125 
Q 48.875 64.0625 45.09375 64.984375 
Q 41.3125 65.921875 37.59375 65.921875 
Q 27.828125 65.921875 22.671875 59.328125 
Q 17.53125 52.734375 16.796875 39.40625 
Q 19.671875 43.65625 24.015625 45.921875 
Q 28.375 48.1875 33.59375 48.1875 
Q 44.578125 48.1875 50.953125 41.515625 
Q 57.328125 34.859375 57.328125 23.390625 
Q 57.328125 12.15625 50.6875 5.359375 
Q 44.046875 -1.421875 33.015625 -1.421875 
Q 20.359375 -1.421875 13.671875 8.265625 
Q 6.984375 17.96875 6.984375 36.375 
Q 6.984375 53.65625 15.1875 63.9375 
Q 23.390625 74.21875 37.203125 74.21875 
Q 40.921875 74.21875 44.703125 73.484375 
Q 48.484375 72.75 52.59375 71.296875 
z
" id="DejaVuSans-54"/>
      </defs>
      <g transform="translate(24.906875 38.00789)scale(0.1 -0.1)">
       <use xlink:href="#DejaVuSans-49"/>
       <use x="63.623047" xlink:href="#DejaVuSans-46"/>
       <use x="95.410156" xlink:href="#DejaVuSans-54"/>
      </g>
     </g>
    </g>
    <g id="text_14">
     <!-- loss -->
     <defs>
      <path d="M 9.421875 75.984375 
L 18.40625 75.984375 
L 18.40625 0 
L 9.421875 0 
z
" id="DejaVuSans-108"/>
      <path d="M 44.28125 53.078125 
L 44.28125 44.578125 
Q 40.484375 46.53125 36.375 47.5 
Q 32.28125 48.484375 27.875 48.484375 
Q 21.1875 48.484375 17.84375 46.4375 
Q 14.5 44.390625 14.5 40.28125 
Q 14.5 37.15625 16.890625 35.375 
Q 19.28125 33.59375 26.515625 31.984375 
L 29.59375 31.296875 
Q 39.15625 29.25 43.1875 25.515625 
Q 47.21875 21.78125 47.21875 15.09375 
Q 47.21875 7.46875 41.1875 3.015625 
Q 35.15625 -1.421875 24.609375 -1.421875 
Q 20.21875 -1.421875 15.453125 -0.5625 
Q 10.6875 0.296875 5.421875 2 
L 5.421875 11.28125 
Q 10.40625 8.6875 15.234375 7.390625 
Q 20.0625 6.109375 24.8125 6.109375 
Q 31.15625 6.109375 34.5625 8.28125 
Q 37.984375 10.453125 37.984375 14.40625 
Q 37.984375 18.0625 35.515625 20.015625 
Q 33.0625 21.96875 24.703125 23.78125 
L 21.578125 24.515625 
Q 13.234375 26.265625 9.515625 29.90625 
Q 5.8125 33.546875 5.8125 39.890625 
Q 5.8125 47.609375 11.28125 51.796875 
Q 16.75 56 26.8125 56 
Q 31.78125 56 36.171875 55.265625 
Q 40.578125 54.546875 44.28125 53.078125 
z
" id="DejaVuSans-115"/>
     </defs>
     <g transform="translate(18.827188 90.497812)rotate(-90)scale(0.1 -0.1)">
      <use xlink:href="#DejaVuSans-108"/>
      <use x="27.783203" xlink:href="#DejaVuSans-111"/>
      <use x="88.964844" xlink:href="#DejaVuSans-115"/>
      <use x="141.064453" xlink:href="#DejaVuSans-115"/>
     </g>
    </g>
   </g>
   <g id="line2d_13">
    <path clip-path="url(#p5f1f3cb244)" d="M 65.976818 30.476364 
L 67.19199 65.423509 
L 68.407162 75.637762 
L 69.622334 81.115885 
L 70.837505 85.055728 
L 72.052677 88.30796 
L 74.483021 93.442804 
L 75.698192 95.466891 
L 78.128536 98.801468 
L 79.343708 100.229103 
L 80.55888 101.42431 
L 84.204395 104.41356 
L 85.419567 105.059057 
L 86.634739 106.07871 
L 87.84991 106.634207 
L 89.065082 107.568539 
L 91.495426 108.649635 
L 95.140941 110.207856 
L 98.786456 111.663822 
L 100.001628 112.05066 
L 101.2168 112.676114 
L 103.647144 113.099956 
L 104.862315 113.561131 
L 107.292659 114.187673 
L 108.507831 114.702248 
L 110.938174 115.14477 
L 113.368518 115.916868 
L 114.58369 115.785933 
L 115.798861 116.075168 
L 117.014033 116.564244 
L 118.229205 116.852486 
L 120.659548 117.136207 
L 124.305064 117.723261 
L 125.520236 118.177761 
L 126.735407 118.188245 
L 130.380923 118.778385 
L 134.026438 119.235452 
L 135.24161 119.391226 
L 136.456782 119.428181 
L 137.671953 119.88095 
L 138.887125 119.881586 
L 141.317469 120.219751 
L 142.532641 120.354733 
L 143.747812 120.308314 
L 144.962984 120.645233 
L 146.178156 120.525731 
L 148.6085 121.046956 
L 149.823671 120.965428 
L 151.038843 121.289985 
L 152.254015 121.212124 
L 153.469187 121.493967 
L 154.684358 121.304771 
L 155.89953 121.601112 
L 157.114702 121.661674 
L 158.329874 121.858852 
L 159.545046 121.809524 
L 160.760217 122.154878 
L 161.975389 122.262307 
L 163.190561 122.03117 
L 164.405733 122.178375 
L 165.620905 122.562075 
L 168.051248 122.536689 
L 169.26642 122.79047 
L 170.481592 122.649978 
L 171.696763 122.743475 
L 172.911935 123.087712 
L 177.772622 123.425453 
L 178.987794 123.311397 
L 180.202966 123.560371 
L 182.63331 123.616464 
L 185.063653 123.779082 
L 186.278825 123.77382 
L 188.709168 123.955995 
L 189.92434 124.332995 
L 192.354684 124.107638 
L 193.569856 124.150924 
L 194.785027 124.324166 
L 196.000199 124.228825 
L 197.215371 124.598704 
L 198.430543 124.819716 
L 200.860886 124.687874 
L 204.506402 124.932842 
L 205.721573 124.859956 
L 208.151917 125.091485 
L 209.367089 125.010671 
L 210.582261 125.428063 
L 211.797432 125.286183 
L 216.658119 125.573245 
L 220.303635 125.894343 
L 221.518807 125.673161 
L 222.733978 125.966909 
L 223.94915 125.904519 
L 225.164322 125.974065 
L 226.379494 125.840269 
L 227.594666 126.158559 
L 228.809837 126.246746 
L 230.025009 126.19004 
L 231.240181 126.271675 
L 232.455353 126.182854 
L 233.670524 126.371612 
L 234.885696 126.312107 
L 236.100868 126.542808 
L 237.31604 126.404234 
L 239.746383 126.536185 
L 242.176727 126.563575 
L 245.822242 126.669875 
L 247.037414 126.655504 
L 249.467758 126.909189 
L 251.898101 126.73952 
L 253.113273 127.035852 
L 254.328445 126.800087 
L 256.758788 127.470501 
L 257.97396 127.22917 
L 259.189132 127.111625 
L 260.404304 127.340199 
L 261.619476 127.412597 
L 262.834647 127.238082 
L 265.264991 127.344625 
L 266.480163 127.558315 
L 267.695334 127.397213 
L 270.125678 127.565617 
L 271.34085 127.657425 
L 272.556022 127.504876 
L 273.771193 127.887174 
L 274.986365 127.589726 
L 278.631881 127.653641 
L 279.847052 127.92205 
L 281.062224 127.944347 
L 282.277396 128.094966 
L 283.492568 127.89022 
L 285.922911 128.149917 
L 287.138083 128.028637 
L 289.568427 128.122401 
L 290.783598 128.225705 
L 291.99877 128.444306 
L 293.213942 128.121045 
L 294.429114 128.299486 
L 295.644285 128.360687 
L 296.859457 128.187771 
L 301.720144 128.522958 
L 302.935316 128.305396 
L 304.150488 128.355115 
L 305.36566 128.631002 
L 307.796003 128.692366 
L 310.226347 128.581373 
L 312.65669 128.869022 
L 313.871862 128.574154 
L 316.302206 128.90861 
L 317.517378 128.922737 
L 318.732549 128.803821 
L 321.162893 129.076274 
L 322.378065 128.894468 
L 323.593237 129.086233 
L 324.808408 128.857902 
L 326.02358 129.068909 
L 327.238752 128.976793 
L 328.453924 129.297481 
L 330.884267 129.10684 
L 334.529783 129.476575 
L 335.744954 129.380504 
L 336.960126 129.132414 
L 338.175298 129.11051 
L 339.39047 129.410543 
L 340.605642 129.133194 
L 341.820813 129.381537 
L 344.251157 129.366236 
L 345.466329 129.276981 
L 346.6815 129.560766 
L 349.111844 129.422115 
L 350.327016 129.627759 
L 351.542188 129.559292 
L 352.757359 129.747952 
L 353.972531 129.573852 
L 355.187703 129.697413 
L 356.402875 129.650003 
L 357.618047 129.895575 
L 358.833218 129.990591 
L 361.263562 129.723319 
L 364.909077 129.966473 
L 366.124249 129.679185 
L 368.554593 130.072138 
L 369.769764 129.847145 
L 370.984936 130.004408 
L 372.200108 129.811447 
L 373.41528 130.032782 
L 377.060795 130.041403 
L 378.275967 130.330486 
L 379.491139 130.192616 
L 380.70631 130.360499 
L 381.921482 130.076526 
L 383.136654 130.309043 
L 389.212513 130.368135 
L 390.427685 130.505539 
L 391.642856 130.358964 
L 392.858028 130.58675 
L 394.0732 130.254969 
L 396.503544 130.540841 
L 397.718715 130.381326 
L 400.149059 130.56391 
L 401.364231 130.477536 
L 402.579403 130.60876 
L 405.009746 130.52361 
L 407.44009 130.666214 
L 408.655261 130.644888 
L 409.870433 130.897263 
L 411.085605 130.903779 
L 412.300777 130.560372 
L 413.515949 130.826354 
L 415.946292 130.663719 
L 417.161464 130.9425 
L 418.376636 130.843307 
L 419.591808 131.008203 
L 422.022151 130.950728 
L 424.452495 131.051329 
L 425.667666 130.73272 
L 426.882838 131.203636 
L 428.09801 130.980342 
L 429.313182 130.885981 
L 429.313182 130.885981 
" style="fill:none;stroke:#0000ff;stroke-linecap:square;stroke-width:1.5;"/>
   </g>
   <g id="line2d_14">
    <path clip-path="url(#p5f1f3cb244)" d="M 65.976818 56.413374 
L 67.19199 71.209415 
L 68.407162 78.515545 
L 69.622334 83.273473 
L 70.837505 85.970973 
L 72.052677 90.260549 
L 73.267849 92.008277 
L 75.698192 96.271256 
L 76.913364 98.02676 
L 78.128536 98.854101 
L 79.343708 100.718981 
L 80.55888 101.718553 
L 81.774051 101.853716 
L 84.204395 103.957947 
L 85.419567 104.668396 
L 86.634739 105.02174 
L 87.84991 106.055375 
L 89.065082 106.226568 
L 90.280254 106.668912 
L 91.495426 107.30238 
L 92.710597 108.264533 
L 93.925769 108.246367 
L 95.140941 107.347096 
L 96.356113 108.563952 
L 97.571285 109.569727 
L 98.786456 109.742196 
L 100.001628 110.399393 
L 101.2168 110.118202 
L 102.431972 110.57925 
L 103.647144 110.918644 
L 104.862315 111.122613 
L 107.292659 111.765544 
L 108.507831 111.924877 
L 109.723002 112.515355 
L 112.153346 112.204811 
L 113.368518 112.968311 
L 114.58369 113.230605 
L 115.798861 112.004019 
L 117.014033 113.399966 
L 119.444377 114.130527 
L 120.659548 114.108147 
L 121.87472 113.793081 
L 123.089892 114.33603 
L 124.305064 114.43828 
L 125.520236 114.083838 
L 126.735407 114.388585 
L 127.950579 115.187396 
L 129.165751 114.787616 
L 130.380923 115.349843 
L 131.596095 115.106299 
L 137.671953 116.175799 
L 138.887125 116.282305 
L 140.102297 116.110706 
L 141.317469 116.382253 
L 142.532641 116.200458 
L 143.747812 116.527267 
L 146.178156 116.552961 
L 147.393328 117.10835 
L 148.6085 116.626849 
L 149.823671 117.033241 
L 151.038843 117.168447 
L 152.254015 117.496829 
L 153.469187 117.006539 
L 154.684358 117.372984 
L 155.89953 117.012431 
L 157.114702 117.372095 
L 158.329874 117.59772 
L 159.545046 117.251674 
L 160.760217 117.584521 
L 163.190561 117.838426 
L 164.405733 117.85753 
L 165.620905 118.140444 
L 166.836076 117.851711 
L 168.051248 118.172236 
L 170.481592 118.377332 
L 171.696763 118.247227 
L 172.911935 118.335929 
L 174.127107 118.220174 
L 175.342279 118.611421 
L 176.557451 118.614032 
L 177.772622 118.798507 
L 178.987794 118.666974 
L 180.202966 118.828886 
L 182.63331 118.887992 
L 183.848481 119.072286 
L 185.063653 118.996011 
L 187.493997 119.147837 
L 188.709168 119.414498 
L 189.92434 119.303007 
L 191.139512 119.317033 
L 192.354684 119.586766 
L 193.569856 119.36185 
L 198.430543 119.636354 
L 199.645715 119.843879 
L 200.860886 119.721867 
L 202.076058 119.873747 
L 203.29123 119.890329 
L 204.506402 120.018211 
L 205.721573 119.548772 
L 206.936745 120.073491 
L 208.151917 119.84095 
L 209.367089 120.112259 
L 213.012604 120.274698 
L 214.227776 119.822543 
L 215.442948 120.228916 
L 216.658119 120.357479 
L 217.873291 120.205241 
L 220.303635 120.517229 
L 221.518807 120.312871 
L 222.733978 120.496278 
L 223.94915 120.45655 
L 225.164322 120.54873 
L 226.379494 120.767191 
L 230.025009 120.702156 
L 231.240181 120.622233 
L 232.455353 120.682841 
L 233.670524 120.903855 
L 234.885696 120.598929 
L 236.100868 120.879656 
L 238.531212 120.939834 
L 239.746383 120.851523 
L 242.176727 120.892584 
L 243.391899 121.17673 
L 244.607071 121.098137 
L 248.252586 121.401159 
L 249.467758 121.201167 
L 250.682929 121.162459 
L 256.758788 121.547733 
L 257.97396 121.486499 
L 259.189132 121.575679 
L 260.404304 121.373821 
L 262.834647 121.64651 
L 266.480163 121.575234 
L 268.910506 121.754475 
L 273.771193 121.771943 
L 276.201537 121.699209 
L 277.416709 121.956892 
L 279.847052 122.026908 
L 282.277396 122.036004 
L 283.492568 122.098874 
L 285.922911 121.84903 
L 287.138083 122.200677 
L 288.353255 121.997064 
L 289.568427 122.298087 
L 294.429114 122.19631 
L 295.644285 122.345635 
L 298.074629 122.239321 
L 299.289801 122.305237 
L 300.504973 122.203974 
L 301.720144 122.495857 
L 302.935316 122.265031 
L 304.150488 122.470535 
L 305.36566 122.233661 
L 306.580832 122.336243 
L 307.796003 122.596277 
L 309.011175 122.330169 
L 310.226347 122.599648 
L 311.441519 122.626398 
L 312.65669 122.429992 
L 313.871862 122.424609 
L 315.087034 122.714926 
L 316.302206 122.621394 
L 317.517378 122.718369 
L 318.732549 122.58537 
L 319.947721 122.833615 
L 321.162893 122.834723 
L 322.378065 122.659968 
L 323.593237 122.767255 
L 324.808408 122.725611 
L 327.238752 122.770941 
L 329.669095 122.646031 
L 330.884267 122.907563 
L 333.314611 122.839524 
L 334.529783 123.000234 
L 336.960126 122.80986 
L 340.605642 123.115838 
L 341.820813 122.937656 
L 343.035985 122.988126 
L 344.251157 123.160979 
L 351.542188 123.169766 
L 355.187703 123.345931 
L 358.833218 123.205294 
L 360.04839 123.326608 
L 366.124249 123.345891 
L 367.339421 123.469467 
L 368.554593 123.371494 
L 369.769764 123.461977 
L 370.984936 123.324849 
L 372.200108 123.516072 
L 373.41528 123.442949 
L 378.275967 123.566208 
L 380.70631 123.383855 
L 381.921482 123.657321 
L 383.136654 123.505789 
L 384.351826 123.662686 
L 385.566998 123.504123 
L 386.782169 123.70957 
L 389.212513 123.564531 
L 390.427685 123.747505 
L 392.858028 123.668311 
L 394.0732 123.845342 
L 395.288372 123.723192 
L 396.503544 123.879263 
L 397.718715 123.886707 
L 398.933887 123.759647 
L 400.149059 123.835712 
L 401.364231 123.742889 
L 402.579403 123.788479 
L 403.794574 123.710065 
L 406.224918 123.984513 
L 408.655261 123.875993 
L 409.870433 124.042622 
L 412.300777 123.892844 
L 414.73112 124.028207 
L 415.946292 123.897068 
L 417.161464 124.104356 
L 418.376636 123.842555 
L 419.591808 124.024136 
L 422.022151 123.975301 
L 423.237323 124.087605 
L 424.452495 124.003997 
L 425.667666 124.108381 
L 426.882838 124.008892 
L 428.09801 124.201591 
L 429.313182 124.147282 
L 429.313182 124.147282 
" style="fill:none;stroke:#ffa500;stroke-linecap:square;stroke-width:1.5;"/>
   </g>
   <g id="patch_3">
    <path d="M 47.81 136.24 
L 47.81 25.44 
" style="fill:none;stroke:#000000;stroke-linecap:square;stroke-linejoin:miter;stroke-width:0.8;"/>
   </g>
   <g id="patch_4">
    <path d="M 447.48 136.24 
L 447.48 25.44 
" style="fill:none;stroke:#000000;stroke-linecap:square;stroke-linejoin:miter;stroke-width:0.8;"/>
   </g>
   <g id="patch_5">
    <path d="M 47.81 136.24 
L 447.48 136.24 
" style="fill:none;stroke:#000000;stroke-linecap:square;stroke-linejoin:miter;stroke-width:0.8;"/>
   </g>
   <g id="patch_6">
    <path d="M 47.81 25.44 
L 447.48 25.44 
" style="fill:none;stroke:#000000;stroke-linecap:square;stroke-linejoin:miter;stroke-width:0.8;"/>
   </g>
   <g id="text_15">
    <!-- model loss -->
    <defs>
     <path d="M 52 44.1875 
Q 55.375 50.25 60.0625 53.125 
Q 64.75 56 71.09375 56 
Q 79.640625 56 84.28125 50.015625 
Q 88.921875 44.046875 88.921875 33.015625 
L 88.921875 0 
L 79.890625 0 
L 79.890625 32.71875 
Q 79.890625 40.578125 77.09375 44.375 
Q 74.3125 48.1875 68.609375 48.1875 
Q 61.625 48.1875 57.5625 43.546875 
Q 53.515625 38.921875 53.515625 30.90625 
L 53.515625 0 
L 44.484375 0 
L 44.484375 32.71875 
Q 44.484375 40.625 41.703125 44.40625 
Q 38.921875 48.1875 33.109375 48.1875 
Q 26.21875 48.1875 22.15625 43.53125 
Q 18.109375 38.875 18.109375 30.90625 
L 18.109375 0 
L 9.078125 0 
L 9.078125 54.6875 
L 18.109375 54.6875 
L 18.109375 46.1875 
Q 21.1875 51.21875 25.484375 53.609375 
Q 29.78125 56 35.6875 56 
Q 41.65625 56 45.828125 52.96875 
Q 50 49.953125 52 44.1875 
z
" id="DejaVuSans-109"/>
     <path d="M 45.40625 46.390625 
L 45.40625 75.984375 
L 54.390625 75.984375 
L 54.390625 0 
L 45.40625 0 
L 45.40625 8.203125 
Q 42.578125 3.328125 38.25 0.953125 
Q 33.9375 -1.421875 27.875 -1.421875 
Q 17.96875 -1.421875 11.734375 6.484375 
Q 5.515625 14.40625 5.515625 27.296875 
Q 5.515625 40.1875 11.734375 48.09375 
Q 17.96875 56 27.875 56 
Q 33.9375 56 38.25 53.625 
Q 42.578125 51.265625 45.40625 46.390625 
z
M 14.796875 27.296875 
Q 14.796875 17.390625 18.875 11.75 
Q 22.953125 6.109375 30.078125 6.109375 
Q 37.203125 6.109375 41.296875 11.75 
Q 45.40625 17.390625 45.40625 27.296875 
Q 45.40625 37.203125 41.296875 42.84375 
Q 37.203125 48.484375 30.078125 48.484375 
Q 22.953125 48.484375 18.875 42.84375 
Q 14.796875 37.203125 14.796875 27.296875 
z
" id="DejaVuSans-100"/>
     <path id="DejaVuSans-32"/>
    </defs>
    <g transform="translate(215.465313 19.44)scale(0.12 -0.12)">
     <use xlink:href="#DejaVuSans-109"/>
     <use x="97.412109" xlink:href="#DejaVuSans-111"/>
     <use x="158.59375" xlink:href="#DejaVuSans-100"/>
     <use x="222.070312" xlink:href="#DejaVuSans-101"/>
     <use x="283.59375" xlink:href="#DejaVuSans-108"/>
     <use x="311.376953" xlink:href="#DejaVuSans-32"/>
     <use x="343.164062" xlink:href="#DejaVuSans-108"/>
     <use x="370.947266" xlink:href="#DejaVuSans-111"/>
     <use x="432.128906" xlink:href="#DejaVuSans-115"/>
     <use x="484.228516" xlink:href="#DejaVuSans-115"/>
    </g>
   </g>
   <g id="legend_1">
    <g id="patch_7">
     <path d="M 54.81 62.79625 
L 110.085 62.79625 
Q 112.085 62.79625 112.085 60.79625 
L 112.085 32.44 
Q 112.085 30.44 110.085 30.44 
L 54.81 30.44 
Q 52.81 30.44 52.81 32.44 
L 52.81 60.79625 
Q 52.81 62.79625 54.81 62.79625 
z
" style="fill:#ffffff;opacity:0.8;stroke:#cccccc;stroke-linejoin:miter;"/>
    </g>
    <g id="line2d_15">
     <path d="M 56.81 38.538437 
L 76.81 38.538437 
" style="fill:none;stroke:#0000ff;stroke-linecap:square;stroke-width:1.5;"/>
    </g>
    <g id="line2d_16"/>
    <g id="text_16">
     <!-- train -->
     <defs>
      <path d="M 18.3125 70.21875 
L 18.3125 54.6875 
L 36.8125 54.6875 
L 36.8125 47.703125 
L 18.3125 47.703125 
L 18.3125 18.015625 
Q 18.3125 11.328125 20.140625 9.421875 
Q 21.96875 7.515625 27.59375 7.515625 
L 36.8125 7.515625 
L 36.8125 0 
L 27.59375 0 
Q 17.1875 0 13.234375 3.875 
Q 9.28125 7.765625 9.28125 18.015625 
L 9.28125 47.703125 
L 2.6875 47.703125 
L 2.6875 54.6875 
L 9.28125 54.6875 
L 9.28125 70.21875 
z
" id="DejaVuSans-116"/>
      <path d="M 41.109375 46.296875 
Q 39.59375 47.171875 37.8125 47.578125 
Q 36.03125 48 33.890625 48 
Q 26.265625 48 22.1875 43.046875 
Q 18.109375 38.09375 18.109375 28.8125 
L 18.109375 0 
L 9.078125 0 
L 9.078125 54.6875 
L 18.109375 54.6875 
L 18.109375 46.1875 
Q 20.953125 51.171875 25.484375 53.578125 
Q 30.03125 56 36.53125 56 
Q 37.453125 56 38.578125 55.875 
Q 39.703125 55.765625 41.0625 55.515625 
z
" id="DejaVuSans-114"/>
      <path d="M 34.28125 27.484375 
Q 23.390625 27.484375 19.1875 25 
Q 14.984375 22.515625 14.984375 16.5 
Q 14.984375 11.71875 18.140625 8.90625 
Q 21.296875 6.109375 26.703125 6.109375 
Q 34.1875 6.109375 38.703125 11.40625 
Q 43.21875 16.703125 43.21875 25.484375 
L 43.21875 27.484375 
z
M 52.203125 31.203125 
L 52.203125 0 
L 43.21875 0 
L 43.21875 8.296875 
Q 40.140625 3.328125 35.546875 0.953125 
Q 30.953125 -1.421875 24.3125 -1.421875 
Q 15.921875 -1.421875 10.953125 3.296875 
Q 6 8.015625 6 15.921875 
Q 6 25.140625 12.171875 29.828125 
Q 18.359375 34.515625 30.609375 34.515625 
L 43.21875 34.515625 
L 43.21875 35.40625 
Q 43.21875 41.609375 39.140625 45 
Q 35.0625 48.390625 27.6875 48.390625 
Q 23 48.390625 18.546875 47.265625 
Q 14.109375 46.140625 10.015625 43.890625 
L 10.015625 52.203125 
Q 14.9375 54.109375 19.578125 55.046875 
Q 24.21875 56 28.609375 56 
Q 40.484375 56 46.34375 49.84375 
Q 52.203125 43.703125 52.203125 31.203125 
z
" id="DejaVuSans-97"/>
      <path d="M 9.421875 54.6875 
L 18.40625 54.6875 
L 18.40625 0 
L 9.421875 0 
z
M 9.421875 75.984375 
L 18.40625 75.984375 
L 18.40625 64.59375 
L 9.421875 64.59375 
z
" id="DejaVuSans-105"/>
      <path d="M 54.890625 33.015625 
L 54.890625 0 
L 45.90625 0 
L 45.90625 32.71875 
Q 45.90625 40.484375 42.875 44.328125 
Q 39.84375 48.1875 33.796875 48.1875 
Q 26.515625 48.1875 22.3125 43.546875 
Q 18.109375 38.921875 18.109375 30.90625 
L 18.109375 0 
L 9.078125 0 
L 9.078125 54.6875 
L 18.109375 54.6875 
L 18.109375 46.1875 
Q 21.34375 51.125 25.703125 53.5625 
Q 30.078125 56 35.796875 56 
Q 45.21875 56 50.046875 50.171875 
Q 54.890625 44.34375 54.890625 33.015625 
z
" id="DejaVuSans-110"/>
     </defs>
     <g transform="translate(84.81 42.038437)scale(0.1 -0.1)">
      <use xlink:href="#DejaVuSans-116"/>
      <use x="39.208984" xlink:href="#DejaVuSans-114"/>
      <use x="80.322266" xlink:href="#DejaVuSans-97"/>
      <use x="141.601562" xlink:href="#DejaVuSans-105"/>
      <use x="169.384766" xlink:href="#DejaVuSans-110"/>
     </g>
    </g>
    <g id="line2d_17">
     <path d="M 56.81 53.216563 
L 76.81 53.216563 
" style="fill:none;stroke:#ffa500;stroke-linecap:square;stroke-width:1.5;"/>
    </g>
    <g id="line2d_18"/>
    <g id="text_17">
     <!-- test -->
     <g transform="translate(84.81 56.716563)scale(0.1 -0.1)">
      <use xlink:href="#DejaVuSans-116"/>
      <use x="39.208984" xlink:href="#DejaVuSans-101"/>
      <use x="100.732422" xlink:href="#DejaVuSans-115"/>
      <use x="152.832031" xlink:href="#DejaVuSans-116"/>
     </g>
    </g>
   </g>
  </g>
  <g id="axes_2">
   <g id="patch_8">
    <path d="M 47.81 303.64 
L 447.48 303.64 
L 447.48 192.84 
L 47.81 192.84 
z
" style="fill:#ffffff;"/>
   </g>
   <g id="matplotlib.axis_3">
    <g id="xtick_8">
     <g id="line2d_19">
      <g>
       <use style="stroke:#000000;stroke-width:0.8;" x="65.976818" xlink:href="#m5d45cf6273" y="303.64"/>
      </g>
     </g>
     <g id="text_18">
      <!-- 0 -->
      <g transform="translate(62.795568 318.238437)scale(0.1 -0.1)">
       <use xlink:href="#DejaVuSans-48"/>
      </g>
     </g>
    </g>
    <g id="xtick_9">
     <g id="line2d_20">
      <g>
       <use style="stroke:#000000;stroke-width:0.8;" x="126.735407" xlink:href="#m5d45cf6273" y="303.64"/>
      </g>
     </g>
     <g id="text_19">
      <!-- 50 -->
      <g transform="translate(120.372907 318.238437)scale(0.1 -0.1)">
       <use xlink:href="#DejaVuSans-53"/>
       <use x="63.623047" xlink:href="#DejaVuSans-48"/>
      </g>
     </g>
    </g>
    <g id="xtick_10">
     <g id="line2d_21">
      <g>
       <use style="stroke:#000000;stroke-width:0.8;" x="187.493997" xlink:href="#m5d45cf6273" y="303.64"/>
      </g>
     </g>
     <g id="text_20">
      <!-- 100 -->
      <g transform="translate(177.950247 318.238437)scale(0.1 -0.1)">
       <use xlink:href="#DejaVuSans-49"/>
       <use x="63.623047" xlink:href="#DejaVuSans-48"/>
       <use x="127.246094" xlink:href="#DejaVuSans-48"/>
      </g>
     </g>
    </g>
    <g id="xtick_11">
     <g id="line2d_22">
      <g>
       <use style="stroke:#000000;stroke-width:0.8;" x="248.252586" xlink:href="#m5d45cf6273" y="303.64"/>
      </g>
     </g>
     <g id="text_21">
      <!-- 150 -->
      <g transform="translate(238.708836 318.238437)scale(0.1 -0.1)">
       <use xlink:href="#DejaVuSans-49"/>
       <use x="63.623047" xlink:href="#DejaVuSans-53"/>
       <use x="127.246094" xlink:href="#DejaVuSans-48"/>
      </g>
     </g>
    </g>
    <g id="xtick_12">
     <g id="line2d_23">
      <g>
       <use style="stroke:#000000;stroke-width:0.8;" x="309.011175" xlink:href="#m5d45cf6273" y="303.64"/>
      </g>
     </g>
     <g id="text_22">
      <!-- 200 -->
      <g transform="translate(299.467425 318.238437)scale(0.1 -0.1)">
       <use xlink:href="#DejaVuSans-50"/>
       <use x="63.623047" xlink:href="#DejaVuSans-48"/>
       <use x="127.246094" xlink:href="#DejaVuSans-48"/>
      </g>
     </g>
    </g>
    <g id="xtick_13">
     <g id="line2d_24">
      <g>
       <use style="stroke:#000000;stroke-width:0.8;" x="369.769764" xlink:href="#m5d45cf6273" y="303.64"/>
      </g>
     </g>
     <g id="text_23">
      <!-- 250 -->
      <g transform="translate(360.226014 318.238437)scale(0.1 -0.1)">
       <use xlink:href="#DejaVuSans-50"/>
       <use x="63.623047" xlink:href="#DejaVuSans-53"/>
       <use x="127.246094" xlink:href="#DejaVuSans-48"/>
      </g>
     </g>
    </g>
    <g id="xtick_14">
     <g id="line2d_25">
      <g>
       <use style="stroke:#000000;stroke-width:0.8;" x="430.528354" xlink:href="#m5d45cf6273" y="303.64"/>
      </g>
     </g>
     <g id="text_24">
      <!-- 300 -->
      <g transform="translate(420.984604 318.238437)scale(0.1 -0.1)">
       <use xlink:href="#DejaVuSans-51"/>
       <use x="63.623047" xlink:href="#DejaVuSans-48"/>
       <use x="127.246094" xlink:href="#DejaVuSans-48"/>
      </g>
     </g>
    </g>
    <g id="text_25">
     <!-- epoch -->
     <g transform="translate(232.416875 331.916562)scale(0.1 -0.1)">
      <use xlink:href="#DejaVuSans-101"/>
      <use x="61.523438" xlink:href="#DejaVuSans-112"/>
      <use x="125" xlink:href="#DejaVuSans-111"/>
      <use x="186.181641" xlink:href="#DejaVuSans-99"/>
      <use x="241.162109" xlink:href="#DejaVuSans-104"/>
     </g>
    </g>
   </g>
   <g id="matplotlib.axis_4">
    <g id="ytick_6">
     <g id="line2d_26">
      <g>
       <use style="stroke:#000000;stroke-width:0.8;" x="47.81" xlink:href="#m0bb54422ca" y="291.144922"/>
      </g>
     </g>
     <g id="text_26">
      <!-- 0.4 -->
      <g transform="translate(24.906875 294.944141)scale(0.1 -0.1)">
       <use xlink:href="#DejaVuSans-48"/>
       <use x="63.623047" xlink:href="#DejaVuSans-46"/>
       <use x="95.410156" xlink:href="#DejaVuSans-52"/>
      </g>
     </g>
    </g>
    <g id="ytick_7">
     <g id="line2d_27">
      <g>
       <use style="stroke:#000000;stroke-width:0.8;" x="47.81" xlink:href="#m0bb54422ca" y="262.058013"/>
      </g>
     </g>
     <g id="text_27">
      <!-- 0.5 -->
      <g transform="translate(24.906875 265.857232)scale(0.1 -0.1)">
       <use xlink:href="#DejaVuSans-48"/>
       <use x="63.623047" xlink:href="#DejaVuSans-46"/>
       <use x="95.410156" xlink:href="#DejaVuSans-53"/>
      </g>
     </g>
    </g>
    <g id="ytick_8">
     <g id="line2d_28">
      <g>
       <use style="stroke:#000000;stroke-width:0.8;" x="47.81" xlink:href="#m0bb54422ca" y="232.971104"/>
      </g>
     </g>
     <g id="text_28">
      <!-- 0.6 -->
      <g transform="translate(24.906875 236.770323)scale(0.1 -0.1)">
       <use xlink:href="#DejaVuSans-48"/>
       <use x="63.623047" xlink:href="#DejaVuSans-46"/>
       <use x="95.410156" xlink:href="#DejaVuSans-54"/>
      </g>
     </g>
    </g>
    <g id="ytick_9">
     <g id="line2d_29">
      <g>
       <use style="stroke:#000000;stroke-width:0.8;" x="47.81" xlink:href="#m0bb54422ca" y="203.884195"/>
      </g>
     </g>
     <g id="text_29">
      <!-- 0.7 -->
      <defs>
       <path d="M 8.203125 72.90625 
L 55.078125 72.90625 
L 55.078125 68.703125 
L 28.609375 0 
L 18.3125 0 
L 43.21875 64.59375 
L 8.203125 64.59375 
z
" id="DejaVuSans-55"/>
      </defs>
      <g transform="translate(24.906875 207.683414)scale(0.1 -0.1)">
       <use xlink:href="#DejaVuSans-48"/>
       <use x="63.623047" xlink:href="#DejaVuSans-46"/>
       <use x="95.410156" xlink:href="#DejaVuSans-55"/>
      </g>
     </g>
    </g>
    <g id="text_30">
     <!-- accuracy -->
     <defs>
      <path d="M 8.5 21.578125 
L 8.5 54.6875 
L 17.484375 54.6875 
L 17.484375 21.921875 
Q 17.484375 14.15625 20.5 10.265625 
Q 23.53125 6.390625 29.59375 6.390625 
Q 36.859375 6.390625 41.078125 11.03125 
Q 45.3125 15.671875 45.3125 23.6875 
L 45.3125 54.6875 
L 54.296875 54.6875 
L 54.296875 0 
L 45.3125 0 
L 45.3125 8.40625 
Q 42.046875 3.421875 37.71875 1 
Q 33.40625 -1.421875 27.6875 -1.421875 
Q 18.265625 -1.421875 13.375 4.4375 
Q 8.5 10.296875 8.5 21.578125 
z
M 31.109375 56 
z
" id="DejaVuSans-117"/>
      <path d="M 32.171875 -5.078125 
Q 28.375 -14.84375 24.75 -17.8125 
Q 21.140625 -20.796875 15.09375 -20.796875 
L 7.90625 -20.796875 
L 7.90625 -13.28125 
L 13.1875 -13.28125 
Q 16.890625 -13.28125 18.9375 -11.515625 
Q 21 -9.765625 23.484375 -3.21875 
L 25.09375 0.875 
L 2.984375 54.6875 
L 12.5 54.6875 
L 29.59375 11.921875 
L 46.6875 54.6875 
L 56.203125 54.6875 
z
" id="DejaVuSans-121"/>
     </defs>
     <g transform="translate(18.827187 270.799375)rotate(-90)scale(0.1 -0.1)">
      <use xlink:href="#DejaVuSans-97"/>
      <use x="61.279297" xlink:href="#DejaVuSans-99"/>
      <use x="116.259766" xlink:href="#DejaVuSans-99"/>
      <use x="171.240234" xlink:href="#DejaVuSans-117"/>
      <use x="234.619141" xlink:href="#DejaVuSans-114"/>
      <use x="275.732422" xlink:href="#DejaVuSans-97"/>
      <use x="337.011719" xlink:href="#DejaVuSans-99"/>
      <use x="391.992188" xlink:href="#DejaVuSans-121"/>
     </g>
    </g>
   </g>
   <g id="line2d_30">
    <path clip-path="url(#pcec96e14f6)" d="M 65.976818 298.603636 
L 67.19199 267.941186 
L 68.407162 259.575237 
L 70.837505 250.059663 
L 72.052677 246.022123 
L 74.483021 239.110519 
L 75.698192 236.83897 
L 76.913364 234.155357 
L 78.128536 232.759877 
L 80.55888 229.345628 
L 81.774051 228.244481 
L 82.989223 226.928645 
L 84.204395 225.844811 
L 87.84991 223.337797 
L 89.065082 222.423637 
L 92.710597 220.737289 
L 95.140941 219.746949 
L 96.356113 218.895118 
L 100.001628 217.804359 
L 101.2168 216.672047 
L 102.431972 216.969841 
L 103.647144 216.938677 
L 104.862315 215.982964 
L 107.292659 215.563974 
L 108.507831 214.764084 
L 110.938174 214.445513 
L 112.153346 213.870701 
L 113.368518 213.503651 
L 114.58369 213.85685 
L 115.798861 213.257798 
L 117.014033 213.074273 
L 118.229205 212.565252 
L 119.444377 212.631044 
L 123.089892 211.716884 
L 124.305064 211.845005 
L 125.520236 211.277118 
L 126.735407 211.017413 
L 127.950579 210.311017 
L 129.165751 210.937771 
L 130.380923 210.362958 
L 131.596095 210.823501 
L 132.811266 210.065163 
L 134.026438 210.304091 
L 135.24161 209.777757 
L 136.456782 209.950893 
L 137.671953 209.756981 
L 138.887125 209.376081 
L 140.102297 209.660024 
L 141.317469 209.192556 
L 142.532641 208.950165 
L 143.747812 208.946702 
L 144.962984 208.527712 
L 146.178156 208.787417 
L 147.393328 208.711237 
L 148.6085 208.139887 
L 149.823671 208.506936 
L 151.038843 208.056782 
L 152.254015 208.056782 
L 153.469187 207.831704 
L 154.684358 207.956362 
L 155.89953 207.956362 
L 157.114702 207.520059 
L 158.329874 207.748599 
L 159.545046 207.578925 
L 161.975389 206.689004 
L 163.190561 207.606627 
L 164.405733 207.118382 
L 165.620905 206.858678 
L 166.836076 207.083755 
L 168.051248 206.46739 
L 169.26642 206.224999 
L 170.481592 206.803274 
L 172.911935 206.360045 
L 174.127107 205.913353 
L 176.557451 206.041474 
L 177.772622 205.740217 
L 178.987794 205.875263 
L 181.418138 205.643261 
L 182.63331 206.20076 
L 183.848481 205.570543 
L 186.278825 205.522065 
L 188.709168 205.241584 
L 189.92434 204.794893 
L 191.139512 204.729101 
L 192.354684 205.251973 
L 193.569856 204.846833 
L 194.785027 204.79143 
L 196.000199 204.864147 
L 197.215371 204.645995 
L 199.645715 204.607905 
L 200.860886 204.659846 
L 202.076058 204.916088 
L 204.506402 204.282409 
L 205.721573 204.604443 
L 206.936745 204.209692 
L 210.582261 203.984614 
L 211.797432 204.344738 
L 214.227776 204.188915 
L 215.442948 203.884195 
L 217.873291 203.863419 
L 219.088463 203.312845 
L 220.303635 203.45828 
L 222.733978 203.215889 
L 223.94915 203.340547 
L 225.164322 203.053141 
L 226.379494 203.298994 
L 228.809837 202.834989 
L 230.025009 202.880004 
L 231.240181 202.675703 
L 232.455353 202.952722 
L 233.670524 202.900781 
L 234.885696 203.108544 
L 236.100868 202.755346 
L 237.31604 203.008125 
L 238.531212 203.070454 
L 239.746383 202.738033 
L 240.961555 202.983886 
L 242.176727 203.105082 
L 243.391899 202.672241 
L 247.037414 202.592598 
L 248.252586 202.426387 
L 249.467758 202.471403 
L 250.682929 202.177071 
L 251.898101 202.50603 
L 254.328445 202.405611 
L 255.543617 201.906978 
L 256.758788 201.70614 
L 257.97396 202.121667 
L 259.189132 202.031636 
L 260.404304 202.287878 
L 261.619476 201.823873 
L 262.834647 202.402148 
L 264.049819 201.951993 
L 265.264991 201.678438 
L 266.480163 201.785783 
L 267.695334 201.775394 
L 268.910506 202.035099 
L 270.125678 201.550317 
L 271.34085 201.491451 
L 272.556022 202.066263 
L 273.771193 201.221358 
L 274.986365 201.906978 
L 277.416709 201.816947 
L 278.631881 202.007397 
L 279.847052 200.965116 
L 281.062224 201.384106 
L 282.277396 201.429122 
L 284.707739 200.972042 
L 285.922911 201.422196 
L 287.138083 201.747693 
L 288.353255 201.328703 
L 289.568427 200.587679 
L 290.783598 200.646545 
L 291.99877 200.94434 
L 293.213942 201.082849 
L 294.429114 200.954728 
L 295.644285 200.660396 
L 296.859457 201.307926 
L 299.289801 200.978967 
L 301.720144 200.577291 
L 302.935316 201.366793 
L 304.150488 201.162492 
L 305.36566 200.622306 
L 306.580832 200.674247 
L 307.796003 200.521887 
L 309.011175 200.570365 
L 310.226347 200.740039 
L 311.441519 200.490723 
L 313.871862 201.027445 
L 315.087034 200.56344 
L 316.302206 200.404154 
L 318.732549 200.691561 
L 319.947721 200.099434 
L 321.162893 200.52535 
L 322.378065 200.293347 
L 327.238752 200.397229 
L 328.453924 199.749699 
L 329.669095 200.386841 
L 330.884267 200.057882 
L 332.099439 200.044031 
L 333.314611 200.210242 
L 334.529783 200.005941 
L 336.960126 200.44917 
L 338.175298 200.459558 
L 340.605642 200.137524 
L 341.820813 199.521159 
L 343.035985 199.798177 
L 344.251157 199.898596 
L 345.466329 199.68737 
L 347.896672 199.908984 
L 350.327016 199.548861 
L 352.757359 199.836267 
L 353.972531 199.555786 
L 355.187703 199.507308 
L 357.618047 199.666594 
L 358.833218 199.507308 
L 360.04839 199.784326 
L 361.263562 199.760087 
L 362.478734 199.528084 
L 368.554593 199.396501 
L 369.769764 199.514234 
L 370.984936 199.361873 
L 372.200108 199.53501 
L 373.41528 199.1922 
L 375.845623 199.088318 
L 377.060795 199.49692 
L 378.275967 199.136796 
L 379.491139 199.289156 
L 381.921482 199.23029 
L 383.136654 198.814763 
L 384.351826 198.942884 
L 385.566998 199.202588 
L 386.782169 199.005213 
L 387.997341 198.662403 
L 389.212513 198.873629 
L 390.427685 199.209513 
L 391.642856 198.717806 
L 392.858028 198.662403 
L 394.0732 199.036377 
L 395.288372 198.77321 
L 396.503544 198.679716 
L 397.718715 198.866704 
L 398.933887 198.766284 
L 400.149059 198.537744 
L 401.364231 199.046765 
L 402.579403 198.499654 
L 405.009746 199.088318 
L 406.224918 198.222636 
L 407.44009 199.147184 
L 409.870433 198.291891 
L 411.085605 198.205323 
L 412.300777 198.655477 
L 413.515949 198.433863 
L 414.73112 198.444251 
L 415.946292 198.714344 
L 417.161464 197.876364 
L 418.376636 198.212248 
L 419.591808 198.080665 
L 420.806979 198.406161 
L 423.237323 198.260726 
L 425.667666 198.755896 
L 428.09801 198.264189 
L 429.313182 198.451176 
L 429.313182 198.451176 
" style="fill:none;stroke:#0000ff;stroke-linecap:square;stroke-width:1.5;"/>
   </g>
   <g id="line2d_31">
    <path clip-path="url(#pcec96e14f6)" d="M 65.976818 274.096761 
L 68.407162 257.711136 
L 70.837505 250.027344 
L 72.052677 244.605867 
L 75.698192 235.653563 
L 76.913364 233.964907 
L 78.128536 233.213495 
L 79.343708 231.379404 
L 81.774051 228.842379 
L 82.989223 227.371874 
L 84.204395 226.13568 
L 85.419567 226.992128 
L 86.634739 225.844811 
L 87.84991 224.899487 
L 89.065082 224.923726 
L 90.280254 224.390466 
L 91.495426 222.41902 
L 92.710597 222.451339 
L 93.925769 222.015035 
L 95.140941 224.236952 
L 96.356113 222.023115 
L 97.571285 220.803081 
L 100.001628 219.389134 
L 101.2168 220.075908 
L 102.431972 219.599206 
L 103.647144 219.413373 
L 104.862315 219.429532 
L 106.077487 218.775077 
L 107.292659 218.443809 
L 108.507831 217.983266 
L 109.723002 217.385369 
L 110.938174 218.346853 
L 112.153346 217.757035 
L 113.368518 217.385369 
L 114.58369 216.698595 
L 115.798861 219.098264 
L 117.014033 216.617798 
L 118.229205 216.431965 
L 119.444377 215.882545 
L 120.659548 216.852109 
L 121.87472 216.181494 
L 123.089892 215.123054 
L 124.305064 215.397763 
L 125.520236 216.068378 
L 126.735407 216.01182 
L 127.950579 214.048454 
L 129.165751 214.937221 
L 130.380923 214.444359 
L 131.596095 214.347403 
L 132.811266 214.832185 
L 134.026438 213.975737 
L 135.24161 213.62831 
L 136.456782 213.490955 
L 137.671953 213.741426 
L 138.887125 213.418238 
L 141.317469 213.765665 
L 142.532641 213.458636 
L 143.747812 213.030412 
L 144.962984 213.555593 
L 146.178156 213.329361 
L 147.393328 212.852659 
L 148.6085 213.054651 
L 149.823671 212.529471 
L 151.038843 212.715304 
L 152.254015 212.149725 
L 153.469187 212.893057 
L 154.684358 212.246682 
L 155.89953 212.82842 
L 157.114702 212.642587 
L 158.329874 211.826537 
L 159.545046 213.006173 
L 160.760217 211.75382 
L 161.975389 211.947733 
L 163.190561 212.384036 
L 164.405733 212.02045 
L 165.620905 211.915414 
L 166.836076 211.608386 
L 168.051248 211.689183 
L 169.26642 211.462951 
L 171.696763 211.430632 
L 172.911935 211.123604 
L 174.127107 211.519509 
L 175.342279 210.808496 
L 176.557451 211.034727 
L 177.772622 210.94585 
L 178.987794 210.97009 
L 180.202966 210.663061 
L 181.418138 210.800416 
L 183.848481 210.558025 
L 186.278825 210.97009 
L 188.709168 210.14596 
L 189.92434 210.299475 
L 191.139512 210.121721 
L 192.354684 210.113642 
L 193.569856 210.275236 
L 194.785027 210.226757 
L 196.000199 209.960127 
L 198.430543 209.952048 
L 199.645715 209.717737 
L 200.860886 209.935888 
L 203.29123 209.984367 
L 204.506402 209.645019 
L 205.721573 210.234837 
L 206.936745 209.426867 
L 208.151917 210.073243 
L 209.367089 209.410708 
L 210.582261 209.410708 
L 211.797432 209.653099 
L 213.012604 209.224875 
L 214.227776 209.968207 
L 215.442948 209.539983 
L 216.658119 209.645019 
L 217.873291 209.418788 
L 219.088463 209.410708 
L 220.303635 209.200636 
L 221.518807 209.572302 
L 222.733978 208.917847 
L 223.94915 209.313752 
L 225.164322 209.135998 
L 226.379494 208.788571 
L 227.594666 208.853209 
L 230.025009 208.788571 
L 232.455353 208.861289 
L 233.670524 208.683535 
L 234.885696 209.039042 
L 236.100868 208.618898 
L 237.31604 208.449224 
L 239.746383 208.764332 
L 242.176727 208.82897 
L 243.391899 208.206833 
L 245.822242 208.206833 
L 247.037414 207.988681 
L 248.252586 207.980602 
L 249.467758 208.328029 
L 251.898101 208.328029 
L 253.113273 207.980602 
L 255.543617 208.126036 
L 256.758788 207.899805 
L 259.189132 207.940203 
L 260.404304 208.134116 
L 261.619476 208.069478 
L 262.834647 207.883645 
L 264.049819 207.899805 
L 265.264991 208.117957 
L 267.695334 207.689733 
L 270.125678 207.76245 
L 271.34085 207.5039 
L 276.201537 207.948283 
L 277.416709 207.520059 
L 279.847052 207.301907 
L 281.062224 207.665494 
L 282.277396 207.350385 
L 283.492568 207.342306 
L 285.922911 207.730131 
L 287.138083 207.406943 
L 288.353255 207.722051 
L 289.568427 207.253429 
L 293.213942 207.705892 
L 295.644285 207.164552 
L 300.504973 207.528139 
L 301.720144 206.95448 
L 302.935316 207.350385 
L 304.150488 207.035277 
L 305.36566 207.520059 
L 306.580832 207.285748 
L 307.796003 206.69593 
L 309.011175 207.479661 
L 310.226347 206.655531 
L 311.441519 206.607053 
L 312.65669 207.245349 
L 313.871862 207.196871 
L 315.087034 206.526256 
L 316.302206 206.792886 
L 317.517378 206.67977 
L 318.732549 207.107995 
L 319.947721 206.68785 
L 321.162893 206.623213 
L 322.378065 207.107994 
L 323.593237 206.809046 
L 324.808408 207.035277 
L 326.02358 206.809046 
L 328.453924 206.825205 
L 329.669095 207.051437 
L 330.884267 206.744408 
L 333.314611 206.809046 
L 334.529783 206.469698 
L 336.960126 206.720169 
L 339.39047 206.542416 
L 341.820813 206.4293 
L 343.035985 206.526256 
L 344.251157 206.203068 
L 345.466329 206.267706 
L 346.6815 206.493938 
L 347.896672 206.550495 
L 349.111844 206.380822 
L 350.327016 206.485858 
L 351.542188 206.275786 
L 352.757359 206.203068 
L 353.972531 206.405061 
L 355.187703 206.057634 
L 356.402875 206.235387 
L 357.618047 206.15459 
L 358.833218 206.211148 
L 361.263562 206.081873 
L 364.909077 206.16267 
L 367.339421 205.89604 
L 368.554593 206.16267 
L 369.769764 206.057634 
L 370.984936 206.453539 
L 372.200108 206.114192 
L 373.41528 206.130351 
L 374.630452 205.871801 
L 375.845623 205.815243 
L 377.060795 205.597091 
L 378.275967 205.718287 
L 379.491139 205.968757 
L 380.70631 206.025315 
L 381.921482 205.734446 
L 383.136654 205.799084 
L 384.351826 205.726366 
L 385.566998 205.823323 
L 387.997341 205.63749 
L 389.212513 205.912199 
L 390.427685 205.580932 
L 391.642856 205.685968 
L 394.0732 205.435497 
L 395.288372 205.661729 
L 396.503544 205.508215 
L 397.718715 205.467816 
L 398.933887 205.589012 
L 400.149059 205.548613 
L 401.364231 205.726366 
L 403.794574 205.669808 
L 406.224918 205.233505 
L 408.655261 205.524374 
L 409.870433 205.37086 
L 411.085605 205.427418 
L 412.300777 205.742526 
L 414.73112 205.273903 
L 415.946292 205.508215 
L 417.161464 205.378939 
L 418.376636 205.516294 
L 422.022151 205.459736 
L 424.452495 205.37086 
L 426.882838 205.3547 
L 428.09801 205.055752 
L 429.313182 205.144628 
L 429.313182 205.144628 
" style="fill:none;stroke:#ffa500;stroke-linecap:square;stroke-width:1.5;"/>
   </g>
   <g id="patch_9">
    <path d="M 47.81 303.64 
L 47.81 192.84 
" style="fill:none;stroke:#000000;stroke-linecap:square;stroke-linejoin:miter;stroke-width:0.8;"/>
   </g>
   <g id="patch_10">
    <path d="M 447.48 303.64 
L 447.48 192.84 
" style="fill:none;stroke:#000000;stroke-linecap:square;stroke-linejoin:miter;stroke-width:0.8;"/>
   </g>
   <g id="patch_11">
    <path d="M 47.81 303.64 
L 447.48 303.64 
" style="fill:none;stroke:#000000;stroke-linecap:square;stroke-linejoin:miter;stroke-width:0.8;"/>
   </g>
   <g id="patch_12">
    <path d="M 47.81 192.84 
L 447.48 192.84 
" style="fill:none;stroke:#000000;stroke-linecap:square;stroke-linejoin:miter;stroke-width:0.8;"/>
   </g>
   <g id="text_31">
    <!-- model accuracy -->
    <g transform="translate(199.983438 186.84)scale(0.12 -0.12)">
     <use xlink:href="#DejaVuSans-109"/>
     <use x="97.412109" xlink:href="#DejaVuSans-111"/>
     <use x="158.59375" xlink:href="#DejaVuSans-100"/>
     <use x="222.070312" xlink:href="#DejaVuSans-101"/>
     <use x="283.59375" xlink:href="#DejaVuSans-108"/>
     <use x="311.376953" xlink:href="#DejaVuSans-32"/>
     <use x="343.164062" xlink:href="#DejaVuSans-97"/>
     <use x="404.443359" xlink:href="#DejaVuSans-99"/>
     <use x="459.423828" xlink:href="#DejaVuSans-99"/>
     <use x="514.404297" xlink:href="#DejaVuSans-117"/>
     <use x="577.783203" xlink:href="#DejaVuSans-114"/>
     <use x="618.896484" xlink:href="#DejaVuSans-97"/>
     <use x="680.175781" xlink:href="#DejaVuSans-99"/>
     <use x="735.15625" xlink:href="#DejaVuSans-121"/>
    </g>
   </g>
   <g id="legend_2">
    <g id="patch_13">
     <path d="M 54.81 230.19625 
L 110.085 230.19625 
Q 112.085 230.19625 112.085 228.19625 
L 112.085 199.84 
Q 112.085 197.84 110.085 197.84 
L 54.81 197.84 
Q 52.81 197.84 52.81 199.84 
L 52.81 228.19625 
Q 52.81 230.19625 54.81 230.19625 
z
" style="fill:#ffffff;opacity:0.8;stroke:#cccccc;stroke-linejoin:miter;"/>
    </g>
    <g id="line2d_32">
     <path d="M 56.81 205.938437 
L 76.81 205.938437 
" style="fill:none;stroke:#0000ff;stroke-linecap:square;stroke-width:1.5;"/>
    </g>
    <g id="line2d_33"/>
    <g id="text_32">
     <!-- train -->
     <g transform="translate(84.81 209.438437)scale(0.1 -0.1)">
      <use xlink:href="#DejaVuSans-116"/>
      <use x="39.208984" xlink:href="#DejaVuSans-114"/>
      <use x="80.322266" xlink:href="#DejaVuSans-97"/>
      <use x="141.601562" xlink:href="#DejaVuSans-105"/>
      <use x="169.384766" xlink:href="#DejaVuSans-110"/>
     </g>
    </g>
    <g id="line2d_34">
     <path d="M 56.81 220.616562 
L 76.81 220.616562 
" style="fill:none;stroke:#ffa500;stroke-linecap:square;stroke-width:1.5;"/>
    </g>
    <g id="line2d_35"/>
    <g id="text_33">
     <!-- test -->
     <g transform="translate(84.81 224.116562)scale(0.1 -0.1)">
      <use xlink:href="#DejaVuSans-116"/>
      <use x="39.208984" xlink:href="#DejaVuSans-101"/>
      <use x="100.732422" xlink:href="#DejaVuSans-115"/>
      <use x="152.832031" xlink:href="#DejaVuSans-116"/>
     </g>
    </g>
   </g>
  </g>
 </g>
 <defs>
  <clipPath id="p5f1f3cb244">
   <rect height="110.8" width="399.67" x="47.81" y="25.44"/>
  </clipPath>
  <clipPath id="pcec96e14f6">
   <rect height="110.8" width="399.67" x="47.81" y="192.84"/>
  </clipPath>
 </defs>
</svg>
