<?xml version="1.0" encoding="utf-8" standalone="no"?>
<!DOCTYPE svg PUBLIC "-//W3C//DTD SVG 1.1//EN"
  "http://www.w3.org/Graphics/SVG/1.1/DTD/svg11.dtd">
<!-- Created with matplotlib (https://matplotlib.org/) -->
<svg height="345.6pt" version="1.1" viewBox="0 0 460.8 345.6" width="460.8pt" xmlns="http://www.w3.org/2000/svg" xmlns:xlink="http://www.w3.org/1999/xlink">
 <defs>
  <style type="text/css">
*{stroke-linecap:butt;stroke-linejoin:round;}
  </style>
 </defs>
 <g id="figure_1">
  <g id="patch_1">
   <path d="M 0 345.6 
L 460.8 345.6 
L 460.8 0 
L 0 0 
z
" style="fill:#ffffff;"/>
  </g>
  <g id="axes_1">
   <g id="patch_2">
    <path d="M 47.72 136.24 
L 447.48 136.24 
L 447.48 25.44 
L 47.72 25.44 
z
" style="fill:#ffffff;"/>
   </g>
   <g id="matplotlib.axis_1">
    <g id="xtick_1">
     <g id="line2d_1">
      <defs>
       <path d="M 0 0 
L 0 3.5 
" id="m526b35e34f" style="stroke:#000000;stroke-width:0.8;"/>
      </defs>
      <g>
       <use style="stroke:#000000;stroke-width:0.8;" x="65.890909" xlink:href="#m526b35e34f" y="136.24"/>
      </g>
     </g>
     <g id="text_1">
      <!-- 0 -->
      <defs>
       <path d="M 31.78125 66.40625 
Q 24.171875 66.40625 20.328125 58.90625 
Q 16.5 51.421875 16.5 36.375 
Q 16.5 21.390625 20.328125 13.890625 
Q 24.171875 6.390625 31.78125 6.390625 
Q 39.453125 6.390625 43.28125 13.890625 
Q 47.125 21.390625 47.125 36.375 
Q 47.125 51.421875 43.28125 58.90625 
Q 39.453125 66.40625 31.78125 66.40625 
z
M 31.78125 74.21875 
Q 44.046875 74.21875 50.515625 64.515625 
Q 56.984375 54.828125 56.984375 36.375 
Q 56.984375 17.96875 50.515625 8.265625 
Q 44.046875 -1.421875 31.78125 -1.421875 
Q 19.53125 -1.421875 13.0625 8.265625 
Q 6.59375 17.96875 6.59375 36.375 
Q 6.59375 54.828125 13.0625 64.515625 
Q 19.53125 74.21875 31.78125 74.21875 
z
" id="DejaVuSans-48"/>
      </defs>
      <g transform="translate(62.709659 150.838437)scale(0.1 -0.1)">
       <use xlink:href="#DejaVuSans-48"/>
      </g>
     </g>
    </g>
    <g id="xtick_2">
     <g id="line2d_2">
      <g>
       <use style="stroke:#000000;stroke-width:0.8;" x="126.66318" xlink:href="#m526b35e34f" y="136.24"/>
      </g>
     </g>
     <g id="text_2">
      <!-- 50 -->
      <defs>
       <path d="M 10.796875 72.90625 
L 49.515625 72.90625 
L 49.515625 64.59375 
L 19.828125 64.59375 
L 19.828125 46.734375 
Q 21.96875 47.46875 24.109375 47.828125 
Q 26.265625 48.1875 28.421875 48.1875 
Q 40.625 48.1875 47.75 41.5 
Q 54.890625 34.8125 54.890625 23.390625 
Q 54.890625 11.625 47.5625 5.09375 
Q 40.234375 -1.421875 26.90625 -1.421875 
Q 22.3125 -1.421875 17.546875 -0.640625 
Q 12.796875 0.140625 7.71875 1.703125 
L 7.71875 11.625 
Q 12.109375 9.234375 16.796875 8.0625 
Q 21.484375 6.890625 26.703125 6.890625 
Q 35.15625 6.890625 40.078125 11.328125 
Q 45.015625 15.765625 45.015625 23.390625 
Q 45.015625 31 40.078125 35.4375 
Q 35.15625 39.890625 26.703125 39.890625 
Q 22.75 39.890625 18.8125 39.015625 
Q 14.890625 38.140625 10.796875 36.28125 
z
" id="DejaVuSans-53"/>
      </defs>
      <g transform="translate(120.30068 150.838437)scale(0.1 -0.1)">
       <use xlink:href="#DejaVuSans-53"/>
       <use x="63.623047" xlink:href="#DejaVuSans-48"/>
      </g>
     </g>
    </g>
    <g id="xtick_3">
     <g id="line2d_3">
      <g>
       <use style="stroke:#000000;stroke-width:0.8;" x="187.435452" xlink:href="#m526b35e34f" y="136.24"/>
      </g>
     </g>
     <g id="text_3">
      <!-- 100 -->
      <defs>
       <path d="M 12.40625 8.296875 
L 28.515625 8.296875 
L 28.515625 63.921875 
L 10.984375 60.40625 
L 10.984375 69.390625 
L 28.421875 72.90625 
L 38.28125 72.90625 
L 38.28125 8.296875 
L 54.390625 8.296875 
L 54.390625 0 
L 12.40625 0 
z
" id="DejaVuSans-49"/>
      </defs>
      <g transform="translate(177.891702 150.838437)scale(0.1 -0.1)">
       <use xlink:href="#DejaVuSans-49"/>
       <use x="63.623047" xlink:href="#DejaVuSans-48"/>
       <use x="127.246094" xlink:href="#DejaVuSans-48"/>
      </g>
     </g>
    </g>
    <g id="xtick_4">
     <g id="line2d_4">
      <g>
       <use style="stroke:#000000;stroke-width:0.8;" x="248.207723" xlink:href="#m526b35e34f" y="136.24"/>
      </g>
     </g>
     <g id="text_4">
      <!-- 150 -->
      <g transform="translate(238.663973 150.838437)scale(0.1 -0.1)">
       <use xlink:href="#DejaVuSans-49"/>
       <use x="63.623047" xlink:href="#DejaVuSans-53"/>
       <use x="127.246094" xlink:href="#DejaVuSans-48"/>
      </g>
     </g>
    </g>
    <g id="xtick_5">
     <g id="line2d_5">
      <g>
       <use style="stroke:#000000;stroke-width:0.8;" x="308.979994" xlink:href="#m526b35e34f" y="136.24"/>
      </g>
     </g>
     <g id="text_5">
      <!-- 200 -->
      <defs>
       <path d="M 19.1875 8.296875 
L 53.609375 8.296875 
L 53.609375 0 
L 7.328125 0 
L 7.328125 8.296875 
Q 12.9375 14.109375 22.625 23.890625 
Q 32.328125 33.6875 34.8125 36.53125 
Q 39.546875 41.84375 41.421875 45.53125 
Q 43.3125 49.21875 43.3125 52.78125 
Q 43.3125 58.59375 39.234375 62.25 
Q 35.15625 65.921875 28.609375 65.921875 
Q 23.96875 65.921875 18.8125 64.3125 
Q 13.671875 62.703125 7.8125 59.421875 
L 7.8125 69.390625 
Q 13.765625 71.78125 18.9375 73 
Q 24.125 74.21875 28.421875 74.21875 
Q 39.75 74.21875 46.484375 68.546875 
Q 53.21875 62.890625 53.21875 53.421875 
Q 53.21875 48.921875 51.53125 44.890625 
Q 49.859375 40.875 45.40625 35.40625 
Q 44.1875 33.984375 37.640625 27.21875 
Q 31.109375 20.453125 19.1875 8.296875 
z
" id="DejaVuSans-50"/>
      </defs>
      <g transform="translate(299.436244 150.838437)scale(0.1 -0.1)">
       <use xlink:href="#DejaVuSans-50"/>
       <use x="63.623047" xlink:href="#DejaVuSans-48"/>
       <use x="127.246094" xlink:href="#DejaVuSans-48"/>
      </g>
     </g>
    </g>
    <g id="xtick_6">
     <g id="line2d_6">
      <g>
       <use style="stroke:#000000;stroke-width:0.8;" x="369.752265" xlink:href="#m526b35e34f" y="136.24"/>
      </g>
     </g>
     <g id="text_6">
      <!-- 250 -->
      <g transform="translate(360.208515 150.838437)scale(0.1 -0.1)">
       <use xlink:href="#DejaVuSans-50"/>
       <use x="63.623047" xlink:href="#DejaVuSans-53"/>
       <use x="127.246094" xlink:href="#DejaVuSans-48"/>
      </g>
     </g>
    </g>
    <g id="xtick_7">
     <g id="line2d_7">
      <g>
       <use style="stroke:#000000;stroke-width:0.8;" x="430.524536" xlink:href="#m526b35e34f" y="136.24"/>
      </g>
     </g>
     <g id="text_7">
      <!-- 300 -->
      <defs>
       <path d="M 40.578125 39.3125 
Q 47.65625 37.796875 51.625 33 
Q 55.609375 28.21875 55.609375 21.1875 
Q 55.609375 10.40625 48.1875 4.484375 
Q 40.765625 -1.421875 27.09375 -1.421875 
Q 22.515625 -1.421875 17.65625 -0.515625 
Q 12.796875 0.390625 7.625 2.203125 
L 7.625 11.71875 
Q 11.71875 9.328125 16.59375 8.109375 
Q 21.484375 6.890625 26.8125 6.890625 
Q 36.078125 6.890625 40.9375 10.546875 
Q 45.796875 14.203125 45.796875 21.1875 
Q 45.796875 27.640625 41.28125 31.265625 
Q 36.765625 34.90625 28.71875 34.90625 
L 20.21875 34.90625 
L 20.21875 43.015625 
L 29.109375 43.015625 
Q 36.375 43.015625 40.234375 45.921875 
Q 44.09375 48.828125 44.09375 54.296875 
Q 44.09375 59.90625 40.109375 62.90625 
Q 36.140625 65.921875 28.71875 65.921875 
Q 24.65625 65.921875 20.015625 65.03125 
Q 15.375 64.15625 9.8125 62.3125 
L 9.8125 71.09375 
Q 15.4375 72.65625 20.34375 73.4375 
Q 25.25 74.21875 29.59375 74.21875 
Q 40.828125 74.21875 47.359375 69.109375 
Q 53.90625 64.015625 53.90625 55.328125 
Q 53.90625 49.265625 50.4375 45.09375 
Q 46.96875 40.921875 40.578125 39.3125 
z
" id="DejaVuSans-51"/>
      </defs>
      <g transform="translate(420.980786 150.838437)scale(0.1 -0.1)">
       <use xlink:href="#DejaVuSans-51"/>
       <use x="63.623047" xlink:href="#DejaVuSans-48"/>
       <use x="127.246094" xlink:href="#DejaVuSans-48"/>
      </g>
     </g>
    </g>
    <g id="text_8">
     <!-- epoch -->
     <defs>
      <path d="M 56.203125 29.59375 
L 56.203125 25.203125 
L 14.890625 25.203125 
Q 15.484375 15.921875 20.484375 11.0625 
Q 25.484375 6.203125 34.421875 6.203125 
Q 39.59375 6.203125 44.453125 7.46875 
Q 49.3125 8.734375 54.109375 11.28125 
L 54.109375 2.78125 
Q 49.265625 0.734375 44.1875 -0.34375 
Q 39.109375 -1.421875 33.890625 -1.421875 
Q 20.796875 -1.421875 13.15625 6.1875 
Q 5.515625 13.8125 5.515625 26.8125 
Q 5.515625 40.234375 12.765625 48.109375 
Q 20.015625 56 32.328125 56 
Q 43.359375 56 49.78125 48.890625 
Q 56.203125 41.796875 56.203125 29.59375 
z
M 47.21875 32.234375 
Q 47.125 39.59375 43.09375 43.984375 
Q 39.0625 48.390625 32.421875 48.390625 
Q 24.90625 48.390625 20.390625 44.140625 
Q 15.875 39.890625 15.1875 32.171875 
z
" id="DejaVuSans-101"/>
      <path d="M 18.109375 8.203125 
L 18.109375 -20.796875 
L 9.078125 -20.796875 
L 9.078125 54.6875 
L 18.109375 54.6875 
L 18.109375 46.390625 
Q 20.953125 51.265625 25.265625 53.625 
Q 29.59375 56 35.59375 56 
Q 45.5625 56 51.78125 48.09375 
Q 58.015625 40.1875 58.015625 27.296875 
Q 58.015625 14.40625 51.78125 6.484375 
Q 45.5625 -1.421875 35.59375 -1.421875 
Q 29.59375 -1.421875 25.265625 0.953125 
Q 20.953125 3.328125 18.109375 8.203125 
z
M 48.6875 27.296875 
Q 48.6875 37.203125 44.609375 42.84375 
Q 40.53125 48.484375 33.40625 48.484375 
Q 26.265625 48.484375 22.1875 42.84375 
Q 18.109375 37.203125 18.109375 27.296875 
Q 18.109375 17.390625 22.1875 11.75 
Q 26.265625 6.109375 33.40625 6.109375 
Q 40.53125 6.109375 44.609375 11.75 
Q 48.6875 17.390625 48.6875 27.296875 
z
" id="DejaVuSans-112"/>
      <path d="M 30.609375 48.390625 
Q 23.390625 48.390625 19.1875 42.75 
Q 14.984375 37.109375 14.984375 27.296875 
Q 14.984375 17.484375 19.15625 11.84375 
Q 23.34375 6.203125 30.609375 6.203125 
Q 37.796875 6.203125 41.984375 11.859375 
Q 46.1875 17.53125 46.1875 27.296875 
Q 46.1875 37.015625 41.984375 42.703125 
Q 37.796875 48.390625 30.609375 48.390625 
z
M 30.609375 56 
Q 42.328125 56 49.015625 48.375 
Q 55.71875 40.765625 55.71875 27.296875 
Q 55.71875 13.875 49.015625 6.21875 
Q 42.328125 -1.421875 30.609375 -1.421875 
Q 18.84375 -1.421875 12.171875 6.21875 
Q 5.515625 13.875 5.515625 27.296875 
Q 5.515625 40.765625 12.171875 48.375 
Q 18.84375 56 30.609375 56 
z
" id="DejaVuSans-111"/>
      <path d="M 48.78125 52.59375 
L 48.78125 44.1875 
Q 44.96875 46.296875 41.140625 47.34375 
Q 37.3125 48.390625 33.40625 48.390625 
Q 24.65625 48.390625 19.8125 42.84375 
Q 14.984375 37.3125 14.984375 27.296875 
Q 14.984375 17.28125 19.8125 11.734375 
Q 24.65625 6.203125 33.40625 6.203125 
Q 37.3125 6.203125 41.140625 7.25 
Q 44.96875 8.296875 48.78125 10.40625 
L 48.78125 2.09375 
Q 45.015625 0.34375 40.984375 -0.53125 
Q 36.96875 -1.421875 32.421875 -1.421875 
Q 20.0625 -1.421875 12.78125 6.34375 
Q 5.515625 14.109375 5.515625 27.296875 
Q 5.515625 40.671875 12.859375 48.328125 
Q 20.21875 56 33.015625 56 
Q 37.15625 56 41.109375 55.140625 
Q 45.0625 54.296875 48.78125 52.59375 
z
" id="DejaVuSans-99"/>
      <path d="M 54.890625 33.015625 
L 54.890625 0 
L 45.90625 0 
L 45.90625 32.71875 
Q 45.90625 40.484375 42.875 44.328125 
Q 39.84375 48.1875 33.796875 48.1875 
Q 26.515625 48.1875 22.3125 43.546875 
Q 18.109375 38.921875 18.109375 30.90625 
L 18.109375 0 
L 9.078125 0 
L 9.078125 75.984375 
L 18.109375 75.984375 
L 18.109375 46.1875 
Q 21.34375 51.125 25.703125 53.5625 
Q 30.078125 56 35.796875 56 
Q 45.21875 56 50.046875 50.171875 
Q 54.890625 44.34375 54.890625 33.015625 
z
" id="DejaVuSans-104"/>
     </defs>
     <g transform="translate(232.371875 164.516562)scale(0.1 -0.1)">
      <use xlink:href="#DejaVuSans-101"/>
      <use x="61.523438" xlink:href="#DejaVuSans-112"/>
      <use x="125" xlink:href="#DejaVuSans-111"/>
      <use x="186.181641" xlink:href="#DejaVuSans-99"/>
      <use x="241.162109" xlink:href="#DejaVuSans-104"/>
     </g>
    </g>
   </g>
   <g id="matplotlib.axis_2">
    <g id="ytick_1">
     <g id="line2d_8">
      <defs>
       <path d="M 0 0 
L -3.5 0 
" id="me989efb71b" style="stroke:#000000;stroke-width:0.8;"/>
      </defs>
      <g>
       <use style="stroke:#000000;stroke-width:0.8;" x="47.72" xlink:href="#me989efb71b" y="127.527543"/>
      </g>
     </g>
     <g id="text_9">
      <!-- 0.6 -->
      <defs>
       <path d="M 10.6875 12.40625 
L 21 12.40625 
L 21 0 
L 10.6875 0 
z
" id="DejaVuSans-46"/>
       <path d="M 33.015625 40.375 
Q 26.375 40.375 22.484375 35.828125 
Q 18.609375 31.296875 18.609375 23.390625 
Q 18.609375 15.53125 22.484375 10.953125 
Q 26.375 6.390625 33.015625 6.390625 
Q 39.65625 6.390625 43.53125 10.953125 
Q 47.40625 15.53125 47.40625 23.390625 
Q 47.40625 31.296875 43.53125 35.828125 
Q 39.65625 40.375 33.015625 40.375 
z
M 52.59375 71.296875 
L 52.59375 62.3125 
Q 48.875 64.0625 45.09375 64.984375 
Q 41.3125 65.921875 37.59375 65.921875 
Q 27.828125 65.921875 22.671875 59.328125 
Q 17.53125 52.734375 16.796875 39.40625 
Q 19.671875 43.65625 24.015625 45.921875 
Q 28.375 48.1875 33.59375 48.1875 
Q 44.578125 48.1875 50.953125 41.515625 
Q 57.328125 34.859375 57.328125 23.390625 
Q 57.328125 12.15625 50.6875 5.359375 
Q 44.046875 -1.421875 33.015625 -1.421875 
Q 20.359375 -1.421875 13.671875 8.265625 
Q 6.984375 17.96875 6.984375 36.375 
Q 6.984375 53.65625 15.1875 63.9375 
Q 23.390625 74.21875 37.203125 74.21875 
Q 40.921875 74.21875 44.703125 73.484375 
Q 48.484375 72.75 52.59375 71.296875 
z
" id="DejaVuSans-54"/>
      </defs>
      <g transform="translate(24.816875 131.326762)scale(0.1 -0.1)">
       <use xlink:href="#DejaVuSans-48"/>
       <use x="63.623047" xlink:href="#DejaVuSans-46"/>
       <use x="95.410156" xlink:href="#DejaVuSans-54"/>
      </g>
     </g>
    </g>
    <g id="ytick_2">
     <g id="line2d_9">
      <g>
       <use style="stroke:#000000;stroke-width:0.8;" x="47.72" xlink:href="#me989efb71b" y="103.911055"/>
      </g>
     </g>
     <g id="text_10">
      <!-- 0.8 -->
      <defs>
       <path d="M 31.78125 34.625 
Q 24.75 34.625 20.71875 30.859375 
Q 16.703125 27.09375 16.703125 20.515625 
Q 16.703125 13.921875 20.71875 10.15625 
Q 24.75 6.390625 31.78125 6.390625 
Q 38.8125 6.390625 42.859375 10.171875 
Q 46.921875 13.96875 46.921875 20.515625 
Q 46.921875 27.09375 42.890625 30.859375 
Q 38.875 34.625 31.78125 34.625 
z
M 21.921875 38.8125 
Q 15.578125 40.375 12.03125 44.71875 
Q 8.5 49.078125 8.5 55.328125 
Q 8.5 64.0625 14.71875 69.140625 
Q 20.953125 74.21875 31.78125 74.21875 
Q 42.671875 74.21875 48.875 69.140625 
Q 55.078125 64.0625 55.078125 55.328125 
Q 55.078125 49.078125 51.53125 44.71875 
Q 48 40.375 41.703125 38.8125 
Q 48.828125 37.15625 52.796875 32.3125 
Q 56.78125 27.484375 56.78125 20.515625 
Q 56.78125 9.90625 50.3125 4.234375 
Q 43.84375 -1.421875 31.78125 -1.421875 
Q 19.734375 -1.421875 13.25 4.234375 
Q 6.78125 9.90625 6.78125 20.515625 
Q 6.78125 27.484375 10.78125 32.3125 
Q 14.796875 37.15625 21.921875 38.8125 
z
M 18.3125 54.390625 
Q 18.3125 48.734375 21.84375 45.5625 
Q 25.390625 42.390625 31.78125 42.390625 
Q 38.140625 42.390625 41.71875 45.5625 
Q 45.3125 48.734375 45.3125 54.390625 
Q 45.3125 60.0625 41.71875 63.234375 
Q 38.140625 66.40625 31.78125 66.40625 
Q 25.390625 66.40625 21.84375 63.234375 
Q 18.3125 60.0625 18.3125 54.390625 
z
" id="DejaVuSans-56"/>
      </defs>
      <g transform="translate(24.816875 107.710273)scale(0.1 -0.1)">
       <use xlink:href="#DejaVuSans-48"/>
       <use x="63.623047" xlink:href="#DejaVuSans-46"/>
       <use x="95.410156" xlink:href="#DejaVuSans-56"/>
      </g>
     </g>
    </g>
    <g id="ytick_3">
     <g id="line2d_10">
      <g>
       <use style="stroke:#000000;stroke-width:0.8;" x="47.72" xlink:href="#me989efb71b" y="80.294566"/>
      </g>
     </g>
     <g id="text_11">
      <!-- 1.0 -->
      <g transform="translate(24.816875 84.093785)scale(0.1 -0.1)">
       <use xlink:href="#DejaVuSans-49"/>
       <use x="63.623047" xlink:href="#DejaVuSans-46"/>
       <use x="95.410156" xlink:href="#DejaVuSans-48"/>
      </g>
     </g>
    </g>
    <g id="ytick_4">
     <g id="line2d_11">
      <g>
       <use style="stroke:#000000;stroke-width:0.8;" x="47.72" xlink:href="#me989efb71b" y="56.678078"/>
      </g>
     </g>
     <g id="text_12">
      <!-- 1.2 -->
      <g transform="translate(24.816875 60.477297)scale(0.1 -0.1)">
       <use xlink:href="#DejaVuSans-49"/>
       <use x="63.623047" xlink:href="#DejaVuSans-46"/>
       <use x="95.410156" xlink:href="#DejaVuSans-50"/>
      </g>
     </g>
    </g>
    <g id="ytick_5">
     <g id="line2d_12">
      <g>
       <use style="stroke:#000000;stroke-width:0.8;" x="47.72" xlink:href="#me989efb71b" y="33.06159"/>
      </g>
     </g>
     <g id="text_13">
      <!-- 1.4 -->
      <defs>
       <path d="M 37.796875 64.3125 
L 12.890625 25.390625 
L 37.796875 25.390625 
z
M 35.203125 72.90625 
L 47.609375 72.90625 
L 47.609375 25.390625 
L 58.015625 25.390625 
L 58.015625 17.1875 
L 47.609375 17.1875 
L 47.609375 0 
L 37.796875 0 
L 37.796875 17.1875 
L 4.890625 17.1875 
L 4.890625 26.703125 
z
" id="DejaVuSans-52"/>
      </defs>
      <g transform="translate(24.816875 36.860809)scale(0.1 -0.1)">
       <use xlink:href="#DejaVuSans-49"/>
       <use x="63.623047" xlink:href="#DejaVuSans-46"/>
       <use x="95.410156" xlink:href="#DejaVuSans-52"/>
      </g>
     </g>
    </g>
    <g id="text_14">
     <!-- loss -->
     <defs>
      <path d="M 9.421875 75.984375 
L 18.40625 75.984375 
L 18.40625 0 
L 9.421875 0 
z
" id="DejaVuSans-108"/>
      <path d="M 44.28125 53.078125 
L 44.28125 44.578125 
Q 40.484375 46.53125 36.375 47.5 
Q 32.28125 48.484375 27.875 48.484375 
Q 21.1875 48.484375 17.84375 46.4375 
Q 14.5 44.390625 14.5 40.28125 
Q 14.5 37.15625 16.890625 35.375 
Q 19.28125 33.59375 26.515625 31.984375 
L 29.59375 31.296875 
Q 39.15625 29.25 43.1875 25.515625 
Q 47.21875 21.78125 47.21875 15.09375 
Q 47.21875 7.46875 41.1875 3.015625 
Q 35.15625 -1.421875 24.609375 -1.421875 
Q 20.21875 -1.421875 15.453125 -0.5625 
Q 10.6875 0.296875 5.421875 2 
L 5.421875 11.28125 
Q 10.40625 8.6875 15.234375 7.390625 
Q 20.0625 6.109375 24.8125 6.109375 
Q 31.15625 6.109375 34.5625 8.28125 
Q 37.984375 10.453125 37.984375 14.40625 
Q 37.984375 18.0625 35.515625 20.015625 
Q 33.0625 21.96875 24.703125 23.78125 
L 21.578125 24.515625 
Q 13.234375 26.265625 9.515625 29.90625 
Q 5.8125 33.546875 5.8125 39.890625 
Q 5.8125 47.609375 11.28125 51.796875 
Q 16.75 56 26.8125 56 
Q 31.78125 56 36.171875 55.265625 
Q 40.578125 54.546875 44.28125 53.078125 
z
" id="DejaVuSans-115"/>
     </defs>
     <g transform="translate(18.737188 90.497812)rotate(-90)scale(0.1 -0.1)">
      <use xlink:href="#DejaVuSans-108"/>
      <use x="27.783203" xlink:href="#DejaVuSans-111"/>
      <use x="88.964844" xlink:href="#DejaVuSans-115"/>
      <use x="141.064453" xlink:href="#DejaVuSans-115"/>
     </g>
    </g>
   </g>
   <g id="line2d_13">
    <path clip-path="url(#pdd963ef11e)" d="M 65.890909 30.476364 
L 67.106355 58.409171 
L 68.3218 68.140712 
L 69.537245 74.565326 
L 70.752691 79.441175 
L 71.968136 83.473302 
L 74.399027 89.208967 
L 75.614472 90.909912 
L 76.829918 93.098826 
L 78.045363 94.519372 
L 79.260809 96.25132 
L 81.6917 98.954452 
L 82.907145 100.777932 
L 84.12259 101.716156 
L 85.338036 102.498489 
L 86.553481 103.438579 
L 87.768927 104.613452 
L 88.984372 105.512345 
L 90.199818 106.641713 
L 91.415263 106.932766 
L 92.630708 108.084765 
L 93.846154 108.596665 
L 95.061599 109.327382 
L 97.49249 110.26432 
L 99.923381 111.427731 
L 101.138826 111.725815 
L 102.354272 112.457816 
L 103.569717 112.696578 
L 106.000608 113.565433 
L 107.216054 114.245197 
L 108.431499 113.988624 
L 109.646944 114.455429 
L 112.077835 115.583669 
L 113.293281 115.640865 
L 114.508726 115.943885 
L 115.724171 115.875397 
L 116.939617 116.349628 
L 118.155062 117.201031 
L 119.370508 116.812424 
L 120.585953 117.175877 
L 121.801399 117.898172 
L 123.016844 118.100704 
L 124.232289 117.924982 
L 125.447735 118.023468 
L 126.66318 118.344704 
L 127.878626 118.424047 
L 132.740407 119.336324 
L 133.955853 119.821358 
L 135.171298 119.829708 
L 136.386744 120.132603 
L 138.817635 120.265782 
L 140.03308 120.610466 
L 141.248525 120.481188 
L 142.463971 120.543947 
L 143.679416 120.762312 
L 144.894862 121.221455 
L 147.325753 121.120418 
L 148.541198 121.561439 
L 149.756643 121.371069 
L 150.972089 121.789055 
L 152.187534 121.868619 
L 153.40298 121.624302 
L 155.83387 122.135577 
L 157.049316 122.681076 
L 158.264761 122.725441 
L 159.480207 122.518637 
L 160.695652 122.634098 
L 161.911098 123.064798 
L 163.126543 122.940674 
L 164.341988 122.947449 
L 165.557434 122.81153 
L 166.772879 123.345203 
L 167.988325 123.434407 
L 169.20377 123.274761 
L 171.634661 123.454301 
L 172.850106 123.502732 
L 174.065552 123.878981 
L 175.280997 123.875545 
L 177.711888 124.323365 
L 178.927334 124.129045 
L 181.358224 124.297035 
L 182.57367 124.343869 
L 183.789115 124.580489 
L 185.004561 124.358234 
L 187.435452 124.671021 
L 188.650897 125.047741 
L 189.866342 124.628292 
L 191.081788 124.927555 
L 192.297233 125.002269 
L 193.512679 124.848212 
L 194.728124 125.326538 
L 195.943569 125.025029 
L 197.159015 125.242295 
L 198.37446 125.072938 
L 199.589906 125.26262 
L 200.805351 125.725609 
L 202.020797 125.812315 
L 203.236242 125.452715 
L 204.451687 125.728157 
L 205.667133 125.721504 
L 206.882578 125.901683 
L 208.098024 125.924045 
L 209.313469 126.19116 
L 210.528915 126.195628 
L 211.74436 126.057652 
L 212.959805 126.236967 
L 217.821587 126.136295 
L 220.252478 126.614605 
L 222.683369 126.278133 
L 223.898814 126.597402 
L 225.11426 126.630073 
L 226.329705 126.488664 
L 227.545151 126.583947 
L 228.760596 126.511647 
L 229.976041 126.901933 
L 232.406932 126.650864 
L 234.837823 126.948055 
L 236.053268 126.675543 
L 237.268714 127.071075 
L 238.484159 127.159625 
L 239.699605 126.974872 
L 240.91505 127.344187 
L 242.130496 127.035656 
L 243.345941 127.154195 
L 244.561386 127.462561 
L 245.776832 127.456463 
L 246.992277 127.15102 
L 248.207723 127.528007 
L 250.638614 127.516742 
L 251.854059 127.586019 
L 253.069504 127.948379 
L 255.500395 127.566532 
L 256.715841 127.663221 
L 257.931286 127.425447 
L 259.146732 128.03532 
L 260.362177 128.009057 
L 261.577622 127.690095 
L 264.008513 127.852224 
L 265.223959 128.361923 
L 266.439404 127.492262 
L 267.654849 127.875957 
L 268.870295 128.141496 
L 270.08574 128.26048 
L 271.301186 127.900233 
L 272.516631 128.292236 
L 273.732077 128.047759 
L 274.947522 128.542792 
L 278.593858 128.267012 
L 281.024749 128.620802 
L 282.240195 128.641651 
L 283.45564 128.39482 
L 285.886531 128.604356 
L 287.101976 128.296598 
L 288.317422 128.778176 
L 289.532867 128.619888 
L 290.748313 128.67303 
L 293.179203 128.357705 
L 294.394649 128.786308 
L 295.610094 129.054031 
L 301.687321 128.629563 
L 304.118212 129.055097 
L 305.333658 128.579339 
L 306.549103 129.173891 
L 307.764548 128.797239 
L 308.979994 129.103395 
L 310.195439 128.918464 
L 311.410885 129.147589 
L 312.62633 129.072696 
L 313.841776 129.350478 
L 315.057221 129.239443 
L 316.272666 129.421562 
L 317.488112 128.788102 
L 318.703557 129.024306 
L 319.919003 129.093035 
L 321.134448 128.970491 
L 322.349894 129.524442 
L 323.565339 128.915268 
L 324.780784 129.412554 
L 325.99623 129.239712 
L 327.211675 129.500175 
L 328.427121 129.209082 
L 330.858012 129.599108 
L 332.073457 129.458739 
L 333.288902 129.618255 
L 335.719793 129.484813 
L 336.935239 129.87654 
L 338.150684 129.666192 
L 339.36613 129.81346 
L 341.79702 129.576803 
L 343.012466 129.943682 
L 345.443357 129.51858 
L 346.658802 129.701251 
L 347.874247 129.624735 
L 350.305138 129.923924 
L 351.520584 129.631669 
L 352.736029 130.018005 
L 353.951475 129.910823 
L 355.16692 130.007859 
L 356.382365 129.952313 
L 358.813256 130.363552 
L 360.028702 130.248818 
L 361.244147 129.686872 
L 362.459593 129.807872 
L 363.675038 130.082771 
L 369.752265 130.145027 
L 370.967711 130.289046 
L 372.183156 130.137069 
L 373.398601 130.183262 
L 374.614047 130.473997 
L 375.829492 130.040585 
L 378.260383 130.503371 
L 379.475829 130.306753 
L 381.906719 130.258695 
L 383.122165 130.161356 
L 384.33761 130.402624 
L 385.553056 130.468749 
L 386.768501 129.918744 
L 387.983946 130.640927 
L 389.199392 130.375259 
L 390.414837 130.632886 
L 391.630283 130.7272 
L 392.845728 130.488563 
L 394.061174 130.815823 
L 396.492064 130.721014 
L 397.70751 130.511277 
L 400.138401 130.805503 
L 401.353846 130.696415 
L 402.569292 130.399537 
L 403.784737 131.017017 
L 406.215628 130.633019 
L 407.431073 130.672607 
L 408.646519 130.504832 
L 409.861964 130.695517 
L 411.07741 131.037967 
L 412.292855 131.126742 
L 413.5083 130.649541 
L 414.723746 131.029771 
L 415.939191 130.907911 
L 418.370082 131.093224 
L 419.585528 130.999603 
L 420.800973 130.654538 
L 422.016418 130.91399 
L 425.662755 130.917377 
L 428.093645 131.19965 
L 429.309091 131.203636 
L 429.309091 131.203636 
" style="fill:none;stroke:#0000ff;stroke-linecap:square;stroke-width:1.5;"/>
   </g>
   <g id="line2d_14">
    <path clip-path="url(#pdd963ef11e)" d="M 65.890909 50.264237 
L 67.106355 62.71309 
L 68.3218 70.094011 
L 69.537245 72.962566 
L 70.752691 79.511506 
L 71.968136 82.823597 
L 73.183582 84.75808 
L 74.399027 86.214954 
L 75.614472 88.944969 
L 76.829918 88.827648 
L 78.045363 91.716441 
L 79.260809 93.161152 
L 80.476254 93.905466 
L 81.6917 93.960969 
L 82.907145 95.504911 
L 86.553481 97.221768 
L 87.768927 99.401002 
L 88.984372 97.763445 
L 90.199818 97.974868 
L 91.415263 101.602873 
L 92.630708 99.17408 
L 93.846154 101.028414 
L 96.277045 100.913993 
L 97.49249 102.249223 
L 98.707936 101.968896 
L 99.923381 102.857832 
L 101.138826 102.372388 
L 102.354272 103.275403 
L 103.569717 102.358289 
L 104.785163 102.018996 
L 106.000608 102.596779 
L 107.216054 103.044782 
L 108.431499 103.678876 
L 110.86239 102.581397 
L 112.077835 103.134416 
L 113.293281 102.86202 
L 114.508726 104.762011 
L 115.724171 103.849529 
L 116.939617 102.543525 
L 118.155062 103.614506 
L 119.370508 98.969227 
L 120.585953 104.299509 
L 121.801399 103.439596 
L 123.016844 102.72042 
L 124.232289 102.179443 
L 126.66318 104.537361 
L 127.878626 103.276262 
L 130.309517 104.648582 
L 131.524962 104.609341 
L 132.740407 103.882072 
L 133.955853 103.84309 
L 135.171298 104.086295 
L 136.386744 104.666766 
L 137.602189 103.864233 
L 140.03308 103.335002 
L 141.248525 102.775524 
L 142.463971 102.91696 
L 143.679416 103.9358 
L 144.894862 103.929258 
L 146.110307 103.341014 
L 147.325753 104.604464 
L 148.541198 104.027993 
L 149.756643 103.597287 
L 150.972089 104.528327 
L 152.187534 103.836208 
L 153.40298 103.504076 
L 154.618425 104.713801 
L 155.83387 103.987251 
L 157.049316 104.86516 
L 158.264761 102.326135 
L 159.480207 104.717508 
L 160.695652 102.495103 
L 161.911098 103.277328 
L 163.126543 103.700712 
L 164.341988 104.95554 
L 165.557434 104.980062 
L 166.772879 103.768766 
L 167.988325 103.990236 
L 169.20377 102.37041 
L 170.419216 103.560135 
L 171.634661 103.345246 
L 172.850106 104.282395 
L 174.065552 102.09967 
L 175.280997 104.671219 
L 176.496443 103.441223 
L 177.711888 104.423062 
L 178.927334 103.946275 
L 180.142779 104.145728 
L 181.358224 103.831607 
L 182.57367 102.521851 
L 183.789115 103.961027 
L 185.004561 103.965615 
L 186.220006 103.097114 
L 187.435452 102.677029 
L 188.650897 101.213476 
L 189.866342 103.061192 
L 191.081788 102.227991 
L 192.297233 103.234217 
L 193.512679 103.832392 
L 194.728124 102.494271 
L 195.943569 103.96395 
L 197.159015 102.534722 
L 198.37446 102.296116 
L 199.589906 103.078946 
L 200.805351 101.905482 
L 202.020797 102.342794 
L 203.236242 103.168635 
L 204.451687 103.700492 
L 205.667133 102.427707 
L 208.098024 103.903749 
L 209.313469 103.342115 
L 210.528915 103.343094 
L 211.74436 103.463137 
L 212.959805 103.361232 
L 214.175251 102.573698 
L 215.390696 103.066343 
L 216.606142 103.314215 
L 217.821587 103.679762 
L 219.037033 103.714125 
L 220.252478 103.412941 
L 221.467923 103.397351 
L 222.683369 101.206992 
L 223.898814 103.41981 
L 225.11426 101.180754 
L 226.329705 102.458719 
L 227.545151 103.942543 
L 228.760596 103.787429 
L 229.976041 103.321453 
L 231.191487 103.873978 
L 232.406932 102.61626 
L 233.622378 102.325869 
L 234.837823 101.670171 
L 236.053268 102.729556 
L 237.268714 102.668153 
L 238.484159 103.257278 
L 239.699605 103.971173 
L 240.91505 102.482635 
L 242.130496 103.401231 
L 243.345941 102.290397 
L 245.776832 103.545729 
L 246.992277 103.004141 
L 248.207723 102.786745 
L 249.423168 103.262356 
L 250.638614 101.533046 
L 251.854059 103.208877 
L 253.069504 101.465698 
L 254.28495 102.374642 
L 255.500395 102.457447 
L 256.715841 102.673576 
L 259.146732 103.414201 
L 260.362177 101.452162 
L 261.577622 103.060099 
L 262.793068 102.774782 
L 264.008513 100.597398 
L 265.223959 102.844047 
L 266.439404 102.08964 
L 267.654849 101.490005 
L 268.870295 101.682122 
L 270.08574 103.356747 
L 271.301186 102.400435 
L 272.516631 101.851542 
L 273.732077 102.319156 
L 274.947522 103.239817 
L 276.162967 102.847914 
L 277.378413 103.252781 
L 278.593858 102.722194 
L 279.809304 102.582953 
L 281.024749 103.011545 
L 283.45564 102.544866 
L 284.671085 100.965338 
L 285.886531 101.617327 
L 287.101976 100.276157 
L 288.317422 102.566988 
L 289.532867 101.992164 
L 290.748313 102.000324 
L 291.963758 102.573909 
L 293.179203 101.744607 
L 294.394649 102.428618 
L 295.610094 100.90313 
L 296.82554 101.570689 
L 299.256431 101.390856 
L 300.471876 102.686634 
L 301.687321 101.941537 
L 302.902767 102.840639 
L 305.333658 101.884791 
L 306.549103 102.536906 
L 307.764548 102.485859 
L 308.979994 102.869065 
L 310.195439 102.237725 
L 311.410885 102.091102 
L 312.62633 100.818074 
L 313.841776 100.127016 
L 315.057221 102.100829 
L 316.272666 101.50359 
L 317.488112 102.673545 
L 319.919003 101.837715 
L 321.134448 100.752709 
L 322.349894 97.857266 
L 323.565339 100.392563 
L 324.780784 101.847752 
L 325.99623 99.868234 
L 327.211675 100.925093 
L 328.427121 102.280583 
L 329.642566 101.487555 
L 330.858012 101.715783 
L 332.073457 101.508692 
L 333.288902 101.437548 
L 334.504348 101.896371 
L 336.935239 101.436599 
L 338.150684 102.522853 
L 339.36613 101.208075 
L 340.581575 101.109287 
L 341.79702 100.773443 
L 344.227911 100.780953 
L 345.443357 101.896967 
L 346.658802 101.364453 
L 347.874247 101.680393 
L 349.089693 101.611389 
L 350.305138 101.243598 
L 351.520584 101.342093 
L 352.736029 102.085111 
L 353.951475 101.038835 
L 355.16692 100.837562 
L 356.382365 101.550526 
L 357.597811 101.838716 
L 358.813256 100.973315 
L 360.028702 97.98477 
L 361.244147 99.23304 
L 362.459593 101.273553 
L 363.675038 100.055254 
L 364.890483 100.305828 
L 366.105929 101.124448 
L 367.321374 100.717164 
L 368.53682 99.988466 
L 369.752265 100.548462 
L 370.967711 100.588423 
L 372.183156 99.653373 
L 373.398601 99.752586 
L 374.614047 101.015263 
L 377.044938 100.464128 
L 378.260383 100.07134 
L 379.475829 100.481483 
L 380.691274 100.542059 
L 381.906719 100.032492 
L 383.122165 99.383337 
L 384.33761 98.479141 
L 385.553056 100.064034 
L 386.768501 99.412176 
L 387.983946 100.383615 
L 389.199392 100.132649 
L 390.414837 99.301652 
L 391.630283 100.615965 
L 392.845728 100.354781 
L 394.061174 100.464247 
L 395.276619 99.597913 
L 396.492064 100.58812 
L 397.70751 100.055592 
L 398.922955 99.110202 
L 400.138401 100.745815 
L 401.353846 96.595533 
L 402.569292 100.920578 
L 403.784737 100.968722 
L 405.000182 100.145629 
L 406.215628 99.665594 
L 407.431073 99.996969 
L 408.646519 100.45149 
L 409.861964 100.063994 
L 411.07741 98.893148 
L 412.292855 100.02779 
L 413.5083 100.378676 
L 414.723746 99.098024 
L 415.939191 100.845463 
L 417.154637 100.184338 
L 418.370082 99.362668 
L 420.800973 99.406899 
L 422.016418 100.066524 
L 423.231864 100.330174 
L 424.447309 99.59721 
L 425.662755 100.750185 
L 426.8782 99.818472 
L 428.093645 100.578503 
L 429.309091 100.088989 
L 429.309091 100.088989 
" style="fill:none;stroke:#ffa500;stroke-linecap:square;stroke-width:1.5;"/>
   </g>
   <g id="patch_3">
    <path d="M 47.72 136.24 
L 47.72 25.44 
" style="fill:none;stroke:#000000;stroke-linecap:square;stroke-linejoin:miter;stroke-width:0.8;"/>
   </g>
   <g id="patch_4">
    <path d="M 447.48 136.24 
L 447.48 25.44 
" style="fill:none;stroke:#000000;stroke-linecap:square;stroke-linejoin:miter;stroke-width:0.8;"/>
   </g>
   <g id="patch_5">
    <path d="M 47.72 136.24 
L 447.48 136.24 
" style="fill:none;stroke:#000000;stroke-linecap:square;stroke-linejoin:miter;stroke-width:0.8;"/>
   </g>
   <g id="patch_6">
    <path d="M 47.72 25.44 
L 447.48 25.44 
" style="fill:none;stroke:#000000;stroke-linecap:square;stroke-linejoin:miter;stroke-width:0.8;"/>
   </g>
   <g id="text_15">
    <!-- model loss -->
    <defs>
     <path d="M 52 44.1875 
Q 55.375 50.25 60.0625 53.125 
Q 64.75 56 71.09375 56 
Q 79.640625 56 84.28125 50.015625 
Q 88.921875 44.046875 88.921875 33.015625 
L 88.921875 0 
L 79.890625 0 
L 79.890625 32.71875 
Q 79.890625 40.578125 77.09375 44.375 
Q 74.3125 48.1875 68.609375 48.1875 
Q 61.625 48.1875 57.5625 43.546875 
Q 53.515625 38.921875 53.515625 30.90625 
L 53.515625 0 
L 44.484375 0 
L 44.484375 32.71875 
Q 44.484375 40.625 41.703125 44.40625 
Q 38.921875 48.1875 33.109375 48.1875 
Q 26.21875 48.1875 22.15625 43.53125 
Q 18.109375 38.875 18.109375 30.90625 
L 18.109375 0 
L 9.078125 0 
L 9.078125 54.6875 
L 18.109375 54.6875 
L 18.109375 46.1875 
Q 21.1875 51.21875 25.484375 53.609375 
Q 29.78125 56 35.6875 56 
Q 41.65625 56 45.828125 52.96875 
Q 50 49.953125 52 44.1875 
z
" id="DejaVuSans-109"/>
     <path d="M 45.40625 46.390625 
L 45.40625 75.984375 
L 54.390625 75.984375 
L 54.390625 0 
L 45.40625 0 
L 45.40625 8.203125 
Q 42.578125 3.328125 38.25 0.953125 
Q 33.9375 -1.421875 27.875 -1.421875 
Q 17.96875 -1.421875 11.734375 6.484375 
Q 5.515625 14.40625 5.515625 27.296875 
Q 5.515625 40.1875 11.734375 48.09375 
Q 17.96875 56 27.875 56 
Q 33.9375 56 38.25 53.625 
Q 42.578125 51.265625 45.40625 46.390625 
z
M 14.796875 27.296875 
Q 14.796875 17.390625 18.875 11.75 
Q 22.953125 6.109375 30.078125 6.109375 
Q 37.203125 6.109375 41.296875 11.75 
Q 45.40625 17.390625 45.40625 27.296875 
Q 45.40625 37.203125 41.296875 42.84375 
Q 37.203125 48.484375 30.078125 48.484375 
Q 22.953125 48.484375 18.875 42.84375 
Q 14.796875 37.203125 14.796875 27.296875 
z
" id="DejaVuSans-100"/>
     <path id="DejaVuSans-32"/>
    </defs>
    <g transform="translate(215.420312 19.44)scale(0.12 -0.12)">
     <use xlink:href="#DejaVuSans-109"/>
     <use x="97.412109" xlink:href="#DejaVuSans-111"/>
     <use x="158.59375" xlink:href="#DejaVuSans-100"/>
     <use x="222.070312" xlink:href="#DejaVuSans-101"/>
     <use x="283.59375" xlink:href="#DejaVuSans-108"/>
     <use x="311.376953" xlink:href="#DejaVuSans-32"/>
     <use x="343.164062" xlink:href="#DejaVuSans-108"/>
     <use x="370.947266" xlink:href="#DejaVuSans-111"/>
     <use x="432.128906" xlink:href="#DejaVuSans-115"/>
     <use x="484.228516" xlink:href="#DejaVuSans-115"/>
    </g>
   </g>
   <g id="legend_1">
    <g id="patch_7">
     <path d="M 54.72 62.79625 
L 109.995 62.79625 
Q 111.995 62.79625 111.995 60.79625 
L 111.995 32.44 
Q 111.995 30.44 109.995 30.44 
L 54.72 30.44 
Q 52.72 30.44 52.72 32.44 
L 52.72 60.79625 
Q 52.72 62.79625 54.72 62.79625 
z
" style="fill:#ffffff;opacity:0.8;stroke:#cccccc;stroke-linejoin:miter;"/>
    </g>
    <g id="line2d_15">
     <path d="M 56.72 38.538437 
L 76.72 38.538437 
" style="fill:none;stroke:#0000ff;stroke-linecap:square;stroke-width:1.5;"/>
    </g>
    <g id="line2d_16"/>
    <g id="text_16">
     <!-- train -->
     <defs>
      <path d="M 18.3125 70.21875 
L 18.3125 54.6875 
L 36.8125 54.6875 
L 36.8125 47.703125 
L 18.3125 47.703125 
L 18.3125 18.015625 
Q 18.3125 11.328125 20.140625 9.421875 
Q 21.96875 7.515625 27.59375 7.515625 
L 36.8125 7.515625 
L 36.8125 0 
L 27.59375 0 
Q 17.1875 0 13.234375 3.875 
Q 9.28125 7.765625 9.28125 18.015625 
L 9.28125 47.703125 
L 2.6875 47.703125 
L 2.6875 54.6875 
L 9.28125 54.6875 
L 9.28125 70.21875 
z
" id="DejaVuSans-116"/>
      <path d="M 41.109375 46.296875 
Q 39.59375 47.171875 37.8125 47.578125 
Q 36.03125 48 33.890625 48 
Q 26.265625 48 22.1875 43.046875 
Q 18.109375 38.09375 18.109375 28.8125 
L 18.109375 0 
L 9.078125 0 
L 9.078125 54.6875 
L 18.109375 54.6875 
L 18.109375 46.1875 
Q 20.953125 51.171875 25.484375 53.578125 
Q 30.03125 56 36.53125 56 
Q 37.453125 56 38.578125 55.875 
Q 39.703125 55.765625 41.0625 55.515625 
z
" id="DejaVuSans-114"/>
      <path d="M 34.28125 27.484375 
Q 23.390625 27.484375 19.1875 25 
Q 14.984375 22.515625 14.984375 16.5 
Q 14.984375 11.71875 18.140625 8.90625 
Q 21.296875 6.109375 26.703125 6.109375 
Q 34.1875 6.109375 38.703125 11.40625 
Q 43.21875 16.703125 43.21875 25.484375 
L 43.21875 27.484375 
z
M 52.203125 31.203125 
L 52.203125 0 
L 43.21875 0 
L 43.21875 8.296875 
Q 40.140625 3.328125 35.546875 0.953125 
Q 30.953125 -1.421875 24.3125 -1.421875 
Q 15.921875 -1.421875 10.953125 3.296875 
Q 6 8.015625 6 15.921875 
Q 6 25.140625 12.171875 29.828125 
Q 18.359375 34.515625 30.609375 34.515625 
L 43.21875 34.515625 
L 43.21875 35.40625 
Q 43.21875 41.609375 39.140625 45 
Q 35.0625 48.390625 27.6875 48.390625 
Q 23 48.390625 18.546875 47.265625 
Q 14.109375 46.140625 10.015625 43.890625 
L 10.015625 52.203125 
Q 14.9375 54.109375 19.578125 55.046875 
Q 24.21875 56 28.609375 56 
Q 40.484375 56 46.34375 49.84375 
Q 52.203125 43.703125 52.203125 31.203125 
z
" id="DejaVuSans-97"/>
      <path d="M 9.421875 54.6875 
L 18.40625 54.6875 
L 18.40625 0 
L 9.421875 0 
z
M 9.421875 75.984375 
L 18.40625 75.984375 
L 18.40625 64.59375 
L 9.421875 64.59375 
z
" id="DejaVuSans-105"/>
      <path d="M 54.890625 33.015625 
L 54.890625 0 
L 45.90625 0 
L 45.90625 32.71875 
Q 45.90625 40.484375 42.875 44.328125 
Q 39.84375 48.1875 33.796875 48.1875 
Q 26.515625 48.1875 22.3125 43.546875 
Q 18.109375 38.921875 18.109375 30.90625 
L 18.109375 0 
L 9.078125 0 
L 9.078125 54.6875 
L 18.109375 54.6875 
L 18.109375 46.1875 
Q 21.34375 51.125 25.703125 53.5625 
Q 30.078125 56 35.796875 56 
Q 45.21875 56 50.046875 50.171875 
Q 54.890625 44.34375 54.890625 33.015625 
z
" id="DejaVuSans-110"/>
     </defs>
     <g transform="translate(84.72 42.038437)scale(0.1 -0.1)">
      <use xlink:href="#DejaVuSans-116"/>
      <use x="39.208984" xlink:href="#DejaVuSans-114"/>
      <use x="80.322266" xlink:href="#DejaVuSans-97"/>
      <use x="141.601562" xlink:href="#DejaVuSans-105"/>
      <use x="169.384766" xlink:href="#DejaVuSans-110"/>
     </g>
    </g>
    <g id="line2d_17">
     <path d="M 56.72 53.216563 
L 76.72 53.216563 
" style="fill:none;stroke:#ffa500;stroke-linecap:square;stroke-width:1.5;"/>
    </g>
    <g id="line2d_18"/>
    <g id="text_17">
     <!-- test -->
     <g transform="translate(84.72 56.716563)scale(0.1 -0.1)">
      <use xlink:href="#DejaVuSans-116"/>
      <use x="39.208984" xlink:href="#DejaVuSans-101"/>
      <use x="100.732422" xlink:href="#DejaVuSans-115"/>
      <use x="152.832031" xlink:href="#DejaVuSans-116"/>
     </g>
    </g>
   </g>
  </g>
  <g id="axes_2">
   <g id="patch_8">
    <path d="M 47.72 303.64 
L 447.48 303.64 
L 447.48 192.84 
L 47.72 192.84 
z
" style="fill:#ffffff;"/>
   </g>
   <g id="matplotlib.axis_3">
    <g id="xtick_8">
     <g id="line2d_19">
      <g>
       <use style="stroke:#000000;stroke-width:0.8;" x="65.890909" xlink:href="#m526b35e34f" y="303.64"/>
      </g>
     </g>
     <g id="text_18">
      <!-- 0 -->
      <g transform="translate(62.709659 318.238437)scale(0.1 -0.1)">
       <use xlink:href="#DejaVuSans-48"/>
      </g>
     </g>
    </g>
    <g id="xtick_9">
     <g id="line2d_20">
      <g>
       <use style="stroke:#000000;stroke-width:0.8;" x="126.66318" xlink:href="#m526b35e34f" y="303.64"/>
      </g>
     </g>
     <g id="text_19">
      <!-- 50 -->
      <g transform="translate(120.30068 318.238437)scale(0.1 -0.1)">
       <use xlink:href="#DejaVuSans-53"/>
       <use x="63.623047" xlink:href="#DejaVuSans-48"/>
      </g>
     </g>
    </g>
    <g id="xtick_10">
     <g id="line2d_21">
      <g>
       <use style="stroke:#000000;stroke-width:0.8;" x="187.435452" xlink:href="#m526b35e34f" y="303.64"/>
      </g>
     </g>
     <g id="text_20">
      <!-- 100 -->
      <g transform="translate(177.891702 318.238437)scale(0.1 -0.1)">
       <use xlink:href="#DejaVuSans-49"/>
       <use x="63.623047" xlink:href="#DejaVuSans-48"/>
       <use x="127.246094" xlink:href="#DejaVuSans-48"/>
      </g>
     </g>
    </g>
    <g id="xtick_11">
     <g id="line2d_22">
      <g>
       <use style="stroke:#000000;stroke-width:0.8;" x="248.207723" xlink:href="#m526b35e34f" y="303.64"/>
      </g>
     </g>
     <g id="text_21">
      <!-- 150 -->
      <g transform="translate(238.663973 318.238437)scale(0.1 -0.1)">
       <use xlink:href="#DejaVuSans-49"/>
       <use x="63.623047" xlink:href="#DejaVuSans-53"/>
       <use x="127.246094" xlink:href="#DejaVuSans-48"/>
      </g>
     </g>
    </g>
    <g id="xtick_12">
     <g id="line2d_23">
      <g>
       <use style="stroke:#000000;stroke-width:0.8;" x="308.979994" xlink:href="#m526b35e34f" y="303.64"/>
      </g>
     </g>
     <g id="text_22">
      <!-- 200 -->
      <g transform="translate(299.436244 318.238437)scale(0.1 -0.1)">
       <use xlink:href="#DejaVuSans-50"/>
       <use x="63.623047" xlink:href="#DejaVuSans-48"/>
       <use x="127.246094" xlink:href="#DejaVuSans-48"/>
      </g>
     </g>
    </g>
    <g id="xtick_13">
     <g id="line2d_24">
      <g>
       <use style="stroke:#000000;stroke-width:0.8;" x="369.752265" xlink:href="#m526b35e34f" y="303.64"/>
      </g>
     </g>
     <g id="text_23">
      <!-- 250 -->
      <g transform="translate(360.208515 318.238437)scale(0.1 -0.1)">
       <use xlink:href="#DejaVuSans-50"/>
       <use x="63.623047" xlink:href="#DejaVuSans-53"/>
       <use x="127.246094" xlink:href="#DejaVuSans-48"/>
      </g>
     </g>
    </g>
    <g id="xtick_14">
     <g id="line2d_25">
      <g>
       <use style="stroke:#000000;stroke-width:0.8;" x="430.524536" xlink:href="#m526b35e34f" y="303.64"/>
      </g>
     </g>
     <g id="text_24">
      <!-- 300 -->
      <g transform="translate(420.980786 318.238437)scale(0.1 -0.1)">
       <use xlink:href="#DejaVuSans-51"/>
       <use x="63.623047" xlink:href="#DejaVuSans-48"/>
       <use x="127.246094" xlink:href="#DejaVuSans-48"/>
      </g>
     </g>
    </g>
    <g id="text_25">
     <!-- epoch -->
     <g transform="translate(232.371875 331.916562)scale(0.1 -0.1)">
      <use xlink:href="#DejaVuSans-101"/>
      <use x="61.523438" xlink:href="#DejaVuSans-112"/>
      <use x="125" xlink:href="#DejaVuSans-111"/>
      <use x="186.181641" xlink:href="#DejaVuSans-99"/>
      <use x="241.162109" xlink:href="#DejaVuSans-104"/>
     </g>
    </g>
   </g>
   <g id="matplotlib.axis_4">
    <g id="ytick_6">
     <g id="line2d_26">
      <g>
       <use style="stroke:#000000;stroke-width:0.8;" x="47.72" xlink:href="#me989efb71b" y="284.998477"/>
      </g>
     </g>
     <g id="text_26">
      <!-- 0.5 -->
      <g transform="translate(24.816875 288.797696)scale(0.1 -0.1)">
       <use xlink:href="#DejaVuSans-48"/>
       <use x="63.623047" xlink:href="#DejaVuSans-46"/>
       <use x="95.410156" xlink:href="#DejaVuSans-53"/>
      </g>
     </g>
    </g>
    <g id="ytick_7">
     <g id="line2d_27">
      <g>
       <use style="stroke:#000000;stroke-width:0.8;" x="47.72" xlink:href="#me989efb71b" y="258.179085"/>
      </g>
     </g>
     <g id="text_27">
      <!-- 0.6 -->
      <g transform="translate(24.816875 261.978303)scale(0.1 -0.1)">
       <use xlink:href="#DejaVuSans-48"/>
       <use x="63.623047" xlink:href="#DejaVuSans-46"/>
       <use x="95.410156" xlink:href="#DejaVuSans-54"/>
      </g>
     </g>
    </g>
    <g id="ytick_8">
     <g id="line2d_28">
      <g>
       <use style="stroke:#000000;stroke-width:0.8;" x="47.72" xlink:href="#me989efb71b" y="231.359692"/>
      </g>
     </g>
     <g id="text_28">
      <!-- 0.7 -->
      <defs>
       <path d="M 8.203125 72.90625 
L 55.078125 72.90625 
L 55.078125 68.703125 
L 28.609375 0 
L 18.3125 0 
L 43.21875 64.59375 
L 8.203125 64.59375 
z
" id="DejaVuSans-55"/>
      </defs>
      <g transform="translate(24.816875 235.158911)scale(0.1 -0.1)">
       <use xlink:href="#DejaVuSans-48"/>
       <use x="63.623047" xlink:href="#DejaVuSans-46"/>
       <use x="95.410156" xlink:href="#DejaVuSans-55"/>
      </g>
     </g>
    </g>
    <g id="ytick_9">
     <g id="line2d_29">
      <g>
       <use style="stroke:#000000;stroke-width:0.8;" x="47.72" xlink:href="#me989efb71b" y="204.5403"/>
      </g>
     </g>
     <g id="text_29">
      <!-- 0.8 -->
      <g transform="translate(24.816875 208.339518)scale(0.1 -0.1)">
       <use xlink:href="#DejaVuSans-48"/>
       <use x="63.623047" xlink:href="#DejaVuSans-46"/>
       <use x="95.410156" xlink:href="#DejaVuSans-56"/>
      </g>
     </g>
    </g>
    <g id="text_30">
     <!-- accuracy -->
     <defs>
      <path d="M 8.5 21.578125 
L 8.5 54.6875 
L 17.484375 54.6875 
L 17.484375 21.921875 
Q 17.484375 14.15625 20.5 10.265625 
Q 23.53125 6.390625 29.59375 6.390625 
Q 36.859375 6.390625 41.078125 11.03125 
Q 45.3125 15.671875 45.3125 23.6875 
L 45.3125 54.6875 
L 54.296875 54.6875 
L 54.296875 0 
L 45.3125 0 
L 45.3125 8.40625 
Q 42.046875 3.421875 37.71875 1 
Q 33.40625 -1.421875 27.6875 -1.421875 
Q 18.265625 -1.421875 13.375 4.4375 
Q 8.5 10.296875 8.5 21.578125 
z
M 31.109375 56 
z
" id="DejaVuSans-117"/>
      <path d="M 32.171875 -5.078125 
Q 28.375 -14.84375 24.75 -17.8125 
Q 21.140625 -20.796875 15.09375 -20.796875 
L 7.90625 -20.796875 
L 7.90625 -13.28125 
L 13.1875 -13.28125 
Q 16.890625 -13.28125 18.9375 -11.515625 
Q 21 -9.765625 23.484375 -3.21875 
L 25.09375 0.875 
L 2.984375 54.6875 
L 12.5 54.6875 
L 29.59375 11.921875 
L 46.6875 54.6875 
L 56.203125 54.6875 
z
" id="DejaVuSans-121"/>
     </defs>
     <g transform="translate(18.737188 270.799375)rotate(-90)scale(0.1 -0.1)">
      <use xlink:href="#DejaVuSans-97"/>
      <use x="61.279297" xlink:href="#DejaVuSans-99"/>
      <use x="116.259766" xlink:href="#DejaVuSans-99"/>
      <use x="171.240234" xlink:href="#DejaVuSans-117"/>
      <use x="234.619141" xlink:href="#DejaVuSans-114"/>
      <use x="275.732422" xlink:href="#DejaVuSans-97"/>
      <use x="337.011719" xlink:href="#DejaVuSans-99"/>
      <use x="391.992188" xlink:href="#DejaVuSans-121"/>
     </g>
    </g>
   </g>
   <g id="line2d_30">
    <path clip-path="url(#p75add4a28f)" d="M 65.890909 298.603636 
L 67.106355 273.738878 
L 68.3218 265.224857 
L 70.752691 250.801479 
L 71.968136 245.410326 
L 73.183582 241.769253 
L 74.399027 239.582791 
L 76.829918 234.500743 
L 78.045363 233.500698 
L 79.260809 231.600612 
L 80.476254 230.059634 
L 81.6917 228.809577 
L 82.907145 226.614024 
L 84.12259 226.159458 
L 85.338036 224.813943 
L 86.553481 224.245735 
L 87.768927 223.018407 
L 88.984372 222.427471 
L 90.199818 221.018317 
L 91.415263 221.041045 
L 92.630708 219.827354 
L 93.846154 219.009135 
L 95.061599 218.554569 
L 96.277045 218.381834 
L 98.707936 216.859038 
L 99.923381 215.954452 
L 101.138826 215.868084 
L 102.354272 214.954407 
L 103.569717 214.899859 
L 104.785163 214.395291 
L 106.000608 214.299832 
L 107.216054 214.022547 
L 108.431499 213.999818 
L 110.86239 213.058867 
L 112.077835 212.390655 
L 113.293281 212.227011 
L 114.508726 212.477022 
L 115.724171 212.313379 
L 116.939617 211.63153 
L 118.155062 210.5633 
L 119.370508 211.499706 
L 121.801399 210.476932 
L 123.016844 209.954181 
L 125.447735 210.386019 
L 126.66318 209.763264 
L 127.878626 209.526889 
L 129.094071 209.713261 
L 130.309517 209.249604 
L 131.524962 209.004138 
L 132.740407 209.163236 
L 133.955853 208.376837 
L 135.171298 208.585938 
L 136.386744 208.267741 
L 137.602189 207.772265 
L 138.817635 208.485933 
L 140.03308 207.817721 
L 141.248525 207.958637 
L 142.463971 207.817721 
L 143.679416 207.258605 
L 146.110307 207.308607 
L 152.187534 206.49948 
L 153.40298 206.954046 
L 154.618425 206.490389 
L 155.83387 206.517663 
L 157.049316 205.785811 
L 158.264761 205.867633 
L 159.480207 205.740355 
L 160.695652 205.935818 
L 161.911098 205.444887 
L 163.126543 205.717626 
L 164.341988 205.3267 
L 165.557434 205.43125 
L 166.772879 205.185784 
L 167.988325 205.153965 
L 169.20377 205.281243 
L 170.419216 205.244878 
L 171.634661 205.767629 
L 172.850106 204.994867 
L 174.065552 204.84486 
L 175.280997 204.531209 
L 176.496443 204.744855 
L 177.711888 204.126646 
L 178.927334 204.431205 
L 180.142779 204.581212 
L 181.358224 204.085735 
L 182.57367 204.217559 
L 183.789115 204.049369 
L 185.004561 204.01755 
L 186.220006 203.781175 
L 187.435452 203.790267 
L 188.650897 203.622077 
L 189.866342 204.485753 
L 191.081788 203.835723 
L 193.512679 203.781175 
L 194.728124 203.39934 
L 195.943569 203.731173 
L 197.159015 203.440251 
L 198.37446 203.735719 
L 199.589906 203.281153 
L 202.020797 202.67658 
L 203.236242 203.276607 
L 204.451687 202.940228 
L 206.882578 202.840224 
L 208.098024 203.15842 
L 210.528915 202.490208 
L 211.74436 202.431115 
L 212.959805 202.858407 
L 214.175251 202.476571 
L 216.606142 202.408386 
L 217.821587 202.612941 
L 219.037033 202.481117 
L 220.252478 201.876544 
L 221.467923 202.381112 
L 222.683369 202.222014 
L 223.898814 202.22656 
L 225.11426 202.062916 
L 226.329705 202.562939 
L 227.545151 202.040188 
L 228.760596 202.308382 
L 229.976041 201.876544 
L 231.191487 202.153829 
L 232.406932 201.981094 
L 233.622378 202.108373 
L 234.837823 201.871998 
L 236.053268 201.917455 
L 237.268714 201.740174 
L 239.699605 201.731083 
L 240.91505 201.490163 
L 242.130496 202.131101 
L 243.345941 201.462889 
L 244.561386 201.717446 
L 246.992277 201.462889 
L 248.207723 201.626533 
L 250.638614 201.090145 
L 251.854059 201.481072 
L 254.28495 200.903773 
L 255.500395 201.53562 
L 256.715841 201.2947 
L 257.931286 201.258334 
L 259.146732 200.99014 
L 260.362177 200.999232 
L 261.577622 201.308337 
L 264.008513 200.88559 
L 265.223959 200.54012 
L 266.439404 201.421978 
L 270.08574 200.394659 
L 271.301186 201.190149 
L 272.516631 200.476481 
L 273.732077 200.912864 
L 276.162967 200.43557 
L 277.378413 200.99014 
L 278.593858 200.921956 
L 279.809304 200.367385 
L 281.024749 200.417387 
L 282.240195 200.021915 
L 284.671085 200.358294 
L 285.886531 200.744675 
L 288.317422 200.258289 
L 289.532867 200.267381 
L 290.748313 200.094646 
L 293.179203 200.453753 
L 294.394649 200.312837 
L 295.610094 199.926456 
L 296.82554 199.940093 
L 298.040985 200.108282 
L 300.471876 200.085554 
L 301.687321 200.349202 
L 304.118212 199.785541 
L 305.333658 200.240107 
L 306.549103 199.990095 
L 307.764548 199.994641 
L 308.979994 200.503755 
L 310.195439 200.0901 
L 311.410885 199.821906 
L 312.62633 200.244652 
L 313.841776 199.981004 
L 315.057221 199.98555 
L 316.272666 199.544621 
L 317.488112 200.490118 
L 318.703557 200.035552 
L 319.919003 199.708264 
L 321.134448 199.908273 
L 322.349894 199.394614 
L 323.565339 200.067371 
L 324.780784 199.635534 
L 325.99623 199.844634 
L 327.211675 199.449162 
L 328.427121 199.931002 
L 330.858012 199.549166 
L 332.073457 199.690082 
L 333.288902 198.971868 
L 334.504348 199.521892 
L 335.719793 199.703719 
L 336.935239 199.217333 
L 338.150684 199.244607 
L 339.36613 199.076418 
L 340.581575 199.340066 
L 341.79702 199.458253 
L 343.012466 199.108237 
L 344.227911 199.426434 
L 345.443357 199.149148 
L 346.658802 199.50371 
L 347.874247 199.485527 
L 350.305138 198.803678 
L 351.520584 199.585532 
L 352.736029 198.867317 
L 353.951475 199.208242 
L 355.16692 198.908228 
L 356.382365 198.785496 
L 357.597811 199.171877 
L 360.028702 198.826406 
L 361.244147 199.603714 
L 362.459593 199.194605 
L 364.890483 199.017324 
L 366.105929 199.226425 
L 367.321374 198.953685 
L 369.752265 199.190059 
L 370.967711 198.480936 
L 372.183156 198.967322 
L 373.398601 198.776404 
L 374.614047 198.340021 
L 375.829492 199.276427 
L 377.044938 198.899137 
L 380.691274 198.876409 
L 381.906719 199.030961 
L 383.122165 198.962776 
L 384.33761 198.549121 
L 385.553056 198.967322 
L 386.768501 198.81277 
L 387.983946 198.78095 
L 389.199392 198.603669 
L 390.414837 198.726402 
L 391.630283 198.603669 
L 392.845728 198.717311 
L 394.061174 198.453662 
L 395.276619 198.64458 
L 396.492064 198.544576 
L 397.70751 198.699128 
L 398.922955 198.635489 
L 400.138401 198.408206 
L 401.353846 198.449117 
L 402.569292 198.744585 
L 403.784737 198.240016 
L 406.215628 198.74913 
L 407.431073 198.394569 
L 408.646519 198.726402 
L 411.07741 198.144558 
L 414.723746 198.412751 
L 415.939191 198.335475 
L 417.154637 198.008188 
L 420.800973 198.50821 
L 423.231864 198.344567 
L 424.447309 197.876364 
L 425.662755 198.33093 
L 426.8782 198.399115 
L 428.093645 198.035462 
L 429.309091 198.09001 
L 429.309091 198.09001 
" style="fill:none;stroke:#0000ff;stroke-linecap:square;stroke-width:1.5;"/>
   </g>
   <g id="line2d_31">
    <path clip-path="url(#p75add4a28f)" d="M 65.890909 278.937294 
L 67.106355 269.239402 
L 68.3218 262.566737 
L 69.537245 259.112399 
L 70.752691 247.912621 
L 71.968136 244.029173 
L 73.183582 241.154134 
L 74.399027 241.647611 
L 75.614472 237.560336 
L 76.829918 239.40551 
L 78.045363 233.419422 
L 79.260809 233.1405 
L 80.476254 232.368102 
L 81.6917 232.014086 
L 82.907145 231.99263 
L 84.12259 230.544383 
L 85.338036 230.254734 
L 86.553481 227.92681 
L 87.768927 227.079318 
L 88.984372 230.855488 
L 90.199818 230.598022 
L 91.415263 223.496247 
L 92.630708 227.229506 
L 93.846154 226.435652 
L 95.061599 226.467835 
L 96.277045 225.019588 
L 97.49249 223.925357 
L 98.707936 223.764441 
L 99.923381 222.262555 
L 101.138826 224.129184 
L 102.354272 222.713121 
L 103.569717 223.077864 
L 104.785163 222.241099 
L 107.216054 223.056409 
L 108.431499 222.90622 
L 109.646944 221.447245 
L 110.86239 221.779806 
L 112.077835 221.95145 
L 113.293281 222.552204 
L 114.508726 220.245737 
L 115.724171 222.155277 
L 116.939617 223.228053 
L 118.155062 221.511612 
L 119.370508 227.293873 
L 120.585953 221.726167 
L 121.801399 220.556841 
L 123.016844 221.651073 
L 124.232289 223.19587 
L 125.447735 220.406653 
L 126.66318 220.202826 
L 127.878626 221.565251 
L 130.309517 219.312422 
L 131.524962 219.494794 
L 132.740407 220.943041 
L 133.955853 220.08482 
L 136.386744 219.75226 
L 137.602189 220.953768 
L 138.817635 221.32924 
L 140.03308 219.934632 
L 141.248525 220.792852 
L 142.463971 221.061046 
L 143.679416 219.966815 
L 144.894862 219.698621 
L 146.110307 220.235009 
L 147.325753 219.484066 
L 148.541198 219.205144 
L 149.756643 220.546114 
L 150.972089 220.106276 
L 153.40298 220.095548 
L 154.618425 219.55916 
L 155.83387 220.943041 
L 157.049316 219.312422 
L 158.264761 220.975224 
L 159.480207 219.408971 
L 160.695652 221.093229 
L 161.911098 219.84881 
L 163.126543 220.288648 
L 164.341988 219.087139 
L 165.557434 218.518568 
L 166.772879 219.880993 
L 167.988325 219.870265 
L 169.20377 222.391288 
L 170.419216 219.677165 
L 171.634661 220.535386 
L 172.850106 219.612799 
L 174.065552 221.490156 
L 175.280997 218.765306 
L 176.496443 220.739213 
L 177.711888 219.312422 
L 178.927334 220.363742 
L 180.142779 219.344605 
L 181.358224 219.441155 
L 182.57367 221.790534 
L 183.789115 219.634254 
L 185.004561 219.569888 
L 187.435452 220.288648 
L 188.650897 223.056409 
L 189.866342 220.503203 
L 191.081788 221.415062 
L 192.297233 221.007407 
L 193.512679 219.634254 
L 194.728124 221.179051 
L 195.943569 219.46261 
L 197.159015 220.503203 
L 198.37446 221.03959 
L 199.589906 220.80358 
L 200.805351 219.945359 
L 202.020797 221.447245 
L 203.236242 219.644982 
L 204.451687 218.872584 
L 205.667133 220.621208 
L 206.882578 220.814308 
L 208.098024 219.087139 
L 209.313469 220.363742 
L 210.528915 219.65571 
L 211.74436 219.612799 
L 212.959805 219.248055 
L 214.175251 220.61048 
L 215.390696 220.975224 
L 216.606142 220.395925 
L 217.821587 220.331559 
L 219.037033 219.784443 
L 220.252478 220.331559 
L 221.467923 219.2266 
L 222.683369 220.760669 
L 223.898814 219.290966 
L 225.11426 221.651073 
L 226.329705 220.985952 
L 227.545151 219.108594 
L 228.760596 220.170642 
L 229.976041 220.320831 
L 231.191487 219.55916 
L 232.406932 220.170642 
L 233.622378 220.943041 
L 234.837823 221.007407 
L 236.053268 220.395925 
L 237.268714 220.428108 
L 238.484159 220.020454 
L 239.699605 220.224281 
L 240.91505 220.760669 
L 242.130496 219.355333 
L 243.345941 220.481747 
L 244.561386 219.75226 
L 245.776832 219.998998 
L 246.992277 219.934632 
L 249.423168 219.387516 
L 250.638614 220.878674 
L 251.854059 219.634254 
L 253.069504 219.687893 
L 254.28495 220.792852 
L 255.500395 220.342286 
L 256.715841 218.904767 
L 257.931286 219.634254 
L 259.146732 219.215872 
L 260.362177 220.728486 
L 261.577622 219.451883 
L 262.793068 219.623527 
L 264.008513 222.048 
L 265.223959 219.333877 
L 266.439404 220.331559 
L 267.654849 220.063365 
L 268.870295 220.556841 
L 270.08574 219.183689 
L 271.301186 219.162233 
L 272.516631 220.503203 
L 273.732077 219.355333 
L 274.947522 218.958406 
L 278.593858 219.526977 
L 279.809304 219.301694 
L 281.024749 219.194416 
L 282.240195 220.041909 
L 283.45564 219.301694 
L 284.671085 220.235009 
L 285.886531 219.451882 
L 287.101976 222.584388 
L 288.317422 219.194416 
L 289.532867 220.664119 
L 290.748313 219.55916 
L 291.963758 219.741532 
L 293.179203 220.599752 
L 294.394649 219.398244 
L 295.610094 221.393607 
L 296.82554 219.215872 
L 298.040985 220.428108 
L 299.256431 220.535386 
L 300.471876 220.18137 
L 301.687321 219.022772 
L 302.902767 219.408971 
L 304.118212 219.998998 
L 305.333658 219.634254 
L 306.549103 219.623527 
L 307.764548 219.816626 
L 308.979994 219.602071 
L 310.195439 218.915495 
L 311.410885 219.516249 
L 312.62633 221.436517 
L 315.057221 219.46261 
L 316.272666 220.27792 
L 317.488112 219.269511 
L 318.703557 219.945359 
L 319.919003 219.816626 
L 321.134448 221.028863 
L 322.349894 222.841854 
L 323.565339 221.254146 
L 324.780784 220.674847 
L 325.99623 221.339968 
L 328.427121 219.902448 
L 329.642566 220.460292 
L 330.858012 219.687893 
L 332.073457 220.51393 
L 333.288902 218.915495 
L 334.504348 219.408971 
L 335.719793 220.127731 
L 336.935239 219.46261 
L 338.150684 219.46261 
L 339.36613 220.245736 
L 340.581575 220.428108 
L 341.79702 220.792852 
L 343.012466 221.32924 
L 344.227911 220.664119 
L 345.443357 219.612799 
L 346.658802 220.417381 
L 347.874247 219.677165 
L 349.089693 220.020454 
L 350.305138 219.902448 
L 351.520584 220.932313 
L 352.736029 219.741532 
L 353.951475 219.097866 
L 355.16692 220.567569 
L 356.382365 219.913176 
L 357.597811 219.977543 
L 358.813256 219.827354 
L 360.028702 221.586706 
L 361.244147 222.219644 
L 362.459593 219.891721 
L 363.675038 221.168324 
L 364.890483 221.275601 
L 366.105929 220.267192 
L 367.321374 219.730804 
L 368.53682 220.503203 
L 369.752265 220.288648 
L 370.967711 219.108594 
L 372.183156 221.618889 
L 373.398601 220.825035 
L 374.614047 221.028863 
L 375.829492 220.674847 
L 377.044938 219.430427 
L 378.260383 220.631936 
L 380.691274 221.071774 
L 381.906719 220.99668 
L 383.122165 221.747622 
L 384.33761 221.457973 
L 385.553056 220.782124 
L 386.768501 221.95145 
L 387.983946 220.353014 
L 389.199392 220.353014 
L 390.414837 220.589025 
L 391.630283 219.687893 
L 394.061174 220.288648 
L 395.276619 220.51393 
L 396.492064 220.245737 
L 397.70751 221.457973 
L 398.922955 221.597434 
L 400.138401 220.052637 
L 401.353846 223.09932 
L 402.569292 219.366061 
L 403.784737 219.494794 
L 405.000182 219.891721 
L 406.215628 221.447245 
L 407.431073 220.331559 
L 408.646519 220.910857 
L 409.861964 220.674847 
L 411.07741 221.243418 
L 412.292855 220.556842 
L 413.5083 220.106276 
L 414.723746 220.513931 
L 415.939191 219.827354 
L 417.154637 220.878674 
L 418.370082 221.565251 
L 419.585528 221.307784 
L 420.800973 220.889402 
L 422.016418 220.27792 
L 423.231864 220.631936 
L 424.447309 220.106276 
L 425.662755 219.966815 
L 426.8782 220.975224 
L 428.093645 220.224281 
L 429.309091 220.342286 
L 429.309091 220.342286 
" style="fill:none;stroke:#ffa500;stroke-linecap:square;stroke-width:1.5;"/>
   </g>
   <g id="patch_9">
    <path d="M 47.72 303.64 
L 47.72 192.84 
" style="fill:none;stroke:#000000;stroke-linecap:square;stroke-linejoin:miter;stroke-width:0.8;"/>
   </g>
   <g id="patch_10">
    <path d="M 447.48 303.64 
L 447.48 192.84 
" style="fill:none;stroke:#000000;stroke-linecap:square;stroke-linejoin:miter;stroke-width:0.8;"/>
   </g>
   <g id="patch_11">
    <path d="M 47.72 303.64 
L 447.48 303.64 
" style="fill:none;stroke:#000000;stroke-linecap:square;stroke-linejoin:miter;stroke-width:0.8;"/>
   </g>
   <g id="patch_12">
    <path d="M 47.72 192.84 
L 447.48 192.84 
" style="fill:none;stroke:#000000;stroke-linecap:square;stroke-linejoin:miter;stroke-width:0.8;"/>
   </g>
   <g id="text_31">
    <!-- model accuracy -->
    <g transform="translate(199.938437 186.84)scale(0.12 -0.12)">
     <use xlink:href="#DejaVuSans-109"/>
     <use x="97.412109" xlink:href="#DejaVuSans-111"/>
     <use x="158.59375" xlink:href="#DejaVuSans-100"/>
     <use x="222.070312" xlink:href="#DejaVuSans-101"/>
     <use x="283.59375" xlink:href="#DejaVuSans-108"/>
     <use x="311.376953" xlink:href="#DejaVuSans-32"/>
     <use x="343.164062" xlink:href="#DejaVuSans-97"/>
     <use x="404.443359" xlink:href="#DejaVuSans-99"/>
     <use x="459.423828" xlink:href="#DejaVuSans-99"/>
     <use x="514.404297" xlink:href="#DejaVuSans-117"/>
     <use x="577.783203" xlink:href="#DejaVuSans-114"/>
     <use x="618.896484" xlink:href="#DejaVuSans-97"/>
     <use x="680.175781" xlink:href="#DejaVuSans-99"/>
     <use x="735.15625" xlink:href="#DejaVuSans-121"/>
    </g>
   </g>
   <g id="legend_2">
    <g id="patch_13">
     <path d="M 54.72 230.19625 
L 109.995 230.19625 
Q 111.995 230.19625 111.995 228.19625 
L 111.995 199.84 
Q 111.995 197.84 109.995 197.84 
L 54.72 197.84 
Q 52.72 197.84 52.72 199.84 
L 52.72 228.19625 
Q 52.72 230.19625 54.72 230.19625 
z
" style="fill:#ffffff;opacity:0.8;stroke:#cccccc;stroke-linejoin:miter;"/>
    </g>
    <g id="line2d_32">
     <path d="M 56.72 205.938437 
L 76.72 205.938437 
" style="fill:none;stroke:#0000ff;stroke-linecap:square;stroke-width:1.5;"/>
    </g>
    <g id="line2d_33"/>
    <g id="text_32">
     <!-- train -->
     <g transform="translate(84.72 209.438437)scale(0.1 -0.1)">
      <use xlink:href="#DejaVuSans-116"/>
      <use x="39.208984" xlink:href="#DejaVuSans-114"/>
      <use x="80.322266" xlink:href="#DejaVuSans-97"/>
      <use x="141.601562" xlink:href="#DejaVuSans-105"/>
      <use x="169.384766" xlink:href="#DejaVuSans-110"/>
     </g>
    </g>
    <g id="line2d_34">
     <path d="M 56.72 220.616562 
L 76.72 220.616562 
" style="fill:none;stroke:#ffa500;stroke-linecap:square;stroke-width:1.5;"/>
    </g>
    <g id="line2d_35"/>
    <g id="text_33">
     <!-- test -->
     <g transform="translate(84.72 224.116562)scale(0.1 -0.1)">
      <use xlink:href="#DejaVuSans-116"/>
      <use x="39.208984" xlink:href="#DejaVuSans-101"/>
      <use x="100.732422" xlink:href="#DejaVuSans-115"/>
      <use x="152.832031" xlink:href="#DejaVuSans-116"/>
     </g>
    </g>
   </g>
  </g>
 </g>
 <defs>
  <clipPath id="pdd963ef11e">
   <rect height="110.8" width="399.76" x="47.72" y="25.44"/>
  </clipPath>
  <clipPath id="p75add4a28f">
   <rect height="110.8" width="399.76" x="47.72" y="192.84"/>
  </clipPath>
 </defs>
</svg>
