<?xml version="1.0" encoding="utf-8" standalone="no"?>
<!DOCTYPE svg PUBLIC "-//W3C//DTD SVG 1.1//EN"
  "http://www.w3.org/Graphics/SVG/1.1/DTD/svg11.dtd">
<!-- Created with matplotlib (https://matplotlib.org/) -->
<svg height="345.6pt" version="1.1" viewBox="0 0 460.8 345.6" width="460.8pt" xmlns="http://www.w3.org/2000/svg" xmlns:xlink="http://www.w3.org/1999/xlink">
 <defs>
  <style type="text/css">
*{stroke-linecap:butt;stroke-linejoin:round;}
  </style>
 </defs>
 <g id="figure_1">
  <g id="patch_1">
   <path d="M 0 345.6 
L 460.8 345.6 
L 460.8 0 
L 0 0 
z
" style="fill:#ffffff;"/>
  </g>
  <g id="axes_1">
   <g id="patch_2">
    <path d="M 47.72 136.24 
L 447.48 136.24 
L 447.48 25.44 
L 47.72 25.44 
z
" style="fill:#ffffff;"/>
   </g>
   <g id="matplotlib.axis_1">
    <g id="xtick_1">
     <g id="line2d_1">
      <defs>
       <path d="M 0 0 
L 0 3.5 
" id="macf52667a9" style="stroke:#000000;stroke-width:0.8;"/>
      </defs>
      <g>
       <use style="stroke:#000000;stroke-width:0.8;" x="65.890909" xlink:href="#macf52667a9" y="136.24"/>
      </g>
     </g>
     <g id="text_1">
      <!-- 0 -->
      <defs>
       <path d="M 31.78125 66.40625 
Q 24.171875 66.40625 20.328125 58.90625 
Q 16.5 51.421875 16.5 36.375 
Q 16.5 21.390625 20.328125 13.890625 
Q 24.171875 6.390625 31.78125 6.390625 
Q 39.453125 6.390625 43.28125 13.890625 
Q 47.125 21.390625 47.125 36.375 
Q 47.125 51.421875 43.28125 58.90625 
Q 39.453125 66.40625 31.78125 66.40625 
z
M 31.78125 74.21875 
Q 44.046875 74.21875 50.515625 64.515625 
Q 56.984375 54.828125 56.984375 36.375 
Q 56.984375 17.96875 50.515625 8.265625 
Q 44.046875 -1.421875 31.78125 -1.421875 
Q 19.53125 -1.421875 13.0625 8.265625 
Q 6.59375 17.96875 6.59375 36.375 
Q 6.59375 54.828125 13.0625 64.515625 
Q 19.53125 74.21875 31.78125 74.21875 
z
" id="DejaVuSans-48"/>
      </defs>
      <g transform="translate(62.709659 150.838437)scale(0.1 -0.1)">
       <use xlink:href="#DejaVuSans-48"/>
      </g>
     </g>
    </g>
    <g id="xtick_2">
     <g id="line2d_2">
      <g>
       <use style="stroke:#000000;stroke-width:0.8;" x="138.720204" xlink:href="#macf52667a9" y="136.24"/>
      </g>
     </g>
     <g id="text_2">
      <!-- 100 -->
      <defs>
       <path d="M 12.40625 8.296875 
L 28.515625 8.296875 
L 28.515625 63.921875 
L 10.984375 60.40625 
L 10.984375 69.390625 
L 28.421875 72.90625 
L 38.28125 72.90625 
L 38.28125 8.296875 
L 54.390625 8.296875 
L 54.390625 0 
L 12.40625 0 
z
" id="DejaVuSans-49"/>
      </defs>
      <g transform="translate(129.176454 150.838437)scale(0.1 -0.1)">
       <use xlink:href="#DejaVuSans-49"/>
       <use x="63.623047" xlink:href="#DejaVuSans-48"/>
       <use x="127.246094" xlink:href="#DejaVuSans-48"/>
      </g>
     </g>
    </g>
    <g id="xtick_3">
     <g id="line2d_3">
      <g>
       <use style="stroke:#000000;stroke-width:0.8;" x="211.549499" xlink:href="#macf52667a9" y="136.24"/>
      </g>
     </g>
     <g id="text_3">
      <!-- 200 -->
      <defs>
       <path d="M 19.1875 8.296875 
L 53.609375 8.296875 
L 53.609375 0 
L 7.328125 0 
L 7.328125 8.296875 
Q 12.9375 14.109375 22.625 23.890625 
Q 32.328125 33.6875 34.8125 36.53125 
Q 39.546875 41.84375 41.421875 45.53125 
Q 43.3125 49.21875 43.3125 52.78125 
Q 43.3125 58.59375 39.234375 62.25 
Q 35.15625 65.921875 28.609375 65.921875 
Q 23.96875 65.921875 18.8125 64.3125 
Q 13.671875 62.703125 7.8125 59.421875 
L 7.8125 69.390625 
Q 13.765625 71.78125 18.9375 73 
Q 24.125 74.21875 28.421875 74.21875 
Q 39.75 74.21875 46.484375 68.546875 
Q 53.21875 62.890625 53.21875 53.421875 
Q 53.21875 48.921875 51.53125 44.890625 
Q 49.859375 40.875 45.40625 35.40625 
Q 44.1875 33.984375 37.640625 27.21875 
Q 31.109375 20.453125 19.1875 8.296875 
z
" id="DejaVuSans-50"/>
      </defs>
      <g transform="translate(202.005749 150.838437)scale(0.1 -0.1)">
       <use xlink:href="#DejaVuSans-50"/>
       <use x="63.623047" xlink:href="#DejaVuSans-48"/>
       <use x="127.246094" xlink:href="#DejaVuSans-48"/>
      </g>
     </g>
    </g>
    <g id="xtick_4">
     <g id="line2d_4">
      <g>
       <use style="stroke:#000000;stroke-width:0.8;" x="284.378794" xlink:href="#macf52667a9" y="136.24"/>
      </g>
     </g>
     <g id="text_4">
      <!-- 300 -->
      <defs>
       <path d="M 40.578125 39.3125 
Q 47.65625 37.796875 51.625 33 
Q 55.609375 28.21875 55.609375 21.1875 
Q 55.609375 10.40625 48.1875 4.484375 
Q 40.765625 -1.421875 27.09375 -1.421875 
Q 22.515625 -1.421875 17.65625 -0.515625 
Q 12.796875 0.390625 7.625 2.203125 
L 7.625 11.71875 
Q 11.71875 9.328125 16.59375 8.109375 
Q 21.484375 6.890625 26.8125 6.890625 
Q 36.078125 6.890625 40.9375 10.546875 
Q 45.796875 14.203125 45.796875 21.1875 
Q 45.796875 27.640625 41.28125 31.265625 
Q 36.765625 34.90625 28.71875 34.90625 
L 20.21875 34.90625 
L 20.21875 43.015625 
L 29.109375 43.015625 
Q 36.375 43.015625 40.234375 45.921875 
Q 44.09375 48.828125 44.09375 54.296875 
Q 44.09375 59.90625 40.109375 62.90625 
Q 36.140625 65.921875 28.71875 65.921875 
Q 24.65625 65.921875 20.015625 65.03125 
Q 15.375 64.15625 9.8125 62.3125 
L 9.8125 71.09375 
Q 15.4375 72.65625 20.34375 73.4375 
Q 25.25 74.21875 29.59375 74.21875 
Q 40.828125 74.21875 47.359375 69.109375 
Q 53.90625 64.015625 53.90625 55.328125 
Q 53.90625 49.265625 50.4375 45.09375 
Q 46.96875 40.921875 40.578125 39.3125 
z
" id="DejaVuSans-51"/>
      </defs>
      <g transform="translate(274.835044 150.838437)scale(0.1 -0.1)">
       <use xlink:href="#DejaVuSans-51"/>
       <use x="63.623047" xlink:href="#DejaVuSans-48"/>
       <use x="127.246094" xlink:href="#DejaVuSans-48"/>
      </g>
     </g>
    </g>
    <g id="xtick_5">
     <g id="line2d_5">
      <g>
       <use style="stroke:#000000;stroke-width:0.8;" x="357.208089" xlink:href="#macf52667a9" y="136.24"/>
      </g>
     </g>
     <g id="text_5">
      <!-- 400 -->
      <defs>
       <path d="M 37.796875 64.3125 
L 12.890625 25.390625 
L 37.796875 25.390625 
z
M 35.203125 72.90625 
L 47.609375 72.90625 
L 47.609375 25.390625 
L 58.015625 25.390625 
L 58.015625 17.1875 
L 47.609375 17.1875 
L 47.609375 0 
L 37.796875 0 
L 37.796875 17.1875 
L 4.890625 17.1875 
L 4.890625 26.703125 
z
" id="DejaVuSans-52"/>
      </defs>
      <g transform="translate(347.664339 150.838437)scale(0.1 -0.1)">
       <use xlink:href="#DejaVuSans-52"/>
       <use x="63.623047" xlink:href="#DejaVuSans-48"/>
       <use x="127.246094" xlink:href="#DejaVuSans-48"/>
      </g>
     </g>
    </g>
    <g id="xtick_6">
     <g id="line2d_6">
      <g>
       <use style="stroke:#000000;stroke-width:0.8;" x="430.037384" xlink:href="#macf52667a9" y="136.24"/>
      </g>
     </g>
     <g id="text_6">
      <!-- 500 -->
      <defs>
       <path d="M 10.796875 72.90625 
L 49.515625 72.90625 
L 49.515625 64.59375 
L 19.828125 64.59375 
L 19.828125 46.734375 
Q 21.96875 47.46875 24.109375 47.828125 
Q 26.265625 48.1875 28.421875 48.1875 
Q 40.625 48.1875 47.75 41.5 
Q 54.890625 34.8125 54.890625 23.390625 
Q 54.890625 11.625 47.5625 5.09375 
Q 40.234375 -1.421875 26.90625 -1.421875 
Q 22.3125 -1.421875 17.546875 -0.640625 
Q 12.796875 0.140625 7.71875 1.703125 
L 7.71875 11.625 
Q 12.109375 9.234375 16.796875 8.0625 
Q 21.484375 6.890625 26.703125 6.890625 
Q 35.15625 6.890625 40.078125 11.328125 
Q 45.015625 15.765625 45.015625 23.390625 
Q 45.015625 31 40.078125 35.4375 
Q 35.15625 39.890625 26.703125 39.890625 
Q 22.75 39.890625 18.8125 39.015625 
Q 14.890625 38.140625 10.796875 36.28125 
z
" id="DejaVuSans-53"/>
      </defs>
      <g transform="translate(420.493634 150.838437)scale(0.1 -0.1)">
       <use xlink:href="#DejaVuSans-53"/>
       <use x="63.623047" xlink:href="#DejaVuSans-48"/>
       <use x="127.246094" xlink:href="#DejaVuSans-48"/>
      </g>
     </g>
    </g>
    <g id="text_7">
     <!-- epoch -->
     <defs>
      <path d="M 56.203125 29.59375 
L 56.203125 25.203125 
L 14.890625 25.203125 
Q 15.484375 15.921875 20.484375 11.0625 
Q 25.484375 6.203125 34.421875 6.203125 
Q 39.59375 6.203125 44.453125 7.46875 
Q 49.3125 8.734375 54.109375 11.28125 
L 54.109375 2.78125 
Q 49.265625 0.734375 44.1875 -0.34375 
Q 39.109375 -1.421875 33.890625 -1.421875 
Q 20.796875 -1.421875 13.15625 6.1875 
Q 5.515625 13.8125 5.515625 26.8125 
Q 5.515625 40.234375 12.765625 48.109375 
Q 20.015625 56 32.328125 56 
Q 43.359375 56 49.78125 48.890625 
Q 56.203125 41.796875 56.203125 29.59375 
z
M 47.21875 32.234375 
Q 47.125 39.59375 43.09375 43.984375 
Q 39.0625 48.390625 32.421875 48.390625 
Q 24.90625 48.390625 20.390625 44.140625 
Q 15.875 39.890625 15.1875 32.171875 
z
" id="DejaVuSans-101"/>
      <path d="M 18.109375 8.203125 
L 18.109375 -20.796875 
L 9.078125 -20.796875 
L 9.078125 54.6875 
L 18.109375 54.6875 
L 18.109375 46.390625 
Q 20.953125 51.265625 25.265625 53.625 
Q 29.59375 56 35.59375 56 
Q 45.5625 56 51.78125 48.09375 
Q 58.015625 40.1875 58.015625 27.296875 
Q 58.015625 14.40625 51.78125 6.484375 
Q 45.5625 -1.421875 35.59375 -1.421875 
Q 29.59375 -1.421875 25.265625 0.953125 
Q 20.953125 3.328125 18.109375 8.203125 
z
M 48.6875 27.296875 
Q 48.6875 37.203125 44.609375 42.84375 
Q 40.53125 48.484375 33.40625 48.484375 
Q 26.265625 48.484375 22.1875 42.84375 
Q 18.109375 37.203125 18.109375 27.296875 
Q 18.109375 17.390625 22.1875 11.75 
Q 26.265625 6.109375 33.40625 6.109375 
Q 40.53125 6.109375 44.609375 11.75 
Q 48.6875 17.390625 48.6875 27.296875 
z
" id="DejaVuSans-112"/>
      <path d="M 30.609375 48.390625 
Q 23.390625 48.390625 19.1875 42.75 
Q 14.984375 37.109375 14.984375 27.296875 
Q 14.984375 17.484375 19.15625 11.84375 
Q 23.34375 6.203125 30.609375 6.203125 
Q 37.796875 6.203125 41.984375 11.859375 
Q 46.1875 17.53125 46.1875 27.296875 
Q 46.1875 37.015625 41.984375 42.703125 
Q 37.796875 48.390625 30.609375 48.390625 
z
M 30.609375 56 
Q 42.328125 56 49.015625 48.375 
Q 55.71875 40.765625 55.71875 27.296875 
Q 55.71875 13.875 49.015625 6.21875 
Q 42.328125 -1.421875 30.609375 -1.421875 
Q 18.84375 -1.421875 12.171875 6.21875 
Q 5.515625 13.875 5.515625 27.296875 
Q 5.515625 40.765625 12.171875 48.375 
Q 18.84375 56 30.609375 56 
z
" id="DejaVuSans-111"/>
      <path d="M 48.78125 52.59375 
L 48.78125 44.1875 
Q 44.96875 46.296875 41.140625 47.34375 
Q 37.3125 48.390625 33.40625 48.390625 
Q 24.65625 48.390625 19.8125 42.84375 
Q 14.984375 37.3125 14.984375 27.296875 
Q 14.984375 17.28125 19.8125 11.734375 
Q 24.65625 6.203125 33.40625 6.203125 
Q 37.3125 6.203125 41.140625 7.25 
Q 44.96875 8.296875 48.78125 10.40625 
L 48.78125 2.09375 
Q 45.015625 0.34375 40.984375 -0.53125 
Q 36.96875 -1.421875 32.421875 -1.421875 
Q 20.0625 -1.421875 12.78125 6.34375 
Q 5.515625 14.109375 5.515625 27.296875 
Q 5.515625 40.671875 12.859375 48.328125 
Q 20.21875 56 33.015625 56 
Q 37.15625 56 41.109375 55.140625 
Q 45.0625 54.296875 48.78125 52.59375 
z
" id="DejaVuSans-99"/>
      <path d="M 54.890625 33.015625 
L 54.890625 0 
L 45.90625 0 
L 45.90625 32.71875 
Q 45.90625 40.484375 42.875 44.328125 
Q 39.84375 48.1875 33.796875 48.1875 
Q 26.515625 48.1875 22.3125 43.546875 
Q 18.109375 38.921875 18.109375 30.90625 
L 18.109375 0 
L 9.078125 0 
L 9.078125 75.984375 
L 18.109375 75.984375 
L 18.109375 46.1875 
Q 21.34375 51.125 25.703125 53.5625 
Q 30.078125 56 35.796875 56 
Q 45.21875 56 50.046875 50.171875 
Q 54.890625 44.34375 54.890625 33.015625 
z
" id="DejaVuSans-104"/>
     </defs>
     <g transform="translate(232.371875 164.516562)scale(0.1 -0.1)">
      <use xlink:href="#DejaVuSans-101"/>
      <use x="61.523438" xlink:href="#DejaVuSans-112"/>
      <use x="125" xlink:href="#DejaVuSans-111"/>
      <use x="186.181641" xlink:href="#DejaVuSans-99"/>
      <use x="241.162109" xlink:href="#DejaVuSans-104"/>
     </g>
    </g>
   </g>
   <g id="matplotlib.axis_2">
    <g id="ytick_1">
     <g id="line2d_7">
      <defs>
       <path d="M 0 0 
L -3.5 0 
" id="mfd8200809d" style="stroke:#000000;stroke-width:0.8;"/>
      </defs>
      <g>
       <use style="stroke:#000000;stroke-width:0.8;" x="47.72" xlink:href="#mfd8200809d" y="132.855956"/>
      </g>
     </g>
     <g id="text_8">
      <!-- 0.4 -->
      <defs>
       <path d="M 10.6875 12.40625 
L 21 12.40625 
L 21 0 
L 10.6875 0 
z
" id="DejaVuSans-46"/>
      </defs>
      <g transform="translate(24.816875 136.655175)scale(0.1 -0.1)">
       <use xlink:href="#DejaVuSans-48"/>
       <use x="63.623047" xlink:href="#DejaVuSans-46"/>
       <use x="95.410156" xlink:href="#DejaVuSans-52"/>
      </g>
     </g>
    </g>
    <g id="ytick_2">
     <g id="line2d_8">
      <g>
       <use style="stroke:#000000;stroke-width:0.8;" x="47.72" xlink:href="#mfd8200809d" y="107.954353"/>
      </g>
     </g>
     <g id="text_9">
      <!-- 0.6 -->
      <defs>
       <path d="M 33.015625 40.375 
Q 26.375 40.375 22.484375 35.828125 
Q 18.609375 31.296875 18.609375 23.390625 
Q 18.609375 15.53125 22.484375 10.953125 
Q 26.375 6.390625 33.015625 6.390625 
Q 39.65625 6.390625 43.53125 10.953125 
Q 47.40625 15.53125 47.40625 23.390625 
Q 47.40625 31.296875 43.53125 35.828125 
Q 39.65625 40.375 33.015625 40.375 
z
M 52.59375 71.296875 
L 52.59375 62.3125 
Q 48.875 64.0625 45.09375 64.984375 
Q 41.3125 65.921875 37.59375 65.921875 
Q 27.828125 65.921875 22.671875 59.328125 
Q 17.53125 52.734375 16.796875 39.40625 
Q 19.671875 43.65625 24.015625 45.921875 
Q 28.375 48.1875 33.59375 48.1875 
Q 44.578125 48.1875 50.953125 41.515625 
Q 57.328125 34.859375 57.328125 23.390625 
Q 57.328125 12.15625 50.6875 5.359375 
Q 44.046875 -1.421875 33.015625 -1.421875 
Q 20.359375 -1.421875 13.671875 8.265625 
Q 6.984375 17.96875 6.984375 36.375 
Q 6.984375 53.65625 15.1875 63.9375 
Q 23.390625 74.21875 37.203125 74.21875 
Q 40.921875 74.21875 44.703125 73.484375 
Q 48.484375 72.75 52.59375 71.296875 
z
" id="DejaVuSans-54"/>
      </defs>
      <g transform="translate(24.816875 111.753572)scale(0.1 -0.1)">
       <use xlink:href="#DejaVuSans-48"/>
       <use x="63.623047" xlink:href="#DejaVuSans-46"/>
       <use x="95.410156" xlink:href="#DejaVuSans-54"/>
      </g>
     </g>
    </g>
    <g id="ytick_3">
     <g id="line2d_9">
      <g>
       <use style="stroke:#000000;stroke-width:0.8;" x="47.72" xlink:href="#mfd8200809d" y="83.05275"/>
      </g>
     </g>
     <g id="text_10">
      <!-- 0.8 -->
      <defs>
       <path d="M 31.78125 34.625 
Q 24.75 34.625 20.71875 30.859375 
Q 16.703125 27.09375 16.703125 20.515625 
Q 16.703125 13.921875 20.71875 10.15625 
Q 24.75 6.390625 31.78125 6.390625 
Q 38.8125 6.390625 42.859375 10.171875 
Q 46.921875 13.96875 46.921875 20.515625 
Q 46.921875 27.09375 42.890625 30.859375 
Q 38.875 34.625 31.78125 34.625 
z
M 21.921875 38.8125 
Q 15.578125 40.375 12.03125 44.71875 
Q 8.5 49.078125 8.5 55.328125 
Q 8.5 64.0625 14.71875 69.140625 
Q 20.953125 74.21875 31.78125 74.21875 
Q 42.671875 74.21875 48.875 69.140625 
Q 55.078125 64.0625 55.078125 55.328125 
Q 55.078125 49.078125 51.53125 44.71875 
Q 48 40.375 41.703125 38.8125 
Q 48.828125 37.15625 52.796875 32.3125 
Q 56.78125 27.484375 56.78125 20.515625 
Q 56.78125 9.90625 50.3125 4.234375 
Q 43.84375 -1.421875 31.78125 -1.421875 
Q 19.734375 -1.421875 13.25 4.234375 
Q 6.78125 9.90625 6.78125 20.515625 
Q 6.78125 27.484375 10.78125 32.3125 
Q 14.796875 37.15625 21.921875 38.8125 
z
M 18.3125 54.390625 
Q 18.3125 48.734375 21.84375 45.5625 
Q 25.390625 42.390625 31.78125 42.390625 
Q 38.140625 42.390625 41.71875 45.5625 
Q 45.3125 48.734375 45.3125 54.390625 
Q 45.3125 60.0625 41.71875 63.234375 
Q 38.140625 66.40625 31.78125 66.40625 
Q 25.390625 66.40625 21.84375 63.234375 
Q 18.3125 60.0625 18.3125 54.390625 
z
" id="DejaVuSans-56"/>
      </defs>
      <g transform="translate(24.816875 86.851968)scale(0.1 -0.1)">
       <use xlink:href="#DejaVuSans-48"/>
       <use x="63.623047" xlink:href="#DejaVuSans-46"/>
       <use x="95.410156" xlink:href="#DejaVuSans-56"/>
      </g>
     </g>
    </g>
    <g id="ytick_4">
     <g id="line2d_10">
      <g>
       <use style="stroke:#000000;stroke-width:0.8;" x="47.72" xlink:href="#mfd8200809d" y="58.151146"/>
      </g>
     </g>
     <g id="text_11">
      <!-- 1.0 -->
      <g transform="translate(24.816875 61.950365)scale(0.1 -0.1)">
       <use xlink:href="#DejaVuSans-49"/>
       <use x="63.623047" xlink:href="#DejaVuSans-46"/>
       <use x="95.410156" xlink:href="#DejaVuSans-48"/>
      </g>
     </g>
    </g>
    <g id="ytick_5">
     <g id="line2d_11">
      <g>
       <use style="stroke:#000000;stroke-width:0.8;" x="47.72" xlink:href="#mfd8200809d" y="33.249543"/>
      </g>
     </g>
     <g id="text_12">
      <!-- 1.2 -->
      <g transform="translate(24.816875 37.048761)scale(0.1 -0.1)">
       <use xlink:href="#DejaVuSans-49"/>
       <use x="63.623047" xlink:href="#DejaVuSans-46"/>
       <use x="95.410156" xlink:href="#DejaVuSans-50"/>
      </g>
     </g>
    </g>
    <g id="text_13">
     <!-- loss -->
     <defs>
      <path d="M 9.421875 75.984375 
L 18.40625 75.984375 
L 18.40625 0 
L 9.421875 0 
z
" id="DejaVuSans-108"/>
      <path d="M 44.28125 53.078125 
L 44.28125 44.578125 
Q 40.484375 46.53125 36.375 47.5 
Q 32.28125 48.484375 27.875 48.484375 
Q 21.1875 48.484375 17.84375 46.4375 
Q 14.5 44.390625 14.5 40.28125 
Q 14.5 37.15625 16.890625 35.375 
Q 19.28125 33.59375 26.515625 31.984375 
L 29.59375 31.296875 
Q 39.15625 29.25 43.1875 25.515625 
Q 47.21875 21.78125 47.21875 15.09375 
Q 47.21875 7.46875 41.1875 3.015625 
Q 35.15625 -1.421875 24.609375 -1.421875 
Q 20.21875 -1.421875 15.453125 -0.5625 
Q 10.6875 0.296875 5.421875 2 
L 5.421875 11.28125 
Q 10.40625 8.6875 15.234375 7.390625 
Q 20.0625 6.109375 24.8125 6.109375 
Q 31.15625 6.109375 34.5625 8.28125 
Q 37.984375 10.453125 37.984375 14.40625 
Q 37.984375 18.0625 35.515625 20.015625 
Q 33.0625 21.96875 24.703125 23.78125 
L 21.578125 24.515625 
Q 13.234375 26.265625 9.515625 29.90625 
Q 5.8125 33.546875 5.8125 39.890625 
Q 5.8125 47.609375 11.28125 51.796875 
Q 16.75 56 26.8125 56 
Q 31.78125 56 36.171875 55.265625 
Q 40.578125 54.546875 44.28125 53.078125 
z
" id="DejaVuSans-115"/>
     </defs>
     <g transform="translate(18.737188 90.497812)rotate(-90)scale(0.1 -0.1)">
      <use xlink:href="#DejaVuSans-108"/>
      <use x="27.783203" xlink:href="#DejaVuSans-111"/>
      <use x="88.964844" xlink:href="#DejaVuSans-115"/>
      <use x="141.064453" xlink:href="#DejaVuSans-115"/>
     </g>
    </g>
   </g>
   <g id="line2d_12">
    <path clip-path="url(#pefd46ddeec)" d="M 65.890909 30.476364 
L 66.619202 39.765205 
L 68.075788 42.252413 
L 68.804081 43.016098 
L 69.532374 44.384877 
L 71.717253 47.802284 
L 73.173839 50.378971 
L 77.543596 59.288288 
L 78.271889 60.584773 
L 79.000182 61.561649 
L 80.456768 64.354814 
L 81.185061 65.342941 
L 84.098233 70.904428 
L 85.554819 74.187255 
L 87.011405 78.320901 
L 88.467991 82.077514 
L 89.924576 85.606796 
L 91.381162 88.278227 
L 92.837748 90.680576 
L 95.75092 94.283157 
L 96.479213 94.78704 
L 98.664092 96.789032 
L 100.120678 97.910851 
L 100.848971 98.512258 
L 101.577264 98.889698 
L 103.762142 100.412589 
L 107.403607 102.469575 
L 108.1319 102.776557 
L 109.588486 103.753844 
L 110.316779 104.190327 
L 111.045072 104.288642 
L 111.773365 104.770295 
L 113.229951 105.278301 
L 117.599709 107.115282 
L 120.51288 108.137633 
L 121.969466 108.631669 
L 122.697759 108.982799 
L 123.426052 109.178282 
L 124.154345 109.250097 
L 124.882638 109.661311 
L 125.610931 109.609096 
L 127.067517 110.259708 
L 127.79581 110.287343 
L 128.524103 110.621618 
L 130.708982 110.971446 
L 132.165567 111.629911 
L 132.89386 111.677877 
L 135.078739 112.298735 
L 135.807032 112.257979 
L 136.535325 112.422116 
L 137.263618 112.819582 
L 137.991911 113.070503 
L 138.720204 113.109989 
L 139.448497 113.391771 
L 140.905083 113.387733 
L 141.633376 113.881067 
L 142.361669 113.723472 
L 143.089962 114.025524 
L 144.546548 114.168176 
L 146.731426 114.811842 
L 147.459719 114.638196 
L 148.916305 115.070647 
L 152.55777 115.650695 
L 153.286063 115.652211 
L 154.014356 115.959291 
L 154.742649 116.083065 
L 155.470942 115.882404 
L 156.199235 116.405815 
L 156.927528 116.352447 
L 158.384114 116.532526 
L 159.112407 116.784129 
L 160.568993 117.009808 
L 161.297285 117.00097 
L 162.025578 117.185716 
L 162.753871 117.224709 
L 163.482164 117.108463 
L 164.210457 117.408329 
L 166.395336 117.756701 
L 167.123629 117.723841 
L 167.851922 117.929772 
L 170.765094 118.210199 
L 171.493387 118.159968 
L 172.22168 118.458839 
L 173.678266 118.618997 
L 174.406559 118.456906 
L 175.134852 118.862219 
L 179.504609 119.254541 
L 180.232902 119.536339 
L 180.961195 119.312255 
L 183.146074 119.614731 
L 183.874367 119.90038 
L 184.60266 119.666939 
L 185.330953 119.819992 
L 186.059246 119.83962 
L 186.787539 119.742626 
L 187.515832 120.172514 
L 188.972418 120.064593 
L 189.700711 120.422908 
L 190.429003 120.255688 
L 191.157296 120.443399 
L 194.070468 120.598508 
L 194.798761 120.814018 
L 196.98364 121.015224 
L 199.168519 121.060207 
L 200.625105 121.072901 
L 201.353398 121.429281 
L 202.081691 121.281501 
L 202.809984 121.304169 
L 203.538277 121.599932 
L 204.26657 121.432254 
L 204.994862 121.396944 
L 205.723155 121.843118 
L 206.451448 121.861687 
L 207.179741 121.655072 
L 207.908034 121.727004 
L 208.636327 121.920296 
L 209.36462 121.940632 
L 210.092913 122.200998 
L 210.821206 121.985293 
L 211.549499 122.242898 
L 213.006085 122.116141 
L 213.734378 122.2792 
L 215.190964 122.253419 
L 215.919257 122.480126 
L 216.64755 122.415541 
L 218.104136 122.577152 
L 218.832428 122.343055 
L 219.560721 122.485596 
L 220.289014 122.903012 
L 221.017307 122.878056 
L 221.7456 122.637031 
L 222.473893 122.867208 
L 223.202186 122.76201 
L 223.930479 122.978434 
L 225.387065 123.145958 
L 226.115358 123.140382 
L 227.571944 123.302436 
L 228.300237 123.200773 
L 229.02853 123.327509 
L 230.485116 123.143653 
L 231.213409 123.348973 
L 231.941702 123.316514 
L 233.398287 123.546618 
L 234.12658 123.500676 
L 234.854873 123.733712 
L 237.039752 123.66132 
L 238.496338 123.839901 
L 239.224631 123.69834 
L 239.952924 124.025352 
L 240.681217 123.979057 
L 242.866096 124.081381 
L 243.594389 124.061484 
L 244.322682 124.208692 
L 245.050975 124.065682 
L 245.779268 124.298973 
L 246.507561 124.192585 
L 247.235854 124.248591 
L 247.964146 124.4593 
L 248.692439 124.353107 
L 249.420732 124.468214 
L 250.149025 124.380107 
L 250.877318 124.548548 
L 251.605611 124.38105 
L 252.333904 124.89623 
L 254.518783 124.867927 
L 255.247076 124.612601 
L 257.431955 124.914497 
L 258.160248 124.962182 
L 259.616834 124.778147 
L 260.345127 125.243492 
L 261.07342 124.84621 
L 261.801713 124.962408 
L 262.530005 125.269771 
L 263.258298 125.026388 
L 263.986591 125.214319 
L 266.899763 125.352476 
L 268.356349 125.437236 
L 269.084642 125.450155 
L 269.812935 125.351485 
L 272.726107 125.62517 
L 273.4544 125.514029 
L 274.182693 125.814643 
L 274.910986 125.675547 
L 277.824157 125.877547 
L 278.55245 126.089149 
L 279.280743 125.867128 
L 280.009036 125.859578 
L 280.737329 126.020928 
L 282.193915 126.01221 
L 282.922208 125.877486 
L 283.650501 125.925857 
L 284.378794 126.324063 
L 285.107087 126.060107 
L 285.83538 126.171677 
L 289.476845 126.195607 
L 290.205138 126.392576 
L 291.661723 126.460431 
L 294.574895 126.415975 
L 295.303188 126.687922 
L 296.031481 126.734224 
L 296.759774 126.597718 
L 297.488067 126.688199 
L 298.944653 126.542216 
L 300.401239 126.753589 
L 301.129532 126.699876 
L 301.857825 126.884202 
L 302.586118 126.770034 
L 303.314411 126.833718 
L 304.042704 126.768014 
L 307.684168 127.083954 
L 308.412461 126.864206 
L 309.140754 127.052571 
L 309.869047 126.942769 
L 310.59734 127.162201 
L 311.325633 127.065881 
L 312.053926 127.125805 
L 313.510512 126.90334 
L 314.238805 127.230627 
L 319.336856 127.491064 
L 320.065148 127.292749 
L 320.793441 127.520359 
L 321.521734 127.480881 
L 322.250027 127.581126 
L 322.97832 127.458374 
L 325.163199 127.566239 
L 325.891492 127.381089 
L 326.619785 127.735899 
L 327.348078 127.268249 
L 328.804664 127.862677 
L 329.532957 127.650695 
L 333.174422 127.948706 
L 333.902715 127.730254 
L 337.544179 128.028752 
L 338.272472 127.932486 
L 339.729058 127.912361 
L 340.457351 127.895352 
L 341.185644 128.1288 
L 341.913937 128.015615 
L 344.827109 128.344258 
L 345.555402 128.085928 
L 347.011988 128.003279 
L 347.740281 128.184164 
L 349.196866 128.241856 
L 352.110038 128.297967 
L 352.838331 128.386028 
L 353.566624 128.257024 
L 354.294917 128.519185 
L 355.02321 128.208997 
L 355.751503 128.575225 
L 356.479796 128.204353 
L 357.208089 128.607087 
L 357.936382 128.474678 
L 362.30614 128.560951 
L 363.034433 128.779697 
L 363.762725 128.649334 
L 364.491018 128.775951 
L 365.947604 128.683464 
L 366.675897 128.82277 
L 367.40419 128.695485 
L 369.589069 128.834872 
L 370.317362 128.700253 
L 371.773948 128.917548 
L 372.502241 128.805658 
L 373.230534 128.97636 
L 373.958827 128.874948 
L 379.056877 128.970636 
L 379.78517 128.92888 
L 380.513463 129.114829 
L 381.241756 128.99269 
L 382.698342 129.383245 
L 383.426635 129.149646 
L 384.154928 129.115397 
L 384.883221 129.31983 
L 385.611514 129.16442 
L 387.796393 129.255926 
L 389.981272 129.241846 
L 390.709565 129.05135 
L 391.437858 129.347641 
L 393.622736 129.570973 
L 394.351029 129.255199 
L 395.079322 129.56029 
L 395.807615 129.366267 
L 397.992494 129.609695 
L 398.720787 129.330414 
L 399.44908 129.261083 
L 400.177373 129.535716 
L 401.633959 129.413631 
L 404.547131 129.484019 
L 405.275424 129.814627 
L 406.732009 129.638166 
L 407.460302 129.890079 
L 408.188595 129.687852 
L 408.916888 129.604758 
L 410.373474 129.805932 
L 411.101767 129.603072 
L 411.83006 129.785666 
L 414.014939 129.806512 
L 414.743232 129.855392 
L 415.471525 129.723763 
L 416.199818 129.926269 
L 416.928111 129.716991 
L 417.656404 129.774458 
L 418.384697 129.953436 
L 419.841283 129.895759 
L 420.569576 129.863254 
L 421.297868 129.94959 
L 422.026161 129.881578 
L 422.754454 129.657784 
L 423.482747 130.058043 
L 424.21104 129.935892 
L 426.395919 130.072818 
L 427.124212 130.13749 
L 428.580798 129.970448 
L 429.309091 130.205899 
L 429.309091 130.205899 
" style="fill:none;stroke:#0000ff;stroke-linecap:square;stroke-width:1.5;"/>
   </g>
   <g id="line2d_13">
    <path clip-path="url(#pefd46ddeec)" d="M 65.890909 54.783209 
L 66.619202 57.0333 
L 68.075788 60.091409 
L 68.804081 61.279641 
L 69.532374 62.205163 
L 70.260667 63.955063 
L 70.98896 64.476965 
L 71.717253 66.022126 
L 72.445546 68.259847 
L 73.173839 69.097658 
L 73.902132 70.296248 
L 74.630424 72.572428 
L 75.358717 74.088442 
L 76.08701 74.313485 
L 76.815303 75.733406 
L 77.543596 75.936126 
L 78.271889 77.320703 
L 79.000182 77.358404 
L 79.728475 77.267826 
L 80.456768 79.118169 
L 81.185061 79.217741 
L 82.641647 80.554646 
L 83.36994 81.437766 
L 84.098233 81.519129 
L 84.826526 83.654092 
L 85.554819 84.206185 
L 86.283112 85.962598 
L 87.011405 87.091865 
L 87.739698 89.10739 
L 88.467991 90.061852 
L 89.196283 91.961001 
L 89.924576 94.427969 
L 90.652869 97.888752 
L 91.381162 99.493169 
L 92.109455 100.794896 
L 92.837748 101.843049 
L 93.566041 104.41536 
L 94.294334 105.305895 
L 95.022627 107.005263 
L 95.75092 107.503363 
L 96.479213 109.045173 
L 97.207506 109.171705 
L 97.935799 111.554337 
L 98.664092 112.00403 
L 99.392385 113.465748 
L 100.120678 112.361508 
L 100.848971 113.187689 
L 101.577264 115.424269 
L 102.305557 115.512071 
L 103.03385 115.437126 
L 103.762142 116.46876 
L 104.490435 116.629633 
L 105.218728 117.10513 
L 105.947021 118.385784 
L 106.675314 118.091834 
L 107.403607 118.380469 
L 108.1319 118.92724 
L 108.860193 119.645107 
L 109.588486 119.368218 
L 110.316779 120.793364 
L 111.045072 120.18973 
L 111.773365 120.63245 
L 112.501658 120.146946 
L 113.958244 121.342602 
L 114.686537 121.456955 
L 115.41483 121.299767 
L 116.143123 121.876894 
L 118.328001 122.041911 
L 119.056294 122.232038 
L 119.784587 121.668855 
L 120.51288 121.416296 
L 121.241173 123.204852 
L 121.969466 122.815669 
L 122.697759 122.639946 
L 123.426052 122.915266 
L 124.154345 122.685365 
L 124.882638 123.418107 
L 126.339224 123.264282 
L 127.067517 123.153763 
L 127.79581 123.766955 
L 128.524103 123.337669 
L 129.252396 123.496591 
L 129.980689 124.545873 
L 130.708982 123.152386 
L 131.437275 123.281648 
L 132.165567 123.545531 
L 132.89386 124.339221 
L 133.622153 122.980917 
L 134.350446 123.101415 
L 135.078739 123.679889 
L 135.807032 123.924069 
L 136.535325 122.788311 
L 137.263618 124.905898 
L 137.991911 124.649649 
L 138.720204 124.140464 
L 140.17679 124.557979 
L 140.905083 123.963105 
L 141.633376 124.702423 
L 142.361669 124.43813 
L 143.089962 124.452217 
L 143.818255 123.86081 
L 146.003134 123.873151 
L 146.731426 124.921049 
L 147.459719 125.247011 
L 148.188012 124.825295 
L 148.916305 123.786343 
L 149.644598 124.744557 
L 150.372891 125.321119 
L 151.101184 125.286795 
L 151.829477 124.447913 
L 152.55777 124.325789 
L 154.014356 125.134422 
L 154.742649 124.750698 
L 155.470942 124.89591 
L 156.927528 125.810901 
L 157.655821 125.082117 
L 158.384114 125.224302 
L 159.112407 124.503129 
L 159.8407 125.584438 
L 160.568993 125.106331 
L 161.297285 125.115768 
L 162.025578 125.540622 
L 162.753871 125.486075 
L 163.482164 124.426692 
L 164.210457 125.513218 
L 164.93875 125.073157 
L 165.667043 125.812827 
L 166.395336 124.989942 
L 167.851922 125.715224 
L 168.580215 125.356383 
L 169.308508 125.213177 
L 170.036801 125.504238 
L 170.765094 124.901869 
L 171.493387 125.093757 
L 172.22168 125.123259 
L 172.949973 125.439042 
L 173.678266 125.598198 
L 174.406559 125.090659 
L 175.134852 125.684971 
L 176.591437 125.408623 
L 177.31973 125.566776 
L 178.776316 125.354883 
L 179.504609 124.835666 
L 180.232902 125.057473 
L 180.961195 124.968509 
L 181.689488 125.34607 
L 182.417781 124.751817 
L 183.146074 126.234562 
L 183.874367 124.587739 
L 184.60266 126.01305 
L 185.330953 125.887774 
L 186.787539 125.374405 
L 187.515832 125.910184 
L 188.244125 126.209738 
L 188.972418 126.007576 
L 189.700711 126.044423 
L 190.429003 125.822535 
L 191.157296 125.305241 
L 191.885589 125.278811 
L 192.613882 126.554048 
L 193.342175 125.331552 
L 194.070468 125.340575 
L 195.527054 125.874482 
L 196.255347 125.541515 
L 196.98364 125.831408 
L 197.711933 125.982652 
L 198.440226 125.817699 
L 199.168519 126.364325 
L 199.896812 126.12547 
L 200.625105 126.787832 
L 201.353398 125.876127 
L 202.081691 126.305425 
L 202.809984 126.273909 
L 203.538277 126.546572 
L 204.26657 125.803739 
L 204.994862 125.964729 
L 205.723155 125.752433 
L 206.451448 125.92444 
L 207.179741 125.646448 
L 207.908034 126.49027 
L 208.636327 126.535828 
L 209.36462 125.864454 
L 210.092913 125.99674 
L 210.821206 125.431985 
L 212.277792 126.10055 
L 213.006085 125.231817 
L 213.734378 126.077758 
L 214.462671 125.897712 
L 215.190964 125.051878 
L 215.919257 126.542024 
L 216.64755 125.327177 
L 218.104136 125.778439 
L 219.560721 126.881745 
L 220.289014 126.276595 
L 221.017307 126.396281 
L 221.7456 125.810885 
L 223.202186 126.162567 
L 223.930479 125.517627 
L 224.658772 125.941648 
L 226.115358 126.191292 
L 226.843651 126.397615 
L 227.571944 126.395927 
L 228.300237 126.094528 
L 229.756823 126.771232 
L 230.485116 126.766845 
L 232.669995 126.201783 
L 234.12658 126.517366 
L 234.854873 126.393602 
L 235.583166 125.752085 
L 236.311459 126.328861 
L 237.039752 126.477688 
L 237.768045 126.225175 
L 238.496338 126.111488 
L 239.224631 126.358844 
L 241.40951 126.243982 
L 242.137803 127.372478 
L 242.866096 126.54694 
L 243.594389 126.528509 
L 244.322682 125.967659 
L 245.050975 126.85403 
L 245.779268 126.532158 
L 246.507561 126.703102 
L 247.235854 126.690362 
L 247.964146 125.503804 
L 248.692439 126.39417 
L 249.420732 126.269932 
L 250.149025 126.488181 
L 250.877318 126.944421 
L 251.605611 126.106586 
L 252.333904 125.974758 
L 253.062197 126.346593 
L 253.79049 125.753794 
L 254.518783 126.922464 
L 255.247076 127.274942 
L 255.975369 126.777196 
L 256.703662 127.062908 
L 257.431955 126.788263 
L 258.160248 126.958965 
L 258.888541 126.493489 
L 259.616834 126.826833 
L 261.07342 126.82923 
L 261.801713 126.930219 
L 262.530005 127.840138 
L 263.258298 126.674181 
L 263.986591 126.088782 
L 264.714884 127.213701 
L 266.17147 127.141513 
L 266.899763 127.836713 
L 267.628056 127.445331 
L 268.356349 127.439764 
L 269.084642 127.014914 
L 269.812935 127.163619 
L 270.541228 127.127221 
L 271.997814 126.541485 
L 272.726107 127.70961 
L 273.4544 127.187558 
L 274.182693 127.782873 
L 274.910986 127.906906 
L 275.639279 127.839033 
L 276.367572 127.347495 
L 277.095864 127.198098 
L 277.824157 127.788373 
L 279.280743 126.40338 
L 280.009036 127.469052 
L 280.737329 127.727737 
L 281.465622 127.398647 
L 282.193915 127.409263 
L 282.922208 127.619663 
L 284.378794 127.286769 
L 285.107087 127.354655 
L 285.83538 128.014847 
L 287.291966 127.581242 
L 288.020259 127.717136 
L 288.748552 127.31573 
L 289.476845 127.732618 
L 290.93343 127.64935 
L 292.390016 128.05869 
L 293.118309 127.62779 
L 293.846602 126.342576 
L 294.574895 127.21823 
L 295.303188 127.476068 
L 296.031481 127.453823 
L 296.759774 128.221571 
L 297.488067 127.743548 
L 298.21636 128.046818 
L 299.672946 127.440319 
L 300.401239 127.671462 
L 301.129532 128.420189 
L 301.857825 127.313673 
L 302.586118 128.329149 
L 303.314411 128.60356 
L 304.042704 128.197346 
L 304.770997 127.496092 
L 305.499289 128.346057 
L 306.227582 128.361351 
L 306.955875 127.879817 
L 308.412461 128.334411 
L 309.140754 127.92687 
L 309.869047 127.763021 
L 310.59734 127.883965 
L 311.325633 128.248136 
L 312.053926 128.460988 
L 312.782219 127.567328 
L 313.510512 128.416484 
L 314.967098 128.16538 
L 315.695391 128.800506 
L 317.151977 128.740205 
L 317.88027 128.212986 
L 318.608563 128.253287 
L 319.336856 128.773183 
L 320.065148 128.799845 
L 320.793441 128.417731 
L 321.521734 128.545839 
L 322.250027 128.246273 
L 322.97832 128.733564 
L 323.706613 128.846902 
L 324.434906 128.136903 
L 325.891492 128.705831 
L 326.619785 128.371147 
L 327.348078 129.073223 
L 328.076371 128.045567 
L 328.804664 128.579554 
L 329.532957 128.611131 
L 330.26125 128.91443 
L 330.989543 128.67289 
L 331.717836 129.296056 
L 332.446129 128.185369 
L 333.174422 129.363349 
L 333.902715 129.019818 
L 334.631007 128.483816 
L 336.087593 128.354281 
L 336.815886 128.833549 
L 338.272472 128.953049 
L 339.000765 129.04487 
L 339.729058 128.669593 
L 340.457351 129.076247 
L 341.185644 129.162303 
L 341.913937 128.743116 
L 342.64223 128.59318 
L 344.098816 128.659264 
L 344.827109 128.056457 
L 345.555402 128.437927 
L 346.283695 129.371711 
L 347.011988 128.784803 
L 347.740281 128.772023 
L 348.468574 128.989898 
L 349.196866 128.713219 
L 350.653452 129.109068 
L 351.381745 128.93064 
L 352.110038 129.256482 
L 352.838331 129.710284 
L 353.566624 129.580023 
L 355.02321 130.05695 
L 355.751503 129.665712 
L 357.208089 130.168062 
L 357.936382 129.749261 
L 358.664675 129.697098 
L 359.392968 128.822177 
L 360.121261 129.713572 
L 360.849554 129.821846 
L 361.577847 129.407387 
L 362.30614 129.755848 
L 363.034433 129.751125 
L 363.762725 129.321695 
L 364.491018 129.307819 
L 365.219311 129.656158 
L 365.947604 129.019252 
L 366.675897 129.193066 
L 367.40419 130.063578 
L 368.132483 130.407839 
L 368.860776 129.350939 
L 369.589069 129.623714 
L 370.317362 130.057104 
L 371.045655 129.656588 
L 371.773948 129.425201 
L 372.502241 129.025112 
L 373.230534 129.934856 
L 373.958827 130.096325 
L 374.68712 129.606743 
L 375.415413 129.603359 
L 376.871999 129.245066 
L 377.600291 129.875028 
L 379.78517 129.422217 
L 380.513463 130.152011 
L 381.241756 130.291276 
L 381.970049 130.101066 
L 382.698342 130.280601 
L 383.426635 129.335989 
L 384.154928 129.775044 
L 384.883221 129.929115 
L 385.611514 129.784178 
L 386.339807 129.960536 
L 387.0681 130.397229 
L 388.524686 130.499479 
L 389.252979 130.098464 
L 389.981272 129.948637 
L 390.709565 130.566228 
L 391.437858 129.753443 
L 392.16615 130.219322 
L 392.894443 130.46232 
L 393.622736 130.236889 
L 394.351029 130.505953 
L 395.079322 129.736245 
L 395.807615 130.229947 
L 396.535908 130.234451 
L 397.264201 130.489313 
L 397.992494 129.565488 
L 398.720787 130.239914 
L 399.44908 130.627525 
L 400.177373 130.827131 
L 400.905666 130.57049 
L 401.633959 129.874239 
L 402.362252 130.499791 
L 403.090545 130.590019 
L 403.818838 130.546336 
L 404.547131 130.713276 
L 405.275424 130.309782 
L 406.003717 130.370503 
L 406.732009 130.743093 
L 407.460302 130.376433 
L 408.188595 130.548478 
L 408.916888 130.307475 
L 409.645181 130.633412 
L 410.373474 130.768828 
L 412.558353 130.604137 
L 413.286646 130.901698 
L 414.014939 130.280527 
L 414.743232 130.615273 
L 415.471525 130.635355 
L 416.199818 131.12957 
L 416.928111 130.900633 
L 417.656404 131.00724 
L 418.384697 130.955551 
L 419.11299 130.776605 
L 419.841283 130.305153 
L 420.569576 130.397369 
L 421.297868 130.878801 
L 422.026161 131.048701 
L 422.754454 130.844204 
L 423.482747 130.496259 
L 424.21104 130.886386 
L 424.939333 130.770582 
L 425.667626 130.284102 
L 426.395919 130.756236 
L 427.124212 130.515345 
L 427.852505 131.203636 
L 428.580798 131.161155 
L 429.309091 130.640612 
L 429.309091 130.640612 
" style="fill:none;stroke:#ffa500;stroke-linecap:square;stroke-width:1.5;"/>
   </g>
   <g id="patch_3">
    <path d="M 47.72 136.24 
L 47.72 25.44 
" style="fill:none;stroke:#000000;stroke-linecap:square;stroke-linejoin:miter;stroke-width:0.8;"/>
   </g>
   <g id="patch_4">
    <path d="M 447.48 136.24 
L 447.48 25.44 
" style="fill:none;stroke:#000000;stroke-linecap:square;stroke-linejoin:miter;stroke-width:0.8;"/>
   </g>
   <g id="patch_5">
    <path d="M 47.72 136.24 
L 447.48 136.24 
" style="fill:none;stroke:#000000;stroke-linecap:square;stroke-linejoin:miter;stroke-width:0.8;"/>
   </g>
   <g id="patch_6">
    <path d="M 47.72 25.44 
L 447.48 25.44 
" style="fill:none;stroke:#000000;stroke-linecap:square;stroke-linejoin:miter;stroke-width:0.8;"/>
   </g>
   <g id="text_14">
    <!-- model loss -->
    <defs>
     <path d="M 52 44.1875 
Q 55.375 50.25 60.0625 53.125 
Q 64.75 56 71.09375 56 
Q 79.640625 56 84.28125 50.015625 
Q 88.921875 44.046875 88.921875 33.015625 
L 88.921875 0 
L 79.890625 0 
L 79.890625 32.71875 
Q 79.890625 40.578125 77.09375 44.375 
Q 74.3125 48.1875 68.609375 48.1875 
Q 61.625 48.1875 57.5625 43.546875 
Q 53.515625 38.921875 53.515625 30.90625 
L 53.515625 0 
L 44.484375 0 
L 44.484375 32.71875 
Q 44.484375 40.625 41.703125 44.40625 
Q 38.921875 48.1875 33.109375 48.1875 
Q 26.21875 48.1875 22.15625 43.53125 
Q 18.109375 38.875 18.109375 30.90625 
L 18.109375 0 
L 9.078125 0 
L 9.078125 54.6875 
L 18.109375 54.6875 
L 18.109375 46.1875 
Q 21.1875 51.21875 25.484375 53.609375 
Q 29.78125 56 35.6875 56 
Q 41.65625 56 45.828125 52.96875 
Q 50 49.953125 52 44.1875 
z
" id="DejaVuSans-109"/>
     <path d="M 45.40625 46.390625 
L 45.40625 75.984375 
L 54.390625 75.984375 
L 54.390625 0 
L 45.40625 0 
L 45.40625 8.203125 
Q 42.578125 3.328125 38.25 0.953125 
Q 33.9375 -1.421875 27.875 -1.421875 
Q 17.96875 -1.421875 11.734375 6.484375 
Q 5.515625 14.40625 5.515625 27.296875 
Q 5.515625 40.1875 11.734375 48.09375 
Q 17.96875 56 27.875 56 
Q 33.9375 56 38.25 53.625 
Q 42.578125 51.265625 45.40625 46.390625 
z
M 14.796875 27.296875 
Q 14.796875 17.390625 18.875 11.75 
Q 22.953125 6.109375 30.078125 6.109375 
Q 37.203125 6.109375 41.296875 11.75 
Q 45.40625 17.390625 45.40625 27.296875 
Q 45.40625 37.203125 41.296875 42.84375 
Q 37.203125 48.484375 30.078125 48.484375 
Q 22.953125 48.484375 18.875 42.84375 
Q 14.796875 37.203125 14.796875 27.296875 
z
" id="DejaVuSans-100"/>
     <path id="DejaVuSans-32"/>
    </defs>
    <g transform="translate(215.420312 19.44)scale(0.12 -0.12)">
     <use xlink:href="#DejaVuSans-109"/>
     <use x="97.412109" xlink:href="#DejaVuSans-111"/>
     <use x="158.59375" xlink:href="#DejaVuSans-100"/>
     <use x="222.070312" xlink:href="#DejaVuSans-101"/>
     <use x="283.59375" xlink:href="#DejaVuSans-108"/>
     <use x="311.376953" xlink:href="#DejaVuSans-32"/>
     <use x="343.164062" xlink:href="#DejaVuSans-108"/>
     <use x="370.947266" xlink:href="#DejaVuSans-111"/>
     <use x="432.128906" xlink:href="#DejaVuSans-115"/>
     <use x="484.228516" xlink:href="#DejaVuSans-115"/>
    </g>
   </g>
   <g id="legend_1">
    <g id="patch_7">
     <path d="M 54.72 62.79625 
L 109.995 62.79625 
Q 111.995 62.79625 111.995 60.79625 
L 111.995 32.44 
Q 111.995 30.44 109.995 30.44 
L 54.72 30.44 
Q 52.72 30.44 52.72 32.44 
L 52.72 60.79625 
Q 52.72 62.79625 54.72 62.79625 
z
" style="fill:#ffffff;opacity:0.8;stroke:#cccccc;stroke-linejoin:miter;"/>
    </g>
    <g id="line2d_14">
     <path d="M 56.72 38.538437 
L 76.72 38.538437 
" style="fill:none;stroke:#0000ff;stroke-linecap:square;stroke-width:1.5;"/>
    </g>
    <g id="line2d_15"/>
    <g id="text_15">
     <!-- train -->
     <defs>
      <path d="M 18.3125 70.21875 
L 18.3125 54.6875 
L 36.8125 54.6875 
L 36.8125 47.703125 
L 18.3125 47.703125 
L 18.3125 18.015625 
Q 18.3125 11.328125 20.140625 9.421875 
Q 21.96875 7.515625 27.59375 7.515625 
L 36.8125 7.515625 
L 36.8125 0 
L 27.59375 0 
Q 17.1875 0 13.234375 3.875 
Q 9.28125 7.765625 9.28125 18.015625 
L 9.28125 47.703125 
L 2.6875 47.703125 
L 2.6875 54.6875 
L 9.28125 54.6875 
L 9.28125 70.21875 
z
" id="DejaVuSans-116"/>
      <path d="M 41.109375 46.296875 
Q 39.59375 47.171875 37.8125 47.578125 
Q 36.03125 48 33.890625 48 
Q 26.265625 48 22.1875 43.046875 
Q 18.109375 38.09375 18.109375 28.8125 
L 18.109375 0 
L 9.078125 0 
L 9.078125 54.6875 
L 18.109375 54.6875 
L 18.109375 46.1875 
Q 20.953125 51.171875 25.484375 53.578125 
Q 30.03125 56 36.53125 56 
Q 37.453125 56 38.578125 55.875 
Q 39.703125 55.765625 41.0625 55.515625 
z
" id="DejaVuSans-114"/>
      <path d="M 34.28125 27.484375 
Q 23.390625 27.484375 19.1875 25 
Q 14.984375 22.515625 14.984375 16.5 
Q 14.984375 11.71875 18.140625 8.90625 
Q 21.296875 6.109375 26.703125 6.109375 
Q 34.1875 6.109375 38.703125 11.40625 
Q 43.21875 16.703125 43.21875 25.484375 
L 43.21875 27.484375 
z
M 52.203125 31.203125 
L 52.203125 0 
L 43.21875 0 
L 43.21875 8.296875 
Q 40.140625 3.328125 35.546875 0.953125 
Q 30.953125 -1.421875 24.3125 -1.421875 
Q 15.921875 -1.421875 10.953125 3.296875 
Q 6 8.015625 6 15.921875 
Q 6 25.140625 12.171875 29.828125 
Q 18.359375 34.515625 30.609375 34.515625 
L 43.21875 34.515625 
L 43.21875 35.40625 
Q 43.21875 41.609375 39.140625 45 
Q 35.0625 48.390625 27.6875 48.390625 
Q 23 48.390625 18.546875 47.265625 
Q 14.109375 46.140625 10.015625 43.890625 
L 10.015625 52.203125 
Q 14.9375 54.109375 19.578125 55.046875 
Q 24.21875 56 28.609375 56 
Q 40.484375 56 46.34375 49.84375 
Q 52.203125 43.703125 52.203125 31.203125 
z
" id="DejaVuSans-97"/>
      <path d="M 9.421875 54.6875 
L 18.40625 54.6875 
L 18.40625 0 
L 9.421875 0 
z
M 9.421875 75.984375 
L 18.40625 75.984375 
L 18.40625 64.59375 
L 9.421875 64.59375 
z
" id="DejaVuSans-105"/>
      <path d="M 54.890625 33.015625 
L 54.890625 0 
L 45.90625 0 
L 45.90625 32.71875 
Q 45.90625 40.484375 42.875 44.328125 
Q 39.84375 48.1875 33.796875 48.1875 
Q 26.515625 48.1875 22.3125 43.546875 
Q 18.109375 38.921875 18.109375 30.90625 
L 18.109375 0 
L 9.078125 0 
L 9.078125 54.6875 
L 18.109375 54.6875 
L 18.109375 46.1875 
Q 21.34375 51.125 25.703125 53.5625 
Q 30.078125 56 35.796875 56 
Q 45.21875 56 50.046875 50.171875 
Q 54.890625 44.34375 54.890625 33.015625 
z
" id="DejaVuSans-110"/>
     </defs>
     <g transform="translate(84.72 42.038437)scale(0.1 -0.1)">
      <use xlink:href="#DejaVuSans-116"/>
      <use x="39.208984" xlink:href="#DejaVuSans-114"/>
      <use x="80.322266" xlink:href="#DejaVuSans-97"/>
      <use x="141.601562" xlink:href="#DejaVuSans-105"/>
      <use x="169.384766" xlink:href="#DejaVuSans-110"/>
     </g>
    </g>
    <g id="line2d_16">
     <path d="M 56.72 53.216563 
L 76.72 53.216563 
" style="fill:none;stroke:#ffa500;stroke-linecap:square;stroke-width:1.5;"/>
    </g>
    <g id="line2d_17"/>
    <g id="text_16">
     <!-- test -->
     <g transform="translate(84.72 56.716563)scale(0.1 -0.1)">
      <use xlink:href="#DejaVuSans-116"/>
      <use x="39.208984" xlink:href="#DejaVuSans-101"/>
      <use x="100.732422" xlink:href="#DejaVuSans-115"/>
      <use x="152.832031" xlink:href="#DejaVuSans-116"/>
     </g>
    </g>
   </g>
  </g>
  <g id="axes_2">
   <g id="patch_8">
    <path d="M 47.72 303.64 
L 447.48 303.64 
L 447.48 192.84 
L 47.72 192.84 
z
" style="fill:#ffffff;"/>
   </g>
   <g id="matplotlib.axis_3">
    <g id="xtick_7">
     <g id="line2d_18">
      <g>
       <use style="stroke:#000000;stroke-width:0.8;" x="65.890909" xlink:href="#macf52667a9" y="303.64"/>
      </g>
     </g>
     <g id="text_17">
      <!-- 0 -->
      <g transform="translate(62.709659 318.238437)scale(0.1 -0.1)">
       <use xlink:href="#DejaVuSans-48"/>
      </g>
     </g>
    </g>
    <g id="xtick_8">
     <g id="line2d_19">
      <g>
       <use style="stroke:#000000;stroke-width:0.8;" x="138.720204" xlink:href="#macf52667a9" y="303.64"/>
      </g>
     </g>
     <g id="text_18">
      <!-- 100 -->
      <g transform="translate(129.176454 318.238437)scale(0.1 -0.1)">
       <use xlink:href="#DejaVuSans-49"/>
       <use x="63.623047" xlink:href="#DejaVuSans-48"/>
       <use x="127.246094" xlink:href="#DejaVuSans-48"/>
      </g>
     </g>
    </g>
    <g id="xtick_9">
     <g id="line2d_20">
      <g>
       <use style="stroke:#000000;stroke-width:0.8;" x="211.549499" xlink:href="#macf52667a9" y="303.64"/>
      </g>
     </g>
     <g id="text_19">
      <!-- 200 -->
      <g transform="translate(202.005749 318.238437)scale(0.1 -0.1)">
       <use xlink:href="#DejaVuSans-50"/>
       <use x="63.623047" xlink:href="#DejaVuSans-48"/>
       <use x="127.246094" xlink:href="#DejaVuSans-48"/>
      </g>
     </g>
    </g>
    <g id="xtick_10">
     <g id="line2d_21">
      <g>
       <use style="stroke:#000000;stroke-width:0.8;" x="284.378794" xlink:href="#macf52667a9" y="303.64"/>
      </g>
     </g>
     <g id="text_20">
      <!-- 300 -->
      <g transform="translate(274.835044 318.238437)scale(0.1 -0.1)">
       <use xlink:href="#DejaVuSans-51"/>
       <use x="63.623047" xlink:href="#DejaVuSans-48"/>
       <use x="127.246094" xlink:href="#DejaVuSans-48"/>
      </g>
     </g>
    </g>
    <g id="xtick_11">
     <g id="line2d_22">
      <g>
       <use style="stroke:#000000;stroke-width:0.8;" x="357.208089" xlink:href="#macf52667a9" y="303.64"/>
      </g>
     </g>
     <g id="text_21">
      <!-- 400 -->
      <g transform="translate(347.664339 318.238437)scale(0.1 -0.1)">
       <use xlink:href="#DejaVuSans-52"/>
       <use x="63.623047" xlink:href="#DejaVuSans-48"/>
       <use x="127.246094" xlink:href="#DejaVuSans-48"/>
      </g>
     </g>
    </g>
    <g id="xtick_12">
     <g id="line2d_23">
      <g>
       <use style="stroke:#000000;stroke-width:0.8;" x="430.037384" xlink:href="#macf52667a9" y="303.64"/>
      </g>
     </g>
     <g id="text_22">
      <!-- 500 -->
      <g transform="translate(420.493634 318.238437)scale(0.1 -0.1)">
       <use xlink:href="#DejaVuSans-53"/>
       <use x="63.623047" xlink:href="#DejaVuSans-48"/>
       <use x="127.246094" xlink:href="#DejaVuSans-48"/>
      </g>
     </g>
    </g>
    <g id="text_23">
     <!-- epoch -->
     <g transform="translate(232.371875 331.916562)scale(0.1 -0.1)">
      <use xlink:href="#DejaVuSans-101"/>
      <use x="61.523438" xlink:href="#DejaVuSans-112"/>
      <use x="125" xlink:href="#DejaVuSans-111"/>
      <use x="186.181641" xlink:href="#DejaVuSans-99"/>
      <use x="241.162109" xlink:href="#DejaVuSans-104"/>
     </g>
    </g>
   </g>
   <g id="matplotlib.axis_4">
    <g id="ytick_6">
     <g id="line2d_24">
      <g>
       <use style="stroke:#000000;stroke-width:0.8;" x="47.72" xlink:href="#mfd8200809d" y="285.443476"/>
      </g>
     </g>
     <g id="text_24">
      <!-- 0.6 -->
      <g transform="translate(24.816875 289.242695)scale(0.1 -0.1)">
       <use xlink:href="#DejaVuSans-48"/>
       <use x="63.623047" xlink:href="#DejaVuSans-46"/>
       <use x="95.410156" xlink:href="#DejaVuSans-54"/>
      </g>
     </g>
    </g>
    <g id="ytick_7">
     <g id="line2d_25">
      <g>
       <use style="stroke:#000000;stroke-width:0.8;" x="47.72" xlink:href="#mfd8200809d" y="255.59366"/>
      </g>
     </g>
     <g id="text_25">
      <!-- 0.7 -->
      <defs>
       <path d="M 8.203125 72.90625 
L 55.078125 72.90625 
L 55.078125 68.703125 
L 28.609375 0 
L 18.3125 0 
L 43.21875 64.59375 
L 8.203125 64.59375 
z
" id="DejaVuSans-55"/>
      </defs>
      <g transform="translate(24.816875 259.392879)scale(0.1 -0.1)">
       <use xlink:href="#DejaVuSans-48"/>
       <use x="63.623047" xlink:href="#DejaVuSans-46"/>
       <use x="95.410156" xlink:href="#DejaVuSans-55"/>
      </g>
     </g>
    </g>
    <g id="ytick_8">
     <g id="line2d_26">
      <g>
       <use style="stroke:#000000;stroke-width:0.8;" x="47.72" xlink:href="#mfd8200809d" y="225.743844"/>
      </g>
     </g>
     <g id="text_26">
      <!-- 0.8 -->
      <g transform="translate(24.816875 229.543063)scale(0.1 -0.1)">
       <use xlink:href="#DejaVuSans-48"/>
       <use x="63.623047" xlink:href="#DejaVuSans-46"/>
       <use x="95.410156" xlink:href="#DejaVuSans-56"/>
      </g>
     </g>
    </g>
    <g id="ytick_9">
     <g id="line2d_27">
      <g>
       <use style="stroke:#000000;stroke-width:0.8;" x="47.72" xlink:href="#mfd8200809d" y="195.894028"/>
      </g>
     </g>
     <g id="text_27">
      <!-- 0.9 -->
      <defs>
       <path d="M 10.984375 1.515625 
L 10.984375 10.5 
Q 14.703125 8.734375 18.5 7.8125 
Q 22.3125 6.890625 25.984375 6.890625 
Q 35.75 6.890625 40.890625 13.453125 
Q 46.046875 20.015625 46.78125 33.40625 
Q 43.953125 29.203125 39.59375 26.953125 
Q 35.25 24.703125 29.984375 24.703125 
Q 19.046875 24.703125 12.671875 31.3125 
Q 6.296875 37.9375 6.296875 49.421875 
Q 6.296875 60.640625 12.9375 67.421875 
Q 19.578125 74.21875 30.609375 74.21875 
Q 43.265625 74.21875 49.921875 64.515625 
Q 56.59375 54.828125 56.59375 36.375 
Q 56.59375 19.140625 48.40625 8.859375 
Q 40.234375 -1.421875 26.421875 -1.421875 
Q 22.703125 -1.421875 18.890625 -0.6875 
Q 15.09375 0.046875 10.984375 1.515625 
z
M 30.609375 32.421875 
Q 37.25 32.421875 41.125 36.953125 
Q 45.015625 41.5 45.015625 49.421875 
Q 45.015625 57.28125 41.125 61.84375 
Q 37.25 66.40625 30.609375 66.40625 
Q 23.96875 66.40625 20.09375 61.84375 
Q 16.21875 57.28125 16.21875 49.421875 
Q 16.21875 41.5 20.09375 36.953125 
Q 23.96875 32.421875 30.609375 32.421875 
z
" id="DejaVuSans-57"/>
      </defs>
      <g transform="translate(24.816875 199.693247)scale(0.1 -0.1)">
       <use xlink:href="#DejaVuSans-48"/>
       <use x="63.623047" xlink:href="#DejaVuSans-46"/>
       <use x="95.410156" xlink:href="#DejaVuSans-57"/>
      </g>
     </g>
    </g>
    <g id="text_28">
     <!-- accuracy -->
     <defs>
      <path d="M 8.5 21.578125 
L 8.5 54.6875 
L 17.484375 54.6875 
L 17.484375 21.921875 
Q 17.484375 14.15625 20.5 10.265625 
Q 23.53125 6.390625 29.59375 6.390625 
Q 36.859375 6.390625 41.078125 11.03125 
Q 45.3125 15.671875 45.3125 23.6875 
L 45.3125 54.6875 
L 54.296875 54.6875 
L 54.296875 0 
L 45.3125 0 
L 45.3125 8.40625 
Q 42.046875 3.421875 37.71875 1 
Q 33.40625 -1.421875 27.6875 -1.421875 
Q 18.265625 -1.421875 13.375 4.4375 
Q 8.5 10.296875 8.5 21.578125 
z
M 31.109375 56 
z
" id="DejaVuSans-117"/>
      <path d="M 32.171875 -5.078125 
Q 28.375 -14.84375 24.75 -17.8125 
Q 21.140625 -20.796875 15.09375 -20.796875 
L 7.90625 -20.796875 
L 7.90625 -13.28125 
L 13.1875 -13.28125 
Q 16.890625 -13.28125 18.9375 -11.515625 
Q 21 -9.765625 23.484375 -3.21875 
L 25.09375 0.875 
L 2.984375 54.6875 
L 12.5 54.6875 
L 29.59375 11.921875 
L 46.6875 54.6875 
L 56.203125 54.6875 
z
" id="DejaVuSans-121"/>
     </defs>
     <g transform="translate(18.737188 270.799375)rotate(-90)scale(0.1 -0.1)">
      <use xlink:href="#DejaVuSans-97"/>
      <use x="61.279297" xlink:href="#DejaVuSans-99"/>
      <use x="116.259766" xlink:href="#DejaVuSans-99"/>
      <use x="171.240234" xlink:href="#DejaVuSans-117"/>
      <use x="234.619141" xlink:href="#DejaVuSans-114"/>
      <use x="275.732422" xlink:href="#DejaVuSans-97"/>
      <use x="337.011719" xlink:href="#DejaVuSans-99"/>
      <use x="391.992188" xlink:href="#DejaVuSans-121"/>
     </g>
    </g>
   </g>
   <g id="line2d_28">
    <path clip-path="url(#p66b9cb26c6)" d="M 65.890909 298.603636 
L 66.619202 295.54321 
L 67.347495 295.549771 
L 68.804081 295.362799 
L 69.532374 295.418563 
L 70.260667 295.106944 
L 70.98896 294.460744 
L 71.717253 294.55915 
L 73.173839 292.24661 
L 73.902132 289.848784 
L 74.630424 288.664632 
L 75.358717 287.00157 
L 76.08701 286.234004 
L 77.543596 282.779954 
L 78.271889 281.015206 
L 79.000182 280.031146 
L 79.728475 278.76827 
L 80.456768 276.285159 
L 81.185061 275.258456 
L 81.913354 274.025101 
L 82.641647 272.312837 
L 83.36994 271.295975 
L 85.554819 266.011574 
L 87.011405 260.117055 
L 87.739698 256.761411 
L 88.467991 254.901538 
L 89.196283 251.873914 
L 89.924576 249.961557 
L 90.652869 248.86269 
L 92.837748 244.90677 
L 93.566041 243.939111 
L 94.294334 243.499564 
L 95.022627 242.804162 
L 95.75092 241.511763 
L 96.479213 241.400237 
L 97.207506 240.317771 
L 97.935799 240.193123 
L 98.664092 239.546924 
L 100.848971 238.238124 
L 102.305557 236.870281 
L 103.03385 236.535701 
L 103.762142 235.905903 
L 104.490435 235.830458 
L 105.218728 235.105534 
L 105.947021 234.685668 
L 106.675314 234.479016 
L 108.1319 233.639285 
L 109.588486 232.586341 
L 110.316779 232.376408 
L 111.045072 232.510896 
L 111.773365 231.795813 
L 112.501658 231.389068 
L 113.229951 231.267701 
L 113.958244 230.733028 
L 115.41483 230.129471 
L 116.143123 229.922819 
L 116.871416 229.178213 
L 117.599709 229.293021 
L 118.328001 229.237257 
L 119.056294 229.388146 
L 119.784587 228.591058 
L 120.51288 228.482811 
L 121.969466 227.836612 
L 122.697759 227.380664 
L 123.426052 227.511872 
L 124.154345 227.101847 
L 124.882638 226.885354 
L 125.610931 226.97392 
L 126.339224 226.209633 
L 127.067517 226.501571 
L 127.79581 226.360522 
L 128.524103 225.674961 
L 129.252396 225.510951 
L 129.980689 225.884893 
L 130.708982 225.068124 
L 131.437275 225.094365 
L 132.165567 224.697461 
L 133.622153 224.690901 
L 134.350446 224.257915 
L 135.078739 224.113586 
L 135.807032 224.143108 
L 137.991911 223.136086 
L 138.720204 223.257454 
L 139.448497 222.899912 
L 140.17679 222.998318 
L 140.905083 222.516129 
L 141.633376 222.771984 
L 142.361669 222.768704 
L 143.089962 222.404602 
L 143.818255 222.197949 
L 144.546548 222.322597 
L 145.274841 221.758403 
L 146.003134 221.502547 
L 146.731426 221.604233 
L 148.188012 221.476305 
L 150.372891 220.698898 
L 151.829477 220.774343 
L 152.55777 220.56113 
L 153.286063 220.56113 
L 154.014356 220.351197 
L 154.742649 219.757481 
L 155.470942 220.203588 
L 156.199235 219.606592 
L 156.927528 219.832926 
L 159.112407 219.40322 
L 159.8407 219.104721 
L 160.568993 219.340896 
L 162.025578 218.930871 
L 162.753871 218.829185 
L 163.482164 219.009596 
L 164.210457 218.812784 
L 164.93875 218.478203 
L 166.395336 218.517566 
L 167.123629 218.09442 
L 167.851922 217.996014 
L 168.580215 218.376517 
L 169.308508 218.199386 
L 170.036801 217.838564 
L 170.765094 218.018975 
L 171.493387 217.822163 
L 172.22168 217.779521 
L 172.949973 217.474462 
L 173.678266 217.458061 
L 174.406559 217.976333 
L 175.134852 217.336694 
L 175.863144 217.120201 
L 176.591437 217.179244 
L 177.31973 217.10052 
L 178.048023 216.815142 
L 178.776316 216.966031 
L 179.504609 216.867625 
L 180.232902 216.477282 
L 180.961195 216.959471 
L 181.689488 216.893867 
L 182.417781 216.94963 
L 183.146074 216.208305 
L 183.874367 216.585528 
L 184.60266 216.61833 
L 185.330953 216.503523 
L 186.059246 216.227986 
L 186.787539 216.546166 
L 187.515832 216.103339 
L 188.244125 215.844203 
L 188.972418 216.145981 
L 189.700711 215.745797 
L 191.885589 216.037735 
L 192.613882 215.503062 
L 193.342175 215.78844 
L 194.070468 215.709715 
L 194.798761 215.280009 
L 195.527054 215.29313 
L 196.255347 214.951989 
L 198.440226 215.247207 
L 199.168519 215.001192 
L 199.896812 215.122559 
L 200.625105 215.033994 
L 201.353398 214.787979 
L 202.081691 214.978231 
L 202.809984 214.938868 
L 203.538277 214.679732 
L 204.994862 214.751897 
L 205.723155 214.456679 
L 206.451448 214.351712 
L 207.908034 214.410756 
L 208.636327 214.227065 
L 209.36462 214.31235 
L 210.092913 214.138499 
L 210.821206 214.171301 
L 212.277792 213.925286 
L 214.462671 213.741595 
L 215.190964 214.15162 
L 215.919257 213.784238 
L 218.104136 213.757996 
L 218.832428 213.922006 
L 219.560721 213.925287 
L 220.289014 213.429976 
L 221.017307 213.698953 
L 221.7456 213.452938 
L 222.473893 212.901864 
L 223.202186 213.384054 
L 223.930479 213.049473 
L 224.658772 212.908425 
L 225.387065 213.052753 
L 227.571944 213.026512 
L 228.300237 213.334851 
L 229.02853 212.819859 
L 229.756823 213.085555 
L 230.485116 212.934666 
L 231.213409 213.115077 
L 231.941702 212.682091 
L 232.669995 212.855941 
L 233.398287 212.83298 
L 234.12658 212.65913 
L 234.854873 212.757536 
L 235.583166 212.544323 
L 236.311459 212.586965 
L 237.039752 212.764096 
L 238.496338 212.413115 
L 239.224631 212.66241 
L 239.952924 212.196621 
L 240.681217 212.265506 
L 241.40951 211.885002 
L 242.137803 212.360631 
L 242.866096 212.367192 
L 243.594389 212.111336 
L 245.050975 212.399994 
L 246.507561 211.957167 
L 247.235854 212.17038 
L 247.964146 211.783316 
L 248.692439 211.638987 
L 250.149025 211.802997 
L 250.877318 211.465137 
L 251.605611 211.757075 
L 252.333904 211.406093 
L 253.062197 211.278166 
L 255.247076 211.50778 
L 255.975369 211.35361 
L 256.703662 211.553702 
L 257.431955 211.419214 
L 258.160248 211.432335 
L 258.888541 211.635707 
L 259.616834 211.570103 
L 260.345127 211.035431 
L 261.801713 211.534021 
L 262.530005 211.245364 
L 263.258298 211.091194 
L 263.986591 211.202721 
L 265.443177 211.137117 
L 266.899763 211.219122 
L 267.628056 211.120716 
L 268.356349 210.835339 
L 269.084642 210.786136 
L 270.541228 211.02887 
L 271.269521 210.812377 
L 271.997814 210.986228 
L 272.726107 210.727092 
L 273.4544 210.776295 
L 274.182693 210.559802 
L 274.910986 210.671329 
L 276.367572 210.464676 
L 277.095864 210.677889 
L 277.824157 210.484357 
L 278.55245 210.435154 
L 280.009036 210.563082 
L 280.737329 210.290826 
L 282.193915 210.569643 
L 282.922208 210.284265 
L 283.650501 210.648367 
L 284.378794 210.094014 
L 285.107087 210.19242 
L 285.83538 210.107134 
L 286.563673 210.346589 
L 287.291966 210.176019 
L 288.748552 210.300666 
L 289.476845 210.051371 
L 290.205138 209.949685 
L 290.93343 210.080893 
L 293.846602 209.884081 
L 295.303188 209.798796 
L 296.031481 209.654467 
L 296.759774 209.87096 
L 297.488067 209.667588 
L 298.21636 209.582302 
L 298.944653 209.910322 
L 300.401239 209.523259 
L 301.857825 209.834878 
L 302.586118 209.579022 
L 304.770997 209.641346 
L 305.499289 209.552781 
L 306.955875 209.559341 
L 307.684168 209.526539 
L 308.412461 209.319887 
L 311.325633 209.487177 
L 312.053926 209.178838 
L 312.782219 209.723351 
L 313.510512 209.631506 
L 314.238805 209.129635 
L 314.967098 209.37237 
L 315.695391 208.929543 
L 316.423684 208.991867 
L 317.151977 209.267403 
L 319.336856 208.906581 
L 320.065148 209.191959 
L 320.793441 209.159157 
L 321.521734 208.811456 
L 322.250027 208.758972 
L 322.97832 208.978746 
L 323.706613 209.034509 
L 324.434906 208.939383 
L 325.891492 209.057471 
L 326.619785 208.814736 
L 327.348078 209.434694 
L 328.076371 209.073872 
L 328.804664 208.214459 
L 329.532957 208.821296 
L 330.26125 208.56216 
L 331.717836 208.827857 
L 332.446129 208.470315 
L 333.174422 208.434233 
L 333.902715 208.647446 
L 334.631007 208.545759 
L 335.3593 208.670407 
L 336.815886 208.263662 
L 337.544179 208.467035 
L 338.272472 208.39815 
L 339.000765 208.539199 
L 339.729058 208.926263 
L 341.185644 208.178377 
L 341.913937 208.526078 
L 344.098816 208.480156 
L 344.827109 208.293184 
L 346.283695 208.194778 
L 347.011988 208.473595 
L 349.925159 208.23086 
L 351.381745 208.247261 
L 352.110038 208.480155 
L 352.838331 208.23086 
L 353.566624 208.457194 
L 354.294917 208.011087 
L 355.02321 208.444073 
L 355.751503 208.142295 
L 356.479796 208.371909 
L 357.208089 208.007807 
L 357.936382 208.027488 
L 358.664675 207.860198 
L 359.392968 208.109493 
L 360.121261 208.096372 
L 360.849554 208.342387 
L 361.577847 208.132454 
L 362.30614 208.093092 
L 363.034433 207.784753 
L 363.762725 207.833956 
L 364.491018 208.093092 
L 365.219311 207.909401 
L 365.947604 207.883159 
L 366.675897 207.719149 
L 367.40419 207.912681 
L 368.860776 207.555139 
L 369.589069 207.656825 
L 370.317362 207.975005 
L 371.045655 207.886439 
L 371.773948 207.581381 
L 372.502241 207.820835 
L 373.230534 207.364888 
L 374.68712 207.817555 
L 379.056877 207.351767 
L 379.78517 207.453453 
L 380.513463 207.328806 
L 381.241756 207.722429 
L 381.970049 207.227119 
L 383.426635 207.230399 
L 384.154928 207.630584 
L 384.883221 207.466574 
L 386.339807 207.519057 
L 387.0681 207.174636 
L 387.796393 207.486255 
L 389.252979 207.473134 
L 389.981272 207.056549 
L 390.709565 207.440332 
L 391.437858 206.840056 
L 392.16615 207.24024 
L 392.894443 207.384569 
L 393.622736 206.997505 
L 394.351029 207.509216 
L 395.079322 206.974544 
L 395.807615 207.164796 
L 396.535908 207.099192 
L 399.44908 207.24352 
L 400.905666 207.082791 
L 402.362252 207.125433 
L 404.547131 206.974544 
L 405.275424 206.764611 
L 406.003717 206.994225 
L 406.732009 207.105752 
L 407.460302 206.74821 
L 408.916888 206.964703 
L 410.373474 206.823655 
L 411.101767 207.059829 
L 411.83006 207.043428 
L 412.558353 206.885979 
L 413.286646 207.010626 
L 414.014939 206.689167 
L 414.743232 206.803974 
L 415.471525 207.053269 
L 416.199818 206.489074 
L 416.928111 206.800693 
L 417.656404 206.74821 
L 418.384697 206.866297 
L 419.11299 206.74493 
L 422.026161 206.787573 
L 422.754454 207.207438 
L 423.482747 206.685886 
L 424.21104 206.826935 
L 425.667626 206.718688 
L 426.395919 206.502195 
L 427.124212 206.567799 
L 427.852505 206.754771 
L 428.580798 206.74165 
L 429.309091 206.400509 
L 429.309091 206.400509 
" style="fill:none;stroke:#0000ff;stroke-linecap:square;stroke-width:1.5;"/>
   </g>
   <g id="line2d_29">
    <path clip-path="url(#p66b9cb26c6)" d="M 65.890909 269.799111 
L 67.347495 269.730227 
L 68.075788 269.890956 
L 68.804081 269.561843 
L 69.532374 268.413773 
L 70.260667 266.913628 
L 70.98896 265.107332 
L 71.717253 262.803538 
L 72.445546 261.992236 
L 73.173839 259.420559 
L 73.902132 259.780288 
L 75.358717 255.87685 
L 76.08701 254.185361 
L 76.815303 253.527134 
L 77.543596 253.282212 
L 78.271889 251.537146 
L 79.728475 253.817979 
L 80.456768 252.111181 
L 81.185061 254.453244 
L 81.913354 254.399667 
L 82.641647 254.835934 
L 83.36994 250.465614 
L 84.098233 259.474136 
L 84.826526 249.715542 
L 85.554819 251.26161 
L 86.283112 248.069976 
L 87.011405 254.185361 
L 87.739698 250.695228 
L 88.467991 251.031995 
L 89.196283 249.883926 
L 89.924576 244.510959 
L 90.652869 228.805364 
L 92.109455 225.89692 
L 92.837748 228.705865 
L 93.566041 224.343199 
L 94.294334 223.547204 
L 95.75092 220.784183 
L 96.479213 220.110648 
L 97.207506 218.847772 
L 97.935799 219.437114 
L 98.664092 218.212506 
L 99.392385 218.840118 
L 100.120678 216.268441 
L 102.305557 216.176596 
L 103.03385 216.061789 
L 103.762142 215.786252 
L 105.218728 214.622875 
L 105.947021 215.005565 
L 106.675314 214.393261 
L 107.403607 214.025879 
L 108.1319 213.819226 
L 108.860193 214.056494 
L 109.588486 213.474805 
L 110.316779 213.803918 
L 111.045072 213.053846 
L 111.773365 213.168653 
L 112.501658 212.365004 
L 113.229951 212.808925 
L 113.958244 212.954347 
L 114.686537 212.349697 
L 115.41483 212.311428 
L 116.143123 212.487465 
L 116.871416 211.997622 
L 117.599709 211.729739 
L 119.784587 211.492471 
L 120.51288 211.155704 
L 121.241173 211.683816 
L 121.969466 211.438895 
L 122.697759 210.788322 
L 123.426052 210.780668 
L 124.154345 211.239896 
L 124.882638 211.239896 
L 125.610931 210.826591 
L 126.339224 210.612284 
L 127.79581 210.466862 
L 129.252396 210.030596 
L 129.980689 210.811283 
L 130.708982 209.885174 
L 131.437275 209.969365 
L 132.165567 209.678521 
L 132.89386 209.908135 
L 133.622153 209.479522 
L 135.078739 209.425946 
L 135.807032 209.456561 
L 136.535325 206.816 
L 137.263618 209.571368 
L 137.991911 209.755059 
L 138.720204 209.188678 
L 140.17679 209.004987 
L 140.905083 206.088889 
L 141.633376 209.17337 
L 143.089962 208.813642 
L 143.818255 208.247261 
L 146.003134 208.308491 
L 146.731426 208.606989 
L 147.459719 208.66822 
L 148.916305 208.06357 
L 149.644598 208.239607 
L 150.372891 208.56872 
L 151.829477 207.948763 
L 152.55777 207.90284 
L 153.286063 208.140108 
L 154.014356 208.584028 
L 154.742649 207.68088 
L 156.199235 207.688533 
L 156.927528 207.90284 
L 157.655821 207.543111 
L 158.384114 207.589034 
L 159.112407 207.13746 
L 159.8407 207.435958 
L 160.568993 207.543111 
L 161.297285 207.305844 
L 162.025578 207.428304 
L 162.753871 207.236959 
L 163.482164 206.793039 
L 164.210457 206.762424 
L 164.93875 207.053268 
L 167.123629 206.639963 
L 167.851922 206.877231 
L 169.308508 206.43331 
L 170.036801 206.739462 
L 171.493387 206.479233 
L 172.22168 206.203697 
L 172.949973 206.356772 
L 174.406559 205.76743 
L 175.134852 206.241966 
L 175.863144 206.15012 
L 176.591437 205.821007 
L 177.31973 206.111851 
L 178.048023 205.721507 
L 178.776316 206.058274 
L 179.504609 206.012352 
L 180.232902 205.644969 
L 180.961195 205.775084 
L 181.689488 205.468932 
L 183.146074 205.622008 
L 183.874367 205.285241 
L 184.60266 205.744469 
L 185.330953 205.729161 
L 186.787539 205.32351 
L 187.515832 205.254626 
L 188.244125 205.576085 
L 188.972418 205.392394 
L 190.429003 205.415355 
L 191.157296 204.994396 
L 191.885589 204.963781 
L 192.613882 205.354125 
L 193.342175 204.986743 
L 194.798761 204.979089 
L 195.527054 205.170434 
L 196.255347 204.688244 
L 197.711933 204.772436 
L 198.440226 205.078588 
L 199.896812 204.887243 
L 200.625105 205.047973 
L 201.353398 204.642322 
L 202.081691 204.642322 
L 202.809984 204.871936 
L 204.994862 204.45863 
L 205.723155 204.152479 
L 206.451448 204.61936 
L 207.179741 204.405054 
L 207.908034 204.535168 
L 208.636327 204.389746 
L 209.36462 204.121863 
L 210.092913 204.320862 
L 210.821206 203.861634 
L 211.549499 204.489246 
L 212.277792 204.114209 
L 213.006085 203.95348 
L 213.734378 204.198401 
L 214.462671 203.892249 
L 215.190964 203.846327 
L 215.919257 204.328516 
L 216.64755 203.746827 
L 218.832428 203.945826 
L 220.289014 203.762135 
L 221.017307 203.823365 
L 221.7456 203.463637 
L 222.473893 203.79275 
L 223.202186 203.463637 
L 223.930479 203.555482 
L 224.658772 203.218715 
L 225.387065 203.371791 
L 226.115358 203.647328 
L 226.843651 203.402406 
L 227.571944 203.417714 
L 228.300237 203.195754 
L 229.02853 203.24933 
L 229.756823 203.486598 
L 230.485116 203.34883 
L 231.213409 203.333522 
L 231.941702 203.157485 
L 232.669995 203.203407 
L 233.398287 203.096254 
L 234.12658 203.142177 
L 234.854873 202.74418 
L 235.583166 202.667642 
L 236.311459 203.119216 
L 237.768045 202.874294 
L 238.496338 202.996755 
L 239.952924 202.897256 
L 240.681217 202.973794 
L 241.40951 202.912563 
L 242.137803 203.1881 
L 243.594389 202.675295 
L 244.322682 202.430374 
L 245.779268 202.721218 
L 246.507561 202.42272 
L 247.235854 202.453335 
L 247.964146 202.124222 
L 248.692439 202.537527 
L 249.420732 202.369143 
L 250.877318 202.659988 
L 251.605611 202.10126 
L 252.333904 202.246683 
L 253.062197 202.231375 
L 253.79049 202.024722 
L 254.518783 202.369143 
L 255.247076 202.514566 
L 255.975369 202.223721 
L 256.703662 202.384451 
L 257.431955 202.162491 
L 258.160248 202.231375 
L 258.888541 201.971146 
L 260.345127 202.139529 
L 261.07342 201.971146 
L 261.801713 201.963492 
L 262.530005 202.177798 
L 263.258298 201.833378 
L 263.986591 201.833378 
L 264.714884 202.009415 
L 266.17147 201.925223 
L 266.899763 202.415066 
L 267.628056 201.955838 
L 268.356349 201.986453 
L 269.084642 201.894608 
L 269.812935 201.9788 
L 271.997814 201.542533 
L 272.726107 201.764493 
L 273.4544 201.65734 
L 274.182693 201.948185 
L 274.910986 201.9788 
L 277.095864 201.580802 
L 277.824157 201.841031 
L 279.280743 201.297612 
L 280.009036 201.481303 
L 280.737329 201.863993 
L 282.922208 201.626725 
L 283.650501 201.580802 
L 284.378794 201.335881 
L 285.107087 201.465995 
L 286.563673 201.159843 
L 287.291966 201.465995 
L 288.020259 201.481303 
L 288.748552 201.106267 
L 289.476845 201.366496 
L 290.205138 201.121574 
L 290.93343 201.297612 
L 292.390016 201.412419 
L 293.118309 201.259343 
L 293.846602 200.761846 
L 294.574895 200.89196 
L 296.031481 200.930229 
L 296.759774 201.205766 
L 297.488067 200.922576 
L 298.944653 201.129228 
L 299.672946 200.89196 
L 300.401239 200.861345 
L 301.129532 201.221074 
L 301.857825 200.754192 
L 302.586118 200.968498 
L 303.314411 201.05269 
L 304.042704 200.930229 
L 304.770997 200.616424 
L 305.499289 201.029729 
L 306.955875 200.585808 
L 307.684168 200.807769 
L 310.59734 200.532232 
L 312.053926 200.861345 
L 312.782219 200.432732 
L 313.510512 200.547539 
L 314.238805 200.493963 
L 314.967098 200.601116 
L 315.695391 200.532232 
L 317.151977 200.815422 
L 317.88027 200.471001 
L 318.608563 200.371502 
L 319.336856 200.578155 
L 320.065148 200.379156 
L 320.793441 200.302618 
L 321.521734 200.356194 
L 322.250027 200.241387 
L 322.97832 200.38681 
L 323.706613 200.38681 
L 324.434906 200.233734 
L 325.891492 200.310272 
L 326.619785 200.118927 
L 327.348078 200.409771 
L 328.076371 200.00412 
L 330.26125 200.249041 
L 330.989543 200.187811 
L 331.717836 200.356194 
L 332.446129 199.988812 
L 333.174422 200.172503 
L 333.902715 200.111273 
L 334.631007 199.835736 
L 335.3593 200.034735 
L 336.815886 199.981158 
L 338.272472 200.06535 
L 339.000765 199.912274 
L 341.185644 200.042389 
L 341.913937 199.789813 
L 343.370523 199.78216 
L 344.827109 199.575507 
L 345.555402 199.636737 
L 346.283695 199.896967 
L 347.011988 199.552546 
L 349.196866 199.728583 
L 349.925159 199.590815 
L 350.653452 199.583161 
L 352.110038 199.368854 
L 352.838331 199.743891 
L 353.566624 199.567853 
L 354.294917 199.575507 
L 355.02321 199.766852 
L 356.479796 199.414777 
L 357.208089 199.675006 
L 358.664675 199.583161 
L 359.392968 199.391816 
L 360.849554 199.629084 
L 366.675897 199.032087 
L 367.40419 199.414777 
L 368.132483 199.391816 
L 368.860776 199.131587 
L 371.045655 199.215778 
L 371.773948 199.047395 
L 372.502241 199.055049 
L 373.230534 199.177509 
L 373.958827 199.185163 
L 374.68712 198.924934 
L 375.415413 199.07801 
L 376.871999 198.810127 
L 377.600291 198.986164 
L 378.328584 198.932588 
L 379.056877 199.009126 
L 379.78517 198.741243 
L 380.513463 199.070356 
L 381.241756 198.993818 
L 382.698342 199.039741 
L 383.426635 198.733589 
L 384.883221 198.901973 
L 386.339807 198.702974 
L 387.0681 198.947895 
L 388.524686 198.91728 
L 389.981272 198.779512 
L 390.709565 198.85605 
L 391.437858 198.542244 
L 392.16615 198.764204 
L 395.079322 198.771858 
L 397.264201 198.794819 
L 397.992494 198.572859 
L 398.720787 198.748897 
L 400.905666 198.710628 
L 401.633959 198.343245 
L 402.362252 198.595821 
L 406.003717 198.31263 
L 406.732009 198.572859 
L 409.645181 198.350899 
L 411.83006 198.442745 
L 412.558353 198.320284 
L 414.014939 198.358553 
L 415.471525 198.243746 
L 416.199818 198.381514 
L 416.928111 198.259054 
L 417.656404 198.373861 
L 419.11299 198.197823 
L 420.569576 198.037093 
L 421.297868 198.289669 
L 423.482747 198.044747 
L 424.939333 198.190169 
L 427.124212 197.876364 
L 427.852505 198.067709 
L 429.309091 197.884017 
L 429.309091 197.884017 
" style="fill:none;stroke:#ffa500;stroke-linecap:square;stroke-width:1.5;"/>
   </g>
   <g id="patch_9">
    <path d="M 47.72 303.64 
L 47.72 192.84 
" style="fill:none;stroke:#000000;stroke-linecap:square;stroke-linejoin:miter;stroke-width:0.8;"/>
   </g>
   <g id="patch_10">
    <path d="M 447.48 303.64 
L 447.48 192.84 
" style="fill:none;stroke:#000000;stroke-linecap:square;stroke-linejoin:miter;stroke-width:0.8;"/>
   </g>
   <g id="patch_11">
    <path d="M 47.72 303.64 
L 447.48 303.64 
" style="fill:none;stroke:#000000;stroke-linecap:square;stroke-linejoin:miter;stroke-width:0.8;"/>
   </g>
   <g id="patch_12">
    <path d="M 47.72 192.84 
L 447.48 192.84 
" style="fill:none;stroke:#000000;stroke-linecap:square;stroke-linejoin:miter;stroke-width:0.8;"/>
   </g>
   <g id="text_29">
    <!-- model accuracy -->
    <g transform="translate(199.938437 186.84)scale(0.12 -0.12)">
     <use xlink:href="#DejaVuSans-109"/>
     <use x="97.412109" xlink:href="#DejaVuSans-111"/>
     <use x="158.59375" xlink:href="#DejaVuSans-100"/>
     <use x="222.070312" xlink:href="#DejaVuSans-101"/>
     <use x="283.59375" xlink:href="#DejaVuSans-108"/>
     <use x="311.376953" xlink:href="#DejaVuSans-32"/>
     <use x="343.164062" xlink:href="#DejaVuSans-97"/>
     <use x="404.443359" xlink:href="#DejaVuSans-99"/>
     <use x="459.423828" xlink:href="#DejaVuSans-99"/>
     <use x="514.404297" xlink:href="#DejaVuSans-117"/>
     <use x="577.783203" xlink:href="#DejaVuSans-114"/>
     <use x="618.896484" xlink:href="#DejaVuSans-97"/>
     <use x="680.175781" xlink:href="#DejaVuSans-99"/>
     <use x="735.15625" xlink:href="#DejaVuSans-121"/>
    </g>
   </g>
   <g id="legend_2">
    <g id="patch_13">
     <path d="M 54.72 230.19625 
L 109.995 230.19625 
Q 111.995 230.19625 111.995 228.19625 
L 111.995 199.84 
Q 111.995 197.84 109.995 197.84 
L 54.72 197.84 
Q 52.72 197.84 52.72 199.84 
L 52.72 228.19625 
Q 52.72 230.19625 54.72 230.19625 
z
" style="fill:#ffffff;opacity:0.8;stroke:#cccccc;stroke-linejoin:miter;"/>
    </g>
    <g id="line2d_30">
     <path d="M 56.72 205.938437 
L 76.72 205.938437 
" style="fill:none;stroke:#0000ff;stroke-linecap:square;stroke-width:1.5;"/>
    </g>
    <g id="line2d_31"/>
    <g id="text_30">
     <!-- train -->
     <g transform="translate(84.72 209.438437)scale(0.1 -0.1)">
      <use xlink:href="#DejaVuSans-116"/>
      <use x="39.208984" xlink:href="#DejaVuSans-114"/>
      <use x="80.322266" xlink:href="#DejaVuSans-97"/>
      <use x="141.601562" xlink:href="#DejaVuSans-105"/>
      <use x="169.384766" xlink:href="#DejaVuSans-110"/>
     </g>
    </g>
    <g id="line2d_32">
     <path d="M 56.72 220.616562 
L 76.72 220.616562 
" style="fill:none;stroke:#ffa500;stroke-linecap:square;stroke-width:1.5;"/>
    </g>
    <g id="line2d_33"/>
    <g id="text_31">
     <!-- test -->
     <g transform="translate(84.72 224.116562)scale(0.1 -0.1)">
      <use xlink:href="#DejaVuSans-116"/>
      <use x="39.208984" xlink:href="#DejaVuSans-101"/>
      <use x="100.732422" xlink:href="#DejaVuSans-115"/>
      <use x="152.832031" xlink:href="#DejaVuSans-116"/>
     </g>
    </g>
   </g>
  </g>
 </g>
 <defs>
  <clipPath id="pefd46ddeec">
   <rect height="110.8" width="399.76" x="47.72" y="25.44"/>
  </clipPath>
  <clipPath id="p66b9cb26c6">
   <rect height="110.8" width="399.76" x="47.72" y="192.84"/>
  </clipPath>
 </defs>
</svg>
