<?xml version="1.0" encoding="utf-8" standalone="no"?>
<!DOCTYPE svg PUBLIC "-//W3C//DTD SVG 1.1//EN"
  "http://www.w3.org/Graphics/SVG/1.1/DTD/svg11.dtd">
<!-- Created with matplotlib (https://matplotlib.org/) -->
<svg height="345.6pt" version="1.1" viewBox="0 0 460.8 345.6" width="460.8pt" xmlns="http://www.w3.org/2000/svg" xmlns:xlink="http://www.w3.org/1999/xlink">
 <defs>
  <style type="text/css">
*{stroke-linecap:butt;stroke-linejoin:round;}
  </style>
 </defs>
 <g id="figure_1">
  <g id="patch_1">
   <path d="M 0 345.6 
L 460.8 345.6 
L 460.8 0 
L 0 0 
z
" style="fill:#ffffff;"/>
  </g>
  <g id="axes_1">
   <g id="patch_2">
    <path d="M 47.81 136.24 
L 447.48 136.24 
L 447.48 25.44 
L 47.81 25.44 
z
" style="fill:#ffffff;"/>
   </g>
   <g id="matplotlib.axis_1">
    <g id="xtick_1">
     <g id="line2d_1">
      <defs>
       <path d="M 0 0 
L 0 3.5 
" id="m7481916dfb" style="stroke:#000000;stroke-width:0.8;"/>
      </defs>
      <g>
       <use style="stroke:#000000;stroke-width:0.8;" x="65.976818" xlink:href="#m7481916dfb" y="136.24"/>
      </g>
     </g>
     <g id="text_1">
      <!-- 0 -->
      <defs>
       <path d="M 31.78125 66.40625 
Q 24.171875 66.40625 20.328125 58.90625 
Q 16.5 51.421875 16.5 36.375 
Q 16.5 21.390625 20.328125 13.890625 
Q 24.171875 6.390625 31.78125 6.390625 
Q 39.453125 6.390625 43.28125 13.890625 
Q 47.125 21.390625 47.125 36.375 
Q 47.125 51.421875 43.28125 58.90625 
Q 39.453125 66.40625 31.78125 66.40625 
z
M 31.78125 74.21875 
Q 44.046875 74.21875 50.515625 64.515625 
Q 56.984375 54.828125 56.984375 36.375 
Q 56.984375 17.96875 50.515625 8.265625 
Q 44.046875 -1.421875 31.78125 -1.421875 
Q 19.53125 -1.421875 13.0625 8.265625 
Q 6.59375 17.96875 6.59375 36.375 
Q 6.59375 54.828125 13.0625 64.515625 
Q 19.53125 74.21875 31.78125 74.21875 
z
" id="DejaVuSans-48"/>
      </defs>
      <g transform="translate(62.795568 150.838437)scale(0.1 -0.1)">
       <use xlink:href="#DejaVuSans-48"/>
      </g>
     </g>
    </g>
    <g id="xtick_2">
     <g id="line2d_2">
      <g>
       <use style="stroke:#000000;stroke-width:0.8;" x="138.789717" xlink:href="#m7481916dfb" y="136.24"/>
      </g>
     </g>
     <g id="text_2">
      <!-- 100 -->
      <defs>
       <path d="M 12.40625 8.296875 
L 28.515625 8.296875 
L 28.515625 63.921875 
L 10.984375 60.40625 
L 10.984375 69.390625 
L 28.421875 72.90625 
L 38.28125 72.90625 
L 38.28125 8.296875 
L 54.390625 8.296875 
L 54.390625 0 
L 12.40625 0 
z
" id="DejaVuSans-49"/>
      </defs>
      <g transform="translate(129.245967 150.838437)scale(0.1 -0.1)">
       <use xlink:href="#DejaVuSans-49"/>
       <use x="63.623047" xlink:href="#DejaVuSans-48"/>
       <use x="127.246094" xlink:href="#DejaVuSans-48"/>
      </g>
     </g>
    </g>
    <g id="xtick_3">
     <g id="line2d_3">
      <g>
       <use style="stroke:#000000;stroke-width:0.8;" x="211.602615" xlink:href="#m7481916dfb" y="136.24"/>
      </g>
     </g>
     <g id="text_3">
      <!-- 200 -->
      <defs>
       <path d="M 19.1875 8.296875 
L 53.609375 8.296875 
L 53.609375 0 
L 7.328125 0 
L 7.328125 8.296875 
Q 12.9375 14.109375 22.625 23.890625 
Q 32.328125 33.6875 34.8125 36.53125 
Q 39.546875 41.84375 41.421875 45.53125 
Q 43.3125 49.21875 43.3125 52.78125 
Q 43.3125 58.59375 39.234375 62.25 
Q 35.15625 65.921875 28.609375 65.921875 
Q 23.96875 65.921875 18.8125 64.3125 
Q 13.671875 62.703125 7.8125 59.421875 
L 7.8125 69.390625 
Q 13.765625 71.78125 18.9375 73 
Q 24.125 74.21875 28.421875 74.21875 
Q 39.75 74.21875 46.484375 68.546875 
Q 53.21875 62.890625 53.21875 53.421875 
Q 53.21875 48.921875 51.53125 44.890625 
Q 49.859375 40.875 45.40625 35.40625 
Q 44.1875 33.984375 37.640625 27.21875 
Q 31.109375 20.453125 19.1875 8.296875 
z
" id="DejaVuSans-50"/>
      </defs>
      <g transform="translate(202.058865 150.838437)scale(0.1 -0.1)">
       <use xlink:href="#DejaVuSans-50"/>
       <use x="63.623047" xlink:href="#DejaVuSans-48"/>
       <use x="127.246094" xlink:href="#DejaVuSans-48"/>
      </g>
     </g>
    </g>
    <g id="xtick_4">
     <g id="line2d_4">
      <g>
       <use style="stroke:#000000;stroke-width:0.8;" x="284.415514" xlink:href="#m7481916dfb" y="136.24"/>
      </g>
     </g>
     <g id="text_4">
      <!-- 300 -->
      <defs>
       <path d="M 40.578125 39.3125 
Q 47.65625 37.796875 51.625 33 
Q 55.609375 28.21875 55.609375 21.1875 
Q 55.609375 10.40625 48.1875 4.484375 
Q 40.765625 -1.421875 27.09375 -1.421875 
Q 22.515625 -1.421875 17.65625 -0.515625 
Q 12.796875 0.390625 7.625 2.203125 
L 7.625 11.71875 
Q 11.71875 9.328125 16.59375 8.109375 
Q 21.484375 6.890625 26.8125 6.890625 
Q 36.078125 6.890625 40.9375 10.546875 
Q 45.796875 14.203125 45.796875 21.1875 
Q 45.796875 27.640625 41.28125 31.265625 
Q 36.765625 34.90625 28.71875 34.90625 
L 20.21875 34.90625 
L 20.21875 43.015625 
L 29.109375 43.015625 
Q 36.375 43.015625 40.234375 45.921875 
Q 44.09375 48.828125 44.09375 54.296875 
Q 44.09375 59.90625 40.109375 62.90625 
Q 36.140625 65.921875 28.71875 65.921875 
Q 24.65625 65.921875 20.015625 65.03125 
Q 15.375 64.15625 9.8125 62.3125 
L 9.8125 71.09375 
Q 15.4375 72.65625 20.34375 73.4375 
Q 25.25 74.21875 29.59375 74.21875 
Q 40.828125 74.21875 47.359375 69.109375 
Q 53.90625 64.015625 53.90625 55.328125 
Q 53.90625 49.265625 50.4375 45.09375 
Q 46.96875 40.921875 40.578125 39.3125 
z
" id="DejaVuSans-51"/>
      </defs>
      <g transform="translate(274.871764 150.838437)scale(0.1 -0.1)">
       <use xlink:href="#DejaVuSans-51"/>
       <use x="63.623047" xlink:href="#DejaVuSans-48"/>
       <use x="127.246094" xlink:href="#DejaVuSans-48"/>
      </g>
     </g>
    </g>
    <g id="xtick_5">
     <g id="line2d_5">
      <g>
       <use style="stroke:#000000;stroke-width:0.8;" x="357.228412" xlink:href="#m7481916dfb" y="136.24"/>
      </g>
     </g>
     <g id="text_5">
      <!-- 400 -->
      <defs>
       <path d="M 37.796875 64.3125 
L 12.890625 25.390625 
L 37.796875 25.390625 
z
M 35.203125 72.90625 
L 47.609375 72.90625 
L 47.609375 25.390625 
L 58.015625 25.390625 
L 58.015625 17.1875 
L 47.609375 17.1875 
L 47.609375 0 
L 37.796875 0 
L 37.796875 17.1875 
L 4.890625 17.1875 
L 4.890625 26.703125 
z
" id="DejaVuSans-52"/>
      </defs>
      <g transform="translate(347.684662 150.838437)scale(0.1 -0.1)">
       <use xlink:href="#DejaVuSans-52"/>
       <use x="63.623047" xlink:href="#DejaVuSans-48"/>
       <use x="127.246094" xlink:href="#DejaVuSans-48"/>
      </g>
     </g>
    </g>
    <g id="xtick_6">
     <g id="line2d_6">
      <g>
       <use style="stroke:#000000;stroke-width:0.8;" x="430.041311" xlink:href="#m7481916dfb" y="136.24"/>
      </g>
     </g>
     <g id="text_6">
      <!-- 500 -->
      <defs>
       <path d="M 10.796875 72.90625 
L 49.515625 72.90625 
L 49.515625 64.59375 
L 19.828125 64.59375 
L 19.828125 46.734375 
Q 21.96875 47.46875 24.109375 47.828125 
Q 26.265625 48.1875 28.421875 48.1875 
Q 40.625 48.1875 47.75 41.5 
Q 54.890625 34.8125 54.890625 23.390625 
Q 54.890625 11.625 47.5625 5.09375 
Q 40.234375 -1.421875 26.90625 -1.421875 
Q 22.3125 -1.421875 17.546875 -0.640625 
Q 12.796875 0.140625 7.71875 1.703125 
L 7.71875 11.625 
Q 12.109375 9.234375 16.796875 8.0625 
Q 21.484375 6.890625 26.703125 6.890625 
Q 35.15625 6.890625 40.078125 11.328125 
Q 45.015625 15.765625 45.015625 23.390625 
Q 45.015625 31 40.078125 35.4375 
Q 35.15625 39.890625 26.703125 39.890625 
Q 22.75 39.890625 18.8125 39.015625 
Q 14.890625 38.140625 10.796875 36.28125 
z
" id="DejaVuSans-53"/>
      </defs>
      <g transform="translate(420.497561 150.838437)scale(0.1 -0.1)">
       <use xlink:href="#DejaVuSans-53"/>
       <use x="63.623047" xlink:href="#DejaVuSans-48"/>
       <use x="127.246094" xlink:href="#DejaVuSans-48"/>
      </g>
     </g>
    </g>
    <g id="text_7">
     <!-- epoch -->
     <defs>
      <path d="M 56.203125 29.59375 
L 56.203125 25.203125 
L 14.890625 25.203125 
Q 15.484375 15.921875 20.484375 11.0625 
Q 25.484375 6.203125 34.421875 6.203125 
Q 39.59375 6.203125 44.453125 7.46875 
Q 49.3125 8.734375 54.109375 11.28125 
L 54.109375 2.78125 
Q 49.265625 0.734375 44.1875 -0.34375 
Q 39.109375 -1.421875 33.890625 -1.421875 
Q 20.796875 -1.421875 13.15625 6.1875 
Q 5.515625 13.8125 5.515625 26.8125 
Q 5.515625 40.234375 12.765625 48.109375 
Q 20.015625 56 32.328125 56 
Q 43.359375 56 49.78125 48.890625 
Q 56.203125 41.796875 56.203125 29.59375 
z
M 47.21875 32.234375 
Q 47.125 39.59375 43.09375 43.984375 
Q 39.0625 48.390625 32.421875 48.390625 
Q 24.90625 48.390625 20.390625 44.140625 
Q 15.875 39.890625 15.1875 32.171875 
z
" id="DejaVuSans-101"/>
      <path d="M 18.109375 8.203125 
L 18.109375 -20.796875 
L 9.078125 -20.796875 
L 9.078125 54.6875 
L 18.109375 54.6875 
L 18.109375 46.390625 
Q 20.953125 51.265625 25.265625 53.625 
Q 29.59375 56 35.59375 56 
Q 45.5625 56 51.78125 48.09375 
Q 58.015625 40.1875 58.015625 27.296875 
Q 58.015625 14.40625 51.78125 6.484375 
Q 45.5625 -1.421875 35.59375 -1.421875 
Q 29.59375 -1.421875 25.265625 0.953125 
Q 20.953125 3.328125 18.109375 8.203125 
z
M 48.6875 27.296875 
Q 48.6875 37.203125 44.609375 42.84375 
Q 40.53125 48.484375 33.40625 48.484375 
Q 26.265625 48.484375 22.1875 42.84375 
Q 18.109375 37.203125 18.109375 27.296875 
Q 18.109375 17.390625 22.1875 11.75 
Q 26.265625 6.109375 33.40625 6.109375 
Q 40.53125 6.109375 44.609375 11.75 
Q 48.6875 17.390625 48.6875 27.296875 
z
" id="DejaVuSans-112"/>
      <path d="M 30.609375 48.390625 
Q 23.390625 48.390625 19.1875 42.75 
Q 14.984375 37.109375 14.984375 27.296875 
Q 14.984375 17.484375 19.15625 11.84375 
Q 23.34375 6.203125 30.609375 6.203125 
Q 37.796875 6.203125 41.984375 11.859375 
Q 46.1875 17.53125 46.1875 27.296875 
Q 46.1875 37.015625 41.984375 42.703125 
Q 37.796875 48.390625 30.609375 48.390625 
z
M 30.609375 56 
Q 42.328125 56 49.015625 48.375 
Q 55.71875 40.765625 55.71875 27.296875 
Q 55.71875 13.875 49.015625 6.21875 
Q 42.328125 -1.421875 30.609375 -1.421875 
Q 18.84375 -1.421875 12.171875 6.21875 
Q 5.515625 13.875 5.515625 27.296875 
Q 5.515625 40.765625 12.171875 48.375 
Q 18.84375 56 30.609375 56 
z
" id="DejaVuSans-111"/>
      <path d="M 48.78125 52.59375 
L 48.78125 44.1875 
Q 44.96875 46.296875 41.140625 47.34375 
Q 37.3125 48.390625 33.40625 48.390625 
Q 24.65625 48.390625 19.8125 42.84375 
Q 14.984375 37.3125 14.984375 27.296875 
Q 14.984375 17.28125 19.8125 11.734375 
Q 24.65625 6.203125 33.40625 6.203125 
Q 37.3125 6.203125 41.140625 7.25 
Q 44.96875 8.296875 48.78125 10.40625 
L 48.78125 2.09375 
Q 45.015625 0.34375 40.984375 -0.53125 
Q 36.96875 -1.421875 32.421875 -1.421875 
Q 20.0625 -1.421875 12.78125 6.34375 
Q 5.515625 14.109375 5.515625 27.296875 
Q 5.515625 40.671875 12.859375 48.328125 
Q 20.21875 56 33.015625 56 
Q 37.15625 56 41.109375 55.140625 
Q 45.0625 54.296875 48.78125 52.59375 
z
" id="DejaVuSans-99"/>
      <path d="M 54.890625 33.015625 
L 54.890625 0 
L 45.90625 0 
L 45.90625 32.71875 
Q 45.90625 40.484375 42.875 44.328125 
Q 39.84375 48.1875 33.796875 48.1875 
Q 26.515625 48.1875 22.3125 43.546875 
Q 18.109375 38.921875 18.109375 30.90625 
L 18.109375 0 
L 9.078125 0 
L 9.078125 75.984375 
L 18.109375 75.984375 
L 18.109375 46.1875 
Q 21.34375 51.125 25.703125 53.5625 
Q 30.078125 56 35.796875 56 
Q 45.21875 56 50.046875 50.171875 
Q 54.890625 44.34375 54.890625 33.015625 
z
" id="DejaVuSans-104"/>
     </defs>
     <g transform="translate(232.416875 164.516562)scale(0.1 -0.1)">
      <use xlink:href="#DejaVuSans-101"/>
      <use x="61.523438" xlink:href="#DejaVuSans-112"/>
      <use x="125" xlink:href="#DejaVuSans-111"/>
      <use x="186.181641" xlink:href="#DejaVuSans-99"/>
      <use x="241.162109" xlink:href="#DejaVuSans-104"/>
     </g>
    </g>
   </g>
   <g id="matplotlib.axis_2">
    <g id="ytick_1">
     <g id="line2d_7">
      <defs>
       <path d="M 0 0 
L -3.5 0 
" id="m56e4fb2e3f" style="stroke:#000000;stroke-width:0.8;"/>
      </defs>
      <g>
       <use style="stroke:#000000;stroke-width:0.8;" x="47.81" xlink:href="#m56e4fb2e3f" y="113.437243"/>
      </g>
     </g>
     <g id="text_8">
      <!-- 1.00 -->
      <defs>
       <path d="M 10.6875 12.40625 
L 21 12.40625 
L 21 0 
L 10.6875 0 
z
" id="DejaVuSans-46"/>
      </defs>
      <g transform="translate(18.544375 117.236462)scale(0.1 -0.1)">
       <use xlink:href="#DejaVuSans-49"/>
       <use x="63.623047" xlink:href="#DejaVuSans-46"/>
       <use x="95.410156" xlink:href="#DejaVuSans-48"/>
       <use x="159.033203" xlink:href="#DejaVuSans-48"/>
      </g>
     </g>
    </g>
    <g id="ytick_2">
     <g id="line2d_8">
      <g>
       <use style="stroke:#000000;stroke-width:0.8;" x="47.81" xlink:href="#m56e4fb2e3f" y="87.655097"/>
      </g>
     </g>
     <g id="text_9">
      <!-- 1.25 -->
      <g transform="translate(18.544375 91.454315)scale(0.1 -0.1)">
       <use xlink:href="#DejaVuSans-49"/>
       <use x="63.623047" xlink:href="#DejaVuSans-46"/>
       <use x="95.410156" xlink:href="#DejaVuSans-50"/>
       <use x="159.033203" xlink:href="#DejaVuSans-53"/>
      </g>
     </g>
    </g>
    <g id="ytick_3">
     <g id="line2d_9">
      <g>
       <use style="stroke:#000000;stroke-width:0.8;" x="47.81" xlink:href="#m56e4fb2e3f" y="61.87295"/>
      </g>
     </g>
     <g id="text_10">
      <!-- 1.50 -->
      <g transform="translate(18.544375 65.672169)scale(0.1 -0.1)">
       <use xlink:href="#DejaVuSans-49"/>
       <use x="63.623047" xlink:href="#DejaVuSans-46"/>
       <use x="95.410156" xlink:href="#DejaVuSans-53"/>
       <use x="159.033203" xlink:href="#DejaVuSans-48"/>
      </g>
     </g>
    </g>
    <g id="ytick_4">
     <g id="line2d_10">
      <g>
       <use style="stroke:#000000;stroke-width:0.8;" x="47.81" xlink:href="#m56e4fb2e3f" y="36.090804"/>
      </g>
     </g>
     <g id="text_11">
      <!-- 1.75 -->
      <defs>
       <path d="M 8.203125 72.90625 
L 55.078125 72.90625 
L 55.078125 68.703125 
L 28.609375 0 
L 18.3125 0 
L 43.21875 64.59375 
L 8.203125 64.59375 
z
" id="DejaVuSans-55"/>
      </defs>
      <g transform="translate(18.544375 39.890023)scale(0.1 -0.1)">
       <use xlink:href="#DejaVuSans-49"/>
       <use x="63.623047" xlink:href="#DejaVuSans-46"/>
       <use x="95.410156" xlink:href="#DejaVuSans-55"/>
       <use x="159.033203" xlink:href="#DejaVuSans-53"/>
      </g>
     </g>
    </g>
    <g id="text_12">
     <!-- loss -->
     <defs>
      <path d="M 9.421875 75.984375 
L 18.40625 75.984375 
L 18.40625 0 
L 9.421875 0 
z
" id="DejaVuSans-108"/>
      <path d="M 44.28125 53.078125 
L 44.28125 44.578125 
Q 40.484375 46.53125 36.375 47.5 
Q 32.28125 48.484375 27.875 48.484375 
Q 21.1875 48.484375 17.84375 46.4375 
Q 14.5 44.390625 14.5 40.28125 
Q 14.5 37.15625 16.890625 35.375 
Q 19.28125 33.59375 26.515625 31.984375 
L 29.59375 31.296875 
Q 39.15625 29.25 43.1875 25.515625 
Q 47.21875 21.78125 47.21875 15.09375 
Q 47.21875 7.46875 41.1875 3.015625 
Q 35.15625 -1.421875 24.609375 -1.421875 
Q 20.21875 -1.421875 15.453125 -0.5625 
Q 10.6875 0.296875 5.421875 2 
L 5.421875 11.28125 
Q 10.40625 8.6875 15.234375 7.390625 
Q 20.0625 6.109375 24.8125 6.109375 
Q 31.15625 6.109375 34.5625 8.28125 
Q 37.984375 10.453125 37.984375 14.40625 
Q 37.984375 18.0625 35.515625 20.015625 
Q 33.0625 21.96875 24.703125 23.78125 
L 21.578125 24.515625 
Q 13.234375 26.265625 9.515625 29.90625 
Q 5.8125 33.546875 5.8125 39.890625 
Q 5.8125 47.609375 11.28125 51.796875 
Q 16.75 56 26.8125 56 
Q 31.78125 56 36.171875 55.265625 
Q 40.578125 54.546875 44.28125 53.078125 
z
" id="DejaVuSans-115"/>
     </defs>
     <g transform="translate(12.464688 90.497812)rotate(-90)scale(0.1 -0.1)">
      <use xlink:href="#DejaVuSans-108"/>
      <use x="27.783203" xlink:href="#DejaVuSans-111"/>
      <use x="88.964844" xlink:href="#DejaVuSans-115"/>
      <use x="141.064453" xlink:href="#DejaVuSans-115"/>
     </g>
    </g>
   </g>
   <g id="line2d_11">
    <path clip-path="url(#pe087e1ce03)" d="M 65.976818 30.476364 
L 67.433076 69.219433 
L 68.161205 75.097713 
L 68.889334 77.443001 
L 69.617463 79.328433 
L 71.80185 83.433492 
L 73.986237 87.181617 
L 76.898753 91.070712 
L 77.626882 91.823815 
L 79.08314 93.532313 
L 79.811269 94.095793 
L 80.539398 95.037295 
L 81.267527 95.740218 
L 81.995656 96.251458 
L 82.723785 97.123481 
L 83.451914 97.645816 
L 84.180043 98.460389 
L 84.908172 98.999806 
L 85.636301 99.681497 
L 87.092559 100.446021 
L 87.820688 101.180583 
L 89.276946 102.021625 
L 90.005075 102.579902 
L 90.733204 102.711662 
L 91.461333 103.158082 
L 92.189462 103.741027 
L 92.917591 103.908286 
L 93.64572 104.214419 
L 94.373849 104.719936 
L 95.101978 104.944706 
L 95.830107 105.452856 
L 96.558236 105.605015 
L 97.286365 106.042149 
L 98.742623 106.689572 
L 100.19888 107.277577 
L 100.927009 107.70696 
L 101.655138 107.762132 
L 102.383267 108.240759 
L 103.111396 108.297384 
L 103.839525 108.59575 
L 104.567654 108.664635 
L 106.752041 109.519452 
L 107.48017 109.991085 
L 108.208299 109.921423 
L 109.664557 110.381072 
L 110.392686 110.802846 
L 111.848944 111.108639 
L 112.577073 110.984327 
L 113.305202 111.320574 
L 115.489589 111.675342 
L 116.217718 112.09943 
L 117.673976 112.426747 
L 118.402105 112.465012 
L 119.130234 112.872034 
L 119.858363 112.932734 
L 120.586492 113.139477 
L 121.314621 113.229795 
L 122.04275 113.524326 
L 122.770879 113.570149 
L 123.499008 113.989752 
L 124.227137 113.700983 
L 124.955266 114.110317 
L 125.683395 113.99182 
L 126.411524 114.291461 
L 127.867782 114.628516 
L 128.595911 114.606823 
L 129.32404 114.458365 
L 130.052169 114.857841 
L 131.508427 115.293675 
L 132.236556 115.639902 
L 132.964685 115.567849 
L 134.420943 115.680321 
L 135.149072 115.96227 
L 135.877201 116.013326 
L 136.60533 116.187689 
L 137.333459 116.040066 
L 139.517846 116.708177 
L 140.245975 116.545329 
L 140.974104 116.778154 
L 141.702233 116.848316 
L 142.430362 117.121 
L 143.158491 116.906903 
L 144.614749 117.332658 
L 145.342878 117.299137 
L 146.071007 117.450199 
L 146.799136 117.741869 
L 147.527265 117.441582 
L 148.255394 117.835194 
L 149.711651 117.694551 
L 150.43978 118.167306 
L 151.167909 117.872407 
L 152.624167 118.266956 
L 154.808554 118.414314 
L 155.536683 118.446731 
L 156.264812 118.747003 
L 156.992941 118.84719 
L 157.72107 118.668571 
L 158.449199 118.951609 
L 159.905457 119.086027 
L 160.633586 119.243707 
L 161.361715 119.09792 
L 162.089844 119.488123 
L 163.546102 119.636039 
L 164.274231 119.501935 
L 166.458618 119.764596 
L 167.186747 119.62332 
L 167.914876 119.900085 
L 168.643005 119.926856 
L 169.371134 120.106214 
L 170.827392 119.963529 
L 171.555521 120.333583 
L 172.28365 120.5601 
L 173.739908 120.293921 
L 175.196166 120.405429 
L 175.924295 120.73697 
L 176.652424 120.864164 
L 177.380553 120.561643 
L 178.108682 120.555819 
L 178.836811 121.038054 
L 179.56494 120.884525 
L 181.021198 121.099398 
L 181.749327 121.026072 
L 182.477456 121.268873 
L 183.933714 121.136015 
L 184.661843 121.181797 
L 185.389972 121.379404 
L 186.118101 121.305382 
L 186.84623 121.521998 
L 187.574359 121.391943 
L 188.302488 121.593374 
L 189.758746 121.59696 
L 190.486875 121.835515 
L 191.215004 121.883249 
L 191.943133 121.807225 
L 192.671262 122.024699 
L 193.399391 121.91185 
L 194.12752 121.912542 
L 194.855649 122.135137 
L 196.311907 122.425888 
L 197.040036 122.210454 
L 197.768165 122.264169 
L 198.496293 122.111471 
L 199.952551 122.387529 
L 202.136938 122.618265 
L 203.593196 122.528392 
L 204.321325 122.420866 
L 205.049454 122.647034 
L 205.777583 122.60611 
L 207.96197 122.813341 
L 208.690099 122.606977 
L 209.418228 122.982573 
L 211.602615 123.088811 
L 213.058873 123.029299 
L 213.787002 123.224279 
L 216.699518 123.412323 
L 217.427647 123.196118 
L 218.155776 123.564733 
L 221.068292 123.661499 
L 223.252679 123.639634 
L 223.980808 123.994113 
L 224.708937 123.609163 
L 226.893324 123.913115 
L 228.349582 123.705726 
L 229.077711 123.964084 
L 230.533969 124.058969 
L 231.262098 124.259442 
L 231.990227 124.268282 
L 232.718356 124.125762 
L 233.446485 124.253351 
L 234.174614 124.211476 
L 234.902743 124.435522 
L 235.630872 124.29352 
L 236.359001 124.520693 
L 237.815259 124.549084 
L 238.543388 124.283905 
L 239.271517 124.646516 
L 239.999646 124.33709 
L 240.727775 124.660604 
L 241.455904 124.62141 
L 242.184033 124.417318 
L 243.640291 124.738146 
L 245.096549 124.742966 
L 245.824678 124.465058 
L 247.280936 125.030744 
L 248.737193 124.754326 
L 250.193451 124.963321 
L 251.649709 125.136041 
L 252.377838 124.950226 
L 255.290354 125.205337 
L 256.746612 125.031422 
L 257.474741 125.046467 
L 258.20287 125.339793 
L 258.930999 125.091728 
L 259.659128 125.517924 
L 260.387257 125.491545 
L 261.115386 125.172523 
L 261.843515 125.279048 
L 262.571644 125.636673 
L 263.299773 125.359655 
L 264.027902 125.64133 
L 265.48416 125.501033 
L 266.212289 125.57611 
L 266.940418 125.495274 
L 267.668547 125.572734 
L 268.396676 125.364129 
L 269.124805 125.536633 
L 271.309192 125.558753 
L 272.037321 125.705979 
L 272.76545 125.534528 
L 273.493579 125.673339 
L 274.221708 125.690423 
L 274.949837 125.94485 
L 275.677966 125.78368 
L 276.406095 126.044085 
L 277.134224 125.96276 
L 277.862353 126.187429 
L 278.590482 125.799066 
L 279.318611 125.963351 
L 280.04674 125.692477 
L 280.774869 126.176653 
L 281.502998 125.974116 
L 282.959256 126.221828 
L 284.415514 126.134905 
L 285.143643 126.327242 
L 286.599901 126.278523 
L 288.056159 126.26272 
L 288.784288 126.378054 
L 289.512417 126.373088 
L 290.240546 126.163062 
L 290.968675 126.415794 
L 291.696804 126.042946 
L 292.424933 126.707098 
L 293.153062 126.332809 
L 293.881191 126.677516 
L 294.60932 126.321017 
L 295.337449 126.414395 
L 297.521835 126.352939 
L 298.249964 126.667293 
L 298.978093 126.618678 
L 299.706222 126.275772 
L 300.434351 126.561435 
L 302.618738 126.706344 
L 303.346867 126.602052 
L 304.074996 126.654302 
L 304.803125 126.447185 
L 306.259383 126.912665 
L 306.987512 126.755605 
L 307.715641 126.824378 
L 308.44377 126.676795 
L 309.171899 127.037734 
L 309.900028 126.640977 
L 311.356286 127.075561 
L 312.084415 126.679766 
L 312.812544 126.911222 
L 313.540673 126.92237 
L 314.268802 127.22561 
L 314.996931 126.961338 
L 315.72506 127.105598 
L 317.181318 126.910181 
L 317.909447 126.979771 
L 318.637576 126.925668 
L 322.278221 127.194016 
L 323.00635 127.115496 
L 325.190737 127.463492 
L 325.918866 127.221419 
L 326.646995 127.438865 
L 327.375124 127.171209 
L 328.103253 127.472904 
L 328.831382 127.295964 
L 329.559511 127.443688 
L 331.015769 127.269545 
L 331.743898 127.291059 
L 332.472027 127.11729 
L 333.200156 127.400353 
L 333.928285 127.472152 
L 334.656414 127.315816 
L 335.384543 127.84719 
L 336.840801 127.530727 
L 337.56893 127.598969 
L 339.025188 127.102292 
L 339.753317 127.446268 
L 341.209575 127.846242 
L 341.937704 127.473379 
L 342.665833 127.674402 
L 344.85022 127.598415 
L 345.578349 127.74123 
L 346.306478 127.645373 
L 347.034606 127.901002 
L 347.762735 127.746596 
L 349.218993 127.714087 
L 349.947122 128.056185 
L 350.675251 127.67207 
L 351.40338 127.781056 
L 352.131509 128.006479 
L 353.587767 127.812957 
L 354.315896 128.012319 
L 355.772154 128.093087 
L 356.500283 127.875445 
L 357.228412 127.995285 
L 358.68467 127.963007 
L 360.869057 128.010268 
L 361.597186 128.396527 
L 362.325315 128.146159 
L 363.781573 128.170271 
L 364.509702 128.045073 
L 365.237831 128.190063 
L 367.422218 128.212088 
L 368.150347 128.079542 
L 370.334734 128.131623 
L 371.062863 128.209617 
L 371.790992 128.469688 
L 372.519121 128.254922 
L 373.24725 128.311435 
L 373.975379 128.49945 
L 374.703508 128.387784 
L 375.431637 128.126455 
L 376.887895 128.617892 
L 377.616024 128.178524 
L 378.344153 128.658757 
L 379.072282 128.379133 
L 381.256669 128.652818 
L 381.984798 128.489361 
L 382.712927 128.815724 
L 383.441056 128.880141 
L 385.625443 128.302685 
L 386.353572 128.68772 
L 387.081701 128.803123 
L 387.80983 128.608962 
L 388.537959 128.750282 
L 389.266088 128.551921 
L 389.994217 128.619419 
L 390.722346 128.475423 
L 391.450475 128.830375 
L 392.178604 128.445863 
L 392.906733 128.538243 
L 393.634862 128.812083 
L 395.09112 128.834567 
L 395.819248 128.934328 
L 396.547377 128.631502 
L 397.275506 128.68736 
L 398.003635 129.072214 
L 398.731764 128.697524 
L 399.459893 128.736288 
L 400.188022 129.04523 
L 400.916151 128.817391 
L 401.64428 128.714706 
L 402.372409 129.21711 
L 403.100538 128.872446 
L 403.828667 128.773271 
L 404.556796 128.933446 
L 405.284925 128.869327 
L 406.013054 128.982254 
L 406.741183 128.913165 
L 407.469312 129.138515 
L 408.197441 128.968653 
L 408.92557 129.137204 
L 410.381828 128.950764 
L 411.109957 129.173786 
L 411.838086 129.003414 
L 412.566215 128.969179 
L 413.294344 128.764903 
L 414.022473 129.34844 
L 414.750602 129.10032 
L 416.20686 129.081165 
L 416.934989 129.315331 
L 417.663118 128.957618 
L 418.391247 129.320252 
L 419.847505 128.9771 
L 420.575634 129.217125 
L 422.031892 129.24232 
L 422.760021 129.333097 
L 423.48815 129.188965 
L 424.216279 129.495858 
L 424.944408 129.14181 
L 425.672537 129.092966 
L 426.400666 129.300716 
L 427.128795 129.20342 
L 427.856924 129.356156 
L 429.313182 129.317114 
L 429.313182 129.317114 
" style="fill:none;stroke:#0000ff;stroke-linecap:square;stroke-width:1.5;"/>
   </g>
   <g id="line2d_12">
    <path clip-path="url(#pe087e1ce03)" d="M 65.976818 44.205029 
L 66.704947 63.064186 
L 67.433076 75.134961 
L 68.161205 77.35413 
L 68.889334 80.105859 
L 69.617463 81.155582 
L 70.345592 82.997535 
L 71.073721 84.096444 
L 72.529979 87.475234 
L 73.258108 88.537805 
L 73.986237 90.002976 
L 74.714366 90.898857 
L 75.442495 92.223625 
L 76.170624 93.037893 
L 76.898753 93.589644 
L 77.626882 95.328996 
L 79.08314 96.515876 
L 79.811269 97.376027 
L 80.539398 98.649402 
L 81.267527 98.985137 
L 81.995656 99.931829 
L 82.723785 99.585013 
L 83.451914 101.448324 
L 84.180043 100.713674 
L 84.908172 102.762951 
L 85.636301 103.019243 
L 86.36443 102.88863 
L 87.092559 103.789927 
L 87.820688 104.315976 
L 88.548817 105.363842 
L 89.276946 104.781691 
L 90.005075 105.82855 
L 90.733204 106.275999 
L 91.461333 106.89347 
L 92.189462 106.811748 
L 92.917591 107.659846 
L 94.373849 107.693953 
L 95.101978 108.229043 
L 95.830107 108.488601 
L 96.558236 109.191048 
L 97.286365 109.285019 
L 98.014494 109.896346 
L 98.742623 109.806114 
L 100.19888 110.901016 
L 100.927009 110.832969 
L 101.655138 111.576755 
L 102.383267 111.803222 
L 103.111396 111.687164 
L 103.839525 111.729045 
L 104.567654 112.397462 
L 105.295783 112.025157 
L 106.023912 112.148873 
L 107.48017 113.403727 
L 108.208299 113.431641 
L 108.936428 113.63758 
L 109.664557 113.079273 
L 110.392686 113.860826 
L 111.120815 113.929913 
L 111.848944 114.186981 
L 112.577073 114.824661 
L 113.305202 115.077443 
L 114.76146 115.019229 
L 115.489589 114.70285 
L 116.217718 115.170207 
L 116.945847 115.343262 
L 117.673976 115.815943 
L 119.130234 116.121323 
L 119.858363 116.449644 
L 120.586492 116.380177 
L 121.314621 116.123029 
L 122.04275 116.798287 
L 122.770879 117.055145 
L 124.955266 117.324825 
L 125.683395 117.595507 
L 126.411524 116.642759 
L 127.139653 117.789805 
L 128.595911 118.143508 
L 129.32404 117.468906 
L 130.052169 118.274602 
L 130.780298 117.895606 
L 131.508427 118.894279 
L 132.236556 118.679376 
L 133.692814 118.570328 
L 134.420943 119.094204 
L 135.149072 119.214434 
L 135.877201 118.752956 
L 137.333459 119.134867 
L 138.061588 119.683616 
L 138.789717 119.699524 
L 139.517846 120.092323 
L 140.974104 119.305445 
L 142.430362 119.957253 
L 143.158491 120.036754 
L 145.342878 120.817552 
L 146.071007 120.70428 
L 146.799136 120.852441 
L 147.527265 120.633919 
L 148.255394 120.940051 
L 148.983522 120.946639 
L 149.711651 121.216548 
L 150.43978 121.260414 
L 151.167909 120.737757 
L 151.896038 121.298191 
L 152.624167 121.489651 
L 154.080425 121.474344 
L 154.808554 121.985882 
L 155.536683 121.410676 
L 156.264812 121.917894 
L 156.992941 121.734857 
L 157.72107 122.145089 
L 158.449199 121.611827 
L 159.177328 121.632392 
L 159.905457 122.481584 
L 160.633586 122.316738 
L 162.817973 122.313236 
L 164.274231 122.564199 
L 165.00236 122.584355 
L 165.730489 122.88167 
L 166.458618 122.028293 
L 167.914876 122.971776 
L 168.643005 122.484287 
L 169.371134 122.596669 
L 170.099263 123.121666 
L 170.827392 122.647462 
L 171.555521 123.078098 
L 172.28365 122.542052 
L 173.011779 122.825834 
L 173.739908 123.556942 
L 175.924295 123.598745 
L 176.652424 123.213895 
L 177.380553 123.267381 
L 178.108682 123.519602 
L 179.56494 123.233068 
L 180.293069 123.815358 
L 181.021198 123.664934 
L 181.749327 123.74532 
L 182.477456 123.646053 
L 183.205585 124.129132 
L 183.933714 123.094882 
L 184.661843 124.043244 
L 186.118101 124.103459 
L 186.84623 123.994769 
L 187.574359 124.434246 
L 188.302488 124.208181 
L 189.030617 124.674563 
L 189.758746 124.410672 
L 190.486875 124.457907 
L 191.215004 124.39242 
L 191.943133 124.763753 
L 192.671262 124.417886 
L 193.399391 124.291028 
L 194.855649 124.505732 
L 195.583778 124.373428 
L 196.311907 124.112097 
L 197.040036 124.646334 
L 197.768165 124.838702 
L 198.496293 124.529549 
L 199.224422 125.157029 
L 201.408809 124.783399 
L 202.136938 124.77096 
L 203.593196 125.17406 
L 204.321325 124.656813 
L 205.049454 125.274047 
L 206.505712 125.168738 
L 207.233841 125.470368 
L 207.96197 125.236863 
L 208.690099 125.56863 
L 209.418228 125.670372 
L 210.146357 125.915777 
L 210.874486 125.772609 
L 211.602615 125.514257 
L 212.330744 125.690169 
L 213.058873 125.299446 
L 213.787002 125.517396 
L 214.515131 125.491276 
L 216.699518 126.094135 
L 217.427647 125.773047 
L 218.155776 126.153394 
L 218.883905 126.119383 
L 219.612034 125.428913 
L 220.340163 126.193231 
L 221.068292 125.948475 
L 221.796421 126.263282 
L 222.52455 125.97067 
L 223.252679 126.405427 
L 223.980808 126.133879 
L 224.708937 126.26629 
L 225.437066 126.167036 
L 226.165195 125.696561 
L 226.893324 126.378443 
L 227.621453 126.532795 
L 229.077711 126.49885 
L 229.80584 126.354461 
L 230.533969 126.356508 
L 231.262098 126.525638 
L 231.990227 126.537586 
L 232.718356 125.892724 
L 233.446485 126.727841 
L 234.174614 126.339747 
L 234.902743 126.774132 
L 236.359001 126.524615 
L 237.815259 126.876684 
L 238.543388 126.634045 
L 239.271517 126.691408 
L 239.999646 127.010978 
L 240.727775 126.970021 
L 241.455904 126.71223 
L 242.184033 127.088861 
L 242.912162 126.443642 
L 243.640291 127.024042 
L 244.36842 126.873286 
L 245.096549 127.088556 
L 245.824678 126.774425 
L 246.552807 126.870013 
L 247.280936 127.233846 
L 248.009064 127.398381 
L 248.737193 127.072657 
L 249.465322 127.185245 
L 250.193451 126.988788 
L 251.649709 127.603404 
L 252.377838 127.453899 
L 254.562225 127.42552 
L 255.290354 127.277815 
L 256.018483 127.482713 
L 256.746612 127.399624 
L 257.474741 127.004442 
L 258.20287 127.574372 
L 259.659128 127.172218 
L 260.387257 127.731032 
L 261.115386 127.272565 
L 261.843515 127.688289 
L 262.571644 127.340221 
L 264.027902 127.870028 
L 264.756031 127.417476 
L 265.48416 127.65334 
L 266.940418 127.445864 
L 267.668547 127.741441 
L 268.396676 127.640436 
L 269.852934 128.036009 
L 271.309192 127.86694 
L 272.037321 128.036998 
L 274.221708 127.45288 
L 274.949837 127.501546 
L 275.677966 127.833266 
L 277.134224 128.021686 
L 277.862353 127.946843 
L 278.590482 128.021887 
L 279.318611 127.960396 
L 280.04674 128.215986 
L 280.774869 127.820727 
L 281.502998 128.232117 
L 282.231127 127.751139 
L 282.959256 128.217792 
L 283.687385 127.630131 
L 284.415514 128.170726 
L 285.143643 127.971266 
L 285.871772 128.086595 
L 286.599901 127.96206 
L 287.32803 128.319671 
L 288.056159 128.165027 
L 289.512417 128.33132 
L 290.240546 128.286076 
L 290.968675 128.386359 
L 291.696804 128.182854 
L 292.424933 128.22238 
L 293.153062 128.558031 
L 293.881191 128.258157 
L 294.60932 128.236739 
L 295.337449 128.533609 
L 296.065578 128.6664 
L 296.793707 128.46759 
L 298.249964 128.690575 
L 298.978093 128.229883 
L 299.706222 128.788942 
L 300.434351 128.606389 
L 301.16248 127.855601 
L 301.890609 128.836334 
L 302.618738 128.556438 
L 304.803125 128.919049 
L 306.259383 128.583726 
L 306.987512 128.842022 
L 307.715641 128.698724 
L 308.44377 128.840162 
L 309.900028 128.534294 
L 311.356286 129.015766 
L 312.084415 128.565709 
L 312.812544 129.169707 
L 313.540673 128.791349 
L 314.268802 129.130091 
L 314.996931 128.972282 
L 315.72506 129.169716 
L 316.453189 128.933674 
L 317.181318 128.820181 
L 317.909447 129.196971 
L 318.637576 128.854411 
L 320.093834 129.268897 
L 320.821963 129.025529 
L 321.550092 129.276988 
L 323.00635 129.160081 
L 323.734479 129.148999 
L 324.462608 129.371335 
L 325.190737 129.166621 
L 326.646995 129.375317 
L 328.103253 129.208419 
L 329.559511 129.504684 
L 330.28764 129.243631 
L 333.200156 129.403976 
L 334.656414 129.373785 
L 335.384543 129.530482 
L 336.112672 129.237415 
L 336.840801 129.524226 
L 337.56893 129.039263 
L 338.297059 129.651053 
L 339.025188 129.530163 
L 340.481446 129.707181 
L 341.937704 129.486558 
L 342.665833 129.039776 
L 343.393962 129.511234 
L 344.122091 129.471124 
L 344.85022 129.662722 
L 345.578349 129.557132 
L 346.306478 129.323488 
L 347.034606 129.73723 
L 347.762735 129.77467 
L 348.490864 129.499978 
L 349.218993 129.896811 
L 349.947122 129.431275 
L 351.40338 129.8201 
L 352.859638 129.499231 
L 356.500283 129.940203 
L 357.228412 129.619408 
L 357.956541 129.913211 
L 358.68467 129.836742 
L 359.412799 129.988734 
L 360.140928 129.707576 
L 361.597186 130.110507 
L 363.053444 130.069309 
L 364.509702 129.718146 
L 365.237831 130.110562 
L 365.96596 129.690467 
L 366.694089 130.113027 
L 367.422218 130.132968 
L 368.150347 129.948992 
L 371.062863 130.130876 
L 371.790992 129.915047 
L 372.519121 130.259142 
L 373.24725 129.985684 
L 373.975379 130.26153 
L 376.887895 130.185731 
L 379.072282 130.392894 
L 382.712927 130.502026 
L 383.441056 130.318345 
L 384.169185 130.361735 
L 384.897314 130.231241 
L 385.625443 130.352018 
L 386.353572 130.68381 
L 387.081701 130.480625 
L 387.80983 130.609462 
L 388.537959 130.226923 
L 389.266088 130.460796 
L 389.994217 130.288851 
L 390.722346 130.296145 
L 391.450475 130.61467 
L 394.362991 130.519806 
L 395.09112 130.090567 
L 395.819248 130.654581 
L 396.547377 130.638596 
L 397.275506 130.469156 
L 399.459893 130.584002 
L 400.188022 130.500572 
L 400.916151 130.74253 
L 401.64428 130.74971 
L 402.372409 130.022068 
L 403.100538 130.776021 
L 403.828667 130.862817 
L 404.556796 130.71578 
L 405.284925 130.979548 
L 406.013054 130.488045 
L 406.741183 130.818093 
L 407.469312 130.701209 
L 409.653699 130.926136 
L 410.381828 130.80706 
L 411.109957 130.811339 
L 411.838086 130.682399 
L 412.566215 131.075556 
L 413.294344 130.793258 
L 415.478731 131.002858 
L 416.20686 130.874179 
L 418.391247 130.999179 
L 419.119376 130.928913 
L 419.847505 131.154322 
L 420.575634 131.029461 
L 421.303763 131.194486 
L 422.031892 131.033671 
L 422.760021 131.145639 
L 424.944408 131.159175 
L 425.672537 130.90445 
L 426.400666 130.874507 
L 427.128795 131.132766 
L 427.856924 131.203636 
L 428.585053 131.008223 
L 429.313182 130.990951 
L 429.313182 130.990951 
" style="fill:none;stroke:#ffa500;stroke-linecap:square;stroke-width:1.5;"/>
   </g>
   <g id="patch_3">
    <path d="M 47.81 136.24 
L 47.81 25.44 
" style="fill:none;stroke:#000000;stroke-linecap:square;stroke-linejoin:miter;stroke-width:0.8;"/>
   </g>
   <g id="patch_4">
    <path d="M 447.48 136.24 
L 447.48 25.44 
" style="fill:none;stroke:#000000;stroke-linecap:square;stroke-linejoin:miter;stroke-width:0.8;"/>
   </g>
   <g id="patch_5">
    <path d="M 47.81 136.24 
L 447.48 136.24 
" style="fill:none;stroke:#000000;stroke-linecap:square;stroke-linejoin:miter;stroke-width:0.8;"/>
   </g>
   <g id="patch_6">
    <path d="M 47.81 25.44 
L 447.48 25.44 
" style="fill:none;stroke:#000000;stroke-linecap:square;stroke-linejoin:miter;stroke-width:0.8;"/>
   </g>
   <g id="text_13">
    <!-- model loss -->
    <defs>
     <path d="M 52 44.1875 
Q 55.375 50.25 60.0625 53.125 
Q 64.75 56 71.09375 56 
Q 79.640625 56 84.28125 50.015625 
Q 88.921875 44.046875 88.921875 33.015625 
L 88.921875 0 
L 79.890625 0 
L 79.890625 32.71875 
Q 79.890625 40.578125 77.09375 44.375 
Q 74.3125 48.1875 68.609375 48.1875 
Q 61.625 48.1875 57.5625 43.546875 
Q 53.515625 38.921875 53.515625 30.90625 
L 53.515625 0 
L 44.484375 0 
L 44.484375 32.71875 
Q 44.484375 40.625 41.703125 44.40625 
Q 38.921875 48.1875 33.109375 48.1875 
Q 26.21875 48.1875 22.15625 43.53125 
Q 18.109375 38.875 18.109375 30.90625 
L 18.109375 0 
L 9.078125 0 
L 9.078125 54.6875 
L 18.109375 54.6875 
L 18.109375 46.1875 
Q 21.1875 51.21875 25.484375 53.609375 
Q 29.78125 56 35.6875 56 
Q 41.65625 56 45.828125 52.96875 
Q 50 49.953125 52 44.1875 
z
" id="DejaVuSans-109"/>
     <path d="M 45.40625 46.390625 
L 45.40625 75.984375 
L 54.390625 75.984375 
L 54.390625 0 
L 45.40625 0 
L 45.40625 8.203125 
Q 42.578125 3.328125 38.25 0.953125 
Q 33.9375 -1.421875 27.875 -1.421875 
Q 17.96875 -1.421875 11.734375 6.484375 
Q 5.515625 14.40625 5.515625 27.296875 
Q 5.515625 40.1875 11.734375 48.09375 
Q 17.96875 56 27.875 56 
Q 33.9375 56 38.25 53.625 
Q 42.578125 51.265625 45.40625 46.390625 
z
M 14.796875 27.296875 
Q 14.796875 17.390625 18.875 11.75 
Q 22.953125 6.109375 30.078125 6.109375 
Q 37.203125 6.109375 41.296875 11.75 
Q 45.40625 17.390625 45.40625 27.296875 
Q 45.40625 37.203125 41.296875 42.84375 
Q 37.203125 48.484375 30.078125 48.484375 
Q 22.953125 48.484375 18.875 42.84375 
Q 14.796875 37.203125 14.796875 27.296875 
z
" id="DejaVuSans-100"/>
     <path id="DejaVuSans-32"/>
    </defs>
    <g transform="translate(215.465313 19.44)scale(0.12 -0.12)">
     <use xlink:href="#DejaVuSans-109"/>
     <use x="97.412109" xlink:href="#DejaVuSans-111"/>
     <use x="158.59375" xlink:href="#DejaVuSans-100"/>
     <use x="222.070312" xlink:href="#DejaVuSans-101"/>
     <use x="283.59375" xlink:href="#DejaVuSans-108"/>
     <use x="311.376953" xlink:href="#DejaVuSans-32"/>
     <use x="343.164062" xlink:href="#DejaVuSans-108"/>
     <use x="370.947266" xlink:href="#DejaVuSans-111"/>
     <use x="432.128906" xlink:href="#DejaVuSans-115"/>
     <use x="484.228516" xlink:href="#DejaVuSans-115"/>
    </g>
   </g>
   <g id="legend_1">
    <g id="patch_7">
     <path d="M 54.81 62.79625 
L 110.085 62.79625 
Q 112.085 62.79625 112.085 60.79625 
L 112.085 32.44 
Q 112.085 30.44 110.085 30.44 
L 54.81 30.44 
Q 52.81 30.44 52.81 32.44 
L 52.81 60.79625 
Q 52.81 62.79625 54.81 62.79625 
z
" style="fill:#ffffff;opacity:0.8;stroke:#cccccc;stroke-linejoin:miter;"/>
    </g>
    <g id="line2d_13">
     <path d="M 56.81 38.538437 
L 76.81 38.538437 
" style="fill:none;stroke:#0000ff;stroke-linecap:square;stroke-width:1.5;"/>
    </g>
    <g id="line2d_14"/>
    <g id="text_14">
     <!-- train -->
     <defs>
      <path d="M 18.3125 70.21875 
L 18.3125 54.6875 
L 36.8125 54.6875 
L 36.8125 47.703125 
L 18.3125 47.703125 
L 18.3125 18.015625 
Q 18.3125 11.328125 20.140625 9.421875 
Q 21.96875 7.515625 27.59375 7.515625 
L 36.8125 7.515625 
L 36.8125 0 
L 27.59375 0 
Q 17.1875 0 13.234375 3.875 
Q 9.28125 7.765625 9.28125 18.015625 
L 9.28125 47.703125 
L 2.6875 47.703125 
L 2.6875 54.6875 
L 9.28125 54.6875 
L 9.28125 70.21875 
z
" id="DejaVuSans-116"/>
      <path d="M 41.109375 46.296875 
Q 39.59375 47.171875 37.8125 47.578125 
Q 36.03125 48 33.890625 48 
Q 26.265625 48 22.1875 43.046875 
Q 18.109375 38.09375 18.109375 28.8125 
L 18.109375 0 
L 9.078125 0 
L 9.078125 54.6875 
L 18.109375 54.6875 
L 18.109375 46.1875 
Q 20.953125 51.171875 25.484375 53.578125 
Q 30.03125 56 36.53125 56 
Q 37.453125 56 38.578125 55.875 
Q 39.703125 55.765625 41.0625 55.515625 
z
" id="DejaVuSans-114"/>
      <path d="M 34.28125 27.484375 
Q 23.390625 27.484375 19.1875 25 
Q 14.984375 22.515625 14.984375 16.5 
Q 14.984375 11.71875 18.140625 8.90625 
Q 21.296875 6.109375 26.703125 6.109375 
Q 34.1875 6.109375 38.703125 11.40625 
Q 43.21875 16.703125 43.21875 25.484375 
L 43.21875 27.484375 
z
M 52.203125 31.203125 
L 52.203125 0 
L 43.21875 0 
L 43.21875 8.296875 
Q 40.140625 3.328125 35.546875 0.953125 
Q 30.953125 -1.421875 24.3125 -1.421875 
Q 15.921875 -1.421875 10.953125 3.296875 
Q 6 8.015625 6 15.921875 
Q 6 25.140625 12.171875 29.828125 
Q 18.359375 34.515625 30.609375 34.515625 
L 43.21875 34.515625 
L 43.21875 35.40625 
Q 43.21875 41.609375 39.140625 45 
Q 35.0625 48.390625 27.6875 48.390625 
Q 23 48.390625 18.546875 47.265625 
Q 14.109375 46.140625 10.015625 43.890625 
L 10.015625 52.203125 
Q 14.9375 54.109375 19.578125 55.046875 
Q 24.21875 56 28.609375 56 
Q 40.484375 56 46.34375 49.84375 
Q 52.203125 43.703125 52.203125 31.203125 
z
" id="DejaVuSans-97"/>
      <path d="M 9.421875 54.6875 
L 18.40625 54.6875 
L 18.40625 0 
L 9.421875 0 
z
M 9.421875 75.984375 
L 18.40625 75.984375 
L 18.40625 64.59375 
L 9.421875 64.59375 
z
" id="DejaVuSans-105"/>
      <path d="M 54.890625 33.015625 
L 54.890625 0 
L 45.90625 0 
L 45.90625 32.71875 
Q 45.90625 40.484375 42.875 44.328125 
Q 39.84375 48.1875 33.796875 48.1875 
Q 26.515625 48.1875 22.3125 43.546875 
Q 18.109375 38.921875 18.109375 30.90625 
L 18.109375 0 
L 9.078125 0 
L 9.078125 54.6875 
L 18.109375 54.6875 
L 18.109375 46.1875 
Q 21.34375 51.125 25.703125 53.5625 
Q 30.078125 56 35.796875 56 
Q 45.21875 56 50.046875 50.171875 
Q 54.890625 44.34375 54.890625 33.015625 
z
" id="DejaVuSans-110"/>
     </defs>
     <g transform="translate(84.81 42.038437)scale(0.1 -0.1)">
      <use xlink:href="#DejaVuSans-116"/>
      <use x="39.208984" xlink:href="#DejaVuSans-114"/>
      <use x="80.322266" xlink:href="#DejaVuSans-97"/>
      <use x="141.601562" xlink:href="#DejaVuSans-105"/>
      <use x="169.384766" xlink:href="#DejaVuSans-110"/>
     </g>
    </g>
    <g id="line2d_15">
     <path d="M 56.81 53.216563 
L 76.81 53.216563 
" style="fill:none;stroke:#ffa500;stroke-linecap:square;stroke-width:1.5;"/>
    </g>
    <g id="line2d_16"/>
    <g id="text_15">
     <!-- test -->
     <g transform="translate(84.81 56.716563)scale(0.1 -0.1)">
      <use xlink:href="#DejaVuSans-116"/>
      <use x="39.208984" xlink:href="#DejaVuSans-101"/>
      <use x="100.732422" xlink:href="#DejaVuSans-115"/>
      <use x="152.832031" xlink:href="#DejaVuSans-116"/>
     </g>
    </g>
   </g>
  </g>
  <g id="axes_2">
   <g id="patch_8">
    <path d="M 47.81 303.64 
L 447.48 303.64 
L 447.48 192.84 
L 47.81 192.84 
z
" style="fill:#ffffff;"/>
   </g>
   <g id="matplotlib.axis_3">
    <g id="xtick_7">
     <g id="line2d_17">
      <g>
       <use style="stroke:#000000;stroke-width:0.8;" x="65.976818" xlink:href="#m7481916dfb" y="303.64"/>
      </g>
     </g>
     <g id="text_16">
      <!-- 0 -->
      <g transform="translate(62.795568 318.238437)scale(0.1 -0.1)">
       <use xlink:href="#DejaVuSans-48"/>
      </g>
     </g>
    </g>
    <g id="xtick_8">
     <g id="line2d_18">
      <g>
       <use style="stroke:#000000;stroke-width:0.8;" x="138.789717" xlink:href="#m7481916dfb" y="303.64"/>
      </g>
     </g>
     <g id="text_17">
      <!-- 100 -->
      <g transform="translate(129.245967 318.238437)scale(0.1 -0.1)">
       <use xlink:href="#DejaVuSans-49"/>
       <use x="63.623047" xlink:href="#DejaVuSans-48"/>
       <use x="127.246094" xlink:href="#DejaVuSans-48"/>
      </g>
     </g>
    </g>
    <g id="xtick_9">
     <g id="line2d_19">
      <g>
       <use style="stroke:#000000;stroke-width:0.8;" x="211.602615" xlink:href="#m7481916dfb" y="303.64"/>
      </g>
     </g>
     <g id="text_18">
      <!-- 200 -->
      <g transform="translate(202.058865 318.238437)scale(0.1 -0.1)">
       <use xlink:href="#DejaVuSans-50"/>
       <use x="63.623047" xlink:href="#DejaVuSans-48"/>
       <use x="127.246094" xlink:href="#DejaVuSans-48"/>
      </g>
     </g>
    </g>
    <g id="xtick_10">
     <g id="line2d_20">
      <g>
       <use style="stroke:#000000;stroke-width:0.8;" x="284.415514" xlink:href="#m7481916dfb" y="303.64"/>
      </g>
     </g>
     <g id="text_19">
      <!-- 300 -->
      <g transform="translate(274.871764 318.238437)scale(0.1 -0.1)">
       <use xlink:href="#DejaVuSans-51"/>
       <use x="63.623047" xlink:href="#DejaVuSans-48"/>
       <use x="127.246094" xlink:href="#DejaVuSans-48"/>
      </g>
     </g>
    </g>
    <g id="xtick_11">
     <g id="line2d_21">
      <g>
       <use style="stroke:#000000;stroke-width:0.8;" x="357.228412" xlink:href="#m7481916dfb" y="303.64"/>
      </g>
     </g>
     <g id="text_20">
      <!-- 400 -->
      <g transform="translate(347.684662 318.238437)scale(0.1 -0.1)">
       <use xlink:href="#DejaVuSans-52"/>
       <use x="63.623047" xlink:href="#DejaVuSans-48"/>
       <use x="127.246094" xlink:href="#DejaVuSans-48"/>
      </g>
     </g>
    </g>
    <g id="xtick_12">
     <g id="line2d_22">
      <g>
       <use style="stroke:#000000;stroke-width:0.8;" x="430.041311" xlink:href="#m7481916dfb" y="303.64"/>
      </g>
     </g>
     <g id="text_21">
      <!-- 500 -->
      <g transform="translate(420.497561 318.238437)scale(0.1 -0.1)">
       <use xlink:href="#DejaVuSans-53"/>
       <use x="63.623047" xlink:href="#DejaVuSans-48"/>
       <use x="127.246094" xlink:href="#DejaVuSans-48"/>
      </g>
     </g>
    </g>
    <g id="text_22">
     <!-- epoch -->
     <g transform="translate(232.416875 331.916562)scale(0.1 -0.1)">
      <use xlink:href="#DejaVuSans-101"/>
      <use x="61.523438" xlink:href="#DejaVuSans-112"/>
      <use x="125" xlink:href="#DejaVuSans-111"/>
      <use x="186.181641" xlink:href="#DejaVuSans-99"/>
      <use x="241.162109" xlink:href="#DejaVuSans-104"/>
     </g>
    </g>
   </g>
   <g id="matplotlib.axis_4">
    <g id="ytick_5">
     <g id="line2d_23">
      <g>
       <use style="stroke:#000000;stroke-width:0.8;" x="47.81" xlink:href="#m56e4fb2e3f" y="293.384327"/>
      </g>
     </g>
     <g id="text_23">
      <!-- 0.3 -->
      <g transform="translate(24.906875 297.183546)scale(0.1 -0.1)">
       <use xlink:href="#DejaVuSans-48"/>
       <use x="63.623047" xlink:href="#DejaVuSans-46"/>
       <use x="95.410156" xlink:href="#DejaVuSans-51"/>
      </g>
     </g>
    </g>
    <g id="ytick_6">
     <g id="line2d_24">
      <g>
       <use style="stroke:#000000;stroke-width:0.8;" x="47.81" xlink:href="#m56e4fb2e3f" y="270.725261"/>
      </g>
     </g>
     <g id="text_24">
      <!-- 0.4 -->
      <g transform="translate(24.906875 274.524479)scale(0.1 -0.1)">
       <use xlink:href="#DejaVuSans-48"/>
       <use x="63.623047" xlink:href="#DejaVuSans-46"/>
       <use x="95.410156" xlink:href="#DejaVuSans-52"/>
      </g>
     </g>
    </g>
    <g id="ytick_7">
     <g id="line2d_25">
      <g>
       <use style="stroke:#000000;stroke-width:0.8;" x="47.81" xlink:href="#m56e4fb2e3f" y="248.066195"/>
      </g>
     </g>
     <g id="text_25">
      <!-- 0.5 -->
      <g transform="translate(24.906875 251.865413)scale(0.1 -0.1)">
       <use xlink:href="#DejaVuSans-48"/>
       <use x="63.623047" xlink:href="#DejaVuSans-46"/>
       <use x="95.410156" xlink:href="#DejaVuSans-53"/>
      </g>
     </g>
    </g>
    <g id="ytick_8">
     <g id="line2d_26">
      <g>
       <use style="stroke:#000000;stroke-width:0.8;" x="47.81" xlink:href="#m56e4fb2e3f" y="225.407129"/>
      </g>
     </g>
     <g id="text_26">
      <!-- 0.6 -->
      <defs>
       <path d="M 33.015625 40.375 
Q 26.375 40.375 22.484375 35.828125 
Q 18.609375 31.296875 18.609375 23.390625 
Q 18.609375 15.53125 22.484375 10.953125 
Q 26.375 6.390625 33.015625 6.390625 
Q 39.65625 6.390625 43.53125 10.953125 
Q 47.40625 15.53125 47.40625 23.390625 
Q 47.40625 31.296875 43.53125 35.828125 
Q 39.65625 40.375 33.015625 40.375 
z
M 52.59375 71.296875 
L 52.59375 62.3125 
Q 48.875 64.0625 45.09375 64.984375 
Q 41.3125 65.921875 37.59375 65.921875 
Q 27.828125 65.921875 22.671875 59.328125 
Q 17.53125 52.734375 16.796875 39.40625 
Q 19.671875 43.65625 24.015625 45.921875 
Q 28.375 48.1875 33.59375 48.1875 
Q 44.578125 48.1875 50.953125 41.515625 
Q 57.328125 34.859375 57.328125 23.390625 
Q 57.328125 12.15625 50.6875 5.359375 
Q 44.046875 -1.421875 33.015625 -1.421875 
Q 20.359375 -1.421875 13.671875 8.265625 
Q 6.984375 17.96875 6.984375 36.375 
Q 6.984375 53.65625 15.1875 63.9375 
Q 23.390625 74.21875 37.203125 74.21875 
Q 40.921875 74.21875 44.703125 73.484375 
Q 48.484375 72.75 52.59375 71.296875 
z
" id="DejaVuSans-54"/>
      </defs>
      <g transform="translate(24.906875 229.206347)scale(0.1 -0.1)">
       <use xlink:href="#DejaVuSans-48"/>
       <use x="63.623047" xlink:href="#DejaVuSans-46"/>
       <use x="95.410156" xlink:href="#DejaVuSans-54"/>
      </g>
     </g>
    </g>
    <g id="ytick_9">
     <g id="line2d_27">
      <g>
       <use style="stroke:#000000;stroke-width:0.8;" x="47.81" xlink:href="#m56e4fb2e3f" y="202.748062"/>
      </g>
     </g>
     <g id="text_27">
      <!-- 0.7 -->
      <g transform="translate(24.906875 206.547281)scale(0.1 -0.1)">
       <use xlink:href="#DejaVuSans-48"/>
       <use x="63.623047" xlink:href="#DejaVuSans-46"/>
       <use x="95.410156" xlink:href="#DejaVuSans-55"/>
      </g>
     </g>
    </g>
    <g id="text_28">
     <!-- accuracy -->
     <defs>
      <path d="M 8.5 21.578125 
L 8.5 54.6875 
L 17.484375 54.6875 
L 17.484375 21.921875 
Q 17.484375 14.15625 20.5 10.265625 
Q 23.53125 6.390625 29.59375 6.390625 
Q 36.859375 6.390625 41.078125 11.03125 
Q 45.3125 15.671875 45.3125 23.6875 
L 45.3125 54.6875 
L 54.296875 54.6875 
L 54.296875 0 
L 45.3125 0 
L 45.3125 8.40625 
Q 42.046875 3.421875 37.71875 1 
Q 33.40625 -1.421875 27.6875 -1.421875 
Q 18.265625 -1.421875 13.375 4.4375 
Q 8.5 10.296875 8.5 21.578125 
z
M 31.109375 56 
z
" id="DejaVuSans-117"/>
      <path d="M 32.171875 -5.078125 
Q 28.375 -14.84375 24.75 -17.8125 
Q 21.140625 -20.796875 15.09375 -20.796875 
L 7.90625 -20.796875 
L 7.90625 -13.28125 
L 13.1875 -13.28125 
Q 16.890625 -13.28125 18.9375 -11.515625 
Q 21 -9.765625 23.484375 -3.21875 
L 25.09375 0.875 
L 2.984375 54.6875 
L 12.5 54.6875 
L 29.59375 11.921875 
L 46.6875 54.6875 
L 56.203125 54.6875 
z
" id="DejaVuSans-121"/>
     </defs>
     <g transform="translate(18.827187 270.799375)rotate(-90)scale(0.1 -0.1)">
      <use xlink:href="#DejaVuSans-97"/>
      <use x="61.279297" xlink:href="#DejaVuSans-99"/>
      <use x="116.259766" xlink:href="#DejaVuSans-99"/>
      <use x="171.240234" xlink:href="#DejaVuSans-117"/>
      <use x="234.619141" xlink:href="#DejaVuSans-114"/>
      <use x="275.732422" xlink:href="#DejaVuSans-97"/>
      <use x="337.011719" xlink:href="#DejaVuSans-99"/>
      <use x="391.992188" xlink:href="#DejaVuSans-121"/>
     </g>
    </g>
   </g>
   <g id="line2d_28">
    <path clip-path="url(#p2399acb868)" d="M 65.976818 298.603636 
L 66.704947 275.390968 
L 67.433076 259.913281 
L 68.161205 256.18226 
L 68.889334 254.310312 
L 69.617463 252.78855 
L 71.073721 250.700311 
L 71.80185 249.072978 
L 72.529979 247.968348 
L 73.258108 246.302392 
L 75.442495 243.130123 
L 81.267527 235.361668 
L 81.995656 234.929086 
L 82.723785 233.814157 
L 83.451914 233.250255 
L 84.908172 231.823764 
L 85.636301 231.146567 
L 87.092559 230.33805 
L 87.820688 229.405938 
L 89.276946 228.587122 
L 90.005075 227.891901 
L 90.733204 227.387222 
L 91.461333 227.122008 
L 92.189462 226.591579 
L 92.917591 226.346965 
L 93.64572 226.261993 
L 94.373849 225.533298 
L 95.101978 225.461201 
L 95.830107 225.141914 
L 96.558236 224.547114 
L 97.286365 224.377171 
L 98.014494 223.988362 
L 99.470752 223.77722 
L 100.19888 223.360088 
L 100.927009 222.700915 
L 101.655138 222.821935 
L 102.383267 222.20911 
L 103.111396 222.052042 
L 103.839525 221.776528 
L 104.567654 221.650358 
L 105.295783 221.650358 
L 106.023912 221.282148 
L 106.752041 220.772319 
L 107.48017 220.429859 
L 108.208299 220.476207 
L 108.936428 220.39381 
L 109.664557 220.499381 
L 110.392686 219.590443 
L 111.120815 219.608467 
L 111.848944 219.402476 
L 112.577073 219.397326 
L 113.305202 218.938995 
L 114.033331 219.168161 
L 114.76146 218.575935 
L 115.489589 218.650607 
L 116.217718 218.009458 
L 116.945847 217.651548 
L 117.673976 218.066106 
L 119.130234 217.329686 
L 119.858363 216.837882 
L 120.586492 217.133994 
L 122.04275 216.992375 
L 122.770879 216.546918 
L 123.499008 216.436198 
L 124.227137 216.477396 
L 124.955266 216.189008 
L 125.683395 216.055114 
L 126.411524 215.493787 
L 127.867782 215.177075 
L 128.595911 215.43199 
L 129.32404 215.957268 
L 130.052169 215.298095 
L 130.780298 215.123002 
L 131.508427 214.775392 
L 132.236556 214.69042 
L 132.964685 214.898987 
L 133.692814 214.502453 
L 134.420943 214.299036 
L 135.149072 213.925677 
L 135.877201 214.044122 
L 137.333459 213.856154 
L 138.789717 213.616689 
L 141.702233 213.130034 
L 142.430362 212.821047 
L 143.158491 213.271654 
L 144.614749 212.751525 
L 145.342878 213.093986 
L 146.071007 212.318943 
L 147.527265 212.27517 
L 148.255394 211.989356 
L 151.896038 212.01768 
L 152.624167 211.773065 
L 153.352296 212.03313 
L 154.080425 212.009956 
L 154.808554 211.855462 
L 155.536683 211.29156 
L 156.264812 211.147366 
L 156.992941 210.838379 
L 157.72107 211.198864 
L 158.449199 211.142216 
L 159.177328 210.900176 
L 159.905457 210.848679 
L 160.633586 210.627238 
L 161.361715 211.067544 
L 162.089844 210.521667 
L 162.817973 210.302801 
L 163.546102 210.253878 
L 164.274231 210.69161 
L 165.00236 210.676161 
L 165.730489 210.408372 
L 166.458618 209.980939 
L 167.186747 209.736324 
L 167.914876 210.083935 
L 169.371134 209.504584 
L 170.099263 209.60243 
L 170.827392 209.816146 
L 171.555521 209.875369 
L 172.28365 209.277993 
L 173.739908 209.674527 
L 174.468037 209.378414 
L 175.924295 209.226495 
L 176.652424 208.896909 
L 177.380553 208.922658 
L 178.108682 209.265119 
L 178.836811 208.528699 
L 179.56494 208.958706 
L 180.293069 208.938107 
L 181.021198 208.611096 
L 181.749327 208.75529 
L 182.477456 208.541574 
L 183.205585 208.781039 
L 183.933714 208.86086 
L 186.118101 208.343307 
L 187.574359 208.425703 
L 188.302488 208.183663 
L 189.030617 208.142465 
L 189.758746 207.725332 
L 190.486875 207.681559 
L 191.215004 207.90815 
L 191.943133 208.428278 
L 192.671262 207.395746 
L 193.399391 207.691859 
L 194.12752 208.157915 
L 194.855649 207.617187 
L 195.583778 207.583713 
L 196.311907 206.973463 
L 197.040036 207.573414 
L 197.768165 207.673834 
L 198.496293 207.609462 
L 199.224422 207.416345 
L 199.952551 207.663535 
L 200.68068 207.197479 
L 201.408809 207.156281 
L 202.136938 207.333948 
L 202.865067 207.233528 
L 203.593196 207.393171 
L 204.321325 207.400896 
L 205.049454 207.143406 
L 207.96197 206.937415 
L 208.690099 207.009512 
L 209.418228 206.656751 
L 210.146357 206.579505 
L 210.874486 206.33489 
L 211.602615 206.651602 
L 212.330744 207.117657 
L 213.058873 206.836994 
L 213.787002 206.419861 
L 214.515131 206.600104 
L 215.971389 205.897158 
L 217.427647 206.425011 
L 218.155776 205.96668 
L 218.883905 205.920332 
L 219.612034 206.221594 
L 220.340163 205.876559 
L 221.796421 205.544397 
L 222.52455 206.175246 
L 223.252679 206.079975 
L 223.980808 205.585596 
L 224.708937 206.280817 
L 225.437066 205.680867 
L 226.165195 205.817336 
L 226.893324 205.683442 
L 227.621453 205.928056 
L 228.349582 206.013028 
L 229.077711 205.822486 
L 229.80584 205.443976 
L 230.533969 205.583021 
L 231.990227 205.062892 
L 232.718356 205.454276 
L 233.446485 205.075767 
L 234.174614 205.248284 
L 234.902743 205.122115 
L 235.630872 205.546972 
L 236.359001 205.011394 
L 237.08713 204.810553 
L 237.815259 204.954747 
L 238.543388 205.212236 
L 239.271517 205.098941 
L 240.727775 205.091216 
L 241.455904 204.813127 
L 242.184033 204.826002 
L 242.912162 205.207086 
L 243.640291 204.975346 
L 244.36842 204.524739 
L 245.096549 204.617435 
L 245.824678 204.926423 
L 246.552807 204.581387 
L 247.280936 204.900674 
L 248.009064 204.810553 
L 248.737193 204.99852 
L 249.465322 204.650909 
L 250.193451 204.501565 
L 250.92158 204.674083 
L 251.649709 204.668933 
L 252.377838 204.944447 
L 253.105967 204.354796 
L 254.562225 204.648334 
L 256.018483 204.264675 
L 256.746612 204.661209 
L 257.474741 204.591686 
L 258.20287 204.14108 
L 258.930999 204.434618 
L 259.659128 204.251801 
L 260.387257 203.927364 
L 261.115386 204.362521 
L 261.843515 204.62001 
L 262.571644 203.994311 
L 263.299773 204.097307 
L 264.027902 203.638976 
L 264.756031 203.837243 
L 265.48416 204.316173 
L 266.212289 203.901615 
L 266.940418 204.264675 
L 267.668547 203.991736 
L 268.396676 204.303298 
L 269.124805 204.01491 
L 269.852934 204.120481 
L 271.309192 204.022635 
L 272.037321 203.726522 
L 272.76545 203.870716 
L 273.493579 203.860417 
L 274.221708 204.007186 
L 276.406095 203.394361 
L 277.134224 203.847542 
L 277.862353 203.378912 
L 278.590482 203.77287 
L 279.318611 203.505081 
L 280.04674 203.775445 
L 280.774869 203.329989 
L 281.502998 203.471608 
L 282.959256 203.404661 
L 283.687385 203.165195 
L 284.415514 203.528255 
L 285.143643 203.149746 
L 285.871772 203.394361 
L 286.599901 203.067349 
L 287.32803 203.497357 
L 288.056159 203.126572 
L 288.784288 203.129147 
L 289.512417 203.484482 
L 290.240546 203.618377 
L 290.968675 203.067349 
L 291.696804 203.605502 
L 292.424933 203.031301 
L 293.153062 203.082799 
L 293.881191 202.57297 
L 294.60932 203.250167 
L 295.337449 203.378912 
L 296.065578 203.324839 
L 296.793707 203.134297 
L 297.521835 203.059625 
L 298.249964 203.185795 
L 298.978093 202.647642 
L 299.706222 203.389211 
L 301.16248 202.665666 
L 301.890609 203.232143 
L 302.618738 202.606443 
L 304.074996 203.080224 
L 306.259383 202.645067 
L 306.987512 202.884532 
L 307.715641 202.794411 
L 308.44377 202.825309 
L 309.171899 202.32578 
L 309.900028 202.673391 
L 310.628157 202.686265 
L 311.356286 202.462249 
L 312.084415 202.838184 
L 312.812544 202.544646 
L 313.540673 202.686265 
L 314.268802 202.076015 
L 314.996931 202.717164 
L 316.453189 202.485423 
L 317.181318 202.598719 
L 317.909447 202.472549 
L 319.365705 202.487998 
L 320.093834 202.076015 
L 323.00635 202.56267 
L 323.734479 202.348954 
L 324.462608 201.795352 
L 325.190737 202.140388 
L 325.918866 202.624468 
L 326.646995 202.271707 
L 327.375124 202.258833 
L 328.103253 202.104339 
L 328.831382 202.495723 
L 329.559511 201.782477 
L 330.28764 201.893198 
L 331.015769 202.230509 
L 331.743898 202.081165 
L 332.472027 202.238234 
L 333.200156 202.536921 
L 333.928285 202.091465 
L 334.656414 202.137813 
L 335.384543 201.607385 
L 336.112672 201.59451 
L 336.840801 202.274282 
L 337.56893 202.091465 
L 338.297059 202.063141 
L 339.025188 202.549796 
L 339.753317 201.83655 
L 341.209575 201.694931 
L 341.937704 202.003918 
L 342.665833 201.975594 
L 343.393962 202.140388 
L 344.122091 201.718105 
L 344.85022 201.895773 
L 346.306478 201.803077 
L 347.034606 201.545587 
L 349.218993 201.900923 
L 349.947122 201.290673 
L 350.675251 201.671757 
L 351.40338 201.666607 
L 352.131509 201.8314 
L 352.859638 201.429717 
L 353.587767 201.826251 
L 355.044025 201.239175 
L 355.772154 201.491514 
L 356.500283 201.326721 
L 357.228412 201.620259 
L 357.956541 201.432292 
L 359.412799 201.71553 
L 361.597186 201.288098 
L 362.325315 201.782477 
L 363.053444 200.99971 
L 363.781573 201.290673 
L 364.509702 201.391094 
L 365.237831 201.131029 
L 365.96596 201.028034 
L 366.694089 201.094981 
L 367.422218 201.391094 
L 368.150347 201.349895 
L 368.878476 201.48379 
L 369.606605 201.252049 
L 371.062863 201.375644 
L 371.790992 201.033183 
L 372.519121 201.017734 
L 373.24725 201.375644 
L 373.975379 201.195402 
L 374.703508 200.667548 
L 375.431637 201.252049 
L 376.159766 201.494089 
L 376.887895 201.161928 
L 377.616024 200.968811 
L 378.344153 201.020309 
L 379.072282 201.267499 
L 379.800411 201.028034 
L 380.52854 201.203126 
L 381.256669 200.811742 
L 381.984798 201.040908 
L 382.712927 200.677848 
L 384.897314 200.837491 
L 385.625443 201.094981 
L 386.353572 200.582577 
L 387.081701 200.765394 
L 387.80983 200.513055 
L 388.537959 200.773119 
L 389.266088 200.852941 
L 389.994217 200.721621 
L 390.722346 201.102705 
L 391.450475 200.487306 
L 392.178604 201.195402 
L 392.906733 200.762819 
L 393.634862 200.51563 
L 394.362991 200.487306 
L 395.09112 200.804018 
L 395.819248 200.664973 
L 396.547377 200.680423 
L 397.275506 201.288098 
L 398.003635 200.458982 
L 400.188022 200.471856 
L 401.64428 200.986835 
L 402.372409 200.250416 
L 403.100538 201.053782 
L 403.828667 200.489881 
L 405.284925 200.708747 
L 406.013054 200.446108 
L 406.741183 200.829767 
L 407.469312 200.415209 
L 408.197441 200.682998 
L 408.92557 199.931129 
L 410.381828 200.484731 
L 411.109957 200.595451 
L 411.838086 200.350836 
L 413.294344 200.605751 
L 414.022473 200.250416 
L 414.750602 200.062448 
L 415.478731 200.448682 
L 416.20686 200.675273 
L 416.934989 200.052149 
L 417.663118 200.595451 
L 418.391247 200.090772 
L 419.119376 200.446108 
L 419.847505 200.487306 
L 420.575634 199.998076 
L 421.303763 200.013525 
L 422.031892 200.415209 
L 422.760021 199.936279 
L 423.48815 200.144845 
L 424.216279 199.954303 
L 424.944408 200.461557 
L 426.400666 199.843582 
L 427.128795 200.214367 
L 427.856924 200.003226 
L 428.585053 200.301913 
L 429.313182 200.209217 
L 429.313182 200.209217 
" style="fill:none;stroke:#0000ff;stroke-linecap:square;stroke-width:1.5;"/>
   </g>
   <g id="line2d_29">
    <path clip-path="url(#p2399acb868)" d="M 65.976818 282.376791 
L 66.704947 265.454046 
L 67.433076 255.859721 
L 68.161205 254.696953 
L 69.617463 251.429277 
L 70.345592 251.405425 
L 71.073721 249.747735 
L 71.80185 248.40608 
L 72.529979 244.643483 
L 73.258108 242.496834 
L 74.714366 241.268475 
L 75.442495 240.266705 
L 76.170624 238.835606 
L 76.898753 239.06816 
L 77.626882 237.118288 
L 78.355011 236.438516 
L 79.08314 234.756974 
L 79.811269 234.762937 
L 80.539398 232.019998 
L 81.267527 231.894777 
L 81.995656 230.553121 
L 82.723785 230.761823 
L 83.451914 229.509612 
L 84.180043 229.44402 
L 84.908172 228.197771 
L 85.636301 226.695117 
L 86.36443 226.736858 
L 87.092559 226.194233 
L 87.820688 225.842421 
L 88.548817 224.685616 
L 89.276946 225.866273 
L 90.005075 223.993918 
L 91.461333 223.469182 
L 92.189462 223.534774 
L 93.64572 223.039852 
L 94.373849 223.326072 
L 95.101978 222.825187 
L 96.558236 222.389895 
L 97.286365 222.091749 
L 98.014494 221.370237 
L 98.742623 222.020194 
L 99.470752 220.767983 
L 100.19888 220.123988 
L 100.927009 220.708354 
L 101.655138 219.187811 
L 102.383267 219.157997 
L 103.111396 218.597483 
L 103.839525 219.056627 
L 104.567654 218.102561 
L 105.295783 219.122219 
L 106.023912 219.53366 
L 107.48017 217.315457 
L 108.208299 216.85035 
L 109.664557 218.710778 
L 110.392686 216.862275 
L 111.120815 217.190236 
L 111.848944 216.361391 
L 112.577073 215.204586 
L 113.305202 215.449065 
L 114.033331 215.484843 
L 114.76146 216.438909 
L 115.489589 215.282104 
L 116.217718 215.276141 
L 116.945847 216.164615 
L 117.673976 215.144957 
L 118.402105 215.222475 
L 119.130234 214.238594 
L 119.858363 213.785413 
L 120.586492 214.882589 
L 121.314621 214.82296 
L 122.04275 213.916597 
L 122.770879 213.248751 
L 123.499008 212.926753 
L 124.227137 213.099678 
L 124.955266 212.950605 
L 125.683395 212.670348 
L 126.411524 214.119336 
L 127.139653 213.016197 
L 127.867782 212.413943 
L 128.595911 212.724014 
L 129.32404 213.803302 
L 130.052169 212.241019 
L 130.780298 213.0639 
L 131.508427 211.543358 
L 132.236556 211.984613 
L 132.964685 211.93691 
L 133.692814 212.777681 
L 134.420943 211.114028 
L 135.877201 212.449721 
L 136.60533 210.99477 
L 137.333459 211.257138 
L 138.061588 210.976881 
L 139.517846 209.849891 
L 140.245975 211.263101 
L 140.974104 211.537395 
L 141.702233 210.875512 
L 142.430362 210.923215 
L 143.88662 209.891631 
L 144.614749 209.283414 
L 145.342878 209.730633 
L 146.071007 209.563671 
L 146.799136 209.53982 
L 147.527265 209.873743 
L 148.255394 209.158193 
L 148.983522 209.182045 
L 149.711651 208.466495 
L 150.43978 208.818307 
L 151.167909 209.349006 
L 151.896038 208.901788 
L 152.624167 207.834427 
L 153.352296 208.484384 
L 154.080425 208.555939 
L 154.808554 207.41106 
L 155.536683 208.204127 
L 156.264812 208.061017 
L 156.992941 208.39494 
L 157.72107 207.500504 
L 158.449199 208.001388 
L 159.177328 208.710975 
L 159.905457 206.814769 
L 160.633586 207.524355 
L 161.361715 207.566096 
L 162.089844 207.381245 
L 162.817973 207.727094 
L 164.274231 207.065211 
L 165.00236 207.297765 
L 165.730489 206.462957 
L 166.458618 207.804612 
L 167.186747 207.536281 
L 167.914876 206.462957 
L 168.643005 207.637651 
L 169.371134 207.190432 
L 170.099263 206.498734 
L 170.827392 207.303728 
L 171.555521 206.451031 
L 172.28365 208.418792 
L 173.011779 206.415254 
L 173.739908 205.431373 
L 174.468037 205.902443 
L 175.196166 206.063442 
L 175.924295 205.973998 
L 176.652424 206.32581 
L 177.380553 206.856509 
L 178.108682 206.03959 
L 178.836811 206.355625 
L 179.56494 207.422986 
L 180.293069 206.218478 
L 181.021198 205.920332 
L 181.749327 205.866666 
L 182.477456 205.604298 
L 183.205585 205.013969 
L 183.933714 206.999619 
L 184.661843 205.359818 
L 186.118101 205.34193 
L 186.84623 205.652001 
L 187.574359 204.847008 
L 188.302488 205.56852 
L 189.030617 204.62638 
L 189.758746 205.288263 
L 190.486875 204.864897 
L 191.215004 204.900674 
L 191.943133 204.262642 
L 193.399391 206.295995 
L 194.12752 205.616223 
L 194.855649 205.467151 
L 195.583778 205.85474 
L 196.311907 206.558364 
L 197.040036 204.841045 
L 197.768165 204.572714 
L 198.496293 204.799304 
L 199.224422 204.143384 
L 199.952551 204.101644 
L 200.68068 204.399789 
L 201.408809 205.66989 
L 202.136938 204.95434 
L 203.593196 204.453456 
L 204.321325 205.735482 
L 205.049454 204.167236 
L 205.777583 204.864897 
L 206.505712 204.167236 
L 207.233841 204.167236 
L 207.96197 204.596566 
L 208.690099 204.065866 
L 210.874486 203.821387 
L 211.602615 204.632343 
L 212.330744 203.678277 
L 213.058873 204.280531 
L 213.787002 203.624611 
L 214.515131 203.916793 
L 215.24326 204.715824 
L 215.971389 204.19705 
L 216.699518 203.505353 
L 217.427647 204.036052 
L 218.155776 203.415909 
L 218.883905 203.35628 
L 219.612034 204.000274 
L 220.340163 203.260873 
L 221.068292 203.779646 
L 221.796421 203.02832 
L 222.52455 203.904868 
L 223.252679 203.433798 
L 223.980808 203.475538 
L 225.437066 203.183355 
L 226.165195 204.900674 
L 226.893324 202.980616 
L 227.621453 202.759988 
L 228.349582 202.718248 
L 229.077711 203.022357 
L 229.80584 203.022357 
L 230.533969 203.344354 
L 231.262098 202.777877 
L 231.990227 202.873284 
L 232.718356 204.214939 
L 233.446485 202.676508 
L 234.174614 203.576908 
L 234.902743 202.759989 
L 235.630872 202.35451 
L 236.359001 202.819618 
L 237.815259 202.432028 
L 238.543388 203.380132 
L 239.271517 203.099875 
L 239.999646 202.616879 
L 240.727775 202.700359 
L 241.455904 202.557249 
L 242.184033 202.193512 
L 242.912162 202.897135 
L 243.640291 203.081986 
L 244.36842 202.670545 
L 245.824678 202.432028 
L 246.552807 203.21317 
L 247.280936 202.181586 
L 248.009064 202.193512 
L 248.737193 202.873284 
L 249.465322 202.294881 
L 250.193451 202.354511 
L 250.92158 202.282956 
L 251.649709 201.579332 
L 252.377838 201.889403 
L 253.105967 201.728405 
L 253.834096 202.437991 
L 254.562225 201.907292 
L 255.290354 201.907292 
L 256.018483 202.199475 
L 256.746612 202.044439 
L 257.474741 203.368206 
L 258.20287 201.829774 
L 258.930999 201.954995 
L 259.659128 202.938876 
L 260.387257 201.525666 
L 261.115386 202.670545 
L 261.843515 201.674738 
L 262.571644 202.467806 
L 264.027902 201.32889 
L 264.756031 202.342585 
L 265.48416 201.746293 
L 266.940418 202.55725 
L 267.668547 201.603184 
L 269.124805 201.197706 
L 269.852934 201.221557 
L 270.581063 201.877478 
L 271.309192 201.519703 
L 272.037321 201.460074 
L 272.76545 201.567406 
L 273.493579 201.495851 
L 274.221708 202.366436 
L 275.677966 201.495851 
L 276.406095 201.22752 
L 277.134224 201.150002 
L 277.862353 201.376593 
L 279.318611 201.436222 
L 280.04674 201.054596 
L 280.774869 201.609147 
L 281.502998 200.851857 
L 282.231127 201.895366 
L 282.959256 201.692627 
L 283.687385 201.966921 
L 284.415514 201.090373 
L 285.143643 201.51374 
L 285.871772 201.048633 
L 286.599901 201.680701 
L 287.32803 201.102299 
L 288.056159 200.89956 
L 288.784288 201.203669 
L 289.512417 201.132113 
L 290.240546 200.917449 
L 290.968675 201.179817 
L 291.696804 201.209631 
L 292.424933 201.525666 
L 293.153062 200.667006 
L 293.881191 201.245409 
L 294.60932 201.269261 
L 296.065578 200.637192 
L 297.521835 200.9413 
L 298.249964 200.637192 
L 298.978093 201.788034 
L 299.706222 200.231714 
L 300.434351 200.684895 
L 301.16248 201.782071 
L 301.890609 200.291343 
L 302.618738 200.762413 
L 303.346867 200.994967 
L 304.074996 200.845894 
L 304.803125 200.237677 
L 305.531254 200.446379 
L 306.259383 200.816079 
L 306.987512 200.464267 
L 307.715641 200.577563 
L 308.44377 200.064752 
L 309.171899 200.315195 
L 309.900028 201.078447 
L 310.628157 200.345009 
L 311.356286 200.535822 
L 312.084415 201.51374 
L 312.812544 199.683126 
L 313.540673 200.79819 
L 314.268802 200.24364 
L 316.453189 200.333083 
L 317.181318 200.720673 
L 317.909447 200.368861 
L 318.637576 200.792228 
L 319.365705 200.10053 
L 320.093834 199.820273 
L 320.821963 200.583526 
L 322.278221 199.766607 
L 323.00635 199.933568 
L 323.734479 200.231714 
L 324.462608 200.10053 
L 325.190737 200.10053 
L 325.918866 200.24364 
L 326.646995 200.023012 
L 328.103253 200.207862 
L 328.831382 200.356935 
L 329.559511 199.77257 
L 330.28764 200.261528 
L 331.015769 200.124381 
L 331.743898 200.195936 
L 332.472027 199.701015 
L 333.200156 199.963383 
L 333.928285 199.987234 
L 334.656414 199.885865 
L 335.384543 200.058789 
L 336.112672 200.625266 
L 336.840801 199.850088 
L 337.56893 200.994967 
L 338.297059 199.689089 
L 339.025188 199.993197 
L 340.481446 199.557905 
L 341.937704 199.81431 
L 342.665833 200.744524 
L 343.393962 199.95742 
L 344.122091 200.583526 
L 344.85022 199.778533 
L 345.578349 200.052826 
L 346.306478 200.816079 
L 347.034606 199.718903 
L 347.762735 199.742755 
L 348.490864 200.494082 
L 349.218993 199.373054 
L 349.947122 200.47023 
L 350.675251 199.808347 
L 351.40338 199.879902 
L 352.131509 200.225751 
L 352.859638 200.738561 
L 353.587767 199.939531 
L 355.044025 199.701015 
L 355.772154 199.438646 
L 356.500283 199.557905 
L 357.228412 199.945494 
L 357.956541 199.617534 
L 358.68467 199.844125 
L 359.412799 199.24187 
L 360.140928 200.130344 
L 360.869057 199.468461 
L 361.597186 199.128575 
L 362.325315 199.134538 
L 363.053444 199.349203 
L 364.509702 200.422527 
L 365.237831 199.408832 
L 365.96596 200.368861 
L 366.694089 199.182241 
L 367.422218 199.206093 
L 368.150347 199.635423 
L 368.878476 199.897791 
L 369.606605 199.379017 
L 370.334734 199.414795 
L 371.790992 200.011086 
L 372.519121 199.206093 
L 373.24725 199.390943 
L 373.975379 199.110686 
L 374.703508 199.15839 
L 376.159766 199.551942 
L 378.344153 199.247833 
L 379.072282 199.331314 
L 379.800411 198.752912 
L 380.52854 199.24187 
L 381.256669 199.098761 
L 381.984798 198.758875 
L 383.441056 199.003354 
L 384.169185 198.782726 
L 384.897314 199.730829 
L 386.353572 198.633653 
L 387.80983 198.633653 
L 388.537959 199.188204 
L 389.266088 198.657505 
L 389.994217 199.623497 
L 390.722346 199.235908 
L 391.450475 198.550173 
L 393.634862 198.752912 
L 394.362991 199.176278 
L 395.09112 200.017049 
L 395.819248 198.520358 
L 396.547377 198.550173 
L 397.275506 199.277648 
L 398.003635 198.657505 
L 398.731764 199.110686 
L 399.459893 198.991428 
L 400.188022 199.080872 
L 400.916151 198.812541 
L 401.64428 198.782726 
L 402.372409 200.082641 
L 403.100538 198.633653 
L 403.828667 198.496506 
L 404.556796 199.068946 
L 405.284925 198.502469 
L 406.013054 199.134538 
L 406.741183 198.335508 
L 407.469312 198.752912 
L 408.92557 198.597876 
L 409.653699 198.454766 
L 410.381828 198.639616 
L 411.838086 198.633653 
L 412.566215 198.407063 
L 413.294344 198.87217 
L 414.022473 198.234138 
L 414.750602 198.407063 
L 415.478731 198.168546 
L 416.20686 198.496506 
L 418.391247 197.876364 
L 419.119376 198.418989 
L 419.847505 198.043325 
L 420.575634 198.108917 
L 421.303763 197.995622 
L 422.031892 198.448803 
L 422.760021 197.995622 
L 423.48815 198.305693 
L 424.216279 198.281842 
L 424.944408 198.132769 
L 425.672537 198.627691 
L 426.400666 198.490544 
L 427.128795 198.174509 
L 427.856924 198.025436 
L 428.585053 198.395137 
L 429.313182 198.532284 
L 429.313182 198.532284 
" style="fill:none;stroke:#ffa500;stroke-linecap:square;stroke-width:1.5;"/>
   </g>
   <g id="patch_9">
    <path d="M 47.81 303.64 
L 47.81 192.84 
" style="fill:none;stroke:#000000;stroke-linecap:square;stroke-linejoin:miter;stroke-width:0.8;"/>
   </g>
   <g id="patch_10">
    <path d="M 447.48 303.64 
L 447.48 192.84 
" style="fill:none;stroke:#000000;stroke-linecap:square;stroke-linejoin:miter;stroke-width:0.8;"/>
   </g>
   <g id="patch_11">
    <path d="M 47.81 303.64 
L 447.48 303.64 
" style="fill:none;stroke:#000000;stroke-linecap:square;stroke-linejoin:miter;stroke-width:0.8;"/>
   </g>
   <g id="patch_12">
    <path d="M 47.81 192.84 
L 447.48 192.84 
" style="fill:none;stroke:#000000;stroke-linecap:square;stroke-linejoin:miter;stroke-width:0.8;"/>
   </g>
   <g id="text_29">
    <!-- model accuracy -->
    <g transform="translate(199.983438 186.84)scale(0.12 -0.12)">
     <use xlink:href="#DejaVuSans-109"/>
     <use x="97.412109" xlink:href="#DejaVuSans-111"/>
     <use x="158.59375" xlink:href="#DejaVuSans-100"/>
     <use x="222.070312" xlink:href="#DejaVuSans-101"/>
     <use x="283.59375" xlink:href="#DejaVuSans-108"/>
     <use x="311.376953" xlink:href="#DejaVuSans-32"/>
     <use x="343.164062" xlink:href="#DejaVuSans-97"/>
     <use x="404.443359" xlink:href="#DejaVuSans-99"/>
     <use x="459.423828" xlink:href="#DejaVuSans-99"/>
     <use x="514.404297" xlink:href="#DejaVuSans-117"/>
     <use x="577.783203" xlink:href="#DejaVuSans-114"/>
     <use x="618.896484" xlink:href="#DejaVuSans-97"/>
     <use x="680.175781" xlink:href="#DejaVuSans-99"/>
     <use x="735.15625" xlink:href="#DejaVuSans-121"/>
    </g>
   </g>
   <g id="legend_2">
    <g id="patch_13">
     <path d="M 54.81 230.19625 
L 110.085 230.19625 
Q 112.085 230.19625 112.085 228.19625 
L 112.085 199.84 
Q 112.085 197.84 110.085 197.84 
L 54.81 197.84 
Q 52.81 197.84 52.81 199.84 
L 52.81 228.19625 
Q 52.81 230.19625 54.81 230.19625 
z
" style="fill:#ffffff;opacity:0.8;stroke:#cccccc;stroke-linejoin:miter;"/>
    </g>
    <g id="line2d_30">
     <path d="M 56.81 205.938437 
L 76.81 205.938437 
" style="fill:none;stroke:#0000ff;stroke-linecap:square;stroke-width:1.5;"/>
    </g>
    <g id="line2d_31"/>
    <g id="text_30">
     <!-- train -->
     <g transform="translate(84.81 209.438437)scale(0.1 -0.1)">
      <use xlink:href="#DejaVuSans-116"/>
      <use x="39.208984" xlink:href="#DejaVuSans-114"/>
      <use x="80.322266" xlink:href="#DejaVuSans-97"/>
      <use x="141.601562" xlink:href="#DejaVuSans-105"/>
      <use x="169.384766" xlink:href="#DejaVuSans-110"/>
     </g>
    </g>
    <g id="line2d_32">
     <path d="M 56.81 220.616562 
L 76.81 220.616562 
" style="fill:none;stroke:#ffa500;stroke-linecap:square;stroke-width:1.5;"/>
    </g>
    <g id="line2d_33"/>
    <g id="text_31">
     <!-- test -->
     <g transform="translate(84.81 224.116562)scale(0.1 -0.1)">
      <use xlink:href="#DejaVuSans-116"/>
      <use x="39.208984" xlink:href="#DejaVuSans-101"/>
      <use x="100.732422" xlink:href="#DejaVuSans-115"/>
      <use x="152.832031" xlink:href="#DejaVuSans-116"/>
     </g>
    </g>
   </g>
  </g>
 </g>
 <defs>
  <clipPath id="pe087e1ce03">
   <rect height="110.8" width="399.67" x="47.81" y="25.44"/>
  </clipPath>
  <clipPath id="p2399acb868">
   <rect height="110.8" width="399.67" x="47.81" y="192.84"/>
  </clipPath>
 </defs>
</svg>
