<?xml version="1.0" encoding="utf-8" standalone="no"?>
<!DOCTYPE svg PUBLIC "-//W3C//DTD SVG 1.1//EN"
  "http://www.w3.org/Graphics/SVG/1.1/DTD/svg11.dtd">
<!-- Created with matplotlib (https://matplotlib.org/) -->
<svg height="345.6pt" version="1.1" viewBox="0 0 460.8 345.6" width="460.8pt" xmlns="http://www.w3.org/2000/svg" xmlns:xlink="http://www.w3.org/1999/xlink">
 <defs>
  <style type="text/css">
*{stroke-linecap:butt;stroke-linejoin:round;}
  </style>
 </defs>
 <g id="figure_1">
  <g id="patch_1">
   <path d="M 0 345.6 
L 460.8 345.6 
L 460.8 0 
L 0 0 
z
" style="fill:#ffffff;"/>
  </g>
  <g id="axes_1">
   <g id="patch_2">
    <path d="M 47.81 136.24 
L 447.48 136.24 
L 447.48 25.44 
L 47.81 25.44 
z
" style="fill:#ffffff;"/>
   </g>
   <g id="matplotlib.axis_1">
    <g id="xtick_1">
     <g id="line2d_1">
      <defs>
       <path d="M 0 0 
L 0 3.5 
" id="me8261d900f" style="stroke:#000000;stroke-width:0.8;"/>
      </defs>
      <g>
       <use style="stroke:#000000;stroke-width:0.8;" x="65.976818" xlink:href="#me8261d900f" y="136.24"/>
      </g>
     </g>
     <g id="text_1">
      <!-- 0 -->
      <defs>
       <path d="M 31.78125 66.40625 
Q 24.171875 66.40625 20.328125 58.90625 
Q 16.5 51.421875 16.5 36.375 
Q 16.5 21.390625 20.328125 13.890625 
Q 24.171875 6.390625 31.78125 6.390625 
Q 39.453125 6.390625 43.28125 13.890625 
Q 47.125 21.390625 47.125 36.375 
Q 47.125 51.421875 43.28125 58.90625 
Q 39.453125 66.40625 31.78125 66.40625 
z
M 31.78125 74.21875 
Q 44.046875 74.21875 50.515625 64.515625 
Q 56.984375 54.828125 56.984375 36.375 
Q 56.984375 17.96875 50.515625 8.265625 
Q 44.046875 -1.421875 31.78125 -1.421875 
Q 19.53125 -1.421875 13.0625 8.265625 
Q 6.59375 17.96875 6.59375 36.375 
Q 6.59375 54.828125 13.0625 64.515625 
Q 19.53125 74.21875 31.78125 74.21875 
z
" id="DejaVuSans-48"/>
      </defs>
      <g transform="translate(62.795568 150.838437)scale(0.1 -0.1)">
       <use xlink:href="#DejaVuSans-48"/>
      </g>
     </g>
    </g>
    <g id="xtick_2">
     <g id="line2d_2">
      <g>
       <use style="stroke:#000000;stroke-width:0.8;" x="138.789717" xlink:href="#me8261d900f" y="136.24"/>
      </g>
     </g>
     <g id="text_2">
      <!-- 100 -->
      <defs>
       <path d="M 12.40625 8.296875 
L 28.515625 8.296875 
L 28.515625 63.921875 
L 10.984375 60.40625 
L 10.984375 69.390625 
L 28.421875 72.90625 
L 38.28125 72.90625 
L 38.28125 8.296875 
L 54.390625 8.296875 
L 54.390625 0 
L 12.40625 0 
z
" id="DejaVuSans-49"/>
      </defs>
      <g transform="translate(129.245967 150.838437)scale(0.1 -0.1)">
       <use xlink:href="#DejaVuSans-49"/>
       <use x="63.623047" xlink:href="#DejaVuSans-48"/>
       <use x="127.246094" xlink:href="#DejaVuSans-48"/>
      </g>
     </g>
    </g>
    <g id="xtick_3">
     <g id="line2d_3">
      <g>
       <use style="stroke:#000000;stroke-width:0.8;" x="211.602615" xlink:href="#me8261d900f" y="136.24"/>
      </g>
     </g>
     <g id="text_3">
      <!-- 200 -->
      <defs>
       <path d="M 19.1875 8.296875 
L 53.609375 8.296875 
L 53.609375 0 
L 7.328125 0 
L 7.328125 8.296875 
Q 12.9375 14.109375 22.625 23.890625 
Q 32.328125 33.6875 34.8125 36.53125 
Q 39.546875 41.84375 41.421875 45.53125 
Q 43.3125 49.21875 43.3125 52.78125 
Q 43.3125 58.59375 39.234375 62.25 
Q 35.15625 65.921875 28.609375 65.921875 
Q 23.96875 65.921875 18.8125 64.3125 
Q 13.671875 62.703125 7.8125 59.421875 
L 7.8125 69.390625 
Q 13.765625 71.78125 18.9375 73 
Q 24.125 74.21875 28.421875 74.21875 
Q 39.75 74.21875 46.484375 68.546875 
Q 53.21875 62.890625 53.21875 53.421875 
Q 53.21875 48.921875 51.53125 44.890625 
Q 49.859375 40.875 45.40625 35.40625 
Q 44.1875 33.984375 37.640625 27.21875 
Q 31.109375 20.453125 19.1875 8.296875 
z
" id="DejaVuSans-50"/>
      </defs>
      <g transform="translate(202.058865 150.838437)scale(0.1 -0.1)">
       <use xlink:href="#DejaVuSans-50"/>
       <use x="63.623047" xlink:href="#DejaVuSans-48"/>
       <use x="127.246094" xlink:href="#DejaVuSans-48"/>
      </g>
     </g>
    </g>
    <g id="xtick_4">
     <g id="line2d_4">
      <g>
       <use style="stroke:#000000;stroke-width:0.8;" x="284.415514" xlink:href="#me8261d900f" y="136.24"/>
      </g>
     </g>
     <g id="text_4">
      <!-- 300 -->
      <defs>
       <path d="M 40.578125 39.3125 
Q 47.65625 37.796875 51.625 33 
Q 55.609375 28.21875 55.609375 21.1875 
Q 55.609375 10.40625 48.1875 4.484375 
Q 40.765625 -1.421875 27.09375 -1.421875 
Q 22.515625 -1.421875 17.65625 -0.515625 
Q 12.796875 0.390625 7.625 2.203125 
L 7.625 11.71875 
Q 11.71875 9.328125 16.59375 8.109375 
Q 21.484375 6.890625 26.8125 6.890625 
Q 36.078125 6.890625 40.9375 10.546875 
Q 45.796875 14.203125 45.796875 21.1875 
Q 45.796875 27.640625 41.28125 31.265625 
Q 36.765625 34.90625 28.71875 34.90625 
L 20.21875 34.90625 
L 20.21875 43.015625 
L 29.109375 43.015625 
Q 36.375 43.015625 40.234375 45.921875 
Q 44.09375 48.828125 44.09375 54.296875 
Q 44.09375 59.90625 40.109375 62.90625 
Q 36.140625 65.921875 28.71875 65.921875 
Q 24.65625 65.921875 20.015625 65.03125 
Q 15.375 64.15625 9.8125 62.3125 
L 9.8125 71.09375 
Q 15.4375 72.65625 20.34375 73.4375 
Q 25.25 74.21875 29.59375 74.21875 
Q 40.828125 74.21875 47.359375 69.109375 
Q 53.90625 64.015625 53.90625 55.328125 
Q 53.90625 49.265625 50.4375 45.09375 
Q 46.96875 40.921875 40.578125 39.3125 
z
" id="DejaVuSans-51"/>
      </defs>
      <g transform="translate(274.871764 150.838437)scale(0.1 -0.1)">
       <use xlink:href="#DejaVuSans-51"/>
       <use x="63.623047" xlink:href="#DejaVuSans-48"/>
       <use x="127.246094" xlink:href="#DejaVuSans-48"/>
      </g>
     </g>
    </g>
    <g id="xtick_5">
     <g id="line2d_5">
      <g>
       <use style="stroke:#000000;stroke-width:0.8;" x="357.228412" xlink:href="#me8261d900f" y="136.24"/>
      </g>
     </g>
     <g id="text_5">
      <!-- 400 -->
      <defs>
       <path d="M 37.796875 64.3125 
L 12.890625 25.390625 
L 37.796875 25.390625 
z
M 35.203125 72.90625 
L 47.609375 72.90625 
L 47.609375 25.390625 
L 58.015625 25.390625 
L 58.015625 17.1875 
L 47.609375 17.1875 
L 47.609375 0 
L 37.796875 0 
L 37.796875 17.1875 
L 4.890625 17.1875 
L 4.890625 26.703125 
z
" id="DejaVuSans-52"/>
      </defs>
      <g transform="translate(347.684662 150.838437)scale(0.1 -0.1)">
       <use xlink:href="#DejaVuSans-52"/>
       <use x="63.623047" xlink:href="#DejaVuSans-48"/>
       <use x="127.246094" xlink:href="#DejaVuSans-48"/>
      </g>
     </g>
    </g>
    <g id="xtick_6">
     <g id="line2d_6">
      <g>
       <use style="stroke:#000000;stroke-width:0.8;" x="430.041311" xlink:href="#me8261d900f" y="136.24"/>
      </g>
     </g>
     <g id="text_6">
      <!-- 500 -->
      <defs>
       <path d="M 10.796875 72.90625 
L 49.515625 72.90625 
L 49.515625 64.59375 
L 19.828125 64.59375 
L 19.828125 46.734375 
Q 21.96875 47.46875 24.109375 47.828125 
Q 26.265625 48.1875 28.421875 48.1875 
Q 40.625 48.1875 47.75 41.5 
Q 54.890625 34.8125 54.890625 23.390625 
Q 54.890625 11.625 47.5625 5.09375 
Q 40.234375 -1.421875 26.90625 -1.421875 
Q 22.3125 -1.421875 17.546875 -0.640625 
Q 12.796875 0.140625 7.71875 1.703125 
L 7.71875 11.625 
Q 12.109375 9.234375 16.796875 8.0625 
Q 21.484375 6.890625 26.703125 6.890625 
Q 35.15625 6.890625 40.078125 11.328125 
Q 45.015625 15.765625 45.015625 23.390625 
Q 45.015625 31 40.078125 35.4375 
Q 35.15625 39.890625 26.703125 39.890625 
Q 22.75 39.890625 18.8125 39.015625 
Q 14.890625 38.140625 10.796875 36.28125 
z
" id="DejaVuSans-53"/>
      </defs>
      <g transform="translate(420.497561 150.838437)scale(0.1 -0.1)">
       <use xlink:href="#DejaVuSans-53"/>
       <use x="63.623047" xlink:href="#DejaVuSans-48"/>
       <use x="127.246094" xlink:href="#DejaVuSans-48"/>
      </g>
     </g>
    </g>
    <g id="text_7">
     <!-- epoch -->
     <defs>
      <path d="M 56.203125 29.59375 
L 56.203125 25.203125 
L 14.890625 25.203125 
Q 15.484375 15.921875 20.484375 11.0625 
Q 25.484375 6.203125 34.421875 6.203125 
Q 39.59375 6.203125 44.453125 7.46875 
Q 49.3125 8.734375 54.109375 11.28125 
L 54.109375 2.78125 
Q 49.265625 0.734375 44.1875 -0.34375 
Q 39.109375 -1.421875 33.890625 -1.421875 
Q 20.796875 -1.421875 13.15625 6.1875 
Q 5.515625 13.8125 5.515625 26.8125 
Q 5.515625 40.234375 12.765625 48.109375 
Q 20.015625 56 32.328125 56 
Q 43.359375 56 49.78125 48.890625 
Q 56.203125 41.796875 56.203125 29.59375 
z
M 47.21875 32.234375 
Q 47.125 39.59375 43.09375 43.984375 
Q 39.0625 48.390625 32.421875 48.390625 
Q 24.90625 48.390625 20.390625 44.140625 
Q 15.875 39.890625 15.1875 32.171875 
z
" id="DejaVuSans-101"/>
      <path d="M 18.109375 8.203125 
L 18.109375 -20.796875 
L 9.078125 -20.796875 
L 9.078125 54.6875 
L 18.109375 54.6875 
L 18.109375 46.390625 
Q 20.953125 51.265625 25.265625 53.625 
Q 29.59375 56 35.59375 56 
Q 45.5625 56 51.78125 48.09375 
Q 58.015625 40.1875 58.015625 27.296875 
Q 58.015625 14.40625 51.78125 6.484375 
Q 45.5625 -1.421875 35.59375 -1.421875 
Q 29.59375 -1.421875 25.265625 0.953125 
Q 20.953125 3.328125 18.109375 8.203125 
z
M 48.6875 27.296875 
Q 48.6875 37.203125 44.609375 42.84375 
Q 40.53125 48.484375 33.40625 48.484375 
Q 26.265625 48.484375 22.1875 42.84375 
Q 18.109375 37.203125 18.109375 27.296875 
Q 18.109375 17.390625 22.1875 11.75 
Q 26.265625 6.109375 33.40625 6.109375 
Q 40.53125 6.109375 44.609375 11.75 
Q 48.6875 17.390625 48.6875 27.296875 
z
" id="DejaVuSans-112"/>
      <path d="M 30.609375 48.390625 
Q 23.390625 48.390625 19.1875 42.75 
Q 14.984375 37.109375 14.984375 27.296875 
Q 14.984375 17.484375 19.15625 11.84375 
Q 23.34375 6.203125 30.609375 6.203125 
Q 37.796875 6.203125 41.984375 11.859375 
Q 46.1875 17.53125 46.1875 27.296875 
Q 46.1875 37.015625 41.984375 42.703125 
Q 37.796875 48.390625 30.609375 48.390625 
z
M 30.609375 56 
Q 42.328125 56 49.015625 48.375 
Q 55.71875 40.765625 55.71875 27.296875 
Q 55.71875 13.875 49.015625 6.21875 
Q 42.328125 -1.421875 30.609375 -1.421875 
Q 18.84375 -1.421875 12.171875 6.21875 
Q 5.515625 13.875 5.515625 27.296875 
Q 5.515625 40.765625 12.171875 48.375 
Q 18.84375 56 30.609375 56 
z
" id="DejaVuSans-111"/>
      <path d="M 48.78125 52.59375 
L 48.78125 44.1875 
Q 44.96875 46.296875 41.140625 47.34375 
Q 37.3125 48.390625 33.40625 48.390625 
Q 24.65625 48.390625 19.8125 42.84375 
Q 14.984375 37.3125 14.984375 27.296875 
Q 14.984375 17.28125 19.8125 11.734375 
Q 24.65625 6.203125 33.40625 6.203125 
Q 37.3125 6.203125 41.140625 7.25 
Q 44.96875 8.296875 48.78125 10.40625 
L 48.78125 2.09375 
Q 45.015625 0.34375 40.984375 -0.53125 
Q 36.96875 -1.421875 32.421875 -1.421875 
Q 20.0625 -1.421875 12.78125 6.34375 
Q 5.515625 14.109375 5.515625 27.296875 
Q 5.515625 40.671875 12.859375 48.328125 
Q 20.21875 56 33.015625 56 
Q 37.15625 56 41.109375 55.140625 
Q 45.0625 54.296875 48.78125 52.59375 
z
" id="DejaVuSans-99"/>
      <path d="M 54.890625 33.015625 
L 54.890625 0 
L 45.90625 0 
L 45.90625 32.71875 
Q 45.90625 40.484375 42.875 44.328125 
Q 39.84375 48.1875 33.796875 48.1875 
Q 26.515625 48.1875 22.3125 43.546875 
Q 18.109375 38.921875 18.109375 30.90625 
L 18.109375 0 
L 9.078125 0 
L 9.078125 75.984375 
L 18.109375 75.984375 
L 18.109375 46.1875 
Q 21.34375 51.125 25.703125 53.5625 
Q 30.078125 56 35.796875 56 
Q 45.21875 56 50.046875 50.171875 
Q 54.890625 44.34375 54.890625 33.015625 
z
" id="DejaVuSans-104"/>
     </defs>
     <g transform="translate(232.416875 164.516562)scale(0.1 -0.1)">
      <use xlink:href="#DejaVuSans-101"/>
      <use x="61.523438" xlink:href="#DejaVuSans-112"/>
      <use x="125" xlink:href="#DejaVuSans-111"/>
      <use x="186.181641" xlink:href="#DejaVuSans-99"/>
      <use x="241.162109" xlink:href="#DejaVuSans-104"/>
     </g>
    </g>
   </g>
   <g id="matplotlib.axis_2">
    <g id="ytick_1">
     <g id="line2d_7">
      <defs>
       <path d="M 0 0 
L -3.5 0 
" id="m3769adb8e4" style="stroke:#000000;stroke-width:0.8;"/>
      </defs>
      <g>
       <use style="stroke:#000000;stroke-width:0.8;" x="47.81" xlink:href="#m3769adb8e4" y="136.234483"/>
      </g>
     </g>
     <g id="text_8">
      <!-- 0.8 -->
      <defs>
       <path d="M 10.6875 12.40625 
L 21 12.40625 
L 21 0 
L 10.6875 0 
z
" id="DejaVuSans-46"/>
       <path d="M 31.78125 34.625 
Q 24.75 34.625 20.71875 30.859375 
Q 16.703125 27.09375 16.703125 20.515625 
Q 16.703125 13.921875 20.71875 10.15625 
Q 24.75 6.390625 31.78125 6.390625 
Q 38.8125 6.390625 42.859375 10.171875 
Q 46.921875 13.96875 46.921875 20.515625 
Q 46.921875 27.09375 42.890625 30.859375 
Q 38.875 34.625 31.78125 34.625 
z
M 21.921875 38.8125 
Q 15.578125 40.375 12.03125 44.71875 
Q 8.5 49.078125 8.5 55.328125 
Q 8.5 64.0625 14.71875 69.140625 
Q 20.953125 74.21875 31.78125 74.21875 
Q 42.671875 74.21875 48.875 69.140625 
Q 55.078125 64.0625 55.078125 55.328125 
Q 55.078125 49.078125 51.53125 44.71875 
Q 48 40.375 41.703125 38.8125 
Q 48.828125 37.15625 52.796875 32.3125 
Q 56.78125 27.484375 56.78125 20.515625 
Q 56.78125 9.90625 50.3125 4.234375 
Q 43.84375 -1.421875 31.78125 -1.421875 
Q 19.734375 -1.421875 13.25 4.234375 
Q 6.78125 9.90625 6.78125 20.515625 
Q 6.78125 27.484375 10.78125 32.3125 
Q 14.796875 37.15625 21.921875 38.8125 
z
M 18.3125 54.390625 
Q 18.3125 48.734375 21.84375 45.5625 
Q 25.390625 42.390625 31.78125 42.390625 
Q 38.140625 42.390625 41.71875 45.5625 
Q 45.3125 48.734375 45.3125 54.390625 
Q 45.3125 60.0625 41.71875 63.234375 
Q 38.140625 66.40625 31.78125 66.40625 
Q 25.390625 66.40625 21.84375 63.234375 
Q 18.3125 60.0625 18.3125 54.390625 
z
" id="DejaVuSans-56"/>
      </defs>
      <g transform="translate(24.906875 140.033702)scale(0.1 -0.1)">
       <use xlink:href="#DejaVuSans-48"/>
       <use x="63.623047" xlink:href="#DejaVuSans-46"/>
       <use x="95.410156" xlink:href="#DejaVuSans-56"/>
      </g>
     </g>
    </g>
    <g id="ytick_2">
     <g id="line2d_8">
      <g>
       <use style="stroke:#000000;stroke-width:0.8;" x="47.81" xlink:href="#m3769adb8e4" y="112.573748"/>
      </g>
     </g>
     <g id="text_9">
      <!-- 1.0 -->
      <g transform="translate(24.906875 116.372967)scale(0.1 -0.1)">
       <use xlink:href="#DejaVuSans-49"/>
       <use x="63.623047" xlink:href="#DejaVuSans-46"/>
       <use x="95.410156" xlink:href="#DejaVuSans-48"/>
      </g>
     </g>
    </g>
    <g id="ytick_3">
     <g id="line2d_9">
      <g>
       <use style="stroke:#000000;stroke-width:0.8;" x="47.81" xlink:href="#m3769adb8e4" y="88.913014"/>
      </g>
     </g>
     <g id="text_10">
      <!-- 1.2 -->
      <g transform="translate(24.906875 92.712233)scale(0.1 -0.1)">
       <use xlink:href="#DejaVuSans-49"/>
       <use x="63.623047" xlink:href="#DejaVuSans-46"/>
       <use x="95.410156" xlink:href="#DejaVuSans-50"/>
      </g>
     </g>
    </g>
    <g id="ytick_4">
     <g id="line2d_10">
      <g>
       <use style="stroke:#000000;stroke-width:0.8;" x="47.81" xlink:href="#m3769adb8e4" y="65.252279"/>
      </g>
     </g>
     <g id="text_11">
      <!-- 1.4 -->
      <g transform="translate(24.906875 69.051498)scale(0.1 -0.1)">
       <use xlink:href="#DejaVuSans-49"/>
       <use x="63.623047" xlink:href="#DejaVuSans-46"/>
       <use x="95.410156" xlink:href="#DejaVuSans-52"/>
      </g>
     </g>
    </g>
    <g id="ytick_5">
     <g id="line2d_11">
      <g>
       <use style="stroke:#000000;stroke-width:0.8;" x="47.81" xlink:href="#m3769adb8e4" y="41.591544"/>
      </g>
     </g>
     <g id="text_12">
      <!-- 1.6 -->
      <defs>
       <path d="M 33.015625 40.375 
Q 26.375 40.375 22.484375 35.828125 
Q 18.609375 31.296875 18.609375 23.390625 
Q 18.609375 15.53125 22.484375 10.953125 
Q 26.375 6.390625 33.015625 6.390625 
Q 39.65625 6.390625 43.53125 10.953125 
Q 47.40625 15.53125 47.40625 23.390625 
Q 47.40625 31.296875 43.53125 35.828125 
Q 39.65625 40.375 33.015625 40.375 
z
M 52.59375 71.296875 
L 52.59375 62.3125 
Q 48.875 64.0625 45.09375 64.984375 
Q 41.3125 65.921875 37.59375 65.921875 
Q 27.828125 65.921875 22.671875 59.328125 
Q 17.53125 52.734375 16.796875 39.40625 
Q 19.671875 43.65625 24.015625 45.921875 
Q 28.375 48.1875 33.59375 48.1875 
Q 44.578125 48.1875 50.953125 41.515625 
Q 57.328125 34.859375 57.328125 23.390625 
Q 57.328125 12.15625 50.6875 5.359375 
Q 44.046875 -1.421875 33.015625 -1.421875 
Q 20.359375 -1.421875 13.671875 8.265625 
Q 6.984375 17.96875 6.984375 36.375 
Q 6.984375 53.65625 15.1875 63.9375 
Q 23.390625 74.21875 37.203125 74.21875 
Q 40.921875 74.21875 44.703125 73.484375 
Q 48.484375 72.75 52.59375 71.296875 
z
" id="DejaVuSans-54"/>
      </defs>
      <g transform="translate(24.906875 45.390763)scale(0.1 -0.1)">
       <use xlink:href="#DejaVuSans-49"/>
       <use x="63.623047" xlink:href="#DejaVuSans-46"/>
       <use x="95.410156" xlink:href="#DejaVuSans-54"/>
      </g>
     </g>
    </g>
    <g id="text_13">
     <!-- loss -->
     <defs>
      <path d="M 9.421875 75.984375 
L 18.40625 75.984375 
L 18.40625 0 
L 9.421875 0 
z
" id="DejaVuSans-108"/>
      <path d="M 44.28125 53.078125 
L 44.28125 44.578125 
Q 40.484375 46.53125 36.375 47.5 
Q 32.28125 48.484375 27.875 48.484375 
Q 21.1875 48.484375 17.84375 46.4375 
Q 14.5 44.390625 14.5 40.28125 
Q 14.5 37.15625 16.890625 35.375 
Q 19.28125 33.59375 26.515625 31.984375 
L 29.59375 31.296875 
Q 39.15625 29.25 43.1875 25.515625 
Q 47.21875 21.78125 47.21875 15.09375 
Q 47.21875 7.46875 41.1875 3.015625 
Q 35.15625 -1.421875 24.609375 -1.421875 
Q 20.21875 -1.421875 15.453125 -0.5625 
Q 10.6875 0.296875 5.421875 2 
L 5.421875 11.28125 
Q 10.40625 8.6875 15.234375 7.390625 
Q 20.0625 6.109375 24.8125 6.109375 
Q 31.15625 6.109375 34.5625 8.28125 
Q 37.984375 10.453125 37.984375 14.40625 
Q 37.984375 18.0625 35.515625 20.015625 
Q 33.0625 21.96875 24.703125 23.78125 
L 21.578125 24.515625 
Q 13.234375 26.265625 9.515625 29.90625 
Q 5.8125 33.546875 5.8125 39.890625 
Q 5.8125 47.609375 11.28125 51.796875 
Q 16.75 56 26.8125 56 
Q 31.78125 56 36.171875 55.265625 
Q 40.578125 54.546875 44.28125 53.078125 
z
" id="DejaVuSans-115"/>
     </defs>
     <g transform="translate(18.827188 90.497812)rotate(-90)scale(0.1 -0.1)">
      <use xlink:href="#DejaVuSans-108"/>
      <use x="27.783203" xlink:href="#DejaVuSans-111"/>
      <use x="88.964844" xlink:href="#DejaVuSans-115"/>
      <use x="141.064453" xlink:href="#DejaVuSans-115"/>
     </g>
    </g>
   </g>
   <g id="line2d_12">
    <path clip-path="url(#p56df7d60fa)" d="M 65.976818 30.476364 
L 66.704947 68.088293 
L 67.433076 75.001838 
L 70.345592 89.179635 
L 71.80185 93.728068 
L 73.258108 96.997483 
L 73.986237 98.496854 
L 76.170624 101.711878 
L 76.898753 102.686367 
L 79.08314 105.03381 
L 79.811269 105.486397 
L 80.539398 106.075106 
L 81.267527 106.821549 
L 82.723785 107.79993 
L 83.451914 108.133071 
L 84.180043 108.680342 
L 90.733204 111.773232 
L 91.461333 111.899646 
L 92.189462 112.162459 
L 92.917591 112.300226 
L 93.64572 112.584284 
L 95.101978 112.848659 
L 97.286365 113.783889 
L 98.014494 113.891083 
L 98.742623 114.160518 
L 99.470752 114.159841 
L 100.19888 114.499347 
L 100.927009 114.49395 
L 102.383267 114.86097 
L 105.295783 115.51968 
L 106.023912 115.566373 
L 106.752041 115.864243 
L 107.48017 115.8903 
L 108.208299 116.114186 
L 108.936428 116.010269 
L 109.664557 116.344179 
L 113.305202 116.893135 
L 114.033331 116.760359 
L 115.489589 117.354728 
L 116.217718 117.53821 
L 117.673976 117.389793 
L 118.402105 117.685537 
L 121.314621 117.986173 
L 122.04275 117.972244 
L 122.770879 117.819407 
L 123.499008 118.20581 
L 125.683395 118.569269 
L 127.867782 118.379431 
L 130.052169 119.048787 
L 130.780298 119.188277 
L 131.508427 119.140286 
L 132.236556 119.271507 
L 132.964685 119.2647 
L 133.692814 119.551363 
L 134.420943 119.432685 
L 135.877201 119.736979 
L 136.60533 119.448721 
L 137.333459 119.816411 
L 139.517846 119.955235 
L 140.245975 119.874765 
L 140.974104 119.970358 
L 141.702233 119.878453 
L 142.430362 120.111644 
L 143.158491 120.032046 
L 143.88662 120.347364 
L 144.614749 120.48577 
L 145.342878 120.217935 
L 146.799136 120.507439 
L 148.255394 120.494365 
L 149.711651 120.59928 
L 150.43978 120.949451 
L 151.167909 120.524872 
L 151.896038 120.994194 
L 152.624167 120.836221 
L 154.080425 120.956148 
L 154.808554 121.227895 
L 155.536683 121.04485 
L 156.992941 121.223172 
L 157.72107 121.107844 
L 158.449199 121.469739 
L 159.177328 121.126362 
L 159.905457 121.350715 
L 161.361715 121.520203 
L 162.089844 121.223041 
L 162.817973 121.498788 
L 164.274231 121.787185 
L 165.00236 121.457953 
L 165.730489 121.703601 
L 167.914876 121.932974 
L 168.643005 122.110216 
L 169.371134 121.848074 
L 170.099263 122.171432 
L 170.827392 122.115765 
L 171.555521 121.70647 
L 172.28365 122.004922 
L 173.011779 121.99544 
L 173.739908 122.151751 
L 175.196166 122.07461 
L 176.652424 122.332313 
L 177.380553 122.280795 
L 178.108682 122.458516 
L 178.836811 122.202739 
L 179.56494 122.327566 
L 180.293069 122.273931 
L 181.021198 122.543474 
L 181.749327 122.335709 
L 183.933714 122.868118 
L 184.661843 122.6822 
L 186.118101 122.565663 
L 186.84623 122.707706 
L 187.574359 122.659354 
L 190.486875 122.937926 
L 192.671262 123.035983 
L 193.399391 123.137233 
L 194.12752 122.965214 
L 195.583778 123.186367 
L 196.311907 122.88125 
L 197.768165 123.166509 
L 198.496293 123.134648 
L 199.224422 123.320364 
L 199.952551 123.105275 
L 200.68068 123.13555 
L 201.408809 123.576358 
L 202.865067 123.233918 
L 203.593196 123.455123 
L 204.321325 123.329791 
L 205.049454 123.742111 
L 205.777583 123.343107 
L 206.505712 123.438404 
L 207.233841 123.378397 
L 207.96197 123.548909 
L 208.690099 123.562739 
L 210.146357 123.723279 
L 210.874486 123.535402 
L 211.602615 123.751335 
L 213.058873 123.868608 
L 213.787002 123.520032 
L 215.971389 123.955177 
L 216.699518 123.804081 
L 217.427647 123.985675 
L 218.155776 123.700347 
L 218.883905 123.704096 
L 219.612034 123.828959 
L 220.340163 123.770375 
L 222.52455 124.247107 
L 223.980808 124.231505 
L 224.708937 123.910151 
L 226.165195 124.084936 
L 226.893324 124.156792 
L 227.621453 124.364161 
L 229.077711 124.019802 
L 229.80584 124.38421 
L 230.533969 124.149613 
L 231.262098 124.146687 
L 231.990227 124.496542 
L 233.446485 124.441583 
L 234.174614 124.169508 
L 235.630872 124.431593 
L 236.359001 124.344193 
L 237.08713 124.382141 
L 237.815259 124.618006 
L 238.543388 124.494844 
L 239.271517 124.228934 
L 240.727775 124.621073 
L 241.455904 124.571549 
L 242.184033 124.654088 
L 242.912162 124.456454 
L 244.36842 124.349911 
L 245.096549 124.245627 
L 245.824678 124.693508 
L 246.552807 124.487427 
L 247.280936 124.397509 
L 248.009064 124.690815 
L 250.193451 124.547015 
L 252.377838 124.922283 
L 253.105967 124.646409 
L 253.834096 124.852481 
L 254.562225 124.774161 
L 255.290354 124.968747 
L 256.018483 124.830467 
L 256.746612 125.017102 
L 257.474741 124.652588 
L 258.930999 124.740103 
L 259.659128 125.045439 
L 260.387257 124.673965 
L 261.115386 124.629063 
L 262.571644 125.006478 
L 263.299773 124.686031 
L 264.027902 125.001578 
L 264.756031 124.969349 
L 265.48416 125.085657 
L 266.212289 125.052826 
L 266.940418 124.792025 
L 267.668547 124.975843 
L 268.396676 125.286327 
L 272.76545 124.962896 
L 273.493579 125.155001 
L 274.221708 125.120182 
L 274.949837 124.921465 
L 275.677966 125.204398 
L 276.406095 125.36756 
L 277.134224 124.931702 
L 278.590482 125.465108 
L 280.04674 125.271801 
L 280.774869 125.550024 
L 281.502998 125.222556 
L 282.231127 125.470681 
L 282.959256 125.214307 
L 283.687385 125.516179 
L 284.415514 125.514933 
L 285.143643 125.337274 
L 285.871772 125.277515 
L 286.599901 125.571775 
L 287.32803 125.333373 
L 288.056159 125.504627 
L 288.784288 125.420749 
L 289.512417 125.566219 
L 290.968675 125.505422 
L 291.696804 125.563388 
L 292.424933 125.426886 
L 293.881191 125.813221 
L 294.60932 125.507408 
L 296.793707 125.658574 
L 297.521835 125.430692 
L 298.249964 125.485348 
L 298.978093 125.372297 
L 300.434351 125.729885 
L 301.16248 125.7514 
L 302.618738 125.543207 
L 303.346867 125.568139 
L 304.074996 125.852488 
L 304.803125 125.769884 
L 305.531254 125.90534 
L 306.987512 125.641853 
L 307.715641 126.174383 
L 309.171899 125.836096 
L 309.900028 126.142521 
L 310.628157 125.749586 
L 312.084415 126.137717 
L 312.812544 125.720316 
L 313.540673 125.862603 
L 314.268802 125.744191 
L 314.996931 125.846107 
L 315.72506 125.661189 
L 316.453189 125.655282 
L 317.181318 126.090659 
L 317.909447 126.119526 
L 318.637576 125.93373 
L 319.365705 126.145398 
L 320.093834 125.934217 
L 320.821963 126.121838 
L 322.278221 125.894527 
L 323.00635 125.984717 
L 323.734479 125.876 
L 324.462608 125.993457 
L 325.190737 125.719048 
L 325.918866 126.463482 
L 326.646995 126.082691 
L 327.375124 126.325724 
L 328.103253 125.858416 
L 328.831382 125.748522 
L 330.28764 126.242133 
L 331.015769 126.159198 
L 331.743898 126.485192 
L 332.472027 126.148351 
L 333.928285 126.188203 
L 334.656414 126.307677 
L 335.384543 126.041438 
L 336.112672 126.018763 
L 336.840801 126.249256 
L 338.297059 126.26265 
L 339.753317 126.219266 
L 340.481446 126.373809 
L 341.937704 126.408537 
L 342.665833 126.190686 
L 343.393962 126.253864 
L 344.122091 126.47823 
L 344.85022 126.338478 
L 345.578349 126.388495 
L 346.306478 126.258978 
L 347.034606 126.385966 
L 347.762735 126.2797 
L 348.490864 126.441654 
L 349.947122 126.326811 
L 351.40338 126.431812 
L 352.131509 126.240426 
L 352.859638 126.207532 
L 354.315896 126.587705 
L 355.044025 126.196326 
L 357.228412 126.60103 
L 357.956541 126.269817 
L 358.68467 126.607906 
L 360.140928 126.435682 
L 360.869057 126.637776 
L 361.597186 126.25475 
L 365.237831 126.731757 
L 365.96596 126.368395 
L 366.694089 126.741559 
L 367.422218 126.742879 
L 368.150347 126.549264 
L 368.878476 126.878212 
L 369.606605 126.472817 
L 370.334734 126.809026 
L 371.062863 126.450403 
L 372.519121 126.87921 
L 373.24725 126.60135 
L 373.975379 126.834636 
L 374.703508 126.806539 
L 375.431637 126.299619 
L 376.159766 126.706527 
L 376.887895 126.512895 
L 377.616024 126.747269 
L 378.344153 126.757469 
L 379.072282 126.624591 
L 381.256669 126.810942 
L 381.984798 126.575426 
L 382.712927 127.056674 
L 383.441056 126.712579 
L 384.169185 127.047751 
L 384.897314 126.618823 
L 385.625443 127.000911 
L 386.353572 126.61869 
L 388.537959 127.054519 
L 389.266088 126.75944 
L 389.994217 127.001579 
L 391.450475 126.727085 
L 392.178604 126.810006 
L 392.906733 126.742766 
L 394.362991 126.921841 
L 396.547377 126.790464 
L 398.003635 127.13387 
L 398.731764 126.933802 
L 400.916151 126.767146 
L 401.64428 127.041066 
L 402.372409 126.891622 
L 403.100538 127.197138 
L 403.828667 127.229813 
L 404.556796 126.632514 
L 406.013054 127.117755 
L 407.469312 126.939821 
L 408.197441 127.156225 
L 408.92557 126.656469 
L 409.653699 126.781881 
L 410.381828 126.74478 
L 411.109957 127.131335 
L 411.838086 127.202336 
L 414.022473 126.974549 
L 415.478731 126.904761 
L 416.20686 127.092783 
L 416.934989 126.976613 
L 419.119376 127.026379 
L 419.847505 127.253932 
L 421.303763 127.013908 
L 422.031892 127.508357 
L 422.760021 127.0174 
L 424.216279 127.243381 
L 424.944408 127.161146 
L 425.672537 126.898806 
L 427.856924 127.367783 
L 428.585053 127.393877 
L 429.313182 127.251408 
L 429.313182 127.251408 
" style="fill:none;stroke:#0000ff;stroke-linecap:square;stroke-width:1.5;"/>
   </g>
   <g id="line2d_13">
    <path clip-path="url(#p56df7d60fa)" d="M 65.976818 63.544856 
L 66.704947 76.292479 
L 68.161205 83.856007 
L 68.889334 89.063613 
L 70.345592 94.569837 
L 72.529979 99.743272 
L 73.986237 102.658505 
L 74.714366 103.541012 
L 75.442495 105.219495 
L 76.170624 105.642499 
L 76.898753 106.522265 
L 77.626882 107.980783 
L 78.355011 108.404166 
L 79.08314 109.119799 
L 79.811269 109.620986 
L 80.539398 110.598375 
L 81.267527 111.043854 
L 81.995656 111.632631 
L 83.451914 112.354978 
L 85.636301 113.555332 
L 86.36443 113.891122 
L 87.092559 113.668352 
L 87.820688 114.544446 
L 89.276946 115.648153 
L 90.005075 115.133243 
L 90.733204 115.847428 
L 91.461333 116.3607 
L 92.189462 116.317084 
L 92.917591 116.98441 
L 93.64572 116.920271 
L 96.558236 117.789977 
L 97.286365 118.222859 
L 98.014494 118.078994 
L 99.470752 118.860577 
L 100.927009 118.628742 
L 101.655138 119.230921 
L 103.111396 119.300033 
L 103.839525 119.589268 
L 106.023912 119.937299 
L 106.752041 120.392735 
L 107.48017 120.337385 
L 108.936428 120.611357 
L 109.664557 120.8547 
L 111.848944 120.836041 
L 112.577073 121.261286 
L 114.033331 121.557748 
L 114.76146 121.446672 
L 115.489589 121.873122 
L 116.217718 121.77385 
L 116.945847 122.157667 
L 117.673976 121.903774 
L 118.402105 122.257328 
L 119.130234 122.383078 
L 119.858363 122.311979 
L 120.586492 122.423736 
L 121.314621 122.759795 
L 124.227137 123.028034 
L 124.955266 123.042161 
L 125.683395 123.341321 
L 126.411524 123.155493 
L 127.139653 123.180969 
L 127.867782 123.483044 
L 128.595911 123.440303 
L 129.32404 123.711573 
L 131.508427 123.727515 
L 132.236556 123.978705 
L 132.964685 123.848103 
L 133.692814 124.091399 
L 134.420943 124.009418 
L 135.877201 124.208347 
L 136.60533 124.394684 
L 138.061588 124.263801 
L 138.789717 124.638231 
L 139.517846 124.431027 
L 142.430362 124.79496 
L 143.158491 124.718541 
L 145.342878 124.95772 
L 146.071007 124.81515 
L 147.527265 125.184529 
L 148.255394 125.078757 
L 148.983522 125.096156 
L 149.711651 124.914021 
L 150.43978 124.961651 
L 151.167909 125.312667 
L 151.896038 125.140335 
L 153.352296 125.443263 
L 154.080425 125.243345 
L 155.536683 125.565257 
L 157.72107 125.525792 
L 159.177328 125.726679 
L 160.633586 126.019384 
L 162.817973 125.851264 
L 164.274231 126.007664 
L 165.00236 126.08777 
L 167.186747 125.994512 
L 167.914876 126.254842 
L 168.643005 126.010543 
L 169.371134 126.324519 
L 173.011779 126.286645 
L 173.739908 126.51507 
L 174.468037 126.305188 
L 175.924295 126.602583 
L 177.380553 126.530225 
L 178.836811 126.783982 
L 179.56494 126.532391 
L 181.749327 126.873955 
L 183.205585 126.915783 
L 184.661843 126.976331 
L 185.389972 126.966501 
L 186.118101 126.711122 
L 187.574359 126.77779 
L 188.302488 127.017304 
L 189.030617 126.954738 
L 190.486875 127.036176 
L 191.215004 126.990053 
L 192.671262 127.221359 
L 193.399391 127.085306 
L 194.855649 127.346966 
L 196.311907 127.186845 
L 197.040036 127.370841 
L 199.952551 127.592202 
L 200.68068 127.499814 
L 201.408809 127.632562 
L 202.136938 127.533573 
L 203.593196 127.654862 
L 204.321325 127.526595 
L 205.049454 127.585354 
L 205.777583 127.456831 
L 206.505712 127.553355 
L 207.233841 127.468073 
L 207.96197 127.605642 
L 210.874486 127.566018 
L 214.515131 127.85118 
L 215.24326 127.791746 
L 215.971389 127.92303 
L 218.155776 127.973605 
L 218.883905 127.721694 
L 220.340163 127.944736 
L 221.068292 127.836452 
L 223.252679 128.158237 
L 225.437066 128.081036 
L 230.533969 128.362579 
L 231.262098 128.226558 
L 231.990227 128.272047 
L 232.718356 128.434741 
L 233.446485 128.304386 
L 236.359001 128.47993 
L 237.08713 128.292015 
L 237.815259 128.435237 
L 239.271517 128.359434 
L 239.999646 128.523056 
L 240.727775 128.443554 
L 241.455904 128.612643 
L 242.184033 128.336456 
L 243.640291 128.62413 
L 244.36842 128.557316 
L 245.096549 128.655642 
L 245.824678 128.61779 
L 246.552807 128.720168 
L 248.009064 128.591773 
L 248.737193 128.78211 
L 250.193451 128.682143 
L 250.92158 128.732458 
L 251.649709 128.669842 
L 252.377838 128.800756 
L 253.105967 128.651081 
L 255.290354 128.926809 
L 256.018483 128.814618 
L 257.474741 128.886032 
L 262.571644 129.027713 
L 264.027902 128.963036 
L 266.212289 129.154161 
L 266.940418 129.085553 
L 267.668547 129.209499 
L 272.037321 129.09118 
L 272.76545 129.296491 
L 274.949837 129.252583 
L 280.04674 129.221793 
L 284.415514 129.398007 
L 285.143643 129.299476 
L 293.881191 129.553868 
L 296.065578 129.497199 
L 296.793707 129.663235 
L 298.249964 129.62738 
L 298.978093 129.650195 
L 299.706222 129.481493 
L 300.434351 129.487944 
L 302.618738 129.840177 
L 303.346867 129.680466 
L 304.074996 129.802996 
L 304.803125 129.575065 
L 305.531254 129.73411 
L 308.44377 129.679602 
L 309.171899 129.81321 
L 310.628157 129.797117 
L 311.356286 129.878385 
L 312.084415 129.803339 
L 312.812544 129.917336 
L 315.72506 129.808593 
L 316.453189 129.755583 
L 317.181318 130.021485 
L 319.365705 129.998173 
L 320.093834 130.085783 
L 320.821963 129.917294 
L 321.550092 130.013276 
L 322.278221 129.906879 
L 323.734479 130.159657 
L 325.190737 129.997814 
L 325.918866 130.093912 
L 326.646995 130.036959 
L 327.375124 130.123757 
L 328.103253 130.009983 
L 332.472027 130.1591 
L 333.928285 130.094175 
L 334.656414 130.226915 
L 335.384543 130.175966 
L 336.840801 130.327673 
L 337.56893 130.202536 
L 339.025188 130.260812 
L 339.753317 130.251052 
L 340.481446 130.363136 
L 341.937704 130.247924 
L 342.665833 130.355177 
L 343.393962 130.250433 
L 344.85022 130.431704 
L 346.306478 130.361459 
L 348.490864 130.397058 
L 349.218993 130.379834 
L 349.947122 130.507499 
L 350.675251 130.388845 
L 352.859638 130.488905 
L 355.044025 130.509781 
L 355.772154 130.570677 
L 356.500283 130.400052 
L 357.228412 130.51562 
L 358.68467 130.464768 
L 360.869057 130.554597 
L 361.597186 130.474765 
L 363.781573 130.662482 
L 365.237831 130.565415 
L 365.96596 130.667929 
L 369.606605 130.629666 
L 370.334734 130.747812 
L 371.062863 130.606123 
L 375.431637 130.669442 
L 376.159766 130.783934 
L 378.344153 130.694234 
L 386.353572 130.845599 
L 387.081701 130.889032 
L 387.80983 130.799084 
L 388.537959 130.870619 
L 389.266088 130.736829 
L 389.994217 130.854486 
L 392.178604 130.723465 
L 394.362991 130.903823 
L 395.09112 130.829877 
L 398.003635 130.902979 
L 399.459893 130.822331 
L 403.100538 130.995847 
L 404.556796 131.016359 
L 405.284925 131.094366 
L 406.741183 131.085984 
L 407.469312 131.094173 
L 408.197441 130.946222 
L 408.92557 131.043652 
L 411.109957 130.896319 
L 411.838086 131.009966 
L 414.022473 130.955881 
L 415.478731 131.083702 
L 419.119376 131.056502 
L 421.303763 131.203636 
L 422.760021 131.106533 
L 423.48815 131.150834 
L 424.216279 131.054695 
L 426.400666 131.094419 
L 427.128795 131.05582 
L 427.856924 131.158986 
L 429.313182 131.112462 
L 429.313182 131.112462 
" style="fill:none;stroke:#ffa500;stroke-linecap:square;stroke-width:1.5;"/>
   </g>
   <g id="patch_3">
    <path d="M 47.81 136.24 
L 47.81 25.44 
" style="fill:none;stroke:#000000;stroke-linecap:square;stroke-linejoin:miter;stroke-width:0.8;"/>
   </g>
   <g id="patch_4">
    <path d="M 447.48 136.24 
L 447.48 25.44 
" style="fill:none;stroke:#000000;stroke-linecap:square;stroke-linejoin:miter;stroke-width:0.8;"/>
   </g>
   <g id="patch_5">
    <path d="M 47.81 136.24 
L 447.48 136.24 
" style="fill:none;stroke:#000000;stroke-linecap:square;stroke-linejoin:miter;stroke-width:0.8;"/>
   </g>
   <g id="patch_6">
    <path d="M 47.81 25.44 
L 447.48 25.44 
" style="fill:none;stroke:#000000;stroke-linecap:square;stroke-linejoin:miter;stroke-width:0.8;"/>
   </g>
   <g id="text_14">
    <!-- model loss -->
    <defs>
     <path d="M 52 44.1875 
Q 55.375 50.25 60.0625 53.125 
Q 64.75 56 71.09375 56 
Q 79.640625 56 84.28125 50.015625 
Q 88.921875 44.046875 88.921875 33.015625 
L 88.921875 0 
L 79.890625 0 
L 79.890625 32.71875 
Q 79.890625 40.578125 77.09375 44.375 
Q 74.3125 48.1875 68.609375 48.1875 
Q 61.625 48.1875 57.5625 43.546875 
Q 53.515625 38.921875 53.515625 30.90625 
L 53.515625 0 
L 44.484375 0 
L 44.484375 32.71875 
Q 44.484375 40.625 41.703125 44.40625 
Q 38.921875 48.1875 33.109375 48.1875 
Q 26.21875 48.1875 22.15625 43.53125 
Q 18.109375 38.875 18.109375 30.90625 
L 18.109375 0 
L 9.078125 0 
L 9.078125 54.6875 
L 18.109375 54.6875 
L 18.109375 46.1875 
Q 21.1875 51.21875 25.484375 53.609375 
Q 29.78125 56 35.6875 56 
Q 41.65625 56 45.828125 52.96875 
Q 50 49.953125 52 44.1875 
z
" id="DejaVuSans-109"/>
     <path d="M 45.40625 46.390625 
L 45.40625 75.984375 
L 54.390625 75.984375 
L 54.390625 0 
L 45.40625 0 
L 45.40625 8.203125 
Q 42.578125 3.328125 38.25 0.953125 
Q 33.9375 -1.421875 27.875 -1.421875 
Q 17.96875 -1.421875 11.734375 6.484375 
Q 5.515625 14.40625 5.515625 27.296875 
Q 5.515625 40.1875 11.734375 48.09375 
Q 17.96875 56 27.875 56 
Q 33.9375 56 38.25 53.625 
Q 42.578125 51.265625 45.40625 46.390625 
z
M 14.796875 27.296875 
Q 14.796875 17.390625 18.875 11.75 
Q 22.953125 6.109375 30.078125 6.109375 
Q 37.203125 6.109375 41.296875 11.75 
Q 45.40625 17.390625 45.40625 27.296875 
Q 45.40625 37.203125 41.296875 42.84375 
Q 37.203125 48.484375 30.078125 48.484375 
Q 22.953125 48.484375 18.875 42.84375 
Q 14.796875 37.203125 14.796875 27.296875 
z
" id="DejaVuSans-100"/>
     <path id="DejaVuSans-32"/>
    </defs>
    <g transform="translate(215.465313 19.44)scale(0.12 -0.12)">
     <use xlink:href="#DejaVuSans-109"/>
     <use x="97.412109" xlink:href="#DejaVuSans-111"/>
     <use x="158.59375" xlink:href="#DejaVuSans-100"/>
     <use x="222.070312" xlink:href="#DejaVuSans-101"/>
     <use x="283.59375" xlink:href="#DejaVuSans-108"/>
     <use x="311.376953" xlink:href="#DejaVuSans-32"/>
     <use x="343.164062" xlink:href="#DejaVuSans-108"/>
     <use x="370.947266" xlink:href="#DejaVuSans-111"/>
     <use x="432.128906" xlink:href="#DejaVuSans-115"/>
     <use x="484.228516" xlink:href="#DejaVuSans-115"/>
    </g>
   </g>
   <g id="legend_1">
    <g id="patch_7">
     <path d="M 54.81 62.79625 
L 110.085 62.79625 
Q 112.085 62.79625 112.085 60.79625 
L 112.085 32.44 
Q 112.085 30.44 110.085 30.44 
L 54.81 30.44 
Q 52.81 30.44 52.81 32.44 
L 52.81 60.79625 
Q 52.81 62.79625 54.81 62.79625 
z
" style="fill:#ffffff;opacity:0.8;stroke:#cccccc;stroke-linejoin:miter;"/>
    </g>
    <g id="line2d_14">
     <path d="M 56.81 38.538437 
L 76.81 38.538437 
" style="fill:none;stroke:#0000ff;stroke-linecap:square;stroke-width:1.5;"/>
    </g>
    <g id="line2d_15"/>
    <g id="text_15">
     <!-- train -->
     <defs>
      <path d="M 18.3125 70.21875 
L 18.3125 54.6875 
L 36.8125 54.6875 
L 36.8125 47.703125 
L 18.3125 47.703125 
L 18.3125 18.015625 
Q 18.3125 11.328125 20.140625 9.421875 
Q 21.96875 7.515625 27.59375 7.515625 
L 36.8125 7.515625 
L 36.8125 0 
L 27.59375 0 
Q 17.1875 0 13.234375 3.875 
Q 9.28125 7.765625 9.28125 18.015625 
L 9.28125 47.703125 
L 2.6875 47.703125 
L 2.6875 54.6875 
L 9.28125 54.6875 
L 9.28125 70.21875 
z
" id="DejaVuSans-116"/>
      <path d="M 41.109375 46.296875 
Q 39.59375 47.171875 37.8125 47.578125 
Q 36.03125 48 33.890625 48 
Q 26.265625 48 22.1875 43.046875 
Q 18.109375 38.09375 18.109375 28.8125 
L 18.109375 0 
L 9.078125 0 
L 9.078125 54.6875 
L 18.109375 54.6875 
L 18.109375 46.1875 
Q 20.953125 51.171875 25.484375 53.578125 
Q 30.03125 56 36.53125 56 
Q 37.453125 56 38.578125 55.875 
Q 39.703125 55.765625 41.0625 55.515625 
z
" id="DejaVuSans-114"/>
      <path d="M 34.28125 27.484375 
Q 23.390625 27.484375 19.1875 25 
Q 14.984375 22.515625 14.984375 16.5 
Q 14.984375 11.71875 18.140625 8.90625 
Q 21.296875 6.109375 26.703125 6.109375 
Q 34.1875 6.109375 38.703125 11.40625 
Q 43.21875 16.703125 43.21875 25.484375 
L 43.21875 27.484375 
z
M 52.203125 31.203125 
L 52.203125 0 
L 43.21875 0 
L 43.21875 8.296875 
Q 40.140625 3.328125 35.546875 0.953125 
Q 30.953125 -1.421875 24.3125 -1.421875 
Q 15.921875 -1.421875 10.953125 3.296875 
Q 6 8.015625 6 15.921875 
Q 6 25.140625 12.171875 29.828125 
Q 18.359375 34.515625 30.609375 34.515625 
L 43.21875 34.515625 
L 43.21875 35.40625 
Q 43.21875 41.609375 39.140625 45 
Q 35.0625 48.390625 27.6875 48.390625 
Q 23 48.390625 18.546875 47.265625 
Q 14.109375 46.140625 10.015625 43.890625 
L 10.015625 52.203125 
Q 14.9375 54.109375 19.578125 55.046875 
Q 24.21875 56 28.609375 56 
Q 40.484375 56 46.34375 49.84375 
Q 52.203125 43.703125 52.203125 31.203125 
z
" id="DejaVuSans-97"/>
      <path d="M 9.421875 54.6875 
L 18.40625 54.6875 
L 18.40625 0 
L 9.421875 0 
z
M 9.421875 75.984375 
L 18.40625 75.984375 
L 18.40625 64.59375 
L 9.421875 64.59375 
z
" id="DejaVuSans-105"/>
      <path d="M 54.890625 33.015625 
L 54.890625 0 
L 45.90625 0 
L 45.90625 32.71875 
Q 45.90625 40.484375 42.875 44.328125 
Q 39.84375 48.1875 33.796875 48.1875 
Q 26.515625 48.1875 22.3125 43.546875 
Q 18.109375 38.921875 18.109375 30.90625 
L 18.109375 0 
L 9.078125 0 
L 9.078125 54.6875 
L 18.109375 54.6875 
L 18.109375 46.1875 
Q 21.34375 51.125 25.703125 53.5625 
Q 30.078125 56 35.796875 56 
Q 45.21875 56 50.046875 50.171875 
Q 54.890625 44.34375 54.890625 33.015625 
z
" id="DejaVuSans-110"/>
     </defs>
     <g transform="translate(84.81 42.038437)scale(0.1 -0.1)">
      <use xlink:href="#DejaVuSans-116"/>
      <use x="39.208984" xlink:href="#DejaVuSans-114"/>
      <use x="80.322266" xlink:href="#DejaVuSans-97"/>
      <use x="141.601562" xlink:href="#DejaVuSans-105"/>
      <use x="169.384766" xlink:href="#DejaVuSans-110"/>
     </g>
    </g>
    <g id="line2d_16">
     <path d="M 56.81 53.216563 
L 76.81 53.216563 
" style="fill:none;stroke:#ffa500;stroke-linecap:square;stroke-width:1.5;"/>
    </g>
    <g id="line2d_17"/>
    <g id="text_16">
     <!-- test -->
     <g transform="translate(84.81 56.716563)scale(0.1 -0.1)">
      <use xlink:href="#DejaVuSans-116"/>
      <use x="39.208984" xlink:href="#DejaVuSans-101"/>
      <use x="100.732422" xlink:href="#DejaVuSans-115"/>
      <use x="152.832031" xlink:href="#DejaVuSans-116"/>
     </g>
    </g>
   </g>
  </g>
  <g id="axes_2">
   <g id="patch_8">
    <path d="M 47.81 303.64 
L 447.48 303.64 
L 447.48 192.84 
L 47.81 192.84 
z
" style="fill:#ffffff;"/>
   </g>
   <g id="matplotlib.axis_3">
    <g id="xtick_7">
     <g id="line2d_18">
      <g>
       <use style="stroke:#000000;stroke-width:0.8;" x="65.976818" xlink:href="#me8261d900f" y="303.64"/>
      </g>
     </g>
     <g id="text_17">
      <!-- 0 -->
      <g transform="translate(62.795568 318.238437)scale(0.1 -0.1)">
       <use xlink:href="#DejaVuSans-48"/>
      </g>
     </g>
    </g>
    <g id="xtick_8">
     <g id="line2d_19">
      <g>
       <use style="stroke:#000000;stroke-width:0.8;" x="138.789717" xlink:href="#me8261d900f" y="303.64"/>
      </g>
     </g>
     <g id="text_18">
      <!-- 100 -->
      <g transform="translate(129.245967 318.238437)scale(0.1 -0.1)">
       <use xlink:href="#DejaVuSans-49"/>
       <use x="63.623047" xlink:href="#DejaVuSans-48"/>
       <use x="127.246094" xlink:href="#DejaVuSans-48"/>
      </g>
     </g>
    </g>
    <g id="xtick_9">
     <g id="line2d_20">
      <g>
       <use style="stroke:#000000;stroke-width:0.8;" x="211.602615" xlink:href="#me8261d900f" y="303.64"/>
      </g>
     </g>
     <g id="text_19">
      <!-- 200 -->
      <g transform="translate(202.058865 318.238437)scale(0.1 -0.1)">
       <use xlink:href="#DejaVuSans-50"/>
       <use x="63.623047" xlink:href="#DejaVuSans-48"/>
       <use x="127.246094" xlink:href="#DejaVuSans-48"/>
      </g>
     </g>
    </g>
    <g id="xtick_10">
     <g id="line2d_21">
      <g>
       <use style="stroke:#000000;stroke-width:0.8;" x="284.415514" xlink:href="#me8261d900f" y="303.64"/>
      </g>
     </g>
     <g id="text_20">
      <!-- 300 -->
      <g transform="translate(274.871764 318.238437)scale(0.1 -0.1)">
       <use xlink:href="#DejaVuSans-51"/>
       <use x="63.623047" xlink:href="#DejaVuSans-48"/>
       <use x="127.246094" xlink:href="#DejaVuSans-48"/>
      </g>
     </g>
    </g>
    <g id="xtick_11">
     <g id="line2d_22">
      <g>
       <use style="stroke:#000000;stroke-width:0.8;" x="357.228412" xlink:href="#me8261d900f" y="303.64"/>
      </g>
     </g>
     <g id="text_21">
      <!-- 400 -->
      <g transform="translate(347.684662 318.238437)scale(0.1 -0.1)">
       <use xlink:href="#DejaVuSans-52"/>
       <use x="63.623047" xlink:href="#DejaVuSans-48"/>
       <use x="127.246094" xlink:href="#DejaVuSans-48"/>
      </g>
     </g>
    </g>
    <g id="xtick_12">
     <g id="line2d_23">
      <g>
       <use style="stroke:#000000;stroke-width:0.8;" x="430.041311" xlink:href="#me8261d900f" y="303.64"/>
      </g>
     </g>
     <g id="text_22">
      <!-- 500 -->
      <g transform="translate(420.497561 318.238437)scale(0.1 -0.1)">
       <use xlink:href="#DejaVuSans-53"/>
       <use x="63.623047" xlink:href="#DejaVuSans-48"/>
       <use x="127.246094" xlink:href="#DejaVuSans-48"/>
      </g>
     </g>
    </g>
    <g id="text_23">
     <!-- epoch -->
     <g transform="translate(232.416875 331.916562)scale(0.1 -0.1)">
      <use xlink:href="#DejaVuSans-101"/>
      <use x="61.523438" xlink:href="#DejaVuSans-112"/>
      <use x="125" xlink:href="#DejaVuSans-111"/>
      <use x="186.181641" xlink:href="#DejaVuSans-99"/>
      <use x="241.162109" xlink:href="#DejaVuSans-104"/>
     </g>
    </g>
   </g>
   <g id="matplotlib.axis_4">
    <g id="ytick_6">
     <g id="line2d_24">
      <g>
       <use style="stroke:#000000;stroke-width:0.8;" x="47.81" xlink:href="#m3769adb8e4" y="280.158115"/>
      </g>
     </g>
     <g id="text_24">
      <!-- 0.4 -->
      <g transform="translate(24.906875 283.957333)scale(0.1 -0.1)">
       <use xlink:href="#DejaVuSans-48"/>
       <use x="63.623047" xlink:href="#DejaVuSans-46"/>
       <use x="95.410156" xlink:href="#DejaVuSans-52"/>
      </g>
     </g>
    </g>
    <g id="ytick_7">
     <g id="line2d_25">
      <g>
       <use style="stroke:#000000;stroke-width:0.8;" x="47.81" xlink:href="#m3769adb8e4" y="254.058728"/>
      </g>
     </g>
     <g id="text_25">
      <!-- 0.5 -->
      <g transform="translate(24.906875 257.857947)scale(0.1 -0.1)">
       <use xlink:href="#DejaVuSans-48"/>
       <use x="63.623047" xlink:href="#DejaVuSans-46"/>
       <use x="95.410156" xlink:href="#DejaVuSans-53"/>
      </g>
     </g>
    </g>
    <g id="ytick_8">
     <g id="line2d_26">
      <g>
       <use style="stroke:#000000;stroke-width:0.8;" x="47.81" xlink:href="#m3769adb8e4" y="227.959341"/>
      </g>
     </g>
     <g id="text_26">
      <!-- 0.6 -->
      <g transform="translate(24.906875 231.75856)scale(0.1 -0.1)">
       <use xlink:href="#DejaVuSans-48"/>
       <use x="63.623047" xlink:href="#DejaVuSans-46"/>
       <use x="95.410156" xlink:href="#DejaVuSans-54"/>
      </g>
     </g>
    </g>
    <g id="ytick_9">
     <g id="line2d_27">
      <g>
       <use style="stroke:#000000;stroke-width:0.8;" x="47.81" xlink:href="#m3769adb8e4" y="201.859954"/>
      </g>
     </g>
     <g id="text_27">
      <!-- 0.7 -->
      <defs>
       <path d="M 8.203125 72.90625 
L 55.078125 72.90625 
L 55.078125 68.703125 
L 28.609375 0 
L 18.3125 0 
L 43.21875 64.59375 
L 8.203125 64.59375 
z
" id="DejaVuSans-55"/>
      </defs>
      <g transform="translate(24.906875 205.659173)scale(0.1 -0.1)">
       <use xlink:href="#DejaVuSans-48"/>
       <use x="63.623047" xlink:href="#DejaVuSans-46"/>
       <use x="95.410156" xlink:href="#DejaVuSans-55"/>
      </g>
     </g>
    </g>
    <g id="text_28">
     <!-- accuracy -->
     <defs>
      <path d="M 8.5 21.578125 
L 8.5 54.6875 
L 17.484375 54.6875 
L 17.484375 21.921875 
Q 17.484375 14.15625 20.5 10.265625 
Q 23.53125 6.390625 29.59375 6.390625 
Q 36.859375 6.390625 41.078125 11.03125 
Q 45.3125 15.671875 45.3125 23.6875 
L 45.3125 54.6875 
L 54.296875 54.6875 
L 54.296875 0 
L 45.3125 0 
L 45.3125 8.40625 
Q 42.046875 3.421875 37.71875 1 
Q 33.40625 -1.421875 27.6875 -1.421875 
Q 18.265625 -1.421875 13.375 4.4375 
Q 8.5 10.296875 8.5 21.578125 
z
M 31.109375 56 
z
" id="DejaVuSans-117"/>
      <path d="M 32.171875 -5.078125 
Q 28.375 -14.84375 24.75 -17.8125 
Q 21.140625 -20.796875 15.09375 -20.796875 
L 7.90625 -20.796875 
L 7.90625 -13.28125 
L 13.1875 -13.28125 
Q 16.890625 -13.28125 18.9375 -11.515625 
Q 21 -9.765625 23.484375 -3.21875 
L 25.09375 0.875 
L 2.984375 54.6875 
L 12.5 54.6875 
L 29.59375 11.921875 
L 46.6875 54.6875 
L 56.203125 54.6875 
z
" id="DejaVuSans-121"/>
     </defs>
     <g transform="translate(18.827187 270.799375)rotate(-90)scale(0.1 -0.1)">
      <use xlink:href="#DejaVuSans-97"/>
      <use x="61.279297" xlink:href="#DejaVuSans-99"/>
      <use x="116.259766" xlink:href="#DejaVuSans-99"/>
      <use x="171.240234" xlink:href="#DejaVuSans-117"/>
      <use x="234.619141" xlink:href="#DejaVuSans-114"/>
      <use x="275.732422" xlink:href="#DejaVuSans-97"/>
      <use x="337.011719" xlink:href="#DejaVuSans-99"/>
      <use x="391.992188" xlink:href="#DejaVuSans-121"/>
     </g>
    </g>
   </g>
   <g id="line2d_28">
    <path clip-path="url(#p0deaf88963)" d="M 65.976818 298.603636 
L 66.704947 262.589415 
L 67.433076 257.193587 
L 68.161205 253.284544 
L 69.617463 244.422482 
L 70.345592 241.278826 
L 72.529979 234.677734 
L 73.986237 231.337599 
L 76.898753 226.971083 
L 77.626882 226.226224 
L 78.355011 225.645586 
L 79.08314 224.537096 
L 79.811269 224.434458 
L 80.539398 223.340629 
L 81.995656 222.666151 
L 84.180043 221.018077 
L 84.908172 220.971157 
L 85.636301 220.440372 
L 86.36443 220.340666 
L 87.092559 219.534224 
L 87.820688 219.903721 
L 88.548817 219.208715 
L 90.733204 218.25858 
L 91.461333 217.818703 
L 92.189462 217.589967 
L 93.64572 217.504924 
L 95.101978 216.82458 
L 95.830107 217.179415 
L 96.558236 216.74247 
L 97.286365 215.675034 
L 98.014494 215.938961 
L 98.742623 215.701427 
L 99.470752 215.26155 
L 100.19888 215.455096 
L 100.927009 215.232224 
L 102.383267 215.399378 
L 103.111396 214.748359 
L 103.839525 214.780617 
L 104.567654 214.211709 
L 105.295783 214.170654 
L 106.023912 214.37593 
L 106.752041 214.065083 
L 108.936428 213.812887 
L 109.664557 213.89793 
L 111.120815 212.774776 
L 111.848944 213.205856 
L 112.577073 213.015243 
L 113.305202 213.223451 
L 114.033331 213.079758 
L 114.76146 212.55777 
L 115.489589 212.692666 
L 116.217718 212.197071 
L 117.673976 211.988862 
L 118.402105 212.106163 
L 119.130234 212.041648 
L 119.858363 211.754261 
L 120.586492 211.924347 
L 122.04275 211.648691 
L 122.770879 211.510862 
L 123.499008 211.595905 
L 124.227137 211.546053 
L 124.955266 210.977145 
L 125.683395 210.795329 
L 126.411524 211.235206 
L 127.139653 210.748408 
L 127.867782 210.821721 
L 128.595911 211.079783 
L 129.32404 210.833451 
L 130.052169 210.763071 
L 130.780298 210.487414 
L 131.508427 210.739611 
L 132.236556 210.455157 
L 133.692814 210.12085 
L 134.420943 210.355451 
L 135.149072 209.871586 
L 135.877201 209.578335 
L 136.60533 210.329059 
L 138.789717 209.540212 
L 139.517846 209.575402 
L 140.245975 210.065132 
L 140.974104 209.431709 
L 141.702233 209.414114 
L 142.430362 209.273353 
L 143.158491 209.669243 
L 143.88662 208.985967 
L 144.614749 209.041684 
L 145.342878 209.390654 
L 146.071007 209.059279 
L 148.255394 209.006494 
L 148.983522 208.707378 
L 149.711651 208.936114 
L 150.43978 208.669255 
L 151.167909 208.988899 
L 151.896038 208.654592 
L 152.624167 208.918519 
L 154.080425 208.135537 
L 154.808554 208.027034 
L 155.536683 208.531427 
L 156.264812 208.452249 
L 156.992941 208.047562 
L 157.72107 208.419991 
L 158.449199 207.771905 
L 159.177328 208.249905 
L 160.633586 207.906801 
L 161.361715 207.836421 
L 162.089844 208.402396 
L 162.817973 207.859881 
L 164.274231 207.578359 
L 165.00236 208.053427 
L 165.730489 207.780703 
L 166.458618 207.29977 
L 167.186747 207.883341 
L 167.914876 207.367218 
L 168.643005 207.25285 
L 169.371134 207.378948 
L 170.099263 207.100359 
L 170.827392 207.147279 
L 171.555521 207.824691 
L 172.28365 207.469856 
L 173.011779 207.546102 
L 173.739908 207.21766 
L 175.196166 207.384813 
L 175.924295 207.267513 
L 177.380553 207.246985 
L 178.108682 206.895083 
L 178.836811 207.15901 
L 180.293069 207.20593 
L 181.021198 206.660482 
L 181.749327 206.974261 
L 182.477456 206.959598 
L 183.205585 206.464003 
L 183.933714 206.590102 
L 184.661843 207.009451 
L 185.389972 206.516789 
L 186.118101 206.531451 
L 186.84623 206.780715 
L 187.574359 206.587169 
L 188.302488 206.757255 
L 189.030617 206.757255 
L 189.758746 206.525586 
L 190.486875 206.927341 
L 191.943133 206.384825 
L 192.671262 206.478666 
L 193.399391 206.047586 
L 194.12752 206.543181 
L 194.855649 206.079844 
L 195.583778 205.968408 
L 196.311907 206.848163 
L 198.496293 205.933218 
L 200.68068 206.267525 
L 201.408809 205.73674 
L 202.136938 205.862838 
L 202.865067 206.164887 
L 203.593196 205.851108 
L 204.321325 206.32031 
L 205.049454 205.710347 
L 206.505712 205.936151 
L 207.233841 205.79539 
L 207.96197 206.047586 
L 208.690099 205.944948 
L 209.418228 206.229402 
L 210.146357 205.742605 
L 210.874486 205.824715 
L 212.330744 205.534396 
L 213.058873 205.824715 
L 214.515131 205.792457 
L 215.24326 205.660494 
L 215.971389 205.252875 
L 216.699518 205.895095 
L 217.427647 205.279267 
L 218.155776 205.663427 
L 219.612034 205.619439 
L 220.340163 205.373108 
L 221.068292 205.757267 
L 222.52455 205.032936 
L 223.252679 205.326187 
L 223.980808 205.112114 
L 224.708937 205.299795 
L 225.437066 205.675157 
L 226.165195 205.669292 
L 227.621453 205.156102 
L 228.349582 205.006543 
L 229.077711 205.393635 
L 229.80584 204.833525 
L 230.533969 205.343783 
L 231.262098 205.012408 
L 232.718356 204.742617 
L 233.446485 205.208887 
L 234.174614 205.150237 
L 234.902743 205.513868 
L 235.630872 204.845255 
L 236.359001 205.25874 
L 237.08713 204.87458 
L 237.815259 204.742617 
L 238.543388 205.082789 
L 239.271517 205.675157 
L 239.999646 205.370175 
L 240.727775 204.560801 
L 241.455904 204.818862 
L 242.912162 204.786605 
L 244.36842 205.065194 
L 245.096549 205.120911 
L 245.824678 204.549071 
L 246.552807 205.062261 
L 247.280936 204.774875 
L 248.009064 204.87458 
L 248.737193 204.675169 
L 249.465322 204.854052 
L 250.193451 204.669304 
L 250.92158 204.892175 
L 251.649709 204.859917 
L 252.377838 204.411243 
L 253.105967 204.930298 
L 253.834096 204.566666 
L 254.562225 204.94496 
L 255.290354 204.683967 
L 256.018483 204.798335 
L 256.746612 204.282212 
L 257.474741 204.89804 
L 258.20287 204.86285 
L 258.930999 204.631181 
L 259.659128 204.273414 
L 260.387257 204.543206 
L 261.115386 204.953758 
L 262.571644 204.628249 
L 263.299773 204.783672 
L 264.027902 204.249954 
L 264.756031 204.554936 
L 265.48416 204.402445 
L 266.212289 204.678102 
L 266.940418 204.575463 
L 267.668547 204.628249 
L 269.852934 204.235292 
L 271.309192 204.681034 
L 272.037321 204.170776 
L 272.76545 204.736752 
L 273.493579 204.296875 
L 274.221708 204.144384 
L 274.949837 204.663439 
L 275.677966 204.021218 
L 276.406095 204.229427 
L 277.134224 204.610654 
L 277.862353 204.601856 
L 278.590482 204.229427 
L 279.318611 204.053476 
L 280.04674 204.185439 
L 280.774869 203.874592 
L 281.502998 204.358457 
L 282.231127 204.381917 
L 283.687385 203.810077 
L 284.415514 204.030016 
L 285.143643 203.754359 
L 285.871772 204.364322 
L 286.599901 203.584273 
L 287.32803 203.98896 
L 288.056159 204.200102 
L 288.784288 204.144384 
L 289.512417 203.818875 
L 290.240546 204.079868 
L 290.968675 203.815942 
L 291.696804 203.739697 
L 292.424933 204.276347 
L 293.153062 203.669316 
L 293.881191 203.458175 
L 294.60932 203.892187 
L 295.337449 204.024151 
L 296.793707 203.49923 
L 297.521835 203.751427 
L 298.249964 204.167844 
L 298.978093 204.150249 
L 299.706222 203.962568 
L 300.434351 203.581341 
L 301.890609 204.082801 
L 302.618738 203.898052 
L 303.346867 204.018286 
L 304.074996 203.672249 
L 304.803125 204.053476 
L 305.531254 203.46404 
L 306.259383 203.645856 
L 306.987512 203.619463 
L 307.715641 203.420052 
L 308.44377 203.713304 
L 309.900028 203.739697 
L 310.628157 204.053476 
L 311.356286 203.842335 
L 312.084415 203.317414 
L 312.812544 204.059341 
L 313.540673 203.560813 
L 314.268802 203.818875 
L 314.996931 203.628261 
L 315.72506 203.874592 
L 316.453189 203.856997 
L 318.637576 203.02123 
L 319.365705 203.35847 
L 320.093834 203.513893 
L 320.821963 203.223574 
L 323.734479 204.094531 
L 324.462608 203.52269 
L 325.190737 203.82474 
L 325.918866 203.0095 
L 326.646995 203.296887 
L 327.375124 202.95085 
L 328.103253 203.490433 
L 329.559511 203.672249 
L 330.28764 203.38193 
L 332.472027 203.103341 
L 333.200156 203.361402 
L 333.928285 203.431782 
L 334.656414 203.047623 
L 336.112672 203.669316 
L 336.840801 203.173721 
L 337.56893 203.197181 
L 338.297059 203.422985 
L 339.025188 203.519758 
L 339.753317 203.276359 
L 340.481446 203.153194 
L 341.209575 203.543218 
L 341.937704 203.076948 
L 342.665833 203.484568 
L 343.393962 203.000703 
L 344.122091 202.99777 
L 344.85022 203.176654 
L 345.578349 202.994838 
L 346.306478 202.930322 
L 347.034606 203.337942 
L 347.762735 203.241169 
L 348.490864 202.959648 
L 349.947122 203.106273 
L 350.675251 203.519758 
L 351.40338 203.065218 
L 352.131509 203.167856 
L 352.859638 203.015365 
L 353.587767 203.138531 
L 354.315896 202.757304 
L 355.044025 203.293954 
L 355.772154 203.675181 
L 356.500283 203.326212 
L 357.228412 203.235304 
L 357.956541 203.291022 
L 358.68467 202.801292 
L 359.412799 202.921525 
L 361.597186 202.983108 
L 362.325315 203.402457 
L 363.053444 203.402457 
L 363.781573 202.845279 
L 364.509702 203.208911 
L 365.96596 202.91566 
L 366.694089 202.713316 
L 367.422218 203.144396 
L 368.150347 202.842347 
L 369.606605 202.909795 
L 370.334734 202.534433 
L 371.790992 202.95085 
L 372.519121 202.930322 
L 373.24725 203.537353 
L 373.975379 202.660531 
L 374.703508 202.745574 
L 375.431637 203.115071 
L 376.159766 202.637071 
L 376.887895 203.094543 
L 377.616024 202.475782 
L 378.344153 202.528568 
L 379.072282 203.123868 
L 379.800411 202.865807 
L 380.52854 202.924457 
L 381.256669 202.47285 
L 381.984798 203.0095 
L 382.712927 202.502175 
L 383.441056 203.003635 
L 384.169185 202.710384 
L 384.897314 202.760236 
L 385.625443 202.481648 
L 386.353572 203.0095 
L 387.081701 202.672261 
L 387.80983 202.804224 
L 388.537959 202.469917 
L 389.266088 202.859942 
L 389.994217 202.267574 
L 390.722346 202.387807 
L 391.450475 202.877537 
L 392.178604 202.642936 
L 392.906733 202.739709 
L 394.362991 202.475782 
L 395.09112 202.686924 
L 395.819248 202.657598 
L 396.547377 202.763169 
L 397.275506 202.707451 
L 398.003635 202.340887 
L 398.731764 203.018298 
L 399.459893 202.56669 
L 400.188022 202.598948 
L 400.916151 202.898065 
L 401.64428 202.405402 
L 402.372409 202.804224 
L 403.100538 202.132678 
L 403.828667 202.238249 
L 404.556796 202.625341 
L 405.284925 202.376077 
L 406.741183 202.379009 
L 408.197441 202.208924 
L 408.92557 202.98604 
L 409.653699 202.716249 
L 410.381828 202.777832 
L 411.838086 202.238249 
L 412.566215 202.510973 
L 413.294344 202.469917 
L 414.022473 202.170801 
L 414.750602 202.546163 
L 415.478731 202.719181 
L 417.663118 202.613611 
L 418.391247 202.648801 
L 419.119376 202.399537 
L 419.847505 202.299832 
L 420.575634 202.384875 
L 421.303763 202.704519 
L 422.031892 202.056433 
L 422.760021 202.182531 
L 423.48815 202.431795 
L 424.944408 202.238249 
L 426.400666 202.557893 
L 427.128795 201.930335 
L 427.856924 202.343819 
L 428.585053 202.132678 
L 429.313182 202.282236 
L 429.313182 202.282236 
" style="fill:none;stroke:#0000ff;stroke-linecap:square;stroke-width:1.5;"/>
   </g>
   <g id="line2d_29">
    <path clip-path="url(#p0deaf88963)" d="M 65.976818 264.642716 
L 66.704947 256.998343 
L 67.433076 252.465292 
L 68.889334 240.260394 
L 69.617463 238.447174 
L 72.529979 229.683274 
L 73.258108 227.581587 
L 74.714366 225.610396 
L 75.442495 224.099379 
L 76.898753 222.849356 
L 77.626882 221.592464 
L 80.539398 218.714664 
L 81.267527 218.776478 
L 81.995656 217.924814 
L 82.723785 217.272329 
L 83.451914 217.107491 
L 84.908172 216.070384 
L 85.636301 216.166539 
L 86.36443 215.582737 
L 87.092559 215.665156 
L 87.820688 214.813492 
L 88.548817 214.380792 
L 89.276946 213.748912 
L 90.005075 214.22969 
L 90.733204 213.398631 
L 91.461333 213.391762 
L 92.189462 213.240661 
L 92.917591 212.395865 
L 93.64572 212.842301 
L 94.373849 212.931589 
L 95.101978 212.21729 
L 95.830107 212.107398 
L 96.558236 211.5442 
L 97.286365 211.791458 
L 98.014494 211.770853 
L 98.742623 211.200787 
L 99.470752 210.932925 
L 100.927009 210.946662 
L 102.383267 210.438411 
L 103.111396 210.541434 
L 103.839525 209.676034 
L 104.567654 209.73098 
L 105.295783 210.198022 
L 106.023912 209.41504 
L 106.752041 209.943896 
L 107.48017 209.483723 
L 108.208299 209.353226 
L 108.936428 209.483723 
L 109.664557 209.236465 
L 110.392686 209.160914 
L 111.120815 208.879316 
L 111.848944 209.387567 
L 112.577073 207.807867 
L 113.305202 208.412274 
L 114.033331 208.384801 
L 116.217718 207.375167 
L 116.945847 207.299616 
L 117.673976 207.574346 
L 118.402105 207.0867 
L 119.130234 207.464454 
L 119.858363 206.942466 
L 120.586492 207.574346 
L 121.314621 206.750155 
L 122.770879 206.18009 
L 123.499008 206.654 
L 124.227137 206.241904 
L 124.955266 206.537239 
L 125.683395 205.939701 
L 127.139653 206.72955 
L 127.867782 206.262509 
L 128.595911 206.228167 
L 129.32404 205.410845 
L 131.508427 205.623761 
L 132.236556 205.108641 
L 133.692814 205.376503 
L 134.420943 205.692443 
L 135.877201 205.424581 
L 136.60533 204.669072 
L 137.333459 205.410845 
L 138.061588 205.149851 
L 138.789717 204.538576 
L 140.974104 204.463025 
L 141.702233 204.140216 
L 142.430362 204.490498 
L 143.158491 204.463025 
L 143.88662 205.012485 
L 144.614749 204.215767 
L 145.342878 203.838013 
L 146.071007 204.305055 
L 148.255394 204.353133 
L 148.983522 204.497366 
L 149.711651 204.318791 
L 150.43978 204.538576 
L 151.896038 203.906696 
L 152.624167 203.872354 
L 153.352296 203.673175 
L 154.080425 204.174558 
L 154.808554 204.08527 
L 155.536683 203.776199 
L 156.264812 203.989115 
L 157.72107 204.153953 
L 158.449199 203.21987 
L 159.177328 203.69378 
L 159.905457 202.965744 
L 160.633586 202.732223 
L 162.089844 203.556414 
L 162.817973 203.185528 
L 163.546102 203.590756 
L 164.274231 202.780301 
L 165.00236 203.17866 
L 165.730489 203.281684 
L 166.458618 203.137451 
L 167.186747 203.137451 
L 167.914876 202.869588 
L 168.643005 203.4946 
L 169.371134 202.670409 
L 170.099263 202.484966 
L 170.827392 202.491834 
L 171.555521 203.027558 
L 172.28365 202.931403 
L 173.011779 202.972612 
L 173.739908 202.794038 
L 175.196166 202.986349 
L 175.924295 202.512439 
L 177.380553 202.574253 
L 178.108682 202.38881 
L 178.836811 202.622331 
L 179.56494 203.000085 
L 180.293069 202.649804 
L 181.749327 202.326996 
L 182.477456 201.983583 
L 183.205585 202.23084 
L 183.933714 202.045397 
L 184.661843 202.059134 
L 185.389972 202.203367 
L 186.118101 202.560517 
L 186.84623 202.697882 
L 189.030617 202.210235 
L 190.486875 202.409415 
L 191.943133 202.052266 
L 192.671262 202.07287 
L 193.399391 201.853086 
L 194.12752 202.045397 
L 194.855649 201.509673 
L 195.583778 202.450625 
L 196.311907 201.722589 
L 197.768165 201.4822 
L 198.496293 201.64017 
L 199.952551 201.104446 
L 200.68068 201.550883 
L 201.408809 201.276152 
L 202.136938 201.454727 
L 203.593196 201.022027 
L 204.321325 201.386044 
L 205.049454 201.296757 
L 205.777583 201.4822 
L 206.505712 201.386044 
L 207.233841 201.16626 
L 207.96197 201.214338 
L 208.690099 201.550883 
L 209.418228 201.337967 
L 210.146357 201.647038 
L 210.874486 201.605829 
L 211.602615 201.0495 
L 213.058873 201.44099 
L 213.787002 200.781637 
L 215.971389 201.015158 
L 216.699518 201.262416 
L 217.427647 200.616799 
L 218.155776 200.520644 
L 218.883905 201.434122 
L 219.612034 200.919003 
L 221.068292 200.795374 
L 221.796421 200.431356 
L 222.52455 200.637404 
L 223.980808 200.596194 
L 224.708937 200.438224 
L 225.437066 200.829715 
L 226.165195 200.671745 
L 226.893324 200.973949 
L 228.349582 200.987685 
L 229.077711 200.726691 
L 229.80584 200.190967 
L 230.533969 200.403883 
L 231.262098 200.912134 
L 231.990227 200.383278 
L 232.718356 200.190967 
L 233.446485 200.822847 
L 234.174614 200.513775 
L 234.902743 200.451961 
L 235.630872 200.513775 
L 236.359001 200.403883 
L 237.08713 200.754164 
L 237.815259 200.513775 
L 238.543388 200.658009 
L 239.999646 200.108548 
L 240.727775 200.541248 
L 241.455904 200.115416 
L 242.184033 200.651141 
L 242.912162 200.21844 
L 244.36842 200.25965 
L 245.096549 200.10168 
L 245.824678 200.245913 
L 247.280936 200.149758 
L 248.009064 200.37641 
L 248.737193 199.854422 
L 250.193451 200.273386 
L 251.649709 200.410751 
L 252.377838 200.108548 
L 253.105967 200.451961 
L 253.834096 200.129153 
L 254.562225 199.641506 
L 255.290354 200.012392 
L 256.018483 200.53438 
L 256.746612 199.936842 
L 257.474741 200.163494 
L 258.20287 200.156626 
L 258.930999 200.266518 
L 259.659128 199.74453 
L 260.387257 199.854422 
L 261.115386 199.730794 
L 262.571644 199.9025 
L 263.299773 199.9025 
L 264.027902 200.081075 
L 264.756031 199.717057 
L 265.48416 199.950578 
L 266.212289 199.58656 
L 266.940418 199.916237 
L 267.668547 199.442327 
L 268.396676 199.833818 
L 269.124805 200.032997 
L 269.852934 199.668979 
L 270.581063 199.668979 
L 271.309192 199.929973 
L 272.76545 199.277489 
L 273.493579 199.559087 
L 274.221708 199.998656 
L 274.949837 199.662111 
L 276.406095 199.593429 
L 277.134224 199.387381 
L 278.590482 199.552219 
L 279.318611 199.861291 
L 280.774869 199.579692 
L 283.687385 199.483536 
L 285.143643 199.730794 
L 285.871772 200.287123 
L 286.599901 199.565956 
L 287.32803 199.614033 
L 288.784288 199.325566 
L 289.512417 199.593429 
L 290.240546 199.277489 
L 290.968675 199.366776 
L 291.696804 199.188201 
L 292.424933 199.538482 
L 293.881191 199.298093 
L 294.60932 199.607165 
L 295.337449 199.607165 
L 296.065578 199.339303 
L 297.521835 199.236279 
L 298.249964 199.572824 
L 298.978093 199.284357 
L 299.706222 199.710189 
L 300.434351 199.565956 
L 301.16248 199.58656 
L 302.618738 199.043968 
L 303.346867 199.696452 
L 304.074996 199.195069 
L 304.803125 199.435459 
L 305.531254 199.456063 
L 306.259383 199.208806 
L 307.715641 199.723925 
L 308.44377 199.291225 
L 309.900028 199.236279 
L 310.628157 199.140123 
L 311.356286 199.414854 
L 312.084415 198.99589 
L 312.812544 199.201938 
L 313.540673 199.126387 
L 314.996931 199.524746 
L 315.72506 199.318698 
L 316.453189 199.696452 
L 317.181318 199.277489 
L 317.909447 199.126387 
L 318.637576 199.11265 
L 319.365705 199.304962 
L 320.093834 198.899734 
L 320.821963 199.256884 
L 321.550092 199.009626 
L 322.278221 199.31183 
L 324.462608 198.961549 
L 325.190737 199.057704 
L 325.918866 198.831052 
L 326.646995 198.989022 
L 327.375124 198.831052 
L 328.103253 199.071441 
L 329.559511 198.714291 
L 330.28764 198.968417 
L 331.015769 198.968417 
L 331.743898 198.63874 
L 332.472027 198.892866 
L 333.200156 198.913471 
L 334.656414 198.631872 
L 335.384543 198.865393 
L 336.112672 198.782974 
L 338.297059 198.913471 
L 339.025188 198.728028 
L 339.753317 198.920339 
L 341.937704 198.645609 
L 342.665833 198.666214 
L 343.393962 198.83792 
L 344.85022 198.453297 
L 346.306478 198.851657 
L 347.034606 198.583794 
L 350.675251 198.659345 
L 355.772154 198.494507 
L 356.500283 198.817315 
L 357.228412 198.487639 
L 358.68467 198.748633 
L 360.869057 198.494507 
L 361.597186 198.72116 
L 363.053444 198.40522 
L 363.781573 198.357142 
L 364.509702 198.515112 
L 365.237831 198.528848 
L 366.694089 198.281591 
L 367.422218 198.322801 
L 368.150347 198.556321 
L 370.334734 198.391483 
L 371.062863 198.418956 
L 371.790992 198.570058 
L 372.519121 198.425824 
L 373.24725 198.446429 
L 373.975379 198.597531 
L 374.703508 198.315932 
L 375.431637 198.556321 
L 376.159766 198.425824 
L 381.984798 198.494507 
L 382.712927 198.618136 
L 384.897314 198.473902 
L 385.625443 198.329669 
L 388.537959 198.24725 
L 389.266088 198.473902 
L 389.994217 198.226645 
L 390.722346 198.254118 
L 391.450475 198.439561 
L 395.819248 198.192304 
L 397.275506 198.309064 
L 398.731764 198.370878 
L 401.64428 198.343405 
L 402.372409 198.151094 
L 403.100538 198.226645 
L 403.828667 198.123621 
L 404.556796 198.157962 
L 406.013054 198.027465 
L 406.741183 198.240381 
L 407.469312 197.979388 
L 408.92557 198.185435 
L 409.653699 198.054938 
L 411.109957 198.281591 
L 411.838086 198.04807 
L 412.566215 198.377747 
L 413.294344 198.013729 
L 414.022473 198.24725 
L 414.750602 198.027465 
L 416.20686 198.103016 
L 416.934989 197.924441 
L 419.119376 198.137358 
L 419.847505 197.93131 
L 420.575634 197.876364 
L 422.760021 198.082411 
L 424.216279 197.965651 
L 424.944408 197.993124 
L 425.672537 197.903837 
L 426.400666 198.123621 
L 429.313182 197.972519 
L 429.313182 197.972519 
" style="fill:none;stroke:#ffa500;stroke-linecap:square;stroke-width:1.5;"/>
   </g>
   <g id="patch_9">
    <path d="M 47.81 303.64 
L 47.81 192.84 
" style="fill:none;stroke:#000000;stroke-linecap:square;stroke-linejoin:miter;stroke-width:0.8;"/>
   </g>
   <g id="patch_10">
    <path d="M 447.48 303.64 
L 447.48 192.84 
" style="fill:none;stroke:#000000;stroke-linecap:square;stroke-linejoin:miter;stroke-width:0.8;"/>
   </g>
   <g id="patch_11">
    <path d="M 47.81 303.64 
L 447.48 303.64 
" style="fill:none;stroke:#000000;stroke-linecap:square;stroke-linejoin:miter;stroke-width:0.8;"/>
   </g>
   <g id="patch_12">
    <path d="M 47.81 192.84 
L 447.48 192.84 
" style="fill:none;stroke:#000000;stroke-linecap:square;stroke-linejoin:miter;stroke-width:0.8;"/>
   </g>
   <g id="text_29">
    <!-- model accuracy -->
    <g transform="translate(199.983438 186.84)scale(0.12 -0.12)">
     <use xlink:href="#DejaVuSans-109"/>
     <use x="97.412109" xlink:href="#DejaVuSans-111"/>
     <use x="158.59375" xlink:href="#DejaVuSans-100"/>
     <use x="222.070312" xlink:href="#DejaVuSans-101"/>
     <use x="283.59375" xlink:href="#DejaVuSans-108"/>
     <use x="311.376953" xlink:href="#DejaVuSans-32"/>
     <use x="343.164062" xlink:href="#DejaVuSans-97"/>
     <use x="404.443359" xlink:href="#DejaVuSans-99"/>
     <use x="459.423828" xlink:href="#DejaVuSans-99"/>
     <use x="514.404297" xlink:href="#DejaVuSans-117"/>
     <use x="577.783203" xlink:href="#DejaVuSans-114"/>
     <use x="618.896484" xlink:href="#DejaVuSans-97"/>
     <use x="680.175781" xlink:href="#DejaVuSans-99"/>
     <use x="735.15625" xlink:href="#DejaVuSans-121"/>
    </g>
   </g>
   <g id="legend_2">
    <g id="patch_13">
     <path d="M 54.81 230.19625 
L 110.085 230.19625 
Q 112.085 230.19625 112.085 228.19625 
L 112.085 199.84 
Q 112.085 197.84 110.085 197.84 
L 54.81 197.84 
Q 52.81 197.84 52.81 199.84 
L 52.81 228.19625 
Q 52.81 230.19625 54.81 230.19625 
z
" style="fill:#ffffff;opacity:0.8;stroke:#cccccc;stroke-linejoin:miter;"/>
    </g>
    <g id="line2d_30">
     <path d="M 56.81 205.938437 
L 76.81 205.938437 
" style="fill:none;stroke:#0000ff;stroke-linecap:square;stroke-width:1.5;"/>
    </g>
    <g id="line2d_31"/>
    <g id="text_30">
     <!-- train -->
     <g transform="translate(84.81 209.438437)scale(0.1 -0.1)">
      <use xlink:href="#DejaVuSans-116"/>
      <use x="39.208984" xlink:href="#DejaVuSans-114"/>
      <use x="80.322266" xlink:href="#DejaVuSans-97"/>
      <use x="141.601562" xlink:href="#DejaVuSans-105"/>
      <use x="169.384766" xlink:href="#DejaVuSans-110"/>
     </g>
    </g>
    <g id="line2d_32">
     <path d="M 56.81 220.616562 
L 76.81 220.616562 
" style="fill:none;stroke:#ffa500;stroke-linecap:square;stroke-width:1.5;"/>
    </g>
    <g id="line2d_33"/>
    <g id="text_31">
     <!-- test -->
     <g transform="translate(84.81 224.116562)scale(0.1 -0.1)">
      <use xlink:href="#DejaVuSans-116"/>
      <use x="39.208984" xlink:href="#DejaVuSans-101"/>
      <use x="100.732422" xlink:href="#DejaVuSans-115"/>
      <use x="152.832031" xlink:href="#DejaVuSans-116"/>
     </g>
    </g>
   </g>
  </g>
 </g>
 <defs>
  <clipPath id="p56df7d60fa">
   <rect height="110.8" width="399.67" x="47.81" y="25.44"/>
  </clipPath>
  <clipPath id="p0deaf88963">
   <rect height="110.8" width="399.67" x="47.81" y="192.84"/>
  </clipPath>
 </defs>
</svg>
